<?xml version="1.0" encoding="UTF-8" standalone="no"?><svg xmlns="http://www.w3.org/2000/svg" id="montage">
    <svg id="ear"/>
    <circle id="countor" stroke="black" cx="250" cy="250" r="200" stroke-width="3" fill="white"/>
    <svg id="mouth"><path stroke="black" stroke-width="1" d="M162.5 403 C175.5 414, 324.5 414, 337.5 403   M162.5 403 C17.5 409, 482.5 409, 337.5 403" fill="white"/></svg>
    <svg id="eye"><path stroke="black" stroke-width="1" d="M302 187 C302 169, 324 105, 354 105   C365 105, 391 132, 391 151   C391 167, 429 221, 349 221   C315 221, 302 238, 302 187  Z " fill="white"/><path stroke="black" stroke-width="1" d="M198 187 C198 169, 176 105, 146 105   C135 105, 109 132, 109 151   C109 167, 71 221, 151 221   C185 221, 198 238, 198 187  Z " fill="white"/><path stroke="black" stroke-width="0" d="M319 180 C319 160, 329 150, 349 150   C369 150, 379 160, 379 180   C379 200, 369 210, 349 210   C329 210, 319 200, 319 180  Z " fill="black"/><path stroke="black" stroke-width="0" d="M181 180 C181 160, 171 150, 151 150   C131 150, 121 160, 121 180   C121 200, 131 210, 151 210   C171 210, 181 200, 181 180  Z " fill="black"/></svg>

  </svg>