<?xml version="1.0" encoding="UTF-8" standalone="no"?><svg xmlns="http://www.w3.org/2000/svg" id="montage">
    <svg id="ear"/>
    <circle id="countor" stroke="black" cx="250" cy="250" r="200" stroke-width="3" fill="white"/>
    <svg id="mouth"><path stroke="black" stroke-width="1" d="M214.5 413 C249.5 443, 250.5 443, 285.5 413   M214.5 413 C96.5 456, 403.5 456, 285.5 413" fill="white"/></svg>
    <svg id="eye"><path stroke="black" stroke-width="1" d="M275 208 C275 147, 303 107, 336 107   C351 107, 452 201, 452 230   C452 309, 355 282, 319 282   C289 282, 275 261, 275 208  Z " fill="white"/><path stroke="black" stroke-width="1" d="M225 208 C225 147, 197 107, 164 107   C149 107, 48 201, 48 230   C48 309, 145 282, 181 282   C211 282, 225 261, 225 208  Z " fill="white"/><path stroke="black" stroke-width="0" d="M310 196 C310 176, 320 166, 340 166   C360 166, 370 176, 370 196   C370 216, 360 226, 340 226   C320 226, 310 216, 310 196  Z " fill="black"/><path stroke="black" stroke-width="0" d="M190 196 C190 176, 180 166, 160 166   C140 166, 130 176, 130 196   C130 216, 140 226, 160 226   C180 226, 190 216, 190 196  Z " fill="black"/></svg>

  </svg>