<?xml version="1.0" encoding="UTF-8" standalone="no"?><svg xmlns="http://www.w3.org/2000/svg" id="montage">
    <svg id="ear"/>
    <circle id="countor" stroke="black" cx="250" cy="250" r="200" stroke-width="3" fill="white"/>
    <svg id="mouth"><path stroke="black" stroke-width="1" d="M214 398 C213 360, 287 360, 286 398   M214 398 C296 547, 204 547, 286 398" fill="white"/></svg>
    <svg id="eye"><path stroke="black" stroke-width="1" d="M296.5 157 C296.5 126, 337.5 114, 360.5 114   C436.5 114, 400.5 146, 400.5 193   C400.5 260, 376.5 218, 319.5 218   C281.5 218, 296.5 194, 296.5 157  Z " fill="white"/><path stroke="black" stroke-width="1" d="M203.5 157 C203.5 126, 162.5 114, 139.5 114   C63.5 114, 99.5 146, 99.5 193   C99.5 260, 123.5 218, 180.5 218   C218.5 218, 203.5 194, 203.5 157  Z " fill="white"/><path stroke="black" stroke-width="0" d="M313.5 169 C313.5 149, 323.5 139, 343.5 139   C363.5 139, 373.5 149, 373.5 169   C373.5 189, 363.5 199, 343.5 199   C323.5 199, 313.5 189, 313.5 169  Z " fill="black"/><path stroke="black" stroke-width="0" d="M186.5 169 C186.5 149, 176.5 139, 156.5 139   C136.5 139, 126.5 149, 126.5 169   C126.5 189, 136.5 199, 156.5 199   C176.5 199, 186.5 189, 186.5 169  Z " fill="black"/></svg>

  </svg>