<?xml version="1.0" encoding="UTF-8" standalone="no"?><svg xmlns="http://www.w3.org/2000/svg" id="montage">
    <svg id="ear"/>
    <circle id="countor" stroke="black" cx="250" cy="250" r="200" stroke-width="3" fill="white"/>
    <svg id="mouth"><path stroke="black" stroke-width="1" d="M122 364 C114 414, 386 414, 378 364   M122 364 C237 318, 263 318, 378 364" fill="white"/></svg>
    <svg id="eye"><path stroke="black" stroke-width="1" d="M237.5 240 C237.5 180, 290.5 148, 344.5 148   C401.5 148, 386.5 95, 386.5 153   C386.5 230, 438.5 293, 396.5 293   C350.5 293, 237.5 257, 237.5 240  Z " fill="white"/><path stroke="black" stroke-width="1" d="M262.5 240 C262.5 180, 209.5 148, 155.5 148   C98.5 148, 113.5 95, 113.5 153   C113.5 230, 61.5 293, 103.5 293   C149.5 293, 262.5 257, 262.5 240  Z " fill="white"/><path stroke="black" stroke-width="0" d="M318.5 194 C318.5 174, 328.5 164, 348.5 164   C368.5 164, 378.5 174, 378.5 194   C378.5 214, 368.5 224, 348.5 224   C328.5 224, 318.5 214, 318.5 194  Z " fill="black"/><path stroke="black" stroke-width="0" d="M181.5 194 C181.5 174, 171.5 164, 151.5 164   C131.5 164, 121.5 174, 121.5 194   C121.5 214, 131.5 224, 151.5 224   C171.5 224, 181.5 214, 181.5 194  Z " fill="black"/></svg>

  </svg>