<?xml version="1.0" encoding="UTF-8" standalone="no"?><svg xmlns="http://www.w3.org/2000/svg" id="montage">
    <svg id="ear"/>
    <circle id="countor" stroke="black" cx="250" cy="250" r="200" stroke-width="3" fill="white"/>
    <svg id="mouth"><path stroke="black" stroke-width="1" d="M186.5 372 C136.5 378, 363.5 378, 313.5 372   M186.5 372 C82.5 305, 417.5 305, 313.5 372" fill="white"/></svg>
    <svg id="eye"><path stroke="black" stroke-width="1" d="M227 153 C227 105, 287 82, 365 82   C394 82, 416 148, 416 224   C416 304, 443 276, 388 276   C365 276, 227 209, 227 153  Z " fill="white"/><path stroke="black" stroke-width="1" d="M273 153 C273 105, 213 82, 135 82   C106 82, 84 148, 84 224   C84 304, 57 276, 112 276   C135 276, 273 209, 273 153  Z " fill="white"/><path stroke="black" stroke-width="0" d="M311 202 C311 182, 321 172, 341 172   C361 172, 371 182, 371 202   C371 222, 361 232, 341 232   C321 232, 311 222, 311 202  Z " fill="black"/><path stroke="black" stroke-width="0" d="M189 202 C189 182, 179 172, 159 172   C139 172, 129 182, 129 202   C129 222, 139 232, 159 232   C179 232, 189 222, 189 202  Z " fill="black"/></svg>

  </svg>