<?xml version="1.0" encoding="UTF-8" standalone="no"?><svg xmlns="http://www.w3.org/2000/svg" id="montage">
    <svg id="ear"/>
    <circle id="countor" stroke="black" cx="250" cy="250" r="200" stroke-width="3" fill="white"/>
    <svg id="mouth"><path stroke="black" stroke-width="1" d="M228 339 C188 380, 312 380, 272 339   M228 339 C227 368, 273 368, 272 339" fill="white"/></svg>
    <svg id="eye"><path stroke="black" stroke-width="1" d="M229.5 184 C229.5 141, 213.5 71, 293.5 71   C360.5 71, 412.5 148, 412.5 192   C412.5 240, 420.5 263, 368.5 263   C341.5 263, 229.5 201, 229.5 184  Z " fill="white"/><path stroke="black" stroke-width="1" d="M270.5 184 C270.5 141, 286.5 71, 206.5 71   C139.5 71, 87.5 148, 87.5 192   C87.5 240, 79.5 263, 131.5 263   C158.5 263, 270.5 201, 270.5 184  Z " fill="white"/><path stroke="black" stroke-width="0" d="M313.5 153 C313.5 133, 323.5 123, 343.5 123   C363.5 123, 373.5 133, 373.5 153   C373.5 173, 363.5 183, 343.5 183   C323.5 183, 313.5 173, 313.5 153  Z " fill="black"/><path stroke="black" stroke-width="0" d="M186.5 153 C186.5 133, 176.5 123, 156.5 123   C136.5 123, 126.5 133, 126.5 153   C126.5 173, 136.5 183, 156.5 183   C176.5 183, 186.5 173, 186.5 153  Z " fill="black"/></svg>

  </svg>