<?xml version="1.0" encoding="UTF-8" standalone="no"?><svg xmlns="http://www.w3.org/2000/svg" id="montage">
    <svg id="ear"/>
    <circle id="countor" stroke="black" cx="250" cy="250" r="200" stroke-width="3" fill="white"/>
    <svg id="mouth"><path stroke="black" stroke-width="1" d="M212.5 328 C200.5 369, 299.5 369, 287.5 328   M212.5 328 C322.5 210, 177.5 210, 287.5 328" fill="white"/></svg>
    <svg id="eye"><path stroke="black" stroke-width="1" d="M227.5 176 C227.5 99, 226.5 98, 295.5 98   C375.5 98, 436.5 125, 436.5 168   C436.5 206, 401.5 291, 338.5 291   C310.5 291, 227.5 202, 227.5 176  Z " fill="white"/><path stroke="black" stroke-width="1" d="M272.5 176 C272.5 99, 273.5 98, 204.5 98   C124.5 98, 63.5 125, 63.5 168   C63.5 206, 98.5 291, 161.5 291   C189.5 291, 272.5 202, 272.5 176  Z " fill="white"/><path stroke="black" stroke-width="0" d="M310.5 180 C310.5 160, 320.5 150, 340.5 150   C360.5 150, 370.5 160, 370.5 180   C370.5 200, 360.5 210, 340.5 210   C320.5 210, 310.5 200, 310.5 180  Z " fill="black"/><path stroke="black" stroke-width="0" d="M189.5 180 C189.5 160, 179.5 150, 159.5 150   C139.5 150, 129.5 160, 129.5 180   C129.5 200, 139.5 210, 159.5 210   C179.5 210, 189.5 200, 189.5 180  Z " fill="black"/></svg>

  </svg>