<?xml version="1.0" encoding="UTF-8" standalone="no"?><svg xmlns="http://www.w3.org/2000/svg" id="montage">
    <svg id="ear"/>
    <circle id="countor" stroke="black" cx="250" cy="250" r="200" stroke-width="3" fill="white"/>
    <svg id="mouth"><path stroke="black" stroke-width="1" d="M210.5 397 C191.5 355, 308.5 355, 289.5 397   M210.5 397 C260.5 541, 239.5 541, 289.5 397" fill="white"/></svg>
    <svg id="eye"><path stroke="black" stroke-width="1" d="M278 109 C278 93, 284 107, 363 107   C408 107, 445 35, 445 102   C445 150, 387 260, 362 260   C307 260, 278 122, 278 109  Z " fill="white"/><path stroke="black" stroke-width="1" d="M222 109 C222 93, 216 107, 137 107   C92 107, 55 35, 55 102   C55 150, 113 260, 138 260   C193 260, 222 122, 222 109  Z " fill="white"/><path stroke="black" stroke-width="0" d="M320 142 C320 122, 330 112, 350 112   C370 112, 380 122, 380 142   C380 162, 370 172, 350 172   C330 172, 320 162, 320 142  Z " fill="black"/><path stroke="black" stroke-width="0" d="M180 142 C180 122, 170 112, 150 112   C130 112, 120 122, 120 142   C120 162, 130 172, 150 172   C170 172, 180 162, 180 142  Z " fill="black"/></svg>

  </svg>