<?xml version="1.0" encoding="UTF-8" standalone="no"?><svg xmlns="http://www.w3.org/2000/svg" id="montage">
    <svg id="ear"/>
    <circle id="countor" stroke="black" cx="250" cy="250" r="200" stroke-width="3" fill="white"/>
    <svg id="mouth"><path stroke="black" stroke-width="1" d="M162 297 C142 270, 358 270, 338 297   M162 297 C89 444, 411 444, 338 297" fill="white"/></svg>
    <svg id="eye"><path stroke="black" stroke-width="1" d="M279 163 C279 97, 343 83, 374 83   C454 83, 400 98, 400 171   C400 201, 442 277, 392 277   C334 277, 279 189, 279 163  Z " fill="white"/><path stroke="black" stroke-width="1" d="M221 163 C221 97, 157 83, 126 83   C46 83, 100 98, 100 171   C100 201, 58 277, 108 277   C166 277, 221 189, 221 163  Z " fill="white"/><path stroke="black" stroke-width="0" d="M315 184 C315 164, 325 154, 345 154   C365 154, 375 164, 375 184   C375 204, 365 214, 345 214   C325 214, 315 204, 315 184  Z " fill="black"/><path stroke="black" stroke-width="0" d="M185 184 C185 164, 175 154, 155 154   C135 154, 125 164, 125 184   C125 204, 135 214, 155 214   C175 214, 185 204, 185 184  Z " fill="black"/></svg>

  </svg>