<?xml version="1.0" encoding="UTF-8" standalone="no"?><svg xmlns="http://www.w3.org/2000/svg" id="montage">
    <svg id="ear"/>
    <circle id="countor" stroke="black" cx="250" cy="250" r="200" stroke-width="3" fill="white"/>
    <svg id="mouth"><path stroke="black" stroke-width="1" d="M125 298 C114 256, 386 256, 375 298   M125 298 C45 256, 455 256, 375 298" fill="white"/></svg>
    <svg id="eye"><path stroke="black" stroke-width="1" d="M300 165 C300 134, 303 110, 349 110   C369 110, 383 110, 383 178   C383 189, 441 247, 362 247   C350 247, 300 181, 300 165  Z " fill="white"/><path stroke="black" stroke-width="1" d="M200 165 C200 134, 197 110, 151 110   C131 110, 117 110, 117 178   C117 189, 59 247, 138 247   C150 247, 200 181, 200 165  Z " fill="white"/><path stroke="black" stroke-width="0" d="M310 151 C310 131, 320 121, 340 121   C360 121, 370 131, 370 151   C370 171, 360 181, 340 181   C320 181, 310 171, 310 151  Z " fill="black"/><path stroke="black" stroke-width="0" d="M190 151 C190 131, 180 121, 160 121   C140 121, 130 131, 130 151   C130 171, 140 181, 160 181   C180 181, 190 171, 190 151  Z " fill="black"/></svg>

  </svg>