<?xml version="1.0" encoding="UTF-8" standalone="no"?><svg xmlns="http://www.w3.org/2000/svg" id="montage">
    <svg id="ear"/>
    <circle id="countor" stroke="black" cx="250" cy="250" r="200" stroke-width="3" fill="white"/>
    <svg id="mouth"><path stroke="black" stroke-width="1" d="M134.5 374 C113.5 377, 386.5 377, 365.5 374   M134.5 374 C270.5 331, 229.5 331, 365.5 374" fill="white"/></svg>
    <svg id="eye"><path stroke="black" stroke-width="1" d="M236.5 177 C236.5 100, 257.5 125, 297.5 125   C332.5 125, 456.5 163, 456.5 209   C456.5 245, 422.5 267, 370.5 267   C306.5 267, 236.5 228, 236.5 177  Z " fill="white"/><path stroke="black" stroke-width="1" d="M263.5 177 C263.5 100, 242.5 125, 202.5 125   C167.5 125, 43.5 163, 43.5 209   C43.5 245, 77.5 267, 129.5 267   C193.5 267, 263.5 228, 263.5 177  Z " fill="white"/><path stroke="black" stroke-width="0" d="M314.5 198 C314.5 178, 324.5 168, 344.5 168   C364.5 168, 374.5 178, 374.5 198   C374.5 218, 364.5 228, 344.5 228   C324.5 228, 314.5 218, 314.5 198  Z " fill="black"/><path stroke="black" stroke-width="0" d="M185.5 198 C185.5 178, 175.5 168, 155.5 168   C135.5 168, 125.5 178, 125.5 198   C125.5 218, 135.5 228, 155.5 228   C175.5 228, 185.5 218, 185.5 198  Z " fill="black"/></svg>

  </svg>