<?xml version="1.0" encoding="UTF-8" standalone="no"?><svg xmlns="http://www.w3.org/2000/svg" id="montage">
    <svg id="ear"/>
    <circle id="countor" stroke="black" cx="250" cy="250" r="200" stroke-width="3" fill="white"/>
    <svg id="mouth"><path stroke="black" stroke-width="1" d="M155.5 362 C153.5 395, 346.5 395, 344.5 362   M155.5 362 C97.5 488, 402.5 488, 344.5 362" fill="white"/></svg>
    <svg id="eye"><path stroke="black" stroke-width="1" d="M269.5 190 C269.5 173, 308.5 65, 378.5 65   C397.5 65, 415.5 53, 415.5 121   C415.5 137, 344.5 204, 332.5 204   C254.5 204, 269.5 239, 269.5 190  Z " fill="white"/><path stroke="black" stroke-width="1" d="M230.5 190 C230.5 173, 191.5 65, 121.5 65   C102.5 65, 84.5 53, 84.5 121   C84.5 137, 155.5 204, 167.5 204   C245.5 204, 230.5 239, 230.5 190  Z " fill="white"/><path stroke="black" stroke-width="0" d="M313.5 161 C313.5 141, 323.5 131, 343.5 131   C363.5 131, 373.5 141, 373.5 161   C373.5 181, 363.5 191, 343.5 191   C323.5 191, 313.5 181, 313.5 161  Z " fill="black"/><path stroke="black" stroke-width="0" d="M186.5 161 C186.5 141, 176.5 131, 156.5 131   C136.5 131, 126.5 141, 126.5 161   C126.5 181, 136.5 191, 156.5 191   C176.5 191, 186.5 181, 186.5 161  Z " fill="black"/></svg>

  </svg>