<?xml version="1.0" encoding="UTF-8" standalone="no"?><svg xmlns="http://www.w3.org/2000/svg" id="montage">
    <svg id="ear"/>
    <circle id="countor" stroke="black" cx="250" cy="250" r="200" stroke-width="3" fill="white"/>
    <svg id="mouth"><path stroke="black" stroke-width="1" d="M163.5 344 C136.5 294, 363.5 294, 336.5 344   M163.5 344 C310.5 259, 189.5 259, 336.5 344" fill="white"/></svg>
    <svg id="eye"><path stroke="black" stroke-width="1" d="M267 106 C267 72, 311 45, 374 45   C415 45, 433 89, 433 162   C433 201, 329 199, 315 199   C242 199, 267 150, 267 106  Z " fill="white"/><path stroke="black" stroke-width="1" d="M233 106 C233 72, 189 45, 126 45   C85 45, 67 89, 67 162   C67 201, 171 199, 185 199   C258 199, 233 150, 233 106  Z " fill="white"/><path stroke="black" stroke-width="0" d="M315 135 C315 115, 325 105, 345 105   C365 105, 375 115, 375 135   C375 155, 365 165, 345 165   C325 165, 315 155, 315 135  Z " fill="black"/><path stroke="black" stroke-width="0" d="M185 135 C185 115, 175 105, 155 105   C135 105, 125 115, 125 135   C125 155, 135 165, 155 165   C175 165, 185 155, 185 135  Z " fill="black"/></svg>

  </svg>