<?xml version="1.0" encoding="UTF-8" standalone="no"?><svg xmlns="http://www.w3.org/2000/svg" id="montage">
    <svg id="ear"/>
    <circle id="countor" stroke="black" cx="250" cy="250" r="200" stroke-width="3" fill="white"/>
    <svg id="mouth"><path stroke="black" stroke-width="1" d="M236.5 341 C193.5 332, 306.5 332, 263.5 341   M236.5 341 C321.5 210, 178.5 210, 263.5 341" fill="white"/></svg>
    <svg id="eye"><path stroke="black" stroke-width="1" d="M244.5 140 C244.5 87, 219.5 87, 295.5 87   C335.5 87, 443.5 105, 443.5 115   C443.5 152, 423.5 215, 385.5 215   C339.5 215, 244.5 180, 244.5 140  Z " fill="white"/><path stroke="black" stroke-width="1" d="M255.5 140 C255.5 87, 280.5 87, 204.5 87   C164.5 87, 56.5 105, 56.5 115   C56.5 152, 76.5 215, 114.5 215   C160.5 215, 255.5 180, 255.5 140  Z " fill="white"/><path stroke="black" stroke-width="0" d="M312.5 149 C312.5 129, 322.5 119, 342.5 119   C362.5 119, 372.5 129, 372.5 149   C372.5 169, 362.5 179, 342.5 179   C322.5 179, 312.5 169, 312.5 149  Z " fill="black"/><path stroke="black" stroke-width="0" d="M187.5 149 C187.5 129, 177.5 119, 157.5 119   C137.5 119, 127.5 129, 127.5 149   C127.5 169, 137.5 179, 157.5 179   C177.5 179, 187.5 169, 187.5 149  Z " fill="black"/></svg>

  </svg>