<?xml version="1.0" encoding="UTF-8" standalone="no"?><svg xmlns="http://www.w3.org/2000/svg" id="montage">
    <svg id="ear"/>
    <circle id="countor" stroke="black" cx="250" cy="250" r="200" stroke-width="3" fill="white"/>
    <svg id="mouth"><path stroke="black" stroke-width="1" d="M168.5 407 C137.5 367, 362.5 367, 331.5 407   M168.5 407 C128.5 374, 371.5 374, 331.5 407" fill="white"/></svg>
    <svg id="eye"><path stroke="black" stroke-width="1" d="M283.5 137 C283.5 73, 346.5 131, 358.5 131   C371.5 131, 426.5 185, 426.5 211   C426.5 268, 352.5 285, 295.5 285   C222.5 285, 283.5 201, 283.5 137  Z " fill="white"/><path stroke="black" stroke-width="1" d="M216.5 137 C216.5 73, 153.5 131, 141.5 131   C128.5 131, 73.5 185, 73.5 211   C73.5 268, 147.5 285, 204.5 285   C277.5 285, 216.5 201, 216.5 137  Z " fill="white"/><path stroke="black" stroke-width="0" d="M311.5 169 C311.5 149, 321.5 139, 341.5 139   C361.5 139, 371.5 149, 371.5 169   C371.5 189, 361.5 199, 341.5 199   C321.5 199, 311.5 189, 311.5 169  Z " fill="black"/><path stroke="black" stroke-width="0" d="M188.5 169 C188.5 149, 178.5 139, 158.5 139   C138.5 139, 128.5 149, 128.5 169   C128.5 189, 138.5 199, 158.5 199   C178.5 199, 188.5 189, 188.5 169  Z " fill="black"/></svg>

  </svg>