<?xml version="1.0" encoding="UTF-8" standalone="no"?><svg xmlns="http://www.w3.org/2000/svg" id="montage">
    <svg id="ear"/>
    <circle id="countor" stroke="black" cx="250" cy="250" r="200" stroke-width="3" fill="white"/>
    <svg id="mouth"><path stroke="black" stroke-width="1" d="M224.5 289 C211.5 248, 288.5 248, 275.5 289   M224.5 289 C200.5 415, 299.5 415, 275.5 289" fill="white"/></svg>
    <svg id="eye"><path stroke="black" stroke-width="1" d="M230 138 C230 109, 336 86, 391 86   C406 86, 401 168, 401 203   C401 234, 416 304, 386 304   C312 304, 230 150, 230 138  Z " fill="white"/><path stroke="black" stroke-width="1" d="M270 138 C270 109, 164 86, 109 86   C94 86, 99 168, 99 203   C99 234, 84 304, 114 304   C188 304, 270 150, 270 138  Z " fill="white"/><path stroke="black" stroke-width="0" d="M317 187 C317 167, 327 157, 347 157   C367 157, 377 167, 377 187   C377 207, 367 217, 347 217   C327 217, 317 207, 317 187  Z " fill="black"/><path stroke="black" stroke-width="0" d="M183 187 C183 167, 173 157, 153 157   C133 157, 123 167, 123 187   C123 207, 133 217, 153 217   C173 217, 183 207, 183 187  Z " fill="black"/></svg>

  </svg>