<?xml version="1.0" encoding="UTF-8" standalone="no"?><svg xmlns="http://www.w3.org/2000/svg" id="montage">
    <svg id="ear"/>
    <circle id="countor" stroke="black" cx="250" cy="250" r="200" stroke-width="3" fill="white"/>
    <svg id="mouth"><path stroke="black" stroke-width="1" d="M172 300 C159 258, 341 258, 328 300   M172 300 C236 430, 264 430, 328 300" fill="white"/></svg>
    <svg id="eye"><path stroke="black" stroke-width="1" d="M231 175 C231 97, 348 97, 366 97   C391 97, 423 107, 423 128   C423 174, 391 223, 333 223   C312 223, 231 250, 231 175  Z " fill="white"/><path stroke="black" stroke-width="1" d="M269 175 C269 97, 152 97, 134 97   C109 97, 77 107, 77 128   C77 174, 109 223, 167 223   C188 223, 269 250, 269 175  Z " fill="white"/><path stroke="black" stroke-width="0" d="M315 160 C315 140, 325 130, 345 130   C365 130, 375 140, 375 160   C375 180, 365 190, 345 190   C325 190, 315 180, 315 160  Z " fill="black"/><path stroke="black" stroke-width="0" d="M185 160 C185 140, 175 130, 155 130   C135 130, 125 140, 125 160   C125 180, 135 190, 155 190   C175 190, 185 180, 185 160  Z " fill="black"/></svg>

  </svg>