<?xml version="1.0" encoding="UTF-8" standalone="no"?><svg xmlns="http://www.w3.org/2000/svg" id="montage">
    <svg id="ear"/>
    <circle id="countor" stroke="black" cx="250" cy="250" r="200" stroke-width="3" fill="white"/>
    <svg id="mouth"><path stroke="black" stroke-width="1" d="M127 282 C110 262, 390 262, 373 282   M127 282 C77 362, 423 362, 373 282" fill="white"/></svg>
    <svg id="eye"><path stroke="black" stroke-width="1" d="M243 163 C243 94, 300 115, 355 115   C375 115, 417 183, 417 206   C417 236, 410 271, 365 271   C313 271, 243 223, 243 163  Z " fill="white"/><path stroke="black" stroke-width="1" d="M257 163 C257 94, 200 115, 145 115   C125 115, 83 183, 83 206   C83 236, 90 271, 135 271   C187 271, 257 223, 257 163  Z " fill="white"/><path stroke="black" stroke-width="0" d="M317 170 C317 150, 327 140, 347 140   C367 140, 377 150, 377 170   C377 190, 367 200, 347 200   C327 200, 317 190, 317 170  Z " fill="black"/><path stroke="black" stroke-width="0" d="M183 170 C183 150, 173 140, 153 140   C133 140, 123 150, 123 170   C123 190, 133 200, 153 200   C173 200, 183 190, 183 170  Z " fill="black"/></svg>

  </svg>