<?xml version="1.0" encoding="UTF-8" standalone="no"?><svg xmlns="http://www.w3.org/2000/svg" id="montage">
    <svg id="ear"/>
    <circle id="countor" stroke="black" cx="250" cy="250" r="200" stroke-width="3" fill="white"/>
    <svg id="mouth"><path stroke="black" stroke-width="1" d="M230.5 363 C219.5 413, 280.5 413, 269.5 363   M230.5 363 C127.5 379, 372.5 379, 269.5 363" fill="white"/></svg>
    <svg id="eye"><path stroke="black" stroke-width="1" d="M267.5 87 C267.5 35, 324.5 33, 383.5 33   C403.5 33, 393.5 161, 393.5 174   C393.5 184, 339.5 238, 313.5 238   C288.5 238, 267.5 152, 267.5 87  Z " fill="white"/><path stroke="black" stroke-width="1" d="M232.5 87 C232.5 35, 175.5 33, 116.5 33   C96.5 33, 106.5 161, 106.5 174   C106.5 184, 160.5 238, 186.5 238   C211.5 238, 232.5 152, 232.5 87  Z " fill="white"/><path stroke="black" stroke-width="0" d="M310.5 131 C310.5 111, 320.5 101, 340.5 101   C360.5 101, 370.5 111, 370.5 131   C370.5 151, 360.5 161, 340.5 161   C320.5 161, 310.5 151, 310.5 131  Z " fill="black"/><path stroke="black" stroke-width="0" d="M189.5 131 C189.5 111, 179.5 101, 159.5 101   C139.5 101, 129.5 111, 129.5 131   C129.5 151, 139.5 161, 159.5 161   C179.5 161, 189.5 151, 189.5 131  Z " fill="black"/></svg>

  </svg>