<?xml version="1.0" encoding="UTF-8" standalone="no"?><svg xmlns="http://www.w3.org/2000/svg" id="montage">
    <svg id="ear"/>
    <circle id="countor" stroke="black" cx="250" cy="250" r="200" stroke-width="3" fill="white"/>
    <svg id="mouth"><path stroke="black" stroke-width="1" d="M232 270 C251 225, 249 225, 268 270   M232 270 C382 213, 118 213, 268 270" fill="white"/></svg>
    <svg id="eye"><path stroke="black" stroke-width="1" d="M239.5 233 C239.5 173, 339.5 118, 350.5 118   C399.5 118, 434.5 104, 434.5 167   C434.5 197, 372.5 247, 357.5 247   C344.5 247, 239.5 300, 239.5 233  Z " fill="white"/><path stroke="black" stroke-width="1" d="M260.5 233 C260.5 173, 160.5 118, 149.5 118   C100.5 118, 65.5 104, 65.5 167   C65.5 197, 127.5 247, 142.5 247   C155.5 247, 260.5 300, 260.5 233  Z " fill="white"/><path stroke="black" stroke-width="0" d="M314.5 186 C314.5 166, 324.5 156, 344.5 156   C364.5 156, 374.5 166, 374.5 186   C374.5 206, 364.5 216, 344.5 216   C324.5 216, 314.5 206, 314.5 186  Z " fill="black"/><path stroke="black" stroke-width="0" d="M185.5 186 C185.5 166, 175.5 156, 155.5 156   C135.5 156, 125.5 166, 125.5 186   C125.5 206, 135.5 216, 155.5 216   C175.5 216, 185.5 206, 185.5 186  Z " fill="black"/></svg>

  </svg>