<?xml version="1.0" encoding="UTF-8" standalone="no"?><svg xmlns="http://www.w3.org/2000/svg" id="montage">
    <svg id="ear"/>
    <circle id="countor" stroke="black" cx="250" cy="250" r="200" stroke-width="3" fill="white"/>
    <svg id="mouth"><path stroke="black" stroke-width="1" d="M126.5 270 C97.5 224, 402.5 224, 373.5 270   M126.5 270 C211.5 312, 288.5 312, 373.5 270" fill="white"/></svg>
    <svg id="eye"><path stroke="black" stroke-width="1" d="M299 183 C299 130, 297 98, 314 98   C392 98, 397 192, 397 242   C397 311, 371 298, 347 298   C284 298, 299 202, 299 183  Z " fill="white"/><path stroke="black" stroke-width="1" d="M201 183 C201 130, 203 98, 186 98   C108 98, 103 192, 103 242   C103 311, 129 298, 153 298   C216 298, 201 202, 201 183  Z " fill="white"/><path stroke="black" stroke-width="0" d="M315 197 C315 177, 325 167, 345 167   C365 167, 375 177, 375 197   C375 217, 365 227, 345 227   C325 227, 315 217, 315 197  Z " fill="black"/><path stroke="black" stroke-width="0" d="M185 197 C185 177, 175 167, 155 167   C135 167, 125 177, 125 197   C125 217, 135 227, 155 227   C175 227, 185 217, 185 197  Z " fill="black"/></svg>

  </svg>