<?xml version="1.0" encoding="UTF-8" standalone="no"?><svg xmlns="http://www.w3.org/2000/svg" id="montage">
    <svg id="ear"/>
    <circle id="countor" stroke="black" cx="250" cy="250" r="200" stroke-width="3" fill="white"/>
    <svg id="mouth"><path stroke="black" stroke-width="1" d="M174.5 283 C190.5 319, 309.5 319, 325.5 283   M174.5 283 C273.5 397, 226.5 397, 325.5 283" fill="white"/></svg>
    <svg id="eye"><path stroke="black" stroke-width="1" d="M250.5 188 C250.5 121, 293.5 108, 361.5 108   C413.5 108, 437.5 238, 437.5 257   C437.5 321, 362.5 310, 307.5 310   C232.5 310, 250.5 232, 250.5 188  Z " fill="white"/><path stroke="black" stroke-width="1" d="M249.5 188 C249.5 121, 206.5 108, 138.5 108   C86.5 108, 62.5 238, 62.5 257   C62.5 321, 137.5 310, 192.5 310   C267.5 310, 249.5 232, 249.5 188  Z " fill="white"/><path stroke="black" stroke-width="0" d="M313.5 207 C313.5 187, 323.5 177, 343.5 177   C363.5 177, 373.5 187, 373.5 207   C373.5 227, 363.5 237, 343.5 237   C323.5 237, 313.5 227, 313.5 207  Z " fill="black"/><path stroke="black" stroke-width="0" d="M186.5 207 C186.5 187, 176.5 177, 156.5 177   C136.5 177, 126.5 187, 126.5 207   C126.5 227, 136.5 237, 156.5 237   C176.5 237, 186.5 227, 186.5 207  Z " fill="black"/></svg>

  </svg>