<?xml version="1.0" encoding="UTF-8" standalone="no"?><svg xmlns="http://www.w3.org/2000/svg" id="montage">
    <svg id="ear"/>
    <circle id="countor" stroke="black" cx="250" cy="250" r="200" stroke-width="3" fill="white"/>
    <svg id="mouth"><path stroke="black" stroke-width="1" d="M211.5 420 C194.5 439, 305.5 439, 288.5 420   M211.5 420 C324.5 391, 175.5 391, 288.5 420" fill="white"/></svg>
    <svg id="eye"><path stroke="black" stroke-width="1" d="M279 125 C279 66, 284 50, 328 50   C389 50, 413 101, 413 178   C413 250, 466 174, 392 174   C347 174, 279 178, 279 125  Z " fill="white"/><path stroke="black" stroke-width="1" d="M221 125 C221 66, 216 50, 172 50   C111 50, 87 101, 87 178   C87 250, 34 174, 108 174   C153 174, 221 178, 221 125  Z " fill="white"/><path stroke="black" stroke-width="0" d="M313 132 C313 112, 323 102, 343 102   C363 102, 373 112, 373 132   C373 152, 363 162, 343 162   C323 162, 313 152, 313 132  Z " fill="black"/><path stroke="black" stroke-width="0" d="M187 132 C187 112, 177 102, 157 102   C137 102, 127 112, 127 132   C127 152, 137 162, 157 162   C177 162, 187 152, 187 132  Z " fill="black"/></svg>

  </svg>