<?xml version="1.0" encoding="UTF-8" standalone="no"?><svg xmlns="http://www.w3.org/2000/svg" id="montage">
    <svg id="ear"/>
    <circle id="countor" stroke="black" cx="250" cy="250" r="200" stroke-width="3" fill="white"/>
    <svg id="mouth"><path stroke="black" stroke-width="1" d="M215 361 C224 409, 276 409, 285 361   M215 361 C174 376, 326 376, 285 361" fill="white"/></svg>
    <svg id="eye"><path stroke="black" stroke-width="1" d="M247.5 208 C247.5 169, 308.5 167, 340.5 167   C373.5 167, 455.5 171, 455.5 189   C455.5 222, 354.5 301, 308.5 301   C295.5 301, 247.5 218, 247.5 208  Z " fill="white"/><path stroke="black" stroke-width="1" d="M252.5 208 C252.5 169, 191.5 167, 159.5 167   C126.5 167, 44.5 171, 44.5 189   C44.5 222, 145.5 301, 191.5 301   C204.5 301, 252.5 218, 252.5 208  Z " fill="white"/><path stroke="black" stroke-width="0" d="M314.5 208 C314.5 188, 324.5 178, 344.5 178   C364.5 178, 374.5 188, 374.5 208   C374.5 228, 364.5 238, 344.5 238   C324.5 238, 314.5 228, 314.5 208  Z " fill="black"/><path stroke="black" stroke-width="0" d="M185.5 208 C185.5 188, 175.5 178, 155.5 178   C135.5 178, 125.5 188, 125.5 208   C125.5 228, 135.5 238, 155.5 238   C175.5 238, 185.5 228, 185.5 208  Z " fill="black"/></svg>

  </svg>