<?xml version="1.0" encoding="UTF-8" standalone="no"?><svg xmlns="http://www.w3.org/2000/svg" id="montage">
    <svg id="ear"/>
    <circle id="countor" stroke="black" cx="250" cy="250" r="200" stroke-width="3" fill="white"/>
    <svg id="mouth"><path stroke="black" stroke-width="1" d="M236 402 C208 366, 292 366, 264 402   M236 402 C141 347, 359 347, 264 402" fill="white"/></svg>
    <svg id="eye"><path stroke="black" stroke-width="1" d="M299.5 220 C299.5 194, 277.5 148, 342.5 148   C400.5 148, 381.5 130, 381.5 149   C381.5 191, 353.5 257, 304.5 257   C235.5 257, 299.5 234, 299.5 220  Z " fill="white"/><path stroke="black" stroke-width="1" d="M200.5 220 C200.5 194, 222.5 148, 157.5 148   C99.5 148, 118.5 130, 118.5 149   C118.5 191, 146.5 257, 195.5 257   C264.5 257, 200.5 234, 200.5 220  Z " fill="white"/><path stroke="black" stroke-width="0" d="M311.5 183 C311.5 163, 321.5 153, 341.5 153   C361.5 153, 371.5 163, 371.5 183   C371.5 203, 361.5 213, 341.5 213   C321.5 213, 311.5 203, 311.5 183  Z " fill="black"/><path stroke="black" stroke-width="0" d="M188.5 183 C188.5 163, 178.5 153, 158.5 153   C138.5 153, 128.5 163, 128.5 183   C128.5 203, 138.5 213, 158.5 213   C178.5 213, 188.5 203, 188.5 183  Z " fill="black"/></svg>

  </svg>