<?xml version="1.0" encoding="UTF-8" standalone="no"?><svg xmlns="http://www.w3.org/2000/svg" id="montage">
    <svg id="ear"/>
    <circle id="countor" stroke="black" cx="250" cy="250" r="200" stroke-width="3" fill="white"/>
    <svg id="mouth"><path stroke="black" stroke-width="1" d="M126 414 C127 456, 373 456, 374 414   M126 414 C8 399, 492 399, 374 414" fill="white"/></svg>
    <svg id="eye"><path stroke="black" stroke-width="1" d="M280.5 136 C280.5 123, 276.5 113, 308.5 113   C326.5 113, 402.5 166, 402.5 226   C402.5 283, 417.5 252, 384.5 252   C352.5 252, 280.5 186, 280.5 136  Z " fill="white"/><path stroke="black" stroke-width="1" d="M219.5 136 C219.5 123, 223.5 113, 191.5 113   C173.5 113, 97.5 166, 97.5 226   C97.5 283, 82.5 252, 115.5 252   C147.5 252, 219.5 186, 219.5 136  Z " fill="white"/><path stroke="black" stroke-width="0" d="M316.5 176 C316.5 156, 326.5 146, 346.5 146   C366.5 146, 376.5 156, 376.5 176   C376.5 196, 366.5 206, 346.5 206   C326.5 206, 316.5 196, 316.5 176  Z " fill="black"/><path stroke="black" stroke-width="0" d="M183.5 176 C183.5 156, 173.5 146, 153.5 146   C133.5 146, 123.5 156, 123.5 176   C123.5 196, 133.5 206, 153.5 206   C173.5 206, 183.5 196, 183.5 176  Z " fill="black"/></svg>

  </svg>