<?xml version="1.0" encoding="UTF-8" standalone="no"?><svg xmlns="http://www.w3.org/2000/svg" id="montage">
    <svg id="ear"/>
    <circle id="countor" stroke="black" cx="250" cy="250" r="200" stroke-width="3" fill="white"/>
    <svg id="mouth"><path stroke="black" stroke-width="1" d="M127.5 364 C148.5 356, 351.5 356, 372.5 364   M127.5 364 C137.5 504, 362.5 504, 372.5 364" fill="white"/></svg>
    <svg id="eye"><path stroke="black" stroke-width="1" d="M299.5 246 C299.5 226, 324.5 131, 352.5 131   C375.5 131, 446.5 155, 446.5 209   C446.5 239, 367.5 261, 335.5 261   C314.5 261, 299.5 291, 299.5 246  Z " fill="white"/><path stroke="black" stroke-width="1" d="M200.5 246 C200.5 226, 175.5 131, 147.5 131   C124.5 131, 53.5 155, 53.5 209   C53.5 239, 132.5 261, 164.5 261   C185.5 261, 200.5 291, 200.5 246  Z " fill="white"/><path stroke="black" stroke-width="0" d="M312.5 210 C312.5 190, 322.5 180, 342.5 180   C362.5 180, 372.5 190, 372.5 210   C372.5 230, 362.5 240, 342.5 240   C322.5 240, 312.5 230, 312.5 210  Z " fill="black"/><path stroke="black" stroke-width="0" d="M187.5 210 C187.5 190, 177.5 180, 157.5 180   C137.5 180, 127.5 190, 127.5 210   C127.5 230, 137.5 240, 157.5 240   C177.5 240, 187.5 230, 187.5 210  Z " fill="black"/></svg>

  </svg>