<?xml version="1.0" encoding="UTF-8" standalone="no"?><svg xmlns="http://www.w3.org/2000/svg" id="montage">
    <svg id="ear"/>
    <circle id="countor" stroke="black" cx="250" cy="250" r="200" stroke-width="3" fill="white"/>
    <svg id="mouth"><path stroke="black" stroke-width="1" d="M225 357 C213 314, 287 314, 275 357   M225 357 C293 436, 207 436, 275 357" fill="white"/></svg>
    <svg id="eye"><path stroke="black" stroke-width="1" d="M249.5 151 C249.5 138, 306.5 85, 372.5 85   C421.5 85, 388.5 105, 388.5 175   C388.5 199, 360.5 244, 297.5 244   C274.5 244, 249.5 220, 249.5 151  Z " fill="white"/><path stroke="black" stroke-width="1" d="M250.5 151 C250.5 138, 193.5 85, 127.5 85   C78.5 85, 111.5 105, 111.5 175   C111.5 199, 139.5 244, 202.5 244   C225.5 244, 250.5 220, 250.5 151  Z " fill="white"/><path stroke="black" stroke-width="0" d="M316.5 164 C316.5 144, 326.5 134, 346.5 134   C366.5 134, 376.5 144, 376.5 164   C376.5 184, 366.5 194, 346.5 194   C326.5 194, 316.5 184, 316.5 164  Z " fill="black"/><path stroke="black" stroke-width="0" d="M183.5 164 C183.5 144, 173.5 134, 153.5 134   C133.5 134, 123.5 144, 123.5 164   C123.5 184, 133.5 194, 153.5 194   C173.5 194, 183.5 184, 183.5 164  Z " fill="black"/></svg>

  </svg>