<?xml version="1.0" encoding="UTF-8" standalone="no"?><svg xmlns="http://www.w3.org/2000/svg" id="montage">
    <svg id="ear"/>
    <circle id="countor" stroke="black" cx="250" cy="250" r="200" stroke-width="3" fill="white"/>
    <svg id="mouth"><path stroke="black" stroke-width="1" d="M221 301 C246 290, 254 290, 279 301   M221 301 C367 186, 133 186, 279 301" fill="white"/></svg>
    <svg id="eye"><path stroke="black" stroke-width="1" d="M247 252 C247 223, 321 127, 366 127   C398 127, 429 195, 429 267   C429 346, 401 287, 358 287   C323 287, 247 266, 247 252  Z " fill="white"/><path stroke="black" stroke-width="1" d="M253 252 C253 223, 179 127, 134 127   C102 127, 71 195, 71 267   C71 346, 99 287, 142 287   C177 287, 253 266, 253 252  Z " fill="white"/><path stroke="black" stroke-width="0" d="M310 218 C310 198, 320 188, 340 188   C360 188, 370 198, 370 218   C370 238, 360 248, 340 248   C320 248, 310 238, 310 218  Z " fill="black"/><path stroke="black" stroke-width="0" d="M190 218 C190 198, 180 188, 160 188   C140 188, 130 198, 130 218   C130 238, 140 248, 160 248   C180 248, 190 238, 190 218  Z " fill="black"/></svg>

  </svg>