<?xml version="1.0" encoding="UTF-8" standalone="no"?><svg xmlns="http://www.w3.org/2000/svg" id="montage">
    <svg id="ear"/>
    <circle id="countor" stroke="black" cx="250" cy="250" r="200" stroke-width="3" fill="white"/>
    <svg id="mouth"><path stroke="black" stroke-width="1" d="M192.5 343 C203.5 329, 296.5 329, 307.5 343   M192.5 343 C199.5 212, 300.5 212, 307.5 343" fill="white"/></svg>
    <svg id="eye"><path stroke="black" stroke-width="1" d="M229.5 243 C229.5 225, 310.5 131, 347.5 131   C396.5 131, 436.5 214, 436.5 248   C436.5 297, 431.5 307, 353.5 307   C297.5 307, 229.5 282, 229.5 243  Z " fill="white"/><path stroke="black" stroke-width="1" d="M270.5 243 C270.5 225, 189.5 131, 152.5 131   C103.5 131, 63.5 214, 63.5 248   C63.5 297, 68.5 307, 146.5 307   C202.5 307, 270.5 282, 270.5 243  Z " fill="white"/><path stroke="black" stroke-width="0" d="M315.5 213 C315.5 193, 325.5 183, 345.5 183   C365.5 183, 375.5 193, 375.5 213   C375.5 233, 365.5 243, 345.5 243   C325.5 243, 315.5 233, 315.5 213  Z " fill="black"/><path stroke="black" stroke-width="0" d="M184.5 213 C184.5 193, 174.5 183, 154.5 183   C134.5 183, 124.5 193, 124.5 213   C124.5 233, 134.5 243, 154.5 243   C174.5 243, 184.5 233, 184.5 213  Z " fill="black"/></svg>

  </svg>