<?xml version="1.0" encoding="UTF-8" standalone="no"?><svg xmlns="http://www.w3.org/2000/svg" id="montage">
    <svg id="ear"/>
    <circle id="countor" stroke="black" cx="250" cy="250" r="200" stroke-width="3" fill="white"/>
    <svg id="mouth"><path stroke="black" stroke-width="1" d="M211 373 C181 388, 319 388, 289 373   M211 373 C227 438, 273 438, 289 373" fill="white"/></svg>
    <svg id="eye"><path stroke="black" stroke-width="1" d="M223.5 126 C223.5 59, 327.5 107, 382.5 107   C442.5 107, 419.5 164, 419.5 208   C419.5 236, 400.5 234, 351.5 234   C318.5 234, 223.5 201, 223.5 126  Z " fill="white"/><path stroke="black" stroke-width="1" d="M276.5 126 C276.5 59, 172.5 107, 117.5 107   C57.5 107, 80.5 164, 80.5 208   C80.5 236, 99.5 234, 148.5 234   C181.5 234, 276.5 201, 276.5 126  Z " fill="white"/><path stroke="black" stroke-width="0" d="M312.5 168 C312.5 148, 322.5 138, 342.5 138   C362.5 138, 372.5 148, 372.5 168   C372.5 188, 362.5 198, 342.5 198   C322.5 198, 312.5 188, 312.5 168  Z " fill="black"/><path stroke="black" stroke-width="0" d="M187.5 168 C187.5 148, 177.5 138, 157.5 138   C137.5 138, 127.5 148, 127.5 168   C127.5 188, 137.5 198, 157.5 198   C177.5 198, 187.5 188, 187.5 168  Z " fill="black"/></svg>

  </svg>