<?xml version="1.0" encoding="UTF-8" standalone="no"?><svg xmlns="http://www.w3.org/2000/svg" id="montage">
    <svg id="ear"/>
    <circle id="countor" stroke="black" cx="250" cy="250" r="200" stroke-width="3" fill="white"/>
    <svg id="mouth"><path stroke="black" stroke-width="1" d="M131.5 398 C159.5 382, 340.5 382, 368.5 398   M131.5 398 C256.5 255, 243.5 255, 368.5 398" fill="white"/></svg>
    <svg id="eye"><path stroke="black" stroke-width="1" d="M256.5 178 C256.5 161, 219.5 36, 297.5 36   C376.5 36, 412.5 89, 412.5 160   C412.5 173, 386.5 239, 364.5 239   C338.5 239, 256.5 214, 256.5 178  Z " fill="white"/><path stroke="black" stroke-width="1" d="M243.5 178 C243.5 161, 280.5 36, 202.5 36   C123.5 36, 87.5 89, 87.5 160   C87.5 173, 113.5 239, 135.5 239   C161.5 239, 243.5 214, 243.5 178  Z " fill="white"/><path stroke="black" stroke-width="0" d="M311.5 150 C311.5 130, 321.5 120, 341.5 120   C361.5 120, 371.5 130, 371.5 150   C371.5 170, 361.5 180, 341.5 180   C321.5 180, 311.5 170, 311.5 150  Z " fill="black"/><path stroke="black" stroke-width="0" d="M188.5 150 C188.5 130, 178.5 120, 158.5 120   C138.5 120, 128.5 130, 128.5 150   C128.5 170, 138.5 180, 158.5 180   C178.5 180, 188.5 170, 188.5 150  Z " fill="black"/></svg>

  </svg>