<?xml version="1.0" encoding="UTF-8" standalone="no"?><svg xmlns="http://www.w3.org/2000/svg" id="montage">
    <svg id="ear"/>
    <circle id="countor" stroke="black" cx="250" cy="250" r="200" stroke-width="3" fill="white"/>
    <svg id="mouth"><path stroke="black" stroke-width="1" d="M143.5 311 C156.5 308, 343.5 308, 356.5 311   M143.5 311 C97.5 305, 402.5 305, 356.5 311" fill="white"/></svg>
    <svg id="eye"><path stroke="black" stroke-width="1" d="M272.5 138 C272.5 99, 280.5 81, 306.5 81   C385.5 81, 456.5 40, 456.5 83   C456.5 127, 373.5 217, 340.5 217   C288.5 217, 272.5 152, 272.5 138  Z " fill="white"/><path stroke="black" stroke-width="1" d="M227.5 138 C227.5 99, 219.5 81, 193.5 81   C114.5 81, 43.5 40, 43.5 83   C43.5 127, 126.5 217, 159.5 217   C211.5 217, 227.5 152, 227.5 138  Z " fill="white"/><path stroke="black" stroke-width="0" d="M319.5 131 C319.5 111, 329.5 101, 349.5 101   C369.5 101, 379.5 111, 379.5 131   C379.5 151, 369.5 161, 349.5 161   C329.5 161, 319.5 151, 319.5 131  Z " fill="black"/><path stroke="black" stroke-width="0" d="M180.5 131 C180.5 111, 170.5 101, 150.5 101   C130.5 101, 120.5 111, 120.5 131   C120.5 151, 130.5 161, 150.5 161   C170.5 161, 180.5 151, 180.5 131  Z " fill="black"/></svg>

  </svg>