<?xml version="1.0" encoding="UTF-8" standalone="no"?><svg xmlns="http://www.w3.org/2000/svg" id="montage">
    <svg id="ear"/>
    <circle id="countor" stroke="black" cx="250" cy="250" r="200" stroke-width="3" fill="white"/>
    <svg id="mouth"><path stroke="black" stroke-width="1" d="M229.5 420 C181.5 393, 318.5 393, 270.5 420   M229.5 420 C278.5 507, 221.5 507, 270.5 420" fill="white"/></svg>
    <svg id="eye"><path stroke="black" stroke-width="1" d="M283 184 C283 166, 258 128, 332 128   C396 128, 431 166, 431 192   C431 207, 386 261, 324 261   C251 261, 283 234, 283 184  Z " fill="white"/><path stroke="black" stroke-width="1" d="M217 184 C217 166, 242 128, 168 128   C104 128, 69 166, 69 192   C69 207, 114 261, 176 261   C249 261, 217 234, 217 184  Z " fill="white"/><path stroke="black" stroke-width="0" d="M318 187 C318 167, 328 157, 348 157   C368 157, 378 167, 378 187   C378 207, 368 217, 348 217   C328 217, 318 207, 318 187  Z " fill="black"/><path stroke="black" stroke-width="0" d="M182 187 C182 167, 172 157, 152 157   C132 157, 122 167, 122 187   C122 207, 132 217, 152 217   C172 217, 182 207, 182 187  Z " fill="black"/></svg>

  </svg>