<?xml version="1.0" encoding="UTF-8" standalone="no"?><svg xmlns="http://www.w3.org/2000/svg" id="montage">
    <svg id="ear"/>
    <circle id="countor" stroke="black" cx="250" cy="250" r="200" stroke-width="3" fill="white"/>
    <svg id="mouth"><path stroke="black" stroke-width="1" d="M208.5 424 C218.5 449, 281.5 449, 291.5 424   M208.5 424 C234.5 417, 265.5 417, 291.5 424" fill="white"/></svg>
    <svg id="eye"><path stroke="black" stroke-width="1" d="M303.5 236 C303.5 172, 271.5 154, 346.5 154   C390.5 154, 412.5 135, 412.5 214   C412.5 280, 372.5 268, 349.5 268   C285.5 268, 303.5 271, 303.5 236  Z " fill="white"/><path stroke="black" stroke-width="1" d="M196.5 236 C196.5 172, 228.5 154, 153.5 154   C109.5 154, 87.5 135, 87.5 214   C87.5 280, 127.5 268, 150.5 268   C214.5 268, 196.5 271, 196.5 236  Z " fill="white"/><path stroke="black" stroke-width="0" d="M317.5 215 C317.5 195, 327.5 185, 347.5 185   C367.5 185, 377.5 195, 377.5 215   C377.5 235, 367.5 245, 347.5 245   C327.5 245, 317.5 235, 317.5 215  Z " fill="black"/><path stroke="black" stroke-width="0" d="M182.5 215 C182.5 195, 172.5 185, 152.5 185   C132.5 185, 122.5 195, 122.5 215   C122.5 235, 132.5 245, 152.5 245   C172.5 245, 182.5 235, 182.5 215  Z " fill="black"/></svg>

  </svg>