<?xml version="1.0" encoding="UTF-8" standalone="no"?><svg xmlns="http://www.w3.org/2000/svg" id="montage">
    <svg id="ear"/>
    <circle id="countor" stroke="black" cx="250" cy="250" r="200" stroke-width="3" fill="white"/>
    <svg id="mouth"><path stroke="black" stroke-width="1" d="M230.5 387 C273.5 365, 226.5 365, 269.5 387   M230.5 387 C224.5 417, 275.5 417, 269.5 387" fill="white"/></svg>
    <svg id="eye"><path stroke="black" stroke-width="1" d="M308 182 C308 166, 350 69, 389 69   C406 69, 407 149, 407 178   C407 254, 323 288, 308 288   C294 288, 308 205, 308 182  Z " fill="white"/><path stroke="black" stroke-width="1" d="M192 182 C192 166, 150 69, 111 69   C94 69, 93 149, 93 178   C93 254, 177 288, 192 288   C206 288, 192 205, 192 182  Z " fill="white"/><path stroke="black" stroke-width="0" d="M319 178 C319 158, 329 148, 349 148   C369 148, 379 158, 379 178   C379 198, 369 208, 349 208   C329 208, 319 198, 319 178  Z " fill="black"/><path stroke="black" stroke-width="0" d="M181 178 C181 158, 171 148, 151 148   C131 148, 121 158, 121 178   C121 198, 131 208, 151 208   C171 208, 181 198, 181 178  Z " fill="black"/></svg>

  </svg>