<?xml version="1.0" encoding="UTF-8" standalone="no"?><svg xmlns="http://www.w3.org/2000/svg" id="montage">
    <svg id="ear"/>
    <circle id="countor" stroke="black" cx="250" cy="250" r="200" stroke-width="3" fill="white"/>
    <svg id="mouth"><path stroke="black" stroke-width="1" d="M121 333 C110 376, 390 376, 379 333   M121 333 C50 236, 450 236, 379 333" fill="white"/></svg>
    <svg id="eye"><path stroke="black" stroke-width="1" d="M260 120 C260 109, 311 39, 388 39   C427 39, 388 136, 388 152   C388 213, 309 217, 293 217   C247 217, 260 199, 260 120  Z " fill="white"/><path stroke="black" stroke-width="1" d="M240 120 C240 109, 189 39, 112 39   C73 39, 112 136, 112 152   C112 213, 191 217, 207 217   C253 217, 240 199, 240 120  Z " fill="white"/><path stroke="black" stroke-width="0" d="M310 143 C310 123, 320 113, 340 113   C360 113, 370 123, 370 143   C370 163, 360 173, 340 173   C320 173, 310 163, 310 143  Z " fill="black"/><path stroke="black" stroke-width="0" d="M190 143 C190 123, 180 113, 160 113   C140 113, 130 123, 130 143   C130 163, 140 173, 160 173   C180 173, 190 163, 190 143  Z " fill="black"/></svg>

  </svg>