<?xml version="1.0" encoding="UTF-8" standalone="no"?><svg xmlns="http://www.w3.org/2000/svg" id="montage">
    <svg id="ear"/>
    <circle id="countor" stroke="black" cx="250" cy="250" r="200" stroke-width="3" fill="white"/>
    <svg id="mouth"><path stroke="black" stroke-width="1" d="M125.5 398 C171.5 360, 328.5 360, 374.5 398   M125.5 398 C185.5 521, 314.5 521, 374.5 398" fill="white"/></svg>
    <svg id="eye"><path stroke="black" stroke-width="1" d="M274 268 C274 217, 284 126, 357 126   C436 126, 431 187, 431 217   C431 297, 410 326, 335 326   C257 326, 274 328, 274 268  Z " fill="white"/><path stroke="black" stroke-width="1" d="M226 268 C226 217, 216 126, 143 126   C64 126, 69 187, 69 217   C69 297, 90 326, 165 326   C243 326, 226 328, 226 268  Z " fill="white"/><path stroke="black" stroke-width="0" d="M318 226 C318 206, 328 196, 348 196   C368 196, 378 206, 378 226   C378 246, 368 256, 348 256   C328 256, 318 246, 318 226  Z " fill="black"/><path stroke="black" stroke-width="0" d="M182 226 C182 206, 172 196, 152 196   C132 196, 122 206, 122 226   C122 246, 132 256, 152 256   C172 256, 182 246, 182 226  Z " fill="black"/></svg>

  </svg>