<?xml version="1.0" encoding="UTF-8" standalone="no"?><svg xmlns="http://www.w3.org/2000/svg" id="montage">
    <svg id="ear"/>
    <circle id="countor" stroke="black" cx="250" cy="250" r="200" stroke-width="3" fill="white"/>
    <svg id="mouth"><path stroke="black" stroke-width="1" d="M204 283 C160 324, 340 324, 296 283   M204 283 C58 154, 442 154, 296 283" fill="white"/></svg>
    <svg id="eye"><path stroke="black" stroke-width="1" d="M223.5 137 C223.5 93, 295.5 58, 375.5 58   C432.5 58, 411.5 116, 411.5 140   C411.5 151, 382.5 276, 302.5 276   C264.5 276, 223.5 159, 223.5 137  Z " fill="white"/><path stroke="black" stroke-width="1" d="M276.5 137 C276.5 93, 204.5 58, 124.5 58   C67.5 58, 88.5 116, 88.5 140   C88.5 151, 117.5 276, 197.5 276   C235.5 276, 276.5 159, 276.5 137  Z " fill="white"/><path stroke="black" stroke-width="0" d="M313.5 175 C313.5 155, 323.5 145, 343.5 145   C363.5 145, 373.5 155, 373.5 175   C373.5 195, 363.5 205, 343.5 205   C323.5 205, 313.5 195, 313.5 175  Z " fill="black"/><path stroke="black" stroke-width="0" d="M186.5 175 C186.5 155, 176.5 145, 156.5 145   C136.5 145, 126.5 155, 126.5 175   C126.5 195, 136.5 205, 156.5 205   C176.5 205, 186.5 195, 186.5 175  Z " fill="black"/></svg>

  </svg>