<?xml version="1.0" encoding="UTF-8" standalone="no"?><svg xmlns="http://www.w3.org/2000/svg" id="montage">
    <svg id="ear"/>
    <circle id="countor" stroke="black" cx="250" cy="250" r="200" stroke-width="3" fill="white"/>
    <svg id="mouth"><path stroke="black" stroke-width="1" d="M205.5 422 C156.5 406, 343.5 406, 294.5 422   M205.5 422 C131.5 461, 368.5 461, 294.5 422" fill="white"/></svg>
    <svg id="eye"><path stroke="black" stroke-width="1" d="M300.5 198 C300.5 142, 250.5 174, 297.5 174   C337.5 174, 439.5 146, 439.5 198   C439.5 243, 375.5 282, 360.5 282   C285.5 282, 300.5 240, 300.5 198  Z " fill="white"/><path stroke="black" stroke-width="1" d="M199.5 198 C199.5 142, 249.5 174, 202.5 174   C162.5 174, 60.5 146, 60.5 198   C60.5 243, 124.5 282, 139.5 282   C214.5 282, 199.5 240, 199.5 198  Z " fill="white"/><path stroke="black" stroke-width="0" d="M317.5 221 C317.5 201, 327.5 191, 347.5 191   C367.5 191, 377.5 201, 377.5 221   C377.5 241, 367.5 251, 347.5 251   C327.5 251, 317.5 241, 317.5 221  Z " fill="black"/><path stroke="black" stroke-width="0" d="M182.5 221 C182.5 201, 172.5 191, 152.5 191   C132.5 191, 122.5 201, 122.5 221   C122.5 241, 132.5 251, 152.5 251   C172.5 251, 182.5 241, 182.5 221  Z " fill="black"/></svg>

  </svg>