<?xml version="1.0" encoding="UTF-8" standalone="no"?><svg xmlns="http://www.w3.org/2000/svg" id="montage">
    <svg id="ear"/>
    <circle id="countor" stroke="black" cx="250" cy="250" r="200" stroke-width="3" fill="white"/>
    <svg id="mouth"><path stroke="black" stroke-width="1" d="M221 355 C224 306, 276 306, 279 355   M221 355 C355 503, 145 503, 279 355" fill="white"/></svg>
    <svg id="eye"><path stroke="black" stroke-width="1" d="M257 271 C257 230, 254 191, 307 191   C354 191, 441 215, 441 261   C441 316, 346 303, 313 303   C273 303, 257 319, 257 271  Z " fill="white"/><path stroke="black" stroke-width="1" d="M243 271 C243 230, 246 191, 193 191   C146 191, 59 215, 59 261   C59 316, 154 303, 187 303   C227 303, 243 319, 243 271  Z " fill="white"/><path stroke="black" stroke-width="0" d="M310 229 C310 209, 320 199, 340 199   C360 199, 370 209, 370 229   C370 249, 360 259, 340 259   C320 259, 310 249, 310 229  Z " fill="black"/><path stroke="black" stroke-width="0" d="M190 229 C190 209, 180 199, 160 199   C140 199, 130 209, 130 229   C130 249, 140 259, 160 259   C180 259, 190 249, 190 229  Z " fill="black"/></svg>

  </svg>