<?xml version="1.0" encoding="UTF-8" standalone="no"?><svg xmlns="http://www.w3.org/2000/svg" id="montage">
    <svg id="ear"/>
    <circle id="countor" stroke="black" cx="250" cy="250" r="200" stroke-width="3" fill="white"/>
    <svg id="mouth"><path stroke="black" stroke-width="1" d="M162.5 372 C189.5 409, 310.5 409, 337.5 372   M162.5 372 C61.5 348, 438.5 348, 337.5 372" fill="white"/></svg>
    <svg id="eye"><path stroke="black" stroke-width="1" d="M225 108 C225 95, 272 116, 327 116   C388 116, 432 53, 432 105   C432 166, 402 249, 373 249   C339 249, 225 121, 225 108  Z " fill="white"/><path stroke="black" stroke-width="1" d="M275 108 C275 95, 228 116, 173 116   C112 116, 68 53, 68 105   C68 166, 98 249, 127 249   C161 249, 275 121, 275 108  Z " fill="white"/><path stroke="black" stroke-width="0" d="M313 155 C313 135, 323 125, 343 125   C363 125, 373 135, 373 155   C373 175, 363 185, 343 185   C323 185, 313 175, 313 155  Z " fill="black"/><path stroke="black" stroke-width="0" d="M187 155 C187 135, 177 125, 157 125   C137 125, 127 135, 127 155   C127 175, 137 185, 157 185   C177 185, 187 175, 187 155  Z " fill="black"/></svg>

  </svg>