<?xml version="1.0" encoding="UTF-8" standalone="no"?><svg xmlns="http://www.w3.org/2000/svg" id="montage">
    <svg id="ear"/>
    <circle id="countor" stroke="black" cx="250" cy="250" r="200" stroke-width="3" fill="white"/>
    <svg id="mouth"><path stroke="black" stroke-width="1" d="M148.5 340 C138.5 366, 361.5 366, 351.5 340   M148.5 340 C126.5 274, 373.5 274, 351.5 340" fill="white"/></svg>
    <svg id="eye"><path stroke="black" stroke-width="1" d="M227 206 C227 168, 287 161, 357 161   C402 161, 463 151, 463 183   C463 206, 370 275, 333 275   C314 275, 227 216, 227 206  Z " fill="white"/><path stroke="black" stroke-width="1" d="M273 206 C273 168, 213 161, 143 161   C98 161, 37 151, 37 183   C37 206, 130 275, 167 275   C186 275, 273 216, 273 206  Z " fill="white"/><path stroke="black" stroke-width="0" d="M317 202 C317 182, 327 172, 347 172   C367 172, 377 182, 377 202   C377 222, 367 232, 347 232   C327 232, 317 222, 317 202  Z " fill="black"/><path stroke="black" stroke-width="0" d="M183 202 C183 182, 173 172, 153 172   C133 172, 123 182, 123 202   C123 222, 133 232, 153 232   C173 232, 183 222, 183 202  Z " fill="black"/></svg>

  </svg>