<?xml version="1.0" encoding="UTF-8" standalone="no"?><svg xmlns="http://www.w3.org/2000/svg" id="montage">
    <svg id="ear"/>
    <circle id="countor" stroke="black" cx="250" cy="250" r="200" stroke-width="3" fill="white"/>
    <svg id="mouth"><path stroke="black" stroke-width="1" d="M180.5 280 C145.5 319, 354.5 319, 319.5 280   M180.5 280 C247.5 388, 252.5 388, 319.5 280" fill="white"/></svg>
    <svg id="eye"><path stroke="black" stroke-width="1" d="M270 220 C270 147, 278 113, 312 113   C347 113, 407 76, 407 147   C407 217, 333 231, 312 231   C247 231, 270 273, 270 220  Z " fill="white"/><path stroke="black" stroke-width="1" d="M230 220 C230 147, 222 113, 188 113   C153 113, 93 76, 93 147   C93 217, 167 231, 188 231   C253 231, 230 273, 230 220  Z " fill="white"/><path stroke="black" stroke-width="0" d="M319 190 C319 170, 329 160, 349 160   C369 160, 379 170, 379 190   C379 210, 369 220, 349 220   C329 220, 319 210, 319 190  Z " fill="black"/><path stroke="black" stroke-width="0" d="M181 190 C181 170, 171 160, 151 160   C131 160, 121 170, 121 190   C121 210, 131 220, 151 220   C171 220, 181 210, 181 190  Z " fill="black"/></svg>

  </svg>