<?xml version="1.0" encoding="UTF-8" standalone="no"?><svg xmlns="http://www.w3.org/2000/svg" id="montage">
    <svg id="ear"/>
    <circle id="countor" stroke="black" cx="250" cy="250" r="200" stroke-width="3" fill="white"/>
    <svg id="mouth"><path stroke="black" stroke-width="1" d="M236.5 394 C216.5 344, 283.5 344, 263.5 394   M236.5 394 C256.5 421, 243.5 421, 263.5 394" fill="white"/></svg>
    <svg id="eye"><path stroke="black" stroke-width="1" d="M292.5 148 C292.5 109, 269.5 107, 347.5 107   C364.5 107, 434.5 194, 434.5 222   C434.5 234, 469.5 284, 394.5 284   C357.5 284, 292.5 209, 292.5 148  Z " fill="white"/><path stroke="black" stroke-width="1" d="M207.5 148 C207.5 109, 230.5 107, 152.5 107   C135.5 107, 65.5 194, 65.5 222   C65.5 234, 30.5 284, 105.5 284   C142.5 284, 207.5 209, 207.5 148  Z " fill="white"/><path stroke="black" stroke-width="0" d="M316.5 195 C316.5 175, 326.5 165, 346.5 165   C366.5 165, 376.5 175, 376.5 195   C376.5 215, 366.5 225, 346.5 225   C326.5 225, 316.5 215, 316.5 195  Z " fill="black"/><path stroke="black" stroke-width="0" d="M183.5 195 C183.5 175, 173.5 165, 153.5 165   C133.5 165, 123.5 175, 123.5 195   C123.5 215, 133.5 225, 153.5 225   C173.5 225, 183.5 215, 183.5 195  Z " fill="black"/></svg>

  </svg>