<?xml version="1.0" encoding="UTF-8" standalone="no"?><svg xmlns="http://www.w3.org/2000/svg" id="montage">
    <svg id="ear"/>
    <circle id="countor" stroke="black" cx="250" cy="250" r="200" stroke-width="3" fill="white"/>
    <svg id="mouth"><path stroke="black" stroke-width="1" d="M237.5 418 C199.5 453, 300.5 453, 262.5 418   M237.5 418 C165.5 341, 334.5 341, 262.5 418" fill="white"/></svg>
    <svg id="eye"><path stroke="black" stroke-width="1" d="M235.5 169 C235.5 137, 274.5 87, 296.5 87   C336.5 87, 388.5 143, 388.5 168   C388.5 207, 328.5 183, 312.5 183   C237.5 183, 235.5 193, 235.5 169  Z " fill="white"/><path stroke="black" stroke-width="1" d="M264.5 169 C264.5 137, 225.5 87, 203.5 87   C163.5 87, 111.5 143, 111.5 168   C111.5 207, 171.5 183, 187.5 183   C262.5 183, 264.5 193, 264.5 169  Z " fill="white"/><path stroke="black" stroke-width="0" d="M313.5 141 C313.5 121, 323.5 111, 343.5 111   C363.5 111, 373.5 121, 373.5 141   C373.5 161, 363.5 171, 343.5 171   C323.5 171, 313.5 161, 313.5 141  Z " fill="black"/><path stroke="black" stroke-width="0" d="M186.5 141 C186.5 121, 176.5 111, 156.5 111   C136.5 111, 126.5 121, 126.5 141   C126.5 161, 136.5 171, 156.5 171   C176.5 171, 186.5 161, 186.5 141  Z " fill="black"/></svg>

  </svg>