<?xml version="1.0" encoding="UTF-8" standalone="no"?><svg xmlns="http://www.w3.org/2000/svg" id="montage">
    <svg id="ear"/>
    <circle id="countor" stroke="black" cx="250" cy="250" r="200" stroke-width="3" fill="white"/>
    <svg id="mouth"><path stroke="black" stroke-width="1" d="M175.5 353 C206.5 399, 293.5 399, 324.5 353   M175.5 353 C260.5 231, 239.5 231, 324.5 353" fill="white"/></svg>
    <svg id="eye"><path stroke="black" stroke-width="1" d="M309 137 C309 69, 242 54, 320 54   C351 54, 434 114, 434 190   C434 230, 445 241, 380 241   C315 241, 309 153, 309 137  Z " fill="white"/><path stroke="black" stroke-width="1" d="M191 137 C191 69, 258 54, 180 54   C149 54, 66 114, 66 190   C66 230, 55 241, 120 241   C185 241, 191 153, 191 137  Z " fill="white"/><path stroke="black" stroke-width="0" d="M315 156 C315 136, 325 126, 345 126   C365 126, 375 136, 375 156   C375 176, 365 186, 345 186   C325 186, 315 176, 315 156  Z " fill="black"/><path stroke="black" stroke-width="0" d="M185 156 C185 136, 175 126, 155 126   C135 126, 125 136, 125 156   C125 176, 135 186, 155 186   C175 186, 185 176, 185 156  Z " fill="black"/></svg>

  </svg>