<?xml version="1.0" encoding="UTF-8" standalone="no"?><svg xmlns="http://www.w3.org/2000/svg" id="montage">
    <svg id="ear"/>
    <circle id="countor" stroke="black" cx="250" cy="250" r="200" stroke-width="3" fill="white"/>
    <svg id="mouth"><path stroke="black" stroke-width="1" d="M232.5 374 C210.5 409, 289.5 409, 267.5 374   M232.5 374 C376.5 487, 123.5 487, 267.5 374" fill="white"/></svg>
    <svg id="eye"><path stroke="black" stroke-width="1" d="M288 162 C288 152, 303 123, 380 123   C427 123, 380 135, 380 159   C380 173, 446 248, 380 248   C300 248, 288 177, 288 162  Z " fill="white"/><path stroke="black" stroke-width="1" d="M212 162 C212 152, 197 123, 120 123   C73 123, 120 135, 120 159   C120 173, 54 248, 120 248   C200 248, 212 177, 212 162  Z " fill="white"/><path stroke="black" stroke-width="0" d="M310 168 C310 148, 320 138, 340 138   C360 138, 370 148, 370 168   C370 188, 360 198, 340 198   C320 198, 310 188, 310 168  Z " fill="black"/><path stroke="black" stroke-width="0" d="M190 168 C190 148, 180 138, 160 138   C140 138, 130 148, 130 168   C130 188, 140 198, 160 198   C180 198, 190 188, 190 168  Z " fill="black"/></svg>

  </svg>