<?xml version="1.0" encoding="UTF-8" standalone="no"?><svg xmlns="http://www.w3.org/2000/svg" id="montage">
    <svg id="ear"/>
    <circle id="countor" stroke="black" cx="250" cy="250" r="200" stroke-width="3" fill="white"/>
    <svg id="mouth"><path stroke="black" stroke-width="1" d="M236 403 C196 412, 304 412, 264 403   M236 403 C259 496, 241 496, 264 403" fill="white"/></svg>
    <svg id="eye"><path stroke="black" stroke-width="1" d="M281.5 204 C281.5 173, 327.5 149, 391.5 149   C460.5 149, 431.5 149, 431.5 217   C431.5 243, 430.5 273, 359.5 273   C284.5 273, 281.5 259, 281.5 204  Z " fill="white"/><path stroke="black" stroke-width="1" d="M218.5 204 C218.5 173, 172.5 149, 108.5 149   C39.5 149, 68.5 149, 68.5 217   C68.5 243, 69.5 273, 140.5 273   C215.5 273, 218.5 259, 218.5 204  Z " fill="white"/><path stroke="black" stroke-width="0" d="M319.5 229 C319.5 209, 329.5 199, 349.5 199   C369.5 199, 379.5 209, 379.5 229   C379.5 249, 369.5 259, 349.5 259   C329.5 259, 319.5 249, 319.5 229  Z " fill="black"/><path stroke="black" stroke-width="0" d="M180.5 229 C180.5 209, 170.5 199, 150.5 199   C130.5 199, 120.5 209, 120.5 229   C120.5 249, 130.5 259, 150.5 259   C170.5 259, 180.5 249, 180.5 229  Z " fill="black"/></svg>

  </svg>