<?xml version="1.0" encoding="UTF-8" standalone="no"?><svg xmlns="http://www.w3.org/2000/svg" id="montage">
    <svg id="ear"/>
    <circle id="countor" stroke="black" cx="250" cy="250" r="200" stroke-width="3" fill="white"/>
    <svg id="mouth"><path stroke="black" stroke-width="1" d="M226.5 425 C187.5 436, 312.5 436, 273.5 425   M226.5 425 C133.5 324, 366.5 324, 273.5 425" fill="white"/></svg>
    <svg id="eye"><path stroke="black" stroke-width="1" d="M303.5 186 C303.5 137, 336.5 125, 360.5 125   C406.5 125, 413.5 187, 413.5 234   C413.5 262, 451.5 302, 376.5 302   C309.5 302, 303.5 225, 303.5 186  Z " fill="white"/><path stroke="black" stroke-width="1" d="M196.5 186 C196.5 137, 163.5 125, 139.5 125   C93.5 125, 86.5 187, 86.5 234   C86.5 262, 48.5 302, 123.5 302   C190.5 302, 196.5 225, 196.5 186  Z " fill="white"/><path stroke="black" stroke-width="0" d="M313.5 191 C313.5 171, 323.5 161, 343.5 161   C363.5 161, 373.5 171, 373.5 191   C373.5 211, 363.5 221, 343.5 221   C323.5 221, 313.5 211, 313.5 191  Z " fill="black"/><path stroke="black" stroke-width="0" d="M186.5 191 C186.5 171, 176.5 161, 156.5 161   C136.5 161, 126.5 171, 126.5 191   C126.5 211, 136.5 221, 156.5 221   C176.5 221, 186.5 211, 186.5 191  Z " fill="black"/></svg>

  </svg>