<?xml version="1.0" encoding="UTF-8" standalone="no"?><svg xmlns="http://www.w3.org/2000/svg" id="montage">
    <svg id="ear"/>
    <circle id="countor" stroke="black" cx="250" cy="250" r="200" stroke-width="3" fill="white"/>
    <svg id="mouth"><path stroke="black" stroke-width="1" d="M195 370 C234 342, 266 342, 305 370   M195 370 C82 454, 418 454, 305 370" fill="white"/></svg>
    <svg id="eye"><path stroke="black" stroke-width="1" d="M273 232 C273 184, 266 96, 301 96   C347 96, 383 96, 383 171   C383 187, 331 256, 320 256   C279 256, 273 297, 273 232  Z " fill="white"/><path stroke="black" stroke-width="1" d="M227 232 C227 184, 234 96, 199 96   C153 96, 117 96, 117 171   C117 187, 169 256, 180 256   C221 256, 227 297, 227 232  Z " fill="white"/><path stroke="black" stroke-width="0" d="M313 213 C313 193, 323 183, 343 183   C363 183, 373 193, 373 213   C373 233, 363 243, 343 243   C323 243, 313 233, 313 213  Z " fill="black"/><path stroke="black" stroke-width="0" d="M187 213 C187 193, 177 183, 157 183   C137 183, 127 193, 127 213   C127 233, 137 243, 157 243   C177 243, 187 233, 187 213  Z " fill="black"/></svg>

  </svg>