<?xml version="1.0" encoding="UTF-8" standalone="no"?><svg xmlns="http://www.w3.org/2000/svg" id="montage">
    <svg id="ear"/>
    <circle id="countor" stroke="black" cx="250" cy="250" r="200" stroke-width="3" fill="white"/>
    <svg id="mouth"><path stroke="black" stroke-width="1" d="M211.5 343 C245.5 368, 254.5 368, 288.5 343   M211.5 343 C269.5 444, 230.5 444, 288.5 343" fill="white"/></svg>
    <svg id="eye"><path stroke="black" stroke-width="1" d="M274 185 C274 146, 271 112, 334 112   C401 112, 468 119, 468 161   C468 231, 360 185, 298 185   C248 185, 274 227, 274 185  Z " fill="white"/><path stroke="black" stroke-width="1" d="M226 185 C226 146, 229 112, 166 112   C99 112, 32 119, 32 161   C32 231, 140 185, 202 185   C252 185, 226 227, 226 185  Z " fill="white"/><path stroke="black" stroke-width="0" d="M318 149 C318 129, 328 119, 348 119   C368 119, 378 129, 378 149   C378 169, 368 179, 348 179   C328 179, 318 169, 318 149  Z " fill="black"/><path stroke="black" stroke-width="0" d="M182 149 C182 129, 172 119, 152 119   C132 119, 122 129, 122 149   C122 169, 132 179, 152 179   C172 179, 182 169, 182 149  Z " fill="black"/></svg>

  </svg>