<?xml version="1.0" encoding="UTF-8" standalone="no"?><svg xmlns="http://www.w3.org/2000/svg" id="montage">
    <svg id="ear"/>
    <circle id="countor" stroke="black" cx="250" cy="250" r="200" stroke-width="3" fill="white"/>
    <svg id="mouth"><path stroke="black" stroke-width="1" d="M141 309 C126 346, 374 346, 359 309   M141 309 C100 415, 400 415, 359 309" fill="white"/></svg>
    <svg id="eye"><path stroke="black" stroke-width="1" d="M292.5 216 C292.5 197, 301.5 156, 339.5 156   C356.5 156, 386.5 107, 386.5 149   C386.5 206, 381.5 270, 315.5 270   C289.5 270, 292.5 232, 292.5 216  Z " fill="white"/><path stroke="black" stroke-width="1" d="M207.5 216 C207.5 197, 198.5 156, 160.5 156   C143.5 156, 113.5 107, 113.5 149   C113.5 206, 118.5 270, 184.5 270   C210.5 270, 207.5 232, 207.5 216  Z " fill="white"/><path stroke="black" stroke-width="0" d="M311.5 192 C311.5 172, 321.5 162, 341.5 162   C361.5 162, 371.5 172, 371.5 192   C371.5 212, 361.5 222, 341.5 222   C321.5 222, 311.5 212, 311.5 192  Z " fill="black"/><path stroke="black" stroke-width="0" d="M188.5 192 C188.5 172, 178.5 162, 158.5 162   C138.5 162, 128.5 172, 128.5 192   C128.5 212, 138.5 222, 158.5 222   C178.5 222, 188.5 212, 188.5 192  Z " fill="black"/></svg>

  </svg>