<?xml version="1.0" encoding="UTF-8" standalone="no"?><svg xmlns="http://www.w3.org/2000/svg" id="montage">
    <svg id="ear"/>
    <circle id="countor" stroke="black" cx="250" cy="250" r="200" stroke-width="3" fill="white"/>
    <svg id="mouth"><path stroke="black" stroke-width="1" d="M193 362 C152 407, 348 407, 307 362   M193 362 C292 312, 208 312, 307 362" fill="white"/></svg>
    <svg id="eye"><path stroke="black" stroke-width="1" d="M274.5 192 C274.5 121, 310.5 126, 365.5 126   C396.5 126, 400.5 192, 400.5 204   C400.5 256, 447.5 288, 384.5 288   C337.5 288, 274.5 202, 274.5 192  Z " fill="white"/><path stroke="black" stroke-width="1" d="M225.5 192 C225.5 121, 189.5 126, 134.5 126   C103.5 126, 99.5 192, 99.5 204   C99.5 256, 52.5 288, 115.5 288   C162.5 288, 225.5 202, 225.5 192  Z " fill="white"/><path stroke="black" stroke-width="0" d="M317.5 211 C317.5 191, 327.5 181, 347.5 181   C367.5 181, 377.5 191, 377.5 211   C377.5 231, 367.5 241, 347.5 241   C327.5 241, 317.5 231, 317.5 211  Z " fill="black"/><path stroke="black" stroke-width="0" d="M182.5 211 C182.5 191, 172.5 181, 152.5 181   C132.5 181, 122.5 191, 122.5 211   C122.5 231, 132.5 241, 152.5 241   C172.5 241, 182.5 231, 182.5 211  Z " fill="black"/></svg>

  </svg>