<?xml version="1.0" encoding="UTF-8" standalone="no"?><svg xmlns="http://www.w3.org/2000/svg" id="montage">
    <svg id="ear"/>
    <circle id="countor" stroke="black" cx="250" cy="250" r="200" stroke-width="3" fill="white"/>
    <svg id="mouth"><path stroke="black" stroke-width="1" d="M128.5 346 C148.5 321, 351.5 321, 371.5 346   M128.5 346 C271.5 253, 228.5 253, 371.5 346" fill="white"/></svg>
    <svg id="eye"><path stroke="black" stroke-width="1" d="M309.5 209 C309.5 191, 298.5 117, 364.5 117   C434.5 117, 444.5 170, 444.5 234   C444.5 288, 370.5 277, 325.5 277   C255.5 277, 309.5 238, 309.5 209  Z " fill="white"/><path stroke="black" stroke-width="1" d="M190.5 209 C190.5 191, 201.5 117, 135.5 117   C65.5 117, 55.5 170, 55.5 234   C55.5 288, 129.5 277, 174.5 277   C244.5 277, 190.5 238, 190.5 209  Z " fill="white"/><path stroke="black" stroke-width="0" d="M315.5 229 C315.5 209, 325.5 199, 345.5 199   C365.5 199, 375.5 209, 375.5 229   C375.5 249, 365.5 259, 345.5 259   C325.5 259, 315.5 249, 315.5 229  Z " fill="black"/><path stroke="black" stroke-width="0" d="M184.5 229 C184.5 209, 174.5 199, 154.5 199   C134.5 199, 124.5 209, 124.5 229   C124.5 249, 134.5 259, 154.5 259   C174.5 259, 184.5 249, 184.5 229  Z " fill="black"/></svg>

  </svg>