<?xml version="1.0" encoding="UTF-8" standalone="no"?><svg xmlns="http://www.w3.org/2000/svg" id="montage">
    <svg id="ear"/>
    <circle id="countor" stroke="black" cx="250" cy="250" r="200" stroke-width="3" fill="white"/>
    <svg id="mouth"><path stroke="black" stroke-width="1" d="M217 382 C231 418, 269 418, 283 382   M217 382 C84 275, 416 275, 283 382" fill="white"/></svg>
    <svg id="eye"><path stroke="black" stroke-width="1" d="M245.5 190 C245.5 114, 316.5 121, 385.5 121   C463.5 121, 452.5 174, 452.5 250   C452.5 314, 366.5 267, 347.5 267   C317.5 267, 245.5 211, 245.5 190  Z " fill="white"/><path stroke="black" stroke-width="1" d="M254.5 190 C254.5 114, 183.5 121, 114.5 121   C36.5 121, 47.5 174, 47.5 250   C47.5 314, 133.5 267, 152.5 267   C182.5 267, 254.5 211, 254.5 190  Z " fill="white"/><path stroke="black" stroke-width="0" d="M311.5 215 C311.5 195, 321.5 185, 341.5 185   C361.5 185, 371.5 195, 371.5 215   C371.5 235, 361.5 245, 341.5 245   C321.5 245, 311.5 235, 311.5 215  Z " fill="black"/><path stroke="black" stroke-width="0" d="M188.5 215 C188.5 195, 178.5 185, 158.5 185   C138.5 185, 128.5 195, 128.5 215   C128.5 235, 138.5 245, 158.5 245   C178.5 245, 188.5 235, 188.5 215  Z " fill="black"/></svg>

  </svg>