<?xml version="1.0" encoding="UTF-8" standalone="no"?><svg xmlns="http://www.w3.org/2000/svg" id="montage">
    <svg id="ear"/>
    <circle id="countor" stroke="black" cx="250" cy="250" r="200" stroke-width="3" fill="white"/>
    <svg id="mouth"><path stroke="black" stroke-width="1" d="M224.5 356 C225.5 368, 274.5 368, 275.5 356   M224.5 356 C132.5 218, 367.5 218, 275.5 356" fill="white"/></svg>
    <svg id="eye"><path stroke="black" stroke-width="1" d="M267 187 C267 131, 298 62, 328 62   C391 62, 380 110, 380 146   C380 183, 342 219, 301 219   C274 219, 267 254, 267 187  Z " fill="white"/><path stroke="black" stroke-width="1" d="M233 187 C233 131, 202 62, 172 62   C109 62, 120 110, 120 146   C120 183, 158 219, 199 219   C226 219, 233 254, 233 187  Z " fill="white"/><path stroke="black" stroke-width="0" d="M314 156 C314 136, 324 126, 344 126   C364 126, 374 136, 374 156   C374 176, 364 186, 344 186   C324 186, 314 176, 314 156  Z " fill="black"/><path stroke="black" stroke-width="0" d="M186 156 C186 136, 176 126, 156 126   C136 126, 126 136, 126 156   C126 176, 136 186, 156 186   C176 186, 186 176, 186 156  Z " fill="black"/></svg>

  </svg>