<?xml version="1.0" encoding="UTF-8" standalone="no"?><svg xmlns="http://www.w3.org/2000/svg" id="montage">
    <svg id="ear"/>
    <circle id="countor" stroke="black" cx="250" cy="250" r="200" stroke-width="3" fill="white"/>
    <svg id="mouth"><path stroke="black" stroke-width="1" d="M159 419 C196 387, 304 387, 341 419   M159 419 C96 511, 404 511, 341 419" fill="white"/></svg>
    <svg id="eye"><path stroke="black" stroke-width="1" d="M254.5 245 C254.5 193, 339.5 107, 368.5 107   C394.5 107, 429.5 139, 429.5 211   C429.5 280, 460.5 267, 380.5 267   C338.5 267, 254.5 273, 254.5 245  Z " fill="white"/><path stroke="black" stroke-width="1" d="M245.5 245 C245.5 193, 160.5 107, 131.5 107   C105.5 107, 70.5 139, 70.5 211   C70.5 280, 39.5 267, 119.5 267   C161.5 267, 245.5 273, 245.5 245  Z " fill="white"/><path stroke="black" stroke-width="0" d="M317.5 207 C317.5 187, 327.5 177, 347.5 177   C367.5 177, 377.5 187, 377.5 207   C377.5 227, 367.5 237, 347.5 237   C327.5 237, 317.5 227, 317.5 207  Z " fill="black"/><path stroke="black" stroke-width="0" d="M182.5 207 C182.5 187, 172.5 177, 152.5 177   C132.5 177, 122.5 187, 122.5 207   C122.5 227, 132.5 237, 152.5 237   C172.5 237, 182.5 227, 182.5 207  Z " fill="black"/></svg>

  </svg>