<?xml version="1.0" encoding="UTF-8" standalone="no"?><svg xmlns="http://www.w3.org/2000/svg" id="montage">
    <svg id="ear"/>
    <circle id="countor" stroke="black" cx="250" cy="250" r="200" stroke-width="3" fill="white"/>
    <svg id="mouth"><path stroke="black" stroke-width="1" d="M187.5 416 C203.5 387, 296.5 387, 312.5 416   M187.5 416 C290.5 524, 209.5 524, 312.5 416" fill="white"/></svg>
    <svg id="eye"><path stroke="black" stroke-width="1" d="M289.5 238 C289.5 212, 265.5 102, 308.5 102   C330.5 102, 439.5 193, 439.5 218   C439.5 294, 407.5 323, 355.5 323   C290.5 323, 289.5 271, 289.5 238  Z " fill="white"/><path stroke="black" stroke-width="1" d="M210.5 238 C210.5 212, 234.5 102, 191.5 102   C169.5 102, 60.5 193, 60.5 218   C60.5 294, 92.5 323, 144.5 323   C209.5 323, 210.5 271, 210.5 238  Z " fill="white"/><path stroke="black" stroke-width="0" d="M313.5 214 C313.5 194, 323.5 184, 343.5 184   C363.5 184, 373.5 194, 373.5 214   C373.5 234, 363.5 244, 343.5 244   C323.5 244, 313.5 234, 313.5 214  Z " fill="black"/><path stroke="black" stroke-width="0" d="M186.5 214 C186.5 194, 176.5 184, 156.5 184   C136.5 184, 126.5 194, 126.5 214   C126.5 234, 136.5 244, 156.5 244   C176.5 244, 186.5 234, 186.5 214  Z " fill="black"/></svg>

  </svg>