<?xml version="1.0" encoding="UTF-8" standalone="no"?><svg xmlns="http://www.w3.org/2000/svg" id="montage">
    <svg id="ear"/>
    <circle id="countor" stroke="black" cx="250" cy="250" r="200" stroke-width="3" fill="white"/>
    <svg id="mouth"><path stroke="black" stroke-width="1" d="M179.5 332 C205.5 356, 294.5 356, 320.5 332   M179.5 332 C285.5 326, 214.5 326, 320.5 332" fill="white"/></svg>
    <svg id="eye"><path stroke="black" stroke-width="1" d="M266 183 C266 115, 258 129, 302 129   C330 129, 407 117, 407 192   C407 235, 336 220, 314 220   C277 220, 266 248, 266 183  Z " fill="white"/><path stroke="black" stroke-width="1" d="M234 183 C234 115, 242 129, 198 129   C170 129, 93 117, 93 192   C93 235, 164 220, 186 220   C223 220, 234 248, 234 183  Z " fill="white"/><path stroke="black" stroke-width="0" d="M314 171 C314 151, 324 141, 344 141   C364 141, 374 151, 374 171   C374 191, 364 201, 344 201   C324 201, 314 191, 314 171  Z " fill="black"/><path stroke="black" stroke-width="0" d="M186 171 C186 151, 176 141, 156 141   C136 141, 126 151, 126 171   C126 191, 136 201, 156 201   C176 201, 186 191, 186 171  Z " fill="black"/></svg>

  </svg>