<?xml version="1.0" encoding="UTF-8" standalone="no"?><svg xmlns="http://www.w3.org/2000/svg" id="montage">
    <svg id="ear"/>
    <circle id="countor" stroke="black" cx="250" cy="250" r="200" stroke-width="3" fill="white"/>
    <svg id="mouth"><path stroke="black" stroke-width="1" d="M198 378 C170 377, 330 377, 302 378   M198 378 C304 351, 196 351, 302 378" fill="white"/></svg>
    <svg id="eye"><path stroke="black" stroke-width="1" d="M221 180 C221 123, 266 110, 325 110   C370 110, 380 144, 380 183   C380 245, 381 201, 344 201   C288 201, 221 204, 221 180  Z " fill="white"/><path stroke="black" stroke-width="1" d="M279 180 C279 123, 234 110, 175 110   C130 110, 120 144, 120 183   C120 245, 119 201, 156 201   C212 201, 279 204, 279 180  Z " fill="white"/><path stroke="black" stroke-width="0" d="M311 146 C311 126, 321 116, 341 116   C361 116, 371 126, 371 146   C371 166, 361 176, 341 176   C321 176, 311 166, 311 146  Z " fill="black"/><path stroke="black" stroke-width="0" d="M189 146 C189 126, 179 116, 159 116   C139 116, 129 126, 129 146   C129 166, 139 176, 159 176   C179 176, 189 166, 189 146  Z " fill="black"/></svg>

  </svg>