<?xml version="1.0" encoding="UTF-8" standalone="no"?><svg xmlns="http://www.w3.org/2000/svg" id="montage">
    <svg id="ear"/>
    <circle id="countor" stroke="black" cx="250" cy="250" r="200" stroke-width="3" fill="white"/>
    <svg id="mouth"><path stroke="black" stroke-width="1" d="M218 294 C248 256, 252 256, 282 294   M218 294 C342 176, 158 176, 282 294" fill="white"/></svg>
    <svg id="eye"><path stroke="black" stroke-width="1" d="M281.5 98 C281.5 34, 268.5 81, 344.5 81   C396.5 81, 432.5 37, 432.5 93   C432.5 167, 346.5 185, 313.5 185   C297.5 185, 281.5 130, 281.5 98  Z " fill="white"/><path stroke="black" stroke-width="1" d="M218.5 98 C218.5 34, 231.5 81, 155.5 81   C103.5 81, 67.5 37, 67.5 93   C67.5 167, 153.5 185, 186.5 185   C202.5 185, 218.5 130, 218.5 98  Z " fill="white"/><path stroke="black" stroke-width="0" d="M312.5 131 C312.5 111, 322.5 101, 342.5 101   C362.5 101, 372.5 111, 372.5 131   C372.5 151, 362.5 161, 342.5 161   C322.5 161, 312.5 151, 312.5 131  Z " fill="black"/><path stroke="black" stroke-width="0" d="M187.5 131 C187.5 111, 177.5 101, 157.5 101   C137.5 101, 127.5 111, 127.5 131   C127.5 151, 137.5 161, 157.5 161   C177.5 161, 187.5 151, 187.5 131  Z " fill="black"/></svg>

  </svg>