<?xml version="1.0" encoding="UTF-8" standalone="no"?><svg xmlns="http://www.w3.org/2000/svg" id="montage">
    <svg id="ear"/>
    <circle id="countor" stroke="black" cx="250" cy="250" r="200" stroke-width="3" fill="white"/>
    <svg id="mouth"><path stroke="black" stroke-width="1" d="M171.5 312 C212.5 329, 287.5 329, 328.5 312   M171.5 312 C282.5 390, 217.5 390, 328.5 312" fill="white"/></svg>
    <svg id="eye"><path stroke="black" stroke-width="1" d="M234.5 130 C234.5 71, 343.5 110, 360.5 110   C383.5 110, 436.5 82, 436.5 143   C436.5 199, 397.5 201, 317.5 201   C300.5 201, 234.5 177, 234.5 130  Z " fill="white"/><path stroke="black" stroke-width="1" d="M265.5 130 C265.5 71, 156.5 110, 139.5 110   C116.5 110, 63.5 82, 63.5 143   C63.5 199, 102.5 201, 182.5 201   C199.5 201, 265.5 177, 265.5 130  Z " fill="white"/><path stroke="black" stroke-width="0" d="M316.5 148 C316.5 128, 326.5 118, 346.5 118   C366.5 118, 376.5 128, 376.5 148   C376.5 168, 366.5 178, 346.5 178   C326.5 178, 316.5 168, 316.5 148  Z " fill="black"/><path stroke="black" stroke-width="0" d="M183.5 148 C183.5 128, 173.5 118, 153.5 118   C133.5 118, 123.5 128, 123.5 148   C123.5 168, 133.5 178, 153.5 178   C173.5 178, 183.5 168, 183.5 148  Z " fill="black"/></svg>

  </svg>