<?xml version="1.0" encoding="UTF-8" standalone="no"?><svg xmlns="http://www.w3.org/2000/svg" id="montage">
    <svg id="ear"/>
    <circle id="countor" stroke="black" cx="250" cy="250" r="200" stroke-width="3" fill="white"/>
    <svg id="mouth"><path stroke="black" stroke-width="1" d="M123.5 357 C132.5 397, 367.5 397, 376.5 357   M123.5 357 C116.5 215, 383.5 215, 376.5 357" fill="white"/></svg>
    <svg id="eye"><path stroke="black" stroke-width="1" d="M256.5 166 C256.5 132, 281.5 168, 331.5 168   C394.5 168, 446.5 135, 446.5 214   C446.5 270, 317.5 285, 302.5 285   C248.5 285, 256.5 245, 256.5 166  Z " fill="white"/><path stroke="black" stroke-width="1" d="M243.5 166 C243.5 132, 218.5 168, 168.5 168   C105.5 168, 53.5 135, 53.5 214   C53.5 270, 182.5 285, 197.5 285   C251.5 285, 243.5 245, 243.5 166  Z " fill="white"/><path stroke="black" stroke-width="0" d="M316.5 214 C316.5 194, 326.5 184, 346.5 184   C366.5 184, 376.5 194, 376.5 214   C376.5 234, 366.5 244, 346.5 244   C326.5 244, 316.5 234, 316.5 214  Z " fill="black"/><path stroke="black" stroke-width="0" d="M183.5 214 C183.5 194, 173.5 184, 153.5 184   C133.5 184, 123.5 194, 123.5 214   C123.5 234, 133.5 244, 153.5 244   C173.5 244, 183.5 234, 183.5 214  Z " fill="black"/></svg>

  </svg>