<?xml version="1.0" encoding="UTF-8" standalone="no"?><svg xmlns="http://www.w3.org/2000/svg" id="montage">
    <svg id="ear"/>
    <circle id="countor" stroke="black" cx="250" cy="250" r="200" stroke-width="3" fill="white"/>
    <svg id="mouth"><path stroke="black" stroke-width="1" d="M196 306 C175 311, 325 311, 304 306   M196 306 C215 324, 285 324, 304 306" fill="white"/></svg>
    <svg id="eye"><path stroke="black" stroke-width="1" d="M239.5 138 C239.5 82, 279.5 68, 296.5 68   C339.5 68, 439.5 57, 439.5 125   C439.5 187, 453.5 260, 390.5 260   C325.5 260, 239.5 172, 239.5 138  Z " fill="white"/><path stroke="black" stroke-width="1" d="M260.5 138 C260.5 82, 220.5 68, 203.5 68   C160.5 68, 60.5 57, 60.5 125   C60.5 187, 46.5 260, 109.5 260   C174.5 260, 260.5 172, 260.5 138  Z " fill="white"/><path stroke="black" stroke-width="0" d="M312.5 146 C312.5 126, 322.5 116, 342.5 116   C362.5 116, 372.5 126, 372.5 146   C372.5 166, 362.5 176, 342.5 176   C322.5 176, 312.5 166, 312.5 146  Z " fill="black"/><path stroke="black" stroke-width="0" d="M187.5 146 C187.5 126, 177.5 116, 157.5 116   C137.5 116, 127.5 126, 127.5 146   C127.5 166, 137.5 176, 157.5 176   C177.5 176, 187.5 166, 187.5 146  Z " fill="black"/></svg>

  </svg>