<?xml version="1.0" encoding="UTF-8" standalone="no"?><svg xmlns="http://www.w3.org/2000/svg" id="montage">
    <svg id="ear"/>
    <circle id="countor" stroke="black" cx="250" cy="250" r="200" stroke-width="3" fill="white"/>
    <svg id="mouth"><path stroke="black" stroke-width="1" d="M144.5 362 C96.5 324, 403.5 324, 355.5 362   M144.5 362 C186.5 448, 313.5 448, 355.5 362" fill="white"/></svg>
    <svg id="eye"><path stroke="black" stroke-width="1" d="M275 209 C275 184, 318 98, 345 98   C413 98, 403 226, 403 254   C403 271, 376 252, 361 252   C328 252, 275 282, 275 209  Z " fill="white"/><path stroke="black" stroke-width="1" d="M225 209 C225 184, 182 98, 155 98   C87 98, 97 226, 97 254   C97 271, 124 252, 139 252   C172 252, 225 282, 225 209  Z " fill="white"/><path stroke="black" stroke-width="0" d="M319 207 C319 187, 329 177, 349 177   C369 177, 379 187, 379 207   C379 227, 369 237, 349 237   C329 237, 319 227, 319 207  Z " fill="black"/><path stroke="black" stroke-width="0" d="M181 207 C181 187, 171 177, 151 177   C131 177, 121 187, 121 207   C121 227, 131 237, 151 237   C171 237, 181 227, 181 207  Z " fill="black"/></svg>

  </svg>