<?xml version="1.0" encoding="UTF-8" standalone="no"?><svg xmlns="http://www.w3.org/2000/svg" id="montage">
    <svg id="ear"/>
    <circle id="countor" stroke="black" cx="250" cy="250" r="200" stroke-width="3" fill="white"/>
    <svg id="mouth"><path stroke="black" stroke-width="1" d="M207.5 429 C182.5 442, 317.5 442, 292.5 429   M207.5 429 C165.5 371, 334.5 371, 292.5 429" fill="white"/></svg>
    <svg id="eye"><path stroke="black" stroke-width="1" d="M295.5 161 C295.5 112, 304.5 83, 338.5 83   C377.5 83, 392.5 111, 392.5 145   C392.5 200, 389.5 228, 331.5 228   C270.5 228, 295.5 183, 295.5 161  Z " fill="white"/><path stroke="black" stroke-width="1" d="M204.5 161 C204.5 112, 195.5 83, 161.5 83   C122.5 83, 107.5 111, 107.5 145   C107.5 200, 110.5 228, 168.5 228   C229.5 228, 204.5 183, 204.5 161  Z " fill="white"/><path stroke="black" stroke-width="0" d="M317.5 135 C317.5 115, 327.5 105, 347.5 105   C367.5 105, 377.5 115, 377.5 135   C377.5 155, 367.5 165, 347.5 165   C327.5 165, 317.5 155, 317.5 135  Z " fill="black"/><path stroke="black" stroke-width="0" d="M182.5 135 C182.5 115, 172.5 105, 152.5 105   C132.5 105, 122.5 115, 122.5 135   C122.5 155, 132.5 165, 152.5 165   C172.5 165, 182.5 155, 182.5 135  Z " fill="black"/></svg>

  </svg>