<?xml version="1.0" encoding="UTF-8" standalone="no"?><svg xmlns="http://www.w3.org/2000/svg" id="montage">
    <svg id="ear"/>
    <circle id="countor" stroke="black" cx="250" cy="250" r="200" stroke-width="3" fill="white"/>
    <svg id="mouth"><path stroke="black" stroke-width="1" d="M192.5 350 C208.5 400, 291.5 400, 307.5 350   M192.5 350 C246.5 475, 253.5 475, 307.5 350" fill="white"/></svg>
    <svg id="eye"><path stroke="black" stroke-width="1" d="M296.5 196 C296.5 145, 263.5 69, 333.5 69   C400.5 69, 398.5 182, 398.5 225   C398.5 297, 405.5 265, 350.5 265   C282.5 265, 296.5 230, 296.5 196  Z " fill="white"/><path stroke="black" stroke-width="1" d="M203.5 196 C203.5 145, 236.5 69, 166.5 69   C99.5 69, 101.5 182, 101.5 225   C101.5 297, 94.5 265, 149.5 265   C217.5 265, 203.5 230, 203.5 196  Z " fill="white"/><path stroke="black" stroke-width="0" d="M313.5 178 C313.5 158, 323.5 148, 343.5 148   C363.5 148, 373.5 158, 373.5 178   C373.5 198, 363.5 208, 343.5 208   C323.5 208, 313.5 198, 313.5 178  Z " fill="black"/><path stroke="black" stroke-width="0" d="M186.5 178 C186.5 158, 176.5 148, 156.5 148   C136.5 148, 126.5 158, 126.5 178   C126.5 198, 136.5 208, 156.5 208   C176.5 208, 186.5 198, 186.5 178  Z " fill="black"/></svg>

  </svg>