<?xml version="1.0" encoding="UTF-8" standalone="no"?><svg xmlns="http://www.w3.org/2000/svg" id="montage">
    <svg id="ear"/>
    <circle id="countor" stroke="black" cx="250" cy="250" r="200" stroke-width="3" fill="white"/>
    <svg id="mouth"><path stroke="black" stroke-width="1" d="M226.5 428 C176.5 381, 323.5 381, 273.5 428   M226.5 428 C86.5 406, 413.5 406, 273.5 428" fill="white"/></svg>
    <svg id="eye"><path stroke="black" stroke-width="1" d="M227.5 163 C227.5 124, 282.5 108, 325.5 108   C386.5 108, 428.5 56, 428.5 120   C428.5 190, 407.5 251, 331.5 251   C255.5 251, 227.5 234, 227.5 163  Z " fill="white"/><path stroke="black" stroke-width="1" d="M272.5 163 C272.5 124, 217.5 108, 174.5 108   C113.5 108, 71.5 56, 71.5 120   C71.5 190, 92.5 251, 168.5 251   C244.5 251, 272.5 234, 272.5 163  Z " fill="white"/><path stroke="black" stroke-width="0" d="M313.5 161 C313.5 141, 323.5 131, 343.5 131   C363.5 131, 373.5 141, 373.5 161   C373.5 181, 363.5 191, 343.5 191   C323.5 191, 313.5 181, 313.5 161  Z " fill="black"/><path stroke="black" stroke-width="0" d="M186.5 161 C186.5 141, 176.5 131, 156.5 131   C136.5 131, 126.5 141, 126.5 161   C126.5 181, 136.5 191, 156.5 191   C176.5 191, 186.5 181, 186.5 161  Z " fill="black"/></svg>

  </svg>