<?xml version="1.0" encoding="UTF-8" standalone="no"?><svg xmlns="http://www.w3.org/2000/svg" id="montage">
    <svg id="ear"/>
    <circle id="countor" stroke="black" cx="250" cy="250" r="200" stroke-width="3" fill="white"/>
    <svg id="mouth"><path stroke="black" stroke-width="1" d="M192.5 309 C169.5 263, 330.5 263, 307.5 309   M192.5 309 C145.5 227, 354.5 227, 307.5 309" fill="white"/></svg>
    <svg id="eye"><path stroke="black" stroke-width="1" d="M252 96 C252 28, 330 61, 342 61   C414 61, 450 124, 450 165   C450 185, 337 247, 326 247   C303 247, 252 120, 252 96  Z " fill="white"/><path stroke="black" stroke-width="1" d="M248 96 C248 28, 170 61, 158 61   C86 61, 50 124, 50 165   C50 185, 163 247, 174 247   C197 247, 248 120, 248 96  Z " fill="white"/><path stroke="black" stroke-width="0" d="M316 145 C316 125, 326 115, 346 115   C366 115, 376 125, 376 145   C376 165, 366 175, 346 175   C326 175, 316 165, 316 145  Z " fill="black"/><path stroke="black" stroke-width="0" d="M184 145 C184 125, 174 115, 154 115   C134 115, 124 125, 124 145   C124 165, 134 175, 154 175   C174 175, 184 165, 184 145  Z " fill="black"/></svg>

  </svg>