<?xml version="1.0" encoding="UTF-8" standalone="no"?><svg xmlns="http://www.w3.org/2000/svg" id="montage">
    <svg id="ear"/>
    <circle id="countor" stroke="black" cx="250" cy="250" r="200" stroke-width="3" fill="white"/>
    <svg id="mouth"><path stroke="black" stroke-width="1" d="M224 412 C174 379, 326 379, 276 412   M224 412 C358 478, 142 478, 276 412" fill="white"/></svg>
    <svg id="eye"><path stroke="black" stroke-width="1" d="M295.5 200 C295.5 169, 368.5 81, 378.5 81   C397.5 81, 395.5 104, 395.5 182   C395.5 204, 410.5 242, 333.5 242   C309.5 242, 295.5 256, 295.5 200  Z " fill="white"/><path stroke="black" stroke-width="1" d="M204.5 200 C204.5 169, 131.5 81, 121.5 81   C102.5 81, 104.5 104, 104.5 182   C104.5 204, 89.5 242, 166.5 242   C190.5 242, 204.5 256, 204.5 200  Z " fill="white"/><path stroke="black" stroke-width="0" d="M313.5 152 C313.5 132, 323.5 122, 343.5 122   C363.5 122, 373.5 132, 373.5 152   C373.5 172, 363.5 182, 343.5 182   C323.5 182, 313.5 172, 313.5 152  Z " fill="black"/><path stroke="black" stroke-width="0" d="M186.5 152 C186.5 132, 176.5 122, 156.5 122   C136.5 122, 126.5 132, 126.5 152   C126.5 172, 136.5 182, 156.5 182   C176.5 182, 186.5 172, 186.5 152  Z " fill="black"/></svg>

  </svg>