<?xml version="1.0" encoding="UTF-8" standalone="no"?><svg xmlns="http://www.w3.org/2000/svg" id="montage">
    <svg id="ear"/>
    <circle id="countor" stroke="black" cx="250" cy="250" r="200" stroke-width="3" fill="white"/>
    <svg id="mouth"><path stroke="black" stroke-width="1" d="M120 314 C101 295, 399 295, 380 314   M120 314 C137 227, 363 227, 380 314" fill="white"/></svg>
    <svg id="eye"><path stroke="black" stroke-width="1" d="M229 130 C229 81, 329 39, 386 39   C460 39, 438 111, 438 126   C438 137, 400 244, 322 244   C297 244, 229 166, 229 130  Z " fill="white"/><path stroke="black" stroke-width="1" d="M271 130 C271 81, 171 39, 114 39   C40 39, 62 111, 62 126   C62 137, 100 244, 178 244   C203 244, 271 166, 271 130  Z " fill="white"/><path stroke="black" stroke-width="0" d="M317 130 C317 110, 327 100, 347 100   C367 100, 377 110, 377 130   C377 150, 367 160, 347 160   C327 160, 317 150, 317 130  Z " fill="black"/><path stroke="black" stroke-width="0" d="M183 130 C183 110, 173 100, 153 100   C133 100, 123 110, 123 130   C123 150, 133 160, 153 160   C173 160, 183 150, 183 130  Z " fill="black"/></svg>

  </svg>