<?xml version="1.0" encoding="UTF-8" standalone="no"?><svg xmlns="http://www.w3.org/2000/svg" id="montage">
    <svg id="ear"/>
    <circle id="countor" stroke="black" cx="250" cy="250" r="200" stroke-width="3" fill="white"/>
    <svg id="mouth"><path stroke="black" stroke-width="1" d="M194.5 397 C173.5 434, 326.5 434, 305.5 397   M194.5 397 C209.5 280, 290.5 280, 305.5 397" fill="white"/></svg>
    <svg id="eye"><path stroke="black" stroke-width="1" d="M302 114 C302 51, 274 66, 333 66   C369 66, 446 97, 446 145   C446 190, 438 210, 377 210   C346 210, 302 142, 302 114  Z " fill="white"/><path stroke="black" stroke-width="1" d="M198 114 C198 51, 226 66, 167 66   C131 66, 54 97, 54 145   C54 190, 62 210, 123 210   C154 210, 198 142, 198 114  Z " fill="white"/><path stroke="black" stroke-width="0" d="M317 158 C317 138, 327 128, 347 128   C367 128, 377 138, 377 158   C377 178, 367 188, 347 188   C327 188, 317 178, 317 158  Z " fill="black"/><path stroke="black" stroke-width="0" d="M183 158 C183 138, 173 128, 153 128   C133 128, 123 138, 123 158   C123 178, 133 188, 153 188   C173 188, 183 178, 183 158  Z " fill="black"/></svg>

  </svg>