<?xml version="1.0" encoding="UTF-8" standalone="no"?><svg xmlns="http://www.w3.org/2000/svg" id="montage">
    <svg id="ear"/>
    <circle id="countor" stroke="black" cx="250" cy="250" r="200" stroke-width="3" fill="white"/>
    <svg id="mouth"><path stroke="black" stroke-width="1" d="M164 355 C133 382, 367 382, 336 355   M164 355 C282 405, 218 405, 336 355" fill="white"/></svg>
    <svg id="eye"><path stroke="black" stroke-width="1" d="M286.5 234 C286.5 215, 325.5 132, 339.5 132   C415.5 132, 422.5 116, 422.5 193   C422.5 222, 428.5 308, 384.5 308   C368.5 308, 286.5 298, 286.5 234  Z " fill="white"/><path stroke="black" stroke-width="1" d="M213.5 234 C213.5 215, 174.5 132, 160.5 132   C84.5 132, 77.5 116, 77.5 193   C77.5 222, 71.5 308, 115.5 308   C131.5 308, 213.5 298, 213.5 234  Z " fill="white"/><path stroke="black" stroke-width="0" d="M315.5 211 C315.5 191, 325.5 181, 345.5 181   C365.5 181, 375.5 191, 375.5 211   C375.5 231, 365.5 241, 345.5 241   C325.5 241, 315.5 231, 315.5 211  Z " fill="black"/><path stroke="black" stroke-width="0" d="M184.5 211 C184.5 191, 174.5 181, 154.5 181   C134.5 181, 124.5 191, 124.5 211   C124.5 231, 134.5 241, 154.5 241   C174.5 241, 184.5 231, 184.5 211  Z " fill="black"/></svg>

  </svg>