<?xml version="1.0" encoding="UTF-8" standalone="no"?><svg xmlns="http://www.w3.org/2000/svg" id="montage">
    <svg id="ear"/>
    <circle id="countor" stroke="black" cx="250" cy="250" r="200" stroke-width="3" fill="white"/>
    <svg id="mouth"><path stroke="black" stroke-width="1" d="M146.5 342 C126.5 331, 373.5 331, 353.5 342   M146.5 342 C52.5 229, 447.5 229, 353.5 342" fill="white"/></svg>
    <svg id="eye"><path stroke="black" stroke-width="1" d="M265 227 C265 191, 307 88, 372 88   C452 88, 461 199, 461 236   C461 261, 328 289, 317 289   C276 289, 265 246, 265 227  Z " fill="white"/><path stroke="black" stroke-width="1" d="M235 227 C235 191, 193 88, 128 88   C48 88, 39 199, 39 236   C39 261, 172 289, 183 289   C224 289, 235 246, 235 227  Z " fill="white"/><path stroke="black" stroke-width="0" d="M311 197 C311 177, 321 167, 341 167   C361 167, 371 177, 371 197   C371 217, 361 227, 341 227   C321 227, 311 217, 311 197  Z " fill="black"/><path stroke="black" stroke-width="0" d="M189 197 C189 177, 179 167, 159 167   C139 167, 129 177, 129 197   C129 217, 139 227, 159 227   C179 227, 189 217, 189 197  Z " fill="black"/></svg>

  </svg>