<?xml version="1.0" encoding="UTF-8" standalone="no"?><svg xmlns="http://www.w3.org/2000/svg" id="montage">
    <svg id="ear"/>
    <circle id="countor" stroke="black" cx="250" cy="250" r="200" stroke-width="3" fill="white"/>
    <svg id="mouth"><path stroke="black" stroke-width="1" d="M140 376 C112 352, 388 352, 360 376   M140 376 C120 412, 380 412, 360 376" fill="white"/></svg>
    <svg id="eye"><path stroke="black" stroke-width="1" d="M287.5 198 C287.5 167, 359.5 164, 391.5 164   C419.5 164, 426.5 107, 426.5 165   C426.5 211, 388.5 291, 333.5 291   C317.5 291, 287.5 236, 287.5 198  Z " fill="white"/><path stroke="black" stroke-width="1" d="M212.5 198 C212.5 167, 140.5 164, 108.5 164   C80.5 164, 73.5 107, 73.5 165   C73.5 211, 111.5 291, 166.5 291   C182.5 291, 212.5 236, 212.5 198  Z " fill="white"/><path stroke="black" stroke-width="0" d="M319.5 212 C319.5 192, 329.5 182, 349.5 182   C369.5 182, 379.5 192, 379.5 212   C379.5 232, 369.5 242, 349.5 242   C329.5 242, 319.5 232, 319.5 212  Z " fill="black"/><path stroke="black" stroke-width="0" d="M180.5 212 C180.5 192, 170.5 182, 150.5 182   C130.5 182, 120.5 192, 120.5 212   C120.5 232, 130.5 242, 150.5 242   C170.5 242, 180.5 232, 180.5 212  Z " fill="black"/></svg>

  </svg>