<?xml version="1.0" encoding="UTF-8" standalone="no"?><svg xmlns="http://www.w3.org/2000/svg" id="montage">
    <svg id="ear"/>
    <circle id="countor" stroke="black" cx="250" cy="250" r="200" stroke-width="3" fill="white"/>
    <svg id="mouth"><path stroke="black" stroke-width="1" d="M190 347 C144 394, 356 394, 310 347   M190 347 C56 393, 444 393, 310 347" fill="white"/></svg>
    <svg id="eye"><path stroke="black" stroke-width="1" d="M304.5 143 C304.5 84, 291.5 84, 303.5 84   C324.5 84, 435.5 129, 435.5 139   C435.5 185, 360.5 247, 334.5 247   C322.5 247, 304.5 203, 304.5 143  Z " fill="white"/><path stroke="black" stroke-width="1" d="M195.5 143 C195.5 84, 208.5 84, 196.5 84   C175.5 84, 64.5 129, 64.5 139   C64.5 185, 139.5 247, 165.5 247   C177.5 247, 195.5 203, 195.5 143  Z " fill="white"/><path stroke="black" stroke-width="0" d="M317.5 180 C317.5 160, 327.5 150, 347.5 150   C367.5 150, 377.5 160, 377.5 180   C377.5 200, 367.5 210, 347.5 210   C327.5 210, 317.5 200, 317.5 180  Z " fill="black"/><path stroke="black" stroke-width="0" d="M182.5 180 C182.5 160, 172.5 150, 152.5 150   C132.5 150, 122.5 160, 122.5 180   C122.5 200, 132.5 210, 152.5 210   C172.5 210, 182.5 200, 182.5 180  Z " fill="black"/></svg>

  </svg>