<?xml version="1.0" encoding="UTF-8" standalone="no"?><svg xmlns="http://www.w3.org/2000/svg" id="montage">
    <svg id="ear"/>
    <circle id="countor" stroke="black" cx="250" cy="250" r="200" stroke-width="3" fill="white"/>
    <svg id="mouth"><path stroke="black" stroke-width="1" d="M174 284 C219 234, 281 234, 326 284   M174 284 C136 170, 364 170, 326 284" fill="white"/></svg>
    <svg id="eye"><path stroke="black" stroke-width="1" d="M305 231 C305 191, 275 147, 297 147   C323 147, 456 229, 456 241   C456 294, 368 333, 352 333   C273 333, 305 266, 305 231  Z " fill="white"/><path stroke="black" stroke-width="1" d="M195 231 C195 191, 225 147, 203 147   C177 147, 44 229, 44 241   C44 294, 132 333, 148 333   C227 333, 195 266, 195 231  Z " fill="white"/><path stroke="black" stroke-width="0" d="M312 215 C312 195, 322 185, 342 185   C362 185, 372 195, 372 215   C372 235, 362 245, 342 245   C322 245, 312 235, 312 215  Z " fill="black"/><path stroke="black" stroke-width="0" d="M188 215 C188 195, 178 185, 158 185   C138 185, 128 195, 128 215   C128 235, 138 245, 158 245   C178 245, 188 235, 188 215  Z " fill="black"/></svg>

  </svg>