<?xml version="1.0" encoding="UTF-8" standalone="no"?><svg xmlns="http://www.w3.org/2000/svg" id="montage">
    <svg id="ear"/>
    <circle id="countor" stroke="black" cx="250" cy="250" r="200" stroke-width="3" fill="white"/>
    <svg id="mouth"><path stroke="black" stroke-width="1" d="M185.5 336 C180.5 342, 319.5 342, 314.5 336   M185.5 336 C317.5 467, 182.5 467, 314.5 336" fill="white"/></svg>
    <svg id="eye"><path stroke="black" stroke-width="1" d="M257 155 C257 141, 293 99, 353 99   C421 99, 408 144, 408 201   C408 213, 373 279, 355 279   C284 279, 257 189, 257 155  Z " fill="white"/><path stroke="black" stroke-width="1" d="M243 155 C243 141, 207 99, 147 99   C79 99, 92 144, 92 201   C92 213, 127 279, 145 279   C216 279, 243 189, 243 155  Z " fill="white"/><path stroke="black" stroke-width="0" d="M319 185 C319 165, 329 155, 349 155   C369 155, 379 165, 379 185   C379 205, 369 215, 349 215   C329 215, 319 205, 319 185  Z " fill="black"/><path stroke="black" stroke-width="0" d="M181 185 C181 165, 171 155, 151 155   C131 155, 121 165, 121 185   C121 205, 131 215, 151 215   C171 215, 181 205, 181 185  Z " fill="black"/></svg>

  </svg>