<?xml version="1.0" encoding="UTF-8" standalone="no"?><svg xmlns="http://www.w3.org/2000/svg" id="montage">
    <svg id="ear"/>
    <circle id="countor" stroke="black" cx="250" cy="250" r="200" stroke-width="3" fill="white"/>
    <svg id="mouth"><path stroke="black" stroke-width="1" d="M172.5 395 C195.5 417, 304.5 417, 327.5 395   M172.5 395 C60.5 444, 439.5 444, 327.5 395" fill="white"/></svg>
    <svg id="eye"><path stroke="black" stroke-width="1" d="M288 192 C288 113, 257 102, 335 102   C353 102, 411 194, 411 222   C411 283, 411 246, 358 246   C328 246, 288 268, 288 192  Z " fill="white"/><path stroke="black" stroke-width="1" d="M212 192 C212 113, 243 102, 165 102   C147 102, 89 194, 89 222   C89 283, 89 246, 142 246   C172 246, 212 268, 212 192  Z " fill="white"/><path stroke="black" stroke-width="0" d="M310 197 C310 177, 320 167, 340 167   C360 167, 370 177, 370 197   C370 217, 360 227, 340 227   C320 227, 310 217, 310 197  Z " fill="black"/><path stroke="black" stroke-width="0" d="M190 197 C190 177, 180 167, 160 167   C140 167, 130 177, 130 197   C130 217, 140 227, 160 227   C180 227, 190 217, 190 197  Z " fill="black"/></svg>

  </svg>