<?xml version="1.0" encoding="UTF-8" standalone="no"?><svg xmlns="http://www.w3.org/2000/svg" id="montage">
    <svg id="ear"/>
    <circle id="countor" stroke="black" cx="250" cy="250" r="200" stroke-width="3" fill="white"/>
    <svg id="mouth"><path stroke="black" stroke-width="1" d="M197.5 272 C175.5 245, 324.5 245, 302.5 272   M197.5 272 C142.5 255, 357.5 255, 302.5 272" fill="white"/></svg>
    <svg id="eye"><path stroke="black" stroke-width="1" d="M251.5 125 C251.5 50, 312.5 92, 365.5 92   C434.5 92, 383.5 152, 383.5 193   C383.5 222, 399.5 210, 351.5 210   C321.5 210, 251.5 203, 251.5 125  Z " fill="white"/><path stroke="black" stroke-width="1" d="M248.5 125 C248.5 50, 187.5 92, 134.5 92   C65.5 92, 116.5 152, 116.5 193   C116.5 222, 100.5 210, 148.5 210   C178.5 210, 248.5 203, 248.5 125  Z " fill="white"/><path stroke="black" stroke-width="0" d="M311.5 169 C311.5 149, 321.5 139, 341.5 139   C361.5 139, 371.5 149, 371.5 169   C371.5 189, 361.5 199, 341.5 199   C321.5 199, 311.5 189, 311.5 169  Z " fill="black"/><path stroke="black" stroke-width="0" d="M188.5 169 C188.5 149, 178.5 139, 158.5 139   C138.5 139, 128.5 149, 128.5 169   C128.5 189, 138.5 199, 158.5 199   C178.5 199, 188.5 189, 188.5 169  Z " fill="black"/></svg>

  </svg>