<?xml version="1.0" encoding="UTF-8" standalone="no"?><svg xmlns="http://www.w3.org/2000/svg" id="montage">
    <svg id="ear"/>
    <circle id="countor" stroke="black" cx="250" cy="250" r="200" stroke-width="3" fill="white"/>
    <svg id="mouth"><path stroke="black" stroke-width="1" d="M183.5 418 C198.5 431, 301.5 431, 316.5 418   M183.5 418 C40.5 451, 459.5 451, 316.5 418" fill="white"/></svg>
    <svg id="eye"><path stroke="black" stroke-width="1" d="M238 153 C238 73, 237 128, 313 128   C388 128, 442 206, 442 221   C442 250, 392 285, 381 285   C304 285, 238 220, 238 153  Z " fill="white"/><path stroke="black" stroke-width="1" d="M262 153 C262 73, 263 128, 187 128   C112 128, 58 206, 58 221   C58 250, 108 285, 119 285   C196 285, 262 220, 262 153  Z " fill="white"/><path stroke="black" stroke-width="0" d="M318 189 C318 169, 328 159, 348 159   C368 159, 378 169, 378 189   C378 209, 368 219, 348 219   C328 219, 318 209, 318 189  Z " fill="black"/><path stroke="black" stroke-width="0" d="M182 189 C182 169, 172 159, 152 159   C132 159, 122 169, 122 189   C122 209, 132 219, 152 219   C172 219, 182 209, 182 189  Z " fill="black"/></svg>

  </svg>