<?xml version="1.0" encoding="UTF-8" standalone="no"?><svg xmlns="http://www.w3.org/2000/svg" id="montage">
    <svg id="ear"/>
    <circle id="countor" stroke="black" cx="250" cy="250" r="200" stroke-width="3" fill="white"/>
    <svg id="mouth"><path stroke="black" stroke-width="1" d="M190 429 C159 449, 341 449, 310 429   M190 429 C335 388, 165 388, 310 429" fill="white"/></svg>
    <svg id="eye"><path stroke="black" stroke-width="1" d="M222.5 118 C222.5 60, 298.5 56, 365.5 56   C376.5 56, 400.5 109, 400.5 171   C400.5 182, 398.5 238, 342.5 238   C273.5 238, 222.5 132, 222.5 118  Z " fill="white"/><path stroke="black" stroke-width="1" d="M277.5 118 C277.5 60, 201.5 56, 134.5 56   C123.5 56, 99.5 109, 99.5 171   C99.5 182, 101.5 238, 157.5 238   C226.5 238, 277.5 132, 277.5 118  Z " fill="white"/><path stroke="black" stroke-width="0" d="M312.5 155 C312.5 135, 322.5 125, 342.5 125   C362.5 125, 372.5 135, 372.5 155   C372.5 175, 362.5 185, 342.5 185   C322.5 185, 312.5 175, 312.5 155  Z " fill="black"/><path stroke="black" stroke-width="0" d="M187.5 155 C187.5 135, 177.5 125, 157.5 125   C137.5 125, 127.5 135, 127.5 155   C127.5 175, 137.5 185, 157.5 185   C177.5 185, 187.5 175, 187.5 155  Z " fill="black"/></svg>

  </svg>