<?xml version="1.0" encoding="UTF-8" standalone="no"?><svg xmlns="http://www.w3.org/2000/svg" id="montage">
    <svg id="ear"/>
    <circle id="countor" stroke="black" cx="250" cy="250" r="200" stroke-width="3" fill="white"/>
    <svg id="mouth"><path stroke="black" stroke-width="1" d="M236 403 C246 377, 254 377, 264 403   M236 403 C339 536, 161 536, 264 403" fill="white"/></svg>
    <svg id="eye"><path stroke="black" stroke-width="1" d="M242.5 213 C242.5 164, 300.5 144, 380.5 144   C455.5 144, 435.5 115, 435.5 147   C435.5 163, 384.5 235, 330.5 235   C260.5 235, 242.5 223, 242.5 213  Z " fill="white"/><path stroke="black" stroke-width="1" d="M257.5 213 C257.5 164, 199.5 144, 119.5 144   C44.5 144, 64.5 115, 64.5 147   C64.5 163, 115.5 235, 169.5 235   C239.5 235, 257.5 223, 257.5 213  Z " fill="white"/><path stroke="black" stroke-width="0" d="M311.5 185 C311.5 165, 321.5 155, 341.5 155   C361.5 155, 371.5 165, 371.5 185   C371.5 205, 361.5 215, 341.5 215   C321.5 215, 311.5 205, 311.5 185  Z " fill="black"/><path stroke="black" stroke-width="0" d="M188.5 185 C188.5 165, 178.5 155, 158.5 155   C138.5 155, 128.5 165, 128.5 185   C128.5 205, 138.5 215, 158.5 215   C178.5 215, 188.5 205, 188.5 185  Z " fill="black"/></svg>

  </svg>