<?xml version="1.0" encoding="UTF-8" standalone="no"?><svg xmlns="http://www.w3.org/2000/svg" id="montage">
    <svg id="ear"/>
    <circle id="countor" stroke="black" cx="250" cy="250" r="200" stroke-width="3" fill="white"/>
    <svg id="mouth"><path stroke="black" stroke-width="1" d="M230 325 C214 356, 286 356, 270 325   M230 325 C336 411, 164 411, 270 325" fill="white"/></svg>
    <svg id="eye"><path stroke="black" stroke-width="1" d="M245.5 195 C245.5 178, 272.5 77, 328.5 77   C391.5 77, 446.5 67, 446.5 124   C446.5 166, 396.5 240, 341.5 240   C283.5 240, 245.5 215, 245.5 195  Z " fill="white"/><path stroke="black" stroke-width="1" d="M254.5 195 C254.5 178, 227.5 77, 171.5 77   C108.5 77, 53.5 67, 53.5 124   C53.5 166, 103.5 240, 158.5 240   C216.5 240, 254.5 215, 254.5 195  Z " fill="white"/><path stroke="black" stroke-width="0" d="M313.5 158 C313.5 138, 323.5 128, 343.5 128   C363.5 128, 373.5 138, 373.5 158   C373.5 178, 363.5 188, 343.5 188   C323.5 188, 313.5 178, 313.5 158  Z " fill="black"/><path stroke="black" stroke-width="0" d="M186.5 158 C186.5 138, 176.5 128, 156.5 128   C136.5 128, 126.5 138, 126.5 158   C126.5 178, 136.5 188, 156.5 188   C176.5 188, 186.5 178, 186.5 158  Z " fill="black"/></svg>

  </svg>