<?xml version="1.0" encoding="UTF-8" standalone="no"?><svg xmlns="http://www.w3.org/2000/svg" id="montage">
    <svg id="ear"/>
    <circle id="countor" stroke="black" cx="250" cy="250" r="200" stroke-width="3" fill="white"/>
    <svg id="mouth"><path stroke="black" stroke-width="1" d="M197.5 365 C178.5 351, 321.5 351, 302.5 365   M197.5 365 C265.5 253, 234.5 253, 302.5 365" fill="white"/></svg>
    <svg id="eye"><path stroke="black" stroke-width="1" d="M256.5 181 C256.5 108, 254.5 155, 324.5 155   C363.5 155, 424.5 175, 424.5 242   C424.5 299, 405.5 280, 355.5 280   C294.5 280, 256.5 244, 256.5 181  Z " fill="white"/><path stroke="black" stroke-width="1" d="M243.5 181 C243.5 108, 245.5 155, 175.5 155   C136.5 155, 75.5 175, 75.5 242   C75.5 299, 94.5 280, 144.5 280   C205.5 280, 243.5 244, 243.5 181  Z " fill="white"/><path stroke="black" stroke-width="0" d="M310.5 212 C310.5 192, 320.5 182, 340.5 182   C360.5 182, 370.5 192, 370.5 212   C370.5 232, 360.5 242, 340.5 242   C320.5 242, 310.5 232, 310.5 212  Z " fill="black"/><path stroke="black" stroke-width="0" d="M189.5 212 C189.5 192, 179.5 182, 159.5 182   C139.5 182, 129.5 192, 129.5 212   C129.5 232, 139.5 242, 159.5 242   C179.5 242, 189.5 232, 189.5 212  Z " fill="black"/></svg>

  </svg>