<?xml version="1.0" encoding="UTF-8" standalone="no"?><svg xmlns="http://www.w3.org/2000/svg" id="montage">
    <svg id="ear"/>
    <circle id="countor" stroke="black" cx="250" cy="250" r="200" stroke-width="3" fill="white"/>
    <svg id="mouth"><path stroke="black" stroke-width="1" d="M155 386 C191 372, 309 372, 345 386   M155 386 C189 446, 311 446, 345 386" fill="white"/></svg>
    <svg id="eye"><path stroke="black" stroke-width="1" d="M248.5 190 C248.5 146, 327.5 128, 370.5 128   C418.5 128, 390.5 180, 390.5 250   C390.5 293, 350.5 272, 317.5 272   C289.5 272, 248.5 243, 248.5 190  Z " fill="white"/><path stroke="black" stroke-width="1" d="M251.5 190 C251.5 146, 172.5 128, 129.5 128   C81.5 128, 109.5 180, 109.5 250   C109.5 293, 149.5 272, 182.5 272   C210.5 272, 251.5 243, 251.5 190  Z " fill="white"/><path stroke="black" stroke-width="0" d="M317.5 208 C317.5 188, 327.5 178, 347.5 178   C367.5 178, 377.5 188, 377.5 208   C377.5 228, 367.5 238, 347.5 238   C327.5 238, 317.5 228, 317.5 208  Z " fill="black"/><path stroke="black" stroke-width="0" d="M182.5 208 C182.5 188, 172.5 178, 152.5 178   C132.5 178, 122.5 188, 122.5 208   C122.5 228, 132.5 238, 152.5 238   C172.5 238, 182.5 228, 182.5 208  Z " fill="black"/></svg>

  </svg>