<?xml version="1.0" encoding="UTF-8" standalone="no"?><svg xmlns="http://www.w3.org/2000/svg" id="montage">
    <svg id="ear"/>
    <circle id="countor" stroke="black" cx="250" cy="250" r="200" stroke-width="3" fill="white"/>
    <svg id="mouth"><path stroke="black" stroke-width="1" d="M223 384 C180 359, 320 359, 277 384   M223 384 C316 268, 184 268, 277 384" fill="white"/></svg>
    <svg id="eye"><path stroke="black" stroke-width="1" d="M296 154 C296 78, 313 116, 391 116   C430 116, 458 179, 458 218   C458 287, 462 295, 384 295   C320 295, 296 171, 296 154  Z " fill="white"/><path stroke="black" stroke-width="1" d="M204 154 C204 78, 187 116, 109 116   C70 116, 42 179, 42 218   C42 287, 38 295, 116 295   C180 295, 204 171, 204 154  Z " fill="white"/><path stroke="black" stroke-width="0" d="M317 188 C317 168, 327 158, 347 158   C367 158, 377 168, 377 188   C377 208, 367 218, 347 218   C327 218, 317 208, 317 188  Z " fill="black"/><path stroke="black" stroke-width="0" d="M183 188 C183 168, 173 158, 153 158   C133 158, 123 168, 123 188   C123 208, 133 218, 153 218   C173 218, 183 208, 183 188  Z " fill="black"/></svg>

  </svg>