<?xml version="1.0" encoding="UTF-8" standalone="no"?><svg xmlns="http://www.w3.org/2000/svg" id="montage">
    <svg id="ear"/>
    <circle id="countor" stroke="black" cx="250" cy="250" r="200" stroke-width="3" fill="white"/>
    <svg id="mouth"><path stroke="black" stroke-width="1" d="M132 291 C174 263, 326 263, 368 291   M132 291 C133 233, 367 233, 368 291" fill="white"/></svg>
    <svg id="eye"><path stroke="black" stroke-width="1" d="M245.5 251 C245.5 179, 310.5 152, 388.5 152   C400.5 152, 381.5 171, 381.5 236   C381.5 248, 386.5 307, 350.5 307   C314.5 307, 245.5 329, 245.5 251  Z " fill="white"/><path stroke="black" stroke-width="1" d="M254.5 251 C254.5 179, 189.5 152, 111.5 152   C99.5 152, 118.5 171, 118.5 236   C118.5 248, 113.5 307, 149.5 307   C185.5 307, 254.5 329, 254.5 251  Z " fill="white"/><path stroke="black" stroke-width="0" d="M312.5 222 C312.5 202, 322.5 192, 342.5 192   C362.5 192, 372.5 202, 372.5 222   C372.5 242, 362.5 252, 342.5 252   C322.5 252, 312.5 242, 312.5 222  Z " fill="black"/><path stroke="black" stroke-width="0" d="M187.5 222 C187.5 202, 177.5 192, 157.5 192   C137.5 192, 127.5 202, 127.5 222   C127.5 242, 137.5 252, 157.5 252   C177.5 252, 187.5 242, 187.5 222  Z " fill="black"/></svg>

  </svg>