<?xml version="1.0" encoding="UTF-8" standalone="no"?><svg xmlns="http://www.w3.org/2000/svg" id="montage">
    <svg id="ear"/>
    <circle id="countor" stroke="black" cx="250" cy="250" r="200" stroke-width="3" fill="white"/>
    <svg id="mouth"><path stroke="black" stroke-width="1" d="M216.5 372 C228.5 374, 271.5 374, 283.5 372   M216.5 372 C123.5 498, 376.5 498, 283.5 372" fill="white"/></svg>
    <svg id="eye"><path stroke="black" stroke-width="1" d="M267.5 113 C267.5 58, 315.5 52, 332.5 52   C400.5 52, 389.5 99, 389.5 139   C389.5 210, 386.5 273, 327.5 273   C257.5 273, 267.5 129, 267.5 113  Z " fill="white"/><path stroke="black" stroke-width="1" d="M232.5 113 C232.5 58, 184.5 52, 167.5 52   C99.5 52, 110.5 99, 110.5 139   C110.5 210, 113.5 273, 172.5 273   C242.5 273, 232.5 129, 232.5 113  Z " fill="white"/><path stroke="black" stroke-width="0" d="M315.5 162 C315.5 142, 325.5 132, 345.5 132   C365.5 132, 375.5 142, 375.5 162   C375.5 182, 365.5 192, 345.5 192   C325.5 192, 315.5 182, 315.5 162  Z " fill="black"/><path stroke="black" stroke-width="0" d="M184.5 162 C184.5 142, 174.5 132, 154.5 132   C134.5 132, 124.5 142, 124.5 162   C124.5 182, 134.5 192, 154.5 192   C174.5 192, 184.5 182, 184.5 162  Z " fill="black"/></svg>

  </svg>