<?xml version="1.0" encoding="UTF-8" standalone="no"?><svg xmlns="http://www.w3.org/2000/svg" id="montage">
    <svg id="ear"/>
    <circle id="countor" stroke="black" cx="250" cy="250" r="200" stroke-width="3" fill="white"/>
    <svg id="mouth"><path stroke="black" stroke-width="1" d="M228 407 C277 430, 223 430, 272 407   M228 407 C173 381, 327 381, 272 407" fill="white"/></svg>
    <svg id="eye"><path stroke="black" stroke-width="1" d="M250.5 251 C250.5 235, 287.5 136, 350.5 136   C430.5 136, 444.5 150, 444.5 167   C444.5 243, 393.5 323, 373.5 323   C341.5 323, 250.5 296, 250.5 251  Z " fill="white"/><path stroke="black" stroke-width="1" d="M249.5 251 C249.5 235, 212.5 136, 149.5 136   C69.5 136, 55.5 150, 55.5 167   C55.5 243, 106.5 323, 126.5 323   C158.5 323, 249.5 296, 249.5 251  Z " fill="white"/><path stroke="black" stroke-width="0" d="M313.5 215 C313.5 195, 323.5 185, 343.5 185   C363.5 185, 373.5 195, 373.5 215   C373.5 235, 363.5 245, 343.5 245   C323.5 245, 313.5 235, 313.5 215  Z " fill="black"/><path stroke="black" stroke-width="0" d="M186.5 215 C186.5 195, 176.5 185, 156.5 185   C136.5 185, 126.5 195, 126.5 215   C126.5 235, 136.5 245, 156.5 245   C176.5 245, 186.5 235, 186.5 215  Z " fill="black"/></svg>

  </svg>