<?xml version="1.0" encoding="UTF-8" standalone="no"?><svg xmlns="http://www.w3.org/2000/svg" id="montage">
    <svg id="ear"/>
    <circle id="countor" stroke="black" cx="250" cy="250" r="200" stroke-width="3" fill="white"/>
    <svg id="mouth"><path stroke="black" stroke-width="1" d="M130 332 C148 380, 352 380, 370 332   M130 332 C162 475, 338 475, 370 332" fill="white"/></svg>
    <svg id="eye"><path stroke="black" stroke-width="1" d="M239 236 C239 202, 294 175, 343 175   C382 175, 447 126, 447 185   C447 229, 442 315, 370 315   C323 315, 239 253, 239 236  Z " fill="white"/><path stroke="black" stroke-width="1" d="M261 236 C261 202, 206 175, 157 175   C118 175, 53 126, 53 185   C53 229, 58 315, 130 315   C177 315, 261 253, 261 236  Z " fill="white"/><path stroke="black" stroke-width="0" d="M317 216 C317 196, 327 186, 347 186   C367 186, 377 196, 377 216   C377 236, 367 246, 347 246   C327 246, 317 236, 317 216  Z " fill="black"/><path stroke="black" stroke-width="0" d="M183 216 C183 196, 173 186, 153 186   C133 186, 123 196, 123 216   C123 236, 133 246, 153 246   C173 246, 183 236, 183 216  Z " fill="black"/></svg>

  </svg>