<?xml version="1.0" encoding="UTF-8" standalone="no"?><svg xmlns="http://www.w3.org/2000/svg" id="montage">
    <svg id="ear"/>
    <circle id="countor" stroke="black" cx="250" cy="250" r="200" stroke-width="3" fill="white"/>
    <svg id="mouth"><path stroke="black" stroke-width="1" d="M194 367 C210 348, 290 348, 306 367   M194 367 C282 388, 218 388, 306 367" fill="white"/></svg>
    <svg id="eye"><path stroke="black" stroke-width="1" d="M285.5 190 C285.5 159, 280.5 111, 327.5 111   C349.5 111, 402.5 152, 402.5 196   C402.5 276, 349.5 319, 320.5 319   C292.5 319, 285.5 246, 285.5 190  Z " fill="white"/><path stroke="black" stroke-width="1" d="M214.5 190 C214.5 159, 219.5 111, 172.5 111   C150.5 111, 97.5 152, 97.5 196   C97.5 276, 150.5 319, 179.5 319   C207.5 319, 214.5 246, 214.5 190  Z " fill="white"/><path stroke="black" stroke-width="0" d="M319.5 222 C319.5 202, 329.5 192, 349.5 192   C369.5 192, 379.5 202, 379.5 222   C379.5 242, 369.5 252, 349.5 252   C329.5 252, 319.5 242, 319.5 222  Z " fill="black"/><path stroke="black" stroke-width="0" d="M180.5 222 C180.5 202, 170.5 192, 150.5 192   C130.5 192, 120.5 202, 120.5 222   C120.5 242, 130.5 252, 150.5 252   C170.5 252, 180.5 242, 180.5 222  Z " fill="black"/></svg>

  </svg>