<?xml version="1.0" encoding="UTF-8" standalone="no"?><svg xmlns="http://www.w3.org/2000/svg" id="montage">
    <svg id="ear"/>
    <circle id="countor" stroke="black" cx="250" cy="250" r="200" stroke-width="3" fill="white"/>
    <svg id="mouth"><path stroke="black" stroke-width="1" d="M138 272 C110 259, 390 259, 362 272   M138 272 C95 324, 405 324, 362 272" fill="white"/></svg>
    <svg id="eye"><path stroke="black" stroke-width="1" d="M305 177 C305 107, 330 124, 362 124   C398 124, 465 76, 465 154   C465 225, 437 268, 367 268   C350 268, 305 205, 305 177  Z " fill="white"/><path stroke="black" stroke-width="1" d="M195 177 C195 107, 170 124, 138 124   C102 124, 35 76, 35 154   C35 225, 63 268, 133 268   C150 268, 195 205, 195 177  Z " fill="white"/><path stroke="black" stroke-width="0" d="M319 201 C319 181, 329 171, 349 171   C369 171, 379 181, 379 201   C379 221, 369 231, 349 231   C329 231, 319 221, 319 201  Z " fill="black"/><path stroke="black" stroke-width="0" d="M181 201 C181 181, 171 171, 151 171   C131 171, 121 181, 121 201   C121 221, 131 231, 151 231   C171 231, 181 221, 181 201  Z " fill="black"/></svg>

  </svg>