<?xml version="1.0" encoding="UTF-8" standalone="no"?><svg xmlns="http://www.w3.org/2000/svg" id="montage">
    <svg id="ear"/>
    <circle id="countor" stroke="black" cx="250" cy="250" r="200" stroke-width="3" fill="white"/>
    <svg id="mouth"><path stroke="black" stroke-width="1" d="M227 339 C182 352, 318 352, 273 339   M227 339 C363 232, 137 232, 273 339" fill="white"/></svg>
    <svg id="eye"><path stroke="black" stroke-width="1" d="M278.5 129 C278.5 71, 266.5 51, 308.5 51   C343.5 51, 438.5 145, 438.5 183   C438.5 216, 443.5 270, 375.5 270   C347.5 270, 278.5 209, 278.5 129  Z " fill="white"/><path stroke="black" stroke-width="1" d="M221.5 129 C221.5 71, 233.5 51, 191.5 51   C156.5 51, 61.5 145, 61.5 183   C61.5 216, 56.5 270, 124.5 270   C152.5 270, 221.5 209, 221.5 129  Z " fill="white"/><path stroke="black" stroke-width="0" d="M310.5 156 C310.5 136, 320.5 126, 340.5 126   C360.5 126, 370.5 136, 370.5 156   C370.5 176, 360.5 186, 340.5 186   C320.5 186, 310.5 176, 310.5 156  Z " fill="black"/><path stroke="black" stroke-width="0" d="M189.5 156 C189.5 136, 179.5 126, 159.5 126   C139.5 126, 129.5 136, 129.5 156   C129.5 176, 139.5 186, 159.5 186   C179.5 186, 189.5 176, 189.5 156  Z " fill="black"/></svg>

  </svg>