<?xml version="1.0" encoding="UTF-8" standalone="no"?><svg xmlns="http://www.w3.org/2000/svg" id="montage">
    <svg id="ear"/>
    <circle id="countor" stroke="black" cx="250" cy="250" r="200" stroke-width="3" fill="white"/>
    <svg id="mouth"><path stroke="black" stroke-width="1" d="M136.5 294 C186.5 282, 313.5 282, 363.5 294   M136.5 294 C250.5 199, 249.5 199, 363.5 294" fill="white"/></svg>
    <svg id="eye"><path stroke="black" stroke-width="1" d="M271.5 204 C271.5 139, 305.5 101, 366.5 101   C404.5 101, 432.5 176, 432.5 225   C432.5 286, 339.5 261, 324.5 261   C287.5 261, 271.5 214, 271.5 204  Z " fill="white"/><path stroke="black" stroke-width="1" d="M228.5 204 C228.5 139, 194.5 101, 133.5 101   C95.5 101, 67.5 176, 67.5 225   C67.5 286, 160.5 261, 175.5 261   C212.5 261, 228.5 214, 228.5 204  Z " fill="white"/><path stroke="black" stroke-width="0" d="M318.5 190 C318.5 170, 328.5 160, 348.5 160   C368.5 160, 378.5 170, 378.5 190   C378.5 210, 368.5 220, 348.5 220   C328.5 220, 318.5 210, 318.5 190  Z " fill="black"/><path stroke="black" stroke-width="0" d="M181.5 190 C181.5 170, 171.5 160, 151.5 160   C131.5 160, 121.5 170, 121.5 190   C121.5 210, 131.5 220, 151.5 220   C171.5 220, 181.5 210, 181.5 190  Z " fill="black"/></svg>

  </svg>