<?xml version="1.0" encoding="UTF-8" standalone="no"?><svg xmlns="http://www.w3.org/2000/svg" id="montage">
    <svg id="ear"/>
    <circle id="countor" stroke="black" cx="250" cy="250" r="200" stroke-width="3" fill="white"/>
    <svg id="mouth"><path stroke="black" stroke-width="1" d="M154.5 302 C183.5 314, 316.5 314, 345.5 302   M154.5 302 C242.5 234, 257.5 234, 345.5 302" fill="white"/></svg>
    <svg id="eye"><path stroke="black" stroke-width="1" d="M304.5 143 C304.5 101, 331.5 148, 391.5 148   C460.5 148, 420.5 182, 420.5 216   C420.5 293, 384.5 247, 312.5 247   C233.5 247, 304.5 175, 304.5 143  Z " fill="white"/><path stroke="black" stroke-width="1" d="M195.5 143 C195.5 101, 168.5 148, 108.5 148   C39.5 148, 79.5 182, 79.5 216   C79.5 293, 115.5 247, 187.5 247   C266.5 247, 195.5 175, 195.5 143  Z " fill="white"/><path stroke="black" stroke-width="0" d="M312.5 190 C312.5 170, 322.5 160, 342.5 160   C362.5 160, 372.5 170, 372.5 190   C372.5 210, 362.5 220, 342.5 220   C322.5 220, 312.5 210, 312.5 190  Z " fill="black"/><path stroke="black" stroke-width="0" d="M187.5 190 C187.5 170, 177.5 160, 157.5 160   C137.5 160, 127.5 170, 127.5 190   C127.5 210, 137.5 220, 157.5 220   C177.5 220, 187.5 210, 187.5 190  Z " fill="black"/></svg>

  </svg>