<?xml version="1.0" encoding="UTF-8" standalone="no"?><svg xmlns="http://www.w3.org/2000/svg" id="montage">
    <svg id="ear"/>
    <circle id="countor" stroke="black" cx="250" cy="250" r="200" stroke-width="3" fill="white"/>
    <svg id="mouth"><path stroke="black" stroke-width="1" d="M222.5 391 C208.5 408, 291.5 408, 277.5 391   M222.5 391 C143.5 449, 356.5 449, 277.5 391" fill="white"/></svg>
    <svg id="eye"><path stroke="black" stroke-width="1" d="M228.5 186 C228.5 119, 282.5 195, 316.5 195   C345.5 195, 379.5 220, 379.5 258   C379.5 322, 373.5 319, 319.5 319   C300.5 319, 228.5 204, 228.5 186  Z " fill="white"/><path stroke="black" stroke-width="1" d="M271.5 186 C271.5 119, 217.5 195, 183.5 195   C154.5 195, 120.5 220, 120.5 258   C120.5 322, 126.5 319, 180.5 319   C199.5 319, 271.5 204, 271.5 186  Z " fill="white"/><path stroke="black" stroke-width="0" d="M313.5 230 C313.5 210, 323.5 200, 343.5 200   C363.5 200, 373.5 210, 373.5 230   C373.5 250, 363.5 260, 343.5 260   C323.5 260, 313.5 250, 313.5 230  Z " fill="black"/><path stroke="black" stroke-width="0" d="M186.5 230 C186.5 210, 176.5 200, 156.5 200   C136.5 200, 126.5 210, 126.5 230   C126.5 250, 136.5 260, 156.5 260   C176.5 260, 186.5 250, 186.5 230  Z " fill="black"/></svg>

  </svg>