<?xml version="1.0" encoding="UTF-8" standalone="no"?><svg xmlns="http://www.w3.org/2000/svg" id="montage">
    <svg id="ear"/>
    <circle id="countor" stroke="black" cx="250" cy="250" r="200" stroke-width="3" fill="white"/>
    <svg id="mouth"><path stroke="black" stroke-width="1" d="M148.5 304 C146.5 336, 353.5 336, 351.5 304   M148.5 304 C70.5 287, 429.5 287, 351.5 304" fill="white"/></svg>
    <svg id="eye"><path stroke="black" stroke-width="1" d="M229.5 166 C229.5 156, 318.5 108, 375.5 108   C436.5 108, 387.5 186, 387.5 204   C387.5 282, 372.5 253, 298.5 253   C279.5 253, 229.5 198, 229.5 166  Z " fill="white"/><path stroke="black" stroke-width="1" d="M270.5 166 C270.5 156, 181.5 108, 124.5 108   C63.5 108, 112.5 186, 112.5 204   C112.5 282, 127.5 253, 201.5 253   C220.5 253, 270.5 198, 270.5 166  Z " fill="white"/><path stroke="black" stroke-width="0" d="M318.5 188 C318.5 168, 328.5 158, 348.5 158   C368.5 158, 378.5 168, 378.5 188   C378.5 208, 368.5 218, 348.5 218   C328.5 218, 318.5 208, 318.5 188  Z " fill="black"/><path stroke="black" stroke-width="0" d="M181.5 188 C181.5 168, 171.5 158, 151.5 158   C131.5 158, 121.5 168, 121.5 188   C121.5 208, 131.5 218, 151.5 218   C171.5 218, 181.5 208, 181.5 188  Z " fill="black"/></svg>

  </svg>