<?xml version="1.0" encoding="UTF-8" standalone="no"?><svg xmlns="http://www.w3.org/2000/svg" id="montage">
    <svg id="ear"/>
    <circle id="countor" stroke="black" cx="250" cy="250" r="200" stroke-width="3" fill="white"/>
    <svg id="mouth"><path stroke="black" stroke-width="1" d="M197.5 340 C243.5 331, 256.5 331, 302.5 340   M197.5 340 C315.5 314, 184.5 314, 302.5 340" fill="white"/></svg>
    <svg id="eye"><path stroke="black" stroke-width="1" d="M234.5 185 C234.5 163, 290.5 123, 300.5 123   C340.5 123, 456.5 132, 456.5 150   C456.5 207, 388.5 268, 343.5 268   C291.5 268, 234.5 226, 234.5 185  Z " fill="white"/><path stroke="black" stroke-width="1" d="M265.5 185 C265.5 163, 209.5 123, 199.5 123   C159.5 123, 43.5 132, 43.5 150   C43.5 207, 111.5 268, 156.5 268   C208.5 268, 265.5 226, 265.5 185  Z " fill="white"/><path stroke="black" stroke-width="0" d="M313.5 162 C313.5 142, 323.5 132, 343.5 132   C363.5 132, 373.5 142, 373.5 162   C373.5 182, 363.5 192, 343.5 192   C323.5 192, 313.5 182, 313.5 162  Z " fill="black"/><path stroke="black" stroke-width="0" d="M186.5 162 C186.5 142, 176.5 132, 156.5 132   C136.5 132, 126.5 142, 126.5 162   C126.5 182, 136.5 192, 156.5 192   C176.5 192, 186.5 182, 186.5 162  Z " fill="black"/></svg>

  </svg>