<?xml version="1.0" encoding="UTF-8" standalone="no"?><svg xmlns="http://www.w3.org/2000/svg" id="montage">
    <svg id="ear"/>
    <circle id="countor" stroke="black" cx="250" cy="250" r="200" stroke-width="3" fill="white"/>
    <svg id="mouth"><path stroke="black" stroke-width="1" d="M230 319 C218 346, 282 346, 270 319   M230 319 C378 381, 122 381, 270 319" fill="white"/></svg>
    <svg id="eye"><path stroke="black" stroke-width="1" d="M238.5 204 C238.5 191, 329.5 65, 359.5 65   C419.5 65, 422.5 183, 422.5 199   C422.5 253, 389.5 217, 376.5 217   C305.5 217, 238.5 247, 238.5 204  Z " fill="white"/><path stroke="black" stroke-width="1" d="M261.5 204 C261.5 191, 170.5 65, 140.5 65   C80.5 65, 77.5 183, 77.5 199   C77.5 253, 110.5 217, 123.5 217   C194.5 217, 261.5 247, 261.5 204  Z " fill="white"/><path stroke="black" stroke-width="0" d="M315.5 174 C315.5 154, 325.5 144, 345.5 144   C365.5 144, 375.5 154, 375.5 174   C375.5 194, 365.5 204, 345.5 204   C325.5 204, 315.5 194, 315.5 174  Z " fill="black"/><path stroke="black" stroke-width="0" d="M184.5 174 C184.5 154, 174.5 144, 154.5 144   C134.5 144, 124.5 154, 124.5 174   C124.5 194, 134.5 204, 154.5 204   C174.5 204, 184.5 194, 184.5 174  Z " fill="black"/></svg>

  </svg>