<?xml version="1.0" encoding="UTF-8" standalone="no"?><svg xmlns="http://www.w3.org/2000/svg" id="montage">
    <svg id="ear"/>
    <circle id="countor" stroke="black" cx="250" cy="250" r="200" stroke-width="3" fill="white"/>
    <svg id="mouth"><path stroke="black" stroke-width="1" d="M123.5 321 C156.5 271, 343.5 271, 376.5 321   M123.5 321 C190.5 380, 309.5 380, 376.5 321" fill="white"/></svg>
    <svg id="eye"><path stroke="black" stroke-width="1" d="M268 204 C268 169, 309 88, 354 88   C374 88, 384 101, 384 150   C384 216, 418 293, 347 293   C323 293, 268 274, 268 204  Z " fill="white"/><path stroke="black" stroke-width="1" d="M232 204 C232 169, 191 88, 146 88   C126 88, 116 101, 116 150   C116 216, 82 293, 153 293   C177 293, 232 274, 232 204  Z " fill="white"/><path stroke="black" stroke-width="0" d="M311 193 C311 173, 321 163, 341 163   C361 163, 371 173, 371 193   C371 213, 361 223, 341 223   C321 223, 311 213, 311 193  Z " fill="black"/><path stroke="black" stroke-width="0" d="M189 193 C189 173, 179 163, 159 163   C139 163, 129 173, 129 193   C129 213, 139 223, 159 223   C179 223, 189 213, 189 193  Z " fill="black"/></svg>

  </svg>