<?xml version="1.0" encoding="UTF-8" standalone="no"?><svg xmlns="http://www.w3.org/2000/svg" id="montage">
    <svg id="ear"/>
    <circle id="countor" stroke="black" cx="250" cy="250" r="200" stroke-width="3" fill="white"/>
    <svg id="mouth"><path stroke="black" stroke-width="1" d="M229 369 C227 350, 273 350, 271 369   M229 369 C249 425, 251 425, 271 369" fill="white"/></svg>
    <svg id="eye"><path stroke="black" stroke-width="1" d="M259 187 C259 113, 320 104, 343 104   C408 104, 426 175, 426 213   C426 291, 348 285, 307 285   C270 285, 259 265, 259 187  Z " fill="white"/><path stroke="black" stroke-width="1" d="M241 187 C241 113, 180 104, 157 104   C92 104, 74 175, 74 213   C74 291, 152 285, 193 285   C230 285, 241 265, 241 187  Z " fill="white"/><path stroke="black" stroke-width="0" d="M313 170 C313 150, 323 140, 343 140   C363 140, 373 150, 373 170   C373 190, 363 200, 343 200   C323 200, 313 190, 313 170  Z " fill="black"/><path stroke="black" stroke-width="0" d="M187 170 C187 150, 177 140, 157 140   C137 140, 127 150, 127 170   C127 190, 137 200, 157 200   C177 200, 187 190, 187 170  Z " fill="black"/></svg>

  </svg>