<?xml version="1.0" encoding="UTF-8" standalone="no"?><svg xmlns="http://www.w3.org/2000/svg" id="montage">
    <svg id="ear"/>
    <circle id="countor" stroke="black" cx="250" cy="250" r="200" stroke-width="3" fill="white"/>
    <svg id="mouth"><path stroke="black" stroke-width="1" d="M140.5 311 C156.5 274, 343.5 274, 359.5 311   M140.5 311 C185.5 331, 314.5 331, 359.5 311" fill="white"/></svg>
    <svg id="eye"><path stroke="black" stroke-width="1" d="M282 193 C282 146, 259 92, 321 92   C376 92, 451 155, 451 196   C451 219, 320 246, 306 246   C284 246, 282 256, 282 193  Z " fill="white"/><path stroke="black" stroke-width="1" d="M218 193 C218 146, 241 92, 179 92   C124 92, 49 155, 49 196   C49 219, 180 246, 194 246   C216 246, 218 256, 218 193  Z " fill="white"/><path stroke="black" stroke-width="0" d="M310 151 C310 131, 320 121, 340 121   C360 121, 370 131, 370 151   C370 171, 360 181, 340 181   C320 181, 310 171, 310 151  Z " fill="black"/><path stroke="black" stroke-width="0" d="M190 151 C190 131, 180 121, 160 121   C140 121, 130 131, 130 151   C130 171, 140 181, 160 181   C180 181, 190 171, 190 151  Z " fill="black"/></svg>

  </svg>