<?xml version="1.0" encoding="UTF-8" standalone="no"?><svg xmlns="http://www.w3.org/2000/svg" id="montage">
    <svg id="ear"/>
    <circle id="countor" stroke="black" cx="250" cy="250" r="200" stroke-width="3" fill="white"/>
    <svg id="mouth"><path stroke="black" stroke-width="1" d="M158.5 271 C158.5 231, 341.5 231, 341.5 271   M158.5 271 C100.5 298, 399.5 298, 341.5 271" fill="white"/></svg>
    <svg id="eye"><path stroke="black" stroke-width="1" d="M295 90 C295 64, 223 90, 303 90   C323 90, 386 137, 386 147   C386 198, 367 250, 351 250   C320 250, 295 162, 295 90  Z " fill="white"/><path stroke="black" stroke-width="1" d="M205 90 C205 64, 277 90, 197 90   C177 90, 114 137, 114 147   C114 198, 133 250, 149 250   C180 250, 205 162, 205 90  Z " fill="white"/><path stroke="black" stroke-width="0" d="M310 138 C310 118, 320 108, 340 108   C360 108, 370 118, 370 138   C370 158, 360 168, 340 168   C320 168, 310 158, 310 138  Z " fill="black"/><path stroke="black" stroke-width="0" d="M190 138 C190 118, 180 108, 160 108   C140 108, 130 118, 130 138   C130 158, 140 168, 160 168   C180 168, 190 158, 190 138  Z " fill="black"/></svg>

  </svg>