<?xml version="1.0" encoding="UTF-8" standalone="no"?><svg xmlns="http://www.w3.org/2000/svg" id="montage">
    <svg id="ear"/>
    <circle id="countor" stroke="black" cx="250" cy="250" r="200" stroke-width="3" fill="white"/>
    <svg id="mouth"><path stroke="black" stroke-width="1" d="M219.5 324 C206.5 298, 293.5 298, 280.5 324   M219.5 324 C366.5 372, 133.5 372, 280.5 324" fill="white"/></svg>
    <svg id="eye"><path stroke="black" stroke-width="1" d="M259.5 239 C259.5 224, 285.5 122, 354.5 122   C370.5 122, 404.5 179, 404.5 247   C404.5 280, 377.5 267, 353.5 267   C324.5 267, 259.5 262, 259.5 239  Z " fill="white"/><path stroke="black" stroke-width="1" d="M240.5 239 C240.5 224, 214.5 122, 145.5 122   C129.5 122, 95.5 179, 95.5 247   C95.5 280, 122.5 267, 146.5 267   C175.5 267, 240.5 262, 240.5 239  Z " fill="white"/><path stroke="black" stroke-width="0" d="M316.5 199 C316.5 179, 326.5 169, 346.5 169   C366.5 169, 376.5 179, 376.5 199   C376.5 219, 366.5 229, 346.5 229   C326.5 229, 316.5 219, 316.5 199  Z " fill="black"/><path stroke="black" stroke-width="0" d="M183.5 199 C183.5 179, 173.5 169, 153.5 169   C133.5 169, 123.5 179, 123.5 199   C123.5 219, 133.5 229, 153.5 229   C173.5 229, 183.5 219, 183.5 199  Z " fill="black"/></svg>

  </svg>