<?xml version="1.0" encoding="UTF-8" standalone="no"?><svg xmlns="http://www.w3.org/2000/svg" id="montage">
    <svg id="ear"/>
    <circle id="countor" stroke="black" cx="250" cy="250" r="200" stroke-width="3" fill="white"/>
    <svg id="mouth"><path stroke="black" stroke-width="1" d="M169.5 430 C170.5 432, 329.5 432, 330.5 430   M169.5 430 C114.5 283, 385.5 283, 330.5 430" fill="white"/></svg>
    <svg id="eye"><path stroke="black" stroke-width="1" d="M231.5 215 C231.5 166, 282.5 118, 329.5 118   C389.5 118, 466.5 82, 466.5 143   C466.5 159, 400.5 245, 331.5 245   C292.5 245, 231.5 290, 231.5 215  Z " fill="white"/><path stroke="black" stroke-width="1" d="M268.5 215 C268.5 166, 217.5 118, 170.5 118   C110.5 118, 33.5 82, 33.5 143   C33.5 159, 99.5 245, 168.5 245   C207.5 245, 268.5 290, 268.5 215  Z " fill="white"/><path stroke="black" stroke-width="0" d="M318.5 193 C318.5 173, 328.5 163, 348.5 163   C368.5 163, 378.5 173, 378.5 193   C378.5 213, 368.5 223, 348.5 223   C328.5 223, 318.5 213, 318.5 193  Z " fill="black"/><path stroke="black" stroke-width="0" d="M181.5 193 C181.5 173, 171.5 163, 151.5 163   C131.5 163, 121.5 173, 121.5 193   C121.5 213, 131.5 223, 151.5 223   C171.5 223, 181.5 213, 181.5 193  Z " fill="black"/></svg>

  </svg>