<?xml version="1.0" encoding="UTF-8" standalone="no"?><svg xmlns="http://www.w3.org/2000/svg" id="montage">
    <svg id="ear"/>
    <circle id="countor" stroke="black" cx="250" cy="250" r="200" stroke-width="3" fill="white"/>
    <svg id="mouth"><path stroke="black" stroke-width="1" d="M152.5 273 C129.5 298, 370.5 298, 347.5 273   M152.5 273 C63.5 206, 436.5 206, 347.5 273" fill="white"/></svg>
    <svg id="eye"><path stroke="black" stroke-width="1" d="M301.5 182 C301.5 145, 272.5 67, 298.5 67   C340.5 67, 467.5 112, 467.5 126   C467.5 200, 371.5 215, 353.5 215   C295.5 215, 301.5 215, 301.5 182  Z " fill="white"/><path stroke="black" stroke-width="1" d="M198.5 182 C198.5 145, 227.5 67, 201.5 67   C159.5 67, 32.5 112, 32.5 126   C32.5 200, 128.5 215, 146.5 215   C204.5 215, 198.5 215, 198.5 182  Z " fill="white"/><path stroke="black" stroke-width="0" d="M318.5 151 C318.5 131, 328.5 121, 348.5 121   C368.5 121, 378.5 131, 378.5 151   C378.5 171, 368.5 181, 348.5 181   C328.5 181, 318.5 171, 318.5 151  Z " fill="black"/><path stroke="black" stroke-width="0" d="M181.5 151 C181.5 131, 171.5 121, 151.5 121   C131.5 121, 121.5 131, 121.5 151   C121.5 171, 131.5 181, 151.5 181   C171.5 181, 181.5 171, 181.5 151  Z " fill="black"/></svg>

  </svg>