<?xml version="1.0" encoding="UTF-8" standalone="no"?><svg xmlns="http://www.w3.org/2000/svg" id="montage">
    <svg id="ear"/>
    <circle id="countor" stroke="black" cx="250" cy="250" r="200" stroke-width="3" fill="white"/>
    <svg id="mouth"><path stroke="black" stroke-width="1" d="M121 344 C102 367, 398 367, 379 344   M121 344 C246 445, 254 445, 379 344" fill="white"/></svg>
    <svg id="eye"><path stroke="black" stroke-width="1" d="M292.5 127 C292.5 64, 332.5 93, 385.5 93   C465.5 93, 396.5 83, 396.5 130   C396.5 172, 422.5 216, 358.5 216   C280.5 216, 292.5 192, 292.5 127  Z " fill="white"/><path stroke="black" stroke-width="1" d="M207.5 127 C207.5 64, 167.5 93, 114.5 93   C34.5 93, 103.5 83, 103.5 130   C103.5 172, 77.5 216, 141.5 216   C219.5 216, 207.5 192, 207.5 127  Z " fill="white"/><path stroke="black" stroke-width="0" d="M313.5 169 C313.5 149, 323.5 139, 343.5 139   C363.5 139, 373.5 149, 373.5 169   C373.5 189, 363.5 199, 343.5 199   C323.5 199, 313.5 189, 313.5 169  Z " fill="black"/><path stroke="black" stroke-width="0" d="M186.5 169 C186.5 149, 176.5 139, 156.5 139   C136.5 139, 126.5 149, 126.5 169   C126.5 189, 136.5 199, 156.5 199   C176.5 199, 186.5 189, 186.5 169  Z " fill="black"/></svg>

  </svg>