<?xml version="1.0" encoding="UTF-8" standalone="no"?><svg xmlns="http://www.w3.org/2000/svg" id="montage">
    <svg id="ear"/>
    <circle id="countor" stroke="black" cx="250" cy="250" r="200" stroke-width="3" fill="white"/>
    <svg id="mouth"><path stroke="black" stroke-width="1" d="M183.5 303 C152.5 268, 347.5 268, 316.5 303   M183.5 303 C296.5 279, 203.5 279, 316.5 303" fill="white"/></svg>
    <svg id="eye"><path stroke="black" stroke-width="1" d="M284 225 C284 211, 271 158, 327 158   C356 158, 431 170, 431 233   C431 282, 399 294, 355 294   C275 294, 284 245, 284 225  Z " fill="white"/><path stroke="black" stroke-width="1" d="M216 225 C216 211, 229 158, 173 158   C144 158, 69 170, 69 233   C69 282, 101 294, 145 294   C225 294, 216 245, 216 225  Z " fill="white"/><path stroke="black" stroke-width="0" d="M318 201 C318 181, 328 171, 348 171   C368 171, 378 181, 378 201   C378 221, 368 231, 348 231   C328 231, 318 221, 318 201  Z " fill="black"/><path stroke="black" stroke-width="0" d="M182 201 C182 181, 172 171, 152 171   C132 171, 122 181, 122 201   C122 221, 132 231, 152 231   C172 231, 182 221, 182 201  Z " fill="black"/></svg>

  </svg>