<?xml version="1.0" encoding="UTF-8" standalone="no"?><svg xmlns="http://www.w3.org/2000/svg" id="montage">
    <svg id="ear"/>
    <circle id="countor" stroke="black" cx="250" cy="250" r="200" stroke-width="3" fill="white"/>
    <svg id="mouth"><path stroke="black" stroke-width="1" d="M181 395 C154 406, 346 406, 319 395   M181 395 C263 360, 237 360, 319 395" fill="white"/></svg>
    <svg id="eye"><path stroke="black" stroke-width="1" d="M228 200 C228 145, 247 110, 308 110   C337 110, 467 178, 467 196   C467 234, 428 228, 382 228   C336 228, 228 258, 228 200  Z " fill="white"/><path stroke="black" stroke-width="1" d="M272 200 C272 145, 253 110, 192 110   C163 110, 33 178, 33 196   C33 234, 72 228, 118 228   C164 228, 272 258, 272 200  Z " fill="white"/><path stroke="black" stroke-width="0" d="M317 160 C317 140, 327 130, 347 130   C367 130, 377 140, 377 160   C377 180, 367 190, 347 190   C327 190, 317 180, 317 160  Z " fill="black"/><path stroke="black" stroke-width="0" d="M183 160 C183 140, 173 130, 153 130   C133 130, 123 140, 123 160   C123 180, 133 190, 153 190   C173 190, 183 180, 183 160  Z " fill="black"/></svg>

  </svg>