<?xml version="1.0" encoding="UTF-8" standalone="no"?><svg xmlns="http://www.w3.org/2000/svg" id="montage">
    <svg id="ear"/>
    <circle id="countor" stroke="black" cx="250" cy="250" r="200" stroke-width="3" fill="white"/>
    <svg id="mouth"><path stroke="black" stroke-width="1" d="M200.5 298 C218.5 337, 281.5 337, 299.5 298   M200.5 298 C281.5 289, 218.5 289, 299.5 298" fill="white"/></svg>
    <svg id="eye"><path stroke="black" stroke-width="1" d="M302.5 174 C302.5 126, 247.5 39, 302.5 39   C380.5 39, 383.5 82, 383.5 130   C383.5 187, 418.5 247, 365.5 247   C348.5 247, 302.5 222, 302.5 174  Z " fill="white"/><path stroke="black" stroke-width="1" d="M197.5 174 C197.5 126, 252.5 39, 197.5 39   C119.5 39, 116.5 82, 116.5 130   C116.5 187, 81.5 247, 134.5 247   C151.5 247, 197.5 222, 197.5 174  Z " fill="white"/><path stroke="black" stroke-width="0" d="M310.5 150 C310.5 130, 320.5 120, 340.5 120   C360.5 120, 370.5 130, 370.5 150   C370.5 170, 360.5 180, 340.5 180   C320.5 180, 310.5 170, 310.5 150  Z " fill="black"/><path stroke="black" stroke-width="0" d="M189.5 150 C189.5 130, 179.5 120, 159.5 120   C139.5 120, 129.5 130, 129.5 150   C129.5 170, 139.5 180, 159.5 180   C179.5 180, 189.5 170, 189.5 150  Z " fill="black"/></svg>

  </svg>