<?xml version="1.0" encoding="UTF-8" standalone="no"?><svg xmlns="http://www.w3.org/2000/svg" id="montage">
    <svg id="ear"/>
    <circle id="countor" stroke="black" cx="250" cy="250" r="200" stroke-width="3" fill="white"/>
    <svg id="mouth"><path stroke="black" stroke-width="1" d="M212 393 C243 424, 257 424, 288 393   M212 393 C255 471, 245 471, 288 393" fill="white"/></svg>
    <svg id="eye"><path stroke="black" stroke-width="1" d="M238.5 231 C238.5 153, 230.5 155, 296.5 155   C342.5 155, 395.5 168, 395.5 202   C395.5 279, 369.5 254, 339.5 254   C302.5 254, 238.5 299, 238.5 231  Z " fill="white"/><path stroke="black" stroke-width="1" d="M261.5 231 C261.5 153, 269.5 155, 203.5 155   C157.5 155, 104.5 168, 104.5 202   C104.5 279, 130.5 254, 160.5 254   C197.5 254, 261.5 299, 261.5 231  Z " fill="white"/><path stroke="black" stroke-width="0" d="M313.5 200 C313.5 180, 323.5 170, 343.5 170   C363.5 170, 373.5 180, 373.5 200   C373.5 220, 363.5 230, 343.5 230   C323.5 230, 313.5 220, 313.5 200  Z " fill="black"/><path stroke="black" stroke-width="0" d="M186.5 200 C186.5 180, 176.5 170, 156.5 170   C136.5 170, 126.5 180, 126.5 200   C126.5 220, 136.5 230, 156.5 230   C176.5 230, 186.5 220, 186.5 200  Z " fill="black"/></svg>

  </svg>