<?xml version="1.0" encoding="UTF-8" standalone="no"?><svg xmlns="http://www.w3.org/2000/svg" id="montage">
    <svg id="ear"/>
    <circle id="countor" stroke="black" cx="250" cy="250" r="200" stroke-width="3" fill="white"/>
    <svg id="mouth"><path stroke="black" stroke-width="1" d="M171 398 C125 439, 375 439, 329 398   M171 398 C56 443, 444 443, 329 398" fill="white"/></svg>
    <svg id="eye"><path stroke="black" stroke-width="1" d="M286.5 124 C286.5 100, 294.5 114, 335.5 114   C377.5 114, 395.5 89, 395.5 99   C395.5 109, 463.5 210, 384.5 210   C345.5 210, 286.5 149, 286.5 124  Z " fill="white"/><path stroke="black" stroke-width="1" d="M213.5 124 C213.5 100, 205.5 114, 164.5 114   C122.5 114, 104.5 89, 104.5 99   C104.5 109, 36.5 210, 115.5 210   C154.5 210, 213.5 149, 213.5 124  Z " fill="white"/><path stroke="black" stroke-width="0" d="M312.5 149 C312.5 129, 322.5 119, 342.5 119   C362.5 119, 372.5 129, 372.5 149   C372.5 169, 362.5 179, 342.5 179   C322.5 179, 312.5 169, 312.5 149  Z " fill="black"/><path stroke="black" stroke-width="0" d="M187.5 149 C187.5 129, 177.5 119, 157.5 119   C137.5 119, 127.5 129, 127.5 149   C127.5 169, 137.5 179, 157.5 179   C177.5 179, 187.5 169, 187.5 149  Z " fill="black"/></svg>

  </svg>