<?xml version="1.0" encoding="UTF-8" standalone="no"?><svg xmlns="http://www.w3.org/2000/svg" id="montage">
    <svg id="ear"/>
    <circle id="countor" stroke="black" cx="250" cy="250" r="200" stroke-width="3" fill="white"/>
    <svg id="mouth"><path stroke="black" stroke-width="1" d="M217 337 C266 368, 234 368, 283 337   M217 337 C334 320, 166 320, 283 337" fill="white"/></svg>
    <svg id="eye"><path stroke="black" stroke-width="1" d="M264 153 C264 139, 363 25, 393 25   C456 25, 390 59, 390 138   C390 178, 395 208, 322 208   C300 208, 264 199, 264 153  Z " fill="white"/><path stroke="black" stroke-width="1" d="M236 153 C236 139, 137 25, 107 25   C44 25, 110 59, 110 138   C110 178, 105 208, 178 208   C200 208, 236 199, 236 153  Z " fill="white"/><path stroke="black" stroke-width="0" d="M314 130 C314 110, 324 100, 344 100   C364 100, 374 110, 374 130   C374 150, 364 160, 344 160   C324 160, 314 150, 314 130  Z " fill="black"/><path stroke="black" stroke-width="0" d="M186 130 C186 110, 176 100, 156 100   C136 100, 126 110, 126 130   C126 150, 136 160, 156 160   C176 160, 186 150, 186 130  Z " fill="black"/></svg>

  </svg>