<?xml version="1.0" encoding="UTF-8" standalone="no"?><svg xmlns="http://www.w3.org/2000/svg" id="montage">
    <svg id="ear"/>
    <circle id="countor" stroke="black" cx="250" cy="250" r="200" stroke-width="3" fill="white"/>
    <svg id="mouth"><path stroke="black" stroke-width="1" d="M151 398 C180 385, 320 385, 349 398   M151 398 C242 338, 258 338, 349 398" fill="white"/></svg>
    <svg id="eye"><path stroke="black" stroke-width="1" d="M297 219 C297 180, 318 140, 329 140   C407 140, 392 154, 392 200   C392 223, 379 223, 348 223   C278 223, 297 232, 297 219  Z " fill="white"/><path stroke="black" stroke-width="1" d="M203 219 C203 180, 182 140, 171 140   C93 140, 108 154, 108 200   C108 223, 121 223, 152 223   C222 223, 203 232, 203 219  Z " fill="white"/><path stroke="black" stroke-width="0" d="M314 176 C314 156, 324 146, 344 146   C364 146, 374 156, 374 176   C374 196, 364 206, 344 206   C324 206, 314 196, 314 176  Z " fill="black"/><path stroke="black" stroke-width="0" d="M186 176 C186 156, 176 146, 156 146   C136 146, 126 156, 126 176   C126 196, 136 206, 156 206   C176 206, 186 196, 186 176  Z " fill="black"/></svg>

  </svg>