<?xml version="1.0" encoding="UTF-8" standalone="no"?><svg xmlns="http://www.w3.org/2000/svg" id="montage">
    <svg id="ear"/>
    <circle id="countor" stroke="black" cx="250" cy="250" r="200" stroke-width="3" fill="white"/>
    <svg id="mouth"><path stroke="black" stroke-width="1" d="M222.5 343 C236.5 304, 263.5 304, 277.5 343   M222.5 343 C159.5 370, 340.5 370, 277.5 343" fill="white"/></svg>
    <svg id="eye"><path stroke="black" stroke-width="1" d="M261.5 151 C261.5 135, 309.5 102, 333.5 102   C360.5 102, 424.5 115, 424.5 191   C424.5 203, 393.5 197, 355.5 197   C327.5 197, 261.5 212, 261.5 151  Z " fill="white"/><path stroke="black" stroke-width="1" d="M238.5 151 C238.5 135, 190.5 102, 166.5 102   C139.5 102, 75.5 115, 75.5 191   C75.5 203, 106.5 197, 144.5 197   C172.5 197, 238.5 212, 238.5 151  Z " fill="white"/><path stroke="black" stroke-width="0" d="M318.5 155 C318.5 135, 328.5 125, 348.5 125   C368.5 125, 378.5 135, 378.5 155   C378.5 175, 368.5 185, 348.5 185   C328.5 185, 318.5 175, 318.5 155  Z " fill="black"/><path stroke="black" stroke-width="0" d="M181.5 155 C181.5 135, 171.5 125, 151.5 125   C131.5 125, 121.5 135, 121.5 155   C121.5 175, 131.5 185, 151.5 185   C171.5 185, 181.5 175, 181.5 155  Z " fill="black"/></svg>

  </svg>