<?xml version="1.0" encoding="UTF-8" standalone="no"?><svg xmlns="http://www.w3.org/2000/svg" id="montage">
    <svg id="ear"/>
    <circle id="countor" stroke="black" cx="250" cy="250" r="200" stroke-width="3" fill="white"/>
    <svg id="mouth"><path stroke="black" stroke-width="1" d="M126.5 399 C170.5 393, 329.5 393, 373.5 399   M126.5 399 C41.5 482, 458.5 482, 373.5 399" fill="white"/></svg>
    <svg id="eye"><path stroke="black" stroke-width="1" d="M307.5 89 C307.5 78, 305.5 15, 333.5 15   C394.5 15, 401.5 125, 401.5 175   C401.5 255, 400.5 227, 345.5 227   C308.5 227, 307.5 125, 307.5 89  Z " fill="white"/><path stroke="black" stroke-width="1" d="M192.5 89 C192.5 78, 194.5 15, 166.5 15   C105.5 15, 98.5 125, 98.5 175   C98.5 255, 99.5 227, 154.5 227   C191.5 227, 192.5 125, 192.5 89  Z " fill="white"/><path stroke="black" stroke-width="0" d="M312.5 133 C312.5 113, 322.5 103, 342.5 103   C362.5 103, 372.5 113, 372.5 133   C372.5 153, 362.5 163, 342.5 163   C322.5 163, 312.5 153, 312.5 133  Z " fill="black"/><path stroke="black" stroke-width="0" d="M187.5 133 C187.5 113, 177.5 103, 157.5 103   C137.5 103, 127.5 113, 127.5 133   C127.5 153, 137.5 163, 157.5 163   C177.5 163, 187.5 153, 187.5 133  Z " fill="black"/></svg>

  </svg>