<?xml version="1.0" encoding="UTF-8" standalone="no"?><svg xmlns="http://www.w3.org/2000/svg" id="montage">
    <svg id="ear"/>
    <circle id="countor" stroke="black" cx="250" cy="250" r="200" stroke-width="3" fill="white"/>
    <svg id="mouth"><path stroke="black" stroke-width="1" d="M141 332 C150 284, 350 284, 359 332   M141 332 C133 369, 367 369, 359 332" fill="white"/></svg>
    <svg id="eye"><path stroke="black" stroke-width="1" d="M266.5 141 C266.5 102, 235.5 79, 313.5 79   C355.5 79, 422.5 51, 422.5 129   C422.5 169, 347.5 248, 321.5 248   C292.5 248, 266.5 190, 266.5 141  Z " fill="white"/><path stroke="black" stroke-width="1" d="M233.5 141 C233.5 102, 264.5 79, 186.5 79   C144.5 79, 77.5 51, 77.5 129   C77.5 169, 152.5 248, 178.5 248   C207.5 248, 233.5 190, 233.5 141  Z " fill="white"/><path stroke="black" stroke-width="0" d="M319.5 166 C319.5 146, 329.5 136, 349.5 136   C369.5 136, 379.5 146, 379.5 166   C379.5 186, 369.5 196, 349.5 196   C329.5 196, 319.5 186, 319.5 166  Z " fill="black"/><path stroke="black" stroke-width="0" d="M180.5 166 C180.5 146, 170.5 136, 150.5 136   C130.5 136, 120.5 146, 120.5 166   C120.5 186, 130.5 196, 150.5 196   C170.5 196, 180.5 186, 180.5 166  Z " fill="black"/></svg>

  </svg>