<?xml version="1.0" encoding="UTF-8" standalone="no"?><svg xmlns="http://www.w3.org/2000/svg" id="montage">
    <svg id="ear"/>
    <circle id="countor" stroke="black" cx="250" cy="250" r="200" stroke-width="3" fill="white"/>
    <svg id="mouth"><path stroke="black" stroke-width="1" d="M207 364 C246 330, 254 330, 293 364   M207 364 C266 310, 234 310, 293 364" fill="white"/></svg>
    <svg id="eye"><path stroke="black" stroke-width="1" d="M262.5 102 C262.5 31, 294.5 47, 320.5 47   C361.5 47, 463.5 132, 463.5 146   C463.5 222, 436.5 217, 363.5 217   C308.5 217, 262.5 121, 262.5 102  Z " fill="white"/><path stroke="black" stroke-width="1" d="M237.5 102 C237.5 31, 205.5 47, 179.5 47   C138.5 47, 36.5 132, 36.5 146   C36.5 222, 63.5 217, 136.5 217   C191.5 217, 237.5 121, 237.5 102  Z " fill="white"/><path stroke="black" stroke-width="0" d="M313.5 148 C313.5 128, 323.5 118, 343.5 118   C363.5 118, 373.5 128, 373.5 148   C373.5 168, 363.5 178, 343.5 178   C323.5 178, 313.5 168, 313.5 148  Z " fill="black"/><path stroke="black" stroke-width="0" d="M186.5 148 C186.5 128, 176.5 118, 156.5 118   C136.5 118, 126.5 128, 126.5 148   C126.5 168, 136.5 178, 156.5 178   C176.5 178, 186.5 168, 186.5 148  Z " fill="black"/></svg>

  </svg>