<?xml version="1.0" encoding="UTF-8" standalone="no"?><svg xmlns="http://www.w3.org/2000/svg" id="montage">
    <svg id="ear"/>
    <circle id="countor" stroke="black" cx="250" cy="250" r="200" stroke-width="3" fill="white"/>
    <svg id="mouth"><path stroke="black" stroke-width="1" d="M173 273 C153 272, 347 272, 327 273   M173 273 C320 153, 180 153, 327 273" fill="white"/></svg>
    <svg id="eye"><path stroke="black" stroke-width="1" d="M221.5 142 C221.5 81, 224.5 71, 300.5 71   C311.5 71, 434.5 118, 434.5 178   C434.5 211, 423.5 242, 371.5 242   C327.5 242, 221.5 216, 221.5 142  Z " fill="white"/><path stroke="black" stroke-width="1" d="M278.5 142 C278.5 81, 275.5 71, 199.5 71   C188.5 71, 65.5 118, 65.5 178   C65.5 211, 76.5 242, 128.5 242   C172.5 242, 278.5 216, 278.5 142  Z " fill="white"/><path stroke="black" stroke-width="0" d="M310.5 133 C310.5 113, 320.5 103, 340.5 103   C360.5 103, 370.5 113, 370.5 133   C370.5 153, 360.5 163, 340.5 163   C320.5 163, 310.5 153, 310.5 133  Z " fill="black"/><path stroke="black" stroke-width="0" d="M189.5 133 C189.5 113, 179.5 103, 159.5 103   C139.5 103, 129.5 113, 129.5 133   C129.5 153, 139.5 163, 159.5 163   C179.5 163, 189.5 153, 189.5 133  Z " fill="black"/></svg>

  </svg>