<?xml version="1.0" encoding="UTF-8" standalone="no"?><svg xmlns="http://www.w3.org/2000/svg" id="montage">
    <svg id="ear"/>
    <circle id="countor" stroke="black" cx="250" cy="250" r="200" stroke-width="3" fill="white"/>
    <svg id="mouth"><path stroke="black" stroke-width="1" d="M195.5 378 C242.5 358, 257.5 358, 304.5 378   M195.5 378 C106.5 524, 393.5 524, 304.5 378" fill="white"/></svg>
    <svg id="eye"><path stroke="black" stroke-width="1" d="M256 174 C256 149, 270 103, 330 103   C340 103, 386 203, 386 249   C386 298, 347 314, 317 314   C302 314, 256 232, 256 174  Z " fill="white"/><path stroke="black" stroke-width="1" d="M244 174 C244 149, 230 103, 170 103   C160 103, 114 203, 114 249   C114 298, 153 314, 183 314   C198 314, 244 232, 244 174  Z " fill="white"/><path stroke="black" stroke-width="0" d="M318 213 C318 193, 328 183, 348 183   C368 183, 378 193, 378 213   C378 233, 368 243, 348 243   C328 243, 318 233, 318 213  Z " fill="black"/><path stroke="black" stroke-width="0" d="M182 213 C182 193, 172 183, 152 183   C132 183, 122 193, 122 213   C122 233, 132 243, 152 243   C172 243, 182 233, 182 213  Z " fill="black"/></svg>

  </svg>