<?xml version="1.0" encoding="UTF-8" standalone="no"?><svg xmlns="http://www.w3.org/2000/svg" id="montage">
    <svg id="ear"/>
    <circle id="countor" stroke="black" cx="250" cy="250" r="200" stroke-width="3" fill="white"/>
    <svg id="mouth"><path stroke="black" stroke-width="1" d="M147.5 322 C150.5 289, 349.5 289, 352.5 322   M147.5 322 C18.5 308, 481.5 308, 352.5 322" fill="white"/></svg>
    <svg id="eye"><path stroke="black" stroke-width="1" d="M254 125 C254 45, 331 63, 390 63   C440 63, 468 44, 468 121   C468 196, 340 268, 301 268   C251 268, 254 142, 254 125  Z " fill="white"/><path stroke="black" stroke-width="1" d="M246 125 C246 45, 169 63, 110 63   C60 63, 32 44, 32 121   C32 196, 160 268, 199 268   C249 268, 246 142, 246 125  Z " fill="white"/><path stroke="black" stroke-width="0" d="M318 156 C318 136, 328 126, 348 126   C368 126, 378 136, 378 156   C378 176, 368 186, 348 186   C328 186, 318 176, 318 156  Z " fill="black"/><path stroke="black" stroke-width="0" d="M182 156 C182 136, 172 126, 152 126   C132 126, 122 136, 122 156   C122 176, 132 186, 152 186   C172 186, 182 176, 182 156  Z " fill="black"/></svg>

  </svg>