<?xml version="1.0" encoding="UTF-8" standalone="no"?><svg xmlns="http://www.w3.org/2000/svg" id="montage">
    <svg id="ear"/>
    <circle id="countor" stroke="black" cx="250" cy="250" r="200" stroke-width="3" fill="white"/>
    <svg id="mouth"><path stroke="black" stroke-width="1" d="M186.5 371 C205.5 353, 294.5 353, 313.5 371   M186.5 371 C299.5 257, 200.5 257, 313.5 371" fill="white"/></svg>
    <svg id="eye"><path stroke="black" stroke-width="1" d="M227 245 C227 186, 354 132, 384 132   C396 132, 439 161, 439 219   C439 287, 416 256, 391 256   C333 256, 227 282, 227 245  Z " fill="white"/><path stroke="black" stroke-width="1" d="M273 245 C273 186, 146 132, 116 132   C104 132, 61 161, 61 219   C61 287, 84 256, 109 256   C167 256, 273 282, 273 245  Z " fill="white"/><path stroke="black" stroke-width="0" d="M311 210 C311 190, 321 180, 341 180   C361 180, 371 190, 371 210   C371 230, 361 240, 341 240   C321 240, 311 230, 311 210  Z " fill="black"/><path stroke="black" stroke-width="0" d="M189 210 C189 190, 179 180, 159 180   C139 180, 129 190, 129 210   C129 230, 139 240, 159 240   C179 240, 189 230, 189 210  Z " fill="black"/></svg>

  </svg>