<?xml version="1.0" encoding="UTF-8" standalone="no"?><svg xmlns="http://www.w3.org/2000/svg" id="montage">
    <svg id="ear"/>
    <circle id="countor" stroke="black" cx="250" cy="250" r="200" stroke-width="3" fill="white"/>
    <svg id="mouth"><path stroke="black" stroke-width="1" d="M201.5 338 C218.5 307, 281.5 307, 298.5 338   M201.5 338 C121.5 414, 378.5 414, 298.5 338" fill="white"/></svg>
    <svg id="eye"><path stroke="black" stroke-width="1" d="M279 165 C279 150, 297 19, 375 19   C407 19, 448 101, 448 130   C448 179, 470 220, 393 220   C374 220, 279 184, 279 165  Z " fill="white"/><path stroke="black" stroke-width="1" d="M221 165 C221 150, 203 19, 125 19   C93 19, 52 101, 52 130   C52 179, 30 220, 107 220   C126 220, 221 184, 221 165  Z " fill="white"/><path stroke="black" stroke-width="0" d="M318 139 C318 119, 328 109, 348 109   C368 109, 378 119, 378 139   C378 159, 368 169, 348 169   C328 169, 318 159, 318 139  Z " fill="black"/><path stroke="black" stroke-width="0" d="M182 139 C182 119, 172 109, 152 109   C132 109, 122 119, 122 139   C122 159, 132 169, 152 169   C172 169, 182 159, 182 139  Z " fill="black"/></svg>

  </svg>