<?xml version="1.0" encoding="UTF-8" standalone="no"?><svg xmlns="http://www.w3.org/2000/svg" id="montage">
    <svg id="ear"/>
    <circle id="countor" stroke="black" cx="250" cy="250" r="200" stroke-width="3" fill="white"/>
    <svg id="mouth"><path stroke="black" stroke-width="1" d="M191 344 C144 298, 356 298, 309 344   M191 344 C133 280, 367 280, 309 344" fill="white"/></svg>
    <svg id="eye"><path stroke="black" stroke-width="1" d="M305.5 180 C305.5 134, 285.5 51, 341.5 51   C395.5 51, 458.5 134, 458.5 160   C458.5 185, 378.5 223, 309.5 223   C245.5 223, 305.5 208, 305.5 180  Z " fill="white"/><path stroke="black" stroke-width="1" d="M194.5 180 C194.5 134, 214.5 51, 158.5 51   C104.5 51, 41.5 134, 41.5 160   C41.5 185, 121.5 223, 190.5 223   C254.5 223, 194.5 208, 194.5 180  Z " fill="white"/><path stroke="black" stroke-width="0" d="M311.5 162 C311.5 142, 321.5 132, 341.5 132   C361.5 132, 371.5 142, 371.5 162   C371.5 182, 361.5 192, 341.5 192   C321.5 192, 311.5 182, 311.5 162  Z " fill="black"/><path stroke="black" stroke-width="0" d="M188.5 162 C188.5 142, 178.5 132, 158.5 132   C138.5 132, 128.5 142, 128.5 162   C128.5 182, 138.5 192, 158.5 192   C178.5 192, 188.5 182, 188.5 162  Z " fill="black"/></svg>

  </svg>