<?xml version="1.0" encoding="UTF-8" standalone="no"?><svg xmlns="http://www.w3.org/2000/svg" id="montage">
    <svg id="ear"/>
    <circle id="countor" stroke="black" cx="250" cy="250" r="200" stroke-width="3" fill="white"/>
    <svg id="mouth"><path stroke="black" stroke-width="1" d="M195.5 318 C145.5 324, 354.5 324, 304.5 318   M195.5 318 C276.5 263, 223.5 263, 304.5 318" fill="white"/></svg>
    <svg id="eye"><path stroke="black" stroke-width="1" d="M288 237 C288 203, 281 132, 307 132   C374 132, 387 203, 387 258   C387 274, 447 322, 374 322   C363 322, 288 268, 288 237  Z " fill="white"/><path stroke="black" stroke-width="1" d="M212 237 C212 203, 219 132, 193 132   C126 132, 113 203, 113 258   C113 274, 53 322, 126 322   C137 322, 212 268, 212 237  Z " fill="white"/><path stroke="black" stroke-width="0" d="M315 214 C315 194, 325 184, 345 184   C365 184, 375 194, 375 214   C375 234, 365 244, 345 244   C325 244, 315 234, 315 214  Z " fill="black"/><path stroke="black" stroke-width="0" d="M185 214 C185 194, 175 184, 155 184   C135 184, 125 194, 125 214   C125 234, 135 244, 155 244   C175 244, 185 234, 185 214  Z " fill="black"/></svg>

  </svg>