<?xml version="1.0" encoding="UTF-8" standalone="no"?><svg xmlns="http://www.w3.org/2000/svg" id="montage">
    <svg id="ear"/>
    <circle id="countor" stroke="black" cx="250" cy="250" r="200" stroke-width="3" fill="white"/>
    <svg id="mouth"><path stroke="black" stroke-width="1" d="M129.5 379 C119.5 426, 380.5 426, 370.5 379   M129.5 379 C53.5 517, 446.5 517, 370.5 379" fill="white"/></svg>
    <svg id="eye"><path stroke="black" stroke-width="1" d="M276.5 134 C276.5 65, 259.5 49, 336.5 49   C364.5 49, 419.5 111, 419.5 125   C419.5 182, 397.5 228, 387.5 228   C308.5 228, 276.5 162, 276.5 134  Z " fill="white"/><path stroke="black" stroke-width="1" d="M223.5 134 C223.5 65, 240.5 49, 163.5 49   C135.5 49, 80.5 111, 80.5 125   C80.5 182, 102.5 228, 112.5 228   C191.5 228, 223.5 162, 223.5 134  Z " fill="white"/><path stroke="black" stroke-width="0" d="M311.5 163 C311.5 143, 321.5 133, 341.5 133   C361.5 133, 371.5 143, 371.5 163   C371.5 183, 361.5 193, 341.5 193   C321.5 193, 311.5 183, 311.5 163  Z " fill="black"/><path stroke="black" stroke-width="0" d="M188.5 163 C188.5 143, 178.5 133, 158.5 133   C138.5 133, 128.5 143, 128.5 163   C128.5 183, 138.5 193, 158.5 193   C178.5 193, 188.5 183, 188.5 163  Z " fill="black"/></svg>

  </svg>