<?xml version="1.0" encoding="UTF-8" standalone="no"?><svg xmlns="http://www.w3.org/2000/svg" id="montage">
    <svg id="ear"/>
    <circle id="countor" stroke="black" cx="250" cy="250" r="200" stroke-width="3" fill="white"/>
    <svg id="mouth"><path stroke="black" stroke-width="1" d="M133.5 295 C103.5 265, 396.5 265, 366.5 295   M133.5 295 C-13.5 431, 513.5 431, 366.5 295" fill="white"/></svg>
    <svg id="eye"><path stroke="black" stroke-width="1" d="M233.5 95 C233.5 41, 345.5 48, 388.5 48   C440.5 48, 447.5 118, 447.5 169   C447.5 210, 319.5 237, 293.5 237   C232.5 237, 233.5 150, 233.5 95  Z " fill="white"/><path stroke="black" stroke-width="1" d="M266.5 95 C266.5 41, 154.5 48, 111.5 48   C59.5 48, 52.5 118, 52.5 169   C52.5 210, 180.5 237, 206.5 237   C267.5 237, 266.5 150, 266.5 95  Z " fill="white"/><path stroke="black" stroke-width="0" d="M311.5 132 C311.5 112, 321.5 102, 341.5 102   C361.5 102, 371.5 112, 371.5 132   C371.5 152, 361.5 162, 341.5 162   C321.5 162, 311.5 152, 311.5 132  Z " fill="black"/><path stroke="black" stroke-width="0" d="M188.5 132 C188.5 112, 178.5 102, 158.5 102   C138.5 102, 128.5 112, 128.5 132   C128.5 152, 138.5 162, 158.5 162   C178.5 162, 188.5 152, 188.5 132  Z " fill="black"/></svg>

  </svg>