<?xml version="1.0" encoding="UTF-8" standalone="no"?><svg xmlns="http://www.w3.org/2000/svg" id="montage">
    <svg id="ear"/>
    <circle id="countor" stroke="black" cx="250" cy="250" r="200" stroke-width="3" fill="white"/>
    <svg id="mouth"><path stroke="black" stroke-width="1" d="M209.5 363 C194.5 370, 305.5 370, 290.5 363   M209.5 363 C272.5 412, 227.5 412, 290.5 363" fill="white"/></svg>
    <svg id="eye"><path stroke="black" stroke-width="1" d="M272 182 C272 161, 285 58, 341 58   C357 58, 451 98, 451 141   C451 186, 358 202, 306 202   C292 202, 272 245, 272 182  Z " fill="white"/><path stroke="black" stroke-width="1" d="M228 182 C228 161, 215 58, 159 58   C143 58, 49 98, 49 141   C49 186, 142 202, 194 202   C208 202, 228 245, 228 182  Z " fill="white"/><path stroke="black" stroke-width="0" d="M314 165 C314 145, 324 135, 344 135   C364 135, 374 145, 374 165   C374 185, 364 195, 344 195   C324 195, 314 185, 314 165  Z " fill="black"/><path stroke="black" stroke-width="0" d="M186 165 C186 145, 176 135, 156 135   C136 135, 126 145, 126 165   C126 185, 136 195, 156 195   C176 195, 186 185, 186 165  Z " fill="black"/></svg>

  </svg>