<?xml version="1.0" encoding="UTF-8" standalone="no"?><svg xmlns="http://www.w3.org/2000/svg" id="montage">
    <svg id="ear"/>
    <circle id="countor" stroke="black" cx="250" cy="250" r="200" stroke-width="3" fill="white"/>
    <svg id="mouth"><path stroke="black" stroke-width="1" d="M145 323 C171 302, 329 302, 355 323   M145 323 C243 451, 257 451, 355 323" fill="white"/></svg>
    <svg id="eye"><path stroke="black" stroke-width="1" d="M259 169 C259 92, 278 113, 335 113   C407 113, 447 152, 447 182   C447 212, 402 231, 385 231   C331 231, 259 213, 259 169  Z " fill="white"/><path stroke="black" stroke-width="1" d="M241 169 C241 92, 222 113, 165 113   C93 113, 53 152, 53 182   C53 212, 98 231, 115 231   C169 231, 241 213, 241 169  Z " fill="white"/><path stroke="black" stroke-width="0" d="M312 165 C312 145, 322 135, 342 135   C362 135, 372 145, 372 165   C372 185, 362 195, 342 195   C322 195, 312 185, 312 165  Z " fill="black"/><path stroke="black" stroke-width="0" d="M188 165 C188 145, 178 135, 158 135   C138 135, 128 145, 128 165   C128 185, 138 195, 158 195   C178 195, 188 185, 188 165  Z " fill="black"/></svg>

  </svg>