<?xml version="1.0" encoding="UTF-8" standalone="no"?><svg xmlns="http://www.w3.org/2000/svg" id="montage">
    <svg id="ear"/>
    <circle id="countor" stroke="black" cx="250" cy="250" r="200" stroke-width="3" fill="white"/>
    <svg id="mouth"><path stroke="black" stroke-width="1" d="M228 282 C253 267, 247 267, 272 282   M228 282 C370 276, 130 276, 272 282" fill="white"/></svg>
    <svg id="eye"><path stroke="black" stroke-width="1" d="M281.5 160 C281.5 96, 293.5 147, 342.5 147   C404.5 147, 407.5 177, 407.5 211   C407.5 260, 404.5 233, 365.5 233   C347.5 233, 281.5 188, 281.5 160  Z " fill="white"/><path stroke="black" stroke-width="1" d="M218.5 160 C218.5 96, 206.5 147, 157.5 147   C95.5 147, 92.5 177, 92.5 211   C92.5 260, 95.5 233, 134.5 233   C152.5 233, 218.5 188, 218.5 160  Z " fill="white"/><path stroke="black" stroke-width="0" d="M317.5 185 C317.5 165, 327.5 155, 347.5 155   C367.5 155, 377.5 165, 377.5 185   C377.5 205, 367.5 215, 347.5 215   C327.5 215, 317.5 205, 317.5 185  Z " fill="black"/><path stroke="black" stroke-width="0" d="M182.5 185 C182.5 165, 172.5 155, 152.5 155   C132.5 155, 122.5 165, 122.5 185   C122.5 205, 132.5 215, 152.5 215   C172.5 215, 182.5 205, 182.5 185  Z " fill="black"/></svg>

  </svg>