<?xml version="1.0" encoding="UTF-8" standalone="no"?><svg xmlns="http://www.w3.org/2000/svg" id="montage">
    <svg id="ear"/>
    <circle id="countor" stroke="black" cx="250" cy="250" r="200" stroke-width="3" fill="white"/>
    <svg id="mouth"><path stroke="black" stroke-width="1" d="M149.5 324 C129.5 357, 370.5 357, 350.5 324   M149.5 324 C49.5 214, 450.5 214, 350.5 324" fill="white"/></svg>
    <svg id="eye"><path stroke="black" stroke-width="1" d="M289.5 153 C289.5 110, 249.5 38, 303.5 38   C370.5 38, 446.5 99, 446.5 177   C446.5 228, 423.5 260, 388.5 260   C349.5 260, 289.5 212, 289.5 153  Z " fill="white"/><path stroke="black" stroke-width="1" d="M210.5 153 C210.5 110, 250.5 38, 196.5 38   C129.5 38, 53.5 99, 53.5 177   C53.5 228, 76.5 260, 111.5 260   C150.5 260, 210.5 212, 210.5 153  Z " fill="white"/><path stroke="black" stroke-width="0" d="M311.5 141 C311.5 121, 321.5 111, 341.5 111   C361.5 111, 371.5 121, 371.5 141   C371.5 161, 361.5 171, 341.5 171   C321.5 171, 311.5 161, 311.5 141  Z " fill="black"/><path stroke="black" stroke-width="0" d="M188.5 141 C188.5 121, 178.5 111, 158.5 111   C138.5 111, 128.5 121, 128.5 141   C128.5 161, 138.5 171, 158.5 171   C178.5 171, 188.5 161, 188.5 141  Z " fill="black"/></svg>

  </svg>