<?xml version="1.0" encoding="UTF-8" standalone="no"?><svg xmlns="http://www.w3.org/2000/svg" id="montage">
    <svg id="ear"/>
    <circle id="countor" stroke="black" cx="250" cy="250" r="200" stroke-width="3" fill="white"/>
    <svg id="mouth"><path stroke="black" stroke-width="1" d="M178.5 329 C163.5 315, 336.5 315, 321.5 329   M178.5 329 C186.5 339, 313.5 339, 321.5 329" fill="white"/></svg>
    <svg id="eye"><path stroke="black" stroke-width="1" d="M249.5 182 C249.5 111, 331.5 84, 363.5 84   C428.5 84, 446.5 46, 446.5 109   C446.5 127, 410.5 212, 359.5 212   C279.5 212, 249.5 220, 249.5 182  Z " fill="white"/><path stroke="black" stroke-width="1" d="M250.5 182 C250.5 111, 168.5 84, 136.5 84   C71.5 84, 53.5 46, 53.5 109   C53.5 127, 89.5 212, 140.5 212   C220.5 212, 250.5 220, 250.5 182  Z " fill="white"/><path stroke="black" stroke-width="0" d="M313.5 151 C313.5 131, 323.5 121, 343.5 121   C363.5 121, 373.5 131, 373.5 151   C373.5 171, 363.5 181, 343.5 181   C323.5 181, 313.5 171, 313.5 151  Z " fill="black"/><path stroke="black" stroke-width="0" d="M186.5 151 C186.5 131, 176.5 121, 156.5 121   C136.5 121, 126.5 131, 126.5 151   C126.5 171, 136.5 181, 156.5 181   C176.5 181, 186.5 171, 186.5 151  Z " fill="black"/></svg>

  </svg>