<?xml version="1.0" encoding="UTF-8" standalone="no"?><svg xmlns="http://www.w3.org/2000/svg" id="montage">
    <svg id="ear"/>
    <circle id="countor" stroke="black" cx="250" cy="250" r="200" stroke-width="3" fill="white"/>
    <svg id="mouth"><path stroke="black" stroke-width="1" d="M150 309 C133 259, 367 259, 350 309   M150 309 C210 399, 290 399, 350 309" fill="white"/></svg>
    <svg id="eye"><path stroke="black" stroke-width="1" d="M268.5 224 C268.5 169, 292.5 123, 343.5 123   C417.5 123, 418.5 136, 418.5 199   C418.5 247, 384.5 248, 326.5 248   C299.5 248, 268.5 240, 268.5 224  Z " fill="white"/><path stroke="black" stroke-width="1" d="M231.5 224 C231.5 169, 207.5 123, 156.5 123   C82.5 123, 81.5 136, 81.5 199   C81.5 247, 115.5 248, 173.5 248   C200.5 248, 231.5 240, 231.5 224  Z " fill="white"/><path stroke="black" stroke-width="0" d="M311.5 185 C311.5 165, 321.5 155, 341.5 155   C361.5 155, 371.5 165, 371.5 185   C371.5 205, 361.5 215, 341.5 215   C321.5 215, 311.5 205, 311.5 185  Z " fill="black"/><path stroke="black" stroke-width="0" d="M188.5 185 C188.5 165, 178.5 155, 158.5 155   C138.5 155, 128.5 165, 128.5 185   C128.5 205, 138.5 215, 158.5 215   C178.5 215, 188.5 205, 188.5 185  Z " fill="black"/></svg>

  </svg>