<?xml version="1.0" encoding="UTF-8" standalone="no"?><svg xmlns="http://www.w3.org/2000/svg" id="montage">
    <svg id="ear"/>
    <circle id="countor" stroke="black" cx="250" cy="250" r="200" stroke-width="3" fill="white"/>
    <svg id="mouth"><path stroke="black" stroke-width="1" d="M127 276 C108 273, 392 273, 373 276   M127 276 C-14 126, 514 126, 373 276" fill="white"/></svg>
    <svg id="eye"><path stroke="black" stroke-width="1" d="M296 146 C296 75, 326 102, 390 102   C466 102, 389 155, 389 207   C389 262, 430 252, 387 252   C311 252, 296 213, 296 146  Z " fill="white"/><path stroke="black" stroke-width="1" d="M204 146 C204 75, 174 102, 110 102   C34 102, 111 155, 111 207   C111 262, 70 252, 113 252   C189 252, 204 213, 204 146  Z " fill="white"/><path stroke="black" stroke-width="0" d="M312 165 C312 145, 322 135, 342 135   C362 135, 372 145, 372 165   C372 185, 362 195, 342 195   C322 195, 312 185, 312 165  Z " fill="black"/><path stroke="black" stroke-width="0" d="M188 165 C188 145, 178 135, 158 135   C138 135, 128 145, 128 165   C128 185, 138 195, 158 195   C178 195, 188 185, 188 165  Z " fill="black"/></svg>

  </svg>