<?xml version="1.0" encoding="UTF-8" standalone="no"?><svg xmlns="http://www.w3.org/2000/svg" id="montage">
    <svg id="ear"/>
    <circle id="countor" stroke="black" cx="250" cy="250" r="200" stroke-width="3" fill="white"/>
    <svg id="mouth"><path stroke="black" stroke-width="1" d="M124 376 C152 386, 348 386, 376 376   M124 376 C183 380, 317 380, 376 376" fill="white"/></svg>
    <svg id="eye"><path stroke="black" stroke-width="1" d="M252 212 C252 166, 349 104, 362 104   C425 104, 433 109, 433 151   C433 163, 413 273, 379 273   C307 273, 252 226, 252 212  Z " fill="white"/><path stroke="black" stroke-width="1" d="M248 212 C248 166, 151 104, 138 104   C75 104, 67 109, 67 151   C67 163, 87 273, 121 273   C193 273, 248 226, 248 212  Z " fill="white"/><path stroke="black" stroke-width="0" d="M317 180 C317 160, 327 150, 347 150   C367 150, 377 160, 377 180   C377 200, 367 210, 347 210   C327 210, 317 200, 317 180  Z " fill="black"/><path stroke="black" stroke-width="0" d="M183 180 C183 160, 173 150, 153 150   C133 150, 123 160, 123 180   C123 200, 133 210, 153 210   C173 210, 183 200, 183 180  Z " fill="black"/></svg>

  </svg>