<?xml version="1.0" encoding="UTF-8" standalone="no"?><svg xmlns="http://www.w3.org/2000/svg" id="montage">
    <svg id="ear"/>
    <circle id="countor" stroke="black" cx="250" cy="250" r="200" stroke-width="3" fill="white"/>
    <svg id="mouth"><path stroke="black" stroke-width="1" d="M135.5 387 C168.5 374, 331.5 374, 364.5 387   M135.5 387 C185.5 251, 314.5 251, 364.5 387" fill="white"/></svg>
    <svg id="eye"><path stroke="black" stroke-width="1" d="M264 142 C264 63, 339 131, 353 131   C367 131, 428 92, 428 144   C428 173, 341 272, 298 272   C224 272, 264 162, 264 142  Z " fill="white"/><path stroke="black" stroke-width="1" d="M236 142 C236 63, 161 131, 147 131   C133 131, 72 92, 72 144   C72 173, 159 272, 202 272   C276 272, 236 162, 236 142  Z " fill="white"/><path stroke="black" stroke-width="0" d="M314 176 C314 156, 324 146, 344 146   C364 146, 374 156, 374 176   C374 196, 364 206, 344 206   C324 206, 314 196, 314 176  Z " fill="black"/><path stroke="black" stroke-width="0" d="M186 176 C186 156, 176 146, 156 146   C136 146, 126 156, 126 176   C126 196, 136 206, 156 206   C176 206, 186 196, 186 176  Z " fill="black"/></svg>

  </svg>