<?xml version="1.0" encoding="UTF-8" standalone="no"?><svg xmlns="http://www.w3.org/2000/svg" id="montage">
    <svg id="ear"/>
    <circle id="countor" stroke="black" cx="250" cy="250" r="200" stroke-width="3" fill="white"/>
    <svg id="mouth"><path stroke="black" stroke-width="1" d="M188.5 312 C236.5 280, 263.5 280, 311.5 312   M188.5 312 C68.5 165, 431.5 165, 311.5 312" fill="white"/></svg>
    <svg id="eye"><path stroke="black" stroke-width="1" d="M248.5 225 C248.5 189, 242.5 115, 296.5 115   C324.5 115, 398.5 198, 398.5 221   C398.5 293, 396.5 269, 372.5 269   C314.5 269, 248.5 243, 248.5 225  Z " fill="white"/><path stroke="black" stroke-width="1" d="M251.5 225 C251.5 189, 257.5 115, 203.5 115   C175.5 115, 101.5 198, 101.5 221   C101.5 293, 103.5 269, 127.5 269   C185.5 269, 251.5 243, 251.5 225  Z " fill="white"/><path stroke="black" stroke-width="0" d="M313.5 219 C313.5 199, 323.5 189, 343.5 189   C363.5 189, 373.5 199, 373.5 219   C373.5 239, 363.5 249, 343.5 249   C323.5 249, 313.5 239, 313.5 219  Z " fill="black"/><path stroke="black" stroke-width="0" d="M186.5 219 C186.5 199, 176.5 189, 156.5 189   C136.5 189, 126.5 199, 126.5 219   C126.5 239, 136.5 249, 156.5 249   C176.5 249, 186.5 239, 186.5 219  Z " fill="black"/></svg>

  </svg>