<?xml version="1.0" encoding="UTF-8" standalone="no"?><svg xmlns="http://www.w3.org/2000/svg" id="montage">
    <svg id="ear"/>
    <circle id="countor" stroke="black" cx="250" cy="250" r="200" stroke-width="3" fill="white"/>
    <svg id="mouth"><path stroke="black" stroke-width="1" d="M139 428 C119 474, 381 474, 361 428   M139 428 C161 298, 339 298, 361 428" fill="white"/></svg>
    <svg id="eye"><path stroke="black" stroke-width="1" d="M261.5 170 C261.5 132, 273.5 111, 331.5 111   C351.5 111, 407.5 187, 407.5 209   C407.5 263, 356.5 270, 317.5 270   C307.5 270, 261.5 245, 261.5 170  Z " fill="white"/><path stroke="black" stroke-width="1" d="M238.5 170 C238.5 132, 226.5 111, 168.5 111   C148.5 111, 92.5 187, 92.5 209   C92.5 263, 143.5 270, 182.5 270   C192.5 270, 238.5 245, 238.5 170  Z " fill="white"/><path stroke="black" stroke-width="0" d="M313.5 173 C313.5 153, 323.5 143, 343.5 143   C363.5 143, 373.5 153, 373.5 173   C373.5 193, 363.5 203, 343.5 203   C323.5 203, 313.5 193, 313.5 173  Z " fill="black"/><path stroke="black" stroke-width="0" d="M186.5 173 C186.5 153, 176.5 143, 156.5 143   C136.5 143, 126.5 153, 126.5 173   C126.5 193, 136.5 203, 156.5 203   C176.5 203, 186.5 193, 186.5 173  Z " fill="black"/></svg>

  </svg>