<?xml version="1.0" encoding="UTF-8" standalone="no"?><svg xmlns="http://www.w3.org/2000/svg" id="montage">
    <svg id="ear"/>
    <circle id="countor" stroke="black" cx="250" cy="250" r="200" stroke-width="3" fill="white"/>
    <svg id="mouth"><path stroke="black" stroke-width="1" d="M192.5 373 C198.5 379, 301.5 379, 307.5 373   M192.5 373 C239.5 411, 260.5 411, 307.5 373" fill="white"/></svg>
    <svg id="eye"><path stroke="black" stroke-width="1" d="M264.5 108 C264.5 86, 353.5 96, 369.5 96   C433.5 96, 445.5 174, 445.5 186   C445.5 214, 437.5 250, 361.5 250   C328.5 250, 264.5 162, 264.5 108  Z " fill="white"/><path stroke="black" stroke-width="1" d="M235.5 108 C235.5 86, 146.5 96, 130.5 96   C66.5 96, 54.5 174, 54.5 186   C54.5 214, 62.5 250, 138.5 250   C171.5 250, 235.5 162, 235.5 108  Z " fill="white"/><path stroke="black" stroke-width="0" d="M315.5 138 C315.5 118, 325.5 108, 345.5 108   C365.5 108, 375.5 118, 375.5 138   C375.5 158, 365.5 168, 345.5 168   C325.5 168, 315.5 158, 315.5 138  Z " fill="black"/><path stroke="black" stroke-width="0" d="M184.5 138 C184.5 118, 174.5 108, 154.5 108   C134.5 108, 124.5 118, 124.5 138   C124.5 158, 134.5 168, 154.5 168   C174.5 168, 184.5 158, 184.5 138  Z " fill="black"/></svg>

  </svg>