<?xml version="1.0" encoding="UTF-8" standalone="no"?><svg xmlns="http://www.w3.org/2000/svg" id="montage">
    <svg id="ear"/>
    <circle id="countor" stroke="black" cx="250" cy="250" r="200" stroke-width="3" fill="white"/>
    <svg id="mouth"><path stroke="black" stroke-width="1" d="M124 344 C118 385, 382 385, 376 344   M124 344 C70 420, 430 420, 376 344" fill="white"/></svg>
    <svg id="eye"><path stroke="black" stroke-width="1" d="M275 92 C275 32, 316 43, 328 43   C385 43, 420 143, 420 156   C420 178, 412 225, 337 225   C309 225, 275 156, 275 92  Z " fill="white"/><path stroke="black" stroke-width="1" d="M225 92 C225 32, 184 43, 172 43   C115 43, 80 143, 80 156   C80 178, 88 225, 163 225   C191 225, 225 156, 225 92  Z " fill="white"/><path stroke="black" stroke-width="0" d="M313 136 C313 116, 323 106, 343 106   C363 106, 373 116, 373 136   C373 156, 363 166, 343 166   C323 166, 313 156, 313 136  Z " fill="black"/><path stroke="black" stroke-width="0" d="M187 136 C187 116, 177 106, 157 106   C137 106, 127 116, 127 136   C127 156, 137 166, 157 166   C177 166, 187 156, 187 136  Z " fill="black"/></svg>

  </svg>