<?xml version="1.0" encoding="UTF-8" standalone="no"?><svg xmlns="http://www.w3.org/2000/svg" id="montage">
    <svg id="ear"/>
    <circle id="countor" stroke="black" cx="250" cy="250" r="200" stroke-width="3" fill="white"/>
    <svg id="mouth"><path stroke="black" stroke-width="1" d="M121 307 C106 345, 394 345, 379 307   M121 307 C189 312, 311 312, 379 307" fill="white"/></svg>
    <svg id="eye"><path stroke="black" stroke-width="1" d="M269 164 C269 108, 268 72, 302 72   C321 72, 452 119, 452 137   C452 213, 434 273, 363 273   C346 273, 269 189, 269 164  Z " fill="white"/><path stroke="black" stroke-width="1" d="M231 164 C231 108, 232 72, 198 72   C179 72, 48 119, 48 137   C48 213, 66 273, 137 273   C154 273, 231 189, 231 164  Z " fill="white"/><path stroke="black" stroke-width="0" d="M313 169 C313 149, 323 139, 343 139   C363 139, 373 149, 373 169   C373 189, 363 199, 343 199   C323 199, 313 189, 313 169  Z " fill="black"/><path stroke="black" stroke-width="0" d="M187 169 C187 149, 177 139, 157 139   C137 139, 127 149, 127 169   C127 189, 137 199, 157 199   C177 199, 187 189, 187 169  Z " fill="black"/></svg>

  </svg>