<?xml version="1.0" encoding="UTF-8" standalone="no"?><svg xmlns="http://www.w3.org/2000/svg" id="montage">
    <svg id="ear"/>
    <circle id="countor" stroke="black" cx="250" cy="250" r="200" stroke-width="3" fill="white"/>
    <svg id="mouth"><path stroke="black" stroke-width="1" d="M173 325 C196 321, 304 321, 327 325   M173 325 C38 195, 462 195, 327 325" fill="white"/></svg>
    <svg id="eye"><path stroke="black" stroke-width="1" d="M249.5 269 C249.5 248, 299.5 156, 310.5 156   C366.5 156, 425.5 223, 425.5 243   C425.5 310, 306.5 269, 296.5 269   C264.5 269, 249.5 339, 249.5 269  Z " fill="white"/><path stroke="black" stroke-width="1" d="M250.5 269 C250.5 248, 200.5 156, 189.5 156   C133.5 156, 74.5 223, 74.5 243   C74.5 310, 193.5 269, 203.5 269   C235.5 269, 250.5 339, 250.5 269  Z " fill="white"/><path stroke="black" stroke-width="0" d="M313.5 227 C313.5 207, 323.5 197, 343.5 197   C363.5 197, 373.5 207, 373.5 227   C373.5 247, 363.5 257, 343.5 257   C323.5 257, 313.5 247, 313.5 227  Z " fill="black"/><path stroke="black" stroke-width="0" d="M186.5 227 C186.5 207, 176.5 197, 156.5 197   C136.5 197, 126.5 207, 126.5 227   C126.5 247, 136.5 257, 156.5 257   C176.5 257, 186.5 247, 186.5 227  Z " fill="black"/></svg>

  </svg>