<?xml version="1.0" encoding="UTF-8" standalone="no"?><svg xmlns="http://www.w3.org/2000/svg" id="montage">
    <svg id="ear"/>
    <circle id="countor" stroke="black" cx="250" cy="250" r="200" stroke-width="3" fill="white"/>
    <svg id="mouth"><path stroke="black" stroke-width="1" d="M226 389 C245 359, 255 359, 274 389   M226 389 C157 363, 343 363, 274 389" fill="white"/></svg>
    <svg id="eye"><path stroke="black" stroke-width="1" d="M237.5 205 C237.5 176, 287.5 127, 353.5 127   C379.5 127, 420.5 113, 420.5 184   C420.5 204, 389.5 266, 349.5 266   C325.5 266, 237.5 274, 237.5 205  Z " fill="white"/><path stroke="black" stroke-width="1" d="M262.5 205 C262.5 176, 212.5 127, 146.5 127   C120.5 127, 79.5 113, 79.5 184   C79.5 204, 110.5 266, 150.5 266   C174.5 266, 262.5 274, 262.5 205  Z " fill="white"/><path stroke="black" stroke-width="0" d="M319.5 182 C319.5 162, 329.5 152, 349.5 152   C369.5 152, 379.5 162, 379.5 182   C379.5 202, 369.5 212, 349.5 212   C329.5 212, 319.5 202, 319.5 182  Z " fill="black"/><path stroke="black" stroke-width="0" d="M180.5 182 C180.5 162, 170.5 152, 150.5 152   C130.5 152, 120.5 162, 120.5 182   C120.5 202, 130.5 212, 150.5 212   C170.5 212, 180.5 202, 180.5 182  Z " fill="black"/></svg>

  </svg>