<?xml version="1.0" encoding="UTF-8" standalone="no"?><svg xmlns="http://www.w3.org/2000/svg" id="montage">
    <svg id="ear"/>
    <circle id="countor" stroke="black" cx="250" cy="250" r="200" stroke-width="3" fill="white"/>
    <svg id="mouth"><path stroke="black" stroke-width="1" d="M159 397 C114 438, 386 438, 341 397   M159 397 C252 247, 248 247, 341 397" fill="white"/></svg>
    <svg id="eye"><path stroke="black" stroke-width="1" d="M234.5 150 C234.5 125, 280.5 21, 351.5 21   C369.5 21, 438.5 119, 438.5 134   C438.5 201, 376.5 217, 301.5 217   C269.5 217, 234.5 191, 234.5 150  Z " fill="white"/><path stroke="black" stroke-width="1" d="M265.5 150 C265.5 125, 219.5 21, 148.5 21   C130.5 21, 61.5 119, 61.5 134   C61.5 201, 123.5 217, 198.5 217   C230.5 217, 265.5 191, 265.5 150  Z " fill="white"/><path stroke="black" stroke-width="0" d="M313.5 141 C313.5 121, 323.5 111, 343.5 111   C363.5 111, 373.5 121, 373.5 141   C373.5 161, 363.5 171, 343.5 171   C323.5 171, 313.5 161, 313.5 141  Z " fill="black"/><path stroke="black" stroke-width="0" d="M186.5 141 C186.5 121, 176.5 111, 156.5 111   C136.5 111, 126.5 121, 126.5 141   C126.5 161, 136.5 171, 156.5 171   C176.5 171, 186.5 161, 186.5 141  Z " fill="black"/></svg>

  </svg>