<?xml version="1.0" encoding="UTF-8" standalone="no"?><svg xmlns="http://www.w3.org/2000/svg" id="montage">
    <svg id="ear"/>
    <circle id="countor" stroke="black" cx="250" cy="250" r="200" stroke-width="3" fill="white"/>
    <svg id="mouth"><path stroke="black" stroke-width="1" d="M191 354 C175 359, 325 359, 309 354   M191 354 C157 498, 343 498, 309 354" fill="white"/></svg>
    <svg id="eye"><path stroke="black" stroke-width="1" d="M276.5 238 C276.5 208, 322.5 161, 350.5 161   C424.5 161, 456.5 115, 456.5 193   C456.5 239, 367.5 276, 320.5 276   C280.5 276, 276.5 284, 276.5 238  Z " fill="white"/><path stroke="black" stroke-width="1" d="M223.5 238 C223.5 208, 177.5 161, 149.5 161   C75.5 161, 43.5 115, 43.5 193   C43.5 239, 132.5 276, 179.5 276   C219.5 276, 223.5 284, 223.5 238  Z " fill="white"/><path stroke="black" stroke-width="0" d="M313.5 206 C313.5 186, 323.5 176, 343.5 176   C363.5 176, 373.5 186, 373.5 206   C373.5 226, 363.5 236, 343.5 236   C323.5 236, 313.5 226, 313.5 206  Z " fill="black"/><path stroke="black" stroke-width="0" d="M186.5 206 C186.5 186, 176.5 176, 156.5 176   C136.5 176, 126.5 186, 126.5 206   C126.5 226, 136.5 236, 156.5 236   C176.5 236, 186.5 226, 186.5 206  Z " fill="black"/></svg>

  </svg>