<?xml version="1.0" encoding="UTF-8" standalone="no"?><svg xmlns="http://www.w3.org/2000/svg" id="montage">
    <svg id="ear"/>
    <circle id="countor" stroke="black" cx="250" cy="250" r="200" stroke-width="3" fill="white"/>
    <svg id="mouth"><path stroke="black" stroke-width="1" d="M139.5 405 C128.5 415, 371.5 415, 360.5 405   M139.5 405 C109.5 411, 390.5 411, 360.5 405" fill="white"/></svg>
    <svg id="eye"><path stroke="black" stroke-width="1" d="M256 240 C256 169, 330 143, 344 143   C395 143, 449 178, 449 249   C449 319, 430 263, 356 263   C314 263, 256 273, 256 240  Z " fill="white"/><path stroke="black" stroke-width="1" d="M244 240 C244 169, 170 143, 156 143   C105 143, 51 178, 51 249   C51 319, 70 263, 144 263   C186 263, 244 273, 244 240  Z " fill="white"/><path stroke="black" stroke-width="0" d="M320 222 C320 202, 330 192, 350 192   C370 192, 380 202, 380 222   C380 242, 370 252, 350 252   C330 252, 320 242, 320 222  Z " fill="black"/><path stroke="black" stroke-width="0" d="M180 222 C180 202, 170 192, 150 192   C130 192, 120 202, 120 222   C120 242, 130 252, 150 252   C170 252, 180 242, 180 222  Z " fill="black"/></svg>

  </svg>