<?xml version="1.0" encoding="UTF-8" standalone="no"?><svg xmlns="http://www.w3.org/2000/svg" id="montage">
    <svg id="ear"/>
    <circle id="countor" stroke="black" cx="250" cy="250" r="200" stroke-width="3" fill="white"/>
    <svg id="mouth"><path stroke="black" stroke-width="1" d="M132 278 C135 235, 365 235, 368 278   M132 278 C185 244, 315 244, 368 278" fill="white"/></svg>
    <svg id="eye"><path stroke="black" stroke-width="1" d="M244 144 C244 104, 356 88, 386 88   C450 88, 425 54, 425 125   C425 171, 377 206, 311 206   C271 206, 244 219, 244 144  Z " fill="white"/><path stroke="black" stroke-width="1" d="M256 144 C256 104, 144 88, 114 88   C50 88, 75 54, 75 125   C75 171, 123 206, 189 206   C229 206, 256 219, 256 144  Z " fill="white"/><path stroke="black" stroke-width="0" d="M315 133 C315 113, 325 103, 345 103   C365 103, 375 113, 375 133   C375 153, 365 163, 345 163   C325 163, 315 153, 315 133  Z " fill="black"/><path stroke="black" stroke-width="0" d="M185 133 C185 113, 175 103, 155 103   C135 103, 125 113, 125 133   C125 153, 135 163, 155 163   C175 163, 185 153, 185 133  Z " fill="black"/></svg>

  </svg>