<?xml version="1.0" encoding="UTF-8" standalone="no"?><svg xmlns="http://www.w3.org/2000/svg" id="montage">
    <svg id="ear"/>
    <circle id="countor" stroke="black" cx="250" cy="250" r="200" stroke-width="3" fill="white"/>
    <svg id="mouth"><path stroke="black" stroke-width="1" d="M209.5 327 C259.5 329, 240.5 329, 290.5 327   M209.5 327 C325.5 425, 174.5 425, 290.5 327" fill="white"/></svg>
    <svg id="eye"><path stroke="black" stroke-width="1" d="M248.5 195 C248.5 179, 274.5 120, 341.5 120   C377.5 120, 391.5 98, 391.5 165   C391.5 184, 367.5 263, 324.5 263   C270.5 263, 248.5 249, 248.5 195  Z " fill="white"/><path stroke="black" stroke-width="1" d="M251.5 195 C251.5 179, 225.5 120, 158.5 120   C122.5 120, 108.5 98, 108.5 165   C108.5 184, 132.5 263, 175.5 263   C229.5 263, 251.5 249, 251.5 195  Z " fill="white"/><path stroke="black" stroke-width="0" d="M311.5 215 C311.5 195, 321.5 185, 341.5 185   C361.5 185, 371.5 195, 371.5 215   C371.5 235, 361.5 245, 341.5 245   C321.5 245, 311.5 235, 311.5 215  Z " fill="black"/><path stroke="black" stroke-width="0" d="M188.5 215 C188.5 195, 178.5 185, 158.5 185   C138.5 185, 128.5 195, 128.5 215   C128.5 235, 138.5 245, 158.5 245   C178.5 245, 188.5 235, 188.5 215  Z " fill="black"/></svg>

  </svg>