<?xml version="1.0" encoding="UTF-8" standalone="no"?><svg xmlns="http://www.w3.org/2000/svg" id="montage">
    <svg id="ear"/>
    <circle id="countor" stroke="black" cx="250" cy="250" r="200" stroke-width="3" fill="white"/>
    <svg id="mouth"><path stroke="black" stroke-width="1" d="M155 399 C159 356, 341 356, 345 399   M155 399 C104 392, 396 392, 345 399" fill="white"/></svg>
    <svg id="eye"><path stroke="black" stroke-width="1" d="M250 112 C250 47, 331 49, 379 49   C411 49, 452 46, 452 126   C452 136, 388 243, 350 243   C274 243, 250 154, 250 112  Z " fill="white"/><path stroke="black" stroke-width="1" d="M250 112 C250 47, 169 49, 121 49   C89 49, 48 46, 48 126   C48 136, 112 243, 150 243   C226 243, 250 154, 250 112  Z " fill="white"/><path stroke="black" stroke-width="0" d="M317 150 C317 130, 327 120, 347 120   C367 120, 377 130, 377 150   C377 170, 367 180, 347 180   C327 180, 317 170, 317 150  Z " fill="black"/><path stroke="black" stroke-width="0" d="M183 150 C183 130, 173 120, 153 120   C133 120, 123 130, 123 150   C123 170, 133 180, 153 180   C173 180, 183 170, 183 150  Z " fill="black"/></svg>

  </svg>