<?xml version="1.0" encoding="UTF-8" standalone="no"?><svg xmlns="http://www.w3.org/2000/svg" id="montage">
    <svg id="ear"/>
    <circle id="countor" stroke="black" cx="250" cy="250" r="200" stroke-width="3" fill="white"/>
    <svg id="mouth"><path stroke="black" stroke-width="1" d="M215.5 399 C256.5 418, 243.5 418, 284.5 399   M215.5 399 C264.5 249, 235.5 249, 284.5 399" fill="white"/></svg>
    <svg id="eye"><path stroke="black" stroke-width="1" d="M248 204 C248 185, 316 97, 332 97   C389 97, 445 65, 445 123   C445 200, 357 257, 332 257   C315 257, 248 237, 248 204  Z " fill="white"/><path stroke="black" stroke-width="1" d="M252 204 C252 185, 184 97, 168 97   C111 97, 55 65, 55 123   C55 200, 143 257, 168 257   C185 257, 252 237, 252 204  Z " fill="white"/><path stroke="black" stroke-width="0" d="M311 158 C311 138, 321 128, 341 128   C361 128, 371 138, 371 158   C371 178, 361 188, 341 188   C321 188, 311 178, 311 158  Z " fill="black"/><path stroke="black" stroke-width="0" d="M189 158 C189 138, 179 128, 159 128   C139 128, 129 138, 129 158   C129 178, 139 188, 159 188   C179 188, 189 178, 189 158  Z " fill="black"/></svg>

  </svg>