<?xml version="1.0" encoding="UTF-8" standalone="no"?><svg xmlns="http://www.w3.org/2000/svg" id="montage">
    <svg id="ear"/>
    <circle id="countor" stroke="black" cx="250" cy="250" r="200" stroke-width="3" fill="white"/>
    <svg id="mouth"><path stroke="black" stroke-width="1" d="M158.5 294 C175.5 336, 324.5 336, 341.5 294   M158.5 294 C98.5 242, 401.5 242, 341.5 294" fill="white"/></svg>
    <svg id="eye"><path stroke="black" stroke-width="1" d="M263.5 183 C263.5 125, 266.5 99, 335.5 99   C403.5 99, 397.5 99, 397.5 135   C397.5 156, 417.5 243, 381.5 243   C315.5 243, 263.5 220, 263.5 183  Z " fill="white"/><path stroke="black" stroke-width="1" d="M236.5 183 C236.5 125, 233.5 99, 164.5 99   C96.5 99, 102.5 99, 102.5 135   C102.5 156, 82.5 243, 118.5 243   C184.5 243, 236.5 220, 236.5 183  Z " fill="white"/><path stroke="black" stroke-width="0" d="M313.5 183 C313.5 163, 323.5 153, 343.5 153   C363.5 153, 373.5 163, 373.5 183   C373.5 203, 363.5 213, 343.5 213   C323.5 213, 313.5 203, 313.5 183  Z " fill="black"/><path stroke="black" stroke-width="0" d="M186.5 183 C186.5 163, 176.5 153, 156.5 153   C136.5 153, 126.5 163, 126.5 183   C126.5 203, 136.5 213, 156.5 213   C176.5 213, 186.5 203, 186.5 183  Z " fill="black"/></svg>

  </svg>