<?xml version="1.0" encoding="UTF-8" standalone="no"?><svg xmlns="http://www.w3.org/2000/svg" id="montage">
    <svg id="ear"/>
    <circle id="countor" stroke="black" cx="250" cy="250" r="200" stroke-width="3" fill="white"/>
    <svg id="mouth"><path stroke="black" stroke-width="1" d="M124.5 405 C159.5 439, 340.5 439, 375.5 405   M124.5 405 C90.5 331, 409.5 331, 375.5 405" fill="white"/></svg>
    <svg id="eye"><path stroke="black" stroke-width="1" d="M303 164 C303 139, 328 30, 340 30   C388 30, 386 118, 386 173   C386 196, 342 195, 309 195   C287 195, 303 239, 303 164  Z " fill="white"/><path stroke="black" stroke-width="1" d="M197 164 C197 139, 172 30, 160 30   C112 30, 114 118, 114 173   C114 196, 158 195, 191 195   C213 195, 197 239, 197 164  Z " fill="white"/><path stroke="black" stroke-width="0" d="M313 132 C313 112, 323 102, 343 102   C363 102, 373 112, 373 132   C373 152, 363 162, 343 162   C323 162, 313 152, 313 132  Z " fill="black"/><path stroke="black" stroke-width="0" d="M187 132 C187 112, 177 102, 157 102   C137 102, 127 112, 127 132   C127 152, 137 162, 157 162   C177 162, 187 152, 187 132  Z " fill="black"/></svg>

  </svg>