<?xml version="1.0" encoding="UTF-8" standalone="no"?><svg xmlns="http://www.w3.org/2000/svg" id="montage">
    <svg id="ear"/>
    <circle id="countor" stroke="black" cx="250" cy="250" r="200" stroke-width="3" fill="white"/>
    <svg id="mouth"><path stroke="black" stroke-width="1" d="M198.5 293 C200.5 253, 299.5 253, 301.5 293   M198.5 293 C168.5 335, 331.5 335, 301.5 293" fill="white"/></svg>
    <svg id="eye"><path stroke="black" stroke-width="1" d="M272.5 89 C272.5 66, 359.5 35, 382.5 35   C406.5 35, 463.5 79, 463.5 126   C463.5 145, 343.5 230, 315.5 230   C287.5 230, 272.5 150, 272.5 89  Z " fill="white"/><path stroke="black" stroke-width="1" d="M227.5 89 C227.5 66, 140.5 35, 117.5 35   C93.5 35, 36.5 79, 36.5 126   C36.5 145, 156.5 230, 184.5 230   C212.5 230, 227.5 150, 227.5 89  Z " fill="white"/><path stroke="black" stroke-width="0" d="M317.5 131 C317.5 111, 327.5 101, 347.5 101   C367.5 101, 377.5 111, 377.5 131   C377.5 151, 367.5 161, 347.5 161   C327.5 161, 317.5 151, 317.5 131  Z " fill="black"/><path stroke="black" stroke-width="0" d="M182.5 131 C182.5 111, 172.5 101, 152.5 101   C132.5 101, 122.5 111, 122.5 131   C122.5 151, 132.5 161, 152.5 161   C172.5 161, 182.5 151, 182.5 131  Z " fill="black"/></svg>

  </svg>