<?xml version="1.0" encoding="UTF-8" standalone="no"?><svg xmlns="http://www.w3.org/2000/svg" id="montage">
    <svg id="ear"/>
    <circle id="countor" stroke="black" cx="250" cy="250" r="200" stroke-width="3" fill="white"/>
    <svg id="mouth"><path stroke="black" stroke-width="1" d="M168 355 C162 310, 338 310, 332 355   M168 355 C311 436, 189 436, 332 355" fill="white"/></svg>
    <svg id="eye"><path stroke="black" stroke-width="1" d="M298.5 174 C298.5 126, 290.5 40, 348.5 40   C402.5 40, 447.5 101, 447.5 131   C447.5 175, 408.5 196, 328.5 196   C273.5 196, 298.5 192, 298.5 174  Z " fill="white"/><path stroke="black" stroke-width="1" d="M201.5 174 C201.5 126, 209.5 40, 151.5 40   C97.5 40, 52.5 101, 52.5 131   C52.5 175, 91.5 196, 171.5 196   C226.5 196, 201.5 192, 201.5 174  Z " fill="white"/><path stroke="black" stroke-width="0" d="M317.5 133 C317.5 113, 327.5 103, 347.5 103   C367.5 103, 377.5 113, 377.5 133   C377.5 153, 367.5 163, 347.5 163   C327.5 163, 317.5 153, 317.5 133  Z " fill="black"/><path stroke="black" stroke-width="0" d="M182.5 133 C182.5 113, 172.5 103, 152.5 103   C132.5 103, 122.5 113, 122.5 133   C122.5 153, 132.5 163, 152.5 163   C172.5 163, 182.5 153, 182.5 133  Z " fill="black"/></svg>

  </svg>