<?xml version="1.0" encoding="UTF-8" standalone="no"?><svg xmlns="http://www.w3.org/2000/svg" id="montage">
    <svg id="ear"/>
    <circle id="countor" stroke="black" cx="250" cy="250" r="200" stroke-width="3" fill="white"/>
    <svg id="mouth"><path stroke="black" stroke-width="1" d="M235.5 273 C229.5 265, 270.5 265, 264.5 273   M235.5 273 C187.5 223, 312.5 223, 264.5 273" fill="white"/></svg>
    <svg id="eye"><path stroke="black" stroke-width="1" d="M272.5 210 C272.5 130, 302.5 141, 337.5 141   C377.5 141, 409.5 121, 409.5 154   C409.5 210, 384.5 229, 361.5 229   C336.5 229, 272.5 229, 272.5 210  Z " fill="white"/><path stroke="black" stroke-width="1" d="M227.5 210 C227.5 130, 197.5 141, 162.5 141   C122.5 141, 90.5 121, 90.5 154   C90.5 210, 115.5 229, 138.5 229   C163.5 229, 227.5 229, 227.5 210  Z " fill="white"/><path stroke="black" stroke-width="0" d="M316.5 182 C316.5 162, 326.5 152, 346.5 152   C366.5 152, 376.5 162, 376.5 182   C376.5 202, 366.5 212, 346.5 212   C326.5 212, 316.5 202, 316.5 182  Z " fill="black"/><path stroke="black" stroke-width="0" d="M183.5 182 C183.5 162, 173.5 152, 153.5 152   C133.5 152, 123.5 162, 123.5 182   C123.5 202, 133.5 212, 153.5 212   C173.5 212, 183.5 202, 183.5 182  Z " fill="black"/></svg>

  </svg>