<?xml version="1.0" encoding="UTF-8" standalone="no"?><svg xmlns="http://www.w3.org/2000/svg" id="montage">
    <svg id="ear"/>
    <circle id="countor" stroke="black" cx="250" cy="250" r="200" stroke-width="3" fill="white"/>
    <svg id="mouth"><path stroke="black" stroke-width="1" d="M195.5 276 C222.5 230, 277.5 230, 304.5 276   M195.5 276 C164.5 404, 335.5 404, 304.5 276" fill="white"/></svg>
    <svg id="eye"><path stroke="black" stroke-width="1" d="M271.5 199 C271.5 148, 245.5 146, 307.5 146   C339.5 146, 441.5 157, 441.5 221   C441.5 275, 377.5 299, 340.5 299   C283.5 299, 271.5 248, 271.5 199  Z " fill="white"/><path stroke="black" stroke-width="1" d="M228.5 199 C228.5 148, 254.5 146, 192.5 146   C160.5 146, 58.5 157, 58.5 221   C58.5 275, 122.5 299, 159.5 299   C216.5 299, 228.5 248, 228.5 199  Z " fill="white"/><path stroke="black" stroke-width="0" d="M316.5 228 C316.5 208, 326.5 198, 346.5 198   C366.5 198, 376.5 208, 376.5 228   C376.5 248, 366.5 258, 346.5 258   C326.5 258, 316.5 248, 316.5 228  Z " fill="black"/><path stroke="black" stroke-width="0" d="M183.5 228 C183.5 208, 173.5 198, 153.5 198   C133.5 198, 123.5 208, 123.5 228   C123.5 248, 133.5 258, 153.5 258   C173.5 258, 183.5 248, 183.5 228  Z " fill="black"/></svg>

  </svg>