<?xml version="1.0" encoding="UTF-8" standalone="no"?><svg xmlns="http://www.w3.org/2000/svg" id="montage">
    <svg id="ear"/>
    <circle id="countor" stroke="black" cx="250" cy="250" r="200" stroke-width="3" fill="white"/>
    <svg id="mouth"><path stroke="black" stroke-width="1" d="M235 327 C207 319, 293 319, 265 327   M235 327 C100 339, 400 339, 265 327" fill="white"/></svg>
    <svg id="eye"><path stroke="black" stroke-width="1" d="M251.5 260 C251.5 225, 236.5 119, 312.5 119   C381.5 119, 400.5 152, 400.5 192   C400.5 253, 423.5 271, 368.5 271   C289.5 271, 251.5 315, 251.5 260  Z " fill="white"/><path stroke="black" stroke-width="1" d="M248.5 260 C248.5 225, 263.5 119, 187.5 119   C118.5 119, 99.5 152, 99.5 192   C99.5 253, 76.5 271, 131.5 271   C210.5 271, 248.5 315, 248.5 260  Z " fill="white"/><path stroke="black" stroke-width="0" d="M313.5 220 C313.5 200, 323.5 190, 343.5 190   C363.5 190, 373.5 200, 373.5 220   C373.5 240, 363.5 250, 343.5 250   C323.5 250, 313.5 240, 313.5 220  Z " fill="black"/><path stroke="black" stroke-width="0" d="M186.5 220 C186.5 200, 176.5 190, 156.5 190   C136.5 190, 126.5 200, 126.5 220   C126.5 240, 136.5 250, 156.5 250   C176.5 250, 186.5 240, 186.5 220  Z " fill="black"/></svg>

  </svg>