<?xml version="1.0" encoding="UTF-8" standalone="no"?><svg xmlns="http://www.w3.org/2000/svg" id="montage">
    <svg id="ear"/>
    <circle id="countor" stroke="black" cx="250" cy="250" r="200" stroke-width="3" fill="white"/>
    <svg id="mouth"><path stroke="black" stroke-width="1" d="M228.5 371 C247.5 373, 252.5 373, 271.5 371   M228.5 371 C136.5 221, 363.5 221, 271.5 371" fill="white"/></svg>
    <svg id="eye"><path stroke="black" stroke-width="1" d="M296 155 C296 103, 318 82, 398 82   C409 82, 462 62, 462 84   C462 155, 427 211, 353 211   C305 211, 296 185, 296 155  Z " fill="white"/><path stroke="black" stroke-width="1" d="M204 155 C204 103, 182 82, 102 82   C91 82, 38 62, 38 84   C38 155, 73 211, 147 211   C195 211, 204 185, 204 155  Z " fill="white"/><path stroke="black" stroke-width="0" d="M318 130 C318 110, 328 100, 348 100   C368 100, 378 110, 378 130   C378 150, 368 160, 348 160   C328 160, 318 150, 318 130  Z " fill="black"/><path stroke="black" stroke-width="0" d="M182 130 C182 110, 172 100, 152 100   C132 100, 122 110, 122 130   C122 150, 132 160, 152 160   C172 160, 182 150, 182 130  Z " fill="black"/></svg>

  </svg>