<?xml version="1.0" encoding="UTF-8" standalone="no"?><svg xmlns="http://www.w3.org/2000/svg" id="montage">
    <svg id="ear"/>
    <circle id="countor" stroke="black" cx="250" cy="250" r="200" stroke-width="3" fill="white"/>
    <svg id="mouth"><path stroke="black" stroke-width="1" d="M127 299 C144 298, 356 298, 373 299   M127 299 C182 353, 318 353, 373 299" fill="white"/></svg>
    <svg id="eye"><path stroke="black" stroke-width="1" d="M303.5 212 C303.5 134, 323.5 77, 366.5 77   C396.5 77, 460.5 159, 460.5 181   C460.5 219, 322.5 302, 292.5 302   C252.5 302, 303.5 238, 303.5 212  Z " fill="white"/><path stroke="black" stroke-width="1" d="M196.5 212 C196.5 134, 176.5 77, 133.5 77   C103.5 77, 39.5 159, 39.5 181   C39.5 219, 177.5 302, 207.5 302   C247.5 302, 196.5 238, 196.5 212  Z " fill="white"/><path stroke="black" stroke-width="0" d="M312.5 188 C312.5 168, 322.5 158, 342.5 158   C362.5 158, 372.5 168, 372.5 188   C372.5 208, 362.5 218, 342.5 218   C322.5 218, 312.5 208, 312.5 188  Z " fill="black"/><path stroke="black" stroke-width="0" d="M187.5 188 C187.5 168, 177.5 158, 157.5 158   C137.5 158, 127.5 168, 127.5 188   C127.5 208, 137.5 218, 157.5 218   C177.5 218, 187.5 208, 187.5 188  Z " fill="black"/></svg>

  </svg>