<?xml version="1.0" encoding="UTF-8" standalone="no"?><svg xmlns="http://www.w3.org/2000/svg" id="montage">
    <svg id="ear"/>
    <circle id="countor" stroke="black" cx="250" cy="250" r="200" stroke-width="3" fill="white"/>
    <svg id="mouth"><path stroke="black" stroke-width="1" d="M130 394 C113 441, 387 441, 370 394   M130 394 C64 252, 436 252, 370 394" fill="white"/></svg>
    <svg id="eye"><path stroke="black" stroke-width="1" d="M306 177 C306 115, 263 75, 320 75   C365 75, 462 121, 462 137   C462 202, 398 238, 343 238   C273 238, 306 248, 306 177  Z " fill="white"/><path stroke="black" stroke-width="1" d="M194 177 C194 115, 237 75, 180 75   C135 75, 38 121, 38 137   C38 202, 102 238, 157 238   C227 238, 194 248, 194 177  Z " fill="white"/><path stroke="black" stroke-width="0" d="M312 152 C312 132, 322 122, 342 122   C362 122, 372 132, 372 152   C372 172, 362 182, 342 182   C322 182, 312 172, 312 152  Z " fill="black"/><path stroke="black" stroke-width="0" d="M188 152 C188 132, 178 122, 158 122   C138 122, 128 132, 128 152   C128 172, 138 182, 158 182   C178 182, 188 172, 188 152  Z " fill="black"/></svg>

  </svg>