<?xml version="1.0" encoding="UTF-8" standalone="no"?><svg xmlns="http://www.w3.org/2000/svg" id="montage">
    <svg id="ear"/>
    <circle id="countor" stroke="black" cx="250" cy="250" r="200" stroke-width="3" fill="white"/>
    <svg id="mouth"><path stroke="black" stroke-width="1" d="M195.5 313 C154.5 291, 345.5 291, 304.5 313   M195.5 313 C119.5 240, 380.5 240, 304.5 313" fill="white"/></svg>
    <svg id="eye"><path stroke="black" stroke-width="1" d="M277 126 C277 52, 303 112, 334 112   C394 112, 383 166, 383 215   C383 265, 395 281, 375 281   C362 281, 277 182, 277 126  Z " fill="white"/><path stroke="black" stroke-width="1" d="M223 126 C223 52, 197 112, 166 112   C106 112, 117 166, 117 215   C117 265, 105 281, 125 281   C138 281, 223 182, 223 126  Z " fill="white"/><path stroke="black" stroke-width="0" d="M310 165 C310 145, 320 135, 340 135   C360 135, 370 145, 370 165   C370 185, 360 195, 340 195   C320 195, 310 185, 310 165  Z " fill="black"/><path stroke="black" stroke-width="0" d="M190 165 C190 145, 180 135, 160 135   C140 135, 130 145, 130 165   C130 185, 140 195, 160 195   C180 195, 190 185, 190 165  Z " fill="black"/></svg>

  </svg>