<?xml version="1.0" encoding="UTF-8" standalone="no"?><svg xmlns="http://www.w3.org/2000/svg" id="montage">
    <svg id="ear"/>
    <circle id="countor" stroke="black" cx="250" cy="250" r="200" stroke-width="3" fill="white"/>
    <svg id="mouth"><path stroke="black" stroke-width="1" d="M158.5 277 C109.5 282, 390.5 282, 341.5 277   M158.5 277 C301.5 295, 198.5 295, 341.5 277" fill="white"/></svg>
    <svg id="eye"><path stroke="black" stroke-width="1" d="M284 227 C284 217, 297 140, 344 140   C378 140, 448 76, 448 142   C448 183, 415 277, 380 277   C347 277, 284 275, 284 227  Z " fill="white"/><path stroke="black" stroke-width="1" d="M216 227 C216 217, 203 140, 156 140   C122 140, 52 76, 52 142   C52 183, 85 277, 120 277   C153 277, 216 275, 216 227  Z " fill="white"/><path stroke="black" stroke-width="0" d="M313 190 C313 170, 323 160, 343 160   C363 160, 373 170, 373 190   C373 210, 363 220, 343 220   C323 220, 313 210, 313 190  Z " fill="black"/><path stroke="black" stroke-width="0" d="M187 190 C187 170, 177 160, 157 160   C137 160, 127 170, 127 190   C127 210, 137 220, 157 220   C177 220, 187 210, 187 190  Z " fill="black"/></svg>

  </svg>