<?xml version="1.0" encoding="UTF-8" standalone="no"?><svg xmlns="http://www.w3.org/2000/svg" id="montage">
    <svg id="ear"/>
    <circle id="countor" stroke="black" cx="250" cy="250" r="200" stroke-width="3" fill="white"/>
    <svg id="mouth"><path stroke="black" stroke-width="1" d="M166 423 C145 459, 355 459, 334 423   M166 423 C268 351, 232 351, 334 423" fill="white"/></svg>
    <svg id="eye"><path stroke="black" stroke-width="1" d="M286 168 C286 157, 350 77, 392 77   C446 77, 392 75, 392 137   C392 189, 427 276, 369 276   C335 276, 286 224, 286 168  Z " fill="white"/><path stroke="black" stroke-width="1" d="M214 168 C214 157, 150 77, 108 77   C54 77, 108 75, 108 137   C108 189, 73 276, 131 276   C165 276, 214 224, 214 168  Z " fill="white"/><path stroke="black" stroke-width="0" d="M318 170 C318 150, 328 140, 348 140   C368 140, 378 150, 378 170   C378 190, 368 200, 348 200   C328 200, 318 190, 318 170  Z " fill="black"/><path stroke="black" stroke-width="0" d="M182 170 C182 150, 172 140, 152 140   C132 140, 122 150, 122 170   C122 190, 132 200, 152 200   C172 200, 182 190, 182 170  Z " fill="black"/></svg>

  </svg>