<?xml version="1.0" encoding="UTF-8" standalone="no"?><svg xmlns="http://www.w3.org/2000/svg" id="montage">
    <svg id="ear"/>
    <circle id="countor" stroke="black" cx="250" cy="250" r="200" stroke-width="3" fill="white"/>
    <svg id="mouth"><path stroke="black" stroke-width="1" d="M135.5 339 C182.5 385, 317.5 385, 364.5 339   M135.5 339 C166.5 347, 333.5 347, 364.5 339" fill="white"/></svg>
    <svg id="eye"><path stroke="black" stroke-width="1" d="M302.5 157 C302.5 145, 264.5 29, 333.5 29   C397.5 29, 453.5 135, 453.5 151   C453.5 220, 425.5 239, 346.5 239   C314.5 239, 302.5 223, 302.5 157  Z " fill="white"/><path stroke="black" stroke-width="1" d="M197.5 157 C197.5 145, 235.5 29, 166.5 29   C102.5 29, 46.5 135, 46.5 151   C46.5 220, 74.5 239, 153.5 239   C185.5 239, 197.5 223, 197.5 157  Z " fill="white"/><path stroke="black" stroke-width="0" d="M314.5 147 C314.5 127, 324.5 117, 344.5 117   C364.5 117, 374.5 127, 374.5 147   C374.5 167, 364.5 177, 344.5 177   C324.5 177, 314.5 167, 314.5 147  Z " fill="black"/><path stroke="black" stroke-width="0" d="M185.5 147 C185.5 127, 175.5 117, 155.5 117   C135.5 117, 125.5 127, 125.5 147   C125.5 167, 135.5 177, 155.5 177   C175.5 177, 185.5 167, 185.5 147  Z " fill="black"/></svg>

  </svg>