<?xml version="1.0" encoding="UTF-8" standalone="no"?><svg xmlns="http://www.w3.org/2000/svg" id="montage">
    <svg id="ear"/>
    <circle id="countor" stroke="black" cx="250" cy="250" r="200" stroke-width="3" fill="white"/>
    <svg id="mouth"><path stroke="black" stroke-width="1" d="M198.5 361 C235.5 326, 264.5 326, 301.5 361   M198.5 361 C167.5 453, 332.5 453, 301.5 361" fill="white"/></svg>
    <svg id="eye"><path stroke="black" stroke-width="1" d="M241.5 195 C241.5 180, 312.5 127, 336.5 127   C408.5 127, 400.5 116, 400.5 138   C400.5 171, 419.5 265, 376.5 265   C308.5 265, 241.5 221, 241.5 195  Z " fill="white"/><path stroke="black" stroke-width="1" d="M258.5 195 C258.5 180, 187.5 127, 163.5 127   C91.5 127, 99.5 116, 99.5 138   C99.5 171, 80.5 265, 123.5 265   C191.5 265, 258.5 221, 258.5 195  Z " fill="white"/><path stroke="black" stroke-width="0" d="M313.5 165 C313.5 145, 323.5 135, 343.5 135   C363.5 135, 373.5 145, 373.5 165   C373.5 185, 363.5 195, 343.5 195   C323.5 195, 313.5 185, 313.5 165  Z " fill="black"/><path stroke="black" stroke-width="0" d="M186.5 165 C186.5 145, 176.5 135, 156.5 135   C136.5 135, 126.5 145, 126.5 165   C126.5 185, 136.5 195, 156.5 195   C176.5 195, 186.5 185, 186.5 165  Z " fill="black"/></svg>

  </svg>