<?xml version="1.0" encoding="UTF-8" standalone="no"?><svg xmlns="http://www.w3.org/2000/svg" id="montage">
    <svg id="ear"/>
    <circle id="countor" stroke="black" cx="250" cy="250" r="200" stroke-width="3" fill="white"/>
    <svg id="mouth"><path stroke="black" stroke-width="1" d="M204.5 313 C172.5 310, 327.5 310, 295.5 313   M204.5 313 C349.5 174, 150.5 174, 295.5 313" fill="white"/></svg>
    <svg id="eye"><path stroke="black" stroke-width="1" d="M246.5 216 C246.5 156, 336.5 133, 370.5 133   C422.5 133, 385.5 220, 385.5 243   C385.5 263, 395.5 285, 378.5 285   C316.5 285, 246.5 239, 246.5 216  Z " fill="white"/><path stroke="black" stroke-width="1" d="M253.5 216 C253.5 156, 163.5 133, 129.5 133   C77.5 133, 114.5 220, 114.5 243   C114.5 263, 104.5 285, 121.5 285   C183.5 285, 253.5 239, 253.5 216  Z " fill="white"/><path stroke="black" stroke-width="0" d="M317.5 224 C317.5 204, 327.5 194, 347.5 194   C367.5 194, 377.5 204, 377.5 224   C377.5 244, 367.5 254, 347.5 254   C327.5 254, 317.5 244, 317.5 224  Z " fill="black"/><path stroke="black" stroke-width="0" d="M182.5 224 C182.5 204, 172.5 194, 152.5 194   C132.5 194, 122.5 204, 122.5 224   C122.5 244, 132.5 254, 152.5 254   C172.5 254, 182.5 244, 182.5 224  Z " fill="black"/></svg>

  </svg>