<?xml version="1.0" encoding="UTF-8" standalone="no"?><svg xmlns="http://www.w3.org/2000/svg" id="montage">
    <svg id="ear"/>
    <circle id="countor" stroke="black" cx="250" cy="250" r="200" stroke-width="3" fill="white"/>
    <svg id="mouth"><path stroke="black" stroke-width="1" d="M148.5 343 C139.5 312, 360.5 312, 351.5 343   M148.5 343 C94.5 454, 405.5 454, 351.5 343" fill="white"/></svg>
    <svg id="eye"><path stroke="black" stroke-width="1" d="M281.5 131 C281.5 61, 270.5 79, 344.5 79   C381.5 79, 437.5 77, 437.5 97   C437.5 124, 406.5 212, 327.5 212   C300.5 212, 281.5 156, 281.5 131  Z " fill="white"/><path stroke="black" stroke-width="1" d="M218.5 131 C218.5 61, 229.5 79, 155.5 79   C118.5 79, 62.5 77, 62.5 97   C62.5 124, 93.5 212, 172.5 212   C199.5 212, 218.5 156, 218.5 131  Z " fill="white"/><path stroke="black" stroke-width="0" d="M310.5 146 C310.5 126, 320.5 116, 340.5 116   C360.5 116, 370.5 126, 370.5 146   C370.5 166, 360.5 176, 340.5 176   C320.5 176, 310.5 166, 310.5 146  Z " fill="black"/><path stroke="black" stroke-width="0" d="M189.5 146 C189.5 126, 179.5 116, 159.5 116   C139.5 116, 129.5 126, 129.5 146   C129.5 166, 139.5 176, 159.5 176   C179.5 176, 189.5 166, 189.5 146  Z " fill="black"/></svg>

  </svg>