<?xml version="1.0" encoding="UTF-8" standalone="no"?><svg xmlns="http://www.w3.org/2000/svg" id="montage">
    <svg id="ear"/>
    <circle id="countor" stroke="black" cx="250" cy="250" r="200" stroke-width="3" fill="white"/>
    <svg id="mouth"><path stroke="black" stroke-width="1" d="M163 290 C211 278, 289 278, 337 290   M163 290 C21 414, 479 414, 337 290" fill="white"/></svg>
    <svg id="eye"><path stroke="black" stroke-width="1" d="M258.5 172 C258.5 94, 252.5 105, 329.5 105   C401.5 105, 452.5 174, 452.5 192   C452.5 265, 435.5 216, 386.5 216   C355.5 216, 258.5 234, 258.5 172  Z " fill="white"/><path stroke="black" stroke-width="1" d="M241.5 172 C241.5 94, 247.5 105, 170.5 105   C98.5 105, 47.5 174, 47.5 192   C47.5 265, 64.5 216, 113.5 216   C144.5 216, 241.5 234, 241.5 172  Z " fill="white"/><path stroke="black" stroke-width="0" d="M317.5 164 C317.5 144, 327.5 134, 347.5 134   C367.5 134, 377.5 144, 377.5 164   C377.5 184, 367.5 194, 347.5 194   C327.5 194, 317.5 184, 317.5 164  Z " fill="black"/><path stroke="black" stroke-width="0" d="M182.5 164 C182.5 144, 172.5 134, 152.5 134   C132.5 134, 122.5 144, 122.5 164   C122.5 184, 132.5 194, 152.5 194   C172.5 194, 182.5 184, 182.5 164  Z " fill="black"/></svg>

  </svg>