<?xml version="1.0" encoding="UTF-8" standalone="no"?><svg xmlns="http://www.w3.org/2000/svg" id="montage">
    <svg id="ear"/>
    <circle id="countor" stroke="black" cx="250" cy="250" r="200" stroke-width="3" fill="white"/>
    <svg id="mouth"><path stroke="black" stroke-width="1" d="M145 352 C178 310, 322 310, 355 352   M145 352 C150 354, 350 354, 355 352" fill="white"/></svg>
    <svg id="eye"><path stroke="black" stroke-width="1" d="M275 155 C275 93, 278 60, 347 60   C383 60, 460 139, 460 186   C460 223, 394 195, 322 195   C286 195, 275 221, 275 155  Z " fill="white"/><path stroke="black" stroke-width="1" d="M225 155 C225 93, 222 60, 153 60   C117 60, 40 139, 40 186   C40 223, 106 195, 178 195   C214 195, 225 221, 225 155  Z " fill="white"/><path stroke="black" stroke-width="0" d="M310 137 C310 117, 320 107, 340 107   C360 107, 370 117, 370 137   C370 157, 360 167, 340 167   C320 167, 310 157, 310 137  Z " fill="black"/><path stroke="black" stroke-width="0" d="M190 137 C190 117, 180 107, 160 107   C140 107, 130 117, 130 137   C130 157, 140 167, 160 167   C180 167, 190 157, 190 137  Z " fill="black"/></svg>

  </svg>