<?xml version="1.0" encoding="UTF-8" standalone="no"?><svg xmlns="http://www.w3.org/2000/svg" id="montage">
    <svg id="ear"/>
    <circle id="countor" stroke="black" cx="250" cy="250" r="200" stroke-width="3" fill="white"/>
    <svg id="mouth"><path stroke="black" stroke-width="1" d="M218.5 280 C205.5 262, 294.5 262, 281.5 280   M218.5 280 C84.5 361, 415.5 361, 281.5 280" fill="white"/></svg>
    <svg id="eye"><path stroke="black" stroke-width="1" d="M301.5 155 C301.5 114, 319.5 30, 375.5 30   C396.5 30, 400.5 160, 400.5 186   C400.5 236, 441.5 183, 378.5 183   C299.5 183, 301.5 229, 301.5 155  Z " fill="white"/><path stroke="black" stroke-width="1" d="M198.5 155 C198.5 114, 180.5 30, 124.5 30   C103.5 30, 99.5 160, 99.5 186   C99.5 236, 58.5 183, 121.5 183   C200.5 183, 198.5 229, 198.5 155  Z " fill="white"/><path stroke="black" stroke-width="0" d="M313.5 144 C313.5 124, 323.5 114, 343.5 114   C363.5 114, 373.5 124, 373.5 144   C373.5 164, 363.5 174, 343.5 174   C323.5 174, 313.5 164, 313.5 144  Z " fill="black"/><path stroke="black" stroke-width="0" d="M186.5 144 C186.5 124, 176.5 114, 156.5 114   C136.5 114, 126.5 124, 126.5 144   C126.5 164, 136.5 174, 156.5 174   C176.5 174, 186.5 164, 186.5 144  Z " fill="black"/></svg>

  </svg>