<?xml version="1.0" encoding="UTF-8" standalone="no"?><svg xmlns="http://www.w3.org/2000/svg" id="montage">
    <svg id="ear"/>
    <circle id="countor" stroke="black" cx="250" cy="250" r="200" stroke-width="3" fill="white"/>
    <svg id="mouth"><path stroke="black" stroke-width="1" d="M183 374 C134 413, 366 413, 317 374   M183 374 C264 486, 236 486, 317 374" fill="white"/></svg>
    <svg id="eye"><path stroke="black" stroke-width="1" d="M306.5 211 C306.5 145, 302.5 114, 335.5 114   C400.5 114, 418.5 130, 418.5 196   C418.5 230, 362.5 258, 310.5 258   C270.5 258, 306.5 235, 306.5 211  Z " fill="white"/><path stroke="black" stroke-width="1" d="M193.5 211 C193.5 145, 197.5 114, 164.5 114   C99.5 114, 81.5 130, 81.5 196   C81.5 230, 137.5 258, 189.5 258   C229.5 258, 193.5 235, 193.5 211  Z " fill="white"/><path stroke="black" stroke-width="0" d="M311.5 182 C311.5 162, 321.5 152, 341.5 152   C361.5 152, 371.5 162, 371.5 182   C371.5 202, 361.5 212, 341.5 212   C321.5 212, 311.5 202, 311.5 182  Z " fill="black"/><path stroke="black" stroke-width="0" d="M188.5 182 C188.5 162, 178.5 152, 158.5 152   C138.5 152, 128.5 162, 128.5 182   C128.5 202, 138.5 212, 158.5 212   C178.5 212, 188.5 202, 188.5 182  Z " fill="black"/></svg>

  </svg>