<?xml version="1.0" encoding="UTF-8" standalone="no"?><svg xmlns="http://www.w3.org/2000/svg" id="montage">
    <svg id="ear"/>
    <circle id="countor" stroke="black" cx="250" cy="250" r="200" stroke-width="3" fill="white"/>
    <svg id="mouth"><path stroke="black" stroke-width="1" d="M162.5 326 C147.5 329, 352.5 329, 337.5 326   M162.5 326 C180.5 376, 319.5 376, 337.5 326" fill="white"/></svg>
    <svg id="eye"><path stroke="black" stroke-width="1" d="M259 212 C259 151, 362 131, 375 131   C392 131, 421 144, 421 203   C421 247, 372 236, 359 236   C296 236, 259 261, 259 212  Z " fill="white"/><path stroke="black" stroke-width="1" d="M241 212 C241 151, 138 131, 125 131   C108 131, 79 144, 79 203   C79 247, 128 236, 141 236   C204 236, 241 261, 241 212  Z " fill="white"/><path stroke="black" stroke-width="0" d="M312 188 C312 168, 322 158, 342 158   C362 158, 372 168, 372 188   C372 208, 362 218, 342 218   C322 218, 312 208, 312 188  Z " fill="black"/><path stroke="black" stroke-width="0" d="M188 188 C188 168, 178 158, 158 158   C138 158, 128 168, 128 188   C128 208, 138 218, 158 218   C178 218, 188 208, 188 188  Z " fill="black"/></svg>

  </svg>