<?xml version="1.0" encoding="UTF-8" standalone="no"?><svg xmlns="http://www.w3.org/2000/svg" id="montage">
    <svg id="ear"/>
    <circle id="countor" stroke="black" cx="250" cy="250" r="200" stroke-width="3" fill="white"/>
    <svg id="mouth"><path stroke="black" stroke-width="1" d="M178.5 398 C165.5 368, 334.5 368, 321.5 398   M178.5 398 C220.5 506, 279.5 506, 321.5 398" fill="white"/></svg>
    <svg id="eye"><path stroke="black" stroke-width="1" d="M293.5 188 C293.5 115, 346.5 115, 375.5 115   C435.5 115, 387.5 160, 387.5 196   C387.5 275, 413.5 287, 381.5 287   C328.5 287, 293.5 217, 293.5 188  Z " fill="white"/><path stroke="black" stroke-width="1" d="M206.5 188 C206.5 115, 153.5 115, 124.5 115   C64.5 115, 112.5 160, 112.5 196   C112.5 275, 86.5 287, 118.5 287   C171.5 287, 206.5 217, 206.5 188  Z " fill="white"/><path stroke="black" stroke-width="0" d="M316.5 200 C316.5 180, 326.5 170, 346.5 170   C366.5 170, 376.5 180, 376.5 200   C376.5 220, 366.5 230, 346.5 230   C326.5 230, 316.5 220, 316.5 200  Z " fill="black"/><path stroke="black" stroke-width="0" d="M183.5 200 C183.5 180, 173.5 170, 153.5 170   C133.5 170, 123.5 180, 123.5 200   C123.5 220, 133.5 230, 153.5 230   C173.5 230, 183.5 220, 183.5 200  Z " fill="black"/></svg>

  </svg>