<?xml version="1.0" encoding="UTF-8" standalone="no"?><svg xmlns="http://www.w3.org/2000/svg" id="montage">
    <svg id="ear"/>
    <circle id="countor" stroke="black" cx="250" cy="250" r="200" stroke-width="3" fill="white"/>
    <svg id="mouth"><path stroke="black" stroke-width="1" d="M145.5 302 C162.5 301, 337.5 301, 354.5 302   M145.5 302 C136.5 353, 363.5 353, 354.5 302" fill="white"/></svg>
    <svg id="eye"><path stroke="black" stroke-width="1" d="M286.5 263 C286.5 248, 316.5 103, 344.5 103   C380.5 103, 463.5 204, 463.5 266   C463.5 325, 386.5 281, 354.5 281   C300.5 281, 286.5 281, 286.5 263  Z " fill="white"/><path stroke="black" stroke-width="1" d="M213.5 263 C213.5 248, 183.5 103, 155.5 103   C119.5 103, 36.5 204, 36.5 266   C36.5 325, 113.5 281, 145.5 281   C199.5 281, 213.5 281, 213.5 263  Z " fill="white"/><path stroke="black" stroke-width="0" d="M316.5 218 C316.5 198, 326.5 188, 346.5 188   C366.5 188, 376.5 198, 376.5 218   C376.5 238, 366.5 248, 346.5 248   C326.5 248, 316.5 238, 316.5 218  Z " fill="black"/><path stroke="black" stroke-width="0" d="M183.5 218 C183.5 198, 173.5 188, 153.5 188   C133.5 188, 123.5 198, 123.5 218   C123.5 238, 133.5 248, 153.5 248   C173.5 248, 183.5 238, 183.5 218  Z " fill="black"/></svg>

  </svg>