<?xml version="1.0" encoding="UTF-8" standalone="no"?><svg xmlns="http://www.w3.org/2000/svg" id="montage">
    <svg id="ear"/>
    <circle id="countor" stroke="black" cx="250" cy="250" r="200" stroke-width="3" fill="white"/>
    <svg id="mouth"><path stroke="black" stroke-width="1" d="M198.5 319 C243.5 297, 256.5 297, 301.5 319   M198.5 319 C333.5 313, 166.5 313, 301.5 319" fill="white"/></svg>
    <svg id="eye"><path stroke="black" stroke-width="1" d="M244 166 C244 133, 330 100, 356 100   C367 100, 407 94, 407 127   C407 194, 399 241, 377 241   C317 241, 244 242, 244 166  Z " fill="white"/><path stroke="black" stroke-width="1" d="M256 166 C256 133, 170 100, 144 100   C133 100, 93 94, 93 127   C93 194, 101 241, 123 241   C183 241, 256 242, 256 166  Z " fill="white"/><path stroke="black" stroke-width="0" d="M312 149 C312 129, 322 119, 342 119   C362 119, 372 129, 372 149   C372 169, 362 179, 342 179   C322 179, 312 169, 312 149  Z " fill="black"/><path stroke="black" stroke-width="0" d="M188 149 C188 129, 178 119, 158 119   C138 119, 128 129, 128 149   C128 169, 138 179, 158 179   C178 179, 188 169, 188 149  Z " fill="black"/></svg>

  </svg>