<?xml version="1.0" encoding="UTF-8" standalone="no"?><svg xmlns="http://www.w3.org/2000/svg" id="montage">
    <svg id="ear"/>
    <circle id="countor" stroke="black" cx="250" cy="250" r="200" stroke-width="3" fill="white"/>
    <svg id="mouth"><path stroke="black" stroke-width="1" d="M196 344 C169 351, 331 351, 304 344   M196 344 C234 261, 266 261, 304 344" fill="white"/></svg>
    <svg id="eye"><path stroke="black" stroke-width="1" d="M235.5 243 C235.5 205, 302.5 186, 376.5 186   C394.5 186, 415.5 178, 415.5 201   C415.5 214, 363.5 274, 345.5 274   C271.5 274, 235.5 282, 235.5 243  Z " fill="white"/><path stroke="black" stroke-width="1" d="M264.5 243 C264.5 205, 197.5 186, 123.5 186   C105.5 186, 84.5 178, 84.5 201   C84.5 214, 136.5 274, 154.5 274   C228.5 274, 264.5 282, 264.5 243  Z " fill="white"/><path stroke="black" stroke-width="0" d="M316.5 228 C316.5 208, 326.5 198, 346.5 198   C366.5 198, 376.5 208, 376.5 228   C376.5 248, 366.5 258, 346.5 258   C326.5 258, 316.5 248, 316.5 228  Z " fill="black"/><path stroke="black" stroke-width="0" d="M183.5 228 C183.5 208, 173.5 198, 153.5 198   C133.5 198, 123.5 208, 123.5 228   C123.5 248, 133.5 258, 153.5 258   C173.5 258, 183.5 248, 183.5 228  Z " fill="black"/></svg>

  </svg>