<?xml version="1.0" encoding="UTF-8" standalone="no"?><svg xmlns="http://www.w3.org/2000/svg" id="montage">
    <svg id="ear"/>
    <circle id="countor" stroke="black" cx="250" cy="250" r="200" stroke-width="3" fill="white"/>
    <svg id="mouth"><path stroke="black" stroke-width="1" d="M155 331 C152 301, 348 301, 345 331   M155 331 C240 376, 260 376, 345 331" fill="white"/></svg>
    <svg id="eye"><path stroke="black" stroke-width="1" d="M299 202 C299 124, 245 60, 306 60   C373 60, 421 43, 421 116   C421 166, 439 247, 392 247   C350 247, 299 239, 299 202  Z " fill="white"/><path stroke="black" stroke-width="1" d="M201 202 C201 124, 255 60, 194 60   C127 60, 79 43, 79 116   C79 166, 61 247, 108 247   C150 247, 201 239, 201 202  Z " fill="white"/><path stroke="black" stroke-width="0" d="M318 153 C318 133, 328 123, 348 123   C368 123, 378 133, 378 153   C378 173, 368 183, 348 183   C328 183, 318 173, 318 153  Z " fill="black"/><path stroke="black" stroke-width="0" d="M182 153 C182 133, 172 123, 152 123   C132 123, 122 133, 122 153   C122 173, 132 183, 152 183   C172 183, 182 173, 182 153  Z " fill="black"/></svg>

  </svg>