<?xml version="1.0" encoding="UTF-8" standalone="no"?><svg xmlns="http://www.w3.org/2000/svg" id="montage">
    <svg id="ear"/>
    <circle id="countor" stroke="black" cx="250" cy="250" r="200" stroke-width="3" fill="white"/>
    <svg id="mouth"><path stroke="black" stroke-width="1" d="M211 386 C192 388, 308 388, 289 386   M211 386 C166 293, 334 293, 289 386" fill="white"/></svg>
    <svg id="eye"><path stroke="black" stroke-width="1" d="M294.5 182 C294.5 170, 248.5 123, 306.5 123   C316.5 123, 439.5 225, 439.5 254   C439.5 321, 410.5 288, 352.5 288   C295.5 288, 294.5 199, 294.5 182  Z " fill="white"/><path stroke="black" stroke-width="1" d="M205.5 182 C205.5 170, 251.5 123, 193.5 123   C183.5 123, 60.5 225, 60.5 254   C60.5 321, 89.5 288, 147.5 288   C204.5 288, 205.5 199, 205.5 182  Z " fill="white"/><path stroke="black" stroke-width="0" d="M313.5 220 C313.5 200, 323.5 190, 343.5 190   C363.5 190, 373.5 200, 373.5 220   C373.5 240, 363.5 250, 343.5 250   C323.5 250, 313.5 240, 313.5 220  Z " fill="black"/><path stroke="black" stroke-width="0" d="M186.5 220 C186.5 200, 176.5 190, 156.5 190   C136.5 190, 126.5 200, 126.5 220   C126.5 240, 136.5 250, 156.5 250   C176.5 250, 186.5 240, 186.5 220  Z " fill="black"/></svg>

  </svg>