<?xml version="1.0" encoding="UTF-8" standalone="no"?><svg xmlns="http://www.w3.org/2000/svg" id="montage">
    <svg id="ear"/>
    <circle id="countor" stroke="black" cx="250" cy="250" r="200" stroke-width="3" fill="white"/>
    <svg id="mouth"><path stroke="black" stroke-width="1" d="M229 428 C197 399, 303 399, 271 428   M229 428 C156 347, 344 347, 271 428" fill="white"/></svg>
    <svg id="eye"><path stroke="black" stroke-width="1" d="M250 179 C250 163, 314 113, 325 113   C342 113, 414 156, 414 226   C414 236, 421 294, 341 294   C305 294, 250 254, 250 179  Z " fill="white"/><path stroke="black" stroke-width="1" d="M250 179 C250 163, 186 113, 175 113   C158 113, 86 156, 86 226   C86 236, 79 294, 159 294   C195 294, 250 254, 250 179  Z " fill="white"/><path stroke="black" stroke-width="0" d="M310 196 C310 176, 320 166, 340 166   C360 166, 370 176, 370 196   C370 216, 360 226, 340 226   C320 226, 310 216, 310 196  Z " fill="black"/><path stroke="black" stroke-width="0" d="M190 196 C190 176, 180 166, 160 166   C140 166, 130 176, 130 196   C130 216, 140 226, 160 226   C180 226, 190 216, 190 196  Z " fill="black"/></svg>

  </svg>