<?xml version="1.0" encoding="UTF-8" standalone="no"?><svg xmlns="http://www.w3.org/2000/svg" id="montage">
    <svg id="ear"/>
    <circle id="countor" stroke="black" cx="250" cy="250" r="200" stroke-width="3" fill="white"/>
    <svg id="mouth"><path stroke="black" stroke-width="1" d="M140 314 C133 349, 367 349, 360 314   M140 314 C103 453, 397 453, 360 314" fill="white"/></svg>
    <svg id="eye"><path stroke="black" stroke-width="1" d="M229.5 200 C229.5 169, 241.5 124, 297.5 124   C350.5 124, 453.5 172, 453.5 206   C453.5 283, 359.5 253, 313.5 253   C266.5 253, 229.5 269, 229.5 200  Z " fill="white"/><path stroke="black" stroke-width="1" d="M270.5 200 C270.5 169, 258.5 124, 202.5 124   C149.5 124, 46.5 172, 46.5 206   C46.5 283, 140.5 253, 186.5 253   C233.5 253, 270.5 269, 270.5 200  Z " fill="white"/><path stroke="black" stroke-width="0" d="M313.5 188 C313.5 168, 323.5 158, 343.5 158   C363.5 158, 373.5 168, 373.5 188   C373.5 208, 363.5 218, 343.5 218   C323.5 218, 313.5 208, 313.5 188  Z " fill="black"/><path stroke="black" stroke-width="0" d="M186.5 188 C186.5 168, 176.5 158, 156.5 158   C136.5 158, 126.5 168, 126.5 188   C126.5 208, 136.5 218, 156.5 218   C176.5 218, 186.5 208, 186.5 188  Z " fill="black"/></svg>

  </svg>