<?xml version="1.0" encoding="UTF-8" standalone="no"?><svg xmlns="http://www.w3.org/2000/svg" id="montage">
    <svg id="ear"/>
    <circle id="countor" stroke="black" cx="250" cy="250" r="200" stroke-width="3" fill="white"/>
    <svg id="mouth"><path stroke="black" stroke-width="1" d="M134.5 324 C177.5 328, 322.5 328, 365.5 324   M134.5 324 C147.5 302, 352.5 302, 365.5 324" fill="white"/></svg>
    <svg id="eye"><path stroke="black" stroke-width="1" d="M250 196 C250 166, 358 67, 390 67   C444 67, 391 140, 391 179   C391 200, 372 288, 320 288   C272 288, 250 255, 250 196  Z " fill="white"/><path stroke="black" stroke-width="1" d="M250 196 C250 166, 142 67, 110 67   C56 67, 109 140, 109 179   C109 200, 128 288, 180 288   C228 288, 250 255, 250 196  Z " fill="white"/><path stroke="black" stroke-width="0" d="M312 180 C312 160, 322 150, 342 150   C362 150, 372 160, 372 180   C372 200, 362 210, 342 210   C322 210, 312 200, 312 180  Z " fill="black"/><path stroke="black" stroke-width="0" d="M188 180 C188 160, 178 150, 158 150   C138 150, 128 160, 128 180   C128 200, 138 210, 158 210   C178 210, 188 200, 188 180  Z " fill="black"/></svg>

  </svg>