<?xml version="1.0" encoding="UTF-8" standalone="no"?><svg xmlns="http://www.w3.org/2000/svg" id="montage">
    <svg id="ear"/>
    <circle id="countor" stroke="black" cx="250" cy="250" r="200" stroke-width="3" fill="white"/>
    <svg id="mouth"><path stroke="black" stroke-width="1" d="M189 303 C184 306, 316 306, 311 303   M189 303 C49 339, 451 339, 311 303" fill="white"/></svg>
    <svg id="eye"><path stroke="black" stroke-width="1" d="M291 178 C291 167, 291 86, 302 86   C357 86, 418 138, 418 176   C418 219, 353 239, 302 239   C255 239, 291 255, 291 178  Z " fill="white"/><path stroke="black" stroke-width="1" d="M209 178 C209 167, 209 86, 198 86   C143 86, 82 138, 82 176   C82 219, 147 239, 198 239   C245 239, 209 255, 209 178  Z " fill="white"/><path stroke="black" stroke-width="0" d="M314 141 C314 121, 324 111, 344 111   C364 111, 374 121, 374 141   C374 161, 364 171, 344 171   C324 171, 314 161, 314 141  Z " fill="black"/><path stroke="black" stroke-width="0" d="M186 141 C186 121, 176 111, 156 111   C136 111, 126 121, 126 141   C126 161, 136 171, 156 171   C176 171, 186 161, 186 141  Z " fill="black"/></svg>

  </svg>