<?xml version="1.0" encoding="UTF-8" standalone="no"?><svg xmlns="http://www.w3.org/2000/svg" id="montage">
    <svg id="ear"/>
    <circle id="countor" stroke="black" cx="250" cy="250" r="200" stroke-width="3" fill="white"/>
    <svg id="mouth"><path stroke="black" stroke-width="1" d="M219 373 C218 362, 282 362, 281 373   M219 373 C194 312, 306 312, 281 373" fill="white"/></svg>
    <svg id="eye"><path stroke="black" stroke-width="1" d="M274.5 204 C274.5 178, 298.5 158, 346.5 158   C402.5 158, 467.5 205, 467.5 218   C467.5 289, 347.5 274, 303.5 274   C260.5 274, 274.5 218, 274.5 204  Z " fill="white"/><path stroke="black" stroke-width="1" d="M225.5 204 C225.5 178, 201.5 158, 153.5 158   C97.5 158, 32.5 205, 32.5 218   C32.5 289, 152.5 274, 196.5 274   C239.5 274, 225.5 218, 225.5 204  Z " fill="white"/><path stroke="black" stroke-width="0" d="M317.5 215 C317.5 195, 327.5 185, 347.5 185   C367.5 185, 377.5 195, 377.5 215   C377.5 235, 367.5 245, 347.5 245   C327.5 245, 317.5 235, 317.5 215  Z " fill="black"/><path stroke="black" stroke-width="0" d="M182.5 215 C182.5 195, 172.5 185, 152.5 185   C132.5 185, 122.5 195, 122.5 215   C122.5 235, 132.5 245, 152.5 245   C172.5 245, 182.5 235, 182.5 215  Z " fill="black"/></svg>

  </svg>