<?xml version="1.0" encoding="UTF-8" standalone="no"?><svg xmlns="http://www.w3.org/2000/svg" id="montage">
    <svg id="ear"/>
    <circle id="countor" stroke="black" cx="250" cy="250" r="200" stroke-width="3" fill="white"/>
    <svg id="mouth"><path stroke="black" stroke-width="1" d="M189.5 309 C222.5 343, 277.5 343, 310.5 309   M189.5 309 C326.5 172, 173.5 172, 310.5 309" fill="white"/></svg>
    <svg id="eye"><path stroke="black" stroke-width="1" d="M289 214 C289 187, 305 109, 351 109   C401 109, 451 102, 451 179   C451 238, 453 263, 379 263   C341 263, 289 249, 289 214  Z " fill="white"/><path stroke="black" stroke-width="1" d="M211 214 C211 187, 195 109, 149 109   C99 109, 49 102, 49 179   C49 238, 47 263, 121 263   C159 263, 211 249, 211 214  Z " fill="white"/><path stroke="black" stroke-width="0" d="M310 170 C310 150, 320 140, 340 140   C360 140, 370 150, 370 170   C370 190, 360 200, 340 200   C320 200, 310 190, 310 170  Z " fill="black"/><path stroke="black" stroke-width="0" d="M190 170 C190 150, 180 140, 160 140   C140 140, 130 150, 130 170   C130 190, 140 200, 160 200   C180 200, 190 190, 190 170  Z " fill="black"/></svg>

  </svg>