<?xml version="1.0" encoding="UTF-8" standalone="no"?><svg xmlns="http://www.w3.org/2000/svg" id="montage">
    <svg id="ear"/>
    <circle id="countor" stroke="black" cx="250" cy="250" r="200" stroke-width="3" fill="white"/>
    <svg id="mouth"><path stroke="black" stroke-width="1" d="M181 381 C133 397, 367 397, 319 381   M181 381 C305 509, 195 509, 319 381" fill="white"/></svg>
    <svg id="eye"><path stroke="black" stroke-width="1" d="M293.5 205 C293.5 132, 355.5 109, 365.5 109   C437.5 109, 410.5 143, 410.5 164   C410.5 186, 305.5 232, 292.5 232   C271.5 232, 293.5 281, 293.5 205  Z " fill="white"/><path stroke="black" stroke-width="1" d="M206.5 205 C206.5 132, 144.5 109, 134.5 109   C62.5 109, 89.5 143, 89.5 164   C89.5 186, 194.5 232, 207.5 232   C228.5 232, 206.5 281, 206.5 205  Z " fill="white"/><path stroke="black" stroke-width="0" d="M310.5 155 C310.5 135, 320.5 125, 340.5 125   C360.5 125, 370.5 135, 370.5 155   C370.5 175, 360.5 185, 340.5 185   C320.5 185, 310.5 175, 310.5 155  Z " fill="black"/><path stroke="black" stroke-width="0" d="M189.5 155 C189.5 135, 179.5 125, 159.5 125   C139.5 125, 129.5 135, 129.5 155   C129.5 175, 139.5 185, 159.5 185   C179.5 185, 189.5 175, 189.5 155  Z " fill="black"/></svg>

  </svg>