<?xml version="1.0" encoding="UTF-8" standalone="no"?><svg xmlns="http://www.w3.org/2000/svg" id="montage">
    <svg id="ear"/>
    <circle id="countor" stroke="black" cx="250" cy="250" r="200" stroke-width="3" fill="white"/>
    <svg id="mouth"><path stroke="black" stroke-width="1" d="M154.5 278 C119.5 245, 380.5 245, 345.5 278   M154.5 278 C161.5 393, 338.5 393, 345.5 278" fill="white"/></svg>
    <svg id="eye"><path stroke="black" stroke-width="1" d="M242.5 154 C242.5 113, 310.5 79, 326.5 79   C384.5 79, 443.5 99, 443.5 175   C443.5 250, 413.5 232, 342.5 232   C270.5 232, 242.5 191, 242.5 154  Z " fill="white"/><path stroke="black" stroke-width="1" d="M257.5 154 C257.5 113, 189.5 79, 173.5 79   C115.5 79, 56.5 99, 56.5 175   C56.5 250, 86.5 232, 157.5 232   C229.5 232, 257.5 191, 257.5 154  Z " fill="white"/><path stroke="black" stroke-width="0" d="M312.5 193 C312.5 173, 322.5 163, 342.5 163   C362.5 163, 372.5 173, 372.5 193   C372.5 213, 362.5 223, 342.5 223   C322.5 223, 312.5 213, 312.5 193  Z " fill="black"/><path stroke="black" stroke-width="0" d="M187.5 193 C187.5 173, 177.5 163, 157.5 163   C137.5 163, 127.5 173, 127.5 193   C127.5 213, 137.5 223, 157.5 223   C177.5 223, 187.5 213, 187.5 193  Z " fill="black"/></svg>

  </svg>