<?xml version="1.0" encoding="UTF-8" standalone="no"?><svg xmlns="http://www.w3.org/2000/svg" id="montage">
    <svg id="ear"/>
    <circle id="countor" stroke="black" cx="250" cy="250" r="200" stroke-width="3" fill="white"/>
    <svg id="mouth"><path stroke="black" stroke-width="1" d="M160.5 369 C118.5 410, 381.5 410, 339.5 369   M160.5 369 C179.5 243, 320.5 243, 339.5 369" fill="white"/></svg>
    <svg id="eye"><path stroke="black" stroke-width="1" d="M250.5 119 C250.5 97, 322.5 112, 381.5 112   C436.5 112, 383.5 78, 383.5 153   C383.5 201, 339.5 224, 320.5 224   C299.5 224, 250.5 180, 250.5 119  Z " fill="white"/><path stroke="black" stroke-width="1" d="M249.5 119 C249.5 97, 177.5 112, 118.5 112   C63.5 112, 116.5 78, 116.5 153   C116.5 201, 160.5 224, 179.5 224   C200.5 224, 249.5 180, 249.5 119  Z " fill="white"/><path stroke="black" stroke-width="0" d="M312.5 163 C312.5 143, 322.5 133, 342.5 133   C362.5 133, 372.5 143, 372.5 163   C372.5 183, 362.5 193, 342.5 193   C322.5 193, 312.5 183, 312.5 163  Z " fill="black"/><path stroke="black" stroke-width="0" d="M187.5 163 C187.5 143, 177.5 133, 157.5 133   C137.5 133, 127.5 143, 127.5 163   C127.5 183, 137.5 193, 157.5 193   C177.5 193, 187.5 183, 187.5 163  Z " fill="black"/></svg>

  </svg>