<?xml version="1.0" encoding="UTF-8" standalone="no"?><svg xmlns="http://www.w3.org/2000/svg" id="montage">
    <svg id="ear"/>
    <circle id="countor" stroke="black" cx="250" cy="250" r="200" stroke-width="3" fill="white"/>
    <svg id="mouth"><path stroke="black" stroke-width="1" d="M196.5 322 C195.5 329, 304.5 329, 303.5 322   M196.5 322 C232.5 388, 267.5 388, 303.5 322" fill="white"/></svg>
    <svg id="eye"><path stroke="black" stroke-width="1" d="M303.5 201 C303.5 187, 341.5 109, 356.5 109   C423.5 109, 459.5 219, 459.5 241   C459.5 282, 380.5 288, 355.5 288   C321.5 288, 303.5 230, 303.5 201  Z " fill="white"/><path stroke="black" stroke-width="1" d="M196.5 201 C196.5 187, 158.5 109, 143.5 109   C76.5 109, 40.5 219, 40.5 241   C40.5 282, 119.5 288, 144.5 288   C178.5 288, 196.5 230, 196.5 201  Z " fill="white"/><path stroke="black" stroke-width="0" d="M318.5 218 C318.5 198, 328.5 188, 348.5 188   C368.5 188, 378.5 198, 378.5 218   C378.5 238, 368.5 248, 348.5 248   C328.5 248, 318.5 238, 318.5 218  Z " fill="black"/><path stroke="black" stroke-width="0" d="M181.5 218 C181.5 198, 171.5 188, 151.5 188   C131.5 188, 121.5 198, 121.5 218   C121.5 238, 131.5 248, 151.5 248   C171.5 248, 181.5 238, 181.5 218  Z " fill="black"/></svg>

  </svg>