<?xml version="1.0" encoding="UTF-8" standalone="no"?><svg xmlns="http://www.w3.org/2000/svg" id="montage">
    <svg id="ear"/>
    <circle id="countor" stroke="black" cx="250" cy="250" r="200" stroke-width="3" fill="white"/>
    <svg id="mouth"><path stroke="black" stroke-width="1" d="M184 353 C201 336, 299 336, 316 353   M184 353 C45 332, 455 332, 316 353" fill="white"/></svg>
    <svg id="eye"><path stroke="black" stroke-width="1" d="M231.5 202 C231.5 191, 313.5 77, 350.5 77   C365.5 77, 400.5 117, 400.5 195   C400.5 231, 376.5 214, 297.5 214   C232.5 214, 231.5 260, 231.5 202  Z " fill="white"/><path stroke="black" stroke-width="1" d="M268.5 202 C268.5 191, 186.5 77, 149.5 77   C134.5 77, 99.5 117, 99.5 195   C99.5 231, 123.5 214, 202.5 214   C267.5 214, 268.5 260, 268.5 202  Z " fill="white"/><path stroke="black" stroke-width="0" d="M310.5 169 C310.5 149, 320.5 139, 340.5 139   C360.5 139, 370.5 149, 370.5 169   C370.5 189, 360.5 199, 340.5 199   C320.5 199, 310.5 189, 310.5 169  Z " fill="black"/><path stroke="black" stroke-width="0" d="M189.5 169 C189.5 149, 179.5 139, 159.5 139   C139.5 139, 129.5 149, 129.5 169   C129.5 189, 139.5 199, 159.5 199   C179.5 199, 189.5 189, 189.5 169  Z " fill="black"/></svg>

  </svg>