<?xml version="1.0" encoding="UTF-8" standalone="no"?><svg xmlns="http://www.w3.org/2000/svg" id="montage">
    <svg id="ear"/>
    <circle id="countor" stroke="black" cx="250" cy="250" r="200" stroke-width="3" fill="white"/>
    <svg id="mouth"><path stroke="black" stroke-width="1" d="M196 371 C178 412, 322 412, 304 371   M196 371 C131 279, 369 279, 304 371" fill="white"/></svg>
    <svg id="eye"><path stroke="black" stroke-width="1" d="M313.5 212 C313.5 196, 272.5 131, 305.5 131   C347.5 131, 408.5 121, 408.5 199   C408.5 227, 398.5 255, 338.5 255   C308.5 255, 313.5 265, 313.5 212  Z " fill="white"/><path stroke="black" stroke-width="1" d="M186.5 212 C186.5 196, 227.5 131, 194.5 131   C152.5 131, 91.5 121, 91.5 199   C91.5 227, 101.5 255, 161.5 255   C191.5 255, 186.5 265, 186.5 212  Z " fill="white"/><path stroke="black" stroke-width="0" d="M319.5 182 C319.5 162, 329.5 152, 349.5 152   C369.5 152, 379.5 162, 379.5 182   C379.5 202, 369.5 212, 349.5 212   C329.5 212, 319.5 202, 319.5 182  Z " fill="black"/><path stroke="black" stroke-width="0" d="M180.5 182 C180.5 162, 170.5 152, 150.5 152   C130.5 152, 120.5 162, 120.5 182   C120.5 202, 130.5 212, 150.5 212   C170.5 212, 180.5 202, 180.5 182  Z " fill="black"/></svg>

  </svg>