<?xml version="1.0" encoding="UTF-8" standalone="no"?><svg xmlns="http://www.w3.org/2000/svg" id="montage">
    <svg id="ear"/>
    <circle id="countor" stroke="black" cx="250" cy="250" r="200" stroke-width="3" fill="white"/>
    <svg id="mouth"><path stroke="black" stroke-width="1" d="M195.5 333 C188.5 317, 311.5 317, 304.5 333   M195.5 333 C299.5 228, 200.5 228, 304.5 333" fill="white"/></svg>
    <svg id="eye"><path stroke="black" stroke-width="1" d="M258.5 156 C258.5 109, 364.5 100, 377.5 100   C409.5 100, 392.5 147, 392.5 163   C392.5 199, 459.5 243, 381.5 243   C340.5 243, 258.5 226, 258.5 156  Z " fill="white"/><path stroke="black" stroke-width="1" d="M241.5 156 C241.5 109, 135.5 100, 122.5 100   C90.5 100, 107.5 147, 107.5 163   C107.5 199, 40.5 243, 118.5 243   C159.5 243, 241.5 226, 241.5 156  Z " fill="white"/><path stroke="black" stroke-width="0" d="M313.5 162 C313.5 142, 323.5 132, 343.5 132   C363.5 132, 373.5 142, 373.5 162   C373.5 182, 363.5 192, 343.5 192   C323.5 192, 313.5 182, 313.5 162  Z " fill="black"/><path stroke="black" stroke-width="0" d="M186.5 162 C186.5 142, 176.5 132, 156.5 132   C136.5 132, 126.5 142, 126.5 162   C126.5 182, 136.5 192, 156.5 192   C176.5 192, 186.5 182, 186.5 162  Z " fill="black"/></svg>

  </svg>