<?xml version="1.0" encoding="UTF-8" standalone="no"?><svg xmlns="http://www.w3.org/2000/svg" id="montage">
    <svg id="ear"/>
    <circle id="countor" stroke="black" cx="250" cy="250" r="200" stroke-width="3" fill="white"/>
    <svg id="mouth"><path stroke="black" stroke-width="1" d="M153 287 C159 244, 341 244, 347 287   M153 287 C74 294, 426 294, 347 287" fill="white"/></svg>
    <svg id="eye"><path stroke="black" stroke-width="1" d="M261 165 C261 96, 296 108, 317 108   C348 108, 445 94, 445 169   C445 189, 446 195, 389 195   C330 195, 261 210, 261 165  Z " fill="white"/><path stroke="black" stroke-width="1" d="M239 165 C239 96, 204 108, 183 108   C152 108, 55 94, 55 169   C55 189, 54 195, 111 195   C170 195, 239 210, 239 165  Z " fill="white"/><path stroke="black" stroke-width="0" d="M311 146 C311 126, 321 116, 341 116   C361 116, 371 126, 371 146   C371 166, 361 176, 341 176   C321 176, 311 166, 311 146  Z " fill="black"/><path stroke="black" stroke-width="0" d="M189 146 C189 126, 179 116, 159 116   C139 116, 129 126, 129 146   C129 166, 139 176, 159 176   C179 176, 189 166, 189 146  Z " fill="black"/></svg>

  </svg>