<?xml version="1.0" encoding="UTF-8" standalone="no"?><svg xmlns="http://www.w3.org/2000/svg" id="montage">
    <svg id="ear"/>
    <circle id="countor" stroke="black" cx="250" cy="250" r="200" stroke-width="3" fill="white"/>
    <svg id="mouth"><path stroke="black" stroke-width="1" d="M185 343 C206 297, 294 297, 315 343   M185 343 C220 390, 280 390, 315 343" fill="white"/></svg>
    <svg id="eye"><path stroke="black" stroke-width="1" d="M252 198 C252 177, 274 155, 303 155   C313 155, 444 95, 444 156   C444 192, 381 277, 329 277   C296 277, 252 218, 252 198  Z " fill="white"/><path stroke="black" stroke-width="1" d="M248 198 C248 177, 226 155, 197 155   C187 155, 56 95, 56 156   C56 192, 119 277, 171 277   C204 277, 248 218, 248 198  Z " fill="white"/><path stroke="black" stroke-width="0" d="M318 203 C318 183, 328 173, 348 173   C368 173, 378 183, 378 203   C378 223, 368 233, 348 233   C328 233, 318 223, 318 203  Z " fill="black"/><path stroke="black" stroke-width="0" d="M182 203 C182 183, 172 173, 152 173   C132 173, 122 183, 122 203   C122 223, 132 233, 152 233   C172 233, 182 223, 182 203  Z " fill="black"/></svg>

  </svg>