<?xml version="1.0" encoding="UTF-8" standalone="no"?><svg xmlns="http://www.w3.org/2000/svg" id="montage">
    <svg id="ear"/>
    <circle id="countor" stroke="black" cx="250" cy="250" r="200" stroke-width="3" fill="white"/>
    <svg id="mouth"><path stroke="black" stroke-width="1" d="M186 383 C185 430, 315 430, 314 383   M186 383 C266 417, 234 417, 314 383" fill="white"/></svg>
    <svg id="eye"><path stroke="black" stroke-width="1" d="M242 194 C242 145, 326 64, 353 64   C426 64, 428 164, 428 190   C428 266, 359 260, 339 260   C287 260, 242 227, 242 194  Z " fill="white"/><path stroke="black" stroke-width="1" d="M258 194 C258 145, 174 64, 147 64   C74 64, 72 164, 72 190   C72 266, 141 260, 161 260   C213 260, 258 227, 258 194  Z " fill="white"/><path stroke="black" stroke-width="0" d="M319 144 C319 124, 329 114, 349 114   C369 114, 379 124, 379 144   C379 164, 369 174, 349 174   C329 174, 319 164, 319 144  Z " fill="black"/><path stroke="black" stroke-width="0" d="M181 144 C181 124, 171 114, 151 114   C131 114, 121 124, 121 144   C121 164, 131 174, 151 174   C171 174, 181 164, 181 144  Z " fill="black"/></svg>

  </svg>