<?xml version="1.0" encoding="UTF-8" standalone="no"?><svg xmlns="http://www.w3.org/2000/svg" id="montage">
    <svg id="ear"/>
    <circle id="countor" stroke="black" cx="250" cy="250" r="200" stroke-width="3" fill="white"/>
    <svg id="mouth"><path stroke="black" stroke-width="1" d="M192.5 324 C150.5 301, 349.5 301, 307.5 324   M192.5 324 C155.5 201, 344.5 201, 307.5 324" fill="white"/></svg>
    <svg id="eye"><path stroke="black" stroke-width="1" d="M253.5 176 C253.5 117, 301.5 121, 358.5 121   C378.5 121, 445.5 171, 445.5 185   C445.5 246, 350.5 308, 311.5 308   C272.5 308, 253.5 218, 253.5 176  Z " fill="white"/><path stroke="black" stroke-width="1" d="M246.5 176 C246.5 117, 198.5 121, 141.5 121   C121.5 121, 54.5 171, 54.5 185   C54.5 246, 149.5 308, 188.5 308   C227.5 308, 246.5 218, 246.5 176  Z " fill="white"/><path stroke="black" stroke-width="0" d="M317.5 207 C317.5 187, 327.5 177, 347.5 177   C367.5 177, 377.5 187, 377.5 207   C377.5 227, 367.5 237, 347.5 237   C327.5 237, 317.5 227, 317.5 207  Z " fill="black"/><path stroke="black" stroke-width="0" d="M182.5 207 C182.5 187, 172.5 177, 152.5 177   C132.5 177, 122.5 187, 122.5 207   C122.5 227, 132.5 237, 152.5 237   C172.5 237, 182.5 227, 182.5 207  Z " fill="black"/></svg>

  </svg>