<?xml version="1.0" encoding="UTF-8" standalone="no"?><svg xmlns="http://www.w3.org/2000/svg" id="montage">
    <svg id="ear"/>
    <circle id="countor" stroke="black" cx="250" cy="250" r="200" stroke-width="3" fill="white"/>
    <svg id="mouth"><path stroke="black" stroke-width="1" d="M121.5 314 C73.5 314, 426.5 314, 378.5 314   M121.5 314 C237.5 176, 262.5 176, 378.5 314" fill="white"/></svg>
    <svg id="eye"><path stroke="black" stroke-width="1" d="M274 119 C274 83, 355 117, 389 117   C463 117, 454 149, 454 205   C454 277, 380 260, 346 260   C334 260, 274 171, 274 119  Z " fill="white"/><path stroke="black" stroke-width="1" d="M226 119 C226 83, 145 117, 111 117   C37 117, 46 149, 46 205   C46 277, 120 260, 154 260   C166 260, 226 171, 226 119  Z " fill="white"/><path stroke="black" stroke-width="0" d="M311 169 C311 149, 321 139, 341 139   C361 139, 371 149, 371 169   C371 189, 361 199, 341 199   C321 199, 311 189, 311 169  Z " fill="black"/><path stroke="black" stroke-width="0" d="M189 169 C189 149, 179 139, 159 139   C139 139, 129 149, 129 169   C129 189, 139 199, 159 199   C179 199, 189 189, 189 169  Z " fill="black"/></svg>

  </svg>