<?xml version="1.0" encoding="UTF-8" standalone="no"?><svg xmlns="http://www.w3.org/2000/svg" id="montage">
    <svg id="ear"/>
    <circle id="countor" stroke="black" cx="250" cy="250" r="200" stroke-width="3" fill="white"/>
    <svg id="mouth"><path stroke="black" stroke-width="1" d="M162.5 305 C154.5 311, 345.5 311, 337.5 305   M162.5 305 C51.5 401, 448.5 401, 337.5 305" fill="white"/></svg>
    <svg id="eye"><path stroke="black" stroke-width="1" d="M239 98 C239 21, 271 20, 322 20   C332 20, 381 120, 381 160   C381 223, 346 184, 328 184   C248 184, 239 122, 239 98  Z " fill="white"/><path stroke="black" stroke-width="1" d="M261 98 C261 21, 229 20, 178 20   C168 20, 119 120, 119 160   C119 223, 154 184, 172 184   C252 184, 261 122, 261 98  Z " fill="white"/><path stroke="black" stroke-width="0" d="M314 137 C314 117, 324 107, 344 107   C364 107, 374 117, 374 137   C374 157, 364 167, 344 167   C324 167, 314 157, 314 137  Z " fill="black"/><path stroke="black" stroke-width="0" d="M186 137 C186 117, 176 107, 156 107   C136 107, 126 117, 126 137   C126 157, 136 167, 156 167   C176 167, 186 157, 186 137  Z " fill="black"/></svg>

  </svg>