<?xml version="1.0" encoding="UTF-8" standalone="no"?><svg xmlns="http://www.w3.org/2000/svg" id="montage">
    <svg id="ear"/>
    <circle id="countor" stroke="black" cx="250" cy="250" r="200" stroke-width="3" fill="white"/>
    <svg id="mouth"><path stroke="black" stroke-width="1" d="M235 333 C209 382, 291 382, 265 333   M235 333 C248 291, 252 291, 265 333" fill="white"/></svg>
    <svg id="eye"><path stroke="black" stroke-width="1" d="M278.5 185 C278.5 143, 280.5 152, 309.5 152   C333.5 152, 386.5 196, 386.5 222   C386.5 250, 310.5 247, 292.5 247   C219.5 247, 278.5 237, 278.5 185  Z " fill="white"/><path stroke="black" stroke-width="1" d="M221.5 185 C221.5 143, 219.5 152, 190.5 152   C166.5 152, 113.5 196, 113.5 222   C113.5 250, 189.5 247, 207.5 247   C280.5 247, 221.5 237, 221.5 185  Z " fill="white"/><path stroke="black" stroke-width="0" d="M310.5 187 C310.5 167, 320.5 157, 340.5 157   C360.5 157, 370.5 167, 370.5 187   C370.5 207, 360.5 217, 340.5 217   C320.5 217, 310.5 207, 310.5 187  Z " fill="black"/><path stroke="black" stroke-width="0" d="M189.5 187 C189.5 167, 179.5 157, 159.5 157   C139.5 157, 129.5 167, 129.5 187   C129.5 207, 139.5 217, 159.5 217   C179.5 217, 189.5 207, 189.5 187  Z " fill="black"/></svg>

  </svg>