<?xml version="1.0" encoding="UTF-8" standalone="no"?><svg xmlns="http://www.w3.org/2000/svg" id="montage">
    <svg id="ear"/>
    <circle id="countor" stroke="black" cx="250" cy="250" r="200" stroke-width="3" fill="white"/>
    <svg id="mouth"><path stroke="black" stroke-width="1" d="M143 318 C151 283, 349 283, 357 318   M143 318 C154 302, 346 302, 357 318" fill="white"/></svg>
    <svg id="eye"><path stroke="black" stroke-width="1" d="M284 201 C284 168, 283 68, 363 68   C416 68, 404 171, 404 207   C404 257, 399 281, 354 281   C284 281, 284 272, 284 201  Z " fill="white"/><path stroke="black" stroke-width="1" d="M216 201 C216 168, 217 68, 137 68   C84 68, 96 171, 96 207   C96 257, 101 281, 146 281   C216 281, 216 272, 216 201  Z " fill="white"/><path stroke="black" stroke-width="0" d="M314 178 C314 158, 324 148, 344 148   C364 148, 374 158, 374 178   C374 198, 364 208, 344 208   C324 208, 314 198, 314 178  Z " fill="black"/><path stroke="black" stroke-width="0" d="M186 178 C186 158, 176 148, 156 148   C136 148, 126 158, 126 178   C126 198, 136 208, 156 208   C176 208, 186 198, 186 178  Z " fill="black"/></svg>

  </svg>