<?xml version="1.0" encoding="UTF-8" standalone="no"?><svg xmlns="http://www.w3.org/2000/svg" id="montage">
    <svg id="ear"/>
    <circle id="countor" stroke="black" cx="250" cy="250" r="200" stroke-width="3" fill="white"/>
    <svg id="mouth"><path stroke="black" stroke-width="1" d="M216.5 337 C204.5 296, 295.5 296, 283.5 337   M216.5 337 C134.5 298, 365.5 298, 283.5 337" fill="white"/></svg>
    <svg id="eye"><path stroke="black" stroke-width="1" d="M288.5 171 C288.5 106, 343.5 115, 362.5 115   C375.5 115, 462.5 81, 462.5 153   C462.5 200, 325.5 239, 296.5 239   C245.5 239, 288.5 186, 288.5 171  Z " fill="white"/><path stroke="black" stroke-width="1" d="M211.5 171 C211.5 106, 156.5 115, 137.5 115   C124.5 115, 37.5 81, 37.5 153   C37.5 200, 174.5 239, 203.5 239   C254.5 239, 211.5 186, 211.5 171  Z " fill="white"/><path stroke="black" stroke-width="0" d="M313.5 162 C313.5 142, 323.5 132, 343.5 132   C363.5 132, 373.5 142, 373.5 162   C373.5 182, 363.5 192, 343.5 192   C323.5 192, 313.5 182, 313.5 162  Z " fill="black"/><path stroke="black" stroke-width="0" d="M186.5 162 C186.5 142, 176.5 132, 156.5 132   C136.5 132, 126.5 142, 126.5 162   C126.5 182, 136.5 192, 156.5 192   C176.5 192, 186.5 182, 186.5 162  Z " fill="black"/></svg>

  </svg>