<?xml version="1.0" encoding="UTF-8" standalone="no"?><svg xmlns="http://www.w3.org/2000/svg" id="montage">
    <svg id="ear"/>
    <circle id="countor" stroke="black" cx="250" cy="250" r="200" stroke-width="3" fill="white"/>
    <svg id="mouth"><path stroke="black" stroke-width="1" d="M202 289 C166 279, 334 279, 298 289   M202 289 C308 185, 192 185, 298 289" fill="white"/></svg>
    <svg id="eye"><path stroke="black" stroke-width="1" d="M284 217 C284 187, 317 60, 329 60   C348 60, 459 179, 459 217   C459 296, 416 276, 353 276   C327 276, 284 249, 284 217  Z " fill="white"/><path stroke="black" stroke-width="1" d="M216 217 C216 187, 183 60, 171 60   C152 60, 41 179, 41 217   C41 296, 84 276, 147 276   C173 276, 216 249, 216 217  Z " fill="white"/><path stroke="black" stroke-width="0" d="M314 176 C314 156, 324 146, 344 146   C364 146, 374 156, 374 176   C374 196, 364 206, 344 206   C324 206, 314 196, 314 176  Z " fill="black"/><path stroke="black" stroke-width="0" d="M186 176 C186 156, 176 146, 156 146   C136 146, 126 156, 126 176   C126 196, 136 206, 156 206   C176 206, 186 196, 186 176  Z " fill="black"/></svg>

  </svg>