<?xml version="1.0" encoding="UTF-8" standalone="no"?><svg xmlns="http://www.w3.org/2000/svg" id="montage">
    <svg id="ear"/>
    <circle id="countor" stroke="black" cx="250" cy="250" r="200" stroke-width="3" fill="white"/>
    <svg id="mouth"><path stroke="black" stroke-width="1" d="M141.5 297 C115.5 258, 384.5 258, 358.5 297   M141.5 297 C88.5 279, 411.5 279, 358.5 297" fill="white"/></svg>
    <svg id="eye"><path stroke="black" stroke-width="1" d="M290 132 C290 110, 384 86, 398 86   C467 86, 384 89, 384 124   C384 194, 459 258, 381 258   C369 258, 290 147, 290 132  Z " fill="white"/><path stroke="black" stroke-width="1" d="M210 132 C210 110, 116 86, 102 86   C33 86, 116 89, 116 124   C116 194, 41 258, 119 258   C131 258, 210 147, 210 132  Z " fill="white"/><path stroke="black" stroke-width="0" d="M318 139 C318 119, 328 109, 348 109   C368 109, 378 119, 378 139   C378 159, 368 169, 348 169   C328 169, 318 159, 318 139  Z " fill="black"/><path stroke="black" stroke-width="0" d="M182 139 C182 119, 172 109, 152 109   C132 109, 122 119, 122 139   C122 159, 132 169, 152 169   C172 169, 182 159, 182 139  Z " fill="black"/></svg>

  </svg>