<?xml version="1.0" encoding="UTF-8" standalone="no"?><svg xmlns="http://www.w3.org/2000/svg" id="montage">
    <svg id="ear"/>
    <circle id="countor" stroke="black" cx="250" cy="250" r="200" stroke-width="3" fill="white"/>
    <svg id="mouth"><path stroke="black" stroke-width="1" d="M160 324 C121 282, 379 282, 340 324   M160 324 C26 238, 474 238, 340 324" fill="white"/></svg>
    <svg id="eye"><path stroke="black" stroke-width="1" d="M233 127 C233 102, 326 45, 380 45   C394 45, 382 74, 382 133   C382 151, 416 230, 341 230   C307 230, 233 188, 233 127  Z " fill="white"/><path stroke="black" stroke-width="1" d="M267 127 C267 102, 174 45, 120 45   C106 45, 118 74, 118 133   C118 151, 84 230, 159 230   C193 230, 267 188, 267 127  Z " fill="white"/><path stroke="black" stroke-width="0" d="M313 145 C313 125, 323 115, 343 115   C363 115, 373 125, 373 145   C373 165, 363 175, 343 175   C323 175, 313 165, 313 145  Z " fill="black"/><path stroke="black" stroke-width="0" d="M187 145 C187 125, 177 115, 157 115   C137 115, 127 125, 127 145   C127 165, 137 175, 157 175   C177 175, 187 165, 187 145  Z " fill="black"/></svg>

  </svg>