<?xml version="1.0" encoding="UTF-8" standalone="no"?><svg xmlns="http://www.w3.org/2000/svg" id="montage">
    <svg id="ear"/>
    <circle id="countor" stroke="black" cx="250" cy="250" r="200" stroke-width="3" fill="white"/>
    <svg id="mouth"><path stroke="black" stroke-width="1" d="M129 284 C118 279, 382 279, 371 284   M129 284 C12 258, 488 258, 371 284" fill="white"/></svg>
    <svg id="eye"><path stroke="black" stroke-width="1" d="M270.5 181 C270.5 119, 330.5 60, 377.5 60   C394.5 60, 453.5 70, 453.5 144   C453.5 161, 427.5 197, 347.5 197   C320.5 197, 270.5 230, 270.5 181  Z " fill="white"/><path stroke="black" stroke-width="1" d="M229.5 181 C229.5 119, 169.5 60, 122.5 60   C105.5 60, 46.5 70, 46.5 144   C46.5 161, 72.5 197, 152.5 197   C179.5 197, 229.5 230, 229.5 181  Z " fill="white"/><path stroke="black" stroke-width="0" d="M319.5 152 C319.5 132, 329.5 122, 349.5 122   C369.5 122, 379.5 132, 379.5 152   C379.5 172, 369.5 182, 349.5 182   C329.5 182, 319.5 172, 319.5 152  Z " fill="black"/><path stroke="black" stroke-width="0" d="M180.5 152 C180.5 132, 170.5 122, 150.5 122   C130.5 122, 120.5 132, 120.5 152   C120.5 172, 130.5 182, 150.5 182   C170.5 182, 180.5 172, 180.5 152  Z " fill="black"/></svg>

  </svg>