<?xml version="1.0" encoding="UTF-8" standalone="no"?><svg xmlns="http://www.w3.org/2000/svg" id="montage">
    <svg id="ear"/>
    <circle id="countor" stroke="black" cx="250" cy="250" r="200" stroke-width="3" fill="white"/>
    <svg id="mouth"><path stroke="black" stroke-width="1" d="M165.5 415 C132.5 426, 367.5 426, 334.5 415   M165.5 415 C117.5 373, 382.5 373, 334.5 415" fill="white"/></svg>
    <svg id="eye"><path stroke="black" stroke-width="1" d="M249 210 C249 175, 289 132, 364 132   C415 132, 395 82, 395 150   C395 176, 398 244, 342 244   C299 244, 249 287, 249 210  Z " fill="white"/><path stroke="black" stroke-width="1" d="M251 210 C251 175, 211 132, 136 132   C85 132, 105 82, 105 150   C105 176, 102 244, 158 244   C201 244, 251 287, 251 210  Z " fill="white"/><path stroke="black" stroke-width="0" d="M319 200 C319 180, 329 170, 349 170   C369 170, 379 180, 379 200   C379 220, 369 230, 349 230   C329 230, 319 220, 319 200  Z " fill="black"/><path stroke="black" stroke-width="0" d="M181 200 C181 180, 171 170, 151 170   C131 170, 121 180, 121 200   C121 220, 131 230, 151 230   C171 230, 181 220, 181 200  Z " fill="black"/></svg>

  </svg>