<?xml version="1.0" encoding="UTF-8" standalone="no"?><svg xmlns="http://www.w3.org/2000/svg" id="montage">
    <svg id="ear"/>
    <circle id="countor" stroke="black" cx="250" cy="250" r="200" stroke-width="3" fill="white"/>
    <svg id="mouth"><path stroke="black" stroke-width="1" d="M183 312 C212 348, 288 348, 317 312   M183 312 C158 431, 342 431, 317 312" fill="white"/></svg>
    <svg id="eye"><path stroke="black" stroke-width="1" d="M235.5 183 C235.5 105, 351.5 42, 389.5 42   C457.5 42, 383.5 77, 383.5 152   C383.5 194, 393.5 270, 375.5 270   C353.5 270, 235.5 218, 235.5 183  Z " fill="white"/><path stroke="black" stroke-width="1" d="M264.5 183 C264.5 105, 148.5 42, 110.5 42   C42.5 42, 116.5 77, 116.5 152   C116.5 194, 106.5 270, 124.5 270   C146.5 270, 264.5 218, 264.5 183  Z " fill="white"/><path stroke="black" stroke-width="0" d="M316.5 150 C316.5 130, 326.5 120, 346.5 120   C366.5 120, 376.5 130, 376.5 150   C376.5 170, 366.5 180, 346.5 180   C326.5 180, 316.5 170, 316.5 150  Z " fill="black"/><path stroke="black" stroke-width="0" d="M183.5 150 C183.5 130, 173.5 120, 153.5 120   C133.5 120, 123.5 130, 123.5 150   C123.5 170, 133.5 180, 153.5 180   C173.5 180, 183.5 170, 183.5 150  Z " fill="black"/></svg>

  </svg>