<?xml version="1.0" encoding="UTF-8" standalone="no"?><svg xmlns="http://www.w3.org/2000/svg" id="montage">
    <svg id="ear"/>
    <circle id="countor" stroke="black" cx="250" cy="250" r="200" stroke-width="3" fill="white"/>
    <svg id="mouth"><path stroke="black" stroke-width="1" d="M231 310 C268 347, 232 347, 269 310   M231 310 C310 201, 190 201, 269 310" fill="white"/></svg>
    <svg id="eye"><path stroke="black" stroke-width="1" d="M299.5 272 C299.5 199, 285.5 143, 362.5 143   C433.5 143, 404.5 258, 404.5 273   C404.5 338, 355.5 322, 342.5 322   C290.5 322, 299.5 305, 299.5 272  Z " fill="white"/><path stroke="black" stroke-width="1" d="M200.5 272 C200.5 199, 214.5 143, 137.5 143   C66.5 143, 95.5 258, 95.5 273   C95.5 338, 144.5 322, 157.5 322   C209.5 322, 200.5 305, 200.5 272  Z " fill="white"/><path stroke="black" stroke-width="0" d="M313.5 227 C313.5 207, 323.5 197, 343.5 197   C363.5 197, 373.5 207, 373.5 227   C373.5 247, 363.5 257, 343.5 257   C323.5 257, 313.5 247, 313.5 227  Z " fill="black"/><path stroke="black" stroke-width="0" d="M186.5 227 C186.5 207, 176.5 197, 156.5 197   C136.5 197, 126.5 207, 126.5 227   C126.5 247, 136.5 257, 156.5 257   C176.5 257, 186.5 247, 186.5 227  Z " fill="black"/></svg>

  </svg>