<?xml version="1.0" encoding="UTF-8" standalone="no"?><svg xmlns="http://www.w3.org/2000/svg" id="montage">
    <svg id="ear"/>
    <circle id="countor" stroke="black" cx="250" cy="250" r="200" stroke-width="3" fill="white"/>
    <svg id="mouth"><path stroke="black" stroke-width="1" d="M163 357 C189 373, 311 373, 337 357   M163 357 C82 468, 418 468, 337 357" fill="white"/></svg>
    <svg id="eye"><path stroke="black" stroke-width="1" d="M247.5 185 C247.5 117, 278.5 76, 297.5 76   C357.5 76, 460.5 146, 460.5 183   C460.5 208, 354.5 253, 342.5 253   C311.5 253, 247.5 252, 247.5 185  Z " fill="white"/><path stroke="black" stroke-width="1" d="M252.5 185 C252.5 117, 221.5 76, 202.5 76   C142.5 76, 39.5 146, 39.5 183   C39.5 208, 145.5 253, 157.5 253   C188.5 253, 252.5 252, 252.5 185  Z " fill="white"/><path stroke="black" stroke-width="0" d="M310.5 157 C310.5 137, 320.5 127, 340.5 127   C360.5 127, 370.5 137, 370.5 157   C370.5 177, 360.5 187, 340.5 187   C320.5 187, 310.5 177, 310.5 157  Z " fill="black"/><path stroke="black" stroke-width="0" d="M189.5 157 C189.5 137, 179.5 127, 159.5 127   C139.5 127, 129.5 137, 129.5 157   C129.5 177, 139.5 187, 159.5 187   C179.5 187, 189.5 177, 189.5 157  Z " fill="black"/></svg>

  </svg>