<?xml version="1.0" encoding="UTF-8" standalone="no"?><svg xmlns="http://www.w3.org/2000/svg" id="montage">
    <svg id="ear"/>
    <circle id="countor" stroke="black" cx="250" cy="250" r="200" stroke-width="3" fill="white"/>
    <svg id="mouth"><path stroke="black" stroke-width="1" d="M226.5 298 C241.5 311, 258.5 311, 273.5 298   M226.5 298 C117.5 287, 382.5 287, 273.5 298" fill="white"/></svg>
    <svg id="eye"><path stroke="black" stroke-width="1" d="M306.5 212 C306.5 170, 347.5 154, 374.5 154   C412.5 154, 405.5 148, 405.5 199   C405.5 265, 436.5 241, 391.5 241   C350.5 241, 306.5 259, 306.5 212  Z " fill="white"/><path stroke="black" stroke-width="1" d="M193.5 212 C193.5 170, 152.5 154, 125.5 154   C87.5 154, 94.5 148, 94.5 199   C94.5 265, 63.5 241, 108.5 241   C149.5 241, 193.5 259, 193.5 212  Z " fill="white"/><path stroke="black" stroke-width="0" d="M316.5 196 C316.5 176, 326.5 166, 346.5 166   C366.5 166, 376.5 176, 376.5 196   C376.5 216, 366.5 226, 346.5 226   C326.5 226, 316.5 216, 316.5 196  Z " fill="black"/><path stroke="black" stroke-width="0" d="M183.5 196 C183.5 176, 173.5 166, 153.5 166   C133.5 166, 123.5 176, 123.5 196   C123.5 216, 133.5 226, 153.5 226   C173.5 226, 183.5 216, 183.5 196  Z " fill="black"/></svg>

  </svg>