<?xml version="1.0" encoding="UTF-8" standalone="no"?><svg xmlns="http://www.w3.org/2000/svg" id="montage">
    <svg id="ear"/>
    <circle id="countor" stroke="black" cx="250" cy="250" r="200" stroke-width="3" fill="white"/>
    <svg id="mouth"><path stroke="black" stroke-width="1" d="M165 422 C210 415, 290 415, 335 422   M165 422 C50 351, 450 351, 335 422" fill="white"/></svg>
    <svg id="eye"><path stroke="black" stroke-width="1" d="M237.5 235 C237.5 179, 354.5 119, 382.5 119   C421.5 119, 417.5 148, 417.5 164   C417.5 208, 368.5 295, 336.5 295   C272.5 295, 237.5 246, 237.5 235  Z " fill="white"/><path stroke="black" stroke-width="1" d="M262.5 235 C262.5 179, 145.5 119, 117.5 119   C78.5 119, 82.5 148, 82.5 164   C82.5 208, 131.5 295, 163.5 295   C227.5 295, 262.5 246, 262.5 235  Z " fill="white"/><path stroke="black" stroke-width="0" d="M317.5 203 C317.5 183, 327.5 173, 347.5 173   C367.5 173, 377.5 183, 377.5 203   C377.5 223, 367.5 233, 347.5 233   C327.5 233, 317.5 223, 317.5 203  Z " fill="black"/><path stroke="black" stroke-width="0" d="M182.5 203 C182.5 183, 172.5 173, 152.5 173   C132.5 173, 122.5 183, 122.5 203   C122.5 223, 132.5 233, 152.5 233   C172.5 233, 182.5 223, 182.5 203  Z " fill="black"/></svg>

  </svg>