<?xml version="1.0" encoding="UTF-8" standalone="no"?><svg xmlns="http://www.w3.org/2000/svg" id="montage">
    <svg id="ear"/>
    <circle id="countor" stroke="black" cx="250" cy="250" r="200" stroke-width="3" fill="white"/>
    <svg id="mouth"><path stroke="black" stroke-width="1" d="M215 423 C174 386, 326 386, 285 423   M215 423 C170 544, 330 544, 285 423" fill="white"/></svg>
    <svg id="eye"><path stroke="black" stroke-width="1" d="M273.5 177 C273.5 141, 284.5 38, 322.5 38   C395.5 38, 467.5 84, 467.5 162   C467.5 222, 379.5 258, 366.5 258   C338.5 258, 273.5 217, 273.5 177  Z " fill="white"/><path stroke="black" stroke-width="1" d="M226.5 177 C226.5 141, 215.5 38, 177.5 38   C104.5 38, 32.5 84, 32.5 162   C32.5 222, 120.5 258, 133.5 258   C161.5 258, 226.5 217, 226.5 177  Z " fill="white"/><path stroke="black" stroke-width="0" d="M319.5 139 C319.5 119, 329.5 109, 349.5 109   C369.5 109, 379.5 119, 379.5 139   C379.5 159, 369.5 169, 349.5 169   C329.5 169, 319.5 159, 319.5 139  Z " fill="black"/><path stroke="black" stroke-width="0" d="M180.5 139 C180.5 119, 170.5 109, 150.5 109   C130.5 109, 120.5 119, 120.5 139   C120.5 159, 130.5 169, 150.5 169   C170.5 169, 180.5 159, 180.5 139  Z " fill="black"/></svg>

  </svg>