<?xml version="1.0" encoding="UTF-8" standalone="no"?><svg xmlns="http://www.w3.org/2000/svg" id="montage">
    <svg id="ear"/>
    <circle id="countor" stroke="black" cx="250" cy="250" r="200" stroke-width="3" fill="white"/>
    <svg id="mouth"><path stroke="black" stroke-width="1" d="M147.5 317 C110.5 303, 389.5 303, 352.5 317   M147.5 317 C83.5 378, 416.5 378, 352.5 317" fill="white"/></svg>
    <svg id="eye"><path stroke="black" stroke-width="1" d="M244 207 C244 170, 311 102, 352 102   C383 102, 458 171, 458 203   C458 230, 414 337, 373 337   C304 337, 244 285, 244 207  Z " fill="white"/><path stroke="black" stroke-width="1" d="M256 207 C256 170, 189 102, 148 102   C117 102, 42 171, 42 203   C42 230, 86 337, 127 337   C196 337, 256 285, 256 207  Z " fill="white"/><path stroke="black" stroke-width="0" d="M310 217 C310 197, 320 187, 340 187   C360 187, 370 197, 370 217   C370 237, 360 247, 340 247   C320 247, 310 237, 310 217  Z " fill="black"/><path stroke="black" stroke-width="0" d="M190 217 C190 197, 180 187, 160 187   C140 187, 130 197, 130 217   C130 237, 140 247, 160 247   C180 247, 190 237, 190 217  Z " fill="black"/></svg>

  </svg>