<?xml version="1.0" encoding="UTF-8" standalone="no"?><svg xmlns="http://www.w3.org/2000/svg" id="montage">
    <svg id="ear"/>
    <circle id="countor" stroke="black" cx="250" cy="250" r="200" stroke-width="3" fill="white"/>
    <svg id="mouth"><path stroke="black" stroke-width="1" d="M173.5 361 C132.5 359, 367.5 359, 326.5 361   M173.5 361 C74.5 327, 425.5 327, 326.5 361" fill="white"/></svg>
    <svg id="eye"><path stroke="black" stroke-width="1" d="M227.5 250 C227.5 213, 318.5 96, 345.5 96   C372.5 96, 424.5 154, 424.5 167   C424.5 192, 359.5 290, 302.5 290   C250.5 290, 227.5 304, 227.5 250  Z " fill="white"/><path stroke="black" stroke-width="1" d="M272.5 250 C272.5 213, 181.5 96, 154.5 96   C127.5 96, 75.5 154, 75.5 167   C75.5 192, 140.5 290, 197.5 290   C249.5 290, 272.5 304, 272.5 250  Z " fill="white"/><path stroke="black" stroke-width="0" d="M315.5 213 C315.5 193, 325.5 183, 345.5 183   C365.5 183, 375.5 193, 375.5 213   C375.5 233, 365.5 243, 345.5 243   C325.5 243, 315.5 233, 315.5 213  Z " fill="black"/><path stroke="black" stroke-width="0" d="M184.5 213 C184.5 193, 174.5 183, 154.5 183   C134.5 183, 124.5 193, 124.5 213   C124.5 233, 134.5 243, 154.5 243   C174.5 243, 184.5 233, 184.5 213  Z " fill="black"/></svg>

  </svg>