<?xml version="1.0" encoding="UTF-8" standalone="no"?><svg xmlns="http://www.w3.org/2000/svg" id="montage">
    <svg id="ear"/>
    <circle id="countor" stroke="black" cx="250" cy="250" r="200" stroke-width="3" fill="white"/>
    <svg id="mouth"><path stroke="black" stroke-width="1" d="M142.5 379 C145.5 386, 354.5 386, 357.5 379   M142.5 379 C59.5 416, 440.5 416, 357.5 379" fill="white"/></svg>
    <svg id="eye"><path stroke="black" stroke-width="1" d="M289 142 C289 128, 318 67, 354 67   C394 67, 391 119, 391 161   C391 188, 374 285, 295 285   C262 285, 289 210, 289 142  Z " fill="white"/><path stroke="black" stroke-width="1" d="M211 142 C211 128, 182 67, 146 67   C106 67, 109 119, 109 161   C109 188, 126 285, 205 285   C238 285, 211 210, 211 142  Z " fill="white"/><path stroke="black" stroke-width="0" d="M311 180 C311 160, 321 150, 341 150   C361 150, 371 160, 371 180   C371 200, 361 210, 341 210   C321 210, 311 200, 311 180  Z " fill="black"/><path stroke="black" stroke-width="0" d="M189 180 C189 160, 179 150, 159 150   C139 150, 129 160, 129 180   C129 200, 139 210, 159 210   C179 210, 189 200, 189 180  Z " fill="black"/></svg>

  </svg>