<?xml version="1.0" encoding="UTF-8" standalone="no"?><svg xmlns="http://www.w3.org/2000/svg" id="montage">
    <svg id="ear"/>
    <circle id="countor" stroke="black" cx="250" cy="250" r="200" stroke-width="3" fill="white"/>
    <svg id="mouth"><path stroke="black" stroke-width="1" d="M124 417 C121 463, 379 463, 376 417   M124 417 C272 449, 228 449, 376 417" fill="white"/></svg>
    <svg id="eye"><path stroke="black" stroke-width="1" d="M261 129 C261 74, 340 87, 353 87   C419 87, 387 73, 387 150   C387 196, 355 235, 334 235   C295 235, 261 163, 261 129  Z " fill="white"/><path stroke="black" stroke-width="1" d="M239 129 C239 74, 160 87, 147 87   C81 87, 113 73, 113 150   C113 196, 145 235, 166 235   C205 235, 239 163, 239 129  Z " fill="white"/><path stroke="black" stroke-width="0" d="M318 139 C318 119, 328 109, 348 109   C368 109, 378 119, 378 139   C378 159, 368 169, 348 169   C328 169, 318 159, 318 139  Z " fill="black"/><path stroke="black" stroke-width="0" d="M182 139 C182 119, 172 109, 152 109   C132 109, 122 119, 122 139   C122 159, 132 169, 152 169   C172 169, 182 159, 182 139  Z " fill="black"/></svg>

  </svg>