<?xml version="1.0" encoding="UTF-8" standalone="no"?><svg xmlns="http://www.w3.org/2000/svg" id="montage">
    <svg id="ear"/>
    <circle id="countor" stroke="black" cx="250" cy="250" r="200" stroke-width="3" fill="white"/>
    <svg id="mouth"><path stroke="black" stroke-width="1" d="M184.5 351 C145.5 363, 354.5 363, 315.5 351   M184.5 351 C111.5 415, 388.5 415, 315.5 351" fill="white"/></svg>
    <svg id="eye"><path stroke="black" stroke-width="1" d="M300.5 245 C300.5 221, 277.5 103, 343.5 103   C375.5 103, 406.5 221, 406.5 232   C406.5 282, 340.5 300, 303.5 300   C239.5 300, 300.5 271, 300.5 245  Z " fill="white"/><path stroke="black" stroke-width="1" d="M199.5 245 C199.5 221, 222.5 103, 156.5 103   C124.5 103, 93.5 221, 93.5 232   C93.5 282, 159.5 300, 196.5 300   C260.5 300, 199.5 271, 199.5 245  Z " fill="white"/><path stroke="black" stroke-width="0" d="M312.5 214 C312.5 194, 322.5 184, 342.5 184   C362.5 184, 372.5 194, 372.5 214   C372.5 234, 362.5 244, 342.5 244   C322.5 244, 312.5 234, 312.5 214  Z " fill="black"/><path stroke="black" stroke-width="0" d="M187.5 214 C187.5 194, 177.5 184, 157.5 184   C137.5 184, 127.5 194, 127.5 214   C127.5 234, 137.5 244, 157.5 244   C177.5 244, 187.5 234, 187.5 214  Z " fill="black"/></svg>

  </svg>