<?xml version="1.0" encoding="UTF-8" standalone="no"?><svg xmlns="http://www.w3.org/2000/svg" id="montage">
    <svg id="ear"/>
    <circle id="countor" stroke="black" cx="250" cy="250" r="200" stroke-width="3" fill="white"/>
    <svg id="mouth"><path stroke="black" stroke-width="1" d="M239 301 C233 350, 267 350, 261 301   M239 301 C171 318, 329 318, 261 301" fill="white"/></svg>
    <svg id="eye"><path stroke="black" stroke-width="1" d="M274.5 116 C274.5 73, 251.5 26, 299.5 26   C317.5 26, 446.5 165, 446.5 188   C446.5 255, 386.5 239, 328.5 239   C276.5 239, 274.5 145, 274.5 116  Z " fill="white"/><path stroke="black" stroke-width="1" d="M225.5 116 C225.5 73, 248.5 26, 200.5 26   C182.5 26, 53.5 165, 53.5 188   C53.5 255, 113.5 239, 171.5 239   C223.5 239, 225.5 145, 225.5 116  Z " fill="white"/><path stroke="black" stroke-width="0" d="M317.5 144 C317.5 124, 327.5 114, 347.5 114   C367.5 114, 377.5 124, 377.5 144   C377.5 164, 367.5 174, 347.5 174   C327.5 174, 317.5 164, 317.5 144  Z " fill="black"/><path stroke="black" stroke-width="0" d="M182.5 144 C182.5 124, 172.5 114, 152.5 114   C132.5 114, 122.5 124, 122.5 144   C122.5 164, 132.5 174, 152.5 174   C172.5 174, 182.5 164, 182.5 144  Z " fill="black"/></svg>

  </svg>