<?xml version="1.0" encoding="UTF-8" standalone="no"?><svg xmlns="http://www.w3.org/2000/svg" id="montage">
    <svg id="ear"/>
    <circle id="countor" stroke="black" cx="250" cy="250" r="200" stroke-width="3" fill="white"/>
    <svg id="mouth"><path stroke="black" stroke-width="1" d="M178.5 392 C131.5 438, 368.5 438, 321.5 392   M178.5 392 C36.5 333, 463.5 333, 321.5 392" fill="white"/></svg>
    <svg id="eye"><path stroke="black" stroke-width="1" d="M256 183 C256 111, 355 132, 379 132   C407 132, 461 127, 461 155   C461 197, 461 291, 382 291   C314 291, 256 250, 256 183  Z " fill="white"/><path stroke="black" stroke-width="1" d="M244 183 C244 111, 145 132, 121 132   C93 132, 39 127, 39 155   C39 197, 39 291, 118 291   C186 291, 244 250, 244 183  Z " fill="white"/><path stroke="black" stroke-width="0" d="M316 203 C316 183, 326 173, 346 173   C366 173, 376 183, 376 203   C376 223, 366 233, 346 233   C326 233, 316 223, 316 203  Z " fill="black"/><path stroke="black" stroke-width="0" d="M184 203 C184 183, 174 173, 154 173   C134 173, 124 183, 124 203   C124 223, 134 233, 154 233   C174 233, 184 223, 184 203  Z " fill="black"/></svg>

  </svg>