<?xml version="1.0" encoding="UTF-8" standalone="no"?><svg xmlns="http://www.w3.org/2000/svg" id="montage">
    <svg id="ear"/>
    <circle id="countor" stroke="black" cx="250" cy="250" r="200" stroke-width="3" fill="white"/>
    <svg id="mouth"><path stroke="black" stroke-width="1" d="M124 406 C83 453, 417 453, 376 406   M124 406 C95 467, 405 467, 376 406" fill="white"/></svg>
    <svg id="eye"><path stroke="black" stroke-width="1" d="M225.5 179 C225.5 154, 248.5 151, 297.5 151   C332.5 151, 459.5 135, 459.5 166   C459.5 209, 365.5 264, 355.5 264   C278.5 264, 225.5 239, 225.5 179  Z " fill="white"/><path stroke="black" stroke-width="1" d="M274.5 179 C274.5 154, 251.5 151, 202.5 151   C167.5 151, 40.5 135, 40.5 166   C40.5 209, 134.5 264, 144.5 264   C221.5 264, 274.5 239, 274.5 179  Z " fill="white"/><path stroke="black" stroke-width="0" d="M311.5 199 C311.5 179, 321.5 169, 341.5 169   C361.5 169, 371.5 179, 371.5 199   C371.5 219, 361.5 229, 341.5 229   C321.5 229, 311.5 219, 311.5 199  Z " fill="black"/><path stroke="black" stroke-width="0" d="M188.5 199 C188.5 179, 178.5 169, 158.5 169   C138.5 169, 128.5 179, 128.5 199   C128.5 219, 138.5 229, 158.5 229   C178.5 229, 188.5 219, 188.5 199  Z " fill="black"/></svg>

  </svg>