<?xml version="1.0" encoding="UTF-8" standalone="no"?><svg xmlns="http://www.w3.org/2000/svg" id="montage">
    <svg id="ear"/>
    <circle id="countor" stroke="black" cx="250" cy="250" r="200" stroke-width="3" fill="white"/>
    <svg id="mouth"><path stroke="black" stroke-width="1" d="M192 352 C166 370, 334 370, 308 352   M192 352 C201 406, 299 406, 308 352" fill="white"/></svg>
    <svg id="eye"><path stroke="black" stroke-width="1" d="M247.5 246 C247.5 212, 335.5 114, 368.5 114   C423.5 114, 455.5 214, 455.5 243   C455.5 270, 405.5 265, 378.5 265   C298.5 265, 247.5 301, 247.5 246  Z " fill="white"/><path stroke="black" stroke-width="1" d="M252.5 246 C252.5 212, 164.5 114, 131.5 114   C76.5 114, 44.5 214, 44.5 243   C44.5 270, 94.5 265, 121.5 265   C201.5 265, 252.5 301, 252.5 246  Z " fill="white"/><path stroke="black" stroke-width="0" d="M313.5 202 C313.5 182, 323.5 172, 343.5 172   C363.5 172, 373.5 182, 373.5 202   C373.5 222, 363.5 232, 343.5 232   C323.5 232, 313.5 222, 313.5 202  Z " fill="black"/><path stroke="black" stroke-width="0" d="M186.5 202 C186.5 182, 176.5 172, 156.5 172   C136.5 172, 126.5 182, 126.5 202   C126.5 222, 136.5 232, 156.5 232   C176.5 232, 186.5 222, 186.5 202  Z " fill="black"/></svg>

  </svg>