<?xml version="1.0" encoding="UTF-8" standalone="no"?><svg xmlns="http://www.w3.org/2000/svg" id="montage">
    <svg id="ear"/>
    <circle id="countor" stroke="black" cx="250" cy="250" r="200" stroke-width="3" fill="white"/>
    <svg id="mouth"><path stroke="black" stroke-width="1" d="M126 359 C175 362, 325 362, 374 359   M126 359 C21 233, 479 233, 374 359" fill="white"/></svg>
    <svg id="eye"><path stroke="black" stroke-width="1" d="M243 182 C243 121, 309 20, 343 20   C413 20, 431 59, 431 98   C431 122, 336 241, 313 241   C240 241, 243 205, 243 182  Z " fill="white"/><path stroke="black" stroke-width="1" d="M257 182 C257 121, 191 20, 157 20   C87 20, 69 59, 69 98   C69 122, 164 241, 187 241   C260 241, 257 205, 257 182  Z " fill="white"/><path stroke="black" stroke-width="0" d="M317 136 C317 116, 327 106, 347 106   C367 106, 377 116, 377 136   C377 156, 367 166, 347 166   C327 166, 317 156, 317 136  Z " fill="black"/><path stroke="black" stroke-width="0" d="M183 136 C183 116, 173 106, 153 106   C133 106, 123 116, 123 136   C123 156, 133 166, 153 166   C173 166, 183 156, 183 136  Z " fill="black"/></svg>

  </svg>