<?xml version="1.0" encoding="UTF-8" standalone="no"?><svg xmlns="http://www.w3.org/2000/svg" id="montage">
    <svg id="ear"/>
    <circle id="countor" stroke="black" cx="250" cy="250" r="200" stroke-width="3" fill="white"/>
    <svg id="mouth"><path stroke="black" stroke-width="1" d="M183.5 403 C170.5 382, 329.5 382, 316.5 403   M183.5 403 C53.5 329, 446.5 329, 316.5 403" fill="white"/></svg>
    <svg id="eye"><path stroke="black" stroke-width="1" d="M240 211 C240 174, 284 119, 358 119   C428 119, 421 218, 421 234   C421 271, 428 281, 375 281   C325 281, 240 276, 240 211  Z " fill="white"/><path stroke="black" stroke-width="1" d="M260 211 C260 174, 216 119, 142 119   C72 119, 79 218, 79 234   C79 271, 72 281, 125 281   C175 281, 260 276, 260 211  Z " fill="white"/><path stroke="black" stroke-width="0" d="M315 229 C315 209, 325 199, 345 199   C365 199, 375 209, 375 229   C375 249, 365 259, 345 259   C325 259, 315 249, 315 229  Z " fill="black"/><path stroke="black" stroke-width="0" d="M185 229 C185 209, 175 199, 155 199   C135 199, 125 209, 125 229   C125 249, 135 259, 155 259   C175 259, 185 249, 185 229  Z " fill="black"/></svg>

  </svg>