<?xml version="1.0" encoding="UTF-8" standalone="no"?><svg xmlns="http://www.w3.org/2000/svg" id="montage">
    <svg id="ear"/>
    <circle id="countor" stroke="black" cx="250" cy="250" r="200" stroke-width="3" fill="white"/>
    <svg id="mouth"><path stroke="black" stroke-width="1" d="M171 416 C127 422, 373 422, 329 416   M171 416 C103 536, 397 536, 329 416" fill="white"/></svg>
    <svg id="eye"><path stroke="black" stroke-width="1" d="M227.5 214 C227.5 165, 279.5 125, 347.5 125   C423.5 125, 423.5 123, 423.5 172   C423.5 194, 401.5 274, 386.5 274   C310.5 274, 227.5 277, 227.5 214  Z " fill="white"/><path stroke="black" stroke-width="1" d="M272.5 214 C272.5 165, 220.5 125, 152.5 125   C76.5 125, 76.5 123, 76.5 172   C76.5 194, 98.5 274, 113.5 274   C189.5 274, 272.5 277, 272.5 214  Z " fill="white"/><path stroke="black" stroke-width="0" d="M313.5 174 C313.5 154, 323.5 144, 343.5 144   C363.5 144, 373.5 154, 373.5 174   C373.5 194, 363.5 204, 343.5 204   C323.5 204, 313.5 194, 313.5 174  Z " fill="black"/><path stroke="black" stroke-width="0" d="M186.5 174 C186.5 154, 176.5 144, 156.5 144   C136.5 144, 126.5 154, 126.5 174   C126.5 194, 136.5 204, 156.5 204   C176.5 204, 186.5 194, 186.5 174  Z " fill="black"/></svg>

  </svg>