<?xml version="1.0" encoding="UTF-8" standalone="no"?><svg xmlns="http://www.w3.org/2000/svg" id="montage">
    <svg id="ear"/>
    <circle id="countor" stroke="black" cx="250" cy="250" r="200" stroke-width="3" fill="white"/>
    <svg id="mouth"><path stroke="black" stroke-width="1" d="M125.5 360 C137.5 398, 362.5 398, 374.5 360   M125.5 360 C167.5 217, 332.5 217, 374.5 360" fill="white"/></svg>
    <svg id="eye"><path stroke="black" stroke-width="1" d="M266 214 C266 163, 301 106, 343 106   C385 106, 451 141, 451 217   C451 230, 359 268, 302 268   C285 268, 266 232, 266 214  Z " fill="white"/><path stroke="black" stroke-width="1" d="M234 214 C234 163, 199 106, 157 106   C115 106, 49 141, 49 217   C49 230, 141 268, 198 268   C215 268, 234 232, 234 214  Z " fill="white"/><path stroke="black" stroke-width="0" d="M312 182 C312 162, 322 152, 342 152   C362 152, 372 162, 372 182   C372 202, 362 212, 342 212   C322 212, 312 202, 312 182  Z " fill="black"/><path stroke="black" stroke-width="0" d="M188 182 C188 162, 178 152, 158 152   C138 152, 128 162, 128 182   C128 202, 138 212, 158 212   C178 212, 188 202, 188 182  Z " fill="black"/></svg>

  </svg>