<?xml version="1.0" encoding="UTF-8" standalone="no"?><svg xmlns="http://www.w3.org/2000/svg" id="montage">
    <svg id="ear"><path stroke="black" stroke-width="1" d="M413.8304088577984 135.28471272979078 C570.8304088577984 13.284712729790783, 554.5092303282644 104.37386868102948, 448.5092303282644 274.3738686810295   " fill="white"/><path stroke="black" stroke-width="1" d="M86.16959114220165 135.28471272979078 C-70.83040885779835 13.284712729790783, -54.50923032826441 104.37386868102948, 51.49076967173559 274.3738686810295   " fill="white"/></svg>
    <circle id="countor" stroke="black" cx="250" cy="250" r="200" stroke-width="3" fill="white"/>
    <svg id="mouth"><path stroke="black" stroke-width="1" d="M142.5 348 C141.5 345, 358.5 345, 357.5 348   M142.5 348 C183.5 328, 316.5 328, 357.5 348" fill="white"/></svg>
    <svg id="eye"><path stroke="black" stroke-width="1" d="M235.5 208 C235.5 140, 295.5 106, 373.5 106   C404.5 106, 420.5 152, 420.5 187   C420.5 249, 385.5 293, 346.5 293   C295.5 293, 235.5 240, 235.5 208  Z " fill="white"/><path stroke="black" stroke-width="1" d="M264.5 208 C264.5 140, 204.5 106, 126.5 106   C95.5 106, 79.5 152, 79.5 187   C79.5 249, 114.5 293, 153.5 293   C204.5 293, 264.5 240, 264.5 208  Z " fill="white"/><path stroke="black" stroke-width="0" d="M316.5 186 C316.5 166, 326.5 156, 346.5 156   C366.5 156, 376.5 166, 376.5 186   C376.5 206, 366.5 216, 346.5 216   C326.5 216, 316.5 206, 316.5 186  Z " fill="black"/><path stroke="black" stroke-width="0" d="M183.5 186 C183.5 166, 173.5 156, 153.5 156   C133.5 156, 123.5 166, 123.5 186   C123.5 206, 133.5 216, 153.5 216   C173.5 216, 183.5 206, 183.5 186  Z " fill="black"/></svg>

  </svg>