<?xml version="1.0" encoding="UTF-8" standalone="no"?><svg xmlns="http://www.w3.org/2000/svg" id="montage">
    <svg id="ear"/>
    <circle id="countor" stroke="black" cx="250" cy="250" r="200" stroke-width="3" fill="white"/>
    <svg id="mouth"><path stroke="black" stroke-width="1" d="M202 367 C245 319, 255 319, 298 367   M202 367 C285 231, 215 231, 298 367" fill="white"/></svg>
    <svg id="eye"><path stroke="black" stroke-width="1" d="M229.5 247 C229.5 181, 334.5 172, 347.5 172   C398.5 172, 455.5 234, 455.5 276   C455.5 292, 346.5 342, 294.5 342   C224.5 342, 229.5 316, 229.5 247  Z " fill="white"/><path stroke="black" stroke-width="1" d="M270.5 247 C270.5 181, 165.5 172, 152.5 172   C101.5 172, 44.5 234, 44.5 276   C44.5 292, 153.5 342, 205.5 342   C275.5 342, 270.5 316, 270.5 247  Z " fill="white"/><path stroke="black" stroke-width="0" d="M313.5 229 C313.5 209, 323.5 199, 343.5 199   C363.5 199, 373.5 209, 373.5 229   C373.5 249, 363.5 259, 343.5 259   C323.5 259, 313.5 249, 313.5 229  Z " fill="black"/><path stroke="black" stroke-width="0" d="M186.5 229 C186.5 209, 176.5 199, 156.5 199   C136.5 199, 126.5 209, 126.5 229   C126.5 249, 136.5 259, 156.5 259   C176.5 259, 186.5 249, 186.5 229  Z " fill="black"/></svg>

  </svg>