<?xml version="1.0" encoding="UTF-8" standalone="no"?><svg xmlns="http://www.w3.org/2000/svg" id="montage">
    <svg id="ear"><path stroke="black" stroke-width="1" d="M449.23893961834915 232.56885145046837 C516.2389396183491 46.56885145046837, 613.8781654038191 324.9798993405002, 449.87816540381914 256.9798993405002   " fill="white"/><path stroke="black" stroke-width="1" d="M50.76106038165088 232.56885145046837 C-16.23893961834912 46.56885145046837, -113.87816540381914 324.9798993405002, 50.12183459618086 256.9798993405002   " fill="white"/></svg>
    <circle id="countor" stroke="black" cx="250" cy="250" r="200" stroke-width="3" fill="white"/>
    <svg id="mouth"><path stroke="black" stroke-width="1" d="M231.5 372 C230.5 329, 269.5 329, 268.5 372   M231.5 372 C261.5 483, 238.5 483, 268.5 372" fill="white"/></svg>
    <svg id="eye"><path stroke="black" stroke-width="1" d="M228.5 143 C228.5 123, 261.5 82, 305.5 82   C353.5 82, 440.5 181, 440.5 214   C440.5 237, 365.5 239, 337.5 239   C309.5 239, 228.5 215, 228.5 143  Z " fill="white"/><path stroke="black" stroke-width="1" d="M271.5 143 C271.5 123, 238.5 82, 194.5 82   C146.5 82, 59.5 181, 59.5 214   C59.5 237, 134.5 239, 162.5 239   C190.5 239, 271.5 215, 271.5 143  Z " fill="white"/><path stroke="black" stroke-width="0" d="M317.5 182 C317.5 162, 327.5 152, 347.5 152   C367.5 152, 377.5 162, 377.5 182   C377.5 202, 367.5 212, 347.5 212   C327.5 212, 317.5 202, 317.5 182  Z " fill="black"/><path stroke="black" stroke-width="0" d="M182.5 182 C182.5 162, 172.5 152, 152.5 152   C132.5 152, 122.5 162, 122.5 182   C122.5 202, 132.5 212, 152.5 212   C172.5 212, 182.5 202, 182.5 182  Z " fill="black"/></svg>

  </svg>