<?xml version="1.0" encoding="UTF-8" standalone="no"?><svg xmlns="http://www.w3.org/2000/svg" id="montage">
    <svg id="ear"/>
    <circle id="countor" stroke="black" cx="250" cy="250" r="200" stroke-width="3" fill="white"/>
    <svg id="mouth"><path stroke="black" stroke-width="1" d="M152.5 330 C166.5 365, 333.5 365, 347.5 330   M152.5 330 C60.5 190, 439.5 190, 347.5 330" fill="white"/></svg>
    <svg id="eye"><path stroke="black" stroke-width="1" d="M292.5 137 C292.5 127, 321.5 15, 357.5 15   C393.5 15, 456.5 103, 456.5 160   C456.5 174, 406.5 178, 356.5 178   C329.5 178, 292.5 213, 292.5 137  Z " fill="white"/><path stroke="black" stroke-width="1" d="M207.5 137 C207.5 127, 178.5 15, 142.5 15   C106.5 15, 43.5 103, 43.5 160   C43.5 174, 93.5 178, 143.5 178   C170.5 178, 207.5 213, 207.5 137  Z " fill="white"/><path stroke="black" stroke-width="0" d="M314.5 130 C314.5 110, 324.5 100, 344.5 100   C364.5 100, 374.5 110, 374.5 130   C374.5 150, 364.5 160, 344.5 160   C324.5 160, 314.5 150, 314.5 130  Z " fill="black"/><path stroke="black" stroke-width="0" d="M185.5 130 C185.5 110, 175.5 100, 155.5 100   C135.5 100, 125.5 110, 125.5 130   C125.5 150, 135.5 160, 155.5 160   C175.5 160, 185.5 150, 185.5 130  Z " fill="black"/></svg>

  </svg>