<?xml version="1.0" encoding="UTF-8" standalone="no"?><svg xmlns="http://www.w3.org/2000/svg" id="montage">
    <svg id="ear"><path stroke="black" stroke-width="1" d="M449.51281005196483 236.04870525117494 C466.51281005196483 255.04870525117494, 568.9239414278792 352.9619240492674, 424.9239414278792 346.9619240492674   " fill="white"/><path stroke="black" stroke-width="1" d="M50.487189948035166 236.04870525117494 C33.487189948035166 255.04870525117494, -68.92394142787916 352.9619240492674, 75.07605857212084 346.9619240492674   " fill="white"/></svg>
    <circle id="countor" stroke="black" cx="250" cy="250" r="200" stroke-width="3" fill="white"/>
    <svg id="mouth"><path stroke="black" stroke-width="1" d="M176.5 419 C192.5 454, 307.5 454, 323.5 419   M176.5 419 C125.5 274, 374.5 274, 323.5 419" fill="white"/></svg>
    <svg id="eye"><path stroke="black" stroke-width="1" d="M266 204 C266 149, 226 77, 297 77   C374 77, 426 107, 426 153   C426 220, 384 292, 365 292   C340 292, 266 218, 266 204  Z " fill="white"/><path stroke="black" stroke-width="1" d="M234 204 C234 149, 274 77, 203 77   C126 77, 74 107, 74 153   C74 220, 116 292, 135 292   C160 292, 234 218, 234 204  Z " fill="white"/><path stroke="black" stroke-width="0" d="M317 189 C317 169, 327 159, 347 159   C367 159, 377 169, 377 189   C377 209, 367 219, 347 219   C327 219, 317 209, 317 189  Z " fill="black"/><path stroke="black" stroke-width="0" d="M183 189 C183 169, 173 159, 153 159   C133 159, 123 169, 123 189   C123 209, 133 219, 153 219   C173 219, 183 209, 183 189  Z " fill="black"/></svg>

  </svg>