<?xml version="1.0" encoding="UTF-8" standalone="no"?><svg xmlns="http://www.w3.org/2000/svg" id="montage">
    <svg id="ear"/>
    <circle id="countor" stroke="black" cx="250" cy="250" r="200" stroke-width="3" fill="white"/>
    <svg id="mouth"><path stroke="black" stroke-width="1" d="M197 368 C188 379, 312 379, 303 368   M197 368 C278 355, 222 355, 303 368" fill="white"/></svg>
    <svg id="eye"><path stroke="black" stroke-width="1" d="M264.5 226 C264.5 196, 276.5 140, 341.5 140   C412.5 140, 407.5 154, 407.5 199   C407.5 215, 384.5 242, 359.5 242   C335.5 242, 264.5 301, 264.5 226  Z " fill="white"/><path stroke="black" stroke-width="1" d="M235.5 226 C235.5 196, 223.5 140, 158.5 140   C87.5 140, 92.5 154, 92.5 199   C92.5 215, 115.5 242, 140.5 242   C164.5 242, 235.5 301, 235.5 226  Z " fill="white"/><path stroke="black" stroke-width="0" d="M313.5 182 C313.5 162, 323.5 152, 343.5 152   C363.5 152, 373.5 162, 373.5 182   C373.5 202, 363.5 212, 343.5 212   C323.5 212, 313.5 202, 313.5 182  Z " fill="black"/><path stroke="black" stroke-width="0" d="M186.5 182 C186.5 162, 176.5 152, 156.5 152   C136.5 152, 126.5 162, 126.5 182   C126.5 202, 136.5 212, 156.5 212   C176.5 212, 186.5 202, 186.5 182  Z " fill="black"/></svg>

  </svg>