<?xml version="1.0" encoding="UTF-8" standalone="no"?><svg xmlns="http://www.w3.org/2000/svg" id="montage">
    <svg id="ear"><path stroke="black" stroke-width="1" d="M448.5092303282644 225.6261313189705 C475.5092303282644 420.62613131897047, 633 342, 450 250   " fill="white"/><path stroke="black" stroke-width="1" d="M51.49076967173559 225.6261313189705 C24.490769671735592 420.62613131897047, -133 342, 50 250   " fill="white"/></svg>
    <circle id="countor" stroke="black" cx="250" cy="250" r="200" stroke-width="3" fill="white"/>
    <svg id="mouth"><path stroke="black" stroke-width="1" d="M166 306 C123 265, 377 265, 334 306   M166 306 C283 202, 217 202, 334 306" fill="white"/></svg>
    <svg id="eye"><path stroke="black" stroke-width="1" d="M278 191 C278 174, 323 85, 355 85   C423 85, 448 101, 448 166   C448 196, 369 245, 359 245   C341 245, 278 239, 278 191  Z " fill="white"/><path stroke="black" stroke-width="1" d="M222 191 C222 174, 177 85, 145 85   C77 85, 52 101, 52 166   C52 196, 131 245, 141 245   C159 245, 222 239, 222 191  Z " fill="white"/><path stroke="black" stroke-width="0" d="M315 194 C315 174, 325 164, 345 164   C365 164, 375 174, 375 194   C375 214, 365 224, 345 224   C325 224, 315 214, 315 194  Z " fill="black"/><path stroke="black" stroke-width="0" d="M185 194 C185 174, 175 164, 155 164   C135 164, 125 174, 125 194   C125 214, 135 224, 155 224   C175 224, 185 214, 185 194  Z " fill="black"/></svg>

  </svg>