<?xml version="1.0" encoding="UTF-8" standalone="no"?><svg xmlns="http://www.w3.org/2000/svg" id="montage">
    <svg id="ear"><path stroke="black" stroke-width="1" d="M437.9385241571817 181.59597133486625 C566.9385241571817 284.59597133486625, 494.7588092598334 394.6742293578155, 429.7588092598334 337.6742293578155   " fill="white"/><path stroke="black" stroke-width="1" d="M62.06147584281831 181.59597133486625 C-66.93852415718169 284.59597133486625, 5.241190740166587 394.6742293578155, 70.24119074016659 337.6742293578155   " fill="white"/></svg>
    <circle id="countor" stroke="black" cx="250" cy="250" r="200" stroke-width="3" fill="white"/>
    <svg id="mouth"><path stroke="black" stroke-width="1" d="M226.5 418 C184.5 440, 315.5 440, 273.5 418   M226.5 418 C209.5 405, 290.5 405, 273.5 418" fill="white"/></svg>
    <svg id="eye"><path stroke="black" stroke-width="1" d="M311 252 C311 205, 363 110, 390 110   C459 110, 407 190, 407 247   C407 265, 439 325, 362 325   C324 325, 311 301, 311 252  Z " fill="white"/><path stroke="black" stroke-width="1" d="M189 252 C189 205, 137 110, 110 110   C41 110, 93 190, 93 247   C93 265, 61 325, 138 325   C176 325, 189 301, 189 252  Z " fill="white"/><path stroke="black" stroke-width="0" d="M317 221 C317 201, 327 191, 347 191   C367 191, 377 201, 377 221   C377 241, 367 251, 347 251   C327 251, 317 241, 317 221  Z " fill="black"/><path stroke="black" stroke-width="0" d="M183 221 C183 201, 173 191, 153 191   C133 191, 123 201, 123 221   C123 241, 133 251, 153 251   C173 251, 183 241, 183 221  Z " fill="black"/></svg>

  </svg>