<?xml version="1.0" encoding="UTF-8" standalone="no"?><svg xmlns="http://www.w3.org/2000/svg" id="montage">
    <svg id="ear"/>
    <circle id="countor" stroke="black" cx="250" cy="250" r="200" stroke-width="3" fill="white"/>
    <svg id="mouth"><path stroke="black" stroke-width="1" d="M233.5 275 C217.5 311, 282.5 311, 266.5 275   M233.5 275 C268.5 356, 231.5 356, 266.5 275" fill="white"/></svg>
    <svg id="eye"><path stroke="black" stroke-width="1" d="M232.5 176 C232.5 157, 310.5 153, 380.5 153   C438.5 153, 410.5 145, 410.5 188   C410.5 226, 384.5 287, 321.5 287   C260.5 287, 232.5 189, 232.5 176  Z " fill="white"/><path stroke="black" stroke-width="1" d="M267.5 176 C267.5 157, 189.5 153, 119.5 153   C61.5 153, 89.5 145, 89.5 188   C89.5 226, 115.5 287, 178.5 287   C239.5 287, 267.5 189, 267.5 176  Z " fill="white"/><path stroke="black" stroke-width="0" d="M310.5 199 C310.5 179, 320.5 169, 340.5 169   C360.5 169, 370.5 179, 370.5 199   C370.5 219, 360.5 229, 340.5 229   C320.5 229, 310.5 219, 310.5 199  Z " fill="black"/><path stroke="black" stroke-width="0" d="M189.5 199 C189.5 179, 179.5 169, 159.5 169   C139.5 169, 129.5 179, 129.5 199   C129.5 219, 139.5 229, 159.5 229   C179.5 229, 189.5 219, 189.5 199  Z " fill="black"/></svg>

  </svg>