<?xml version="1.0" encoding="UTF-8" standalone="no"?><svg xmlns="http://www.w3.org/2000/svg" id="montage">
    <svg id="ear"/>
    <circle id="countor" stroke="black" cx="250" cy="250" r="200" stroke-width="3" fill="white"/>
    <svg id="mouth"><path stroke="black" stroke-width="1" d="M210 385 C260 404, 240 404, 290 385   M210 385 C110 406, 390 406, 290 385" fill="white"/></svg>
    <svg id="eye"><path stroke="black" stroke-width="1" d="M277 120 C277 49, 288 26, 353 26   C367 26, 459 75, 459 151   C459 170, 460 181, 392 181   C319 181, 277 133, 277 120  Z " fill="white"/><path stroke="black" stroke-width="1" d="M223 120 C223 49, 212 26, 147 26   C133 26, 41 75, 41 151   C41 170, 40 181, 108 181   C181 181, 223 133, 223 120  Z " fill="white"/><path stroke="black" stroke-width="0" d="M313 141 C313 121, 323 111, 343 111   C363 111, 373 121, 373 141   C373 161, 363 171, 343 171   C323 171, 313 161, 313 141  Z " fill="black"/><path stroke="black" stroke-width="0" d="M187 141 C187 121, 177 111, 157 111   C137 111, 127 121, 127 141   C127 161, 137 171, 157 171   C177 171, 187 161, 187 141  Z " fill="black"/></svg>

  </svg>