<?xml version="1.0" encoding="UTF-8" standalone="no"?><svg xmlns="http://www.w3.org/2000/svg" id="montage">
    <svg id="ear"><path stroke="black" stroke-width="1" d="M407.6021507213444 126.86770493486836 C593.6021507213444 315.86770493486836, 612.1851652578137 70.23619097949586, 443.18516525781365 198.23619097949586   " fill="white"/><path stroke="black" stroke-width="1" d="M92.3978492786556 126.86770493486836 C-93.6021507213444 315.86770493486836, -112.18516525781365 70.23619097949586, 56.81483474218635 198.23619097949586   " fill="white"/></svg>
    <circle id="countor" stroke="black" cx="250" cy="250" r="200" stroke-width="3" fill="white"/>
    <svg id="mouth"><path stroke="black" stroke-width="1" d="M168 278 C217 278, 283 278, 332 278   M168 278 C170 160, 330 160, 332 278" fill="white"/></svg>
    <svg id="eye"><path stroke="black" stroke-width="1" d="M294.5 99 C294.5 55, 370.5 94, 394.5 94   C450.5 94, 424.5 120, 424.5 145   C424.5 194, 465.5 244, 388.5 244   C365.5 244, 294.5 172, 294.5 99  Z " fill="white"/><path stroke="black" stroke-width="1" d="M205.5 99 C205.5 55, 129.5 94, 105.5 94   C49.5 94, 75.5 120, 75.5 145   C75.5 194, 34.5 244, 111.5 244   C134.5 244, 205.5 172, 205.5 99  Z " fill="white"/><path stroke="black" stroke-width="0" d="M316.5 132 C316.5 112, 326.5 102, 346.5 102   C366.5 102, 376.5 112, 376.5 132   C376.5 152, 366.5 162, 346.5 162   C326.5 162, 316.5 152, 316.5 132  Z " fill="black"/><path stroke="black" stroke-width="0" d="M183.5 132 C183.5 112, 173.5 102, 153.5 102   C133.5 102, 123.5 112, 123.5 132   C123.5 152, 133.5 162, 153.5 162   C173.5 162, 183.5 152, 183.5 132  Z " fill="black"/></svg>

  </svg>