<?xml version="1.0" encoding="UTF-8" standalone="no"?><svg xmlns="http://www.w3.org/2000/svg" id="montage">
    <svg id="ear"/>
    <circle id="countor" stroke="black" cx="250" cy="250" r="200" stroke-width="3" fill="white"/>
    <svg id="mouth"><path stroke="black" stroke-width="1" d="M153.5 412 C159.5 413, 340.5 413, 346.5 412   M153.5 412 C58.5 418, 441.5 418, 346.5 412" fill="white"/></svg>
    <svg id="eye"><path stroke="black" stroke-width="1" d="M302.5 184 C302.5 125, 283.5 86, 340.5 86   C381.5 86, 414.5 128, 414.5 154   C414.5 171, 455.5 296, 395.5 296   C361.5 296, 302.5 260, 302.5 184  Z " fill="white"/><path stroke="black" stroke-width="1" d="M197.5 184 C197.5 125, 216.5 86, 159.5 86   C118.5 86, 85.5 128, 85.5 154   C85.5 171, 44.5 296, 104.5 296   C138.5 296, 197.5 260, 197.5 184  Z " fill="white"/><path stroke="black" stroke-width="0" d="M315.5 200 C315.5 180, 325.5 170, 345.5 170   C365.5 170, 375.5 180, 375.5 200   C375.5 220, 365.5 230, 345.5 230   C325.5 230, 315.5 220, 315.5 200  Z " fill="black"/><path stroke="black" stroke-width="0" d="M184.5 200 C184.5 180, 174.5 170, 154.5 170   C134.5 170, 124.5 180, 124.5 200   C124.5 220, 134.5 230, 154.5 230   C174.5 230, 184.5 220, 184.5 200  Z " fill="black"/></svg>

  </svg>