<?xml version="1.0" encoding="UTF-8" standalone="no"?><svg xmlns="http://www.w3.org/2000/svg" id="montage">
    <svg id="ear"><path stroke="black" stroke-width="1" d="M301.76380902050414 56.81483474218635 C495.76380902050414 -101.18516525781365, 505.6742293578155 140.2411907401666, 337.6742293578155 70.24119074016659   " fill="white"/><path stroke="black" stroke-width="1" d="M198.23619097949586 56.81483474218635 C4.236190979495859 -101.18516525781365, -5.674229357815477 140.2411907401666, 162.32577064218452 70.24119074016659   " fill="white"/></svg>
    <circle id="countor" stroke="black" cx="250" cy="250" r="200" stroke-width="3" fill="white"/>
    <svg id="mouth"><path stroke="black" stroke-width="1" d="M220.5 414 C188.5 455, 311.5 455, 279.5 414   M220.5 414 C333.5 320, 166.5 320, 279.5 414" fill="white"/></svg>
    <svg id="eye"><path stroke="black" stroke-width="1" d="M309.5 178 C309.5 125, 326.5 113, 357.5 113   C370.5 113, 451.5 187, 451.5 210   C451.5 233, 433.5 245, 365.5 245   C295.5 245, 309.5 238, 309.5 178  Z " fill="white"/><path stroke="black" stroke-width="1" d="M190.5 178 C190.5 125, 173.5 113, 142.5 113   C129.5 113, 48.5 187, 48.5 210   C48.5 233, 66.5 245, 134.5 245   C204.5 245, 190.5 238, 190.5 178  Z " fill="white"/><path stroke="black" stroke-width="0" d="M315.5 187 C315.5 167, 325.5 157, 345.5 157   C365.5 157, 375.5 167, 375.5 187   C375.5 207, 365.5 217, 345.5 217   C325.5 217, 315.5 207, 315.5 187  Z " fill="black"/><path stroke="black" stroke-width="0" d="M184.5 187 C184.5 167, 174.5 157, 154.5 157   C134.5 157, 124.5 167, 124.5 187   C124.5 207, 134.5 217, 154.5 217   C174.5 217, 184.5 207, 184.5 187  Z " fill="black"/></svg>

  </svg>