<?xml version="1.0" encoding="UTF-8" standalone="no"?><svg xmlns="http://www.w3.org/2000/svg" id="montage">
    <svg id="ear"><path stroke="black" stroke-width="1" d="M405.4291922913942 124.13592179003253 C463.4291922913942 288.1359217900325, 635.8740129570471 374.00978913122697, 444.87401295704706 205.009789131227   " fill="white"/><path stroke="black" stroke-width="1" d="M94.57080770860583 124.13592179003253 C36.57080770860583 288.1359217900325, -135.87401295704706 374.00978913122697, 55.12598704295294 205.009789131227   " fill="white"/></svg>
    <circle id="countor" stroke="black" cx="250" cy="250" r="200" stroke-width="3" fill="white"/>
    <svg id="mouth"><path stroke="black" stroke-width="1" d="M182.5 338 C163.5 357, 336.5 357, 317.5 338   M182.5 338 C53.5 434, 446.5 434, 317.5 338" fill="white"/></svg>
    <svg id="eye"><path stroke="black" stroke-width="1" d="M289 245 C289 226, 336 148, 362 148   C414 148, 384 141, 384 200   C384 237, 389 324, 367 324   C310 324, 289 290, 289 245  Z " fill="white"/><path stroke="black" stroke-width="1" d="M211 245 C211 226, 164 148, 138 148   C86 148, 116 141, 116 200   C116 237, 111 324, 133 324   C190 324, 211 290, 211 245  Z " fill="white"/><path stroke="black" stroke-width="0" d="M318 205 C318 185, 328 175, 348 175   C368 175, 378 185, 378 205   C378 225, 368 235, 348 235   C328 235, 318 225, 318 205  Z " fill="black"/><path stroke="black" stroke-width="0" d="M182 205 C182 185, 172 175, 152 175   C132 175, 122 185, 122 205   C122 225, 132 235, 152 235   C172 235, 182 225, 182 205  Z " fill="black"/></svg>

  </svg>