<?xml version="1.0" encoding="UTF-8" standalone="no"?><svg xmlns="http://www.w3.org/2000/svg" id="montage">
    <svg id="ear"><path stroke="black" stroke-width="1" d="M445.62952014676114 208.41766183644813 C561.6295201467611 376.41766183644813, 643.9695390312783 353.4904812874567, 449.96953903127826 253.4904812874567   " fill="white"/><path stroke="black" stroke-width="1" d="M54.37047985323886 208.41766183644813 C-61.62952014676114 376.41766183644813, -143.96953903127826 353.4904812874567, 50.03046096872174 253.4904812874567   " fill="white"/></svg>
    <circle id="countor" stroke="black" cx="250" cy="250" r="200" stroke-width="3" fill="white"/>
    <svg id="mouth"><path stroke="black" stroke-width="1" d="M229.5 295 C241.5 320, 258.5 320, 270.5 295   M229.5 295 C167.5 184, 332.5 184, 270.5 295" fill="white"/></svg>
    <svg id="eye"><path stroke="black" stroke-width="1" d="M288.5 188 C288.5 123, 316.5 159, 336.5 159   C398.5 159, 404.5 245, 404.5 266   C404.5 338, 404.5 268, 342.5 268   C292.5 268, 288.5 198, 288.5 188  Z " fill="white"/><path stroke="black" stroke-width="1" d="M211.5 188 C211.5 123, 183.5 159, 163.5 159   C101.5 159, 95.5 245, 95.5 266   C95.5 338, 95.5 268, 157.5 268   C207.5 268, 211.5 198, 211.5 188  Z " fill="white"/><path stroke="black" stroke-width="0" d="M312.5 224 C312.5 204, 322.5 194, 342.5 194   C362.5 194, 372.5 204, 372.5 224   C372.5 244, 362.5 254, 342.5 254   C322.5 254, 312.5 244, 312.5 224  Z " fill="black"/><path stroke="black" stroke-width="0" d="M187.5 224 C187.5 204, 177.5 194, 157.5 194   C137.5 194, 127.5 204, 127.5 224   C127.5 244, 137.5 254, 157.5 254   C177.5 254, 187.5 244, 187.5 224  Z " fill="black"/></svg>

  </svg>