<?xml version="1.0" encoding="UTF-8" standalone="no"?><svg xmlns="http://www.w3.org/2000/svg" id="montage">
    <svg id="ear"><path stroke="black" stroke-width="1" d="M358.92780700300546 82.26588641091521 C555.9278070030055 13.265886410915215, 397.55705045849464 272.1966011250105, 367.55705045849464 88.19660112501052   " fill="white"/><path stroke="black" stroke-width="1" d="M141.07219299699454 82.26588641091521 C-55.927807003005455 13.265886410915215, 102.44294954150536 272.1966011250105, 132.44294954150536 88.19660112501052   " fill="white"/></svg>
    <circle id="countor" stroke="black" cx="250" cy="250" r="200" stroke-width="3" fill="white"/>
    <svg id="mouth"><path stroke="black" stroke-width="1" d="M139.5 380 C153.5 337, 346.5 337, 360.5 380   M139.5 380 C197.5 312, 302.5 312, 360.5 380" fill="white"/></svg>
    <svg id="eye"><path stroke="black" stroke-width="1" d="M279 189 C279 175, 278 129, 300 129   C380 129, 421 226, 421 238   C421 256, 337 306, 295 306   C268 306, 279 237, 279 189  Z " fill="white"/><path stroke="black" stroke-width="1" d="M221 189 C221 175, 222 129, 200 129   C120 129, 79 226, 79 238   C79 256, 163 306, 205 306   C232 306, 221 237, 221 189  Z " fill="white"/><path stroke="black" stroke-width="0" d="M310 215 C310 195, 320 185, 340 185   C360 185, 370 195, 370 215   C370 235, 360 245, 340 245   C320 245, 310 235, 310 215  Z " fill="black"/><path stroke="black" stroke-width="0" d="M190 215 C190 195, 180 185, 160 185   C140 185, 130 195, 130 215   C130 235, 140 245, 160 245   C180 245, 190 235, 190 215  Z " fill="black"/></svg>

  </svg>