<?xml version="1.0" encoding="UTF-8" standalone="no"?><svg xmlns="http://www.w3.org/2000/svg" id="montage">
    <svg id="ear"/>
    <circle id="countor" stroke="black" cx="250" cy="250" r="200" stroke-width="3" fill="white"/>
    <svg id="mouth"><path stroke="black" stroke-width="1" d="M155.5 422 C191.5 399, 308.5 399, 344.5 422   M155.5 422 C267.5 563, 232.5 563, 344.5 422" fill="white"/></svg>
    <svg id="eye"><path stroke="black" stroke-width="1" d="M289.5 159 C289.5 107, 257.5 121, 306.5 121   C334.5 121, 431.5 147, 431.5 211   C431.5 275, 340.5 235, 305.5 235   C279.5 235, 289.5 231, 289.5 159  Z " fill="white"/><path stroke="black" stroke-width="1" d="M210.5 159 C210.5 107, 242.5 121, 193.5 121   C165.5 121, 68.5 147, 68.5 211   C68.5 275, 159.5 235, 194.5 235   C220.5 235, 210.5 231, 210.5 159  Z " fill="white"/><path stroke="black" stroke-width="0" d="M317.5 178 C317.5 158, 327.5 148, 347.5 148   C367.5 148, 377.5 158, 377.5 178   C377.5 198, 367.5 208, 347.5 208   C327.5 208, 317.5 198, 317.5 178  Z " fill="black"/><path stroke="black" stroke-width="0" d="M182.5 178 C182.5 158, 172.5 148, 152.5 148   C132.5 148, 122.5 158, 122.5 178   C122.5 198, 132.5 208, 152.5 208   C172.5 208, 182.5 198, 182.5 178  Z " fill="black"/></svg>

  </svg>