<?xml version="1.0" encoding="UTF-8" standalone="no"?><svg xmlns="http://www.w3.org/2000/svg" id="montage">
    <svg id="ear"><path stroke="black" stroke-width="1" d="M413.8304088577984 135.28471272979078 C519.8304088577984 141.28471272979078, 494.05914525519927 144.38437911993356, 444.05914525519927 298.38437911993356   " fill="white"/><path stroke="black" stroke-width="1" d="M86.16959114220165 135.28471272979078 C-19.830408857798346 141.28471272979078, 5.940854744800703 144.38437911993356, 55.9408547448007 298.38437911993356   " fill="white"/></svg>
    <circle id="countor" stroke="black" cx="250" cy="250" r="200" stroke-width="3" fill="white"/>
    <svg id="mouth"><path stroke="black" stroke-width="1" d="M129 287 C129 315, 371 315, 371 287   M129 287 C7 420, 493 420, 371 287" fill="white"/></svg>
    <svg id="eye"><path stroke="black" stroke-width="1" d="M272.5 197 C272.5 163, 235.5 127, 298.5 127   C309.5 127, 403.5 182, 403.5 192   C403.5 247, 374.5 277, 361.5 277   C344.5 277, 272.5 224, 272.5 197  Z " fill="white"/><path stroke="black" stroke-width="1" d="M227.5 197 C227.5 163, 264.5 127, 201.5 127   C190.5 127, 96.5 182, 96.5 192   C96.5 247, 125.5 277, 138.5 277   C155.5 277, 227.5 224, 227.5 197  Z " fill="white"/><path stroke="black" stroke-width="0" d="M317.5 207 C317.5 187, 327.5 177, 347.5 177   C367.5 177, 377.5 187, 377.5 207   C377.5 227, 367.5 237, 347.5 237   C327.5 237, 317.5 227, 317.5 207  Z " fill="black"/><path stroke="black" stroke-width="0" d="M182.5 207 C182.5 187, 172.5 177, 152.5 177   C132.5 177, 122.5 187, 122.5 207   C122.5 227, 132.5 237, 152.5 237   C172.5 237, 182.5 227, 182.5 207  Z " fill="black"/></svg>

  </svg>