<?xml version="1.0" encoding="UTF-8" standalone="no"?><svg xmlns="http://www.w3.org/2000/svg" id="montage">
    <svg id="ear"><path stroke="black" stroke-width="1" d="M388.93167409179944 106.13203993226978 C560.9316740917994 -26.867960067730223, 502.5895185717854 281.1056874428218, 426.5895185717854 156.10568744282182   " fill="white"/><path stroke="black" stroke-width="1" d="M111.06832590820053 106.13203993226978 C-60.931674091799465 -26.867960067730223, -2.5895185717853906 281.1056874428218, 73.41048142821461 156.10568744282182   " fill="white"/></svg>
    <circle id="countor" stroke="black" cx="250" cy="250" r="200" stroke-width="3" fill="white"/>
    <svg id="mouth"><path stroke="black" stroke-width="1" d="M137.5 394 C148.5 396, 351.5 396, 362.5 394   M137.5 394 C78.5 544, 421.5 544, 362.5 394" fill="white"/></svg>
    <svg id="eye"><path stroke="black" stroke-width="1" d="M274 187 C274 132, 299 159, 345 159   C399 159, 443 175, 443 250   C443 299, 377 321, 316 321   C242 321, 274 207, 274 187  Z " fill="white"/><path stroke="black" stroke-width="1" d="M226 187 C226 132, 201 159, 155 159   C101 159, 57 175, 57 250   C57 299, 123 321, 184 321   C258 321, 226 207, 226 187  Z " fill="white"/><path stroke="black" stroke-width="0" d="M312 219 C312 199, 322 189, 342 189   C362 189, 372 199, 372 219   C372 239, 362 249, 342 249   C322 249, 312 239, 312 219  Z " fill="black"/><path stroke="black" stroke-width="0" d="M188 219 C188 199, 178 189, 158 189   C138 189, 128 199, 128 219   C128 239, 138 249, 158 249   C178 249, 188 239, 188 219  Z " fill="black"/></svg>

  </svg>