<?xml version="1.0" encoding="UTF-8" standalone="no"?><svg xmlns="http://www.w3.org/2000/svg" id="montage">
    <svg id="ear"><path stroke="black" stroke-width="1" d="M388.93167409179944 106.13203993226978 C416.93167409179944 5.132039932269777, 510.4334601404224 86.99238501798916, 421.4334601404224 146.99238501798916   " fill="white"/><path stroke="black" stroke-width="1" d="M111.06832590820053 106.13203993226978 C83.06832590820053 5.132039932269777, -10.433460140422454 86.99238501798916, 78.56653985957755 146.99238501798916   " fill="white"/></svg>
    <circle id="countor" stroke="black" cx="250" cy="250" r="200" stroke-width="3" fill="white"/>
    <svg id="mouth"><path stroke="black" stroke-width="1" d="M198 381 C198 431, 302 431, 302 381   M198 381 C186 308, 314 308, 302 381" fill="white"/></svg>
    <svg id="eye"><path stroke="black" stroke-width="1" d="M262.5 180 C262.5 148, 325.5 108, 376.5 108   C441.5 108, 442.5 95, 442.5 127   C442.5 172, 344.5 255, 330.5 255   C259.5 255, 262.5 213, 262.5 180  Z " fill="white"/><path stroke="black" stroke-width="1" d="M237.5 180 C237.5 148, 174.5 108, 123.5 108   C58.5 108, 57.5 95, 57.5 127   C57.5 172, 155.5 255, 169.5 255   C240.5 255, 237.5 213, 237.5 180  Z " fill="white"/><path stroke="black" stroke-width="0" d="M319.5 163 C319.5 143, 329.5 133, 349.5 133   C369.5 133, 379.5 143, 379.5 163   C379.5 183, 369.5 193, 349.5 193   C329.5 193, 319.5 183, 319.5 163  Z " fill="black"/><path stroke="black" stroke-width="0" d="M180.5 163 C180.5 143, 170.5 133, 150.5 133   C130.5 133, 120.5 143, 120.5 163   C120.5 183, 130.5 193, 150.5 193   C170.5 193, 180.5 183, 180.5 163  Z " fill="black"/></svg>

  </svg>