<?xml version="1.0" encoding="UTF-8" standalone="no"?><svg xmlns="http://www.w3.org/2000/svg" id="montage">
    <svg id="ear"/>
    <circle id="countor" stroke="black" cx="250" cy="250" r="200" stroke-width="3" fill="white"/>
    <svg id="mouth"><path stroke="black" stroke-width="1" d="M195.5 386 C149.5 381, 350.5 381, 304.5 386   M195.5 386 C317.5 434, 182.5 434, 304.5 386" fill="white"/></svg>
    <svg id="eye"><path stroke="black" stroke-width="1" d="M232 213 C232 139, 285 150, 304 150   C366 150, 385 133, 385 204   C385 242, 411 318, 366 318   C300 318, 232 289, 232 213  Z " fill="white"/><path stroke="black" stroke-width="1" d="M268 213 C268 139, 215 150, 196 150   C134 150, 115 133, 115 204   C115 242, 89 318, 134 318   C200 318, 268 289, 268 213  Z " fill="white"/><path stroke="black" stroke-width="0" d="M316 223 C316 203, 326 193, 346 193   C366 193, 376 203, 376 223   C376 243, 366 253, 346 253   C326 253, 316 243, 316 223  Z " fill="black"/><path stroke="black" stroke-width="0" d="M184 223 C184 203, 174 193, 154 193   C134 193, 124 203, 124 223   C124 243, 134 253, 154 253   C174 253, 184 243, 184 223  Z " fill="black"/></svg>

  </svg>