<?xml version="1.0" encoding="UTF-8" standalone="no"?><svg xmlns="http://www.w3.org/2000/svg" id="montage">
    <svg id="ear"><path stroke="black" stroke-width="1" d="M364.7152872702092 86.16959114220165 C530.7152872702093 -21.830408857798346, 549.1037151198634 226.11363089143134, 439.1037151198634 315.11363089143134   " fill="white"/><path stroke="black" stroke-width="1" d="M135.28471272979078 86.16959114220165 C-30.715287270209217 -21.830408857798346, -49.10371511986338 226.11363089143134, 60.89628488013662 315.11363089143134   " fill="white"/></svg>
    <circle id="countor" stroke="black" cx="250" cy="250" r="200" stroke-width="3" fill="white"/>
    <svg id="mouth"><path stroke="black" stroke-width="1" d="M130 419 C94 453, 406 453, 370 419   M130 419 C51 433, 449 433, 370 419" fill="white"/></svg>
    <svg id="eye"><path stroke="black" stroke-width="1" d="M307.5 163 C307.5 143, 357.5 158, 378.5 158   C450.5 158, 462.5 121, 462.5 169   C462.5 230, 389.5 269, 353.5 269   C335.5 269, 307.5 215, 307.5 163  Z " fill="white"/><path stroke="black" stroke-width="1" d="M192.5 163 C192.5 143, 142.5 158, 121.5 158   C49.5 158, 37.5 121, 37.5 169   C37.5 230, 110.5 269, 146.5 269   C164.5 269, 192.5 215, 192.5 163  Z " fill="white"/><path stroke="black" stroke-width="0" d="M318.5 210 C318.5 190, 328.5 180, 348.5 180   C368.5 180, 378.5 190, 378.5 210   C378.5 230, 368.5 240, 348.5 240   C328.5 240, 318.5 230, 318.5 210  Z " fill="black"/><path stroke="black" stroke-width="0" d="M181.5 210 C181.5 190, 171.5 180, 151.5 180   C131.5 180, 121.5 190, 121.5 210   C121.5 230, 131.5 240, 151.5 240   C171.5 240, 181.5 230, 181.5 210  Z " fill="black"/></svg>

  </svg>