<?xml version="1.0" encoding="UTF-8" standalone="no"?><svg xmlns="http://www.w3.org/2000/svg" id="montage">
    <svg id="ear"/>
    <circle id="countor" stroke="black" cx="250" cy="250" r="200" stroke-width="3" fill="white"/>
    <svg id="mouth"><path stroke="black" stroke-width="1" d="M235.5 378 C240.5 353, 259.5 353, 264.5 378   M235.5 378 C341.5 376, 158.5 376, 264.5 378" fill="white"/></svg>
    <svg id="eye"><path stroke="black" stroke-width="1" d="M260 196 C260 171, 261 102, 331 102   C403 102, 377 167, 377 229   C377 255, 354 272, 303 272   C227 272, 260 242, 260 196  Z " fill="white"/><path stroke="black" stroke-width="1" d="M240 196 C240 171, 239 102, 169 102   C97 102, 123 167, 123 229   C123 255, 146 272, 197 272   C273 272, 240 242, 240 196  Z " fill="white"/><path stroke="black" stroke-width="0" d="M312 200 C312 180, 322 170, 342 170   C362 170, 372 180, 372 200   C372 220, 362 230, 342 230   C322 230, 312 220, 312 200  Z " fill="black"/><path stroke="black" stroke-width="0" d="M188 200 C188 180, 178 170, 158 170   C138 170, 128 180, 128 200   C128 220, 138 230, 158 230   C178 230, 188 220, 188 200  Z " fill="black"/></svg>

  </svg>