<?xml version="1.0" encoding="UTF-8" standalone="no"?><svg xmlns="http://www.w3.org/2000/svg" id="montage">
    <svg id="ear"><path stroke="black" stroke-width="1" d="M364.7152872702092 86.16959114220165 C413.7152872702092 160.16959114220165, 613.5895185717854 59.10568744282182, 426.5895185717854 156.10568744282182   " fill="white"/><path stroke="black" stroke-width="1" d="M135.28471272979078 86.16959114220165 C86.28471272979078 160.16959114220165, -113.58951857178539 59.10568744282182, 73.41048142821461 156.10568744282182   " fill="white"/></svg>
    <circle id="countor" stroke="black" cx="250" cy="250" r="200" stroke-width="3" fill="white"/>
    <svg id="mouth"><path stroke="black" stroke-width="1" d="M219 393 C268 434, 232 434, 281 393   M219 393 C143 360, 357 360, 281 393" fill="white"/></svg>
    <svg id="eye"><path stroke="black" stroke-width="1" d="M302.5 277 C302.5 207, 282.5 117, 317.5 117   C388.5 117, 408.5 130, 408.5 199   C408.5 257, 375.5 326, 296.5 326   C227.5 326, 302.5 288, 302.5 277  Z " fill="white"/><path stroke="black" stroke-width="1" d="M197.5 277 C197.5 207, 217.5 117, 182.5 117   C111.5 117, 91.5 130, 91.5 199   C91.5 257, 124.5 326, 203.5 326   C272.5 326, 197.5 288, 197.5 277  Z " fill="white"/><path stroke="black" stroke-width="0" d="M313.5 229 C313.5 209, 323.5 199, 343.5 199   C363.5 199, 373.5 209, 373.5 229   C373.5 249, 363.5 259, 343.5 259   C323.5 259, 313.5 249, 313.5 229  Z " fill="black"/><path stroke="black" stroke-width="0" d="M186.5 229 C186.5 209, 176.5 199, 156.5 199   C136.5 199, 126.5 209, 126.5 229   C126.5 249, 136.5 259, 156.5 259   C176.5 259, 186.5 249, 186.5 229  Z " fill="black"/></svg>

  </svg>