<?xml version="1.0" encoding="UTF-8" standalone="no"?><svg xmlns="http://www.w3.org/2000/svg" id="montage">
    <svg id="ear"/>
    <circle id="countor" stroke="black" cx="250" cy="250" r="200" stroke-width="3" fill="white"/>
    <svg id="mouth"><path stroke="black" stroke-width="1" d="M235.5 402 C234.5 433, 265.5 433, 264.5 402   M235.5 402 C366.5 541, 133.5 541, 264.5 402" fill="white"/></svg>
    <svg id="eye"><path stroke="black" stroke-width="1" d="M307.5 249 C307.5 236, 342.5 133, 383.5 133   C436.5 133, 446.5 132, 446.5 194   C446.5 221, 420.5 324, 352.5 324   C304.5 324, 307.5 305, 307.5 249  Z " fill="white"/><path stroke="black" stroke-width="1" d="M192.5 249 C192.5 236, 157.5 133, 116.5 133   C63.5 133, 53.5 132, 53.5 194   C53.5 221, 79.5 324, 147.5 324   C195.5 324, 192.5 305, 192.5 249  Z " fill="white"/><path stroke="black" stroke-width="0" d="M313.5 223 C313.5 203, 323.5 193, 343.5 193   C363.5 193, 373.5 203, 373.5 223   C373.5 243, 363.5 253, 343.5 253   C323.5 253, 313.5 243, 313.5 223  Z " fill="black"/><path stroke="black" stroke-width="0" d="M186.5 223 C186.5 203, 176.5 193, 156.5 193   C136.5 193, 126.5 203, 126.5 223   C126.5 243, 136.5 253, 156.5 253   C176.5 253, 186.5 243, 186.5 223  Z " fill="black"/></svg>

  </svg>