<?xml version="1.0" encoding="UTF-8" standalone="no"?><svg xmlns="http://www.w3.org/2000/svg" id="montage">
    <svg id="ear"/>
    <circle id="countor" stroke="black" cx="250" cy="250" r="200" stroke-width="3" fill="white"/>
    <svg id="mouth"><path stroke="black" stroke-width="1" d="M178.5 377 C157.5 370, 342.5 370, 321.5 377   M178.5 377 C193.5 359, 306.5 359, 321.5 377" fill="white"/></svg>
    <svg id="eye"><path stroke="black" stroke-width="1" d="M274.5 202 C274.5 165, 289.5 56, 300.5 56   C347.5 56, 437.5 176, 437.5 204   C437.5 240, 421.5 232, 363.5 232   C305.5 232, 274.5 259, 274.5 202  Z " fill="white"/><path stroke="black" stroke-width="1" d="M225.5 202 C225.5 165, 210.5 56, 199.5 56   C152.5 56, 62.5 176, 62.5 204   C62.5 240, 78.5 232, 136.5 232   C194.5 232, 225.5 259, 225.5 202  Z " fill="white"/><path stroke="black" stroke-width="0" d="M314.5 165 C314.5 145, 324.5 135, 344.5 135   C364.5 135, 374.5 145, 374.5 165   C374.5 185, 364.5 195, 344.5 195   C324.5 195, 314.5 185, 314.5 165  Z " fill="black"/><path stroke="black" stroke-width="0" d="M185.5 165 C185.5 145, 175.5 135, 155.5 135   C135.5 135, 125.5 145, 125.5 165   C125.5 185, 135.5 195, 155.5 195   C175.5 195, 185.5 185, 185.5 165  Z " fill="black"/></svg>

  </svg>