<?xml version="1.0" encoding="UTF-8" standalone="no"?><svg xmlns="http://www.w3.org/2000/svg" id="montage">
    <svg id="ear"><path stroke="black" stroke-width="1" d="M442.2523391876638 194.87252883660017 C464.2523391876638 229.87252883660017, 583.9695390312783 61.5095187125433, 449.96953903127826 246.5095187125433   " fill="white"/><path stroke="black" stroke-width="1" d="M57.74766081233622 194.87252883660017 C35.74766081233622 229.87252883660017, -83.96953903127826 61.5095187125433, 50.03046096872174 246.5095187125433   " fill="white"/></svg>
    <circle id="countor" stroke="black" cx="250" cy="250" r="200" stroke-width="3" fill="white"/>
    <svg id="mouth"><path stroke="black" stroke-width="1" d="M188 324 C232 352, 268 352, 312 324   M188 324 C214 213, 286 213, 312 324" fill="white"/></svg>
    <svg id="eye"><path stroke="black" stroke-width="1" d="M298.5 164 C298.5 110, 276.5 64, 348.5 64   C385.5 64, 378.5 122, 378.5 138   C378.5 186, 399.5 263, 347.5 263   C295.5 263, 298.5 193, 298.5 164  Z " fill="white"/><path stroke="black" stroke-width="1" d="M201.5 164 C201.5 110, 223.5 64, 151.5 64   C114.5 64, 121.5 122, 121.5 138   C121.5 186, 100.5 263, 152.5 263   C204.5 263, 201.5 193, 201.5 164  Z " fill="white"/><path stroke="black" stroke-width="0" d="M311.5 178 C311.5 158, 321.5 148, 341.5 148   C361.5 148, 371.5 158, 371.5 178   C371.5 198, 361.5 208, 341.5 208   C321.5 208, 311.5 198, 311.5 178  Z " fill="black"/><path stroke="black" stroke-width="0" d="M188.5 178 C188.5 158, 178.5 148, 158.5 148   C138.5 148, 128.5 158, 128.5 178   C128.5 198, 138.5 208, 158.5 208   C178.5 208, 188.5 198, 188.5 178  Z " fill="black"/></svg>

  </svg>