<?xml version="1.0" encoding="UTF-8" standalone="no"?><svg xmlns="http://www.w3.org/2000/svg" id="montage">
    <svg id="ear"><path stroke="black" stroke-width="1" d="M424.9239414278792 153.0380759507326 C467.9239414278792 165.0380759507326, 533.2523391876638 277.87252883660017, 442.2523391876638 194.87252883660017   " fill="white"/><path stroke="black" stroke-width="1" d="M75.07605857212084 153.0380759507326 C32.07605857212084 165.0380759507326, -33.25233918766378 277.87252883660017, 57.74766081233622 194.87252883660017   " fill="white"/></svg>
    <circle id="countor" stroke="black" cx="250" cy="250" r="200" stroke-width="3" fill="white"/>
    <svg id="mouth"><path stroke="black" stroke-width="1" d="M125.5 282 C77.5 319, 422.5 319, 374.5 282   M125.5 282 C53.5 243, 446.5 243, 374.5 282" fill="white"/></svg>
    <svg id="eye"><path stroke="black" stroke-width="1" d="M246 209 C246 140, 298 74, 317 74   C372 74, 418 65, 418 120   C418 163, 393 209, 329 209   C294 209, 246 240, 246 209  Z " fill="white"/><path stroke="black" stroke-width="1" d="M254 209 C254 140, 202 74, 183 74   C128 74, 82 65, 82 120   C82 163, 107 209, 171 209   C206 209, 254 240, 254 209  Z " fill="white"/><path stroke="black" stroke-width="0" d="M313 160 C313 140, 323 130, 343 130   C363 130, 373 140, 373 160   C373 180, 363 190, 343 190   C323 190, 313 180, 313 160  Z " fill="black"/><path stroke="black" stroke-width="0" d="M187 160 C187 140, 177 130, 157 130   C137 130, 127 140, 127 160   C127 180, 137 190, 157 190   C177 190, 187 180, 187 160  Z " fill="black"/></svg>

  </svg>