<?xml version="1.0" encoding="UTF-8" standalone="no"?><svg xmlns="http://www.w3.org/2000/svg" id="montage">
    <svg id="ear"/>
    <circle id="countor" stroke="black" cx="250" cy="250" r="200" stroke-width="3" fill="white"/>
    <svg id="mouth"><path stroke="black" stroke-width="1" d="M197.5 413 C172.5 413, 327.5 413, 302.5 413   M197.5 413 C236.5 559, 263.5 559, 302.5 413" fill="white"/></svg>
    <svg id="eye"><path stroke="black" stroke-width="1" d="M272.5 173 C272.5 104, 262.5 38, 309.5 38   C331.5 38, 386.5 95, 386.5 158   C386.5 211, 367.5 199, 346.5 199   C323.5 199, 272.5 245, 272.5 173  Z " fill="white"/><path stroke="black" stroke-width="1" d="M227.5 173 C227.5 104, 237.5 38, 190.5 38   C168.5 38, 113.5 95, 113.5 158   C113.5 211, 132.5 199, 153.5 199   C176.5 199, 227.5 245, 227.5 173  Z " fill="white"/><path stroke="black" stroke-width="0" d="M313.5 138 C313.5 118, 323.5 108, 343.5 108   C363.5 108, 373.5 118, 373.5 138   C373.5 158, 363.5 168, 343.5 168   C323.5 168, 313.5 158, 313.5 138  Z " fill="black"/><path stroke="black" stroke-width="0" d="M186.5 138 C186.5 118, 176.5 108, 156.5 108   C136.5 108, 126.5 118, 126.5 138   C126.5 158, 136.5 168, 156.5 168   C176.5 168, 186.5 158, 186.5 138  Z " fill="black"/></svg>

  </svg>