<?xml version="1.0" encoding="UTF-8" standalone="no"?><svg xmlns="http://www.w3.org/2000/svg" id="montage">
    <svg id="ear"/>
    <circle id="countor" stroke="black" cx="250" cy="250" r="200" stroke-width="3" fill="white"/>
    <svg id="mouth"><path stroke="black" stroke-width="1" d="M162 393 C144 421, 356 421, 338 393   M162 393 C310 250, 190 250, 338 393" fill="white"/></svg>
    <svg id="eye"><path stroke="black" stroke-width="1" d="M303.5 194 C303.5 132, 334.5 132, 391.5 132   C443.5 132, 404.5 173, 404.5 197   C404.5 257, 331.5 312, 315.5 312   C262.5 312, 303.5 266, 303.5 194  Z " fill="white"/><path stroke="black" stroke-width="1" d="M196.5 194 C196.5 132, 165.5 132, 108.5 132   C56.5 132, 95.5 173, 95.5 197   C95.5 257, 168.5 312, 184.5 312   C237.5 312, 196.5 266, 196.5 194  Z " fill="white"/><path stroke="black" stroke-width="0" d="M316.5 227 C316.5 207, 326.5 197, 346.5 197   C366.5 197, 376.5 207, 376.5 227   C376.5 247, 366.5 257, 346.5 257   C326.5 257, 316.5 247, 316.5 227  Z " fill="black"/><path stroke="black" stroke-width="0" d="M183.5 227 C183.5 207, 173.5 197, 153.5 197   C133.5 197, 123.5 207, 123.5 227   C123.5 247, 133.5 257, 153.5 257   C173.5 257, 183.5 247, 183.5 227  Z " fill="black"/></svg>

  </svg>