<?xml version="1.0" encoding="UTF-8" standalone="no"?><svg xmlns="http://www.w3.org/2000/svg" id="montage">
    <svg id="ear"><path stroke="black" stroke-width="1" d="M315.11363089143134 60.89628488013665 C475.11363089143134 150.89628488013665, 545.7090915285202 20.652671384839977, 432.70909152852016 168.65267138483998   " fill="white"/><path stroke="black" stroke-width="1" d="M184.88636910856866 60.89628488013665 C24.88636910856866 150.89628488013665, -45.70909152852016 20.652671384839977, 67.29090847147984 168.65267138483998   " fill="white"/></svg>
    <circle id="countor" stroke="black" cx="250" cy="250" r="200" stroke-width="3" fill="white"/>
    <svg id="mouth"><path stroke="black" stroke-width="1" d="M122.5 375 C163.5 417, 336.5 417, 377.5 375   M122.5 375 C9.5 373, 490.5 373, 377.5 375" fill="white"/></svg>
    <svg id="eye"><path stroke="black" stroke-width="1" d="M267 209 C267 139, 256 94, 320 94   C376 94, 408 172, 408 207   C408 269, 339 271, 325 271   C284 271, 267 284, 267 209  Z " fill="white"/><path stroke="black" stroke-width="1" d="M233 209 C233 139, 244 94, 180 94   C124 94, 92 172, 92 207   C92 269, 161 271, 175 271   C216 271, 233 284, 233 209  Z " fill="white"/><path stroke="black" stroke-width="0" d="M317 209 C317 189, 327 179, 347 179   C367 179, 377 189, 377 209   C377 229, 367 239, 347 239   C327 239, 317 229, 317 209  Z " fill="black"/><path stroke="black" stroke-width="0" d="M183 209 C183 189, 173 179, 153 179   C133 179, 123 189, 123 209   C123 229, 133 239, 153 239   C173 239, 183 229, 183 209  Z " fill="black"/></svg>

  </svg>