<?xml version="1.0" encoding="UTF-8" standalone="no"?><svg xmlns="http://www.w3.org/2000/svg" id="montage">
    <svg id="ear"><path stroke="black" stroke-width="1" d="M448.0536137483141 222.1653798079869 C512.0536137483141 119.16537980798691, 625.1037151198634 318.11363089143134, 439.1037151198634 315.11363089143134   " fill="white"/><path stroke="black" stroke-width="1" d="M51.94638625168594 222.1653798079869 C-12.053613748314064 119.16537980798691, -125.10371511986338 318.11363089143134, 60.89628488013662 315.11363089143134   " fill="white"/></svg>
    <circle id="countor" stroke="black" cx="250" cy="250" r="200" stroke-width="3" fill="white"/>
    <svg id="mouth"><path stroke="black" stroke-width="1" d="M209 390 C217 379, 283 379, 291 390   M209 390 C93 315, 407 315, 291 390" fill="white"/></svg>
    <svg id="eye"><path stroke="black" stroke-width="1" d="M257.5 145 C257.5 107, 277.5 39, 313.5 39   C342.5 39, 402.5 97, 402.5 162   C402.5 235, 418.5 170, 352.5 170   C333.5 170, 257.5 170, 257.5 145  Z " fill="white"/><path stroke="black" stroke-width="1" d="M242.5 145 C242.5 107, 222.5 39, 186.5 39   C157.5 39, 97.5 97, 97.5 162   C97.5 235, 81.5 170, 147.5 170   C166.5 170, 242.5 170, 242.5 145  Z " fill="white"/><path stroke="black" stroke-width="0" d="M312.5 134 C312.5 114, 322.5 104, 342.5 104   C362.5 104, 372.5 114, 372.5 134   C372.5 154, 362.5 164, 342.5 164   C322.5 164, 312.5 154, 312.5 134  Z " fill="black"/><path stroke="black" stroke-width="0" d="M187.5 134 C187.5 114, 177.5 104, 157.5 104   C137.5 104, 127.5 114, 127.5 134   C127.5 154, 137.5 164, 157.5 164   C177.5 164, 187.5 154, 187.5 134  Z " fill="black"/></svg>

  </svg>