<?xml version="1.0" encoding="UTF-8" standalone="no"?><svg xmlns="http://www.w3.org/2000/svg" id="montage">
    <svg id="ear"><path stroke="black" stroke-width="1" d="M415.8075145110083 138.16141930585061 C549.8075145110083 9.161419305850615, 536.2013048376735 4.20190005209065, 428.20130483767355 159.20190005209065   " fill="white"/><path stroke="black" stroke-width="1" d="M84.19248548899168 138.16141930585061 C-49.80751451100832 9.161419305850615, -36.201304837673575 4.20190005209065, 71.79869516232642 159.20190005209065   " fill="white"/></svg>
    <circle id="countor" stroke="black" cx="250" cy="250" r="200" stroke-width="3" fill="white"/>
    <svg id="mouth"><path stroke="black" stroke-width="1" d="M214 286 C210 254, 290 254, 286 286   M214 286 C202 414, 298 414, 286 286" fill="white"/></svg>
    <svg id="eye"><path stroke="black" stroke-width="1" d="M256.5 155 C256.5 96, 290.5 91, 369.5 91   C402.5 91, 450.5 61, 450.5 120   C450.5 198, 360.5 266, 339.5 266   C302.5 266, 256.5 225, 256.5 155  Z " fill="white"/><path stroke="black" stroke-width="1" d="M243.5 155 C243.5 96, 209.5 91, 130.5 91   C97.5 91, 49.5 61, 49.5 120   C49.5 198, 139.5 266, 160.5 266   C197.5 266, 243.5 225, 243.5 155  Z " fill="white"/><path stroke="black" stroke-width="0" d="M315.5 152 C315.5 132, 325.5 122, 345.5 122   C365.5 122, 375.5 132, 375.5 152   C375.5 172, 365.5 182, 345.5 182   C325.5 182, 315.5 172, 315.5 152  Z " fill="black"/><path stroke="black" stroke-width="0" d="M184.5 152 C184.5 132, 174.5 122, 154.5 122   C134.5 122, 124.5 132, 124.5 152   C124.5 172, 134.5 182, 154.5 182   C174.5 182, 184.5 172, 184.5 152  Z " fill="black"/></svg>

  </svg>