<?xml version="1.0" encoding="UTF-8" standalone="no"?><svg xmlns="http://www.w3.org/2000/svg" id="montage">
    <svg id="ear"><path stroke="black" stroke-width="1" d="M381.21180579810147 99.0580839554456 C475.21180579810147 195.0580839554456, 509.1009706904881 510.14622569785473, 434.1009706904881 328.14622569785473   " fill="white"/><path stroke="black" stroke-width="1" d="M118.78819420189853 99.0580839554456 C24.788194201898534 195.0580839554456, -9.100970690488083 510.14622569785473, 65.89902930951192 328.14622569785473   " fill="white"/></svg>
    <circle id="countor" stroke="black" cx="250" cy="250" r="200" stroke-width="3" fill="white"/>
    <svg id="mouth"><path stroke="black" stroke-width="1" d="M184 374 C223 342, 277 342, 316 374   M184 374 C250 294, 250 294, 316 374" fill="white"/></svg>
    <svg id="eye"><path stroke="black" stroke-width="1" d="M235.5 229 C235.5 195, 274.5 101, 307.5 101   C345.5 101, 434.5 191, 434.5 212   C434.5 234, 409.5 301, 342.5 301   C308.5 301, 235.5 246, 235.5 229  Z " fill="white"/><path stroke="black" stroke-width="1" d="M264.5 229 C264.5 195, 225.5 101, 192.5 101   C154.5 101, 65.5 191, 65.5 212   C65.5 234, 90.5 301, 157.5 301   C191.5 301, 264.5 246, 264.5 229  Z " fill="white"/><path stroke="black" stroke-width="0" d="M315.5 190 C315.5 170, 325.5 160, 345.5 160   C365.5 160, 375.5 170, 375.5 190   C375.5 210, 365.5 220, 345.5 220   C325.5 220, 315.5 210, 315.5 190  Z " fill="black"/><path stroke="black" stroke-width="0" d="M184.5 190 C184.5 170, 174.5 160, 154.5 160   C134.5 160, 124.5 170, 124.5 190   C124.5 210, 134.5 220, 154.5 220   C174.5 220, 184.5 210, 184.5 190  Z " fill="black"/></svg>

  </svg>