<?xml version="1.0" encoding="UTF-8" standalone="no"?><svg xmlns="http://www.w3.org/2000/svg" id="montage">
    <svg id="ear"><path stroke="black" stroke-width="1" d="M432.70909152852016 168.65267138483998 C481.70909152852016 273.65267138484, 631.7160852994404 -16.67358990906007, 436.71608529944035 178.32641009093993   " fill="white"/><path stroke="black" stroke-width="1" d="M67.29090847147984 168.65267138483998 C18.29090847147984 273.65267138484, -131.71608529944035 -16.67358990906007, 63.28391470055965 178.32641009093993   " fill="white"/></svg>
    <circle id="countor" stroke="black" cx="250" cy="250" r="200" stroke-width="3" fill="white"/>
    <svg id="mouth"><path stroke="black" stroke-width="1" d="M172.5 402 C140.5 442, 359.5 442, 327.5 402   M172.5 402 C282.5 343, 217.5 343, 327.5 402" fill="white"/></svg>
    <svg id="eye"><path stroke="black" stroke-width="1" d="M275 211 C275 172, 324 82, 383 82   C453 82, 390 140, 390 151   C390 189, 427 238, 371 238   C295 238, 275 256, 275 211  Z " fill="white"/><path stroke="black" stroke-width="1" d="M225 211 C225 172, 176 82, 117 82   C47 82, 110 140, 110 151   C110 189, 73 238, 129 238   C205 238, 225 256, 225 211  Z " fill="white"/><path stroke="black" stroke-width="0" d="M313 178 C313 158, 323 148, 343 148   C363 148, 373 158, 373 178   C373 198, 363 208, 343 208   C323 208, 313 198, 313 178  Z " fill="black"/><path stroke="black" stroke-width="0" d="M187 178 C187 158, 177 148, 157 148   C137 148, 127 158, 127 178   C127 198, 137 208, 157 208   C177 208, 187 198, 187 178  Z " fill="black"/></svg>

  </svg>