<?xml version="1.0" encoding="UTF-8" standalone="no"?><svg xmlns="http://www.w3.org/2000/svg" id="montage">
    <svg id="ear"><path stroke="black" stroke-width="1" d="M405.4291922913942 124.13592179003253 C503.4291922913942 4.135921790032526, 501.1009706904881 288.14622569785473, 434.1009706904881 328.14622569785473   " fill="white"/><path stroke="black" stroke-width="1" d="M94.57080770860583 124.13592179003253 C-3.4291922913941733 4.135921790032526, -1.100970690488083 288.14622569785473, 65.89902930951192 328.14622569785473   " fill="white"/></svg>
    <circle id="countor" stroke="black" cx="250" cy="250" r="200" stroke-width="3" fill="white"/>
    <svg id="mouth"><path stroke="black" stroke-width="1" d="M221 375 C268 379, 232 379, 279 375   M221 375 C292 225, 208 225, 279 375" fill="white"/></svg>
    <svg id="eye"><path stroke="black" stroke-width="1" d="M307.5 249 C307.5 169, 311.5 115, 334.5 115   C381.5 115, 380.5 110, 380.5 166   C380.5 209, 363.5 276, 338.5 276   C311.5 276, 307.5 318, 307.5 249  Z " fill="white"/><path stroke="black" stroke-width="1" d="M192.5 249 C192.5 169, 188.5 115, 165.5 115   C118.5 115, 119.5 110, 119.5 166   C119.5 209, 136.5 276, 161.5 276   C188.5 276, 192.5 318, 192.5 249  Z " fill="white"/><path stroke="black" stroke-width="0" d="M313.5 213 C313.5 193, 323.5 183, 343.5 183   C363.5 183, 373.5 193, 373.5 213   C373.5 233, 363.5 243, 343.5 243   C323.5 243, 313.5 233, 313.5 213  Z " fill="black"/><path stroke="black" stroke-width="0" d="M186.5 213 C186.5 193, 176.5 183, 156.5 183   C136.5 183, 126.5 193, 126.5 213   C126.5 233, 136.5 243, 156.5 243   C176.5 243, 186.5 233, 186.5 213  Z " fill="black"/></svg>

  </svg>