<?xml version="1.0" encoding="UTF-8" standalone="no"?><svg xmlns="http://www.w3.org/2000/svg" id="montage">
    <svg id="ear"/>
    <circle id="countor" stroke="black" cx="250" cy="250" r="200" stroke-width="3" fill="white"/>
    <svg id="mouth"><path stroke="black" stroke-width="1" d="M206.5 408 C210.5 432, 289.5 432, 293.5 408   M206.5 408 C73.5 464, 426.5 464, 293.5 408" fill="white"/></svg>
    <svg id="eye"><path stroke="black" stroke-width="1" d="M293.5 161 C293.5 127, 244.5 59, 314.5 59   C369.5 59, 405.5 137, 405.5 157   C405.5 227, 403.5 203, 386.5 203   C324.5 203, 293.5 221, 293.5 161  Z " fill="white"/><path stroke="black" stroke-width="1" d="M206.5 161 C206.5 127, 255.5 59, 185.5 59   C130.5 59, 94.5 137, 94.5 157   C94.5 227, 96.5 203, 113.5 203   C175.5 203, 206.5 221, 206.5 161  Z " fill="white"/><path stroke="black" stroke-width="0" d="M316.5 130 C316.5 110, 326.5 100, 346.5 100   C366.5 100, 376.5 110, 376.5 130   C376.5 150, 366.5 160, 346.5 160   C326.5 160, 316.5 150, 316.5 130  Z " fill="black"/><path stroke="black" stroke-width="0" d="M183.5 130 C183.5 110, 173.5 100, 153.5 100   C133.5 100, 123.5 110, 123.5 130   C123.5 150, 133.5 160, 153.5 160   C173.5 160, 183.5 150, 183.5 130  Z " fill="black"/></svg>

  </svg>