<?xml version="1.0" encoding="UTF-8" standalone="no"?><svg xmlns="http://www.w3.org/2000/svg" id="montage">
    <svg id="ear"><path stroke="black" stroke-width="1" d="M386.3996720124997 103.7292596761659 C396.3996720124997 122.7292596761659, 502.20130483767355 216.79809994790935, 428.20130483767355 340.79809994790935   " fill="white"/><path stroke="black" stroke-width="1" d="M113.6003279875003 103.7292596761659 C103.6003279875003 122.7292596761659, -2.2013048376735753 216.79809994790935, 71.79869516232642 340.79809994790935   " fill="white"/></svg>
    <circle id="countor" stroke="black" cx="250" cy="250" r="200" stroke-width="3" fill="white"/>
    <svg id="mouth"><path stroke="black" stroke-width="1" d="M120 374 C109 415, 391 415, 380 374   M120 374 C183 437, 317 437, 380 374" fill="white"/></svg>
    <svg id="eye"><path stroke="black" stroke-width="1" d="M290.5 190 C290.5 116, 336.5 63, 394.5 63   C405.5 63, 421.5 102, 421.5 139   C421.5 192, 397.5 247, 369.5 247   C289.5 247, 290.5 250, 290.5 190  Z " fill="white"/><path stroke="black" stroke-width="1" d="M209.5 190 C209.5 116, 163.5 63, 105.5 63   C94.5 63, 78.5 102, 78.5 139   C78.5 192, 102.5 247, 130.5 247   C210.5 247, 209.5 250, 209.5 190  Z " fill="white"/><path stroke="black" stroke-width="0" d="M318.5 146 C318.5 126, 328.5 116, 348.5 116   C368.5 116, 378.5 126, 378.5 146   C378.5 166, 368.5 176, 348.5 176   C328.5 176, 318.5 166, 318.5 146  Z " fill="black"/><path stroke="black" stroke-width="0" d="M181.5 146 C181.5 126, 171.5 116, 151.5 116   C131.5 116, 121.5 126, 121.5 146   C121.5 166, 131.5 176, 151.5 176   C171.5 176, 181.5 166, 181.5 146  Z " fill="black"/></svg>

  </svg>