<?xml version="1.0" encoding="UTF-8" standalone="no"?><svg xmlns="http://www.w3.org/2000/svg" id="montage">
    <svg id="ear"/>
    <circle id="countor" stroke="black" cx="250" cy="250" r="200" stroke-width="3" fill="white"/>
    <svg id="mouth"><path stroke="black" stroke-width="1" d="M238 337 C225 295, 275 295, 262 337   M238 337 C354 396, 146 396, 262 337" fill="white"/></svg>
    <svg id="eye"><path stroke="black" stroke-width="1" d="M280.5 229 C280.5 157, 312.5 124, 345.5 124   C415.5 124, 431.5 105, 431.5 157   C431.5 217, 348.5 283, 290.5 283   C239.5 283, 280.5 260, 280.5 229  Z " fill="white"/><path stroke="black" stroke-width="1" d="M219.5 229 C219.5 157, 187.5 124, 154.5 124   C84.5 124, 68.5 105, 68.5 157   C68.5 217, 151.5 283, 209.5 283   C260.5 283, 219.5 260, 219.5 229  Z " fill="white"/><path stroke="black" stroke-width="0" d="M310.5 185 C310.5 165, 320.5 155, 340.5 155   C360.5 155, 370.5 165, 370.5 185   C370.5 205, 360.5 215, 340.5 215   C320.5 215, 310.5 205, 310.5 185  Z " fill="black"/><path stroke="black" stroke-width="0" d="M189.5 185 C189.5 165, 179.5 155, 159.5 155   C139.5 155, 129.5 165, 129.5 185   C129.5 205, 139.5 215, 159.5 215   C179.5 215, 189.5 205, 189.5 185  Z " fill="black"/></svg>

  </svg>