<?xml version="1.0" encoding="UTF-8" standalone="no"?><svg xmlns="http://www.w3.org/2000/svg" id="montage">
    <svg id="ear"><path stroke="black" stroke-width="1" d="M407.6021507213444 126.86770493486836 C498.6021507213444 259.86770493486836, 460.8304088577984 93.28471272979078, 413.8304088577984 135.28471272979078   " fill="white"/><path stroke="black" stroke-width="1" d="M92.3978492786556 126.86770493486836 C1.397849278655599 259.86770493486836, 39.169591142201654 93.28471272979078, 86.16959114220165 135.28471272979078   " fill="white"/></svg>
    <circle id="countor" stroke="black" cx="250" cy="250" r="200" stroke-width="3" fill="white"/>
    <svg id="mouth"><path stroke="black" stroke-width="1" d="M163.5 398 C158.5 428, 341.5 428, 336.5 398   M163.5 398 C219.5 274, 280.5 274, 336.5 398" fill="white"/></svg>
    <svg id="eye"><path stroke="black" stroke-width="1" d="M231.5 162 C231.5 147, 284.5 135, 328.5 135   C348.5 135, 400.5 143, 400.5 204   C400.5 257, 313.5 249, 300.5 249   C250.5 249, 231.5 204, 231.5 162  Z " fill="white"/><path stroke="black" stroke-width="1" d="M268.5 162 C268.5 147, 215.5 135, 171.5 135   C151.5 135, 99.5 143, 99.5 204   C99.5 257, 186.5 249, 199.5 249   C249.5 249, 268.5 204, 268.5 162  Z " fill="white"/><path stroke="black" stroke-width="0" d="M311.5 194 C311.5 174, 321.5 164, 341.5 164   C361.5 164, 371.5 174, 371.5 194   C371.5 214, 361.5 224, 341.5 224   C321.5 224, 311.5 214, 311.5 194  Z " fill="black"/><path stroke="black" stroke-width="0" d="M188.5 194 C188.5 174, 178.5 164, 158.5 164   C138.5 164, 128.5 174, 128.5 194   C128.5 214, 138.5 224, 158.5 224   C178.5 224, 188.5 214, 188.5 194  Z " fill="black"/></svg>

  </svg>