<?xml version="1.0" encoding="UTF-8" standalone="no"?><svg xmlns="http://www.w3.org/2000/svg" id="montage">
    <svg id="ear"><path stroke="black" stroke-width="1" d="M308.47434094454735 58.73904880739292 C381.47434094454735 4.739048807392919, 436.4334601404224 251.99238501798916, 421.4334601404224 146.99238501798916   " fill="white"/><path stroke="black" stroke-width="1" d="M191.52565905545265 58.73904880739292 C118.52565905545265 4.739048807392919, 63.566539859577546 251.99238501798916, 78.56653985957755 146.99238501798916   " fill="white"/></svg>
    <circle id="countor" stroke="black" cx="250" cy="250" r="200" stroke-width="3" fill="white"/>
    <svg id="mouth"><path stroke="black" stroke-width="1" d="M182.5 379 C192.5 346, 307.5 346, 317.5 379   M182.5 379 C207.5 504, 292.5 504, 317.5 379" fill="white"/></svg>
    <svg id="eye"><path stroke="black" stroke-width="1" d="M231.5 209 C231.5 142, 228.5 137, 301.5 137   C324.5 137, 437.5 154, 437.5 204   C437.5 224, 380.5 262, 332.5 262   C253.5 262, 231.5 273, 231.5 209  Z " fill="white"/><path stroke="black" stroke-width="1" d="M268.5 209 C268.5 142, 271.5 137, 198.5 137   C175.5 137, 62.5 154, 62.5 204   C62.5 224, 119.5 262, 167.5 262   C246.5 262, 268.5 273, 268.5 209  Z " fill="white"/><path stroke="black" stroke-width="0" d="M313.5 218 C313.5 198, 323.5 188, 343.5 188   C363.5 188, 373.5 198, 373.5 218   C373.5 238, 363.5 248, 343.5 248   C323.5 248, 313.5 238, 313.5 218  Z " fill="black"/><path stroke="black" stroke-width="0" d="M186.5 218 C186.5 198, 176.5 188, 156.5 188   C136.5 188, 126.5 198, 126.5 218   C126.5 238, 136.5 248, 156.5 248   C176.5 248, 186.5 238, 186.5 218  Z " fill="black"/></svg>

  </svg>