<?xml version="1.0" encoding="UTF-8" standalone="no"?><svg xmlns="http://www.w3.org/2000/svg" id="montage">
    <svg id="ear"><path stroke="black" stroke-width="1" d="M301.76380902050414 56.81483474218635 C481.76380902050414 2.814834742186349, 498.43677091335746 229.0786813168176, 435.43677091335746 175.0786813168176   " fill="white"/><path stroke="black" stroke-width="1" d="M198.23619097949586 56.81483474218635 C18.23619097949586 2.814834742186349, 1.563229086642508 229.0786813168176, 64.56322908664251 175.0786813168176   " fill="white"/></svg>
    <circle id="countor" stroke="black" cx="250" cy="250" r="200" stroke-width="3" fill="white"/>
    <svg id="mouth"><path stroke="black" stroke-width="1" d="M208.5 340 C236.5 332, 263.5 332, 291.5 340   M208.5 340 C202.5 335, 297.5 335, 291.5 340" fill="white"/></svg>
    <svg id="eye"><path stroke="black" stroke-width="1" d="M277.5 229 C277.5 189, 321.5 174, 371.5 174   C398.5 174, 383.5 220, 383.5 252   C383.5 267, 383.5 327, 328.5 327   C295.5 327, 277.5 246, 277.5 229  Z " fill="white"/><path stroke="black" stroke-width="1" d="M222.5 229 C222.5 189, 178.5 174, 128.5 174   C101.5 174, 116.5 220, 116.5 252   C116.5 267, 116.5 327, 171.5 327   C204.5 327, 222.5 246, 222.5 229  Z " fill="white"/><path stroke="black" stroke-width="0" d="M318.5 211 C318.5 191, 328.5 181, 348.5 181   C368.5 181, 378.5 191, 378.5 211   C378.5 231, 368.5 241, 348.5 241   C328.5 241, 318.5 231, 318.5 211  Z " fill="black"/><path stroke="black" stroke-width="0" d="M181.5 211 C181.5 191, 171.5 181, 151.5 181   C131.5 181, 121.5 191, 121.5 211   C121.5 231, 131.5 241, 151.5 241   C171.5 241, 181.5 231, 181.5 211  Z " fill="black"/></svg>

  </svg>