<?xml version="1.0" encoding="UTF-8" standalone="no"?><svg xmlns="http://www.w3.org/2000/svg" id="montage">
    <svg id="ear"><path stroke="black" stroke-width="1" d="M436.71608529944035 178.32641009093993 C448.71608529944035 176.32641009093993, 523.4367709133575 170.9213186831824, 435.43677091335746 324.9213186831824   " fill="white"/><path stroke="black" stroke-width="1" d="M63.28391470055965 178.32641009093993 C51.28391470055965 176.32641009093993, -23.436770913357492 170.9213186831824, 64.56322908664251 324.9213186831824   " fill="white"/></svg>
    <circle id="countor" stroke="black" cx="250" cy="250" r="200" stroke-width="3" fill="white"/>
    <svg id="mouth"><path stroke="black" stroke-width="1" d="M139.5 376 C98.5 356, 401.5 356, 360.5 376   M139.5 376 C9.5 418, 490.5 418, 360.5 376" fill="white"/></svg>
    <svg id="eye"><path stroke="black" stroke-width="1" d="M246.5 189 C246.5 154, 340.5 116, 382.5 116   C397.5 116, 452.5 235, 452.5 255   C452.5 290, 326.5 305, 315.5 305   C285.5 305, 246.5 250, 246.5 189  Z " fill="white"/><path stroke="black" stroke-width="1" d="M253.5 189 C253.5 154, 159.5 116, 117.5 116   C102.5 116, 47.5 235, 47.5 255   C47.5 290, 173.5 305, 184.5 305   C214.5 305, 253.5 250, 253.5 189  Z " fill="white"/><path stroke="black" stroke-width="0" d="M314.5 207 C314.5 187, 324.5 177, 344.5 177   C364.5 177, 374.5 187, 374.5 207   C374.5 227, 364.5 237, 344.5 237   C324.5 237, 314.5 227, 314.5 207  Z " fill="black"/><path stroke="black" stroke-width="0" d="M185.5 207 C185.5 187, 175.5 177, 155.5 177   C135.5 177, 125.5 187, 125.5 207   C125.5 227, 135.5 237, 155.5 237   C175.5 237, 185.5 227, 185.5 207  Z " fill="black"/></svg>

  </svg>