<?xml version="1.0" encoding="UTF-8" standalone="no"?><svg xmlns="http://www.w3.org/2000/svg" id="montage">
    <svg id="ear"/>
    <circle id="countor" stroke="black" cx="250" cy="250" r="200" stroke-width="3" fill="white"/>
    <svg id="mouth"><path stroke="black" stroke-width="1" d="M162.5 314 C152.5 265, 347.5 265, 337.5 314   M162.5 314 C229.5 298, 270.5 298, 337.5 314" fill="white"/></svg>
    <svg id="eye"><path stroke="black" stroke-width="1" d="M229.5 224 C229.5 190, 373.5 113, 393.5 113   C447.5 113, 456.5 192, 456.5 228   C456.5 295, 407.5 262, 382.5 262   C333.5 262, 229.5 236, 229.5 224  Z " fill="white"/><path stroke="black" stroke-width="1" d="M270.5 224 C270.5 190, 126.5 113, 106.5 113   C52.5 113, 43.5 192, 43.5 228   C43.5 295, 92.5 262, 117.5 262   C166.5 262, 270.5 236, 270.5 224  Z " fill="white"/><path stroke="black" stroke-width="0" d="M315.5 211 C315.5 191, 325.5 181, 345.5 181   C365.5 181, 375.5 191, 375.5 211   C375.5 231, 365.5 241, 345.5 241   C325.5 241, 315.5 231, 315.5 211  Z " fill="black"/><path stroke="black" stroke-width="0" d="M184.5 211 C184.5 191, 174.5 181, 154.5 181   C134.5 181, 124.5 191, 124.5 211   C124.5 231, 134.5 241, 154.5 241   C174.5 241, 184.5 231, 184.5 211  Z " fill="black"/></svg>

  </svg>