<?xml version="1.0" encoding="UTF-8" standalone="no"?><svg xmlns="http://www.w3.org/2000/svg" id="montage">
    <svg id="ear"/>
    <circle id="countor" stroke="black" cx="250" cy="250" r="200" stroke-width="3" fill="white"/>
    <svg id="mouth"><path stroke="black" stroke-width="1" d="M227 287 C232 242, 268 242, 273 287   M227 287 C84 299, 416 299, 273 287" fill="white"/></svg>
    <svg id="eye"><path stroke="black" stroke-width="1" d="M273 148 C273 100, 271 85, 320 85   C348 85, 445 120, 445 179   C445 199, 342 271, 300 271   C280 271, 273 185, 273 148  Z " fill="white"/><path stroke="black" stroke-width="1" d="M227 148 C227 100, 229 85, 180 85   C152 85, 55 120, 55 179   C55 199, 158 271, 200 271   C220 271, 227 185, 227 148  Z " fill="white"/><path stroke="black" stroke-width="0" d="M316 167 C316 147, 326 137, 346 137   C366 137, 376 147, 376 167   C376 187, 366 197, 346 197   C326 197, 316 187, 316 167  Z " fill="black"/><path stroke="black" stroke-width="0" d="M184 167 C184 147, 174 137, 154 137   C134 137, 124 147, 124 167   C124 187, 134 197, 154 197   C174 197, 184 187, 184 167  Z " fill="black"/></svg>

  </svg>