<?xml version="1.0" encoding="UTF-8" standalone="no"?><svg xmlns="http://www.w3.org/2000/svg" id="montage">
    <svg id="ear"><path stroke="black" stroke-width="1" d="M388.93167409179944 106.13203993226978 C401.93167409179944 -38.86796006773022, 555.0591452551993 316.38437911993356, 444.05914525519927 298.38437911993356   " fill="white"/><path stroke="black" stroke-width="1" d="M111.06832590820053 106.13203993226978 C98.06832590820053 -38.86796006773022, -55.0591452551993 316.38437911993356, 55.9408547448007 298.38437911993356   " fill="white"/></svg>
    <circle id="countor" stroke="black" cx="250" cy="250" r="200" stroke-width="3" fill="white"/>
    <svg id="mouth"><path stroke="black" stroke-width="1" d="M120.5 306 C81.5 271, 418.5 271, 379.5 306   M120.5 306 C7.5 417, 492.5 417, 379.5 306" fill="white"/></svg>
    <svg id="eye"><path stroke="black" stroke-width="1" d="M302.5 244 C302.5 234, 307.5 144, 345.5 144   C384.5 144, 431.5 168, 431.5 188   C431.5 259, 371.5 273, 303.5 273   C230.5 273, 302.5 311, 302.5 244  Z " fill="white"/><path stroke="black" stroke-width="1" d="M197.5 244 C197.5 234, 192.5 144, 154.5 144   C115.5 144, 68.5 168, 68.5 188   C68.5 259, 128.5 273, 196.5 273   C269.5 273, 197.5 311, 197.5 244  Z " fill="white"/><path stroke="black" stroke-width="0" d="M315.5 195 C315.5 175, 325.5 165, 345.5 165   C365.5 165, 375.5 175, 375.5 195   C375.5 215, 365.5 225, 345.5 225   C325.5 225, 315.5 215, 315.5 195  Z " fill="black"/><path stroke="black" stroke-width="0" d="M184.5 195 C184.5 175, 174.5 165, 154.5 165   C134.5 165, 124.5 175, 124.5 195   C124.5 215, 134.5 225, 154.5 225   C174.5 225, 184.5 215, 184.5 195  Z " fill="black"/></svg>

  </svg>