<?xml version="1.0" encoding="UTF-8" standalone="no"?><svg xmlns="http://www.w3.org/2000/svg" id="montage">
    <svg id="ear"/>
    <circle id="countor" stroke="black" cx="250" cy="250" r="200" stroke-width="3" fill="white"/>
    <svg id="mouth"><path stroke="black" stroke-width="1" d="M123.5 405 C88.5 443, 411.5 443, 376.5 405   M123.5 405 C167.5 310, 332.5 310, 376.5 405" fill="white"/></svg>
    <svg id="eye"><path stroke="black" stroke-width="1" d="M250.5 103 C250.5 48, 311.5 55, 322.5 55   C386.5 55, 378.5 134, 378.5 155   C378.5 165, 393.5 189, 355.5 189   C302.5 189, 250.5 139, 250.5 103  Z " fill="white"/><path stroke="black" stroke-width="1" d="M249.5 103 C249.5 48, 188.5 55, 177.5 55   C113.5 55, 121.5 134, 121.5 155   C121.5 165, 106.5 189, 144.5 189   C197.5 189, 249.5 139, 249.5 103  Z " fill="white"/><path stroke="black" stroke-width="0" d="M312.5 145 C312.5 125, 322.5 115, 342.5 115   C362.5 115, 372.5 125, 372.5 145   C372.5 165, 362.5 175, 342.5 175   C322.5 175, 312.5 165, 312.5 145  Z " fill="black"/><path stroke="black" stroke-width="0" d="M187.5 145 C187.5 125, 177.5 115, 157.5 115   C137.5 115, 127.5 125, 127.5 145   C127.5 165, 137.5 175, 157.5 175   C177.5 175, 187.5 165, 187.5 145  Z " fill="black"/></svg>

  </svg>