<?xml version="1.0" encoding="UTF-8" standalone="no"?><svg xmlns="http://www.w3.org/2000/svg" id="montage">
    <svg id="ear"/>
    <circle id="countor" stroke="black" cx="250" cy="250" r="200" stroke-width="3" fill="white"/>
    <svg id="mouth"><path stroke="black" stroke-width="1" d="M220 300 C230 261, 270 261, 280 300   M220 300 C335 316, 165 316, 280 300" fill="white"/></svg>
    <svg id="eye"><path stroke="black" stroke-width="1" d="M296 119 C296 77, 257 91, 327 91   C369 91, 458 55, 458 101   C458 134, 335 199, 317 199   C267 199, 296 172, 296 119  Z " fill="white"/><path stroke="black" stroke-width="1" d="M204 119 C204 77, 243 91, 173 91   C131 91, 42 55, 42 101   C42 134, 165 199, 183 199   C233 199, 204 172, 204 119  Z " fill="white"/><path stroke="black" stroke-width="0" d="M313 130 C313 110, 323 100, 343 100   C363 100, 373 110, 373 130   C373 150, 363 160, 343 160   C323 160, 313 150, 313 130  Z " fill="black"/><path stroke="black" stroke-width="0" d="M187 130 C187 110, 177 100, 157 100   C137 100, 127 110, 127 130   C127 150, 137 160, 157 160   C177 160, 187 150, 187 130  Z " fill="black"/></svg>

  </svg>