<?xml version="1.0" encoding="UTF-8" standalone="no"?><svg xmlns="http://www.w3.org/2000/svg" id="montage">
    <svg id="ear"/>
    <circle id="countor" stroke="black" cx="250" cy="250" r="200" stroke-width="3" fill="white"/>
    <svg id="mouth"><path stroke="black" stroke-width="1" d="M142 396 C177 443, 323 443, 358 396   M142 396 C291 301, 209 301, 358 396" fill="white"/></svg>
    <svg id="eye"><path stroke="black" stroke-width="1" d="M282.5 223 C282.5 190, 300.5 98, 357.5 98   C368.5 98, 461.5 133, 461.5 181   C461.5 206, 374.5 240, 306.5 240   C250.5 240, 282.5 272, 282.5 223  Z " fill="white"/><path stroke="black" stroke-width="1" d="M217.5 223 C217.5 190, 199.5 98, 142.5 98   C131.5 98, 38.5 133, 38.5 181   C38.5 206, 125.5 240, 193.5 240   C249.5 240, 217.5 272, 217.5 223  Z " fill="white"/><path stroke="black" stroke-width="0" d="M314.5 204 C314.5 184, 324.5 174, 344.5 174   C364.5 174, 374.5 184, 374.5 204   C374.5 224, 364.5 234, 344.5 234   C324.5 234, 314.5 224, 314.5 204  Z " fill="black"/><path stroke="black" stroke-width="0" d="M185.5 204 C185.5 184, 175.5 174, 155.5 174   C135.5 174, 125.5 184, 125.5 204   C125.5 224, 135.5 234, 155.5 234   C175.5 234, 185.5 224, 185.5 204  Z " fill="black"/></svg>

  </svg>