<?xml version="1.0" encoding="UTF-8" standalone="no"?><svg xmlns="http://www.w3.org/2000/svg" id="montage">
    <svg id="ear"><path stroke="black" stroke-width="1" d="M386.3996720124997 103.7292596761659 C413.3996720124997 27.729259676165896, 476.51281005196483 351.04870525117497, 449.51281005196483 236.04870525117494   " fill="white"/><path stroke="black" stroke-width="1" d="M113.6003279875003 103.7292596761659 C86.6003279875003 27.729259676165896, 23.487189948035166 351.04870525117497, 50.487189948035166 236.04870525117494   " fill="white"/></svg>
    <circle id="countor" stroke="black" cx="250" cy="250" r="200" stroke-width="3" fill="white"/>
    <svg id="mouth"><path stroke="black" stroke-width="1" d="M133.5 395 C134.5 355, 365.5 355, 366.5 395   M133.5 395 C20.5 293, 479.5 293, 366.5 395" fill="white"/></svg>
    <svg id="eye"><path stroke="black" stroke-width="1" d="M290 195 C290 118, 268 131, 319 131   C332 131, 390 152, 390 192   C390 228, 455 233, 393 233   C323 233, 290 218, 290 195  Z " fill="white"/><path stroke="black" stroke-width="1" d="M210 195 C210 118, 232 131, 181 131   C168 131, 110 152, 110 192   C110 228, 45 233, 107 233   C177 233, 210 218, 210 195  Z " fill="white"/><path stroke="black" stroke-width="0" d="M316 170 C316 150, 326 140, 346 140   C366 140, 376 150, 376 170   C376 190, 366 200, 346 200   C326 200, 316 190, 316 170  Z " fill="black"/><path stroke="black" stroke-width="0" d="M184 170 C184 150, 174 140, 154 140   C134 140, 124 150, 124 170   C124 190, 134 200, 154 200   C174 200, 184 190, 184 170  Z " fill="black"/></svg>

  </svg>