<?xml version="1.0" encoding="UTF-8" standalone="no"?><svg xmlns="http://www.w3.org/2000/svg" id="montage">
    <svg id="ear"/>
    <circle id="countor" stroke="black" cx="250" cy="250" r="200" stroke-width="3" fill="white"/>
    <svg id="mouth"><path stroke="black" stroke-width="1" d="M139 345 C147 391, 353 391, 361 345   M139 345 C57 383, 443 383, 361 345" fill="white"/></svg>
    <svg id="eye"><path stroke="black" stroke-width="1" d="M266 207 C266 144, 362 175, 385 175   C447 175, 401 215, 401 231   C401 308, 408 312, 380 312   C362 312, 266 220, 266 207  Z " fill="white"/><path stroke="black" stroke-width="1" d="M234 207 C234 144, 138 175, 115 175   C53 175, 99 215, 99 231   C99 308, 92 312, 120 312   C138 312, 234 220, 234 207  Z " fill="white"/><path stroke="black" stroke-width="0" d="M315 229 C315 209, 325 199, 345 199   C365 199, 375 209, 375 229   C375 249, 365 259, 345 259   C325 259, 315 249, 315 229  Z " fill="black"/><path stroke="black" stroke-width="0" d="M185 229 C185 209, 175 199, 155 199   C135 199, 125 209, 125 229   C125 249, 135 259, 155 259   C175 259, 185 249, 185 229  Z " fill="black"/></svg>

  </svg>