<?xml version="1.0" encoding="UTF-8" standalone="no"?><svg xmlns="http://www.w3.org/2000/svg" id="montage">
    <svg id="ear"><path stroke="black" stroke-width="1" d="M378.5575219373079 96.79111137620438 C530.5575219373079 131.79111137620438, 455.6096192312852 -39.983852846640985, 419.6096192312852 144.01614715335901   " fill="white"/><path stroke="black" stroke-width="1" d="M121.44247806269212 96.79111137620438 C-30.557521937307882 131.79111137620438, 44.390380768714806 -39.983852846640985, 80.3903807687148 144.01614715335901   " fill="white"/></svg>
    <circle id="countor" stroke="black" cx="250" cy="250" r="200" stroke-width="3" fill="white"/>
    <svg id="mouth"><path stroke="black" stroke-width="1" d="M219 336 C211 365, 289 365, 281 336   M219 336 C177 195, 323 195, 281 336" fill="white"/></svg>
    <svg id="eye"><path stroke="black" stroke-width="1" d="M305.5 155 C305.5 135, 296.5 120, 329.5 120   C359.5 120, 452.5 132, 452.5 145   C452.5 214, 459.5 274, 387.5 274   C364.5 274, 305.5 193, 305.5 155  Z " fill="white"/><path stroke="black" stroke-width="1" d="M194.5 155 C194.5 135, 203.5 120, 170.5 120   C140.5 120, 47.5 132, 47.5 145   C47.5 214, 40.5 274, 112.5 274   C135.5 274, 194.5 193, 194.5 155  Z " fill="white"/><path stroke="black" stroke-width="0" d="M315.5 155 C315.5 135, 325.5 125, 345.5 125   C365.5 125, 375.5 135, 375.5 155   C375.5 175, 365.5 185, 345.5 185   C325.5 185, 315.5 175, 315.5 155  Z " fill="black"/><path stroke="black" stroke-width="0" d="M184.5 155 C184.5 135, 174.5 125, 154.5 125   C134.5 125, 124.5 135, 124.5 155   C124.5 175, 134.5 185, 154.5 185   C174.5 185, 184.5 175, 184.5 155  Z " fill="black"/></svg>

  </svg>