<?xml version="1.0" encoding="UTF-8" standalone="no"?><svg xmlns="http://www.w3.org/2000/svg" id="montage">
    <svg id="ear"><path stroke="black" stroke-width="1" d="M449.23893961834915 232.56885145046837 C492.23893961834915 412.5688514504684, 550.2609511926071 444.47434094454735, 441.2609511926071 308.47434094454735   " fill="white"/><path stroke="black" stroke-width="1" d="M50.76106038165088 232.56885145046837 C7.7610603816508785 412.5688514504684, -50.26095119260708 444.47434094454735, 58.73904880739292 308.47434094454735   " fill="white"/></svg>
    <circle id="countor" stroke="black" cx="250" cy="250" r="200" stroke-width="3" fill="white"/>
    <svg id="mouth"><path stroke="black" stroke-width="1" d="M121 270 C149 256, 351 256, 379 270   M121 270 C17 218, 483 218, 379 270" fill="white"/></svg>
    <svg id="eye"><path stroke="black" stroke-width="1" d="M230 161 C230 132, 314 138, 376 138   C401 138, 396 151, 396 213   C396 280, 432 247, 393 247   C336 247, 230 215, 230 161  Z " fill="white"/><path stroke="black" stroke-width="1" d="M270 161 C270 132, 186 138, 124 138   C99 138, 104 151, 104 213   C104 280, 68 247, 107 247   C164 247, 270 215, 270 161  Z " fill="white"/><path stroke="black" stroke-width="0" d="M319 178 C319 158, 329 148, 349 148   C369 148, 379 158, 379 178   C379 198, 369 208, 349 208   C329 208, 319 198, 319 178  Z " fill="black"/><path stroke="black" stroke-width="0" d="M181 178 C181 158, 171 148, 151 148   C131 148, 121 158, 121 178   C121 198, 131 208, 151 208   C171 208, 181 198, 181 178  Z " fill="black"/></svg>

  </svg>