<?xml version="1.0" encoding="UTF-8" standalone="no"?><svg xmlns="http://www.w3.org/2000/svg" id="montage">
    <svg id="ear"><path stroke="black" stroke-width="1" d="M442.2523391876638 194.87252883660017 C565.2523391876638 359.87252883660017, 506.87401295704706 97.99021086877298, 444.87401295704706 294.990210868773   " fill="white"/><path stroke="black" stroke-width="1" d="M57.74766081233622 194.87252883660017 C-65.25233918766378 359.87252883660017, -6.874012957047057 97.99021086877298, 55.12598704295294 294.990210868773   " fill="white"/></svg>
    <circle id="countor" stroke="black" cx="250" cy="250" r="200" stroke-width="3" fill="white"/>
    <svg id="mouth"><path stroke="black" stroke-width="1" d="M123.5 330 C132.5 302, 367.5 302, 376.5 330   M123.5 330 C160.5 292, 339.5 292, 376.5 330" fill="white"/></svg>
    <svg id="eye"><path stroke="black" stroke-width="1" d="M261.5 232 C261.5 162, 319.5 182, 352.5 182   C425.5 182, 419.5 203, 419.5 250   C419.5 308, 350.5 257, 315.5 257   C272.5 257, 261.5 296, 261.5 232  Z " fill="white"/><path stroke="black" stroke-width="1" d="M238.5 232 C238.5 162, 180.5 182, 147.5 182   C74.5 182, 80.5 203, 80.5 250   C80.5 308, 149.5 257, 184.5 257   C227.5 257, 238.5 296, 238.5 232  Z " fill="white"/><path stroke="black" stroke-width="0" d="M314.5 220 C314.5 200, 324.5 190, 344.5 190   C364.5 190, 374.5 200, 374.5 220   C374.5 240, 364.5 250, 344.5 250   C324.5 250, 314.5 240, 314.5 220  Z " fill="black"/><path stroke="black" stroke-width="0" d="M185.5 220 C185.5 200, 175.5 190, 155.5 190   C135.5 190, 125.5 200, 125.5 220   C125.5 240, 135.5 250, 155.5 250   C175.5 250, 185.5 240, 185.5 220  Z " fill="black"/></svg>

  </svg>