<?xml version="1.0" encoding="UTF-8" standalone="no"?><svg xmlns="http://www.w3.org/2000/svg" id="montage">
    <svg id="ear"/>
    <circle id="countor" stroke="black" cx="250" cy="250" r="200" stroke-width="3" fill="white"/>
    <svg id="mouth"><path stroke="black" stroke-width="1" d="M202 383 C204 418, 296 418, 298 383   M202 383 C301 307, 199 307, 298 383" fill="white"/></svg>
    <svg id="eye"><path stroke="black" stroke-width="1" d="M244.5 164 C244.5 105, 363.5 68, 393.5 68   C469.5 68, 411.5 99, 411.5 165   C411.5 222, 371.5 291, 295.5 291   C229.5 291, 244.5 181, 244.5 164  Z " fill="white"/><path stroke="black" stroke-width="1" d="M255.5 164 C255.5 105, 136.5 68, 106.5 68   C30.5 68, 88.5 99, 88.5 165   C88.5 222, 128.5 291, 204.5 291   C270.5 291, 255.5 181, 255.5 164  Z " fill="white"/><path stroke="black" stroke-width="0" d="M314.5 171 C314.5 151, 324.5 141, 344.5 141   C364.5 141, 374.5 151, 374.5 171   C374.5 191, 364.5 201, 344.5 201   C324.5 201, 314.5 191, 314.5 171  Z " fill="black"/><path stroke="black" stroke-width="0" d="M185.5 171 C185.5 151, 175.5 141, 155.5 141   C135.5 141, 125.5 151, 125.5 171   C125.5 191, 135.5 201, 155.5 201   C175.5 201, 185.5 191, 185.5 171  Z " fill="black"/></svg>

  </svg>