<?xml version="1.0" encoding="UTF-8" standalone="no"?><svg xmlns="http://www.w3.org/2000/svg" id="montage">
    <svg id="ear"><path stroke="black" stroke-width="1" d="M449.23893961834915 232.56885145046837 C615.2389396183491 42.56885145046837, 445.9239414278792 161.9619240492674, 424.9239414278792 346.9619240492674   " fill="white"/><path stroke="black" stroke-width="1" d="M50.76106038165088 232.56885145046837 C-115.23893961834912 42.56885145046837, 54.07605857212084 161.9619240492674, 75.07605857212084 346.9619240492674   " fill="white"/></svg>
    <circle id="countor" stroke="black" cx="250" cy="250" r="200" stroke-width="3" fill="white"/>
    <svg id="mouth"><path stroke="black" stroke-width="1" d="M179.5 309 C181.5 281, 318.5 281, 320.5 309   M179.5 309 C248.5 214, 251.5 214, 320.5 309" fill="white"/></svg>
    <svg id="eye"><path stroke="black" stroke-width="1" d="M266 213 C266 172, 249 106, 300 106   C344 106, 388 161, 388 186   C388 223, 397 252, 326 252   C284 252, 266 246, 266 213  Z " fill="white"/><path stroke="black" stroke-width="1" d="M234 213 C234 172, 251 106, 200 106   C156 106, 112 161, 112 186   C112 223, 103 252, 174 252   C216 252, 234 246, 234 213  Z " fill="white"/><path stroke="black" stroke-width="0" d="M315 181 C315 161, 325 151, 345 151   C365 151, 375 161, 375 181   C375 201, 365 211, 345 211   C325 211, 315 201, 315 181  Z " fill="black"/><path stroke="black" stroke-width="0" d="M185 181 C185 161, 175 151, 155 151   C135 151, 125 161, 125 181   C125 201, 135 211, 155 211   C175 211, 185 201, 185 181  Z " fill="black"/></svg>

  </svg>