<?xml version="1.0" encoding="UTF-8" standalone="no"?><svg xmlns="http://www.w3.org/2000/svg" id="montage">
    <svg id="ear"/>
    <circle id="countor" stroke="black" cx="250" cy="250" r="200" stroke-width="3" fill="white"/>
    <svg id="mouth"><path stroke="black" stroke-width="1" d="M218 331 C266 312, 234 312, 282 331   M218 331 C306 446, 194 446, 282 331" fill="white"/></svg>
    <svg id="eye"><path stroke="black" stroke-width="1" d="M254.5 190 C254.5 173, 300.5 113, 321.5 113   C358.5 113, 416.5 143, 416.5 200   C416.5 275, 352.5 240, 339.5 240   C297.5 240, 254.5 229, 254.5 190  Z " fill="white"/><path stroke="black" stroke-width="1" d="M245.5 190 C245.5 173, 199.5 113, 178.5 113   C141.5 113, 83.5 143, 83.5 200   C83.5 275, 147.5 240, 160.5 240   C202.5 240, 245.5 229, 245.5 190  Z " fill="white"/><path stroke="black" stroke-width="0" d="M316.5 156 C316.5 136, 326.5 126, 346.5 126   C366.5 126, 376.5 136, 376.5 156   C376.5 176, 366.5 186, 346.5 186   C326.5 186, 316.5 176, 316.5 156  Z " fill="black"/><path stroke="black" stroke-width="0" d="M183.5 156 C183.5 136, 173.5 126, 153.5 126   C133.5 126, 123.5 136, 123.5 156   C123.5 176, 133.5 186, 153.5 186   C173.5 186, 183.5 176, 183.5 156  Z " fill="black"/></svg>

  </svg>