<?xml version="1.0" encoding="UTF-8" standalone="no"?><svg xmlns="http://www.w3.org/2000/svg" id="montage">
    <svg id="ear"/>
    <circle id="countor" stroke="black" cx="250" cy="250" r="200" stroke-width="3" fill="white"/>
    <svg id="mouth"><path stroke="black" stroke-width="1" d="M155.5 415 C160.5 408, 339.5 408, 344.5 415   M155.5 415 C165.5 501, 334.5 501, 344.5 415" fill="white"/></svg>
    <svg id="eye"><path stroke="black" stroke-width="1" d="M287 207 C287 169, 306 117, 342 117   C362 117, 399 177, 399 187   C399 217, 410 306, 367 306   C288 306, 287 246, 287 207  Z " fill="white"/><path stroke="black" stroke-width="1" d="M213 207 C213 169, 194 117, 158 117   C138 117, 101 177, 101 187   C101 217, 90 306, 133 306   C212 306, 213 246, 213 207  Z " fill="white"/><path stroke="black" stroke-width="0" d="M317 207 C317 187, 327 177, 347 177   C367 177, 377 187, 377 207   C377 227, 367 237, 347 237   C327 237, 317 227, 317 207  Z " fill="black"/><path stroke="black" stroke-width="0" d="M183 207 C183 187, 173 177, 153 177   C133 177, 123 187, 123 207   C123 227, 133 237, 153 237   C173 237, 183 227, 183 207  Z " fill="black"/></svg>

  </svg>