<?xml version="1.0" encoding="UTF-8" standalone="no"?><svg xmlns="http://www.w3.org/2000/svg" id="montage">
    <svg id="ear"/>
    <circle id="countor" stroke="black" cx="250" cy="250" r="200" stroke-width="3" fill="white"/>
    <svg id="mouth"><path stroke="black" stroke-width="1" d="M165 328 C192 352, 308 352, 335 328   M165 328 C31 425, 469 425, 335 328" fill="white"/></svg>
    <svg id="eye"><path stroke="black" stroke-width="1" d="M229.5 227 C229.5 192, 237.5 174, 305.5 174   C335.5 174, 381.5 192, 381.5 258   C381.5 304, 397.5 331, 345.5 331   C301.5 331, 229.5 268, 229.5 227  Z " fill="white"/><path stroke="black" stroke-width="1" d="M270.5 227 C270.5 192, 262.5 174, 194.5 174   C164.5 174, 118.5 192, 118.5 258   C118.5 304, 102.5 331, 154.5 331   C198.5 331, 270.5 268, 270.5 227  Z " fill="white"/><path stroke="black" stroke-width="0" d="M311.5 215 C311.5 195, 321.5 185, 341.5 185   C361.5 185, 371.5 195, 371.5 215   C371.5 235, 361.5 245, 341.5 245   C321.5 245, 311.5 235, 311.5 215  Z " fill="black"/><path stroke="black" stroke-width="0" d="M188.5 215 C188.5 195, 178.5 185, 158.5 185   C138.5 185, 128.5 195, 128.5 215   C128.5 235, 138.5 245, 158.5 245   C178.5 245, 188.5 235, 188.5 215  Z " fill="black"/></svg>

  </svg>