<?xml version="1.0" encoding="UTF-8" standalone="no"?><svg xmlns="http://www.w3.org/2000/svg" id="montage">
    <svg id="ear"><path stroke="black" stroke-width="1" d="M442.2523391876638 194.87252883660017 C544.2523391876638 287.87252883660017, 574.7090915285202 401.34732861516, 432.70909152852016 331.34732861516   " fill="white"/><path stroke="black" stroke-width="1" d="M57.74766081233622 194.87252883660017 C-44.25233918766378 287.87252883660017, -74.70909152852016 401.34732861516, 67.29090847147984 331.34732861516   " fill="white"/></svg>
    <circle id="countor" stroke="black" cx="250" cy="250" r="200" stroke-width="3" fill="white"/>
    <svg id="mouth"><path stroke="black" stroke-width="1" d="M123 330 C122 326, 378 326, 377 330   M123 330 C113 292, 387 292, 377 330" fill="white"/></svg>
    <svg id="eye"><path stroke="black" stroke-width="1" d="M276 188 C276 133, 293 117, 336 117   C367 117, 435 198, 435 262   C435 290, 348 308, 322 308   C280 308, 276 224, 276 188  Z " fill="white"/><path stroke="black" stroke-width="1" d="M224 188 C224 133, 207 117, 164 117   C133 117, 65 198, 65 262   C65 290, 152 308, 178 308   C220 308, 224 224, 224 188  Z " fill="white"/><path stroke="black" stroke-width="0" d="M311 220 C311 200, 321 190, 341 190   C361 190, 371 200, 371 220   C371 240, 361 250, 341 250   C321 250, 311 240, 311 220  Z " fill="black"/><path stroke="black" stroke-width="0" d="M189 220 C189 200, 179 190, 159 190   C139 190, 129 200, 129 220   C129 240, 139 250, 159 250   C179 250, 189 240, 189 220  Z " fill="black"/></svg>

  </svg>