<?xml version="1.0" encoding="UTF-8" standalone="no"?><svg xmlns="http://www.w3.org/2000/svg" id="montage">
    <svg id="ear"/>
    <circle id="countor" stroke="black" cx="250" cy="250" r="200" stroke-width="3" fill="white"/>
    <svg id="mouth"><path stroke="black" stroke-width="1" d="M225.5 386 C210.5 358, 289.5 358, 274.5 386   M225.5 386 C91.5 378, 408.5 378, 274.5 386" fill="white"/></svg>
    <svg id="eye"><path stroke="black" stroke-width="1" d="M262.5 138 C262.5 96, 271.5 53, 342.5 53   C366.5 53, 439.5 82, 439.5 112   C439.5 151, 400.5 186, 355.5 186   C297.5 186, 262.5 179, 262.5 138  Z " fill="white"/><path stroke="black" stroke-width="1" d="M237.5 138 C237.5 96, 228.5 53, 157.5 53   C133.5 53, 60.5 82, 60.5 112   C60.5 151, 99.5 186, 144.5 186   C202.5 186, 237.5 179, 237.5 138  Z " fill="white"/><path stroke="black" stroke-width="0" d="M315.5 141 C315.5 121, 325.5 111, 345.5 111   C365.5 111, 375.5 121, 375.5 141   C375.5 161, 365.5 171, 345.5 171   C325.5 171, 315.5 161, 315.5 141  Z " fill="black"/><path stroke="black" stroke-width="0" d="M184.5 141 C184.5 121, 174.5 111, 154.5 111   C134.5 111, 124.5 121, 124.5 141   C124.5 161, 134.5 171, 154.5 171   C174.5 171, 184.5 161, 184.5 141  Z " fill="black"/></svg>

  </svg>