<?xml version="1.0" encoding="UTF-8" standalone="no"?><svg xmlns="http://www.w3.org/2000/svg" id="montage">
    <svg id="ear"><path stroke="black" stroke-width="1" d="M444.05914525519927 201.61562088006644 C513.0591452551993 266.61562088006644, 615.9695390312783 434.4904812874567, 449.96953903127826 253.4904812874567   " fill="white"/><path stroke="black" stroke-width="1" d="M55.9408547448007 201.61562088006644 C-13.059145255199297 266.61562088006644, -115.96953903127826 434.4904812874567, 50.03046096872174 253.4904812874567   " fill="white"/></svg>
    <circle id="countor" stroke="black" cx="250" cy="250" r="200" stroke-width="3" fill="white"/>
    <svg id="mouth"><path stroke="black" stroke-width="1" d="M187 421 C169 389, 331 389, 313 421   M187 421 C242 466, 258 466, 313 421" fill="white"/></svg>
    <svg id="eye"><path stroke="black" stroke-width="1" d="M295.5 180 C295.5 150, 275.5 45, 331.5 45   C397.5 45, 443.5 161, 443.5 180   C443.5 216, 439.5 216, 359.5 216   C295.5 216, 295.5 202, 295.5 180  Z " fill="white"/><path stroke="black" stroke-width="1" d="M204.5 180 C204.5 150, 224.5 45, 168.5 45   C102.5 45, 56.5 161, 56.5 180   C56.5 216, 60.5 216, 140.5 216   C204.5 216, 204.5 202, 204.5 180  Z " fill="white"/><path stroke="black" stroke-width="0" d="M312.5 135 C312.5 115, 322.5 105, 342.5 105   C362.5 105, 372.5 115, 372.5 135   C372.5 155, 362.5 165, 342.5 165   C322.5 165, 312.5 155, 312.5 135  Z " fill="black"/><path stroke="black" stroke-width="0" d="M187.5 135 C187.5 115, 177.5 105, 157.5 105   C137.5 105, 127.5 115, 127.5 135   C127.5 155, 137.5 165, 157.5 165   C177.5 165, 187.5 155, 187.5 135  Z " fill="black"/></svg>

  </svg>