<?xml version="1.0" encoding="UTF-8" standalone="no"?><svg xmlns="http://www.w3.org/2000/svg" id="montage">
    <svg id="ear"/>
    <circle id="countor" stroke="black" cx="250" cy="250" r="200" stroke-width="3" fill="white"/>
    <svg id="mouth"><path stroke="black" stroke-width="1" d="M222.5 344 C236.5 364, 263.5 364, 277.5 344   M222.5 344 C275.5 347, 224.5 347, 277.5 344" fill="white"/></svg>
    <svg id="eye"><path stroke="black" stroke-width="1" d="M239 187 C239 111, 330 78, 395 78   C447 78, 468 146, 468 181   C468 251, 427 242, 363 242   C327 242, 239 261, 239 187  Z " fill="white"/><path stroke="black" stroke-width="1" d="M261 187 C261 111, 170 78, 105 78   C53 78, 32 146, 32 181   C32 251, 73 242, 137 242   C173 242, 261 261, 261 187  Z " fill="white"/><path stroke="black" stroke-width="0" d="M319 167 C319 147, 329 137, 349 137   C369 137, 379 147, 379 167   C379 187, 369 197, 349 197   C329 197, 319 187, 319 167  Z " fill="black"/><path stroke="black" stroke-width="0" d="M181 167 C181 147, 171 137, 151 137   C131 137, 121 147, 121 167   C121 187, 131 197, 151 197   C171 197, 181 187, 181 167  Z " fill="black"/></svg>

  </svg>