<?xml version="1.0" encoding="UTF-8" standalone="no"?><svg xmlns="http://www.w3.org/2000/svg" id="montage">
    <svg id="ear"/>
    <circle id="countor" stroke="black" cx="250" cy="250" r="200" stroke-width="3" fill="white"/>
    <svg id="mouth"><path stroke="black" stroke-width="1" d="M168 350 C212 337, 288 337, 332 350   M168 350 C201 243, 299 243, 332 350" fill="white"/></svg>
    <svg id="eye"><path stroke="black" stroke-width="1" d="M244.5 149 C244.5 139, 298.5 86, 310.5 86   C349.5 86, 442.5 86, 442.5 157   C442.5 181, 421.5 248, 344.5 248   C279.5 248, 244.5 200, 244.5 149  Z " fill="white"/><path stroke="black" stroke-width="1" d="M255.5 149 C255.5 139, 201.5 86, 189.5 86   C150.5 86, 57.5 86, 57.5 157   C57.5 181, 78.5 248, 155.5 248   C220.5 248, 255.5 200, 255.5 149  Z " fill="white"/><path stroke="black" stroke-width="0" d="M319.5 139 C319.5 119, 329.5 109, 349.5 109   C369.5 109, 379.5 119, 379.5 139   C379.5 159, 369.5 169, 349.5 169   C329.5 169, 319.5 159, 319.5 139  Z " fill="black"/><path stroke="black" stroke-width="0" d="M180.5 139 C180.5 119, 170.5 109, 150.5 109   C130.5 109, 120.5 119, 120.5 139   C120.5 159, 130.5 169, 150.5 169   C170.5 169, 180.5 159, 180.5 139  Z " fill="black"/></svg>

  </svg>