<?xml version="1.0" encoding="UTF-8" standalone="no"?><svg xmlns="http://www.w3.org/2000/svg" id="montage">
    <svg id="ear"/>
    <circle id="countor" stroke="black" cx="250" cy="250" r="200" stroke-width="3" fill="white"/>
    <svg id="mouth"><path stroke="black" stroke-width="1" d="M199.5 411 C186.5 373, 313.5 373, 300.5 411   M199.5 411 C234.5 417, 265.5 417, 300.5 411" fill="white"/></svg>
    <svg id="eye"><path stroke="black" stroke-width="1" d="M228.5 201 C228.5 134, 323.5 160, 350.5 160   C414.5 160, 425.5 145, 425.5 185   C425.5 241, 312.5 312, 298.5 312   C256.5 312, 228.5 265, 228.5 201  Z " fill="white"/><path stroke="black" stroke-width="1" d="M271.5 201 C271.5 134, 176.5 160, 149.5 160   C85.5 160, 74.5 145, 74.5 185   C74.5 241, 187.5 312, 201.5 312   C243.5 312, 271.5 265, 271.5 201  Z " fill="white"/><path stroke="black" stroke-width="0" d="M314.5 197 C314.5 177, 324.5 167, 344.5 167   C364.5 167, 374.5 177, 374.5 197   C374.5 217, 364.5 227, 344.5 227   C324.5 227, 314.5 217, 314.5 197  Z " fill="black"/><path stroke="black" stroke-width="0" d="M185.5 197 C185.5 177, 175.5 167, 155.5 167   C135.5 167, 125.5 177, 125.5 197   C125.5 217, 135.5 227, 155.5 227   C175.5 227, 185.5 217, 185.5 197  Z " fill="black"/></svg>

  </svg>