<?xml version="1.0" encoding="UTF-8" standalone="no"?><svg xmlns="http://www.w3.org/2000/svg" id="montage">
    <svg id="ear"/>
    <circle id="countor" stroke="black" cx="250" cy="250" r="200" stroke-width="3" fill="white"/>
    <svg id="mouth"><path stroke="black" stroke-width="1" d="M174 281 C216 232, 284 232, 326 281   M174 281 C314 386, 186 386, 326 281" fill="white"/></svg>
    <svg id="eye"><path stroke="black" stroke-width="1" d="M262.5 246 C262.5 166, 291.5 156, 312.5 156   C342.5 156, 399.5 179, 399.5 222   C399.5 238, 382.5 294, 345.5 294   C276.5 294, 262.5 273, 262.5 246  Z " fill="white"/><path stroke="black" stroke-width="1" d="M237.5 246 C237.5 166, 208.5 156, 187.5 156   C157.5 156, 100.5 179, 100.5 222   C100.5 238, 117.5 294, 154.5 294   C223.5 294, 237.5 273, 237.5 246  Z " fill="white"/><path stroke="black" stroke-width="0" d="M314.5 212 C314.5 192, 324.5 182, 344.5 182   C364.5 182, 374.5 192, 374.5 212   C374.5 232, 364.5 242, 344.5 242   C324.5 242, 314.5 232, 314.5 212  Z " fill="black"/><path stroke="black" stroke-width="0" d="M185.5 212 C185.5 192, 175.5 182, 155.5 182   C135.5 182, 125.5 192, 125.5 212   C125.5 232, 135.5 242, 155.5 242   C175.5 242, 185.5 232, 185.5 212  Z " fill="black"/></svg>

  </svg>