<?xml version="1.0" encoding="UTF-8" standalone="no"?><svg xmlns="http://www.w3.org/2000/svg" id="montage">
    <svg id="ear"/>
    <circle id="countor" stroke="black" cx="250" cy="250" r="200" stroke-width="3" fill="white"/>
    <svg id="mouth"><path stroke="black" stroke-width="1" d="M225 408 C261 363, 239 363, 275 408   M225 408 C254 498, 246 498, 275 408" fill="white"/></svg>
    <svg id="eye"><path stroke="black" stroke-width="1" d="M239.5 183 C239.5 118, 290.5 45, 332.5 45   C381.5 45, 449.5 141, 449.5 201   C449.5 266, 410.5 240, 348.5 240   C298.5 240, 239.5 209, 239.5 183  Z " fill="white"/><path stroke="black" stroke-width="1" d="M260.5 183 C260.5 118, 209.5 45, 167.5 45   C118.5 45, 50.5 141, 50.5 201   C50.5 266, 89.5 240, 151.5 240   C201.5 240, 260.5 209, 260.5 183  Z " fill="white"/><path stroke="black" stroke-width="0" d="M317.5 162 C317.5 142, 327.5 132, 347.5 132   C367.5 132, 377.5 142, 377.5 162   C377.5 182, 367.5 192, 347.5 192   C327.5 192, 317.5 182, 317.5 162  Z " fill="black"/><path stroke="black" stroke-width="0" d="M182.5 162 C182.5 142, 172.5 132, 152.5 132   C132.5 132, 122.5 142, 122.5 162   C122.5 182, 132.5 192, 152.5 192   C172.5 192, 182.5 182, 182.5 162  Z " fill="black"/></svg>

  </svg>