<?xml version="1.0" encoding="UTF-8" standalone="no"?><svg xmlns="http://www.w3.org/2000/svg" id="montage">
    <svg id="ear"><path stroke="black" stroke-width="1" d="M441.2609511926071 191.52565905545265 C473.2609511926071 334.52565905545265, 636.1851652578137 360.23619097949586, 443.18516525781365 198.23619097949586   " fill="white"/><path stroke="black" stroke-width="1" d="M58.73904880739292 191.52565905545265 C26.73904880739292 334.52565905545265, -136.18516525781365 360.23619097949586, 56.81483474218635 198.23619097949586   " fill="white"/></svg>
    <circle id="countor" stroke="black" cx="250" cy="250" r="200" stroke-width="3" fill="white"/>
    <svg id="mouth"><path stroke="black" stroke-width="1" d="M179.5 375 C142.5 402, 357.5 402, 320.5 375   M179.5 375 C92.5 423, 407.5 423, 320.5 375" fill="white"/></svg>
    <svg id="eye"><path stroke="black" stroke-width="1" d="M256 179 C256 167, 246 76, 300 76   C372 76, 421 71, 421 142   C421 194, 405 234, 358 234   C340 234, 256 227, 256 179  Z " fill="white"/><path stroke="black" stroke-width="1" d="M244 179 C244 167, 254 76, 200 76   C128 76, 79 71, 79 142   C79 194, 95 234, 142 234   C160 234, 244 227, 244 179  Z " fill="white"/><path stroke="black" stroke-width="0" d="M314 148 C314 128, 324 118, 344 118   C364 118, 374 128, 374 148   C374 168, 364 178, 344 178   C324 178, 314 168, 314 148  Z " fill="black"/><path stroke="black" stroke-width="0" d="M186 148 C186 128, 176 118, 156 118   C136 118, 126 128, 126 148   C126 168, 136 178, 156 178   C176 178, 186 168, 186 148  Z " fill="black"/></svg>

  </svg>