<?xml version="1.0" encoding="UTF-8" standalone="no"?><svg xmlns="http://www.w3.org/2000/svg" id="montage">
    <svg id="ear"><path stroke="black" stroke-width="1" d="M353.00761498201086 78.56653985957755 C489.00761498201086 90.56653985957755, 571.9695390312783 395.4904812874567, 449.96953903127826 253.4904812874567   " fill="white"/><path stroke="black" stroke-width="1" d="M146.99238501798914 78.56653985957755 C10.992385017989136 90.56653985957755, -71.96953903127826 395.4904812874567, 50.03046096872174 253.4904812874567   " fill="white"/></svg>
    <circle id="countor" stroke="black" cx="250" cy="250" r="200" stroke-width="3" fill="white"/>
    <svg id="mouth"><path stroke="black" stroke-width="1" d="M175 310 C213 289, 287 289, 325 310   M175 310 C120 214, 380 214, 325 310" fill="white"/></svg>
    <svg id="eye"><path stroke="black" stroke-width="1" d="M249.5 233 C249.5 194, 307.5 160, 332.5 160   C395.5 160, 426.5 209, 426.5 237   C426.5 294, 423.5 315, 388.5 315   C316.5 315, 249.5 297, 249.5 233  Z " fill="white"/><path stroke="black" stroke-width="1" d="M250.5 233 C250.5 194, 192.5 160, 167.5 160   C104.5 160, 73.5 209, 73.5 237   C73.5 294, 76.5 315, 111.5 315   C183.5 315, 250.5 297, 250.5 233  Z " fill="white"/><path stroke="black" stroke-width="0" d="M311.5 230 C311.5 210, 321.5 200, 341.5 200   C361.5 200, 371.5 210, 371.5 230   C371.5 250, 361.5 260, 341.5 260   C321.5 260, 311.5 250, 311.5 230  Z " fill="black"/><path stroke="black" stroke-width="0" d="M188.5 230 C188.5 210, 178.5 200, 158.5 200   C138.5 200, 128.5 210, 128.5 230   C128.5 250, 138.5 260, 158.5 260   C178.5 260, 188.5 250, 188.5 230  Z " fill="black"/></svg>

  </svg>