<?xml version="1.0" encoding="UTF-8" standalone="no"?><svg xmlns="http://www.w3.org/2000/svg" id="montage">
    <svg id="ear"><path stroke="black" stroke-width="1" d="M446.9615506024416 215.27036446661393 C470.9615506024416 30.270364466613927, 524.9239414278792 222.9619240492674, 424.9239414278792 346.9619240492674   " fill="white"/><path stroke="black" stroke-width="1" d="M53.038449397558395 215.27036446661393 C29.038449397558395 30.270364466613927, -24.923941427879157 222.9619240492674, 75.07605857212084 346.9619240492674   " fill="white"/></svg>
    <circle id="countor" stroke="black" cx="250" cy="250" r="200" stroke-width="3" fill="white"/>
    <svg id="mouth"><path stroke="black" stroke-width="1" d="M149 330 C163 344, 337 344, 351 330   M149 330 C84 334, 416 334, 351 330" fill="white"/></svg>
    <svg id="eye"><path stroke="black" stroke-width="1" d="M232.5 142 C232.5 90, 267.5 77, 330.5 77   C362.5 77, 461.5 125, 461.5 160   C461.5 176, 454.5 222, 383.5 222   C327.5 222, 232.5 165, 232.5 142  Z " fill="white"/><path stroke="black" stroke-width="1" d="M267.5 142 C267.5 90, 232.5 77, 169.5 77   C137.5 77, 38.5 125, 38.5 160   C38.5 176, 45.5 222, 116.5 222   C172.5 222, 267.5 165, 267.5 142  Z " fill="white"/><path stroke="black" stroke-width="0" d="M319.5 135 C319.5 115, 329.5 105, 349.5 105   C369.5 105, 379.5 115, 379.5 135   C379.5 155, 369.5 165, 349.5 165   C329.5 165, 319.5 155, 319.5 135  Z " fill="black"/><path stroke="black" stroke-width="0" d="M180.5 135 C180.5 115, 170.5 105, 150.5 105   C130.5 105, 120.5 115, 120.5 135   C120.5 155, 130.5 165, 150.5 165   C170.5 165, 180.5 155, 180.5 135  Z " fill="black"/></svg>

  </svg>