<?xml version="1.0" encoding="UTF-8" standalone="no"?><svg xmlns="http://www.w3.org/2000/svg" id="montage">
    <svg id="ear"/>
    <circle id="countor" stroke="black" cx="250" cy="250" r="200" stroke-width="3" fill="white"/>
    <svg id="mouth"><path stroke="black" stroke-width="1" d="M193 367 C167 390, 333 390, 307 367   M193 367 C132 491, 368 491, 307 367" fill="white"/></svg>
    <svg id="eye"><path stroke="black" stroke-width="1" d="M276.5 159 C276.5 117, 245.5 67, 303.5 67   C376.5 67, 463.5 83, 463.5 131   C463.5 206, 420.5 248, 390.5 248   C317.5 248, 276.5 229, 276.5 159  Z " fill="white"/><path stroke="black" stroke-width="1" d="M223.5 159 C223.5 117, 254.5 67, 196.5 67   C123.5 67, 36.5 83, 36.5 131   C36.5 206, 79.5 248, 109.5 248   C182.5 248, 223.5 229, 223.5 159  Z " fill="white"/><path stroke="black" stroke-width="0" d="M316.5 177 C316.5 157, 326.5 147, 346.5 147   C366.5 147, 376.5 157, 376.5 177   C376.5 197, 366.5 207, 346.5 207   C326.5 207, 316.5 197, 316.5 177  Z " fill="black"/><path stroke="black" stroke-width="0" d="M183.5 177 C183.5 157, 173.5 147, 153.5 147   C133.5 147, 123.5 157, 123.5 177   C123.5 197, 133.5 207, 153.5 207   C173.5 207, 183.5 197, 183.5 177  Z " fill="black"/></svg>

  </svg>