<?xml version="1.0" encoding="UTF-8" standalone="no"?><svg xmlns="http://www.w3.org/2000/svg" id="montage">
    <svg id="ear"><path stroke="black" stroke-width="1" d="M364.7152872702092 86.16959114220165 C446.7152872702092 84.16959114220165, 587.7090915285202 431.34732861516, 432.70909152852016 331.34732861516   " fill="white"/><path stroke="black" stroke-width="1" d="M135.28471272979078 86.16959114220165 C53.28471272979078 84.16959114220165, -87.70909152852016 431.34732861516, 67.29090847147984 331.34732861516   " fill="white"/></svg>
    <circle id="countor" stroke="black" cx="250" cy="250" r="200" stroke-width="3" fill="white"/>
    <svg id="mouth"><path stroke="black" stroke-width="1" d="M183.5 345 C163.5 296, 336.5 296, 316.5 345   M183.5 345 C74.5 257, 425.5 257, 316.5 345" fill="white"/></svg>
    <svg id="eye"><path stroke="black" stroke-width="1" d="M229 155 C229 99, 269 119, 318 119   C345 119, 410 83, 410 157   C410 206, 329 293, 304 293   C226 293, 229 220, 229 155  Z " fill="white"/><path stroke="black" stroke-width="1" d="M271 155 C271 99, 231 119, 182 119   C155 119, 90 83, 90 157   C90 206, 171 293, 196 293   C274 293, 271 220, 271 155  Z " fill="white"/><path stroke="black" stroke-width="0" d="M316 175 C316 155, 326 145, 346 145   C366 145, 376 155, 376 175   C376 195, 366 205, 346 205   C326 205, 316 195, 316 175  Z " fill="black"/><path stroke="black" stroke-width="0" d="M184 175 C184 155, 174 145, 154 145   C134 145, 124 155, 124 175   C124 195, 134 205, 154 205   C174 205, 184 195, 184 175  Z " fill="black"/></svg>

  </svg>