<?xml version="1.0" encoding="UTF-8" standalone="no"?><svg xmlns="http://www.w3.org/2000/svg" id="montage">
    <svg id="ear"><path stroke="black" stroke-width="1" d="M353.00761498201086 78.56653985957755 C403.00761498201086 182.56653985957755, 513.8640782099675 25.570807708605855, 375.8640782099675 94.57080770860586   " fill="white"/><path stroke="black" stroke-width="1" d="M146.99238501798914 78.56653985957755 C96.99238501798914 182.56653985957755, -13.864078209967502 25.570807708605855, 124.1359217900325 94.57080770860586   " fill="white"/></svg>
    <circle id="countor" stroke="black" cx="250" cy="250" r="200" stroke-width="3" fill="white"/>
    <svg id="mouth"><path stroke="black" stroke-width="1" d="M171.5 370 C127.5 349, 372.5 349, 328.5 370   M171.5 370 C111.5 237, 388.5 237, 328.5 370" fill="white"/></svg>
    <svg id="eye"><path stroke="black" stroke-width="1" d="M228.5 238 C228.5 162, 305.5 135, 353.5 135   C419.5 135, 460.5 213, 460.5 244   C460.5 266, 370.5 326, 324.5 326   C277.5 326, 228.5 317, 228.5 238  Z " fill="white"/><path stroke="black" stroke-width="1" d="M271.5 238 C271.5 162, 194.5 135, 146.5 135   C80.5 135, 39.5 213, 39.5 244   C39.5 266, 129.5 326, 175.5 326   C222.5 326, 271.5 317, 271.5 238  Z " fill="white"/><path stroke="black" stroke-width="0" d="M314.5 220 C314.5 200, 324.5 190, 344.5 190   C364.5 190, 374.5 200, 374.5 220   C374.5 240, 364.5 250, 344.5 250   C324.5 250, 314.5 240, 314.5 220  Z " fill="black"/><path stroke="black" stroke-width="0" d="M185.5 220 C185.5 200, 175.5 190, 155.5 190   C135.5 190, 125.5 200, 125.5 220   C125.5 240, 135.5 250, 155.5 250   C175.5 250, 185.5 240, 185.5 220  Z " fill="black"/></svg>

  </svg>