<?xml version="1.0" encoding="UTF-8" standalone="no"?><svg xmlns="http://www.w3.org/2000/svg" id="montage">
    <svg id="ear"><path stroke="black" stroke-width="1" d="M321.67358990906007 63.28391470055965 C517.6735899090601 -3.7160852994403513, 475.7259069509148 388.4671912485888, 449.7259069509148 260.4671912485888   " fill="white"/><path stroke="black" stroke-width="1" d="M178.32641009093993 63.28391470055965 C-17.67358990906007 -3.7160852994403513, 24.274093049085224 388.4671912485888, 50.274093049085224 260.4671912485888   " fill="white"/></svg>
    <circle id="countor" stroke="black" cx="250" cy="250" r="200" stroke-width="3" fill="white"/>
    <svg id="mouth"><path stroke="black" stroke-width="1" d="M125.5 343 C146.5 374, 353.5 374, 374.5 343   M125.5 343 C81.5 457, 418.5 457, 374.5 343" fill="white"/></svg>
    <svg id="eye"><path stroke="black" stroke-width="1" d="M305 220 C305 195, 246 146, 319 146   C399 146, 462 156, 462 231   C462 260, 387 306, 350 306   C324 306, 305 236, 305 220  Z " fill="white"/><path stroke="black" stroke-width="1" d="M195 220 C195 195, 254 146, 181 146   C101 146, 38 156, 38 231   C38 260, 113 306, 150 306   C176 306, 195 236, 195 220  Z " fill="white"/><path stroke="black" stroke-width="0" d="M314 209 C314 189, 324 179, 344 179   C364 179, 374 189, 374 209   C374 229, 364 239, 344 239   C324 239, 314 229, 314 209  Z " fill="black"/><path stroke="black" stroke-width="0" d="M186 209 C186 189, 176 179, 156 179   C136 179, 126 189, 126 209   C126 229, 136 239, 156 239   C176 239, 186 229, 186 209  Z " fill="black"/></svg>

  </svg>