<?xml version="1.0" encoding="UTF-8" standalone="no"?><svg xmlns="http://www.w3.org/2000/svg" id="montage">
    <svg id="ear"/>
    <circle id="countor" stroke="black" cx="250" cy="250" r="200" stroke-width="3" fill="white"/>
    <svg id="mouth"><path stroke="black" stroke-width="1" d="M207 276 C257 304, 243 304, 293 276   M207 276 C357 292, 143 292, 293 276" fill="white"/></svg>
    <svg id="eye"><path stroke="black" stroke-width="1" d="M283.5 132 C283.5 75, 302.5 87, 345.5 87   C381.5 87, 435.5 72, 435.5 126   C435.5 171, 371.5 245, 301.5 245   C288.5 245, 283.5 198, 283.5 132  Z " fill="white"/><path stroke="black" stroke-width="1" d="M216.5 132 C216.5 75, 197.5 87, 154.5 87   C118.5 87, 64.5 72, 64.5 126   C64.5 171, 128.5 245, 198.5 245   C211.5 245, 216.5 198, 216.5 132  Z " fill="white"/><path stroke="black" stroke-width="0" d="M314.5 135 C314.5 115, 324.5 105, 344.5 105   C364.5 105, 374.5 115, 374.5 135   C374.5 155, 364.5 165, 344.5 165   C324.5 165, 314.5 155, 314.5 135  Z " fill="black"/><path stroke="black" stroke-width="0" d="M185.5 135 C185.5 115, 175.5 105, 155.5 105   C135.5 105, 125.5 115, 125.5 135   C125.5 155, 135.5 165, 155.5 165   C175.5 165, 185.5 155, 185.5 135  Z " fill="black"/></svg>

  </svg>