<?xml version="1.0" encoding="UTF-8" standalone="no"?><svg xmlns="http://www.w3.org/2000/svg" id="montage">
    <svg id="ear"/>
    <circle id="countor" stroke="black" cx="250" cy="250" r="200" stroke-width="3" fill="white"/>
    <svg id="mouth"><path stroke="black" stroke-width="1" d="M144 413 C181 386, 319 386, 356 413   M144 413 C29 287, 471 287, 356 413" fill="white"/></svg>
    <svg id="eye"><path stroke="black" stroke-width="1" d="M231 206 C231 163, 339 136, 372 136   C424 136, 454 129, 454 182   C454 219, 469 331, 396 331   C350 331, 231 238, 231 206  Z " fill="white"/><path stroke="black" stroke-width="1" d="M269 206 C269 163, 161 136, 128 136   C76 136, 46 129, 46 182   C46 219, 31 331, 104 331   C150 331, 269 238, 269 206  Z " fill="white"/><path stroke="black" stroke-width="0" d="M318 230 C318 210, 328 200, 348 200   C368 200, 378 210, 378 230   C378 250, 368 260, 348 260   C328 260, 318 250, 318 230  Z " fill="black"/><path stroke="black" stroke-width="0" d="M182 230 C182 210, 172 200, 152 200   C132 200, 122 210, 122 230   C122 250, 132 260, 152 260   C172 260, 182 250, 182 230  Z " fill="black"/></svg>

  </svg>