<?xml version="1.0" encoding="UTF-8" standalone="no"?><svg xmlns="http://www.w3.org/2000/svg" id="montage">
    <svg id="ear"><path stroke="black" stroke-width="1" d="M367.55705045849464 88.19660112501052 C517.5570504584946 226.19660112501052, 601.7090915285202 350.65267138484, 432.70909152852016 168.65267138483998   " fill="white"/><path stroke="black" stroke-width="1" d="M132.44294954150536 88.19660112501052 C-17.557050458494643 226.19660112501052, -101.70909152852016 350.65267138484, 67.29090847147984 168.65267138483998   " fill="white"/></svg>
    <circle id="countor" stroke="black" cx="250" cy="250" r="200" stroke-width="3" fill="white"/>
    <svg id="mouth"><path stroke="black" stroke-width="1" d="M175 393 C139 368, 361 368, 325 393   M175 393 C170 331, 330 331, 325 393" fill="white"/></svg>
    <svg id="eye"><path stroke="black" stroke-width="1" d="M262.5 223 C262.5 161, 290.5 107, 359.5 107   C389.5 107, 398.5 213, 398.5 251   C398.5 304, 344.5 278, 304.5 278   C276.5 278, 262.5 298, 262.5 223  Z " fill="white"/><path stroke="black" stroke-width="1" d="M237.5 223 C237.5 161, 209.5 107, 140.5 107   C110.5 107, 101.5 213, 101.5 251   C101.5 304, 155.5 278, 195.5 278   C223.5 278, 237.5 298, 237.5 223  Z " fill="white"/><path stroke="black" stroke-width="0" d="M316.5 210 C316.5 190, 326.5 180, 346.5 180   C366.5 180, 376.5 190, 376.5 210   C376.5 230, 366.5 240, 346.5 240   C326.5 240, 316.5 230, 316.5 210  Z " fill="black"/><path stroke="black" stroke-width="0" d="M183.5 210 C183.5 190, 173.5 180, 153.5 180   C133.5 180, 123.5 190, 123.5 210   C123.5 230, 133.5 240, 153.5 240   C173.5 240, 183.5 230, 183.5 210  Z " fill="black"/></svg>

  </svg>