<?xml version="1.0" encoding="UTF-8" standalone="no"?><svg xmlns="http://www.w3.org/2000/svg" id="montage">
    <svg id="ear"><path stroke="black" stroke-width="1" d="M409.7271020094586 129.63699536959035 C422.7271020094586 283.63699536959035, 548.5895185717854 -35.89431255717818, 426.5895185717854 156.10568744282182   " fill="white"/><path stroke="black" stroke-width="1" d="M90.27289799054142 129.63699536959035 C77.27289799054142 283.63699536959035, -48.58951857178539 -35.89431255717818, 73.41048142821461 156.10568744282182   " fill="white"/></svg>
    <circle id="countor" stroke="black" cx="250" cy="250" r="200" stroke-width="3" fill="white"/>
    <svg id="mouth"><path stroke="black" stroke-width="1" d="M195.5 381 C236.5 372, 263.5 372, 304.5 381   M195.5 381 C189.5 507, 310.5 507, 304.5 381" fill="white"/></svg>
    <svg id="eye"><path stroke="black" stroke-width="1" d="M304 162 C304 130, 270 56, 324 56   C347 56, 439 139, 439 164   C439 195, 438 279, 373 279   C344 279, 304 226, 304 162  Z " fill="white"/><path stroke="black" stroke-width="1" d="M196 162 C196 130, 230 56, 176 56   C153 56, 61 139, 61 164   C61 195, 62 279, 127 279   C156 279, 196 226, 196 162  Z " fill="white"/><path stroke="black" stroke-width="0" d="M313 171 C313 151, 323 141, 343 141   C363 141, 373 151, 373 171   C373 191, 363 201, 343 201   C323 201, 313 191, 313 171  Z " fill="black"/><path stroke="black" stroke-width="0" d="M187 171 C187 151, 177 141, 157 141   C137 141, 127 151, 127 171   C127 191, 137 201, 157 201   C177 201, 187 191, 187 171  Z " fill="black"/></svg>

  </svg>