<?xml version="1.0" encoding="UTF-8" standalone="no"?><svg xmlns="http://www.w3.org/2000/svg" id="montage">
    <svg id="ear"/>
    <circle id="countor" stroke="black" cx="250" cy="250" r="200" stroke-width="3" fill="white"/>
    <svg id="mouth"><path stroke="black" stroke-width="1" d="M199 407 C171 447, 329 447, 301 407   M199 407 C87 378, 413 378, 301 407" fill="white"/></svg>
    <svg id="eye"><path stroke="black" stroke-width="1" d="M282.5 131 C282.5 78, 328.5 54, 390.5 54   C467.5 54, 402.5 77, 402.5 124   C402.5 198, 371.5 229, 351.5 229   C306.5 229, 282.5 199, 282.5 131  Z " fill="white"/><path stroke="black" stroke-width="1" d="M217.5 131 C217.5 78, 171.5 54, 109.5 54   C32.5 54, 97.5 77, 97.5 124   C97.5 198, 128.5 229, 148.5 229   C193.5 229, 217.5 199, 217.5 131  Z " fill="white"/><path stroke="black" stroke-width="0" d="M318.5 167 C318.5 147, 328.5 137, 348.5 137   C368.5 137, 378.5 147, 378.5 167   C378.5 187, 368.5 197, 348.5 197   C328.5 197, 318.5 187, 318.5 167  Z " fill="black"/><path stroke="black" stroke-width="0" d="M181.5 167 C181.5 147, 171.5 137, 151.5 137   C131.5 137, 121.5 147, 121.5 167   C121.5 187, 131.5 197, 151.5 197   C171.5 197, 181.5 187, 181.5 167  Z " fill="black"/></svg>

  </svg>