<?xml version="1.0" encoding="UTF-8" standalone="no"?><svg xmlns="http://www.w3.org/2000/svg" id="montage">
    <svg id="ear"/>
    <circle id="countor" stroke="black" cx="250" cy="250" r="200" stroke-width="3" fill="white"/>
    <svg id="mouth"><path stroke="black" stroke-width="1" d="M152 293 C118 315, 382 315, 348 293   M152 293 C105 422, 395 422, 348 293" fill="white"/></svg>
    <svg id="eye"><path stroke="black" stroke-width="1" d="M279 107 C279 78, 322 60, 393 60   C472 60, 391 128, 391 153   C391 187, 378 200, 348 200   C304 200, 279 176, 279 107  Z " fill="white"/><path stroke="black" stroke-width="1" d="M221 107 C221 78, 178 60, 107 60   C28 60, 109 128, 109 153   C109 187, 122 200, 152 200   C196 200, 221 176, 221 107  Z " fill="white"/><path stroke="black" stroke-width="0" d="M313 147 C313 127, 323 117, 343 117   C363 117, 373 127, 373 147   C373 167, 363 177, 343 177   C323 177, 313 167, 313 147  Z " fill="black"/><path stroke="black" stroke-width="0" d="M187 147 C187 127, 177 117, 157 117   C137 117, 127 127, 127 147   C127 167, 137 177, 157 177   C177 177, 187 167, 187 147  Z " fill="black"/></svg>

  </svg>