<?xml version="1.0" encoding="UTF-8" standalone="no"?><svg xmlns="http://www.w3.org/2000/svg" id="montage">
    <svg id="ear"><path stroke="black" stroke-width="1" d="M386.3996720124997 103.7292596761659 C518.3996720124997 17.729259676165896, 489.7259069509148 398.53280875141127, 449.7259069509148 239.53280875141124   " fill="white"/><path stroke="black" stroke-width="1" d="M113.6003279875003 103.7292596761659 C-18.399672012499707 17.729259676165896, 10.274093049085224 398.53280875141127, 50.274093049085224 239.53280875141124   " fill="white"/></svg>
    <circle id="countor" stroke="black" cx="250" cy="250" r="200" stroke-width="3" fill="white"/>
    <svg id="mouth"><path stroke="black" stroke-width="1" d="M125.5 411 C141.5 444, 358.5 444, 374.5 411   M125.5 411 C58.5 416, 441.5 416, 374.5 411" fill="white"/></svg>
    <svg id="eye"><path stroke="black" stroke-width="1" d="M298 119 C298 86, 323 43, 390 43   C440 43, 420 83, 420 106   C420 180, 352 231, 342 231   C297 231, 298 155, 298 119  Z " fill="white"/><path stroke="black" stroke-width="1" d="M202 119 C202 86, 177 43, 110 43   C60 43, 80 83, 80 106   C80 180, 148 231, 158 231   C203 231, 202 155, 202 119  Z " fill="white"/><path stroke="black" stroke-width="0" d="M319 147 C319 127, 329 117, 349 117   C369 117, 379 127, 379 147   C379 167, 369 177, 349 177   C329 177, 319 167, 319 147  Z " fill="black"/><path stroke="black" stroke-width="0" d="M181 147 C181 127, 171 117, 151 117   C131 117, 121 127, 121 147   C121 167, 131 177, 151 177   C171 177, 181 167, 181 147  Z " fill="black"/></svg>

  </svg>