<?xml version="1.0" encoding="UTF-8" standalone="no"?><svg xmlns="http://www.w3.org/2000/svg" id="montage">
    <svg id="ear"/>
    <circle id="countor" stroke="black" cx="250" cy="250" r="200" stroke-width="3" fill="white"/>
    <svg id="mouth"><path stroke="black" stroke-width="1" d="M194.5 396 C149.5 413, 350.5 413, 305.5 396   M194.5 396 C299.5 302, 200.5 302, 305.5 396" fill="white"/></svg>
    <svg id="eye"><path stroke="black" stroke-width="1" d="M290 141 C290 108, 312 92, 354 92   C428 92, 439 90, 439 117   C439 154, 405 271, 340 271   C264 271, 290 177, 290 141  Z " fill="white"/><path stroke="black" stroke-width="1" d="M210 141 C210 108, 188 92, 146 92   C72 92, 61 90, 61 117   C61 154, 95 271, 160 271   C236 271, 210 177, 210 141  Z " fill="white"/><path stroke="black" stroke-width="0" d="M317 159 C317 139, 327 129, 347 129   C367 129, 377 139, 377 159   C377 179, 367 189, 347 189   C327 189, 317 179, 317 159  Z " fill="black"/><path stroke="black" stroke-width="0" d="M183 159 C183 139, 173 129, 153 129   C133 129, 123 139, 123 159   C123 179, 133 189, 153 189   C173 189, 183 179, 183 159  Z " fill="black"/></svg>

  </svg>