<?xml version="1.0" encoding="UTF-8" standalone="no"?><svg xmlns="http://www.w3.org/2000/svg" id="montage">
    <svg id="ear"/>
    <circle id="countor" stroke="black" cx="250" cy="250" r="200" stroke-width="3" fill="white"/>
    <svg id="mouth"><path stroke="black" stroke-width="1" d="M190.5 402 C231.5 403, 268.5 403, 309.5 402   M190.5 402 C175.5 532, 324.5 532, 309.5 402" fill="white"/></svg>
    <svg id="eye"><path stroke="black" stroke-width="1" d="M300.5 131 C300.5 63, 278.5 121, 327.5 121   C388.5 121, 444.5 157, 444.5 214   C444.5 271, 374.5 273, 345.5 273   C305.5 273, 300.5 190, 300.5 131  Z " fill="white"/><path stroke="black" stroke-width="1" d="M199.5 131 C199.5 63, 221.5 121, 172.5 121   C111.5 121, 55.5 157, 55.5 214   C55.5 271, 125.5 273, 154.5 273   C194.5 273, 199.5 190, 199.5 131  Z " fill="white"/><path stroke="black" stroke-width="0" d="M310.5 179 C310.5 159, 320.5 149, 340.5 149   C360.5 149, 370.5 159, 370.5 179   C370.5 199, 360.5 209, 340.5 209   C320.5 209, 310.5 199, 310.5 179  Z " fill="black"/><path stroke="black" stroke-width="0" d="M189.5 179 C189.5 159, 179.5 149, 159.5 149   C139.5 149, 129.5 159, 129.5 179   C129.5 199, 139.5 209, 159.5 209   C179.5 209, 189.5 199, 189.5 179  Z " fill="black"/></svg>

  </svg>