<?xml version="1.0" encoding="UTF-8" standalone="no"?><svg xmlns="http://www.w3.org/2000/svg" id="montage">
    <svg id="ear"><path stroke="black" stroke-width="1" d="M308.47434094454735 58.73904880739292 C352.47434094454735 113.73904880739292, 567.4367709133575 133.9213186831824, 435.43677091335746 324.9213186831824   " fill="white"/><path stroke="black" stroke-width="1" d="M191.52565905545265 58.73904880739292 C147.52565905545265 113.73904880739292, -67.43677091335749 133.9213186831824, 64.56322908664251 324.9213186831824   " fill="white"/></svg>
    <circle id="countor" stroke="black" cx="250" cy="250" r="200" stroke-width="3" fill="white"/>
    <svg id="mouth"><path stroke="black" stroke-width="1" d="M132.5 366 C173.5 335, 326.5 335, 367.5 366   M132.5 366 C271.5 286, 228.5 286, 367.5 366" fill="white"/></svg>
    <svg id="eye"><path stroke="black" stroke-width="1" d="M247 165 C247 132, 359 130, 375 130   C410 130, 406 97, 406 174   C406 215, 434 245, 364 245   C322 245, 247 195, 247 165  Z " fill="white"/><path stroke="black" stroke-width="1" d="M253 165 C253 132, 141 130, 125 130   C90 130, 94 97, 94 174   C94 215, 66 245, 136 245   C178 245, 253 195, 253 165  Z " fill="white"/><path stroke="black" stroke-width="0" d="M318 200 C318 180, 328 170, 348 170   C368 170, 378 180, 378 200   C378 220, 368 230, 348 230   C328 230, 318 220, 318 200  Z " fill="black"/><path stroke="black" stroke-width="0" d="M182 200 C182 180, 172 170, 152 170   C132 170, 122 180, 122 200   C122 220, 132 230, 152 230   C172 230, 182 220, 182 200  Z " fill="black"/></svg>

  </svg>