<?xml version="1.0" encoding="UTF-8" standalone="no"?><svg xmlns="http://www.w3.org/2000/svg" id="montage">
    <svg id="ear"><path stroke="black" stroke-width="1" d="M321.67358990906007 63.28391470055965 C341.67358990906007 181.28391470055965, 499.94191604455443 216.78819420189856, 400.94191604455443 118.78819420189856   " fill="white"/><path stroke="black" stroke-width="1" d="M178.32641009093993 63.28391470055965 C158.32641009093993 181.28391470055965, 0.0580839554455963 216.78819420189856, 99.0580839554456 118.78819420189856   " fill="white"/></svg>
    <circle id="countor" stroke="black" cx="250" cy="250" r="200" stroke-width="3" fill="white"/>
    <svg id="mouth"><path stroke="black" stroke-width="1" d="M171.5 411 C180.5 396, 319.5 396, 328.5 411   M171.5 411 C33.5 403, 466.5 403, 328.5 411" fill="white"/></svg>
    <svg id="eye"><path stroke="black" stroke-width="1" d="M265 184 C265 154, 275 34, 353 34   C418 34, 423 87, 423 139   C423 156, 403 201, 391 201   C348 201, 265 252, 265 184  Z " fill="white"/><path stroke="black" stroke-width="1" d="M235 184 C235 154, 225 34, 147 34   C82 34, 77 87, 77 139   C77 156, 97 201, 109 201   C152 201, 235 252, 235 184  Z " fill="white"/><path stroke="black" stroke-width="0" d="M312 146 C312 126, 322 116, 342 116   C362 116, 372 126, 372 146   C372 166, 362 176, 342 176   C322 176, 312 166, 312 146  Z " fill="black"/><path stroke="black" stroke-width="0" d="M188 146 C188 126, 178 116, 158 116   C138 116, 128 126, 128 146   C128 166, 138 176, 158 176   C178 176, 188 166, 188 146  Z " fill="black"/></svg>

  </svg>