<?xml version="1.0" encoding="UTF-8" standalone="no"?><svg xmlns="http://www.w3.org/2000/svg" id="montage">
    <svg id="ear"/>
    <circle id="countor" stroke="black" cx="250" cy="250" r="200" stroke-width="3" fill="white"/>
    <svg id="mouth"><path stroke="black" stroke-width="1" d="M196 344 C170 336, 330 336, 304 344   M196 344 C334 488, 166 488, 304 344" fill="white"/></svg>
    <svg id="eye"><path stroke="black" stroke-width="1" d="M274 130 C274 114, 222 65, 302 65   C340 65, 396 89, 396 119   C396 181, 360 217, 309 217   C296 217, 274 189, 274 130  Z " fill="white"/><path stroke="black" stroke-width="1" d="M226 130 C226 114, 278 65, 198 65   C160 65, 104 89, 104 119   C104 181, 140 217, 191 217   C204 217, 226 189, 226 130  Z " fill="white"/><path stroke="black" stroke-width="0" d="M311 164 C311 144, 321 134, 341 134   C361 134, 371 144, 371 164   C371 184, 361 194, 341 194   C321 194, 311 184, 311 164  Z " fill="black"/><path stroke="black" stroke-width="0" d="M189 164 C189 144, 179 134, 159 134   C139 134, 129 144, 129 164   C129 184, 139 194, 159 194   C179 194, 189 184, 189 164  Z " fill="black"/></svg>

  </svg>