<?xml version="1.0" encoding="UTF-8" standalone="no"?><svg xmlns="http://www.w3.org/2000/svg" id="montage">
    <svg id="ear"><path stroke="black" stroke-width="1" d="M343.8943125571782 73.41048142821464 C374.8943125571782 195.41048142821464, 493.7152872702092 -102.83040885779835, 364.7152872702092 86.16959114220165   " fill="white"/><path stroke="black" stroke-width="1" d="M156.10568744282182 73.41048142821464 C125.10568744282182 195.41048142821464, 6.284712729790783 -102.83040885779835, 135.28471272979078 86.16959114220165   " fill="white"/></svg>
    <circle id="countor" stroke="black" cx="250" cy="250" r="200" stroke-width="3" fill="white"/>
    <svg id="mouth"><path stroke="black" stroke-width="1" d="M164.5 360 C168.5 319, 331.5 319, 335.5 360   M164.5 360 C126.5 256, 373.5 256, 335.5 360" fill="white"/></svg>
    <svg id="eye"><path stroke="black" stroke-width="1" d="M253.5 184 C253.5 114, 280.5 129, 330.5 129   C381.5 129, 447.5 178, 447.5 226   C447.5 248, 385.5 239, 359.5 239   C319.5 239, 253.5 227, 253.5 184  Z " fill="white"/><path stroke="black" stroke-width="1" d="M246.5 184 C246.5 114, 219.5 129, 169.5 129   C118.5 129, 52.5 178, 52.5 226   C52.5 248, 114.5 239, 140.5 239   C180.5 239, 246.5 227, 246.5 184  Z " fill="white"/><path stroke="black" stroke-width="0" d="M317.5 200 C317.5 180, 327.5 170, 347.5 170   C367.5 170, 377.5 180, 377.5 200   C377.5 220, 367.5 230, 347.5 230   C327.5 230, 317.5 220, 317.5 200  Z " fill="black"/><path stroke="black" stroke-width="0" d="M182.5 200 C182.5 180, 172.5 170, 152.5 170   C132.5 170, 122.5 180, 122.5 200   C122.5 220, 132.5 230, 152.5 230   C172.5 230, 182.5 220, 182.5 200  Z " fill="black"/></svg>

  </svg>