<?xml version="1.0" encoding="UTF-8" standalone="no"?><svg xmlns="http://www.w3.org/2000/svg" id="montage">
    <svg id="ear"><path stroke="black" stroke-width="1" d="M448.0536137483141 222.1653798079869 C481.0536137483141 25.16537980798691, 579.1009706904881 216.14622569785473, 434.1009706904881 328.14622569785473   " fill="white"/><path stroke="black" stroke-width="1" d="M51.94638625168594 222.1653798079869 C18.946386251685936 25.16537980798691, -79.10097069048808 216.14622569785473, 65.89902930951192 328.14622569785473   " fill="white"/></svg>
    <circle id="countor" stroke="black" cx="250" cy="250" r="200" stroke-width="3" fill="white"/>
    <svg id="mouth"><path stroke="black" stroke-width="1" d="M127 417 C132 463, 368 463, 373 417   M127 417 C109 559, 391 559, 373 417" fill="white"/></svg>
    <svg id="eye"><path stroke="black" stroke-width="1" d="M299.5 176 C299.5 119, 370.5 72, 380.5 72   C398.5 72, 401.5 158, 401.5 198   C401.5 246, 310.5 245, 299.5 245   C258.5 245, 299.5 207, 299.5 176  Z " fill="white"/><path stroke="black" stroke-width="1" d="M200.5 176 C200.5 119, 129.5 72, 119.5 72   C101.5 72, 98.5 158, 98.5 198   C98.5 246, 189.5 245, 200.5 245   C241.5 245, 200.5 207, 200.5 176  Z " fill="white"/><path stroke="black" stroke-width="0" d="M313.5 170 C313.5 150, 323.5 140, 343.5 140   C363.5 140, 373.5 150, 373.5 170   C373.5 190, 363.5 200, 343.5 200   C323.5 200, 313.5 190, 313.5 170  Z " fill="black"/><path stroke="black" stroke-width="0" d="M186.5 170 C186.5 150, 176.5 140, 156.5 140   C136.5 140, 126.5 150, 126.5 170   C126.5 190, 136.5 200, 156.5 200   C176.5 200, 186.5 190, 186.5 170  Z " fill="black"/></svg>

  </svg>