<?xml version="1.0" encoding="UTF-8" standalone="no"?><svg xmlns="http://www.w3.org/2000/svg" id="montage">
    <svg id="ear"/>
    <circle id="countor" stroke="black" cx="250" cy="250" r="200" stroke-width="3" fill="white"/>
    <svg id="mouth"><path stroke="black" stroke-width="1" d="M131.5 381 C113.5 353, 386.5 353, 368.5 381   M131.5 381 C145.5 275, 354.5 275, 368.5 381" fill="white"/></svg>
    <svg id="eye"><path stroke="black" stroke-width="1" d="M296 145 C296 77, 323 84, 354 84   C406 84, 420 172, 420 199   C420 213, 342 243, 304 243   C230 243, 296 183, 296 145  Z " fill="white"/><path stroke="black" stroke-width="1" d="M204 145 C204 77, 177 84, 146 84   C94 84, 80 172, 80 199   C80 213, 158 243, 196 243   C270 243, 204 183, 204 145  Z " fill="white"/><path stroke="black" stroke-width="0" d="M315 158 C315 138, 325 128, 345 128   C365 128, 375 138, 375 158   C375 178, 365 188, 345 188   C325 188, 315 178, 315 158  Z " fill="black"/><path stroke="black" stroke-width="0" d="M185 158 C185 138, 175 128, 155 128   C135 128, 125 138, 125 158   C125 178, 135 188, 155 188   C175 188, 185 178, 185 158  Z " fill="black"/></svg>

  </svg>