<?xml version="1.0" encoding="UTF-8" standalone="no"?><svg xmlns="http://www.w3.org/2000/svg" id="montage">
    <svg id="ear"/>
    <circle id="countor" stroke="black" cx="250" cy="250" r="200" stroke-width="3" fill="white"/>
    <svg id="mouth"><path stroke="black" stroke-width="1" d="M227 348 C230 391, 270 391, 273 348   M227 348 C169 272, 331 272, 273 348" fill="white"/></svg>
    <svg id="eye"><path stroke="black" stroke-width="1" d="M233.5 118 C233.5 96, 284.5 95, 305.5 95   C343.5 95, 410.5 93, 410.5 146   C410.5 175, 312.5 223, 299.5 223   C287.5 223, 233.5 196, 233.5 118  Z " fill="white"/><path stroke="black" stroke-width="1" d="M266.5 118 C266.5 96, 215.5 95, 194.5 95   C156.5 95, 89.5 93, 89.5 146   C89.5 175, 187.5 223, 200.5 223   C212.5 223, 266.5 196, 266.5 118  Z " fill="white"/><path stroke="black" stroke-width="0" d="M319.5 134 C319.5 114, 329.5 104, 349.5 104   C369.5 104, 379.5 114, 379.5 134   C379.5 154, 369.5 164, 349.5 164   C329.5 164, 319.5 154, 319.5 134  Z " fill="black"/><path stroke="black" stroke-width="0" d="M180.5 134 C180.5 114, 170.5 104, 150.5 104   C130.5 104, 120.5 114, 120.5 134   C120.5 154, 130.5 164, 150.5 164   C170.5 164, 180.5 154, 180.5 134  Z " fill="black"/></svg>

  </svg>