<?xml version="1.0" encoding="UTF-8" standalone="no"?><svg xmlns="http://www.w3.org/2000/svg" id="montage">
    <svg id="ear"><path stroke="black" stroke-width="1" d="M308.47434094454735 58.73904880739292 C437.47434094454735 6.739048807392919, 574.7341135890848 50.0721929969946, 417.7341135890848 141.0721929969946   " fill="white"/><path stroke="black" stroke-width="1" d="M191.52565905545265 58.73904880739292 C62.52565905545265 6.739048807392919, -74.73411358908481 50.0721929969946, 82.26588641091519 141.0721929969946   " fill="white"/></svg>
    <circle id="countor" stroke="black" cx="250" cy="250" r="200" stroke-width="3" fill="white"/>
    <svg id="mouth"><path stroke="black" stroke-width="1" d="M186 304 C141 267, 359 267, 314 304   M186 304 C52 285, 448 285, 314 304" fill="white"/></svg>
    <svg id="eye"><path stroke="black" stroke-width="1" d="M296.5 163 C296.5 130, 305.5 86, 340.5 86   C399.5 86, 434.5 122, 434.5 189   C434.5 204, 383.5 213, 303.5 213   C243.5 213, 296.5 233, 296.5 163  Z " fill="white"/><path stroke="black" stroke-width="1" d="M203.5 163 C203.5 130, 194.5 86, 159.5 86   C100.5 86, 65.5 122, 65.5 189   C65.5 204, 116.5 213, 196.5 213   C256.5 213, 203.5 233, 203.5 163  Z " fill="white"/><path stroke="black" stroke-width="0" d="M315.5 164 C315.5 144, 325.5 134, 345.5 134   C365.5 134, 375.5 144, 375.5 164   C375.5 184, 365.5 194, 345.5 194   C325.5 194, 315.5 184, 315.5 164  Z " fill="black"/><path stroke="black" stroke-width="0" d="M184.5 164 C184.5 144, 174.5 134, 154.5 134   C134.5 134, 124.5 144, 124.5 164   C124.5 184, 134.5 194, 154.5 194   C174.5 194, 184.5 184, 184.5 164  Z " fill="black"/></svg>

  </svg>