<?xml version="1.0" encoding="UTF-8" standalone="no"?><svg xmlns="http://www.w3.org/2000/svg" id="montage">
    <svg id="ear"/>
    <circle id="countor" stroke="black" cx="250" cy="250" r="200" stroke-width="3" fill="white"/>
    <svg id="mouth"><path stroke="black" stroke-width="1" d="M145.5 387 C176.5 391, 323.5 391, 354.5 387   M145.5 387 C85.5 537, 414.5 537, 354.5 387" fill="white"/></svg>
    <svg id="eye"><path stroke="black" stroke-width="1" d="M285.5 100 C285.5 56, 253.5 27, 311.5 27   C348.5 27, 425.5 154, 425.5 193   C425.5 228, 330.5 222, 309.5 222   C258.5 222, 285.5 143, 285.5 100  Z " fill="white"/><path stroke="black" stroke-width="1" d="M214.5 100 C214.5 56, 246.5 27, 188.5 27   C151.5 27, 74.5 154, 74.5 193   C74.5 228, 169.5 222, 190.5 222   C241.5 222, 214.5 143, 214.5 100  Z " fill="white"/><path stroke="black" stroke-width="0" d="M317.5 146 C317.5 126, 327.5 116, 347.5 116   C367.5 116, 377.5 126, 377.5 146   C377.5 166, 367.5 176, 347.5 176   C327.5 176, 317.5 166, 317.5 146  Z " fill="black"/><path stroke="black" stroke-width="0" d="M182.5 146 C182.5 126, 172.5 116, 152.5 116   C132.5 116, 122.5 126, 122.5 146   C122.5 166, 132.5 176, 152.5 176   C172.5 176, 182.5 166, 182.5 146  Z " fill="black"/></svg>

  </svg>