<?xml version="1.0" encoding="UTF-8" standalone="no"?><svg xmlns="http://www.w3.org/2000/svg" id="montage">
    <svg id="ear"><path stroke="black" stroke-width="1" d="M403.2088886237956 121.44247806269215 C570.2088886237956 60.442478062692146, 628.2523391876638 223.12747116339983, 442.2523391876638 305.12747116339983   " fill="white"/><path stroke="black" stroke-width="1" d="M96.79111137620438 121.44247806269215 C-70.20888862379562 60.442478062692146, -128.25233918766378 223.12747116339983, 57.74766081233622 305.12747116339983   " fill="white"/></svg>
    <circle id="countor" stroke="black" cx="250" cy="250" r="200" stroke-width="3" fill="white"/>
    <svg id="mouth"><path stroke="black" stroke-width="1" d="M229.5 272 C235.5 246, 264.5 246, 270.5 272   M229.5 272 C264.5 313, 235.5 313, 270.5 272" fill="white"/></svg>
    <svg id="eye"><path stroke="black" stroke-width="1" d="M238 151 C238 129, 315 14, 366 14   C392 14, 397 112, 397 149   C397 161, 336 177, 325 177   C249 177, 238 224, 238 151  Z " fill="white"/><path stroke="black" stroke-width="1" d="M262 151 C262 129, 185 14, 134 14   C108 14, 103 112, 103 149   C103 161, 164 177, 175 177   C251 177, 262 224, 262 151  Z " fill="white"/><path stroke="black" stroke-width="0" d="M311 130 C311 110, 321 100, 341 100   C361 100, 371 110, 371 130   C371 150, 361 160, 341 160   C321 160, 311 150, 311 130  Z " fill="black"/><path stroke="black" stroke-width="0" d="M189 130 C189 110, 179 100, 159 100   C139 100, 129 110, 129 130   C129 150, 139 160, 159 160   C179 160, 189 150, 189 130  Z " fill="black"/></svg>

  </svg>