<?xml version="1.0" encoding="UTF-8" standalone="no"?><svg xmlns="http://www.w3.org/2000/svg" id="montage">
    <svg id="ear"><path stroke="black" stroke-width="1" d="M449.87816540381914 243.0201006594998 C504.87816540381914 425.0201006594998, 630.0536137483141 219.83462019201306, 448.0536137483141 277.83462019201306   " fill="white"/><path stroke="black" stroke-width="1" d="M50.12183459618086 243.0201006594998 C-4.878165403819139 425.0201006594998, -130.05361374831406 219.83462019201306, 51.94638625168594 277.83462019201306   " fill="white"/></svg>
    <circle id="countor" stroke="black" cx="250" cy="250" r="200" stroke-width="3" fill="white"/>
    <svg id="mouth"><path stroke="black" stroke-width="1" d="M134.5 336 C99.5 319, 400.5 319, 365.5 336   M134.5 336 C134.5 336, 365.5 336, 365.5 336" fill="white"/></svg>
    <svg id="eye"><path stroke="black" stroke-width="1" d="M268.5 196 C268.5 144, 289.5 124, 307.5 124   C348.5 124, 448.5 178, 448.5 247   C448.5 259, 357.5 286, 316.5 286   C289.5 286, 268.5 263, 268.5 196  Z " fill="white"/><path stroke="black" stroke-width="1" d="M231.5 196 C231.5 144, 210.5 124, 192.5 124   C151.5 124, 51.5 178, 51.5 247   C51.5 259, 142.5 286, 183.5 286   C210.5 286, 231.5 263, 231.5 196  Z " fill="white"/><path stroke="black" stroke-width="0" d="M315.5 228 C315.5 208, 325.5 198, 345.5 198   C365.5 198, 375.5 208, 375.5 228   C375.5 248, 365.5 258, 345.5 258   C325.5 258, 315.5 248, 315.5 228  Z " fill="black"/><path stroke="black" stroke-width="0" d="M184.5 228 C184.5 208, 174.5 198, 154.5 198   C134.5 198, 124.5 208, 124.5 228   C124.5 248, 134.5 258, 154.5 258   C174.5 258, 184.5 248, 184.5 228  Z " fill="black"/></svg>

  </svg>