<?xml version="1.0" encoding="UTF-8" standalone="no"?><svg xmlns="http://www.w3.org/2000/svg" id="montage">
    <svg id="ear"/>
    <circle id="countor" stroke="black" cx="250" cy="250" r="200" stroke-width="3" fill="white"/>
    <svg id="mouth"><path stroke="black" stroke-width="1" d="M121.5 318 C124.5 364, 375.5 364, 378.5 318   M121.5 318 C120.5 456, 379.5 456, 378.5 318" fill="white"/></svg>
    <svg id="eye"><path stroke="black" stroke-width="1" d="M294 173 C294 128, 304 104, 335 104   C359 104, 394 85, 394 155   C394 185, 348 232, 338 232   C279 232, 294 232, 294 173  Z " fill="white"/><path stroke="black" stroke-width="1" d="M206 173 C206 128, 196 104, 165 104   C141 104, 106 85, 106 155   C106 185, 152 232, 162 232   C221 232, 206 232, 206 173  Z " fill="white"/><path stroke="black" stroke-width="0" d="M313 190 C313 170, 323 160, 343 160   C363 160, 373 170, 373 190   C373 210, 363 220, 343 220   C323 220, 313 210, 313 190  Z " fill="black"/><path stroke="black" stroke-width="0" d="M187 190 C187 170, 177 160, 157 160   C137 160, 127 170, 127 190   C127 210, 137 220, 157 220   C177 220, 187 210, 187 190  Z " fill="black"/></svg>

  </svg>