<?xml version="1.0" encoding="UTF-8" standalone="no"?><svg xmlns="http://www.w3.org/2000/svg" id="montage">
    <svg id="ear"><path stroke="black" stroke-width="1" d="M370.36300463040965 90.27289799054142 C437.36300463040965 153.27289799054142, 505.6021507213444 271.86770493486836, 407.6021507213444 126.86770493486836   " fill="white"/><path stroke="black" stroke-width="1" d="M129.63699536959035 90.27289799054142 C62.63699536959035 153.27289799054142, -5.602150721344401 271.86770493486836, 92.3978492786556 126.86770493486836   " fill="white"/></svg>
    <circle id="countor" stroke="black" cx="250" cy="250" r="200" stroke-width="3" fill="white"/>
    <svg id="mouth"><path stroke="black" stroke-width="1" d="M204 277 C186 258, 314 258, 296 277   M204 277 C68 189, 432 189, 296 277" fill="white"/></svg>
    <svg id="eye"><path stroke="black" stroke-width="1" d="M264.5 159 C264.5 148, 298.5 75, 329.5 75   C383.5 75, 446.5 125, 446.5 198   C446.5 225, 377.5 201, 325.5 201   C254.5 201, 264.5 233, 264.5 159  Z " fill="white"/><path stroke="black" stroke-width="1" d="M235.5 159 C235.5 148, 201.5 75, 170.5 75   C116.5 75, 53.5 125, 53.5 198   C53.5 225, 122.5 201, 174.5 201   C245.5 201, 235.5 233, 235.5 159  Z " fill="white"/><path stroke="black" stroke-width="0" d="M319.5 155 C319.5 135, 329.5 125, 349.5 125   C369.5 125, 379.5 135, 379.5 155   C379.5 175, 369.5 185, 349.5 185   C329.5 185, 319.5 175, 319.5 155  Z " fill="black"/><path stroke="black" stroke-width="0" d="M180.5 155 C180.5 135, 170.5 125, 150.5 125   C130.5 125, 120.5 135, 120.5 155   C120.5 175, 130.5 185, 150.5 185   C170.5 185, 180.5 175, 180.5 155  Z " fill="black"/></svg>

  </svg>