<?xml version="1.0" encoding="UTF-8" standalone="no"?><svg xmlns="http://www.w3.org/2000/svg" id="montage">
    <svg id="ear"/>
    <circle id="countor" stroke="black" cx="250" cy="250" r="200" stroke-width="3" fill="white"/>
    <svg id="mouth"><path stroke="black" stroke-width="1" d="M164 429 C195 466, 305 466, 336 429   M164 429 C31 406, 469 406, 336 429" fill="white"/></svg>
    <svg id="eye"><path stroke="black" stroke-width="1" d="M279.5 171 C279.5 130, 277.5 68, 307.5 68   C341.5 68, 427.5 119, 427.5 160   C427.5 211, 385.5 261, 318.5 261   C274.5 261, 279.5 247, 279.5 171  Z " fill="white"/><path stroke="black" stroke-width="1" d="M220.5 171 C220.5 130, 222.5 68, 192.5 68   C158.5 68, 72.5 119, 72.5 160   C72.5 211, 114.5 261, 181.5 261   C225.5 261, 220.5 247, 220.5 171  Z " fill="white"/><path stroke="black" stroke-width="0" d="M317.5 176 C317.5 156, 327.5 146, 347.5 146   C367.5 146, 377.5 156, 377.5 176   C377.5 196, 367.5 206, 347.5 206   C327.5 206, 317.5 196, 317.5 176  Z " fill="black"/><path stroke="black" stroke-width="0" d="M182.5 176 C182.5 156, 172.5 146, 152.5 146   C132.5 146, 122.5 156, 122.5 176   C122.5 196, 132.5 206, 152.5 206   C172.5 206, 182.5 196, 182.5 176  Z " fill="black"/></svg>

  </svg>