<?xml version="1.0" encoding="UTF-8" standalone="no"?><svg xmlns="http://www.w3.org/2000/svg" id="montage">
    <svg id="ear"><path stroke="black" stroke-width="1" d="M439.1037151198634 184.88636910856866 C538.1037151198634 149.88636910856866, 554.2609511926071 241.52565905545265, 441.2609511926071 191.52565905545265   " fill="white"/><path stroke="black" stroke-width="1" d="M60.89628488013662 184.88636910856866 C-38.10371511986338 149.88636910856866, -54.26095119260708 241.52565905545265, 58.73904880739292 191.52565905545265   " fill="white"/></svg>
    <circle id="countor" stroke="black" cx="250" cy="250" r="200" stroke-width="3" fill="white"/>
    <svg id="mouth"><path stroke="black" stroke-width="1" d="M137 326 C115 324, 385 324, 363 326   M137 326 C78 209, 422 209, 363 326" fill="white"/></svg>
    <svg id="eye"><path stroke="black" stroke-width="1" d="M226.5 202 C226.5 173, 269.5 123, 307.5 123   C331.5 123, 455.5 97, 455.5 164   C455.5 226, 418.5 274, 352.5 274   C324.5 274, 226.5 259, 226.5 202  Z " fill="white"/><path stroke="black" stroke-width="1" d="M273.5 202 C273.5 173, 230.5 123, 192.5 123   C168.5 123, 44.5 97, 44.5 164   C44.5 226, 81.5 274, 147.5 274   C175.5 274, 273.5 259, 273.5 202  Z " fill="white"/><path stroke="black" stroke-width="0" d="M313.5 184 C313.5 164, 323.5 154, 343.5 154   C363.5 154, 373.5 164, 373.5 184   C373.5 204, 363.5 214, 343.5 214   C323.5 214, 313.5 204, 313.5 184  Z " fill="black"/><path stroke="black" stroke-width="0" d="M186.5 184 C186.5 164, 176.5 154, 156.5 154   C136.5 154, 126.5 164, 126.5 184   C126.5 204, 136.5 214, 156.5 214   C176.5 214, 186.5 204, 186.5 184  Z " fill="black"/></svg>

  </svg>