<?xml version="1.0" encoding="UTF-8" standalone="no"?><svg xmlns="http://www.w3.org/2000/svg" id="montage">
    <svg id="ear"><path stroke="black" stroke-width="1" d="M448.9043790736547 229.0943073464693 C648.9043790736547 131.0943073464693, 567.5128100519648 213.04870525117494, 449.51281005196483 236.04870525117494   " fill="white"/><path stroke="black" stroke-width="1" d="M51.09562092634533 229.0943073464693 C-148.90437907365467 131.0943073464693, -67.51281005196483 213.04870525117494, 50.487189948035166 236.04870525117494   " fill="white"/></svg>
    <circle id="countor" stroke="black" cx="250" cy="250" r="200" stroke-width="3" fill="white"/>
    <svg id="mouth"><path stroke="black" stroke-width="1" d="M150 381 C174 419, 326 419, 350 381   M150 381 C202 390, 298 390, 350 381" fill="white"/></svg>
    <svg id="eye"><path stroke="black" stroke-width="1" d="M275 122 C275 47, 331 70, 387 70   C441 70, 412 75, 412 104   C412 180, 428 195, 379 195   C315 195, 275 135, 275 122  Z " fill="white"/><path stroke="black" stroke-width="1" d="M225 122 C225 47, 169 70, 113 70   C59 70, 88 75, 88 104   C88 180, 72 195, 121 195   C185 195, 225 135, 225 122  Z " fill="white"/><path stroke="black" stroke-width="0" d="M315 146 C315 126, 325 116, 345 116   C365 116, 375 126, 375 146   C375 166, 365 176, 345 176   C325 176, 315 166, 315 146  Z " fill="black"/><path stroke="black" stroke-width="0" d="M185 146 C185 126, 175 116, 155 116   C135 116, 125 126, 125 146   C125 166, 135 176, 155 176   C175 176, 185 166, 185 146  Z " fill="black"/></svg>

  </svg>