<?xml version="1.0" encoding="UTF-8" standalone="no"?><svg xmlns="http://www.w3.org/2000/svg" id="montage">
    <svg id="ear"><path stroke="black" stroke-width="1" d="M298.38437911993356 55.9408547448007 C426.38437911993356 35.9408547448007, 475.71608529944035 235.67358990906007, 436.71608529944035 321.67358990906007   " fill="white"/><path stroke="black" stroke-width="1" d="M201.61562088006642 55.9408547448007 C73.61562088006642 35.9408547448007, 24.28391470055965 235.67358990906007, 63.28391470055965 321.67358990906007   " fill="white"/></svg>
    <circle id="countor" stroke="black" cx="250" cy="250" r="200" stroke-width="3" fill="white"/>
    <svg id="mouth"><path stroke="black" stroke-width="1" d="M172 337 C218 328, 282 328, 328 337   M172 337 C303 315, 197 315, 328 337" fill="white"/></svg>
    <svg id="eye"><path stroke="black" stroke-width="1" d="M278 223 C278 174, 326 151, 357 151   C411 151, 431 193, 431 249   C431 303, 336 292, 324 292   C280 292, 278 255, 278 223  Z " fill="white"/><path stroke="black" stroke-width="1" d="M222 223 C222 174, 174 151, 143 151   C89 151, 69 193, 69 249   C69 303, 164 292, 176 292   C220 292, 222 255, 222 223  Z " fill="white"/><path stroke="black" stroke-width="0" d="M311 220 C311 200, 321 190, 341 190   C361 190, 371 200, 371 220   C371 240, 361 250, 341 250   C321 250, 311 240, 311 220  Z " fill="black"/><path stroke="black" stroke-width="0" d="M189 220 C189 200, 179 190, 159 190   C139 190, 129 200, 129 220   C129 240, 139 250, 159 250   C179 250, 189 240, 189 220  Z " fill="black"/></svg>

  </svg>