<?xml version="1.0" encoding="UTF-8" standalone="no"?><svg xmlns="http://www.w3.org/2000/svg" id="montage">
    <svg id="ear"><path stroke="black" stroke-width="1" d="M375.8640782099675 94.57080770860586 C480.8640782099675 -96.42919229139414, 625.8740129570471 258.00978913122697, 444.87401295704706 205.009789131227   " fill="white"/><path stroke="black" stroke-width="1" d="M124.1359217900325 94.57080770860586 C19.135921790032498 -96.42919229139414, -125.87401295704706 258.00978913122697, 55.12598704295294 205.009789131227   " fill="white"/></svg>
    <circle id="countor" stroke="black" cx="250" cy="250" r="200" stroke-width="3" fill="white"/>
    <svg id="mouth"><path stroke="black" stroke-width="1" d="M121.5 345 C87.5 317, 412.5 317, 378.5 345   M121.5 345 C67.5 383, 432.5 383, 378.5 345" fill="white"/></svg>
    <svg id="eye"><path stroke="black" stroke-width="1" d="M244.5 189 C244.5 126, 259.5 83, 334.5 83   C358.5 83, 411.5 177, 411.5 205   C411.5 256, 375.5 284, 354.5 284   C320.5 284, 244.5 205, 244.5 189  Z " fill="white"/><path stroke="black" stroke-width="1" d="M255.5 189 C255.5 126, 240.5 83, 165.5 83   C141.5 83, 88.5 177, 88.5 205   C88.5 256, 124.5 284, 145.5 284   C179.5 284, 255.5 205, 255.5 189  Z " fill="white"/><path stroke="black" stroke-width="0" d="M318.5 201 C318.5 181, 328.5 171, 348.5 171   C368.5 171, 378.5 181, 378.5 201   C378.5 221, 368.5 231, 348.5 231   C328.5 231, 318.5 221, 318.5 201  Z " fill="black"/><path stroke="black" stroke-width="0" d="M181.5 201 C181.5 181, 171.5 171, 151.5 171   C131.5 171, 121.5 181, 121.5 201   C121.5 221, 131.5 231, 151.5 231   C171.5 231, 181.5 221, 181.5 201  Z " fill="black"/></svg>

  </svg>