<?xml version="1.0" encoding="UTF-8" standalone="no"?><svg xmlns="http://www.w3.org/2000/svg" id="montage">
    <svg id="ear"><path stroke="black" stroke-width="1" d="M378.5575219373079 96.79111137620438 C531.5575219373079 -50.208888623795616, 411.3996720124997 17.729259676165896, 386.3996720124997 103.7292596761659   " fill="white"/><path stroke="black" stroke-width="1" d="M121.44247806269212 96.79111137620438 C-31.557521937307882 -50.208888623795616, 88.6003279875003 17.729259676165896, 113.6003279875003 103.7292596761659   " fill="white"/></svg>
    <circle id="countor" stroke="black" cx="250" cy="250" r="200" stroke-width="3" fill="white"/>
    <svg id="mouth"><path stroke="black" stroke-width="1" d="M192.5 426 C231.5 448, 268.5 448, 307.5 426   M192.5 426 C310.5 379, 189.5 379, 307.5 426" fill="white"/></svg>
    <svg id="eye"><path stroke="black" stroke-width="1" d="M229.5 158 C229.5 82, 241.5 108, 294.5 108   C330.5 108, 409.5 157, 409.5 174   C409.5 220, 422.5 238, 358.5 238   C321.5 238, 229.5 229, 229.5 158  Z " fill="white"/><path stroke="black" stroke-width="1" d="M270.5 158 C270.5 82, 258.5 108, 205.5 108   C169.5 108, 90.5 157, 90.5 174   C90.5 220, 77.5 238, 141.5 238   C178.5 238, 270.5 229, 270.5 158  Z " fill="white"/><path stroke="black" stroke-width="0" d="M311.5 153 C311.5 133, 321.5 123, 341.5 123   C361.5 123, 371.5 133, 371.5 153   C371.5 173, 361.5 183, 341.5 183   C321.5 183, 311.5 173, 311.5 153  Z " fill="black"/><path stroke="black" stroke-width="0" d="M188.5 153 C188.5 133, 178.5 123, 158.5 123   C138.5 123, 128.5 133, 128.5 153   C128.5 173, 138.5 183, 158.5 183   C178.5 183, 188.5 173, 188.5 153  Z " fill="black"/></svg>

  </svg>