<?xml version="1.0" encoding="UTF-8" standalone="no"?><svg xmlns="http://www.w3.org/2000/svg" id="montage">
    <svg id="ear"><path stroke="black" stroke-width="1" d="M447.53766811902756 218.71310699195382 C574.5376681190276 363.71310699195385, 548.9385241571817 459.40402866513375, 437.9385241571817 318.40402866513375   " fill="white"/><path stroke="black" stroke-width="1" d="M52.46233188097244 218.71310699195382 C-74.53766811902756 363.71310699195385, -48.93852415718169 459.40402866513375, 62.06147584281831 318.40402866513375   " fill="white"/></svg>
    <circle id="countor" stroke="black" cx="250" cy="250" r="200" stroke-width="3" fill="white"/>
    <svg id="mouth"><path stroke="black" stroke-width="1" d="M218 305 C190 325, 310 325, 282 305   M218 305 C255 191, 245 191, 282 305" fill="white"/></svg>
    <svg id="eye"><path stroke="black" stroke-width="1" d="M277.5 208 C277.5 170, 290.5 52, 351.5 52   C416.5 52, 427.5 73, 427.5 147   C427.5 168, 391.5 221, 366.5 221   C292.5 221, 277.5 284, 277.5 208  Z " fill="white"/><path stroke="black" stroke-width="1" d="M222.5 208 C222.5 170, 209.5 52, 148.5 52   C83.5 52, 72.5 73, 72.5 147   C72.5 168, 108.5 221, 133.5 221   C207.5 221, 222.5 284, 222.5 208  Z " fill="white"/><path stroke="black" stroke-width="0" d="M318.5 161 C318.5 141, 328.5 131, 348.5 131   C368.5 131, 378.5 141, 378.5 161   C378.5 181, 368.5 191, 348.5 191   C328.5 191, 318.5 181, 318.5 161  Z " fill="black"/><path stroke="black" stroke-width="0" d="M181.5 161 C181.5 141, 171.5 131, 151.5 131   C131.5 131, 121.5 141, 121.5 161   C121.5 181, 131.5 191, 151.5 191   C171.5 191, 181.5 181, 181.5 161  Z " fill="black"/></svg>

  </svg>