<?xml version="1.0" encoding="UTF-8" standalone="no"?><svg xmlns="http://www.w3.org/2000/svg" id="montage">
    <svg id="ear"><path stroke="black" stroke-width="1" d="M449.23893961834915 232.56885145046837 C634.2389396183491 89.56885145046837, 548.2523391876638 253.12747116339983, 442.2523391876638 305.12747116339983   " fill="white"/><path stroke="black" stroke-width="1" d="M50.76106038165088 232.56885145046837 C-134.23893961834912 89.56885145046837, -48.25233918766378 253.12747116339983, 57.74766081233622 305.12747116339983   " fill="white"/></svg>
    <circle id="countor" stroke="black" cx="250" cy="250" r="200" stroke-width="3" fill="white"/>
    <svg id="mouth"><path stroke="black" stroke-width="1" d="M131 419 C113 456, 387 456, 369 419   M131 419 C-7 477, 507 477, 369 419" fill="white"/></svg>
    <svg id="eye"><path stroke="black" stroke-width="1" d="M295 195 C295 144, 355 126, 384 126   C460 126, 415 215, 415 238   C415 257, 361 281, 301 281   C228 281, 295 210, 295 195  Z " fill="white"/><path stroke="black" stroke-width="1" d="M205 195 C205 144, 145 126, 116 126   C40 126, 85 215, 85 238   C85 257, 139 281, 199 281   C272 281, 205 210, 205 195  Z " fill="white"/><path stroke="black" stroke-width="0" d="M313 192 C313 172, 323 162, 343 162   C363 162, 373 172, 373 192   C373 212, 363 222, 343 222   C323 222, 313 212, 313 192  Z " fill="black"/><path stroke="black" stroke-width="0" d="M187 192 C187 172, 177 162, 157 162   C137 162, 127 172, 127 192   C127 212, 137 222, 157 222   C177 222, 187 212, 187 192  Z " fill="black"/></svg>

  </svg>