<?xml version="1.0" encoding="UTF-8" standalone="no"?><svg xmlns="http://www.w3.org/2000/svg" id="montage">
    <svg id="ear"><path stroke="black" stroke-width="1" d="M358.92780700300546 82.26588641091521 C468.92780700300546 66.26588641091521, 464.4334601404224 -6.0076149820108355, 421.4334601404224 146.99238501798916   " fill="white"/><path stroke="black" stroke-width="1" d="M141.07219299699454 82.26588641091521 C31.072192996994545 66.26588641091521, 35.566539859577546 -6.0076149820108355, 78.56653985957755 146.99238501798916   " fill="white"/></svg>
    <circle id="countor" stroke="black" cx="250" cy="250" r="200" stroke-width="3" fill="white"/>
    <svg id="mouth"><path stroke="black" stroke-width="1" d="M122.5 326 C157.5 315, 342.5 315, 377.5 326   M122.5 326 C234.5 310, 265.5 310, 377.5 326" fill="white"/></svg>
    <svg id="eye"><path stroke="black" stroke-width="1" d="M292.5 169 C292.5 159, 317.5 85, 363.5 85   C395.5 85, 410.5 168, 410.5 191   C410.5 243, 392.5 210, 372.5 210   C319.5 210, 292.5 246, 292.5 169  Z " fill="white"/><path stroke="black" stroke-width="1" d="M207.5 169 C207.5 159, 182.5 85, 136.5 85   C104.5 85, 89.5 168, 89.5 191   C89.5 243, 107.5 210, 127.5 210   C180.5 210, 207.5 246, 207.5 169  Z " fill="white"/><path stroke="black" stroke-width="0" d="M318.5 146 C318.5 126, 328.5 116, 348.5 116   C368.5 116, 378.5 126, 378.5 146   C378.5 166, 368.5 176, 348.5 176   C328.5 176, 318.5 166, 318.5 146  Z " fill="black"/><path stroke="black" stroke-width="0" d="M181.5 146 C181.5 126, 171.5 116, 151.5 116   C131.5 116, 121.5 126, 121.5 146   C121.5 166, 131.5 176, 151.5 176   C171.5 176, 181.5 166, 181.5 146  Z " fill="black"/></svg>

  </svg>