<?xml version="1.0" encoding="UTF-8" standalone="no"?><svg xmlns="http://www.w3.org/2000/svg" id="montage">
    <svg id="ear"/>
    <circle id="countor" stroke="black" cx="250" cy="250" r="200" stroke-width="3" fill="white"/>
    <svg id="mouth"><path stroke="black" stroke-width="1" d="M206.5 422 C167.5 414, 332.5 414, 293.5 422   M206.5 422 C312.5 305, 187.5 305, 293.5 422" fill="white"/></svg>
    <svg id="eye"><path stroke="black" stroke-width="1" d="M258.5 187 C258.5 172, 314.5 116, 350.5 116   C389.5 116, 417.5 123, 417.5 181   C417.5 247, 438.5 265, 370.5 265   C351.5 265, 258.5 264, 258.5 187  Z " fill="white"/><path stroke="black" stroke-width="1" d="M241.5 187 C241.5 172, 185.5 116, 149.5 116   C110.5 116, 82.5 123, 82.5 181   C82.5 247, 61.5 265, 129.5 265   C148.5 265, 241.5 264, 241.5 187  Z " fill="white"/><path stroke="black" stroke-width="0" d="M316.5 186 C316.5 166, 326.5 156, 346.5 156   C366.5 156, 376.5 166, 376.5 186   C376.5 206, 366.5 216, 346.5 216   C326.5 216, 316.5 206, 316.5 186  Z " fill="black"/><path stroke="black" stroke-width="0" d="M183.5 186 C183.5 166, 173.5 156, 153.5 156   C133.5 156, 123.5 166, 123.5 186   C123.5 206, 133.5 216, 153.5 216   C173.5 216, 183.5 206, 183.5 186  Z " fill="black"/></svg>

  </svg>