<?xml version="1.0" encoding="UTF-8" standalone="no"?><svg xmlns="http://www.w3.org/2000/svg" id="montage">
    <svg id="ear"><path stroke="black" stroke-width="1" d="M343.8943125571782 73.41048142821464 C361.8943125571782 203.41048142821464, 484.4334601404224 -24.007614982010836, 421.4334601404224 146.99238501798916   " fill="white"/><path stroke="black" stroke-width="1" d="M156.10568744282182 73.41048142821464 C138.10568744282182 203.41048142821464, 15.566539859577546 -24.007614982010836, 78.56653985957755 146.99238501798916   " fill="white"/></svg>
    <circle id="countor" stroke="black" cx="250" cy="250" r="200" stroke-width="3" fill="white"/>
    <svg id="mouth"><path stroke="black" stroke-width="1" d="M198.5 299 C225.5 265, 274.5 265, 301.5 299   M198.5 299 C159.5 377, 340.5 377, 301.5 299" fill="white"/></svg>
    <svg id="eye"><path stroke="black" stroke-width="1" d="M284 166 C284 97, 365 43, 396 43   C421 43, 438 173, 438 184   C438 227, 404 247, 368 247   C326 247, 284 245, 284 166  Z " fill="white"/><path stroke="black" stroke-width="1" d="M216 166 C216 97, 135 43, 104 43   C79 43, 62 173, 62 184   C62 227, 96 247, 132 247   C174 247, 216 245, 216 166  Z " fill="white"/><path stroke="black" stroke-width="0" d="M317 153 C317 133, 327 123, 347 123   C367 123, 377 133, 377 153   C377 173, 367 183, 347 183   C327 183, 317 173, 317 153  Z " fill="black"/><path stroke="black" stroke-width="0" d="M183 153 C183 133, 173 123, 153 123   C133 123, 123 133, 123 153   C123 173, 133 183, 153 183   C173 183, 183 173, 183 153  Z " fill="black"/></svg>

  </svg>