<?xml version="1.0" encoding="UTF-8" standalone="no"?><svg xmlns="http://www.w3.org/2000/svg" id="montage">
    <svg id="ear"/>
    <circle id="countor" stroke="black" cx="250" cy="250" r="200" stroke-width="3" fill="white"/>
    <svg id="mouth"><path stroke="black" stroke-width="1" d="M123 325 C122 374, 378 374, 377 325   M123 325 C93 280, 407 280, 377 325" fill="white"/></svg>
    <svg id="eye"><path stroke="black" stroke-width="1" d="M286.5 162 C286.5 93, 338.5 53, 387.5 53   C447.5 53, 410.5 70, 410.5 125   C410.5 203, 343.5 209, 323.5 209   C299.5 209, 286.5 227, 286.5 162  Z " fill="white"/><path stroke="black" stroke-width="1" d="M213.5 162 C213.5 93, 161.5 53, 112.5 53   C52.5 53, 89.5 70, 89.5 125   C89.5 203, 156.5 209, 176.5 209   C200.5 209, 213.5 227, 213.5 162  Z " fill="white"/><path stroke="black" stroke-width="0" d="M316.5 162 C316.5 142, 326.5 132, 346.5 132   C366.5 132, 376.5 142, 376.5 162   C376.5 182, 366.5 192, 346.5 192   C326.5 192, 316.5 182, 316.5 162  Z " fill="black"/><path stroke="black" stroke-width="0" d="M183.5 162 C183.5 142, 173.5 132, 153.5 132   C133.5 132, 123.5 142, 123.5 162   C123.5 182, 133.5 192, 153.5 192   C173.5 192, 183.5 182, 183.5 162  Z " fill="black"/></svg>

  </svg>