<?xml version="1.0" encoding="UTF-8" standalone="no"?><svg xmlns="http://www.w3.org/2000/svg" id="montage">
    <svg id="ear"><path stroke="black" stroke-width="1" d="M444.87401295704706 205.009789131227 C575.8740129570471 211.009789131227, 494.5895185717854 360.8943125571782, 426.5895185717854 343.8943125571782   " fill="white"/><path stroke="black" stroke-width="1" d="M55.12598704295294 205.009789131227 C-75.87401295704706 211.009789131227, 5.410481428214609 360.8943125571782, 73.41048142821461 343.8943125571782   " fill="white"/></svg>
    <circle id="countor" stroke="black" cx="250" cy="250" r="200" stroke-width="3" fill="white"/>
    <svg id="mouth"><path stroke="black" stroke-width="1" d="M236.5 389 C255.5 408, 244.5 408, 263.5 389   M236.5 389 C278.5 479, 221.5 479, 263.5 389" fill="white"/></svg>
    <svg id="eye"><path stroke="black" stroke-width="1" d="M273 164 C273 146, 308 107, 330 107   C341 107, 410 163, 410 192   C410 272, 433 222, 361 222   C331 222, 273 193, 273 164  Z " fill="white"/><path stroke="black" stroke-width="1" d="M227 164 C227 146, 192 107, 170 107   C159 107, 90 163, 90 192   C90 272, 67 222, 139 222   C169 222, 227 193, 227 164  Z " fill="white"/><path stroke="black" stroke-width="0" d="M312 146 C312 126, 322 116, 342 116   C362 116, 372 126, 372 146   C372 166, 362 176, 342 176   C322 176, 312 166, 312 146  Z " fill="black"/><path stroke="black" stroke-width="0" d="M188 146 C188 126, 178 116, 158 116   C138 116, 128 126, 128 146   C128 166, 138 176, 158 176   C178 176, 188 166, 188 146  Z " fill="black"/></svg>

  </svg>