<?xml version="1.0" encoding="UTF-8" standalone="no"?><svg xmlns="http://www.w3.org/2000/svg" id="montage">
    <svg id="ear"><path stroke="black" stroke-width="1" d="M449.7259069509148 239.53280875141124 C613.7259069509148 133.53280875141124, 517.5895185717854 386.8943125571782, 426.5895185717854 343.8943125571782   " fill="white"/><path stroke="black" stroke-width="1" d="M50.274093049085224 239.53280875141124 C-113.72590695091478 133.53280875141124, -17.58951857178539 386.8943125571782, 73.41048142821461 343.8943125571782   " fill="white"/></svg>
    <circle id="countor" stroke="black" cx="250" cy="250" r="200" stroke-width="3" fill="white"/>
    <svg id="mouth"><path stroke="black" stroke-width="1" d="M172.5 429 C192.5 436, 307.5 436, 327.5 429   M172.5 429 C132.5 397, 367.5 397, 327.5 429" fill="white"/></svg>
    <svg id="eye"><path stroke="black" stroke-width="1" d="M303 140 C303 68, 346 35, 374 35   C387 35, 435 85, 435 140   C435 180, 356 242, 308 242   C266 242, 303 199, 303 140  Z " fill="white"/><path stroke="black" stroke-width="1" d="M197 140 C197 68, 154 35, 126 35   C113 35, 65 85, 65 140   C65 180, 144 242, 192 242   C234 242, 197 199, 197 140  Z " fill="white"/><path stroke="black" stroke-width="0" d="M313 143 C313 123, 323 113, 343 113   C363 113, 373 123, 373 143   C373 163, 363 173, 343 173   C323 173, 313 163, 313 143  Z " fill="black"/><path stroke="black" stroke-width="0" d="M187 143 C187 123, 177 113, 157 113   C137 113, 127 123, 127 143   C127 163, 137 173, 157 173   C177 173, 187 163, 187 143  Z " fill="black"/></svg>

  </svg>