<?xml version="1.0" encoding="UTF-8" standalone="no"?><svg xmlns="http://www.w3.org/2000/svg" id="montage">
    <svg id="ear"/>
    <circle id="countor" stroke="black" cx="250" cy="250" r="200" stroke-width="3" fill="white"/>
    <svg id="mouth"><path stroke="black" stroke-width="1" d="M216.5 286 C256.5 274, 243.5 274, 283.5 286   M216.5 286 C302.5 139, 197.5 139, 283.5 286" fill="white"/></svg>
    <svg id="eye"><path stroke="black" stroke-width="1" d="M222.5 240 C222.5 167, 283.5 105, 306.5 105   C357.5 105, 394.5 175, 394.5 202   C394.5 227, 423.5 285, 361.5 285   C318.5 285, 222.5 307, 222.5 240  Z " fill="white"/><path stroke="black" stroke-width="1" d="M277.5 240 C277.5 167, 216.5 105, 193.5 105   C142.5 105, 105.5 175, 105.5 202   C105.5 227, 76.5 285, 138.5 285   C181.5 285, 277.5 307, 277.5 240  Z " fill="white"/><path stroke="black" stroke-width="0" d="M312.5 192 C312.5 172, 322.5 162, 342.5 162   C362.5 162, 372.5 172, 372.5 192   C372.5 212, 362.5 222, 342.5 222   C322.5 222, 312.5 212, 312.5 192  Z " fill="black"/><path stroke="black" stroke-width="0" d="M187.5 192 C187.5 172, 177.5 162, 157.5 162   C137.5 162, 127.5 172, 127.5 192   C127.5 212, 137.5 222, 157.5 222   C177.5 222, 187.5 212, 187.5 192  Z " fill="black"/></svg>

  </svg>