<?xml version="1.0" encoding="UTF-8" standalone="no"?><svg xmlns="http://www.w3.org/2000/svg" id="montage">
    <svg id="ear"><path stroke="black" stroke-width="1" d="M328.1462256978548 65.89902930951195 C419.1462256978548 199.89902930951195, 500.05914525519927 315.61562088006644, 444.05914525519927 201.61562088006644   " fill="white"/><path stroke="black" stroke-width="1" d="M171.8537743021452 65.89902930951195 C80.85377430214521 199.89902930951195, -0.05914525519929725 315.61562088006644, 55.9408547448007 201.61562088006644   " fill="white"/></svg>
    <circle id="countor" stroke="black" cx="250" cy="250" r="200" stroke-width="3" fill="white"/>
    <svg id="mouth"><path stroke="black" stroke-width="1" d="M226.5 272 C212.5 299, 287.5 299, 273.5 272   M226.5 272 C246.5 246, 253.5 246, 273.5 272" fill="white"/></svg>
    <svg id="eye"><path stroke="black" stroke-width="1" d="M245 260 C245 222, 324 105, 381 105   C449 105, 409 107, 409 165   C409 182, 436 331, 356 331   C296 331, 245 283, 245 260  Z " fill="white"/><path stroke="black" stroke-width="1" d="M255 260 C255 222, 176 105, 119 105   C51 105, 91 107, 91 165   C91 182, 64 331, 144 331   C204 331, 255 283, 255 260  Z " fill="white"/><path stroke="black" stroke-width="0" d="M320 212 C320 192, 330 182, 350 182   C370 182, 380 192, 380 212   C380 232, 370 242, 350 242   C330 242, 320 232, 320 212  Z " fill="black"/><path stroke="black" stroke-width="0" d="M180 212 C180 192, 170 182, 150 182   C130 182, 120 192, 120 212   C120 232, 130 242, 150 242   C170 242, 180 232, 180 212  Z " fill="black"/></svg>

  </svg>