<?xml version="1.0" encoding="UTF-8" standalone="no"?><svg xmlns="http://www.w3.org/2000/svg" id="montage">
    <svg id="ear"><path stroke="black" stroke-width="1" d="M442.2523391876638 194.87252883660017 C463.2523391876638 54.87252883660017, 526.5092303282644 317.62613131897047, 448.5092303282644 225.6261313189705   " fill="white"/><path stroke="black" stroke-width="1" d="M57.74766081233622 194.87252883660017 C36.74766081233622 54.87252883660017, -26.509230328264408 317.62613131897047, 51.49076967173559 225.6261313189705   " fill="white"/></svg>
    <circle id="countor" stroke="black" cx="250" cy="250" r="200" stroke-width="3" fill="white"/>
    <svg id="mouth"><path stroke="black" stroke-width="1" d="M156 329 C121 323, 379 323, 344 329   M156 329 C38 189, 462 189, 344 329" fill="white"/></svg>
    <svg id="eye"><path stroke="black" stroke-width="1" d="M227 130 C227 98, 249 108, 304 108   C314 108, 405 115, 405 171   C405 236, 348 256, 313 256   C287 256, 227 175, 227 130  Z " fill="white"/><path stroke="black" stroke-width="1" d="M273 130 C273 98, 251 108, 196 108   C186 108, 95 115, 95 171   C95 236, 152 256, 187 256   C213 256, 273 175, 273 130  Z " fill="white"/><path stroke="black" stroke-width="0" d="M311 155 C311 135, 321 125, 341 125   C361 125, 371 135, 371 155   C371 175, 361 185, 341 185   C321 185, 311 175, 311 155  Z " fill="black"/><path stroke="black" stroke-width="0" d="M189 155 C189 135, 179 125, 159 125   C139 125, 129 135, 129 155   C129 175, 139 185, 159 185   C179 185, 189 175, 189 155  Z " fill="black"/></svg>

  </svg>