<?xml version="1.0" encoding="UTF-8" standalone="no"?><svg xmlns="http://www.w3.org/2000/svg" id="montage">
    <svg id="ear"><path stroke="black" stroke-width="1" d="M409.7271020094586 129.63699536959035 C523.7271020094586 325.63699536959035, 530.7090915285202 489.34732861516, 432.70909152852016 331.34732861516   " fill="white"/><path stroke="black" stroke-width="1" d="M90.27289799054142 129.63699536959035 C-23.727102009458577 325.63699536959035, -30.70909152852016 489.34732861516, 67.29090847147984 331.34732861516   " fill="white"/></svg>
    <circle id="countor" stroke="black" cx="250" cy="250" r="200" stroke-width="3" fill="white"/>
    <svg id="mouth"><path stroke="black" stroke-width="1" d="M231.5 303 C223.5 314, 276.5 314, 268.5 303   M231.5 303 C111.5 331, 388.5 331, 268.5 303" fill="white"/></svg>
    <svg id="eye"><path stroke="black" stroke-width="1" d="M258.5 145 C258.5 89, 277.5 131, 305.5 131   C319.5 131, 431.5 97, 431.5 126   C431.5 203, 342.5 234, 319.5 234   C246.5 234, 258.5 175, 258.5 145  Z " fill="white"/><path stroke="black" stroke-width="1" d="M241.5 145 C241.5 89, 222.5 131, 194.5 131   C180.5 131, 68.5 97, 68.5 126   C68.5 203, 157.5 234, 180.5 234   C253.5 234, 241.5 175, 241.5 145  Z " fill="white"/><path stroke="black" stroke-width="0" d="M317.5 166 C317.5 146, 327.5 136, 347.5 136   C367.5 136, 377.5 146, 377.5 166   C377.5 186, 367.5 196, 347.5 196   C327.5 196, 317.5 186, 317.5 166  Z " fill="black"/><path stroke="black" stroke-width="0" d="M182.5 166 C182.5 146, 172.5 136, 152.5 136   C132.5 136, 122.5 146, 122.5 166   C122.5 186, 132.5 196, 152.5 196   C172.5 196, 182.5 186, 182.5 166  Z " fill="black"/></svg>

  </svg>