<?xml version="1.0" encoding="UTF-8" standalone="no"?><svg xmlns="http://www.w3.org/2000/svg" id="montage">
    <svg id="ear"><path stroke="black" stroke-width="1" d="M448.5092303282644 225.6261313189705 C592.5092303282644 102.6261313189705, 642.9043790736547 294.9056926535307, 448.9043790736547 270.9056926535307   " fill="white"/><path stroke="black" stroke-width="1" d="M51.49076967173559 225.6261313189705 C-92.50923032826441 102.6261313189705, -142.90437907365467 294.9056926535307, 51.09562092634533 270.9056926535307   " fill="white"/></svg>
    <circle id="countor" stroke="black" cx="250" cy="250" r="200" stroke-width="3" fill="white"/>
    <svg id="mouth"><path stroke="black" stroke-width="1" d="M177 314 C213 269, 287 269, 323 314   M177 314 C177 355, 323 355, 323 314" fill="white"/></svg>
    <svg id="eye"><path stroke="black" stroke-width="1" d="M242.5 109 C242.5 73, 302.5 50, 367.5 50   C424.5 50, 380.5 132, 380.5 178   C380.5 227, 426.5 236, 353.5 236   C340.5 236, 242.5 186, 242.5 109  Z " fill="white"/><path stroke="black" stroke-width="1" d="M257.5 109 C257.5 73, 197.5 50, 132.5 50   C75.5 50, 119.5 132, 119.5 178   C119.5 227, 73.5 236, 146.5 236   C159.5 236, 257.5 186, 257.5 109  Z " fill="white"/><path stroke="black" stroke-width="0" d="M312.5 156 C312.5 136, 322.5 126, 342.5 126   C362.5 126, 372.5 136, 372.5 156   C372.5 176, 362.5 186, 342.5 186   C322.5 186, 312.5 176, 312.5 156  Z " fill="black"/><path stroke="black" stroke-width="0" d="M187.5 156 C187.5 136, 177.5 126, 157.5 126   C137.5 126, 127.5 136, 127.5 156   C127.5 176, 137.5 186, 157.5 186   C177.5 186, 187.5 176, 187.5 156  Z " fill="black"/></svg>

  </svg>