<?xml version="1.0" encoding="UTF-8" standalone="no"?><svg xmlns="http://www.w3.org/2000/svg" id="montage">
    <svg id="ear"><path stroke="black" stroke-width="1" d="M324.9213186831824 64.56322908664251 C484.9213186831824 71.56322908664251, 462.23893961834915 126.56885145046837, 449.23893961834915 232.56885145046837   " fill="white"/><path stroke="black" stroke-width="1" d="M175.0786813168176 64.56322908664251 C15.078681316817608 71.56322908664251, 37.76106038165088 126.56885145046837, 50.76106038165088 232.56885145046837   " fill="white"/></svg>
    <circle id="countor" stroke="black" cx="250" cy="250" r="200" stroke-width="3" fill="white"/>
    <svg id="mouth"><path stroke="black" stroke-width="1" d="M161 335 C168 332, 332 332, 339 335   M161 335 C53 392, 447 392, 339 335" fill="white"/></svg>
    <svg id="eye"><path stroke="black" stroke-width="1" d="M302.5 187 C302.5 116, 324.5 151, 366.5 151   C386.5 151, 440.5 168, 440.5 198   C440.5 217, 350.5 277, 331.5 277   C295.5 277, 302.5 198, 302.5 187  Z " fill="white"/><path stroke="black" stroke-width="1" d="M197.5 187 C197.5 116, 175.5 151, 133.5 151   C113.5 151, 59.5 168, 59.5 198   C59.5 217, 149.5 277, 168.5 277   C204.5 277, 197.5 198, 197.5 187  Z " fill="white"/><path stroke="black" stroke-width="0" d="M310.5 226 C310.5 206, 320.5 196, 340.5 196   C360.5 196, 370.5 206, 370.5 226   C370.5 246, 360.5 256, 340.5 256   C320.5 256, 310.5 246, 310.5 226  Z " fill="black"/><path stroke="black" stroke-width="0" d="M189.5 226 C189.5 206, 179.5 196, 159.5 196   C139.5 196, 129.5 206, 129.5 226   C129.5 246, 139.5 256, 159.5 256   C179.5 256, 189.5 246, 189.5 226  Z " fill="black"/></svg>

  </svg>