<?xml version="1.0" encoding="UTF-8" standalone="no"?><svg xmlns="http://www.w3.org/2000/svg" id="montage">
    <svg id="ear"><path stroke="black" stroke-width="1" d="M353.00761498201086 78.56653985957755 C376.00761498201086 273.5665398595776, 478.20130483767355 97.20190005209065, 428.20130483767355 159.20190005209065   " fill="white"/><path stroke="black" stroke-width="1" d="M146.99238501798914 78.56653985957755 C123.99238501798914 273.5665398595776, 21.798695162326425 97.20190005209065, 71.79869516232642 159.20190005209065   " fill="white"/></svg>
    <circle id="countor" stroke="black" cx="250" cy="250" r="200" stroke-width="3" fill="white"/>
    <svg id="mouth"><path stroke="black" stroke-width="1" d="M167.5 336 C150.5 302, 349.5 302, 332.5 336   M167.5 336 C244.5 394, 255.5 394, 332.5 336" fill="white"/></svg>
    <svg id="eye"><path stroke="black" stroke-width="1" d="M287 217 C287 195, 313 109, 358 109   C417 109, 406 100, 406 152   C406 187, 305 258, 295 258   C264 258, 287 284, 287 217  Z " fill="white"/><path stroke="black" stroke-width="1" d="M213 217 C213 195, 187 109, 142 109   C83 109, 94 100, 94 152   C94 187, 195 258, 205 258   C236 258, 213 284, 213 217  Z " fill="white"/><path stroke="black" stroke-width="0" d="M311 178 C311 158, 321 148, 341 148   C361 148, 371 158, 371 178   C371 198, 361 208, 341 208   C321 208, 311 198, 311 178  Z " fill="black"/><path stroke="black" stroke-width="0" d="M189 178 C189 158, 179 148, 159 148   C139 148, 129 158, 129 178   C129 198, 139 208, 159 208   C179 208, 189 198, 189 178  Z " fill="black"/></svg>

  </svg>