<?xml version="1.0" encoding="UTF-8" standalone="no"?><svg xmlns="http://www.w3.org/2000/svg" id="montage">
    <svg id="ear"><path stroke="black" stroke-width="1" d="M443.18516525781365 198.23619097949586 C520.1851652578137 177.23619097949586, 640.1851652578137 240.23619097949586, 443.18516525781365 198.23619097949586   " fill="white"/><path stroke="black" stroke-width="1" d="M56.81483474218635 198.23619097949586 C-20.18516525781365 177.23619097949586, -140.18516525781365 240.23619097949586, 56.81483474218635 198.23619097949586   " fill="white"/></svg>
    <circle id="countor" stroke="black" cx="250" cy="250" r="200" stroke-width="3" fill="white"/>
    <svg id="mouth"><path stroke="black" stroke-width="1" d="M225.5 422 C215.5 421, 284.5 421, 274.5 422   M225.5 422 C88.5 439, 411.5 439, 274.5 422" fill="white"/></svg>
    <svg id="eye"><path stroke="black" stroke-width="1" d="M230.5 126 C230.5 74, 378.5 65, 388.5 65   C425.5 65, 406.5 155, 406.5 180   C406.5 198, 433.5 209, 361.5 209   C293.5 209, 230.5 178, 230.5 126  Z " fill="white"/><path stroke="black" stroke-width="1" d="M269.5 126 C269.5 74, 121.5 65, 111.5 65   C74.5 65, 93.5 155, 93.5 180   C93.5 198, 66.5 209, 138.5 209   C206.5 209, 269.5 178, 269.5 126  Z " fill="white"/><path stroke="black" stroke-width="0" d="M319.5 141 C319.5 121, 329.5 111, 349.5 111   C369.5 111, 379.5 121, 379.5 141   C379.5 161, 369.5 171, 349.5 171   C329.5 171, 319.5 161, 319.5 141  Z " fill="black"/><path stroke="black" stroke-width="0" d="M180.5 141 C180.5 121, 170.5 111, 150.5 111   C130.5 111, 120.5 121, 120.5 141   C120.5 161, 130.5 171, 150.5 171   C170.5 171, 180.5 161, 180.5 141  Z " fill="black"/></svg>

  </svg>