<?xml version="1.0" encoding="UTF-8" standalone="no"?><svg xmlns="http://www.w3.org/2000/svg" id="montage">
    <svg id="ear"><path stroke="black" stroke-width="1" d="M383.8261212717716 101.37103490452114 C540.8261212717716 136.37103490452114, 501.5092303282644 239.37386868102948, 448.5092303282644 274.3738686810295   " fill="white"/><path stroke="black" stroke-width="1" d="M116.17387872822835 101.37103490452114 C-40.826121271771655 136.37103490452114, -1.5092303282644082 239.37386868102948, 51.49076967173559 274.3738686810295   " fill="white"/></svg>
    <circle id="countor" stroke="black" cx="250" cy="250" r="200" stroke-width="3" fill="white"/>
    <svg id="mouth"><path stroke="black" stroke-width="1" d="M225 293 C261 330, 239 330, 275 293   M225 293 C197 249, 303 249, 275 293" fill="white"/></svg>
    <svg id="eye"><path stroke="black" stroke-width="1" d="M296.5 125 C296.5 104, 272.5 88, 344.5 88   C387.5 88, 432.5 118, 432.5 170   C432.5 245, 339.5 239, 317.5 239   C269.5 239, 296.5 156, 296.5 125  Z " fill="white"/><path stroke="black" stroke-width="1" d="M203.5 125 C203.5 104, 227.5 88, 155.5 88   C112.5 88, 67.5 118, 67.5 170   C67.5 245, 160.5 239, 182.5 239   C230.5 239, 203.5 156, 203.5 125  Z " fill="white"/><path stroke="black" stroke-width="0" d="M315.5 167 C315.5 147, 325.5 137, 345.5 137   C365.5 137, 375.5 147, 375.5 167   C375.5 187, 365.5 197, 345.5 197   C325.5 197, 315.5 187, 315.5 167  Z " fill="black"/><path stroke="black" stroke-width="0" d="M184.5 167 C184.5 147, 174.5 137, 154.5 137   C134.5 137, 124.5 147, 124.5 167   C124.5 187, 134.5 197, 154.5 197   C174.5 197, 184.5 187, 184.5 167  Z " fill="black"/></svg>

  </svg>