<?xml version="1.0" encoding="UTF-8" standalone="no"?><svg xmlns="http://www.w3.org/2000/svg" id="montage">
    <svg id="ear"/>
    <circle id="countor" stroke="black" cx="250" cy="250" r="200" stroke-width="3" fill="white"/>
    <svg id="mouth"><path stroke="black" stroke-width="1" d="M182 400 C187 445, 313 445, 318 400   M182 400 C302 379, 198 379, 318 400" fill="white"/></svg>
    <svg id="eye"><path stroke="black" stroke-width="1" d="M247 206 C247 142, 276 120, 315 120   C378 120, 382 133, 382 212   C382 278, 370 263, 298 263   C244 263, 247 264, 247 206  Z " fill="white"/><path stroke="black" stroke-width="1" d="M253 206 C253 142, 224 120, 185 120   C122 120, 118 133, 118 212   C118 278, 130 263, 202 263   C256 263, 253 264, 253 206  Z " fill="white"/><path stroke="black" stroke-width="0" d="M314 190 C314 170, 324 160, 344 160   C364 160, 374 170, 374 190   C374 210, 364 220, 344 220   C324 220, 314 210, 314 190  Z " fill="black"/><path stroke="black" stroke-width="0" d="M186 190 C186 170, 176 160, 156 160   C136 160, 126 170, 126 190   C126 210, 136 220, 156 220   C176 220, 186 210, 186 190  Z " fill="black"/></svg>

  </svg>