<?xml version="1.0" encoding="UTF-8" standalone="no"?><svg xmlns="http://www.w3.org/2000/svg" id="montage">
    <svg id="ear"/>
    <circle id="countor" stroke="black" cx="250" cy="250" r="200" stroke-width="3" fill="white"/>
    <svg id="mouth"><path stroke="black" stroke-width="1" d="M210 383 C174 401, 326 401, 290 383   M210 383 C193 350, 307 350, 290 383" fill="white"/></svg>
    <svg id="eye"><path stroke="black" stroke-width="1" d="M226.5 127 C226.5 81, 323.5 91, 384.5 91   C455.5 91, 404.5 70, 404.5 146   C404.5 189, 336.5 182, 319.5 182   C250.5 182, 226.5 164, 226.5 127  Z " fill="white"/><path stroke="black" stroke-width="1" d="M273.5 127 C273.5 81, 176.5 91, 115.5 91   C44.5 91, 95.5 70, 95.5 146   C95.5 189, 163.5 182, 180.5 182   C249.5 182, 273.5 164, 273.5 127  Z " fill="white"/><path stroke="black" stroke-width="0" d="M313.5 146 C313.5 126, 323.5 116, 343.5 116   C363.5 116, 373.5 126, 373.5 146   C373.5 166, 363.5 176, 343.5 176   C323.5 176, 313.5 166, 313.5 146  Z " fill="black"/><path stroke="black" stroke-width="0" d="M186.5 146 C186.5 126, 176.5 116, 156.5 116   C136.5 116, 126.5 126, 126.5 146   C126.5 166, 136.5 176, 156.5 176   C176.5 176, 186.5 166, 186.5 146  Z " fill="black"/></svg>

  </svg>