<?xml version="1.0" encoding="UTF-8" standalone="no"?><svg xmlns="http://www.w3.org/2000/svg" id="montage">
    <svg id="ear"><path stroke="black" stroke-width="1" d="M403.2088886237956 121.44247806269215 C545.2088886237956 302.44247806269215, 607.9615506024415 71.27036446661393, 446.9615506024416 215.27036446661393   " fill="white"/><path stroke="black" stroke-width="1" d="M96.79111137620438 121.44247806269215 C-45.208888623795616 302.44247806269215, -107.9615506024416 71.27036446661393, 53.038449397558395 215.27036446661393   " fill="white"/></svg>
    <circle id="countor" stroke="black" cx="250" cy="250" r="200" stroke-width="3" fill="white"/>
    <svg id="mouth"><path stroke="black" stroke-width="1" d="M178 395 C197 408, 303 408, 322 395   M178 395 C148 349, 352 349, 322 395" fill="white"/></svg>
    <svg id="eye"><path stroke="black" stroke-width="1" d="M281 161 C281 98, 304 123, 349 123   C387 123, 382 123, 382 160   C382 229, 382 287, 361 287   C293 287, 281 236, 281 161  Z " fill="white"/><path stroke="black" stroke-width="1" d="M219 161 C219 98, 196 123, 151 123   C113 123, 118 123, 118 160   C118 229, 118 287, 139 287   C207 287, 219 236, 219 161  Z " fill="white"/><path stroke="black" stroke-width="0" d="M312 188 C312 168, 322 158, 342 158   C362 158, 372 168, 372 188   C372 208, 362 218, 342 218   C322 218, 312 208, 312 188  Z " fill="black"/><path stroke="black" stroke-width="0" d="M188 188 C188 168, 178 158, 158 158   C138 158, 128 168, 128 188   C128 208, 138 218, 158 218   C178 218, 188 208, 188 188  Z " fill="black"/></svg>

  </svg>