<?xml version="1.0" encoding="UTF-8" standalone="no"?><svg xmlns="http://www.w3.org/2000/svg" id="montage">
    <svg id="ear"><path stroke="black" stroke-width="1" d="M331.34732861516005 67.29090847147984 C421.34732861516005 -17.70909152852016, 562.7152872702093 -63.830408857798346, 364.7152872702092 86.16959114220165   " fill="white"/><path stroke="black" stroke-width="1" d="M168.65267138483995 67.29090847147984 C78.65267138483995 -17.70909152852016, -62.71528727020922 -63.830408857798346, 135.28471272979078 86.16959114220165   " fill="white"/></svg>
    <circle id="countor" stroke="black" cx="250" cy="250" r="200" stroke-width="3" fill="white"/>
    <svg id="mouth"><path stroke="black" stroke-width="1" d="M198 403 C208 374, 292 374, 302 403   M198 403 C137 453, 363 453, 302 403" fill="white"/></svg>
    <svg id="eye"><path stroke="black" stroke-width="1" d="M229.5 184 C229.5 169, 328.5 71, 347.5 71   C401.5 71, 426.5 127, 426.5 145   C426.5 219, 357.5 239, 344.5 239   C295.5 239, 229.5 255, 229.5 184  Z " fill="white"/><path stroke="black" stroke-width="1" d="M270.5 184 C270.5 169, 171.5 71, 152.5 71   C98.5 71, 73.5 127, 73.5 145   C73.5 219, 142.5 239, 155.5 239   C204.5 239, 270.5 255, 270.5 184  Z " fill="white"/><path stroke="black" stroke-width="0" d="M312.5 147 C312.5 127, 322.5 117, 342.5 117   C362.5 117, 372.5 127, 372.5 147   C372.5 167, 362.5 177, 342.5 177   C322.5 177, 312.5 167, 312.5 147  Z " fill="black"/><path stroke="black" stroke-width="0" d="M187.5 147 C187.5 127, 177.5 117, 157.5 117   C137.5 117, 127.5 127, 127.5 147   C127.5 167, 137.5 177, 157.5 177   C177.5 177, 187.5 167, 187.5 147  Z " fill="black"/></svg>

  </svg>