<?xml version="1.0" encoding="UTF-8" standalone="no"?><svg xmlns="http://www.w3.org/2000/svg" id="montage">
    <svg id="ear"><path stroke="black" stroke-width="1" d="M448.5092303282644 225.6261313189705 C612.5092303282644 179.6261313189705, 567.5128100519648 219.95129474882503, 449.51281005196483 263.95129474882503   " fill="white"/><path stroke="black" stroke-width="1" d="M51.49076967173559 225.6261313189705 C-112.50923032826441 179.6261313189705, -67.51281005196483 219.95129474882503, 50.487189948035166 263.95129474882503   " fill="white"/></svg>
    <circle id="countor" stroke="black" cx="250" cy="250" r="200" stroke-width="3" fill="white"/>
    <svg id="mouth"><path stroke="black" stroke-width="1" d="M228 347 C250 390, 250 390, 272 347   M228 347 C270 435, 230 435, 272 347" fill="white"/></svg>
    <svg id="eye"><path stroke="black" stroke-width="1" d="M235.5 197 C235.5 130, 293.5 138, 307.5 138   C318.5 138, 387.5 195, 387.5 205   C387.5 276, 373.5 269, 314.5 269   C296.5 269, 235.5 249, 235.5 197  Z " fill="white"/><path stroke="black" stroke-width="1" d="M264.5 197 C264.5 130, 206.5 138, 192.5 138   C181.5 138, 112.5 195, 112.5 205   C112.5 276, 126.5 269, 185.5 269   C203.5 269, 264.5 249, 264.5 197  Z " fill="white"/><path stroke="black" stroke-width="0" d="M315.5 191 C315.5 171, 325.5 161, 345.5 161   C365.5 161, 375.5 171, 375.5 191   C375.5 211, 365.5 221, 345.5 221   C325.5 221, 315.5 211, 315.5 191  Z " fill="black"/><path stroke="black" stroke-width="0" d="M184.5 191 C184.5 171, 174.5 161, 154.5 161   C134.5 161, 124.5 171, 124.5 191   C124.5 211, 134.5 221, 154.5 221   C174.5 221, 184.5 211, 184.5 191  Z " fill="black"/></svg>

  </svg>