<?xml version="1.0" encoding="UTF-8" standalone="no"?><svg xmlns="http://www.w3.org/2000/svg" id="montage">
    <svg id="ear"><path stroke="black" stroke-width="1" d="M353.00761498201086 78.56653985957755 C387.00761498201086 -83.43346014042245, 601.7271020094586 -18.363004630409648, 409.7271020094586 129.63699536959035   " fill="white"/><path stroke="black" stroke-width="1" d="M146.99238501798914 78.56653985957755 C112.99238501798914 -83.43346014042245, -101.72710200945858 -18.363004630409648, 90.27289799054142 129.63699536959035   " fill="white"/></svg>
    <circle id="countor" stroke="black" cx="250" cy="250" r="200" stroke-width="3" fill="white"/>
    <svg id="mouth"><path stroke="black" stroke-width="1" d="M163.5 313 C177.5 322, 322.5 322, 336.5 313   M163.5 313 C44.5 409, 455.5 409, 336.5 313" fill="white"/></svg>
    <svg id="eye"><path stroke="black" stroke-width="1" d="M293.5 219 C293.5 163, 342.5 120, 352.5 120   C408.5 120, 454.5 188, 454.5 200   C454.5 239, 427.5 298, 391.5 298   C366.5 298, 293.5 253, 293.5 219  Z " fill="white"/><path stroke="black" stroke-width="1" d="M206.5 219 C206.5 163, 157.5 120, 147.5 120   C91.5 120, 45.5 188, 45.5 200   C45.5 239, 72.5 298, 108.5 298   C133.5 298, 206.5 253, 206.5 219  Z " fill="white"/><path stroke="black" stroke-width="0" d="M316.5 179 C316.5 159, 326.5 149, 346.5 149   C366.5 149, 376.5 159, 376.5 179   C376.5 199, 366.5 209, 346.5 209   C326.5 209, 316.5 199, 316.5 179  Z " fill="black"/><path stroke="black" stroke-width="0" d="M183.5 179 C183.5 159, 173.5 149, 153.5 149   C133.5 149, 123.5 159, 123.5 179   C123.5 199, 133.5 209, 153.5 209   C173.5 209, 183.5 199, 183.5 179  Z " fill="black"/></svg>

  </svg>