<?xml version="1.0" encoding="UTF-8" standalone="no"?><svg xmlns="http://www.w3.org/2000/svg" id="montage">
    <svg id="ear"><path stroke="black" stroke-width="1" d="M407.6021507213444 126.86770493486836 C586.6021507213444 73.86770493486836, 509.53766811902756 392.28689300804615, 447.53766811902756 281.28689300804615   " fill="white"/><path stroke="black" stroke-width="1" d="M92.3978492786556 126.86770493486836 C-86.6021507213444 73.86770493486836, -9.537668119027558 392.28689300804615, 52.46233188097244 281.28689300804615   " fill="white"/></svg>
    <circle id="countor" stroke="black" cx="250" cy="250" r="200" stroke-width="3" fill="white"/>
    <svg id="mouth"><path stroke="black" stroke-width="1" d="M140 348 C116 387, 384 387, 360 348   M140 348 C231 293, 269 293, 360 348" fill="white"/></svg>
    <svg id="eye"><path stroke="black" stroke-width="1" d="M239 222 C239 212, 270 150, 331 150   C406 150, 386 87, 386 158   C386 207, 393 319, 330 319   C271 319, 239 267, 239 222  Z " fill="white"/><path stroke="black" stroke-width="1" d="M261 222 C261 212, 230 150, 169 150   C94 150, 114 87, 114 158   C114 207, 107 319, 170 319   C229 319, 261 267, 261 222  Z " fill="white"/><path stroke="black" stroke-width="0" d="M320 203 C320 183, 330 173, 350 173   C370 173, 380 183, 380 203   C380 223, 370 233, 350 233   C330 233, 320 223, 320 203  Z " fill="black"/><path stroke="black" stroke-width="0" d="M180 203 C180 183, 170 173, 150 173   C130 173, 120 183, 120 203   C120 223, 130 233, 150 233   C170 233, 180 223, 180 203  Z " fill="black"/></svg>

  </svg>