<?xml version="1.0" encoding="UTF-8" standalone="no"?><svg xmlns="http://www.w3.org/2000/svg" id="montage">
    <svg id="ear"/>
    <circle id="countor" stroke="black" cx="250" cy="250" r="200" stroke-width="3" fill="white"/>
    <svg id="mouth"><path stroke="black" stroke-width="1" d="M223 281 C211 251, 289 251, 277 281   M223 281 C207 284, 293 284, 277 281" fill="white"/></svg>
    <svg id="eye"><path stroke="black" stroke-width="1" d="M245.5 122 C245.5 89, 326.5 85, 351.5 85   C394.5 85, 380.5 133, 380.5 165   C380.5 177, 349.5 252, 318.5 252   C284.5 252, 245.5 149, 245.5 122  Z " fill="white"/><path stroke="black" stroke-width="1" d="M254.5 122 C254.5 89, 173.5 85, 148.5 85   C105.5 85, 119.5 133, 119.5 165   C119.5 177, 150.5 252, 181.5 252   C215.5 252, 254.5 149, 254.5 122  Z " fill="white"/><path stroke="black" stroke-width="0" d="M313.5 168 C313.5 148, 323.5 138, 343.5 138   C363.5 138, 373.5 148, 373.5 168   C373.5 188, 363.5 198, 343.5 198   C323.5 198, 313.5 188, 313.5 168  Z " fill="black"/><path stroke="black" stroke-width="0" d="M186.5 168 C186.5 148, 176.5 138, 156.5 138   C136.5 138, 126.5 148, 126.5 168   C126.5 188, 136.5 198, 156.5 198   C176.5 198, 186.5 188, 186.5 168  Z " fill="black"/></svg>

  </svg>