<?xml version="1.0" encoding="UTF-8" standalone="no"?><svg xmlns="http://www.w3.org/2000/svg" id="montage">
    <svg id="ear"><path stroke="black" stroke-width="1" d="M308.47434094454735 58.73904880739292 C423.47434094454735 227.73904880739292, 569.7160852994404 278.32641009093993, 436.71608529944035 178.32641009093993   " fill="white"/><path stroke="black" stroke-width="1" d="M191.52565905545265 58.73904880739292 C76.52565905545265 227.73904880739292, -69.71608529944035 278.32641009093993, 63.28391470055965 178.32641009093993   " fill="white"/></svg>
    <circle id="countor" stroke="black" cx="250" cy="250" r="200" stroke-width="3" fill="white"/>
    <svg id="mouth"><path stroke="black" stroke-width="1" d="M176 279 C214 278, 286 278, 324 279   M176 279 C208 257, 292 257, 324 279" fill="white"/></svg>
    <svg id="eye"><path stroke="black" stroke-width="1" d="M265.5 248 C265.5 212, 253.5 118, 310.5 118   C340.5 118, 414.5 162, 414.5 191   C414.5 208, 398.5 308, 340.5 308   C328.5 308, 265.5 310, 265.5 248  Z " fill="white"/><path stroke="black" stroke-width="1" d="M234.5 248 C234.5 212, 246.5 118, 189.5 118   C159.5 118, 85.5 162, 85.5 191   C85.5 208, 101.5 308, 159.5 308   C171.5 308, 234.5 310, 234.5 248  Z " fill="white"/><path stroke="black" stroke-width="0" d="M315.5 208 C315.5 188, 325.5 178, 345.5 178   C365.5 178, 375.5 188, 375.5 208   C375.5 228, 365.5 238, 345.5 238   C325.5 238, 315.5 228, 315.5 208  Z " fill="black"/><path stroke="black" stroke-width="0" d="M184.5 208 C184.5 188, 174.5 178, 154.5 178   C134.5 178, 124.5 188, 124.5 208   C124.5 228, 134.5 238, 154.5 238   C174.5 238, 184.5 228, 184.5 208  Z " fill="black"/></svg>

  </svg>