<?xml version="1.0" encoding="UTF-8" standalone="no"?><svg xmlns="http://www.w3.org/2000/svg" id="montage">
    <svg id="ear"><path stroke="black" stroke-width="1" d="M378.5575219373079 96.79111137620438 C431.5575219373079 264.7911113762044, 473.2609511926071 197.52565905545265, 441.2609511926071 191.52565905545265   " fill="white"/><path stroke="black" stroke-width="1" d="M121.44247806269212 96.79111137620438 C68.44247806269212 264.7911113762044, 26.73904880739292 197.52565905545265, 58.73904880739292 191.52565905545265   " fill="white"/></svg>
    <circle id="countor" stroke="black" cx="250" cy="250" r="200" stroke-width="3" fill="white"/>
    <svg id="mouth"><path stroke="black" stroke-width="1" d="M200.5 313 C167.5 274, 332.5 274, 299.5 313   M200.5 313 C150.5 220, 349.5 220, 299.5 313" fill="white"/></svg>
    <svg id="eye"><path stroke="black" stroke-width="1" d="M267.5 200 C267.5 160, 345.5 126, 356.5 126   C366.5 126, 440.5 229, 440.5 239   C440.5 260, 409.5 280, 329.5 280   C310.5 280, 267.5 251, 267.5 200  Z " fill="white"/><path stroke="black" stroke-width="1" d="M232.5 200 C232.5 160, 154.5 126, 143.5 126   C133.5 126, 59.5 229, 59.5 239   C59.5 260, 90.5 280, 170.5 280   C189.5 280, 232.5 251, 232.5 200  Z " fill="white"/><path stroke="black" stroke-width="0" d="M316.5 208 C316.5 188, 326.5 178, 346.5 178   C366.5 178, 376.5 188, 376.5 208   C376.5 228, 366.5 238, 346.5 238   C326.5 238, 316.5 228, 316.5 208  Z " fill="black"/><path stroke="black" stroke-width="0" d="M183.5 208 C183.5 188, 173.5 178, 153.5 178   C133.5 178, 123.5 188, 123.5 208   C123.5 228, 133.5 238, 153.5 238   C173.5 238, 183.5 228, 183.5 208  Z " fill="black"/></svg>

  </svg>