<?xml version="1.0" encoding="UTF-8" standalone="no"?><svg xmlns="http://www.w3.org/2000/svg" id="montage">
    <svg id="ear"><path stroke="black" stroke-width="1" d="M383.8261212717716 101.37103490452114 C534.8261212717716 145.37103490452114, 490.8261212717716 181.37103490452114, 383.8261212717716 101.37103490452114   " fill="white"/><path stroke="black" stroke-width="1" d="M116.17387872822835 101.37103490452114 C-34.826121271771655 145.37103490452114, 9.173878728228345 181.37103490452114, 116.17387872822835 101.37103490452114   " fill="white"/></svg>
    <circle id="countor" stroke="black" cx="250" cy="250" r="200" stroke-width="3" fill="white"/>
    <svg id="mouth"><path stroke="black" stroke-width="1" d="M144.5 406 C140.5 412, 359.5 412, 355.5 406   M144.5 406 C113.5 296, 386.5 296, 355.5 406" fill="white"/></svg>
    <svg id="eye"><path stroke="black" stroke-width="1" d="M299 150 C299 84, 313 127, 390 127   C409 127, 417 168, 417 180   C417 260, 452 305, 390 305   C323 305, 299 193, 299 150  Z " fill="white"/><path stroke="black" stroke-width="1" d="M201 150 C201 84, 187 127, 110 127   C91 127, 83 168, 83 180   C83 260, 48 305, 110 305   C177 305, 201 193, 201 150  Z " fill="white"/><path stroke="black" stroke-width="0" d="M311 190 C311 170, 321 160, 341 160   C361 160, 371 170, 371 190   C371 210, 361 220, 341 220   C321 220, 311 210, 311 190  Z " fill="black"/><path stroke="black" stroke-width="0" d="M189 190 C189 170, 179 160, 159 160   C139 160, 129 170, 129 190   C129 210, 139 220, 159 220   C179 220, 189 210, 189 190  Z " fill="black"/></svg>

  </svg>