<?xml version="1.0" encoding="UTF-8" standalone="no"?><svg xmlns="http://www.w3.org/2000/svg" id="montage">
    <svg id="ear"><path stroke="black" stroke-width="1" d="M358.92780700300546 82.26588641091521 C460.92780700300546 83.26588641091521, 610.7090915285202 330.65267138484, 432.70909152852016 168.65267138483998   " fill="white"/><path stroke="black" stroke-width="1" d="M141.07219299699454 82.26588641091521 C39.072192996994545 83.26588641091521, -110.70909152852016 330.65267138484, 67.29090847147984 168.65267138483998   " fill="white"/></svg>
    <circle id="countor" stroke="black" cx="250" cy="250" r="200" stroke-width="3" fill="white"/>
    <svg id="mouth"><path stroke="black" stroke-width="1" d="M213.5 362 C201.5 347, 298.5 347, 286.5 362   M213.5 362 C323.5 419, 176.5 419, 286.5 362" fill="white"/></svg>
    <svg id="eye"><path stroke="black" stroke-width="1" d="M280.5 98 C280.5 72, 335.5 43, 350.5 43   C394.5 43, 387.5 30, 387.5 107   C387.5 164, 371.5 232, 322.5 232   C303.5 232, 280.5 173, 280.5 98  Z " fill="white"/><path stroke="black" stroke-width="1" d="M219.5 98 C219.5 72, 164.5 43, 149.5 43   C105.5 43, 112.5 30, 112.5 107   C112.5 164, 128.5 232, 177.5 232   C196.5 232, 219.5 173, 219.5 98  Z " fill="white"/><path stroke="black" stroke-width="0" d="M316.5 148 C316.5 128, 326.5 118, 346.5 118   C366.5 118, 376.5 128, 376.5 148   C376.5 168, 366.5 178, 346.5 178   C326.5 178, 316.5 168, 316.5 148  Z " fill="black"/><path stroke="black" stroke-width="0" d="M183.5 148 C183.5 128, 173.5 118, 153.5 118   C133.5 118, 123.5 128, 123.5 148   C123.5 168, 133.5 178, 153.5 178   C173.5 178, 183.5 168, 183.5 148  Z " fill="black"/></svg>

  </svg>