<?xml version="1.0" encoding="UTF-8" standalone="no"?><svg xmlns="http://www.w3.org/2000/svg" id="montage">
    <svg id="ear"/>
    <circle id="countor" stroke="black" cx="250" cy="250" r="200" stroke-width="3" fill="white"/>
    <svg id="mouth"><path stroke="black" stroke-width="1" d="M207 373 C256 328, 244 328, 293 373   M207 373 C328 332, 172 332, 293 373" fill="white"/></svg>
    <svg id="eye"><path stroke="black" stroke-width="1" d="M308.5 247 C308.5 177, 333.5 119, 371.5 119   C444.5 119, 403.5 177, 403.5 233   C403.5 280, 386.5 258, 344.5 258   C322.5 258, 308.5 321, 308.5 247  Z " fill="white"/><path stroke="black" stroke-width="1" d="M191.5 247 C191.5 177, 166.5 119, 128.5 119   C55.5 119, 96.5 177, 96.5 233   C96.5 280, 113.5 258, 155.5 258   C177.5 258, 191.5 321, 191.5 247  Z " fill="white"/><path stroke="black" stroke-width="0" d="M316.5 217 C316.5 197, 326.5 187, 346.5 187   C366.5 187, 376.5 197, 376.5 217   C376.5 237, 366.5 247, 346.5 247   C326.5 247, 316.5 237, 316.5 217  Z " fill="black"/><path stroke="black" stroke-width="0" d="M183.5 217 C183.5 197, 173.5 187, 153.5 187   C133.5 187, 123.5 197, 123.5 217   C123.5 237, 133.5 247, 153.5 247   C173.5 247, 183.5 237, 183.5 217  Z " fill="black"/></svg>

  </svg>