<?xml version="1.0" encoding="UTF-8" standalone="no"?><svg xmlns="http://www.w3.org/2000/svg" id="montage">
    <svg id="ear"><path stroke="black" stroke-width="1" d="M443.18516525781365 198.23619097949586 C593.1851652578137 158.23619097949586, 497.43677091335746 190.9213186831824, 435.43677091335746 324.9213186831824   " fill="white"/><path stroke="black" stroke-width="1" d="M56.81483474218635 198.23619097949586 C-93.18516525781365 158.23619097949586, 2.563229086642508 190.9213186831824, 64.56322908664251 324.9213186831824   " fill="white"/></svg>
    <circle id="countor" stroke="black" cx="250" cy="250" r="200" stroke-width="3" fill="white"/>
    <svg id="mouth"><path stroke="black" stroke-width="1" d="M152 397 C139 426, 361 426, 348 397   M152 397 C143 535, 357 535, 348 397" fill="white"/></svg>
    <svg id="eye"><path stroke="black" stroke-width="1" d="M271.5 200 C271.5 143, 335.5 104, 399.5 104   C467.5 104, 446.5 85, 446.5 143   C446.5 155, 438.5 228, 369.5 228   C337.5 228, 271.5 218, 271.5 200  Z " fill="white"/><path stroke="black" stroke-width="1" d="M228.5 200 C228.5 143, 164.5 104, 100.5 104   C32.5 104, 53.5 85, 53.5 143   C53.5 155, 61.5 228, 130.5 228   C162.5 228, 228.5 218, 228.5 200  Z " fill="white"/><path stroke="black" stroke-width="0" d="M319.5 180 C319.5 160, 329.5 150, 349.5 150   C369.5 150, 379.5 160, 379.5 180   C379.5 200, 369.5 210, 349.5 210   C329.5 210, 319.5 200, 319.5 180  Z " fill="black"/><path stroke="black" stroke-width="0" d="M180.5 180 C180.5 160, 170.5 150, 150.5 150   C130.5 150, 120.5 160, 120.5 180   C120.5 200, 130.5 210, 150.5 210   C170.5 210, 180.5 200, 180.5 180  Z " fill="black"/></svg>

  </svg>