<?xml version="1.0" encoding="UTF-8" standalone="no"?><svg xmlns="http://www.w3.org/2000/svg" id="montage">
    <svg id="ear"><path stroke="black" stroke-width="1" d="M411.8033988749895 132.44294954150536 C441.8033988749895 174.44294954150536, 511.1037151198634 85.88636910856866, 439.1037151198634 184.88636910856866   " fill="white"/><path stroke="black" stroke-width="1" d="M88.19660112501052 132.44294954150536 C58.19660112501052 174.44294954150536, -11.10371511986338 85.88636910856866, 60.89628488013662 184.88636910856866   " fill="white"/></svg>
    <circle id="countor" stroke="black" cx="250" cy="250" r="200" stroke-width="3" fill="white"/>
    <svg id="mouth"><path stroke="black" stroke-width="1" d="M150 300 C160 308, 340 308, 350 300   M150 300 C90 225, 410 225, 350 300" fill="white"/></svg>
    <svg id="eye"><path stroke="black" stroke-width="1" d="M304.5 142 C304.5 110, 276.5 55, 335.5 55   C360.5 55, 436.5 137, 436.5 154   C436.5 210, 438.5 224, 367.5 224   C323.5 224, 304.5 155, 304.5 142  Z " fill="white"/><path stroke="black" stroke-width="1" d="M195.5 142 C195.5 110, 223.5 55, 164.5 55   C139.5 55, 63.5 137, 63.5 154   C63.5 210, 61.5 224, 132.5 224   C176.5 224, 195.5 155, 195.5 142  Z " fill="white"/><path stroke="black" stroke-width="0" d="M311.5 152 C311.5 132, 321.5 122, 341.5 122   C361.5 122, 371.5 132, 371.5 152   C371.5 172, 361.5 182, 341.5 182   C321.5 182, 311.5 172, 311.5 152  Z " fill="black"/><path stroke="black" stroke-width="0" d="M188.5 152 C188.5 132, 178.5 122, 158.5 122   C138.5 122, 128.5 132, 128.5 152   C128.5 172, 138.5 182, 158.5 182   C178.5 182, 188.5 172, 188.5 152  Z " fill="black"/></svg>

  </svg>