<?xml version="1.0" encoding="UTF-8" standalone="no"?><svg xmlns="http://www.w3.org/2000/svg" id="montage">
    <svg id="ear"><path stroke="black" stroke-width="1" d="M305.12747116339983 57.74766081233622 C377.12747116339983 -35.25233918766378, 503.9043790736547 132.9056926535307, 448.9043790736547 270.9056926535307   " fill="white"/><path stroke="black" stroke-width="1" d="M194.87252883660017 57.74766081233622 C122.87252883660017 -35.25233918766378, -3.904379073654667 132.9056926535307, 51.09562092634533 270.9056926535307   " fill="white"/></svg>
    <circle id="countor" stroke="black" cx="250" cy="250" r="200" stroke-width="3" fill="white"/>
    <svg id="mouth"><path stroke="black" stroke-width="1" d="M122 421 C92 423, 408 423, 378 421   M122 421 C136 465, 364 465, 378 421" fill="white"/></svg>
    <svg id="eye"><path stroke="black" stroke-width="1" d="M250 90 C250 51, 320 86, 346 86   C386 86, 442 145, 442 172   C442 215, 389 167, 351 167   C301 167, 250 132, 250 90  Z " fill="white"/><path stroke="black" stroke-width="1" d="M250 90 C250 51, 180 86, 154 86   C114 86, 58 145, 58 172   C58 215, 111 167, 149 167   C199 167, 250 132, 250 90  Z " fill="white"/><path stroke="black" stroke-width="0" d="M317 132 C317 112, 327 102, 347 102   C367 102, 377 112, 377 132   C377 152, 367 162, 347 162   C327 162, 317 152, 317 132  Z " fill="black"/><path stroke="black" stroke-width="0" d="M183 132 C183 112, 173 102, 153 102   C133 102, 123 112, 123 132   C123 152, 133 162, 153 162   C173 162, 183 152, 183 132  Z " fill="black"/></svg>

  </svg>