<?xml version="1.0" encoding="UTF-8" standalone="no"?><svg xmlns="http://www.w3.org/2000/svg" id="montage">
    <svg id="ear"/>
    <circle id="countor" stroke="black" cx="250" cy="250" r="200" stroke-width="3" fill="white"/>
    <svg id="mouth"><path stroke="black" stroke-width="1" d="M178.5 413 C130.5 459, 369.5 459, 321.5 413   M178.5 413 C30.5 539, 469.5 539, 321.5 413" fill="white"/></svg>
    <svg id="eye"><path stroke="black" stroke-width="1" d="M245 217 C245 195, 240 145, 300 145   C368 145, 439 189, 439 232   C439 272, 383 238, 332 238   C255 238, 245 282, 245 217  Z " fill="white"/><path stroke="black" stroke-width="1" d="M255 217 C255 195, 260 145, 200 145   C132 145, 61 189, 61 232   C61 272, 117 238, 168 238   C245 238, 255 282, 255 217  Z " fill="white"/><path stroke="black" stroke-width="0" d="M311 203 C311 183, 321 173, 341 173   C361 173, 371 183, 371 203   C371 223, 361 233, 341 233   C321 233, 311 223, 311 203  Z " fill="black"/><path stroke="black" stroke-width="0" d="M189 203 C189 183, 179 173, 159 173   C139 173, 129 183, 129 203   C129 223, 139 233, 159 233   C179 233, 189 223, 189 203  Z " fill="black"/></svg>

  </svg>