<?xml version="1.0" encoding="UTF-8" standalone="no"?><svg xmlns="http://www.w3.org/2000/svg" id="montage">
    <svg id="ear"><path stroke="black" stroke-width="1" d="M398.62896509547886 116.17387872822835 C531.6289650954789 -9.826121271771655, 496.23893961834915 422.5688514504684, 449.23893961834915 232.56885145046837   " fill="white"/><path stroke="black" stroke-width="1" d="M101.37103490452114 116.17387872822835 C-31.62896509547886 -9.826121271771655, 3.7610603816508785 422.5688514504684, 50.76106038165088 232.56885145046837   " fill="white"/></svg>
    <circle id="countor" stroke="black" cx="250" cy="250" r="200" stroke-width="3" fill="white"/>
    <svg id="mouth"><path stroke="black" stroke-width="1" d="M165.5 280 C158.5 269, 341.5 269, 334.5 280   M165.5 280 C179.5 307, 320.5 307, 334.5 280" fill="white"/></svg>
    <svg id="eye"><path stroke="black" stroke-width="1" d="M282 170 C282 134, 322 129, 378 129   C448 129, 452 53, 452 133   C452 159, 349 221, 339 221   C325 221, 282 196, 282 170  Z " fill="white"/><path stroke="black" stroke-width="1" d="M218 170 C218 134, 178 129, 122 129   C52 129, 48 53, 48 133   C48 159, 151 221, 161 221   C175 221, 218 196, 218 170  Z " fill="white"/><path stroke="black" stroke-width="0" d="M315 176 C315 156, 325 146, 345 146   C365 146, 375 156, 375 176   C375 196, 365 206, 345 206   C325 206, 315 196, 315 176  Z " fill="black"/><path stroke="black" stroke-width="0" d="M185 176 C185 156, 175 146, 155 146   C135 146, 125 156, 125 176   C125 196, 135 206, 155 206   C175 206, 185 196, 185 176  Z " fill="black"/></svg>

  </svg>