<?xml version="1.0" encoding="UTF-8" standalone="no"?><svg xmlns="http://www.w3.org/2000/svg" id="montage">
    <svg id="ear"><path stroke="black" stroke-width="1" d="M424.9239414278792 153.0380759507326 C563.9239414278792 281.0380759507326, 565.3254366895328 381.161799075309, 446.3254366895328 288.161799075309   " fill="white"/><path stroke="black" stroke-width="1" d="M75.07605857212084 153.0380759507326 C-63.92394142787916 281.0380759507326, -65.32543668953281 381.161799075309, 53.67456331046719 288.161799075309   " fill="white"/></svg>
    <circle id="countor" stroke="black" cx="250" cy="250" r="200" stroke-width="3" fill="white"/>
    <svg id="mouth"><path stroke="black" stroke-width="1" d="M142.5 337 C191.5 295, 308.5 295, 357.5 337   M142.5 337 C162.5 190, 337.5 190, 357.5 337" fill="white"/></svg>
    <svg id="eye"><path stroke="black" stroke-width="1" d="M240.5 224 C240.5 212, 293.5 142, 354.5 142   C425.5 142, 462.5 168, 462.5 190   C462.5 245, 347.5 278, 322.5 278   C302.5 278, 240.5 261, 240.5 224  Z " fill="white"/><path stroke="black" stroke-width="1" d="M259.5 224 C259.5 212, 206.5 142, 145.5 142   C74.5 142, 37.5 168, 37.5 190   C37.5 245, 152.5 278, 177.5 278   C197.5 278, 259.5 261, 259.5 224  Z " fill="white"/><path stroke="black" stroke-width="0" d="M318.5 224 C318.5 204, 328.5 194, 348.5 194   C368.5 194, 378.5 204, 378.5 224   C378.5 244, 368.5 254, 348.5 254   C328.5 254, 318.5 244, 318.5 224  Z " fill="black"/><path stroke="black" stroke-width="0" d="M181.5 224 C181.5 204, 171.5 194, 151.5 194   C131.5 194, 121.5 204, 121.5 224   C121.5 244, 131.5 254, 151.5 254   C171.5 254, 181.5 244, 181.5 224  Z " fill="black"/></svg>

  </svg>