<?xml version="1.0" encoding="UTF-8" standalone="no"?><svg xmlns="http://www.w3.org/2000/svg" id="montage">
    <svg id="ear"/>
    <circle id="countor" stroke="black" cx="250" cy="250" r="200" stroke-width="3" fill="white"/>
    <svg id="mouth"><path stroke="black" stroke-width="1" d="M234 295 C237 246, 263 246, 266 295   M234 295 C156 431, 344 431, 266 295" fill="white"/></svg>
    <svg id="eye"><path stroke="black" stroke-width="1" d="M254.5 144 C254.5 94, 329.5 64, 380.5 64   C408.5 64, 385.5 69, 385.5 143   C385.5 181, 344.5 196, 322.5 196   C283.5 196, 254.5 207, 254.5 144  Z " fill="white"/><path stroke="black" stroke-width="1" d="M245.5 144 C245.5 94, 170.5 64, 119.5 64   C91.5 64, 114.5 69, 114.5 143   C114.5 181, 155.5 196, 177.5 196   C216.5 196, 245.5 207, 245.5 144  Z " fill="white"/><path stroke="black" stroke-width="0" d="M315.5 134 C315.5 114, 325.5 104, 345.5 104   C365.5 104, 375.5 114, 375.5 134   C375.5 154, 365.5 164, 345.5 164   C325.5 164, 315.5 154, 315.5 134  Z " fill="black"/><path stroke="black" stroke-width="0" d="M184.5 134 C184.5 114, 174.5 104, 154.5 104   C134.5 104, 124.5 114, 124.5 134   C124.5 154, 134.5 164, 154.5 164   C174.5 164, 184.5 154, 184.5 134  Z " fill="black"/></svg>

  </svg>