<?xml version="1.0" encoding="UTF-8" standalone="no"?><svg xmlns="http://www.w3.org/2000/svg" id="montage">
    <svg id="ear"/>
    <circle id="countor" stroke="black" cx="250" cy="250" r="200" stroke-width="3" fill="white"/>
    <svg id="mouth"><path stroke="black" stroke-width="1" d="M202 411 C230 389, 270 389, 298 411   M202 411 C53 550, 447 550, 298 411" fill="white"/></svg>
    <svg id="eye"><path stroke="black" stroke-width="1" d="M223.5 167 C223.5 90, 324.5 95, 386.5 95   C458.5 95, 382.5 81, 382.5 102   C382.5 133, 462.5 183, 392.5 183   C325.5 183, 223.5 245, 223.5 167  Z " fill="white"/><path stroke="black" stroke-width="1" d="M276.5 167 C276.5 90, 175.5 95, 113.5 95   C41.5 95, 117.5 81, 117.5 102   C117.5 133, 37.5 183, 107.5 183   C174.5 183, 276.5 245, 276.5 167  Z " fill="white"/><path stroke="black" stroke-width="0" d="M313.5 139 C313.5 119, 323.5 109, 343.5 109   C363.5 109, 373.5 119, 373.5 139   C373.5 159, 363.5 169, 343.5 169   C323.5 169, 313.5 159, 313.5 139  Z " fill="black"/><path stroke="black" stroke-width="0" d="M186.5 139 C186.5 119, 176.5 109, 156.5 109   C136.5 109, 126.5 119, 126.5 139   C126.5 159, 136.5 169, 156.5 169   C176.5 169, 186.5 159, 186.5 139  Z " fill="black"/></svg>

  </svg>