<?xml version="1.0" encoding="UTF-8" standalone="no"?><svg xmlns="http://www.w3.org/2000/svg" id="montage">
    <svg id="ear"/>
    <circle id="countor" stroke="black" cx="250" cy="250" r="200" stroke-width="3" fill="white"/>
    <svg id="mouth"><path stroke="black" stroke-width="1" d="M146 310 C151 323, 349 323, 354 310   M146 310 C165 203, 335 203, 354 310" fill="white"/></svg>
    <svg id="eye"><path stroke="black" stroke-width="1" d="M243 199 C243 140, 349 131, 393 131   C421 131, 430 166, 430 188   C430 204, 456 280, 396 280   C360 280, 243 252, 243 199  Z " fill="white"/><path stroke="black" stroke-width="1" d="M257 199 C257 140, 151 131, 107 131   C79 131, 70 166, 70 188   C70 204, 44 280, 104 280   C140 280, 257 252, 257 199  Z " fill="white"/><path stroke="black" stroke-width="0" d="M320 184 C320 164, 330 154, 350 154   C370 154, 380 164, 380 184   C380 204, 370 214, 350 214   C330 214, 320 204, 320 184  Z " fill="black"/><path stroke="black" stroke-width="0" d="M180 184 C180 164, 170 154, 150 154   C130 154, 120 164, 120 184   C120 204, 130 214, 150 214   C170 214, 180 204, 180 184  Z " fill="black"/></svg>

  </svg>