<?xml version="1.0" encoding="UTF-8" standalone="no"?><svg xmlns="http://www.w3.org/2000/svg" id="montage">
    <svg id="ear"><path stroke="black" stroke-width="1" d="M449.96953903127826 246.5095187125433 C531.9695390312783 122.5095187125433, 599.1009706904881 525.1462256978548, 434.1009706904881 328.14622569785473   " fill="white"/><path stroke="black" stroke-width="1" d="M50.03046096872174 246.5095187125433 C-31.96953903127826 122.5095187125433, -99.10097069048808 525.1462256978548, 65.89902930951192 328.14622569785473   " fill="white"/></svg>
    <circle id="countor" stroke="black" cx="250" cy="250" r="200" stroke-width="3" fill="white"/>
    <svg id="mouth"><path stroke="black" stroke-width="1" d="M136 377 C184 330, 316 330, 364 377   M136 377 C42 272, 458 272, 364 377" fill="white"/></svg>
    <svg id="eye"><path stroke="black" stroke-width="1" d="M238.5 236 C238.5 218, 334.5 103, 385.5 103   C450.5 103, 458.5 113, 458.5 169   C458.5 188, 395.5 279, 347.5 279   C279.5 279, 238.5 275, 238.5 236  Z " fill="white"/><path stroke="black" stroke-width="1" d="M261.5 236 C261.5 218, 165.5 103, 114.5 103   C49.5 103, 41.5 113, 41.5 169   C41.5 188, 104.5 279, 152.5 279   C220.5 279, 261.5 275, 261.5 236  Z " fill="white"/><path stroke="black" stroke-width="0" d="M312.5 203 C312.5 183, 322.5 173, 342.5 173   C362.5 173, 372.5 183, 372.5 203   C372.5 223, 362.5 233, 342.5 233   C322.5 233, 312.5 223, 312.5 203  Z " fill="black"/><path stroke="black" stroke-width="0" d="M187.5 203 C187.5 183, 177.5 173, 157.5 173   C137.5 173, 127.5 183, 127.5 203   C127.5 223, 137.5 233, 157.5 233   C177.5 233, 187.5 223, 187.5 203  Z " fill="black"/></svg>

  </svg>