<?xml version="1.0" encoding="UTF-8" standalone="no"?><svg xmlns="http://www.w3.org/2000/svg" id="montage">
    <svg id="ear"/>
    <circle id="countor" stroke="black" cx="250" cy="250" r="200" stroke-width="3" fill="white"/>
    <svg id="mouth"><path stroke="black" stroke-width="1" d="M226.5 335 C208.5 306, 291.5 306, 273.5 335   M226.5 335 C272.5 244, 227.5 244, 273.5 335" fill="white"/></svg>
    <svg id="eye"><path stroke="black" stroke-width="1" d="M240.5 133 C240.5 111, 265.5 132, 340.5 132   C369.5 132, 386.5 108, 386.5 170   C386.5 246, 339.5 259, 312.5 259   C235.5 259, 240.5 162, 240.5 133  Z " fill="white"/><path stroke="black" stroke-width="1" d="M259.5 133 C259.5 111, 234.5 132, 159.5 132   C130.5 132, 113.5 108, 113.5 170   C113.5 246, 160.5 259, 187.5 259   C264.5 259, 259.5 162, 259.5 133  Z " fill="white"/><path stroke="black" stroke-width="0" d="M317.5 171 C317.5 151, 327.5 141, 347.5 141   C367.5 141, 377.5 151, 377.5 171   C377.5 191, 367.5 201, 347.5 201   C327.5 201, 317.5 191, 317.5 171  Z " fill="black"/><path stroke="black" stroke-width="0" d="M182.5 171 C182.5 151, 172.5 141, 152.5 141   C132.5 141, 122.5 151, 122.5 171   C122.5 191, 132.5 201, 152.5 201   C172.5 201, 182.5 191, 182.5 171  Z " fill="black"/></svg>

  </svg>