<?xml version="1.0" encoding="UTF-8" standalone="no"?><svg xmlns="http://www.w3.org/2000/svg" id="montage">
    <svg id="ear"/>
    <circle id="countor" stroke="black" cx="250" cy="250" r="200" stroke-width="3" fill="white"/>
    <svg id="mouth"><path stroke="black" stroke-width="1" d="M144 286 C104 306, 396 306, 356 286   M144 286 C49 354, 451 354, 356 286" fill="white"/></svg>
    <svg id="eye"><path stroke="black" stroke-width="1" d="M257 210 C257 182, 331 121, 386 121   C396 121, 406 236, 406 249   C406 316, 330 264, 291 264   C275 264, 257 267, 257 210  Z " fill="white"/><path stroke="black" stroke-width="1" d="M243 210 C243 182, 169 121, 114 121   C104 121, 94 236, 94 249   C94 316, 170 264, 209 264   C225 264, 243 267, 243 210  Z " fill="white"/><path stroke="black" stroke-width="0" d="M311 218 C311 198, 321 188, 341 188   C361 188, 371 198, 371 218   C371 238, 361 248, 341 248   C321 248, 311 238, 311 218  Z " fill="black"/><path stroke="black" stroke-width="0" d="M189 218 C189 198, 179 188, 159 188   C139 188, 129 198, 129 218   C129 238, 139 248, 159 248   C179 248, 189 238, 189 218  Z " fill="black"/></svg>

  </svg>