<?xml version="1.0" encoding="UTF-8" standalone="no"?><svg xmlns="http://www.w3.org/2000/svg" id="montage">
    <svg id="ear"/>
    <circle id="countor" stroke="black" cx="250" cy="250" r="200" stroke-width="3" fill="white"/>
    <svg id="mouth"><path stroke="black" stroke-width="1" d="M125.5 282 C101.5 285, 398.5 285, 374.5 282   M125.5 282 C57.5 323, 442.5 323, 374.5 282" fill="white"/></svg>
    <svg id="eye"><path stroke="black" stroke-width="1" d="M233.5 108 C233.5 52, 329.5 59, 341.5 59   C379.5 59, 457.5 97, 457.5 174   C457.5 214, 373.5 234, 350.5 234   C287.5 234, 233.5 146, 233.5 108  Z " fill="white"/><path stroke="black" stroke-width="1" d="M266.5 108 C266.5 52, 170.5 59, 158.5 59   C120.5 59, 42.5 97, 42.5 174   C42.5 214, 126.5 234, 149.5 234   C212.5 234, 266.5 146, 266.5 108  Z " fill="white"/><path stroke="black" stroke-width="0" d="M312.5 154 C312.5 134, 322.5 124, 342.5 124   C362.5 124, 372.5 134, 372.5 154   C372.5 174, 362.5 184, 342.5 184   C322.5 184, 312.5 174, 312.5 154  Z " fill="black"/><path stroke="black" stroke-width="0" d="M187.5 154 C187.5 134, 177.5 124, 157.5 124   C137.5 124, 127.5 134, 127.5 154   C127.5 174, 137.5 184, 157.5 184   C177.5 184, 187.5 174, 187.5 154  Z " fill="black"/></svg>

  </svg>