<?xml version="1.0" encoding="UTF-8" standalone="no"?><svg xmlns="http://www.w3.org/2000/svg" id="montage">
    <svg id="ear"/>
    <circle id="countor" stroke="black" cx="250" cy="250" r="200" stroke-width="3" fill="white"/>
    <svg id="mouth"><path stroke="black" stroke-width="1" d="M126.5 319 C78.5 321, 421.5 321, 373.5 319   M126.5 319 C73.5 415, 426.5 415, 373.5 319" fill="white"/></svg>
    <svg id="eye"><path stroke="black" stroke-width="1" d="M279 130 C279 74, 266 105, 340 105   C413 105, 430 121, 430 153   C430 171, 354 274, 309 274   C271 274, 279 146, 279 130  Z " fill="white"/><path stroke="black" stroke-width="1" d="M221 130 C221 74, 234 105, 160 105   C87 105, 70 121, 70 153   C70 171, 146 274, 191 274   C229 274, 221 146, 221 130  Z " fill="white"/><path stroke="black" stroke-width="0" d="M310 162 C310 142, 320 132, 340 132   C360 132, 370 142, 370 162   C370 182, 360 192, 340 192   C320 192, 310 182, 310 162  Z " fill="black"/><path stroke="black" stroke-width="0" d="M190 162 C190 142, 180 132, 160 132   C140 132, 130 142, 130 162   C130 182, 140 192, 160 192   C180 192, 190 182, 190 162  Z " fill="black"/></svg>

  </svg>