<?xml version="1.0" encoding="UTF-8" standalone="no"?><svg xmlns="http://www.w3.org/2000/svg" id="montage">
    <svg id="ear"><path stroke="black" stroke-width="1" d="M444.05914525519927 201.61562088006644 C541.0591452551993 24.615620880066444, 452.20130483767355 215.79809994790935, 428.20130483767355 340.79809994790935   " fill="white"/><path stroke="black" stroke-width="1" d="M55.9408547448007 201.61562088006644 C-41.0591452551993 24.615620880066444, 47.798695162326425 215.79809994790935, 71.79869516232642 340.79809994790935   " fill="white"/></svg>
    <circle id="countor" stroke="black" cx="250" cy="250" r="200" stroke-width="3" fill="white"/>
    <svg id="mouth"><path stroke="black" stroke-width="1" d="M176.5 297 C173.5 303, 326.5 303, 323.5 297   M176.5 297 C137.5 441, 362.5 441, 323.5 297" fill="white"/></svg>
    <svg id="eye"><path stroke="black" stroke-width="1" d="M291.5 198 C291.5 185, 289.5 128, 325.5 128   C392.5 128, 379.5 138, 379.5 172   C379.5 224, 378.5 299, 337.5 299   C270.5 299, 291.5 238, 291.5 198  Z " fill="white"/><path stroke="black" stroke-width="1" d="M208.5 198 C208.5 185, 210.5 128, 174.5 128   C107.5 128, 120.5 138, 120.5 172   C120.5 224, 121.5 299, 162.5 299   C229.5 299, 208.5 238, 208.5 198  Z " fill="white"/><path stroke="black" stroke-width="0" d="M312.5 220 C312.5 200, 322.5 190, 342.5 190   C362.5 190, 372.5 200, 372.5 220   C372.5 240, 362.5 250, 342.5 250   C322.5 250, 312.5 240, 312.5 220  Z " fill="black"/><path stroke="black" stroke-width="0" d="M187.5 220 C187.5 200, 177.5 190, 157.5 190   C137.5 190, 127.5 200, 127.5 220   C127.5 240, 137.5 250, 157.5 250   C177.5 250, 187.5 240, 187.5 220  Z " fill="black"/></svg>

  </svg>