<?xml version="1.0" encoding="UTF-8" standalone="no"?><svg xmlns="http://www.w3.org/2000/svg" id="montage">
    <svg id="ear"/>
    <circle id="countor" stroke="black" cx="250" cy="250" r="200" stroke-width="3" fill="white"/>
    <svg id="mouth"><path stroke="black" stroke-width="1" d="M138 422 C129 375, 371 375, 362 422   M138 422 C156 430, 344 430, 362 422" fill="white"/></svg>
    <svg id="eye"><path stroke="black" stroke-width="1" d="M273.5 187 C273.5 168, 286.5 127, 353.5 127   C432.5 127, 405.5 212, 405.5 244   C405.5 269, 370.5 261, 338.5 261   C279.5 261, 273.5 234, 273.5 187  Z " fill="white"/><path stroke="black" stroke-width="1" d="M226.5 187 C226.5 168, 213.5 127, 146.5 127   C67.5 127, 94.5 212, 94.5 244   C94.5 269, 129.5 261, 161.5 261   C220.5 261, 226.5 234, 226.5 187  Z " fill="white"/><path stroke="black" stroke-width="0" d="M314.5 200 C314.5 180, 324.5 170, 344.5 170   C364.5 170, 374.5 180, 374.5 200   C374.5 220, 364.5 230, 344.5 230   C324.5 230, 314.5 220, 314.5 200  Z " fill="black"/><path stroke="black" stroke-width="0" d="M185.5 200 C185.5 180, 175.5 170, 155.5 170   C135.5 170, 125.5 180, 125.5 200   C125.5 220, 135.5 230, 155.5 230   C175.5 230, 185.5 220, 185.5 200  Z " fill="black"/></svg>

  </svg>