<?xml version="1.0" encoding="UTF-8" standalone="no"?><svg xmlns="http://www.w3.org/2000/svg" id="montage">
    <svg id="ear"><path stroke="black" stroke-width="1" d="M334.5236523481399 68.73844259267003 C429.5236523481399 8.738442592670026, 532.9615506024415 286.72963553338604, 446.9615506024416 284.72963553338604   " fill="white"/><path stroke="black" stroke-width="1" d="M165.47634765186012 68.73844259267003 C70.47634765186012 8.738442592670026, -32.961550602441605 286.72963553338604, 53.038449397558395 284.72963553338604   " fill="white"/></svg>
    <circle id="countor" stroke="black" cx="250" cy="250" r="200" stroke-width="3" fill="white"/>
    <svg id="mouth"><path stroke="black" stroke-width="1" d="M218 398 C198 418, 302 418, 282 398   M218 398 C166 546, 334 546, 282 398" fill="white"/></svg>
    <svg id="eye"><path stroke="black" stroke-width="1" d="M275.5 249 C275.5 178, 352.5 181, 375.5 181   C431.5 181, 415.5 125, 415.5 195   C415.5 219, 369.5 319, 303.5 319   C269.5 319, 275.5 328, 275.5 249  Z " fill="white"/><path stroke="black" stroke-width="1" d="M224.5 249 C224.5 178, 147.5 181, 124.5 181   C68.5 181, 84.5 125, 84.5 195   C84.5 219, 130.5 319, 196.5 319   C230.5 319, 224.5 328, 224.5 249  Z " fill="white"/><path stroke="black" stroke-width="0" d="M312.5 226 C312.5 206, 322.5 196, 342.5 196   C362.5 196, 372.5 206, 372.5 226   C372.5 246, 362.5 256, 342.5 256   C322.5 256, 312.5 246, 312.5 226  Z " fill="black"/><path stroke="black" stroke-width="0" d="M187.5 226 C187.5 206, 177.5 196, 157.5 196   C137.5 196, 127.5 206, 127.5 226   C127.5 246, 137.5 256, 157.5 256   C177.5 256, 187.5 246, 187.5 226  Z " fill="black"/></svg>

  </svg>