<?xml version="1.0" encoding="UTF-8" standalone="no"?><svg xmlns="http://www.w3.org/2000/svg" id="montage">
    <svg id="ear"><path stroke="black" stroke-width="1" d="M436.71608529944035 178.32641009093993 C636.7160852994404 223.32641009093993, 494.9615506024416 358.72963553338604, 446.9615506024416 284.72963553338604   " fill="white"/><path stroke="black" stroke-width="1" d="M63.28391470055965 178.32641009093993 C-136.71608529944035 223.32641009093993, 5.038449397558395 358.72963553338604, 53.038449397558395 284.72963553338604   " fill="white"/></svg>
    <circle id="countor" stroke="black" cx="250" cy="250" r="200" stroke-width="3" fill="white"/>
    <svg id="mouth"><path stroke="black" stroke-width="1" d="M195 282 C149 272, 351 272, 305 282   M195 282 C140 213, 360 213, 305 282" fill="white"/></svg>
    <svg id="eye"><path stroke="black" stroke-width="1" d="M312 195 C312 147, 357 75, 398 75   C413 75, 394 70, 394 147   C394 157, 447 209, 383 209   C358 209, 312 272, 312 195  Z " fill="white"/><path stroke="black" stroke-width="1" d="M188 195 C188 147, 143 75, 102 75   C87 75, 106 70, 106 147   C106 157, 53 209, 117 209   C142 209, 188 272, 188 195  Z " fill="white"/><path stroke="black" stroke-width="0" d="M319 155 C319 135, 329 125, 349 125   C369 125, 379 135, 379 155   C379 175, 369 185, 349 185   C329 185, 319 175, 319 155  Z " fill="black"/><path stroke="black" stroke-width="0" d="M181 155 C181 135, 171 125, 151 125   C131 125, 121 135, 121 155   C121 175, 131 185, 151 185   C171 185, 181 175, 181 155  Z " fill="black"/></svg>

  </svg>