<?xml version="1.0" encoding="UTF-8" standalone="no"?><svg xmlns="http://www.w3.org/2000/svg" id="montage">
    <svg id="ear"><path stroke="black" stroke-width="1" d="M370.36300463040965 90.27289799054142 C560.3630046304097 20.272897990541423, 511.18516525781365 227.76380902050414, 443.18516525781365 301.76380902050414   " fill="white"/><path stroke="black" stroke-width="1" d="M129.63699536959035 90.27289799054142 C-60.36300463040965 20.272897990541423, -11.185165257813651 227.76380902050414, 56.81483474218635 301.76380902050414   " fill="white"/></svg>
    <circle id="countor" stroke="black" cx="250" cy="250" r="200" stroke-width="3" fill="white"/>
    <svg id="mouth"><path stroke="black" stroke-width="1" d="M151 374 C114 397, 386 397, 349 374   M151 374 C250 330, 250 330, 349 374" fill="white"/></svg>
    <svg id="eye"><path stroke="black" stroke-width="1" d="M222.5 207 C222.5 187, 312.5 138, 373.5 138   C426.5 138, 444.5 135, 444.5 161   C444.5 195, 410.5 286, 346.5 286   C279.5 286, 222.5 269, 222.5 207  Z " fill="white"/><path stroke="black" stroke-width="1" d="M277.5 207 C277.5 187, 187.5 138, 126.5 138   C73.5 138, 55.5 135, 55.5 161   C55.5 195, 89.5 286, 153.5 286   C220.5 286, 277.5 269, 277.5 207  Z " fill="white"/><path stroke="black" stroke-width="0" d="M311.5 187 C311.5 167, 321.5 157, 341.5 157   C361.5 157, 371.5 167, 371.5 187   C371.5 207, 361.5 217, 341.5 217   C321.5 217, 311.5 207, 311.5 187  Z " fill="black"/><path stroke="black" stroke-width="0" d="M188.5 187 C188.5 167, 178.5 157, 158.5 157   C138.5 157, 128.5 167, 128.5 187   C128.5 207, 138.5 217, 158.5 217   C178.5 217, 188.5 207, 188.5 187  Z " fill="black"/></svg>

  </svg>