<?xml version="1.0" encoding="UTF-8" standalone="no"?><svg xmlns="http://www.w3.org/2000/svg" id="montage">
    <svg id="ear"><path stroke="black" stroke-width="1" d="M446.9615506024416 215.27036446661393 C575.9615506024415 58.27036446661393, 563.4367709133575 452.9213186831824, 435.43677091335746 324.9213186831824   " fill="white"/><path stroke="black" stroke-width="1" d="M53.038449397558395 215.27036446661393 C-75.9615506024416 58.27036446661393, -63.43677091335749 452.9213186831824, 64.56322908664251 324.9213186831824   " fill="white"/></svg>
    <circle id="countor" stroke="black" cx="250" cy="250" r="200" stroke-width="3" fill="white"/>
    <svg id="mouth"><path stroke="black" stroke-width="1" d="M220.5 275 C182.5 292, 317.5 292, 279.5 275   M220.5 275 C360.5 131, 139.5 131, 279.5 275" fill="white"/></svg>
    <svg id="eye"><path stroke="black" stroke-width="1" d="M250 235 C250 178, 330 134, 363 134   C426 134, 437 150, 437 164   C437 233, 376 295, 345 295   C317 295, 250 253, 250 235  Z " fill="white"/><path stroke="black" stroke-width="1" d="M250 235 C250 178, 170 134, 137 134   C74 134, 63 150, 63 164   C63 233, 124 295, 155 295   C183 295, 250 253, 250 235  Z " fill="white"/><path stroke="black" stroke-width="0" d="M316 200 C316 180, 326 170, 346 170   C366 170, 376 180, 376 200   C376 220, 366 230, 346 230   C326 230, 316 220, 316 200  Z " fill="black"/><path stroke="black" stroke-width="0" d="M184 200 C184 180, 174 170, 154 170   C134 170, 124 180, 124 200   C124 220, 134 230, 154 230   C174 230, 184 220, 184 200  Z " fill="black"/></svg>

  </svg>