<?xml version="1.0" encoding="UTF-8" standalone="no"?><svg xmlns="http://www.w3.org/2000/svg" id="montage">
    <svg id="ear"><path stroke="black" stroke-width="1" d="M415.8075145110083 138.16141930585061 C436.8075145110083 209.16141930585061, 637.1851652578137 356.76380902050414, 443.18516525781365 301.76380902050414   " fill="white"/><path stroke="black" stroke-width="1" d="M84.19248548899168 138.16141930585061 C63.19248548899168 209.16141930585061, -137.18516525781365 356.76380902050414, 56.81483474218635 301.76380902050414   " fill="white"/></svg>
    <circle id="countor" stroke="black" cx="250" cy="250" r="200" stroke-width="3" fill="white"/>
    <svg id="mouth"><path stroke="black" stroke-width="1" d="M219.5 411 C255.5 459, 244.5 459, 280.5 411   M219.5 411 C76.5 479, 423.5 479, 280.5 411" fill="white"/></svg>
    <svg id="eye"><path stroke="black" stroke-width="1" d="M287 183 C287 129, 269 92, 345 92   C392 92, 422 115, 422 173   C422 214, 366 264, 345 264   C287 264, 287 216, 287 183  Z " fill="white"/><path stroke="black" stroke-width="1" d="M213 183 C213 129, 231 92, 155 92   C108 92, 78 115, 78 173   C78 214, 134 264, 155 264   C213 264, 213 216, 213 183  Z " fill="white"/><path stroke="black" stroke-width="0" d="M318 151 C318 131, 328 121, 348 121   C368 121, 378 131, 378 151   C378 171, 368 181, 348 181   C328 181, 318 171, 318 151  Z " fill="black"/><path stroke="black" stroke-width="0" d="M182 151 C182 131, 172 121, 152 121   C132 121, 122 131, 122 151   C122 171, 132 181, 152 181   C172 181, 182 171, 182 151  Z " fill="black"/></svg>

  </svg>