<?xml version="1.0" encoding="UTF-8" standalone="no"?><svg xmlns="http://www.w3.org/2000/svg" id="montage">
    <svg id="ear"><path stroke="black" stroke-width="1" d="M396.2707403238341 113.6003279875003 C454.2707403238341 -24.399672012499707, 519.1037151198634 174.11363089143134, 439.1037151198634 315.11363089143134   " fill="white"/><path stroke="black" stroke-width="1" d="M103.7292596761659 113.6003279875003 C45.729259676165896 -24.399672012499707, -19.10371511986338 174.11363089143134, 60.89628488013662 315.11363089143134   " fill="white"/></svg>
    <circle id="countor" stroke="black" cx="250" cy="250" r="200" stroke-width="3" fill="white"/>
    <svg id="mouth"><path stroke="black" stroke-width="1" d="M157 363 C190 413, 310 413, 343 363   M157 363 C204 297, 296 297, 343 363" fill="white"/></svg>
    <svg id="eye"><path stroke="black" stroke-width="1" d="M313.5 131 C313.5 85, 283.5 26, 328.5 26   C382.5 26, 397.5 144, 397.5 174   C397.5 187, 380.5 225, 333.5 225   C284.5 225, 313.5 153, 313.5 131  Z " fill="white"/><path stroke="black" stroke-width="1" d="M186.5 131 C186.5 85, 216.5 26, 171.5 26   C117.5 26, 102.5 144, 102.5 174   C102.5 187, 119.5 225, 166.5 225   C215.5 225, 186.5 153, 186.5 131  Z " fill="white"/><path stroke="black" stroke-width="0" d="M318.5 136 C318.5 116, 328.5 106, 348.5 106   C368.5 106, 378.5 116, 378.5 136   C378.5 156, 368.5 166, 348.5 166   C328.5 166, 318.5 156, 318.5 136  Z " fill="black"/><path stroke="black" stroke-width="0" d="M181.5 136 C181.5 116, 171.5 106, 151.5 106   C131.5 106, 121.5 116, 121.5 136   C121.5 156, 131.5 166, 151.5 166   C171.5 166, 181.5 156, 181.5 136  Z " fill="black"/></svg>

  </svg>