<?xml version="1.0" encoding="UTF-8" standalone="no"?><svg xmlns="http://www.w3.org/2000/svg" id="montage">
    <svg id="ear"/>
    <circle id="countor" stroke="black" cx="250" cy="250" r="200" stroke-width="3" fill="white"/>
    <svg id="mouth"><path stroke="black" stroke-width="1" d="M199 317 C180 356, 320 356, 301 317   M199 317 C224 186, 276 186, 301 317" fill="white"/></svg>
    <svg id="eye"><path stroke="black" stroke-width="1" d="M299.5 234 C299.5 164, 346.5 116, 385.5 116   C436.5 116, 437.5 130, 437.5 143   C437.5 213, 374.5 238, 304.5 238   C281.5 238, 299.5 254, 299.5 234  Z " fill="white"/><path stroke="black" stroke-width="1" d="M200.5 234 C200.5 164, 153.5 116, 114.5 116   C63.5 116, 62.5 130, 62.5 143   C62.5 213, 125.5 238, 195.5 238   C218.5 238, 200.5 254, 200.5 234  Z " fill="white"/><path stroke="black" stroke-width="0" d="M311.5 191 C311.5 171, 321.5 161, 341.5 161   C361.5 161, 371.5 171, 371.5 191   C371.5 211, 361.5 221, 341.5 221   C321.5 221, 311.5 211, 311.5 191  Z " fill="black"/><path stroke="black" stroke-width="0" d="M188.5 191 C188.5 171, 178.5 161, 158.5 161   C138.5 161, 128.5 171, 128.5 191   C128.5 211, 138.5 221, 158.5 221   C178.5 221, 188.5 211, 188.5 191  Z " fill="black"/></svg>

  </svg>