<?xml version="1.0" encoding="UTF-8" standalone="no"?><svg xmlns="http://www.w3.org/2000/svg" id="montage">
    <svg id="ear"/>
    <circle id="countor" stroke="black" cx="250" cy="250" r="200" stroke-width="3" fill="white"/>
    <svg id="mouth"><path stroke="black" stroke-width="1" d="M233 405 C242 371, 258 371, 267 405   M233 405 C129 491, 371 491, 267 405" fill="white"/></svg>
    <svg id="eye"><path stroke="black" stroke-width="1" d="M271.5 239 C271.5 188, 276.5 149, 337.5 149   C399.5 149, 396.5 184, 396.5 240   C396.5 262, 418.5 267, 366.5 267   C343.5 267, 271.5 249, 271.5 239  Z " fill="white"/><path stroke="black" stroke-width="1" d="M228.5 239 C228.5 188, 223.5 149, 162.5 149   C100.5 149, 103.5 184, 103.5 240   C103.5 262, 81.5 267, 133.5 267   C156.5 267, 228.5 249, 228.5 239  Z " fill="white"/><path stroke="black" stroke-width="0" d="M317.5 227 C317.5 207, 327.5 197, 347.5 197   C367.5 197, 377.5 207, 377.5 227   C377.5 247, 367.5 257, 347.5 257   C327.5 257, 317.5 247, 317.5 227  Z " fill="black"/><path stroke="black" stroke-width="0" d="M182.5 227 C182.5 207, 172.5 197, 152.5 197   C132.5 197, 122.5 207, 122.5 227   C122.5 247, 132.5 257, 152.5 257   C172.5 257, 182.5 247, 182.5 227  Z " fill="black"/></svg>

  </svg>