<?xml version="1.0" encoding="UTF-8" standalone="no"?><svg xmlns="http://www.w3.org/2000/svg" id="montage">
    <svg id="ear"><path stroke="black" stroke-width="1" d="M426.5895185717854 156.10568744282182 C483.5895185717854 188.10568744282182, 577.7259069509148 376.4671912485888, 449.7259069509148 260.4671912485888   " fill="white"/><path stroke="black" stroke-width="1" d="M73.41048142821461 156.10568744282182 C16.41048142821461 188.10568744282182, -77.72590695091478 376.4671912485888, 50.274093049085224 260.4671912485888   " fill="white"/></svg>
    <circle id="countor" stroke="black" cx="250" cy="250" r="200" stroke-width="3" fill="white"/>
    <svg id="mouth"><path stroke="black" stroke-width="1" d="M178 395 C169 434, 331 434, 322 395   M178 395 C299 366, 201 366, 322 395" fill="white"/></svg>
    <svg id="eye"><path stroke="black" stroke-width="1" d="M273.5 188 C273.5 147, 285.5 62, 342.5 62   C420.5 62, 418.5 129, 418.5 190   C418.5 227, 350.5 277, 315.5 277   C269.5 277, 273.5 240, 273.5 188  Z " fill="white"/><path stroke="black" stroke-width="1" d="M226.5 188 C226.5 147, 214.5 62, 157.5 62   C79.5 62, 81.5 129, 81.5 190   C81.5 227, 149.5 277, 184.5 277   C230.5 277, 226.5 240, 226.5 188  Z " fill="white"/><path stroke="black" stroke-width="0" d="M317.5 161 C317.5 141, 327.5 131, 347.5 131   C367.5 131, 377.5 141, 377.5 161   C377.5 181, 367.5 191, 347.5 191   C327.5 191, 317.5 181, 317.5 161  Z " fill="black"/><path stroke="black" stroke-width="0" d="M182.5 161 C182.5 141, 172.5 131, 152.5 131   C132.5 131, 122.5 141, 122.5 161   C122.5 181, 132.5 191, 152.5 191   C172.5 191, 182.5 181, 182.5 161  Z " fill="black"/></svg>

  </svg>