<?xml version="1.0" encoding="UTF-8" standalone="no"?><svg xmlns="http://www.w3.org/2000/svg" id="montage">
    <svg id="ear"/>
    <circle id="countor" stroke="black" cx="250" cy="250" r="200" stroke-width="3" fill="white"/>
    <svg id="mouth"><path stroke="black" stroke-width="1" d="M150.5 386 C190.5 397, 309.5 397, 349.5 386   M150.5 386 C147.5 529, 352.5 529, 349.5 386" fill="white"/></svg>
    <svg id="eye"><path stroke="black" stroke-width="1" d="M291.5 191 C291.5 119, 295.5 153, 374.5 153   C454.5 153, 422.5 216, 422.5 241   C422.5 308, 360.5 285, 318.5 285   C287.5 285, 291.5 271, 291.5 191  Z " fill="white"/><path stroke="black" stroke-width="1" d="M208.5 191 C208.5 119, 204.5 153, 125.5 153   C45.5 153, 77.5 216, 77.5 241   C77.5 308, 139.5 285, 181.5 285   C212.5 285, 208.5 271, 208.5 191  Z " fill="white"/><path stroke="black" stroke-width="0" d="M317.5 223 C317.5 203, 327.5 193, 347.5 193   C367.5 193, 377.5 203, 377.5 223   C377.5 243, 367.5 253, 347.5 253   C327.5 253, 317.5 243, 317.5 223  Z " fill="black"/><path stroke="black" stroke-width="0" d="M182.5 223 C182.5 203, 172.5 193, 152.5 193   C132.5 193, 122.5 203, 122.5 223   C122.5 243, 132.5 253, 152.5 253   C172.5 253, 182.5 243, 182.5 223  Z " fill="black"/></svg>

  </svg>