<?xml version="1.0" encoding="UTF-8" standalone="no"?><svg xmlns="http://www.w3.org/2000/svg" id="montage">
    <svg id="ear"/>
    <circle id="countor" stroke="black" cx="250" cy="250" r="200" stroke-width="3" fill="white"/>
    <svg id="mouth"><path stroke="black" stroke-width="1" d="M220.5 311 C261.5 272, 238.5 272, 279.5 311   M220.5 311 C171.5 409, 328.5 409, 279.5 311" fill="white"/></svg>
    <svg id="eye"><path stroke="black" stroke-width="1" d="M229 239 C229 184, 341 122, 392 122   C448 122, 387 161, 387 184   C387 217, 369 270, 332 270   C321 270, 229 280, 229 239  Z " fill="white"/><path stroke="black" stroke-width="1" d="M271 239 C271 184, 159 122, 108 122   C52 122, 113 161, 113 184   C113 217, 131 270, 168 270   C179 270, 271 280, 271 239  Z " fill="white"/><path stroke="black" stroke-width="0" d="M316 215 C316 195, 326 185, 346 185   C366 185, 376 195, 376 215   C376 235, 366 245, 346 245   C326 245, 316 235, 316 215  Z " fill="black"/><path stroke="black" stroke-width="0" d="M184 215 C184 195, 174 185, 154 185   C134 185, 124 195, 124 215   C124 235, 134 245, 154 245   C174 245, 184 235, 184 215  Z " fill="black"/></svg>

  </svg>