<?xml version="1.0" encoding="UTF-8" standalone="no"?><svg xmlns="http://www.w3.org/2000/svg" id="montage">
    <svg id="ear"><path stroke="black" stroke-width="1" d="M288.161799075309 53.67456331046719 C371.161799075309 -56.32543668953281, 532.9695390312783 451.4904812874567, 449.96953903127826 253.4904812874567   " fill="white"/><path stroke="black" stroke-width="1" d="M211.83820092469102 53.67456331046719 C128.83820092469102 -56.32543668953281, -32.96953903127826 451.4904812874567, 50.03046096872174 253.4904812874567   " fill="white"/></svg>
    <circle id="countor" stroke="black" cx="250" cy="250" r="200" stroke-width="3" fill="white"/>
    <svg id="mouth"><path stroke="black" stroke-width="1" d="M208.5 308 C204.5 306, 295.5 306, 291.5 308   M208.5 308 C290.5 239, 209.5 239, 291.5 308" fill="white"/></svg>
    <svg id="eye"><path stroke="black" stroke-width="1" d="M238 184 C238 159, 319 152, 345 152   C415 152, 463 146, 463 159   C463 170, 419 300, 351 300   C286 300, 238 241, 238 184  Z " fill="white"/><path stroke="black" stroke-width="1" d="M262 184 C262 159, 181 152, 155 152   C85 152, 37 146, 37 159   C37 170, 81 300, 149 300   C214 300, 262 241, 262 184  Z " fill="white"/><path stroke="black" stroke-width="0" d="M316 207 C316 187, 326 177, 346 177   C366 177, 376 187, 376 207   C376 227, 366 237, 346 237   C326 237, 316 227, 316 207  Z " fill="black"/><path stroke="black" stroke-width="0" d="M184 207 C184 187, 174 177, 154 177   C134 177, 124 187, 124 207   C124 227, 134 237, 154 237   C174 237, 184 227, 184 207  Z " fill="black"/></svg>

  </svg>