<?xml version="1.0" encoding="UTF-8" standalone="no"?><svg xmlns="http://www.w3.org/2000/svg" id="montage">
    <svg id="ear"><path stroke="black" stroke-width="1" d="M311.8033988749895 59.7886967409693 C444.8033988749895 -107.2113032590307, 529.6021507213444 -21.132295065131643, 407.6021507213444 126.86770493486836   " fill="white"/><path stroke="black" stroke-width="1" d="M188.19660112501052 59.7886967409693 C55.19660112501052 -107.2113032590307, -29.6021507213444 -21.132295065131643, 92.3978492786556 126.86770493486836   " fill="white"/></svg>
    <circle id="countor" stroke="black" cx="250" cy="250" r="200" stroke-width="3" fill="white"/>
    <svg id="mouth"><path stroke="black" stroke-width="1" d="M123.5 391 C157.5 412, 342.5 412, 376.5 391   M123.5 391 C-15.5 307, 515.5 307, 376.5 391" fill="white"/></svg>
    <svg id="eye"><path stroke="black" stroke-width="1" d="M294.5 223 C294.5 170, 344.5 96, 394.5 96   C433.5 96, 452.5 135, 452.5 176   C452.5 209, 365.5 300, 338.5 300   C275.5 300, 294.5 240, 294.5 223  Z " fill="white"/><path stroke="black" stroke-width="1" d="M205.5 223 C205.5 170, 155.5 96, 105.5 96   C66.5 96, 47.5 135, 47.5 176   C47.5 209, 134.5 300, 161.5 300   C224.5 300, 205.5 240, 205.5 223  Z " fill="white"/><path stroke="black" stroke-width="0" d="M316.5 215 C316.5 195, 326.5 185, 346.5 185   C366.5 185, 376.5 195, 376.5 215   C376.5 235, 366.5 245, 346.5 245   C326.5 245, 316.5 235, 316.5 215  Z " fill="black"/><path stroke="black" stroke-width="0" d="M183.5 215 C183.5 195, 173.5 185, 153.5 185   C133.5 185, 123.5 195, 123.5 215   C123.5 235, 133.5 245, 153.5 245   C173.5 245, 183.5 235, 183.5 215  Z " fill="black"/></svg>

  </svg>