<?xml version="1.0" encoding="UTF-8" standalone="no"?><svg xmlns="http://www.w3.org/2000/svg" id="montage">
    <svg id="ear"><path stroke="black" stroke-width="1" d="M353.00761498201086 78.56653985957755 C485.00761498201086 -39.433460140422454, 565.2088886237956 295.44247806269215, 403.2088886237956 121.44247806269215   " fill="white"/><path stroke="black" stroke-width="1" d="M146.99238501798914 78.56653985957755 C14.992385017989136 -39.433460140422454, -65.20888862379562 295.44247806269215, 96.79111137620438 121.44247806269215   " fill="white"/></svg>
    <circle id="countor" stroke="black" cx="250" cy="250" r="200" stroke-width="3" fill="white"/>
    <svg id="mouth"><path stroke="black" stroke-width="1" d="M172.5 415 C173.5 458, 326.5 458, 327.5 415   M172.5 415 C105.5 491, 394.5 491, 327.5 415" fill="white"/></svg>
    <svg id="eye"><path stroke="black" stroke-width="1" d="M240 120 C240 52, 263 43, 319 43   C357 43, 389 136, 389 182   C389 210, 408 249, 352 249   C314 249, 240 187, 240 120  Z " fill="white"/><path stroke="black" stroke-width="1" d="M260 120 C260 52, 237 43, 181 43   C143 43, 111 136, 111 182   C111 210, 92 249, 148 249   C186 249, 260 187, 260 120  Z " fill="white"/><path stroke="black" stroke-width="0" d="M314 140 C314 120, 324 110, 344 110   C364 110, 374 120, 374 140   C374 160, 364 170, 344 170   C324 170, 314 160, 314 140  Z " fill="black"/><path stroke="black" stroke-width="0" d="M186 140 C186 120, 176 110, 156 110   C136 110, 126 120, 126 140   C126 160, 136 170, 156 170   C176 170, 186 160, 186 140  Z " fill="black"/></svg>

  </svg>