<?xml version="1.0" encoding="UTF-8" standalone="no"?><svg xmlns="http://www.w3.org/2000/svg" id="montage">
    <svg id="ear"><path stroke="black" stroke-width="1" d="M375.8640782099675 94.57080770860586 C514.8640782099675 49.570807708605855, 422.5575219373079 -46.208888623795616, 378.5575219373079 96.79111137620438   " fill="white"/><path stroke="black" stroke-width="1" d="M124.1359217900325 94.57080770860586 C-14.864078209967502 49.570807708605855, 77.44247806269212 -46.208888623795616, 121.44247806269212 96.79111137620438   " fill="white"/></svg>
    <circle id="countor" stroke="black" cx="250" cy="250" r="200" stroke-width="3" fill="white"/>
    <svg id="mouth"><path stroke="black" stroke-width="1" d="M186 293 C197 286, 303 286, 314 293   M186 293 C254 346, 246 346, 314 293" fill="white"/></svg>
    <svg id="eye"><path stroke="black" stroke-width="1" d="M304.5 192 C304.5 127, 321.5 112, 335.5 112   C400.5 112, 447.5 199, 447.5 227   C447.5 247, 367.5 313, 336.5 313   C260.5 313, 304.5 247, 304.5 192  Z " fill="white"/><path stroke="black" stroke-width="1" d="M195.5 192 C195.5 127, 178.5 112, 164.5 112   C99.5 112, 52.5 199, 52.5 227   C52.5 247, 132.5 313, 163.5 313   C239.5 313, 195.5 247, 195.5 192  Z " fill="white"/><path stroke="black" stroke-width="0" d="M312.5 212 C312.5 192, 322.5 182, 342.5 182   C362.5 182, 372.5 192, 372.5 212   C372.5 232, 362.5 242, 342.5 242   C322.5 242, 312.5 232, 312.5 212  Z " fill="black"/><path stroke="black" stroke-width="0" d="M187.5 212 C187.5 192, 177.5 182, 157.5 182   C137.5 182, 127.5 192, 127.5 212   C127.5 232, 137.5 242, 157.5 242   C177.5 242, 187.5 232, 187.5 212  Z " fill="black"/></svg>

  </svg>