<?xml version="1.0" encoding="UTF-8" standalone="no"?><svg xmlns="http://www.w3.org/2000/svg" id="montage">
    <svg id="ear"><path stroke="black" stroke-width="1" d="M405.4291922913942 124.13592179003253 C498.4291922913942 -2.8640782099674738, 490.4291922913942 196.1359217900325, 405.4291922913942 124.13592179003253   " fill="white"/><path stroke="black" stroke-width="1" d="M94.57080770860583 124.13592179003253 C1.5708077086058267 -2.8640782099674738, 9.570807708605827 196.1359217900325, 94.57080770860583 124.13592179003253   " fill="white"/></svg>
    <circle id="countor" stroke="black" cx="250" cy="250" r="200" stroke-width="3" fill="white"/>
    <svg id="mouth"><path stroke="black" stroke-width="1" d="M123.5 428 C126.5 455, 373.5 455, 376.5 428   M123.5 428 C201.5 344, 298.5 344, 376.5 428" fill="white"/></svg>
    <svg id="eye"><path stroke="black" stroke-width="1" d="M282 238 C282 187, 294 84, 350 84   C361 84, 381 103, 381 148   C381 186, 387 241, 325 241   C248 241, 282 287, 282 238  Z " fill="white"/><path stroke="black" stroke-width="1" d="M218 238 C218 187, 206 84, 150 84   C139 84, 119 103, 119 148   C119 186, 113 241, 175 241   C252 241, 218 287, 218 238  Z " fill="white"/><path stroke="black" stroke-width="0" d="M315 197 C315 177, 325 167, 345 167   C365 167, 375 177, 375 197   C375 217, 365 227, 345 227   C325 227, 315 217, 315 197  Z " fill="black"/><path stroke="black" stroke-width="0" d="M185 197 C185 177, 175 167, 155 167   C135 167, 125 177, 125 197   C125 217, 135 227, 155 227   C175 227, 185 217, 185 197  Z " fill="black"/></svg>

  </svg>