<?xml version="1.0" encoding="UTF-8" standalone="no"?><svg xmlns="http://www.w3.org/2000/svg" id="montage">
    <svg id="ear"/>
    <circle id="countor" stroke="black" cx="250" cy="250" r="200" stroke-width="3" fill="white"/>
    <svg id="mouth"><path stroke="black" stroke-width="1" d="M161 317 C152 271, 348 271, 339 317   M161 317 C253 376, 247 376, 339 317" fill="white"/></svg>
    <svg id="eye"><path stroke="black" stroke-width="1" d="M221 148 C221 78, 239 44, 309 44   C319 44, 425 136, 425 156   C425 192, 436 207, 374 207   C311 207, 221 167, 221 148  Z " fill="white"/><path stroke="black" stroke-width="1" d="M279 148 C279 78, 261 44, 191 44   C181 44, 75 136, 75 156   C75 192, 64 207, 126 207   C189 207, 279 167, 279 148  Z " fill="white"/><path stroke="black" stroke-width="0" d="M310 164 C310 144, 320 134, 340 134   C360 134, 370 144, 370 164   C370 184, 360 194, 340 194   C320 194, 310 184, 310 164  Z " fill="black"/><path stroke="black" stroke-width="0" d="M190 164 C190 144, 180 134, 160 134   C140 134, 130 144, 130 164   C130 184, 140 194, 160 194   C180 194, 190 184, 190 164  Z " fill="black"/></svg>

  </svg>