<?xml version="1.0" encoding="UTF-8" standalone="no"?><svg xmlns="http://www.w3.org/2000/svg" id="montage">
    <svg id="ear"><path stroke="black" stroke-width="1" d="M400.94191604455443 118.78819420189856 C446.94191604455443 -25.211805798101437, 599.2389396183491 374.43114854953166, 449.23893961834915 267.43114854953166   " fill="white"/><path stroke="black" stroke-width="1" d="M99.0580839554456 118.78819420189856 C53.058083955445596 -25.211805798101437, -99.23893961834912 374.43114854953166, 50.76106038165088 267.43114854953166   " fill="white"/></svg>
    <circle id="countor" stroke="black" cx="250" cy="250" r="200" stroke-width="3" fill="white"/>
    <svg id="mouth"><path stroke="black" stroke-width="1" d="M196 331 C240 379, 260 379, 304 331   M196 331 C345 305, 155 305, 304 331" fill="white"/></svg>
    <svg id="eye"><path stroke="black" stroke-width="1" d="M279.5 160 C279.5 93, 272.5 134, 295.5 134   C315.5 134, 414.5 103, 414.5 141   C414.5 212, 328.5 221, 292.5 221   C266.5 221, 279.5 221, 279.5 160  Z " fill="white"/><path stroke="black" stroke-width="1" d="M220.5 160 C220.5 93, 227.5 134, 204.5 134   C184.5 134, 85.5 103, 85.5 141   C85.5 212, 171.5 221, 207.5 221   C233.5 221, 220.5 221, 220.5 160  Z " fill="white"/><path stroke="black" stroke-width="0" d="M312.5 186 C312.5 166, 322.5 156, 342.5 156   C362.5 156, 372.5 166, 372.5 186   C372.5 206, 362.5 216, 342.5 216   C322.5 216, 312.5 206, 312.5 186  Z " fill="black"/><path stroke="black" stroke-width="0" d="M187.5 186 C187.5 166, 177.5 156, 157.5 156   C137.5 156, 127.5 166, 127.5 186   C127.5 206, 137.5 216, 157.5 216   C177.5 216, 187.5 206, 187.5 186  Z " fill="black"/></svg>

  </svg>