<?xml version="1.0" encoding="UTF-8" standalone="no"?><svg xmlns="http://www.w3.org/2000/svg" id="montage">
    <svg id="ear"/>
    <circle id="countor" stroke="black" cx="250" cy="250" r="200" stroke-width="3" fill="white"/>
    <svg id="mouth"><path stroke="black" stroke-width="1" d="M179 358 C198 380, 302 380, 321 358   M179 358 C62 450, 438 450, 321 358" fill="white"/></svg>
    <svg id="eye"><path stroke="black" stroke-width="1" d="M285.5 164 C285.5 128, 233.5 43, 311.5 43   C389.5 43, 409.5 112, 409.5 140   C409.5 219, 435.5 231, 368.5 231   C350.5 231, 285.5 183, 285.5 164  Z " fill="white"/><path stroke="black" stroke-width="1" d="M214.5 164 C214.5 128, 266.5 43, 188.5 43   C110.5 43, 90.5 112, 90.5 140   C90.5 219, 64.5 231, 131.5 231   C149.5 231, 214.5 183, 214.5 164  Z " fill="white"/><path stroke="black" stroke-width="0" d="M310.5 155 C310.5 135, 320.5 125, 340.5 125   C360.5 125, 370.5 135, 370.5 155   C370.5 175, 360.5 185, 340.5 185   C320.5 185, 310.5 175, 310.5 155  Z " fill="black"/><path stroke="black" stroke-width="0" d="M189.5 155 C189.5 135, 179.5 125, 159.5 125   C139.5 125, 129.5 135, 129.5 155   C129.5 175, 139.5 185, 159.5 185   C179.5 185, 189.5 175, 189.5 155  Z " fill="black"/></svg>

  </svg>