<?xml version="1.0" encoding="UTF-8" standalone="no"?><svg xmlns="http://www.w3.org/2000/svg" id="montage">
    <svg id="ear"><path stroke="black" stroke-width="1" d="M449.96953903127826 246.5095187125433 C472.96953903127826 226.5095187125433, 464.21130325903073 202.80339887498945, 440.21130325903073 311.80339887498945   " fill="white"/><path stroke="black" stroke-width="1" d="M50.03046096872174 246.5095187125433 C27.03046096872174 226.5095187125433, 35.7886967409693 202.80339887498945, 59.7886967409693 311.80339887498945   " fill="white"/></svg>
    <circle id="countor" stroke="black" cx="250" cy="250" r="200" stroke-width="3" fill="white"/>
    <svg id="mouth"><path stroke="black" stroke-width="1" d="M137 382 C183 390, 317 390, 363 382   M137 382 C285 244, 215 244, 363 382" fill="white"/></svg>
    <svg id="eye"><path stroke="black" stroke-width="1" d="M244 212 C244 142, 299 169, 369 169   C447 169, 426 110, 426 181   C426 210, 373 269, 338 269   C307 269, 244 274, 244 212  Z " fill="white"/><path stroke="black" stroke-width="1" d="M256 212 C256 142, 201 169, 131 169   C53 169, 74 110, 74 181   C74 210, 127 269, 162 269   C193 269, 256 274, 256 212  Z " fill="white"/><path stroke="black" stroke-width="0" d="M317 219 C317 199, 327 189, 347 189   C367 189, 377 199, 377 219   C377 239, 367 249, 347 249   C327 249, 317 239, 317 219  Z " fill="black"/><path stroke="black" stroke-width="0" d="M183 219 C183 199, 173 189, 153 189   C133 189, 123 199, 123 219   C123 239, 133 249, 153 249   C173 249, 183 239, 183 219  Z " fill="black"/></svg>

  </svg>