<?xml version="1.0" encoding="UTF-8" standalone="no"?><svg xmlns="http://www.w3.org/2000/svg" id="montage">
    <svg id="ear"/>
    <circle id="countor" stroke="black" cx="250" cy="250" r="200" stroke-width="3" fill="white"/>
    <svg id="mouth"><path stroke="black" stroke-width="1" d="M237.5 402 C219.5 434, 280.5 434, 262.5 402   M237.5 402 C353.5 330, 146.5 330, 262.5 402" fill="white"/></svg>
    <svg id="eye"><path stroke="black" stroke-width="1" d="M277.5 190 C277.5 158, 279.5 109, 316.5 109   C354.5 109, 451.5 174, 451.5 243   C451.5 314, 435.5 298, 377.5 298   C365.5 298, 277.5 239, 277.5 190  Z " fill="white"/><path stroke="black" stroke-width="1" d="M222.5 190 C222.5 158, 220.5 109, 183.5 109   C145.5 109, 48.5 174, 48.5 243   C48.5 314, 64.5 298, 122.5 298   C134.5 298, 222.5 239, 222.5 190  Z " fill="white"/><path stroke="black" stroke-width="0" d="M316.5 222 C316.5 202, 326.5 192, 346.5 192   C366.5 192, 376.5 202, 376.5 222   C376.5 242, 366.5 252, 346.5 252   C326.5 252, 316.5 242, 316.5 222  Z " fill="black"/><path stroke="black" stroke-width="0" d="M183.5 222 C183.5 202, 173.5 192, 153.5 192   C133.5 192, 123.5 202, 123.5 222   C123.5 242, 133.5 252, 153.5 252   C173.5 252, 183.5 242, 183.5 222  Z " fill="black"/></svg>

  </svg>