<?xml version="1.0" encoding="UTF-8" standalone="no"?><svg xmlns="http://www.w3.org/2000/svg" id="montage">
    <svg id="ear"><path stroke="black" stroke-width="1" d="M367.55705045849464 88.19660112501052 C504.55705045849464 51.19660112501052, 544.5092303282644 336.3738686810295, 448.5092303282644 274.3738686810295   " fill="white"/><path stroke="black" stroke-width="1" d="M132.44294954150536 88.19660112501052 C-4.557050458494643 51.19660112501052, -44.50923032826441 336.3738686810295, 51.49076967173559 274.3738686810295   " fill="white"/></svg>
    <circle id="countor" stroke="black" cx="250" cy="250" r="200" stroke-width="3" fill="white"/>
    <svg id="mouth"><path stroke="black" stroke-width="1" d="M125 355 C132 403, 368 403, 375 355   M125 355 C18 339, 482 339, 375 355" fill="white"/></svg>
    <svg id="eye"><path stroke="black" stroke-width="1" d="M249.5 198 C249.5 174, 276.5 109, 297.5 109   C334.5 109, 383.5 161, 383.5 198   C383.5 254, 419.5 241, 380.5 241   C367.5 241, 249.5 215, 249.5 198  Z " fill="white"/><path stroke="black" stroke-width="1" d="M250.5 198 C250.5 174, 223.5 109, 202.5 109   C165.5 109, 116.5 161, 116.5 198   C116.5 254, 80.5 241, 119.5 241   C132.5 241, 250.5 215, 250.5 198  Z " fill="white"/><path stroke="black" stroke-width="0" d="M314.5 182 C314.5 162, 324.5 152, 344.5 152   C364.5 152, 374.5 162, 374.5 182   C374.5 202, 364.5 212, 344.5 212   C324.5 212, 314.5 202, 314.5 182  Z " fill="black"/><path stroke="black" stroke-width="0" d="M185.5 182 C185.5 162, 175.5 152, 155.5 152   C135.5 152, 125.5 162, 125.5 182   C125.5 202, 135.5 212, 155.5 212   C175.5 212, 185.5 202, 185.5 182  Z " fill="black"/></svg>

  </svg>