<?xml version="1.0" encoding="UTF-8" standalone="no"?><svg xmlns="http://www.w3.org/2000/svg" id="montage">
    <svg id="ear"><path stroke="black" stroke-width="1" d="M423.20508075688775 150 C621.2050807568878 213, 481.71608529944035 190.67358990906007, 436.71608529944035 321.67358990906007   " fill="white"/><path stroke="black" stroke-width="1" d="M76.79491924311225 150 C-121.20508075688775 213, 18.28391470055965 190.67358990906007, 63.28391470055965 321.67358990906007   " fill="white"/></svg>
    <circle id="countor" stroke="black" cx="250" cy="250" r="200" stroke-width="3" fill="white"/>
    <svg id="mouth"><path stroke="black" stroke-width="1" d="M237 349 C218 391, 282 391, 263 349   M237 349 C274 415, 226 415, 263 349" fill="white"/></svg>
    <svg id="eye"><path stroke="black" stroke-width="1" d="M304.5 178 C304.5 149, 346.5 100, 378.5 100   C412.5 100, 456.5 174, 456.5 229   C456.5 294, 355.5 262, 303.5 262   C247.5 262, 304.5 212, 304.5 178  Z " fill="white"/><path stroke="black" stroke-width="1" d="M195.5 178 C195.5 149, 153.5 100, 121.5 100   C87.5 100, 43.5 174, 43.5 229   C43.5 294, 144.5 262, 196.5 262   C252.5 262, 195.5 212, 195.5 178  Z " fill="white"/><path stroke="black" stroke-width="0" d="M315.5 198 C315.5 178, 325.5 168, 345.5 168   C365.5 168, 375.5 178, 375.5 198   C375.5 218, 365.5 228, 345.5 228   C325.5 228, 315.5 218, 315.5 198  Z " fill="black"/><path stroke="black" stroke-width="0" d="M184.5 198 C184.5 178, 174.5 168, 154.5 168   C134.5 168, 124.5 178, 124.5 198   C124.5 218, 134.5 228, 154.5 228   C174.5 228, 184.5 218, 184.5 198  Z " fill="black"/></svg>

  </svg>