<?xml version="1.0" encoding="UTF-8" standalone="no"?><svg xmlns="http://www.w3.org/2000/svg" id="montage">
    <svg id="ear"><path stroke="black" stroke-width="1" d="M386.3996720124997 103.7292596761659 C500.3996720124997 68.7292596761659, 639.2389396183491 347.43114854953166, 449.23893961834915 267.43114854953166   " fill="white"/><path stroke="black" stroke-width="1" d="M113.6003279875003 103.7292596761659 C-0.39967201249970685 68.7292596761659, -139.23893961834912 347.43114854953166, 50.76106038165088 267.43114854953166   " fill="white"/></svg>
    <circle id="countor" stroke="black" cx="250" cy="250" r="200" stroke-width="3" fill="white"/>
    <svg id="mouth"><path stroke="black" stroke-width="1" d="M198.5 302 C182.5 331, 317.5 331, 301.5 302   M198.5 302 C88.5 236, 411.5 236, 301.5 302" fill="white"/></svg>
    <svg id="eye"><path stroke="black" stroke-width="1" d="M277.5 251 C277.5 174, 378.5 139, 393.5 139   C464.5 139, 451.5 214, 451.5 247   C451.5 324, 413.5 318, 350.5 318   C326.5 318, 277.5 270, 277.5 251  Z " fill="white"/><path stroke="black" stroke-width="1" d="M222.5 251 C222.5 174, 121.5 139, 106.5 139   C35.5 139, 48.5 214, 48.5 247   C48.5 324, 86.5 318, 149.5 318   C173.5 318, 222.5 270, 222.5 251  Z " fill="white"/><path stroke="black" stroke-width="0" d="M315.5 221 C315.5 201, 325.5 191, 345.5 191   C365.5 191, 375.5 201, 375.5 221   C375.5 241, 365.5 251, 345.5 251   C325.5 251, 315.5 241, 315.5 221  Z " fill="black"/><path stroke="black" stroke-width="0" d="M184.5 221 C184.5 201, 174.5 191, 154.5 191   C134.5 191, 124.5 201, 124.5 221   C124.5 241, 134.5 251, 154.5 251   C174.5 251, 184.5 241, 184.5 221  Z " fill="black"/></svg>

  </svg>