<?xml version="1.0" encoding="UTF-8" standalone="no"?><svg xmlns="http://www.w3.org/2000/svg" id="montage">
    <svg id="ear"><path stroke="black" stroke-width="1" d="M411.8033988749895 132.44294954150536 C581.8033988749895 241.44294954150536, 461.5895185717854 180.89431255717818, 426.5895185717854 343.8943125571782   " fill="white"/><path stroke="black" stroke-width="1" d="M88.19660112501052 132.44294954150536 C-81.80339887498948 241.44294954150536, 38.41048142821461 180.89431255717818, 73.41048142821461 343.8943125571782   " fill="white"/></svg>
    <circle id="countor" stroke="black" cx="250" cy="250" r="200" stroke-width="3" fill="white"/>
    <svg id="mouth"><path stroke="black" stroke-width="1" d="M188.5 302 C227.5 312, 272.5 312, 311.5 302   M188.5 302 C81.5 219, 418.5 219, 311.5 302" fill="white"/></svg>
    <svg id="eye"><path stroke="black" stroke-width="1" d="M302 166 C302 125, 282 87, 342 87   C405 87, 388 192, 388 211   C388 279, 404 288, 353 288   C277 288, 302 232, 302 166  Z " fill="white"/><path stroke="black" stroke-width="1" d="M198 166 C198 125, 218 87, 158 87   C95 87, 112 192, 112 211   C112 279, 96 288, 147 288   C223 288, 198 232, 198 166  Z " fill="white"/><path stroke="black" stroke-width="0" d="M319 186 C319 166, 329 156, 349 156   C369 156, 379 166, 379 186   C379 206, 369 216, 349 216   C329 216, 319 206, 319 186  Z " fill="black"/><path stroke="black" stroke-width="0" d="M181 186 C181 166, 171 156, 151 156   C131 156, 121 166, 121 186   C121 206, 131 216, 151 216   C171 216, 181 206, 181 186  Z " fill="black"/></svg>

  </svg>