<?xml version="1.0" encoding="UTF-8" standalone="no"?><svg xmlns="http://www.w3.org/2000/svg" id="montage">
    <svg id="ear"><path stroke="black" stroke-width="1" d="M448.5092303282644 225.6261313189705 C595.5092303282644 38.626131318970494, 486.2609511926071 326.47434094454735, 441.2609511926071 308.47434094454735   " fill="white"/><path stroke="black" stroke-width="1" d="M51.49076967173559 225.6261313189705 C-95.50923032826441 38.626131318970494, 13.73904880739292 326.47434094454735, 58.73904880739292 308.47434094454735   " fill="white"/></svg>
    <circle id="countor" stroke="black" cx="250" cy="250" r="200" stroke-width="3" fill="white"/>
    <svg id="mouth"><path stroke="black" stroke-width="1" d="M186 299 C198 348, 302 348, 314 299   M186 299 C276 177, 224 177, 314 299" fill="white"/></svg>
    <svg id="eye"><path stroke="black" stroke-width="1" d="M242 261 C242 207, 331 167, 367 167   C389 167, 392 226, 392 237   C392 312, 379 293, 300 293   C240 293, 242 303, 242 261  Z " fill="white"/><path stroke="black" stroke-width="1" d="M258 261 C258 207, 169 167, 133 167   C111 167, 108 226, 108 237   C108 312, 121 293, 200 293   C260 293, 258 303, 258 261  Z " fill="white"/><path stroke="black" stroke-width="0" d="M312 225 C312 205, 322 195, 342 195   C362 195, 372 205, 372 225   C372 245, 362 255, 342 255   C322 255, 312 245, 312 225  Z " fill="black"/><path stroke="black" stroke-width="0" d="M188 225 C188 205, 178 195, 158 195   C138 195, 128 205, 128 225   C128 245, 138 255, 158 255   C178 255, 188 245, 188 225  Z " fill="black"/></svg>

  </svg>