<?xml version="1.0" encoding="UTF-8" standalone="no"?><svg xmlns="http://www.w3.org/2000/svg" id="montage">
    <svg id="ear"><path stroke="black" stroke-width="1" d="M421.4334601404224 146.99238501798916 C609.4334601404224 88.99238501798916, 497.9615506024416 356.72963553338604, 446.9615506024416 284.72963553338604   " fill="white"/><path stroke="black" stroke-width="1" d="M78.56653985957755 146.99238501798916 C-109.43346014042245 88.99238501798916, 2.038449397558395 356.72963553338604, 53.038449397558395 284.72963553338604   " fill="white"/></svg>
    <circle id="countor" stroke="black" cx="250" cy="250" r="200" stroke-width="3" fill="white"/>
    <svg id="mouth"><path stroke="black" stroke-width="1" d="M161 353 C170 388, 330 388, 339 353   M161 353 C74 216, 426 216, 339 353" fill="white"/></svg>
    <svg id="eye"><path stroke="black" stroke-width="1" d="M301 265 C301 243, 320 194, 360 194   C371 194, 393 153, 393 211   C393 268, 328 347, 301 347   C272 347, 301 301, 301 265  Z " fill="white"/><path stroke="black" stroke-width="1" d="M199 265 C199 243, 180 194, 140 194   C129 194, 107 153, 107 211   C107 268, 172 347, 199 347   C228 347, 199 301, 199 265  Z " fill="white"/><path stroke="black" stroke-width="0" d="M310 229 C310 209, 320 199, 340 199   C360 199, 370 209, 370 229   C370 249, 360 259, 340 259   C320 259, 310 249, 310 229  Z " fill="black"/><path stroke="black" stroke-width="0" d="M190 229 C190 209, 180 199, 160 199   C140 199, 130 209, 130 229   C130 249, 140 259, 160 259   C180 259, 190 249, 190 229  Z " fill="black"/></svg>

  </svg>