<?xml version="1.0" encoding="UTF-8" standalone="no"?><svg xmlns="http://www.w3.org/2000/svg" id="montage">
    <svg id="ear"/>
    <circle id="countor" stroke="black" cx="250" cy="250" r="200" stroke-width="3" fill="white"/>
    <svg id="mouth"><path stroke="black" stroke-width="1" d="M171 336 C195 308, 305 308, 329 336   M171 336 C100 200, 400 200, 329 336" fill="white"/></svg>
    <svg id="eye"><path stroke="black" stroke-width="1" d="M226.5 125 C226.5 87, 368.5 94, 379.5 94   C442.5 94, 451.5 121, 451.5 184   C451.5 204, 330.5 204, 306.5 204   C278.5 204, 226.5 160, 226.5 125  Z " fill="white"/><path stroke="black" stroke-width="1" d="M273.5 125 C273.5 87, 131.5 94, 120.5 94   C57.5 94, 48.5 121, 48.5 184   C48.5 204, 169.5 204, 193.5 204   C221.5 204, 273.5 160, 273.5 125  Z " fill="white"/><path stroke="black" stroke-width="0" d="M310.5 146 C310.5 126, 320.5 116, 340.5 116   C360.5 116, 370.5 126, 370.5 146   C370.5 166, 360.5 176, 340.5 176   C320.5 176, 310.5 166, 310.5 146  Z " fill="black"/><path stroke="black" stroke-width="0" d="M189.5 146 C189.5 126, 179.5 116, 159.5 116   C139.5 116, 129.5 126, 129.5 146   C129.5 166, 139.5 176, 159.5 176   C179.5 176, 189.5 166, 189.5 146  Z " fill="black"/></svg>

  </svg>