<?xml version="1.0" encoding="UTF-8" standalone="no"?><svg xmlns="http://www.w3.org/2000/svg" id="montage">
    <svg id="ear"><path stroke="black" stroke-width="1" d="M413.8304088577984 135.28471272979078 C564.8304088577984 -60.71528727020922, 456.87401295704706 377.00978913122697, 444.87401295704706 205.009789131227   " fill="white"/><path stroke="black" stroke-width="1" d="M86.16959114220165 135.28471272979078 C-64.83040885779835 -60.71528727020922, 43.12598704295294 377.00978913122697, 55.12598704295294 205.009789131227   " fill="white"/></svg>
    <circle id="countor" stroke="black" cx="250" cy="250" r="200" stroke-width="3" fill="white"/>
    <svg id="mouth"><path stroke="black" stroke-width="1" d="M199.5 332 C221.5 333, 278.5 333, 300.5 332   M199.5 332 C224.5 307, 275.5 307, 300.5 332" fill="white"/></svg>
    <svg id="eye"><path stroke="black" stroke-width="1" d="M302 154 C302 105, 318 121, 359 121   C429 121, 391 201, 391 221   C391 259, 365 237, 315 237   C288 237, 302 164, 302 154  Z " fill="white"/><path stroke="black" stroke-width="1" d="M198 154 C198 105, 182 121, 141 121   C71 121, 109 201, 109 221   C109 259, 135 237, 185 237   C212 237, 198 164, 198 154  Z " fill="white"/><path stroke="black" stroke-width="0" d="M314 195 C314 175, 324 165, 344 165   C364 165, 374 175, 374 195   C374 215, 364 225, 344 225   C324 225, 314 215, 314 195  Z " fill="black"/><path stroke="black" stroke-width="0" d="M186 195 C186 175, 176 165, 156 165   C136 165, 126 175, 126 195   C126 215, 136 225, 156 225   C176 225, 186 215, 186 195  Z " fill="black"/></svg>

  </svg>