<?xml version="1.0" encoding="UTF-8" standalone="no"?><svg xmlns="http://www.w3.org/2000/svg" id="montage">
    <svg id="ear"><path stroke="black" stroke-width="1" d="M447.53766811902756 218.71310699195382 C602.5376681190276 218.71310699195382, 498.0536137483141 263.83462019201306, 448.0536137483141 277.83462019201306   " fill="white"/><path stroke="black" stroke-width="1" d="M52.46233188097244 218.71310699195382 C-102.53766811902756 218.71310699195382, 1.9463862516859365 263.83462019201306, 51.94638625168594 277.83462019201306   " fill="white"/></svg>
    <circle id="countor" stroke="black" cx="250" cy="250" r="200" stroke-width="3" fill="white"/>
    <svg id="mouth"><path stroke="black" stroke-width="1" d="M120 383 C141 407, 359 407, 380 383   M120 383 C1 250, 499 250, 380 383" fill="white"/></svg>
    <svg id="eye"><path stroke="black" stroke-width="1" d="M231.5 178 C231.5 122, 267.5 131, 323.5 131   C350.5 131, 426.5 154, 426.5 228   C426.5 305, 430.5 321, 368.5 321   C326.5 321, 231.5 256, 231.5 178  Z " fill="white"/><path stroke="black" stroke-width="1" d="M268.5 178 C268.5 122, 232.5 131, 176.5 131   C149.5 131, 73.5 154, 73.5 228   C73.5 305, 69.5 321, 131.5 321   C173.5 321, 268.5 256, 268.5 178  Z " fill="white"/><path stroke="black" stroke-width="0" d="M317.5 220 C317.5 200, 327.5 190, 347.5 190   C367.5 190, 377.5 200, 377.5 220   C377.5 240, 367.5 250, 347.5 250   C327.5 250, 317.5 240, 317.5 220  Z " fill="black"/><path stroke="black" stroke-width="0" d="M182.5 220 C182.5 200, 172.5 190, 152.5 190   C132.5 190, 122.5 200, 122.5 220   C122.5 240, 132.5 250, 152.5 250   C172.5 250, 182.5 240, 182.5 220  Z " fill="black"/></svg>

  </svg>