<?xml version="1.0" encoding="UTF-8" standalone="no"?><svg xmlns="http://www.w3.org/2000/svg" id="montage">
    <svg id="ear"><path stroke="black" stroke-width="1" d="M378.5575219373079 96.79111137620438 C492.5575219373079 141.79111137620438, 599.9419160445544 180.78819420189856, 400.94191604455443 118.78819420189856   " fill="white"/><path stroke="black" stroke-width="1" d="M121.44247806269212 96.79111137620438 C7.442478062692118 141.79111137620438, -99.9419160445544 180.78819420189856, 99.0580839554456 118.78819420189856   " fill="white"/></svg>
    <circle id="countor" stroke="black" cx="250" cy="250" r="200" stroke-width="3" fill="white"/>
    <svg id="mouth"><path stroke="black" stroke-width="1" d="M213.5 316 C227.5 308, 272.5 308, 286.5 316   M213.5 316 C222.5 342, 277.5 342, 286.5 316" fill="white"/></svg>
    <svg id="eye"><path stroke="black" stroke-width="1" d="M290.5 113 C290.5 82, 244.5 53, 313.5 53   C360.5 53, 437.5 78, 437.5 155   C437.5 190, 375.5 185, 341.5 185   C308.5 185, 290.5 128, 290.5 113  Z " fill="white"/><path stroke="black" stroke-width="1" d="M209.5 113 C209.5 82, 255.5 53, 186.5 53   C139.5 53, 62.5 78, 62.5 155   C62.5 190, 124.5 185, 158.5 185   C191.5 185, 209.5 128, 209.5 113  Z " fill="white"/><path stroke="black" stroke-width="0" d="M315.5 147 C315.5 127, 325.5 117, 345.5 117   C365.5 117, 375.5 127, 375.5 147   C375.5 167, 365.5 177, 345.5 177   C325.5 177, 315.5 167, 315.5 147  Z " fill="black"/><path stroke="black" stroke-width="0" d="M184.5 147 C184.5 127, 174.5 117, 154.5 117   C134.5 117, 124.5 127, 124.5 147   C124.5 167, 134.5 177, 154.5 177   C174.5 177, 184.5 167, 184.5 147  Z " fill="black"/></svg>

  </svg>