<?xml version="1.0" encoding="UTF-8" standalone="no"?><svg xmlns="http://www.w3.org/2000/svg" id="montage">
    <svg id="ear"><path stroke="black" stroke-width="1" d="M294.990210868773 55.12598704295294 C319.990210868773 -24.874012957047057, 546.1851652578137 67.23619097949586, 443.18516525781365 198.23619097949586   " fill="white"/><path stroke="black" stroke-width="1" d="M205.00978913122702 55.12598704295294 C180.00978913122702 -24.874012957047057, -46.18516525781365 67.23619097949586, 56.81483474218635 198.23619097949586   " fill="white"/></svg>
    <circle id="countor" stroke="black" cx="250" cy="250" r="200" stroke-width="3" fill="white"/>
    <svg id="mouth"><path stroke="black" stroke-width="1" d="M149.5 417 C156.5 376, 343.5 376, 350.5 417   M149.5 417 C56.5 514, 443.5 514, 350.5 417" fill="white"/></svg>
    <svg id="eye"><path stroke="black" stroke-width="1" d="M281 162 C281 111, 276 133, 321 133   C340 133, 437 111, 437 165   C437 239, 322 216, 304 216   C255 216, 281 183, 281 162  Z " fill="white"/><path stroke="black" stroke-width="1" d="M219 162 C219 111, 224 133, 179 133   C160 133, 63 111, 63 165   C63 239, 178 216, 196 216   C245 216, 219 183, 219 162  Z " fill="white"/><path stroke="black" stroke-width="0" d="M320 179 C320 159, 330 149, 350 149   C370 149, 380 159, 380 179   C380 199, 370 209, 350 209   C330 209, 320 199, 320 179  Z " fill="black"/><path stroke="black" stroke-width="0" d="M180 179 C180 159, 170 149, 150 149   C130 149, 120 159, 120 179   C120 199, 130 209, 150 209   C170 209, 180 199, 180 179  Z " fill="black"/></svg>

  </svg>