<?xml version="1.0" encoding="UTF-8" standalone="no"?><svg xmlns="http://www.w3.org/2000/svg" id="montage">
    <svg id="ear"/>
    <circle id="countor" stroke="black" cx="250" cy="250" r="200" stroke-width="3" fill="white"/>
    <svg id="mouth"><path stroke="black" stroke-width="1" d="M238.5 330 C196.5 321, 303.5 321, 261.5 330   M238.5 330 C221.5 473, 278.5 473, 261.5 330" fill="white"/></svg>
    <svg id="eye"><path stroke="black" stroke-width="1" d="M241 144 C241 82, 284 97, 308 97   C363 97, 418 175, 418 239   C418 301, 424 254, 360 254   C315 254, 241 180, 241 144  Z " fill="white"/><path stroke="black" stroke-width="1" d="M259 144 C259 82, 216 97, 192 97   C137 97, 82 175, 82 239   C82 301, 76 254, 140 254   C185 254, 259 180, 259 144  Z " fill="white"/><path stroke="black" stroke-width="0" d="M311 193 C311 173, 321 163, 341 163   C361 163, 371 173, 371 193   C371 213, 361 223, 341 223   C321 223, 311 213, 311 193  Z " fill="black"/><path stroke="black" stroke-width="0" d="M189 193 C189 173, 179 163, 159 163   C139 163, 129 173, 129 193   C129 213, 139 223, 159 223   C179 223, 189 213, 189 193  Z " fill="black"/></svg>

  </svg>