<?xml version="1.0" encoding="UTF-8" standalone="no"?><svg xmlns="http://www.w3.org/2000/svg" id="montage">
    <svg id="ear"><path stroke="black" stroke-width="1" d="M324.9213186831824 64.56322908664251 C371.9213186831824 -88.43677091335749, 343.34732861516005 61.29090847147984, 331.34732861516005 67.29090847147984   " fill="white"/><path stroke="black" stroke-width="1" d="M175.0786813168176 64.56322908664251 C128.0786813168176 -88.43677091335749, 156.65267138483995 61.29090847147984, 168.65267138483995 67.29090847147984   " fill="white"/></svg>
    <circle id="countor" stroke="black" cx="250" cy="250" r="200" stroke-width="3" fill="white"/>
    <svg id="mouth"><path stroke="black" stroke-width="1" d="M168.5 320 C163.5 359, 336.5 359, 331.5 320   M168.5 320 C107.5 256, 392.5 256, 331.5 320" fill="white"/></svg>
    <svg id="eye"><path stroke="black" stroke-width="1" d="M223.5 237 C223.5 166, 279.5 85, 313.5 85   C357.5 85, 420.5 149, 420.5 174   C420.5 189, 413.5 299, 371.5 299   C325.5 299, 223.5 312, 223.5 237  Z " fill="white"/><path stroke="black" stroke-width="1" d="M276.5 237 C276.5 166, 220.5 85, 186.5 85   C142.5 85, 79.5 149, 79.5 174   C79.5 189, 86.5 299, 128.5 299   C174.5 299, 276.5 312, 276.5 237  Z " fill="white"/><path stroke="black" stroke-width="0" d="M310.5 203 C310.5 183, 320.5 173, 340.5 173   C360.5 173, 370.5 183, 370.5 203   C370.5 223, 360.5 233, 340.5 233   C320.5 233, 310.5 223, 310.5 203  Z " fill="black"/><path stroke="black" stroke-width="0" d="M189.5 203 C189.5 183, 179.5 173, 159.5 173   C139.5 173, 129.5 183, 129.5 203   C129.5 223, 139.5 233, 159.5 233   C179.5 233, 189.5 223, 189.5 203  Z " fill="black"/></svg>

  </svg>