<?xml version="1.0" encoding="UTF-8" standalone="no"?><svg xmlns="http://www.w3.org/2000/svg" id="montage">
    <svg id="ear"><path stroke="black" stroke-width="1" d="M386.3996720124997 103.7292596761659 C486.3996720124997 -24.270740323834104, 539.9385241571817 207.59597133486625, 437.9385241571817 181.59597133486625   " fill="white"/><path stroke="black" stroke-width="1" d="M113.6003279875003 103.7292596761659 C13.600327987500293 -24.270740323834104, -39.93852415718169 207.59597133486625, 62.06147584281831 181.59597133486625   " fill="white"/></svg>
    <circle id="countor" stroke="black" cx="250" cy="250" r="200" stroke-width="3" fill="white"/>
    <svg id="mouth"><path stroke="black" stroke-width="1" d="M176 276 C185 301, 315 301, 324 276   M176 276 C36 291, 464 291, 324 276" fill="white"/></svg>
    <svg id="eye"><path stroke="black" stroke-width="1" d="M262.5 112 C262.5 95, 270.5 52, 345.5 52   C410.5 52, 456.5 159, 456.5 180   C456.5 194, 416.5 231, 380.5 231   C343.5 231, 262.5 165, 262.5 112  Z " fill="white"/><path stroke="black" stroke-width="1" d="M237.5 112 C237.5 95, 229.5 52, 154.5 52   C89.5 52, 43.5 159, 43.5 180   C43.5 194, 83.5 231, 119.5 231   C156.5 231, 237.5 165, 237.5 112  Z " fill="white"/><path stroke="black" stroke-width="0" d="M310.5 141 C310.5 121, 320.5 111, 340.5 111   C360.5 111, 370.5 121, 370.5 141   C370.5 161, 360.5 171, 340.5 171   C320.5 171, 310.5 161, 310.5 141  Z " fill="black"/><path stroke="black" stroke-width="0" d="M189.5 141 C189.5 121, 179.5 111, 159.5 111   C139.5 111, 129.5 121, 129.5 141   C129.5 161, 139.5 171, 159.5 171   C179.5 171, 189.5 161, 189.5 141  Z " fill="black"/></svg>

  </svg>