<?xml version="1.0" encoding="UTF-8" standalone="no"?><svg xmlns="http://www.w3.org/2000/svg" id="montage">
    <svg id="ear"><path stroke="black" stroke-width="1" d="M334.5236523481399 68.73844259267003 C351.5236523481399 174.73844259267003, 389 208.79491924311228, 350 76.79491924311228   " fill="white"/><path stroke="black" stroke-width="1" d="M165.47634765186012 68.73844259267003 C148.47634765186012 174.73844259267003, 110.99999999999997 208.79491924311228, 149.99999999999997 76.79491924311228   " fill="white"/></svg>
    <circle id="countor" stroke="black" cx="250" cy="250" r="200" stroke-width="3" fill="white"/>
    <svg id="mouth"><path stroke="black" stroke-width="1" d="M160 380 C159 413, 341 413, 340 380   M160 380 C102 296, 398 296, 340 380" fill="white"/></svg>
    <svg id="eye"><path stroke="black" stroke-width="1" d="M239 224 C239 183, 273 122, 294 122   C362 122, 414 167, 414 194   C414 254, 397 330, 319 330   C306 330, 239 304, 239 224  Z " fill="white"/><path stroke="black" stroke-width="1" d="M261 224 C261 183, 227 122, 206 122   C138 122, 86 167, 86 194   C86 254, 103 330, 181 330   C194 330, 261 304, 261 224  Z " fill="white"/><path stroke="black" stroke-width="0" d="M310 217 C310 197, 320 187, 340 187   C360 187, 370 197, 370 217   C370 237, 360 247, 340 247   C320 247, 310 237, 310 217  Z " fill="black"/><path stroke="black" stroke-width="0" d="M190 217 C190 197, 180 187, 160 187   C140 187, 130 197, 130 217   C130 237, 140 247, 160 247   C180 247, 190 237, 190 217  Z " fill="black"/></svg>

  </svg>