<?xml version="1.0" encoding="UTF-8" standalone="no"?><svg xmlns="http://www.w3.org/2000/svg" id="montage">
    <svg id="ear"><path stroke="black" stroke-width="1" d="M446.9615506024416 215.27036446661393 C627.9615506024415 233.27036446661393, 521.9239414278792 265.9619240492674, 424.9239414278792 346.9619240492674   " fill="white"/><path stroke="black" stroke-width="1" d="M53.038449397558395 215.27036446661393 C-127.9615506024416 233.27036446661393, -21.923941427879157 265.9619240492674, 75.07605857212084 346.9619240492674   " fill="white"/></svg>
    <circle id="countor" stroke="black" cx="250" cy="250" r="200" stroke-width="3" fill="white"/>
    <svg id="mouth"><path stroke="black" stroke-width="1" d="M163.5 344 C127.5 321, 372.5 321, 336.5 344   M163.5 344 C224.5 480, 275.5 480, 336.5 344" fill="white"/></svg>
    <svg id="eye"><path stroke="black" stroke-width="1" d="M243.5 230 C243.5 192, 338.5 145, 354.5 145   C396.5 145, 429.5 196, 429.5 266   C429.5 316, 378.5 338, 310.5 338   C279.5 338, 243.5 263, 243.5 230  Z " fill="white"/><path stroke="black" stroke-width="1" d="M256.5 230 C256.5 192, 161.5 145, 145.5 145   C103.5 145, 70.5 196, 70.5 266   C70.5 316, 121.5 338, 189.5 338   C220.5 338, 256.5 263, 256.5 230  Z " fill="white"/><path stroke="black" stroke-width="0" d="M311.5 223 C311.5 203, 321.5 193, 341.5 193   C361.5 193, 371.5 203, 371.5 223   C371.5 243, 361.5 253, 341.5 253   C321.5 253, 311.5 243, 311.5 223  Z " fill="black"/><path stroke="black" stroke-width="0" d="M188.5 223 C188.5 203, 178.5 193, 158.5 193   C138.5 193, 128.5 203, 128.5 223   C128.5 243, 138.5 253, 158.5 253   C178.5 253, 188.5 243, 188.5 223  Z " fill="black"/></svg>

  </svg>