<?xml version="1.0" encoding="UTF-8" standalone="no"?><svg xmlns="http://www.w3.org/2000/svg" id="montage">
    <svg id="ear"><path stroke="black" stroke-width="1" d="M442.2523391876638 194.87252883660017 C491.2523391876638 87.87252883660017, 487.1009706904881 510.14622569785473, 434.1009706904881 328.14622569785473   " fill="white"/><path stroke="black" stroke-width="1" d="M57.74766081233622 194.87252883660017 C8.747660812336221 87.87252883660017, 12.899029309511917 510.14622569785473, 65.89902930951192 328.14622569785473   " fill="white"/></svg>
    <circle id="countor" stroke="black" cx="250" cy="250" r="200" stroke-width="3" fill="white"/>
    <svg id="mouth"><path stroke="black" stroke-width="1" d="M205.5 397 C177.5 446, 322.5 446, 294.5 397   M205.5 397 C269.5 322, 230.5 322, 294.5 397" fill="white"/></svg>
    <svg id="eye"><path stroke="black" stroke-width="1" d="M259.5 164 C259.5 123, 331.5 90, 341.5 90   C351.5 90, 382.5 72, 382.5 148   C382.5 173, 376.5 227, 355.5 227   C307.5 227, 259.5 210, 259.5 164  Z " fill="white"/><path stroke="black" stroke-width="1" d="M240.5 164 C240.5 123, 168.5 90, 158.5 90   C148.5 90, 117.5 72, 117.5 148   C117.5 173, 123.5 227, 144.5 227   C192.5 227, 240.5 210, 240.5 164  Z " fill="white"/><path stroke="black" stroke-width="0" d="M314.5 169 C314.5 149, 324.5 139, 344.5 139   C364.5 139, 374.5 149, 374.5 169   C374.5 189, 364.5 199, 344.5 199   C324.5 199, 314.5 189, 314.5 169  Z " fill="black"/><path stroke="black" stroke-width="0" d="M185.5 169 C185.5 149, 175.5 139, 155.5 139   C135.5 139, 125.5 149, 125.5 169   C125.5 189, 135.5 199, 155.5 199   C175.5 199, 185.5 189, 185.5 169  Z " fill="black"/></svg>

  </svg>