<?xml version="1.0" encoding="UTF-8" standalone="no"?><svg xmlns="http://www.w3.org/2000/svg" id="montage">
    <svg id="ear"/>
    <circle id="countor" stroke="black" cx="250" cy="250" r="200" stroke-width="3" fill="white"/>
    <svg id="mouth"><path stroke="black" stroke-width="1" d="M172.5 427 C189.5 379, 310.5 379, 327.5 427   M172.5 427 C23.5 499, 476.5 499, 327.5 427" fill="white"/></svg>
    <svg id="eye"><path stroke="black" stroke-width="1" d="M259.5 171 C259.5 105, 245.5 117, 305.5 117   C346.5 117, 377.5 169, 377.5 233   C377.5 259, 372.5 277, 344.5 277   C269.5 277, 259.5 217, 259.5 171  Z " fill="white"/><path stroke="black" stroke-width="1" d="M240.5 171 C240.5 105, 254.5 117, 194.5 117   C153.5 117, 122.5 169, 122.5 233   C122.5 259, 127.5 277, 155.5 277   C230.5 277, 240.5 217, 240.5 171  Z " fill="white"/><path stroke="black" stroke-width="0" d="M311.5 187 C311.5 167, 321.5 157, 341.5 157   C361.5 157, 371.5 167, 371.5 187   C371.5 207, 361.5 217, 341.5 217   C321.5 217, 311.5 207, 311.5 187  Z " fill="black"/><path stroke="black" stroke-width="0" d="M188.5 187 C188.5 167, 178.5 157, 158.5 157   C138.5 157, 128.5 167, 128.5 187   C128.5 207, 138.5 217, 158.5 217   C178.5 217, 188.5 207, 188.5 187  Z " fill="black"/></svg>

  </svg>