<?xml version="1.0" encoding="UTF-8" standalone="no"?><svg xmlns="http://www.w3.org/2000/svg" id="montage">
    <svg id="ear"/>
    <circle id="countor" stroke="black" cx="250" cy="250" r="200" stroke-width="3" fill="white"/>
    <svg id="mouth"><path stroke="black" stroke-width="1" d="M221 286 C263 274, 237 274, 279 286   M221 286 C352 420, 148 420, 279 286" fill="white"/></svg>
    <svg id="eye"><path stroke="black" stroke-width="1" d="M301 140 C301 71, 314 41, 369 41   C414 41, 395 100, 395 115   C395 156, 388 199, 354 199   C338 199, 301 193, 301 140  Z " fill="white"/><path stroke="black" stroke-width="1" d="M199 140 C199 71, 186 41, 131 41   C86 41, 105 100, 105 115   C105 156, 112 199, 146 199   C162 199, 199 193, 199 140  Z " fill="white"/><path stroke="black" stroke-width="0" d="M311 140 C311 120, 321 110, 341 110   C361 110, 371 120, 371 140   C371 160, 361 170, 341 170   C321 170, 311 160, 311 140  Z " fill="black"/><path stroke="black" stroke-width="0" d="M189 140 C189 120, 179 110, 159 110   C139 110, 129 120, 129 140   C129 160, 139 170, 159 170   C179 170, 189 160, 189 140  Z " fill="black"/></svg>

  </svg>