<?xml version="1.0" encoding="UTF-8" standalone="no"?><svg xmlns="http://www.w3.org/2000/svg" id="montage">
    <svg id="ear"><path stroke="black" stroke-width="1" d="M364.7152872702092 86.16959114220165 C514.7152872702093 123.16959114220165, 527.9385241571817 14.595971334866249, 437.9385241571817 181.59597133486625   " fill="white"/><path stroke="black" stroke-width="1" d="M135.28471272979078 86.16959114220165 C-14.715287270209217 123.16959114220165, -27.93852415718169 14.595971334866249, 62.06147584281831 181.59597133486625   " fill="white"/></svg>
    <circle id="countor" stroke="black" cx="250" cy="250" r="200" stroke-width="3" fill="white"/>
    <svg id="mouth"><path stroke="black" stroke-width="1" d="M235.5 348 C278.5 324, 221.5 324, 264.5 348   M235.5 348 C107.5 268, 392.5 268, 264.5 348" fill="white"/></svg>
    <svg id="eye"><path stroke="black" stroke-width="1" d="M278.5 177 C278.5 131, 297.5 122, 345.5 122   C377.5 122, 381.5 135, 381.5 186   C381.5 239, 408.5 252, 328.5 252   C284.5 252, 278.5 208, 278.5 177  Z " fill="white"/><path stroke="black" stroke-width="1" d="M221.5 177 C221.5 131, 202.5 122, 154.5 122   C122.5 122, 118.5 135, 118.5 186   C118.5 239, 91.5 252, 171.5 252   C215.5 252, 221.5 208, 221.5 177  Z " fill="white"/><path stroke="black" stroke-width="0" d="M316.5 196 C316.5 176, 326.5 166, 346.5 166   C366.5 166, 376.5 176, 376.5 196   C376.5 216, 366.5 226, 346.5 226   C326.5 226, 316.5 216, 316.5 196  Z " fill="black"/><path stroke="black" stroke-width="0" d="M183.5 196 C183.5 176, 173.5 166, 153.5 166   C133.5 166, 123.5 176, 123.5 196   C123.5 216, 133.5 226, 153.5 226   C173.5 226, 183.5 216, 183.5 196  Z " fill="black"/></svg>

  </svg>