<?xml version="1.0" encoding="UTF-8" standalone="no"?><svg xmlns="http://www.w3.org/2000/svg" id="montage">
    <svg id="ear"><path stroke="black" stroke-width="1" d="M334.5236523481399 68.73844259267003 C534.5236523481399 138.73844259267003, 501.87401295704706 231.009789131227, 444.87401295704706 205.009789131227   " fill="white"/><path stroke="black" stroke-width="1" d="M165.47634765186012 68.73844259267003 C-34.523652348139876 138.73844259267003, -1.8740129570470572 231.009789131227, 55.12598704295294 205.009789131227   " fill="white"/></svg>
    <circle id="countor" stroke="black" cx="250" cy="250" r="200" stroke-width="3" fill="white"/>
    <svg id="mouth"><path stroke="black" stroke-width="1" d="M151 352 C154 341, 346 341, 349 352   M151 352 C68 499, 432 499, 349 352" fill="white"/></svg>
    <svg id="eye"><path stroke="black" stroke-width="1" d="M266.5 190 C266.5 147, 306.5 64, 332.5 64   C345.5 64, 431.5 63, 431.5 124   C431.5 183, 386.5 203, 342.5 203   C303.5 203, 266.5 237, 266.5 190  Z " fill="white"/><path stroke="black" stroke-width="1" d="M233.5 190 C233.5 147, 193.5 64, 167.5 64   C154.5 64, 68.5 63, 68.5 124   C68.5 183, 113.5 203, 157.5 203   C196.5 203, 233.5 237, 233.5 190  Z " fill="white"/><path stroke="black" stroke-width="0" d="M311.5 154 C311.5 134, 321.5 124, 341.5 124   C361.5 124, 371.5 134, 371.5 154   C371.5 174, 361.5 184, 341.5 184   C321.5 184, 311.5 174, 311.5 154  Z " fill="black"/><path stroke="black" stroke-width="0" d="M188.5 154 C188.5 134, 178.5 124, 158.5 124   C138.5 124, 128.5 134, 128.5 154   C128.5 174, 138.5 184, 158.5 184   C178.5 184, 188.5 174, 188.5 154  Z " fill="black"/></svg>

  </svg>