<?xml version="1.0" encoding="UTF-8" standalone="no"?><svg xmlns="http://www.w3.org/2000/svg" id="montage">
    <svg id="ear"><path stroke="black" stroke-width="1" d="M434.1009706904881 171.85377430214527 C499.1009706904881 37.85377430214527, 529.1037151198634 492.11363089143134, 439.1037151198634 315.11363089143134   " fill="white"/><path stroke="black" stroke-width="1" d="M65.89902930951192 171.85377430214527 C0.8990293095119171 37.85377430214527, -29.10371511986338 492.11363089143134, 60.89628488013662 315.11363089143134   " fill="white"/></svg>
    <circle id="countor" stroke="black" cx="250" cy="250" r="200" stroke-width="3" fill="white"/>
    <svg id="mouth"><path stroke="black" stroke-width="1" d="M227 295 C182 278, 318 278, 273 295   M227 295 C225 377, 275 377, 273 295" fill="white"/></svg>
    <svg id="eye"><path stroke="black" stroke-width="1" d="M226.5 222 C226.5 180, 314.5 140, 363.5 140   C432.5 140, 456.5 151, 456.5 231   C456.5 273, 342.5 278, 329.5 278   C263.5 278, 226.5 239, 226.5 222  Z " fill="white"/><path stroke="black" stroke-width="1" d="M273.5 222 C273.5 180, 185.5 140, 136.5 140   C67.5 140, 43.5 151, 43.5 231   C43.5 273, 157.5 278, 170.5 278   C236.5 278, 273.5 239, 273.5 222  Z " fill="white"/><path stroke="black" stroke-width="0" d="M314.5 216 C314.5 196, 324.5 186, 344.5 186   C364.5 186, 374.5 196, 374.5 216   C374.5 236, 364.5 246, 344.5 246   C324.5 246, 314.5 236, 314.5 216  Z " fill="black"/><path stroke="black" stroke-width="0" d="M185.5 216 C185.5 196, 175.5 186, 155.5 186   C135.5 186, 125.5 196, 125.5 216   C125.5 236, 135.5 246, 155.5 246   C175.5 246, 185.5 236, 185.5 216  Z " fill="black"/></svg>

  </svg>