<?xml version="1.0" encoding="UTF-8" standalone="no"?><svg xmlns="http://www.w3.org/2000/svg" id="montage">
    <svg id="ear"><path stroke="black" stroke-width="1" d="M431.26155740733 165.47634765186012 C534.26155740733 19.476347651860124, 571.9043790736547 468.9056926535307, 448.9043790736547 270.9056926535307   " fill="white"/><path stroke="black" stroke-width="1" d="M68.73844259267003 165.47634765186012 C-34.261557407329974 19.476347651860124, -71.90437907365467 468.9056926535307, 51.09562092634533 270.9056926535307   " fill="white"/></svg>
    <circle id="countor" stroke="black" cx="250" cy="250" r="200" stroke-width="3" fill="white"/>
    <svg id="mouth"><path stroke="black" stroke-width="1" d="M182 291 C207 312, 293 312, 318 291   M182 291 C106 226, 394 226, 318 291" fill="white"/></svg>
    <svg id="eye"><path stroke="black" stroke-width="1" d="M262.5 119 C262.5 104, 278.5 50, 300.5 50   C327.5 50, 443.5 120, 443.5 179   C443.5 189, 391.5 229, 316.5 229   C274.5 229, 262.5 194, 262.5 119  Z " fill="white"/><path stroke="black" stroke-width="1" d="M237.5 119 C237.5 104, 221.5 50, 199.5 50   C172.5 50, 56.5 120, 56.5 179   C56.5 189, 108.5 229, 183.5 229   C225.5 229, 237.5 194, 237.5 119  Z " fill="white"/><path stroke="black" stroke-width="0" d="M315.5 155 C315.5 135, 325.5 125, 345.5 125   C365.5 125, 375.5 135, 375.5 155   C375.5 175, 365.5 185, 345.5 185   C325.5 185, 315.5 175, 315.5 155  Z " fill="black"/><path stroke="black" stroke-width="0" d="M184.5 155 C184.5 135, 174.5 125, 154.5 125   C134.5 125, 124.5 135, 124.5 155   C124.5 175, 134.5 185, 154.5 185   C174.5 185, 184.5 175, 184.5 155  Z " fill="black"/></svg>

  </svg>