<?xml version="1.0" encoding="UTF-8" standalone="no"?><svg xmlns="http://www.w3.org/2000/svg" id="montage">
    <svg id="ear"><path stroke="black" stroke-width="1" d="M442.2523391876638 194.87252883660017 C502.2523391876638 22.872528836600168, 455.20508075688775 497, 423.20508075688775 350   " fill="white"/><path stroke="black" stroke-width="1" d="M57.74766081233622 194.87252883660017 C-2.252339187663779 22.872528836600168, 44.79491924311225 497, 76.79491924311225 350   " fill="white"/></svg>
    <circle id="countor" stroke="black" cx="250" cy="250" r="200" stroke-width="3" fill="white"/>
    <svg id="mouth"><path stroke="black" stroke-width="1" d="M208 320 C221 332, 279 332, 292 320   M208 320 C116 404, 384 404, 292 320" fill="white"/></svg>
    <svg id="eye"><path stroke="black" stroke-width="1" d="M255.5 196 C255.5 147, 305.5 139, 358.5 139   C426.5 139, 414.5 218, 414.5 256   C414.5 335, 435.5 289, 361.5 289   C281.5 289, 255.5 211, 255.5 196  Z " fill="white"/><path stroke="black" stroke-width="1" d="M244.5 196 C244.5 147, 194.5 139, 141.5 139   C73.5 139, 85.5 218, 85.5 256   C85.5 335, 64.5 289, 138.5 289   C218.5 289, 244.5 211, 244.5 196  Z " fill="white"/><path stroke="black" stroke-width="0" d="M310.5 208 C310.5 188, 320.5 178, 340.5 178   C360.5 178, 370.5 188, 370.5 208   C370.5 228, 360.5 238, 340.5 238   C320.5 238, 310.5 228, 310.5 208  Z " fill="black"/><path stroke="black" stroke-width="0" d="M189.5 208 C189.5 188, 179.5 178, 159.5 178   C139.5 178, 129.5 188, 129.5 208   C129.5 228, 139.5 238, 159.5 238   C179.5 238, 189.5 228, 189.5 208  Z " fill="black"/></svg>

  </svg>