<?xml version="1.0" encoding="UTF-8" standalone="no"?><svg xmlns="http://www.w3.org/2000/svg" id="montage">
    <svg id="ear"><path stroke="black" stroke-width="1" d="M301.76380902050414 56.81483474218635 C473.76380902050414 165.81483474218635, 382.76380902050414 243.81483474218635, 301.76380902050414 56.81483474218635   " fill="white"/><path stroke="black" stroke-width="1" d="M198.23619097949586 56.81483474218635 C26.23619097949586 165.81483474218635, 117.23619097949586 243.81483474218635, 198.23619097949586 56.81483474218635   " fill="white"/></svg>
    <circle id="countor" stroke="black" cx="250" cy="250" r="200" stroke-width="3" fill="white"/>
    <svg id="mouth"><path stroke="black" stroke-width="1" d="M225.5 385 C206.5 370, 293.5 370, 274.5 385   M225.5 385 C120.5 527, 379.5 527, 274.5 385" fill="white"/></svg>
    <svg id="eye"><path stroke="black" stroke-width="1" d="M290 132 C290 99, 339 90, 359 90   C436 90, 459 203, 459 219   C459 233, 453 259, 377 259   C354 259, 290 149, 290 132  Z " fill="white"/><path stroke="black" stroke-width="1" d="M210 132 C210 99, 161 90, 141 90   C64 90, 41 203, 41 219   C41 233, 47 259, 123 259   C146 259, 210 149, 210 132  Z " fill="white"/><path stroke="black" stroke-width="0" d="M316 170 C316 150, 326 140, 346 140   C366 140, 376 150, 376 170   C376 190, 366 200, 346 200   C326 200, 316 190, 316 170  Z " fill="black"/><path stroke="black" stroke-width="0" d="M184 170 C184 150, 174 140, 154 140   C134 140, 124 150, 124 170   C124 190, 134 200, 154 200   C174 200, 184 190, 184 170  Z " fill="black"/></svg>

  </svg>