<?xml version="1.0" encoding="UTF-8" standalone="no"?><svg xmlns="http://www.w3.org/2000/svg" id="montage">
    <svg id="ear"/>
    <circle id="countor" stroke="black" cx="250" cy="250" r="200" stroke-width="3" fill="white"/>
    <svg id="mouth"><path stroke="black" stroke-width="1" d="M166.5 400 C189.5 399, 310.5 399, 333.5 400   M166.5 400 C194.5 526, 305.5 526, 333.5 400" fill="white"/></svg>
    <svg id="eye"><path stroke="black" stroke-width="1" d="M298.5 112 C298.5 71, 251.5 44, 328.5 44   C355.5 44, 422.5 152, 422.5 180   C422.5 244, 401.5 187, 340.5 187   C288.5 187, 298.5 169, 298.5 112  Z " fill="white"/><path stroke="black" stroke-width="1" d="M201.5 112 C201.5 71, 248.5 44, 171.5 44   C144.5 44, 77.5 152, 77.5 180   C77.5 244, 98.5 187, 159.5 187   C211.5 187, 201.5 169, 201.5 112  Z " fill="white"/><path stroke="black" stroke-width="0" d="M318.5 145 C318.5 125, 328.5 115, 348.5 115   C368.5 115, 378.5 125, 378.5 145   C378.5 165, 368.5 175, 348.5 175   C328.5 175, 318.5 165, 318.5 145  Z " fill="black"/><path stroke="black" stroke-width="0" d="M181.5 145 C181.5 125, 171.5 115, 151.5 115   C131.5 115, 121.5 125, 121.5 145   C121.5 165, 131.5 175, 151.5 175   C171.5 175, 181.5 165, 181.5 145  Z " fill="black"/></svg>

  </svg>