<?xml version="1.0" encoding="UTF-8" standalone="no"?><svg xmlns="http://www.w3.org/2000/svg" id="montage">
    <svg id="ear"><path stroke="black" stroke-width="1" d="M315.11363089143134 60.89628488013665 C326.11363089143134 58.89628488013665, 573.9695390312783 301.4904812874567, 449.96953903127826 253.4904812874567   " fill="white"/><path stroke="black" stroke-width="1" d="M184.88636910856866 60.89628488013665 C173.88636910856866 58.89628488013665, -73.96953903127826 301.4904812874567, 50.03046096872174 253.4904812874567   " fill="white"/></svg>
    <circle id="countor" stroke="black" cx="250" cy="250" r="200" stroke-width="3" fill="white"/>
    <svg id="mouth"><path stroke="black" stroke-width="1" d="M124 299 C96 267, 404 267, 376 299   M124 299 C4 157, 496 157, 376 299" fill="white"/></svg>
    <svg id="eye"><path stroke="black" stroke-width="1" d="M257 96 C257 81, 375 56, 397 56   C472 56, 443 143, 443 165   C443 193, 380 186, 367 186   C296 186, 257 159, 257 96  Z " fill="white"/><path stroke="black" stroke-width="1" d="M243 96 C243 81, 125 56, 103 56   C28 56, 57 143, 57 165   C57 193, 120 186, 133 186   C204 186, 243 159, 243 96  Z " fill="white"/><path stroke="black" stroke-width="0" d="M320 146 C320 126, 330 116, 350 116   C370 116, 380 126, 380 146   C380 166, 370 176, 350 176   C330 176, 320 166, 320 146  Z " fill="black"/><path stroke="black" stroke-width="0" d="M180 146 C180 126, 170 116, 150 116   C130 116, 120 126, 120 146   C120 166, 130 176, 150 176   C170 176, 180 166, 180 146  Z " fill="black"/></svg>

  </svg>