<?xml version="1.0" encoding="UTF-8" standalone="no"?><svg xmlns="http://www.w3.org/2000/svg" id="montage">
    <svg id="ear"/>
    <circle id="countor" stroke="black" cx="250" cy="250" r="200" stroke-width="3" fill="white"/>
    <svg id="mouth"><path stroke="black" stroke-width="1" d="M152.5 407 C140.5 388, 359.5 388, 347.5 407   M152.5 407 C15.5 529, 484.5 529, 347.5 407" fill="white"/></svg>
    <svg id="eye"><path stroke="black" stroke-width="1" d="M276.5 120 C276.5 80, 294.5 108, 312.5 108   C356.5 108, 449.5 86, 449.5 128   C449.5 198, 393.5 283, 368.5 283   C349.5 283, 276.5 166, 276.5 120  Z " fill="white"/><path stroke="black" stroke-width="1" d="M223.5 120 C223.5 80, 205.5 108, 187.5 108   C143.5 108, 50.5 86, 50.5 128   C50.5 198, 106.5 283, 131.5 283   C150.5 283, 223.5 166, 223.5 120  Z " fill="white"/><path stroke="black" stroke-width="0" d="M312.5 164 C312.5 144, 322.5 134, 342.5 134   C362.5 134, 372.5 144, 372.5 164   C372.5 184, 362.5 194, 342.5 194   C322.5 194, 312.5 184, 312.5 164  Z " fill="black"/><path stroke="black" stroke-width="0" d="M187.5 164 C187.5 144, 177.5 134, 157.5 134   C137.5 134, 127.5 144, 127.5 164   C127.5 184, 137.5 194, 157.5 194   C177.5 194, 187.5 184, 187.5 164  Z " fill="black"/></svg>

  </svg>