<?xml version="1.0" encoding="UTF-8" standalone="no"?><svg xmlns="http://www.w3.org/2000/svg" id="montage">
    <svg id="ear"><path stroke="black" stroke-width="1" d="M436.71608529944035 178.32641009093993 C635.7160852994404 331.32641009093993, 635.9385241571817 230.59597133486625, 437.9385241571817 181.59597133486625   " fill="white"/><path stroke="black" stroke-width="1" d="M63.28391470055965 178.32641009093993 C-135.71608529944035 331.32641009093993, -135.9385241571817 230.59597133486625, 62.06147584281831 181.59597133486625   " fill="white"/></svg>
    <circle id="countor" stroke="black" cx="250" cy="250" r="200" stroke-width="3" fill="white"/>
    <svg id="mouth"><path stroke="black" stroke-width="1" d="M225 337 C236 290, 264 290, 275 337   M225 337 C200 481, 300 481, 275 337" fill="white"/></svg>
    <svg id="eye"><path stroke="black" stroke-width="1" d="M291.5 146 C291.5 106, 342.5 97, 365.5 97   C404.5 97, 449.5 196, 449.5 216   C449.5 259, 433.5 227, 355.5 227   C278.5 227, 291.5 196, 291.5 146  Z " fill="white"/><path stroke="black" stroke-width="1" d="M208.5 146 C208.5 106, 157.5 97, 134.5 97   C95.5 97, 50.5 196, 50.5 216   C50.5 259, 66.5 227, 144.5 227   C221.5 227, 208.5 196, 208.5 146  Z " fill="white"/><path stroke="black" stroke-width="0" d="M318.5 181 C318.5 161, 328.5 151, 348.5 151   C368.5 151, 378.5 161, 378.5 181   C378.5 201, 368.5 211, 348.5 211   C328.5 211, 318.5 201, 318.5 181  Z " fill="black"/><path stroke="black" stroke-width="0" d="M181.5 181 C181.5 161, 171.5 151, 151.5 151   C131.5 151, 121.5 161, 121.5 181   C121.5 201, 131.5 211, 151.5 211   C171.5 211, 181.5 201, 181.5 181  Z " fill="black"/></svg>

  </svg>