<?xml version="1.0" encoding="UTF-8" standalone="no"?><svg xmlns="http://www.w3.org/2000/svg" id="montage">
    <svg id="ear"><path stroke="black" stroke-width="1" d="M448.5092303282644 225.6261313189705 C475.5092303282644 138.6261313189705, 603.2389396183491 174.56885145046837, 449.23893961834915 232.56885145046837   " fill="white"/><path stroke="black" stroke-width="1" d="M51.49076967173559 225.6261313189705 C24.490769671735592 138.6261313189705, -103.23893961834912 174.56885145046837, 50.76106038165088 232.56885145046837   " fill="white"/></svg>
    <circle id="countor" stroke="black" cx="250" cy="250" r="200" stroke-width="3" fill="white"/>
    <svg id="mouth"><path stroke="black" stroke-width="1" d="M195.5 416 C245.5 434, 254.5 434, 304.5 416   M195.5 416 C164.5 486, 335.5 486, 304.5 416" fill="white"/></svg>
    <svg id="eye"><path stroke="black" stroke-width="1" d="M306 169 C306 129, 313 154, 392 154   C459 154, 387 247, 387 257   C387 271, 473 254, 393 254   C353 254, 306 202, 306 169  Z " fill="white"/><path stroke="black" stroke-width="1" d="M194 169 C194 129, 187 154, 108 154   C41 154, 113 247, 113 257   C113 271, 27 254, 107 254   C147 254, 194 202, 194 169  Z " fill="white"/><path stroke="black" stroke-width="0" d="M318 209 C318 189, 328 179, 348 179   C368 179, 378 189, 378 209   C378 229, 368 239, 348 239   C328 239, 318 229, 318 209  Z " fill="black"/><path stroke="black" stroke-width="0" d="M182 209 C182 189, 172 179, 152 179   C132 179, 122 189, 122 209   C122 229, 132 239, 152 239   C172 239, 182 229, 182 209  Z " fill="black"/></svg>

  </svg>