<?xml version="1.0" encoding="UTF-8" standalone="no"?><svg xmlns="http://www.w3.org/2000/svg" id="montage">
    <svg id="ear"/>
    <circle id="countor" stroke="black" cx="250" cy="250" r="200" stroke-width="3" fill="white"/>
    <svg id="mouth"><path stroke="black" stroke-width="1" d="M188 270 C175 289, 325 289, 312 270   M188 270 C88 202, 412 202, 312 270" fill="white"/></svg>
    <svg id="eye"><path stroke="black" stroke-width="1" d="M227.5 140 C227.5 119, 368.5 73, 389.5 73   C419.5 73, 429.5 40, 429.5 119   C429.5 197, 431.5 168, 375.5 168   C332.5 168, 227.5 175, 227.5 140  Z " fill="white"/><path stroke="black" stroke-width="1" d="M272.5 140 C272.5 119, 131.5 73, 110.5 73   C80.5 73, 70.5 40, 70.5 119   C70.5 197, 68.5 168, 124.5 168   C167.5 168, 272.5 175, 272.5 140  Z " fill="white"/><path stroke="black" stroke-width="0" d="M314.5 130 C314.5 110, 324.5 100, 344.5 100   C364.5 100, 374.5 110, 374.5 130   C374.5 150, 364.5 160, 344.5 160   C324.5 160, 314.5 150, 314.5 130  Z " fill="black"/><path stroke="black" stroke-width="0" d="M185.5 130 C185.5 110, 175.5 100, 155.5 100   C135.5 100, 125.5 110, 125.5 130   C125.5 150, 135.5 160, 155.5 160   C175.5 160, 185.5 150, 185.5 130  Z " fill="black"/></svg>

  </svg>