<?xml version="1.0" encoding="UTF-8" standalone="no"?><svg xmlns="http://www.w3.org/2000/svg" id="montage">
    <svg id="ear"/>
    <circle id="countor" stroke="black" cx="250" cy="250" r="200" stroke-width="3" fill="white"/>
    <svg id="mouth"><path stroke="black" stroke-width="1" d="M196 279 C244 282, 256 282, 304 279   M196 279 C235 165, 265 165, 304 279" fill="white"/></svg>
    <svg id="eye"><path stroke="black" stroke-width="1" d="M295 177 C295 102, 327 88, 398 88   C423 88, 434 116, 434 160   C434 199, 330 282, 298 282   C236 282, 295 249, 295 177  Z " fill="white"/><path stroke="black" stroke-width="1" d="M205 177 C205 102, 173 88, 102 88   C77 88, 66 116, 66 160   C66 199, 170 282, 202 282   C264 282, 205 249, 205 177  Z " fill="white"/><path stroke="black" stroke-width="0" d="M318 205 C318 185, 328 175, 348 175   C368 175, 378 185, 378 205   C378 225, 368 235, 348 235   C328 235, 318 225, 318 205  Z " fill="black"/><path stroke="black" stroke-width="0" d="M182 205 C182 185, 172 175, 152 175   C132 175, 122 185, 122 205   C122 225, 132 235, 152 235   C172 235, 182 225, 182 205  Z " fill="black"/></svg>

  </svg>