<?xml version="1.0" encoding="UTF-8" standalone="no"?><svg xmlns="http://www.w3.org/2000/svg" id="montage">
    <svg id="ear"/>
    <circle id="countor" stroke="black" cx="250" cy="250" r="200" stroke-width="3" fill="white"/>
    <svg id="mouth"><path stroke="black" stroke-width="1" d="M122.5 279 C126.5 286, 373.5 286, 377.5 279   M122.5 279 C111.5 254, 388.5 254, 377.5 279" fill="white"/></svg>
    <svg id="eye"><path stroke="black" stroke-width="1" d="M234 151 C234 103, 323 129, 339 129   C375 129, 399 161, 399 172   C399 239, 394 284, 325 284   C280 284, 234 191, 234 151  Z " fill="white"/><path stroke="black" stroke-width="1" d="M266 151 C266 103, 177 129, 161 129   C125 129, 101 161, 101 172   C101 239, 106 284, 175 284   C220 284, 266 191, 266 151  Z " fill="white"/><path stroke="black" stroke-width="0" d="M314 193 C314 173, 324 163, 344 163   C364 163, 374 173, 374 193   C374 213, 364 223, 344 223   C324 223, 314 213, 314 193  Z " fill="black"/><path stroke="black" stroke-width="0" d="M186 193 C186 173, 176 163, 156 163   C136 163, 126 173, 126 193   C126 213, 136 223, 156 223   C176 223, 186 213, 186 193  Z " fill="black"/></svg>

  </svg>