<?xml version="1.0" encoding="UTF-8" standalone="no"?><svg xmlns="http://www.w3.org/2000/svg" id="montage">
    <svg id="ear"><path stroke="black" stroke-width="1" d="M284.7296355333861 53.038449397558395 C412.7296355333861 -86.9615506024416, 490.00761498201086 -91.43346014042245, 353.00761498201086 78.56653985957755   " fill="white"/><path stroke="black" stroke-width="1" d="M215.27036446661393 53.038449397558395 C87.27036446661393 -86.9615506024416, 9.992385017989136 -91.43346014042245, 146.99238501798914 78.56653985957755   " fill="white"/></svg>
    <circle id="countor" stroke="black" cx="250" cy="250" r="200" stroke-width="3" fill="white"/>
    <svg id="mouth"><path stroke="black" stroke-width="1" d="M210.5 361 C238.5 397, 261.5 397, 289.5 361   M210.5 361 C325.5 464, 174.5 464, 289.5 361" fill="white"/></svg>
    <svg id="eye"><path stroke="black" stroke-width="1" d="M263 212 C263 168, 340 70, 363 70   C433 70, 397 100, 397 131   C397 194, 386 245, 347 245   C330 245, 263 280, 263 212  Z " fill="white"/><path stroke="black" stroke-width="1" d="M237 212 C237 168, 160 70, 137 70   C67 70, 103 100, 103 131   C103 194, 114 245, 153 245   C170 245, 237 280, 237 212  Z " fill="white"/><path stroke="black" stroke-width="0" d="M319 165 C319 145, 329 135, 349 135   C369 135, 379 145, 379 165   C379 185, 369 195, 349 195   C329 195, 319 185, 319 165  Z " fill="black"/><path stroke="black" stroke-width="0" d="M181 165 C181 145, 171 135, 151 135   C131 135, 121 145, 121 165   C121 185, 131 195, 151 195   C171 195, 181 185, 181 165  Z " fill="black"/></svg>

  </svg>