<?xml version="1.0" encoding="UTF-8" standalone="no"?><svg xmlns="http://www.w3.org/2000/svg" id="montage">
    <svg id="ear"><path stroke="black" stroke-width="1" d="M315.11363089143134 60.89628488013665 C434.11363089143134 -56.10371511986335, 603.5376681190276 352.71310699195385, 447.53766811902756 218.71310699195382   " fill="white"/><path stroke="black" stroke-width="1" d="M184.88636910856866 60.89628488013665 C65.88636910856866 -56.10371511986335, -103.53766811902756 352.71310699195385, 52.46233188097244 218.71310699195382   " fill="white"/></svg>
    <circle id="countor" stroke="black" cx="250" cy="250" r="200" stroke-width="3" fill="white"/>
    <svg id="mouth"><path stroke="black" stroke-width="1" d="M208.5 298 C176.5 315, 323.5 315, 291.5 298   M208.5 298 C159.5 289, 340.5 289, 291.5 298" fill="white"/></svg>
    <svg id="eye"><path stroke="black" stroke-width="1" d="M247.5 210 C247.5 159, 265.5 91, 335.5 91   C369.5 91, 409.5 144, 409.5 221   C409.5 255, 363.5 312, 322.5 312   C257.5 312, 247.5 222, 247.5 210  Z " fill="white"/><path stroke="black" stroke-width="1" d="M252.5 210 C252.5 159, 234.5 91, 164.5 91   C130.5 91, 90.5 144, 90.5 221   C90.5 255, 136.5 312, 177.5 312   C242.5 312, 252.5 222, 252.5 210  Z " fill="white"/><path stroke="black" stroke-width="0" d="M312.5 205 C312.5 185, 322.5 175, 342.5 175   C362.5 175, 372.5 185, 372.5 205   C372.5 225, 362.5 235, 342.5 235   C322.5 235, 312.5 225, 312.5 205  Z " fill="black"/><path stroke="black" stroke-width="0" d="M187.5 205 C187.5 185, 177.5 175, 157.5 175   C137.5 175, 127.5 185, 127.5 205   C127.5 225, 137.5 235, 157.5 235   C177.5 235, 187.5 225, 187.5 205  Z " fill="black"/></svg>

  </svg>