<?xml version="1.0" encoding="UTF-8" standalone="no"?><svg xmlns="http://www.w3.org/2000/svg" id="montage">
    <svg id="ear"><path stroke="black" stroke-width="1" d="M449.7259069509148 239.53280875141124 C591.7259069509148 393.53280875141127, 491.1009706904881 485.14622569785473, 434.1009706904881 328.14622569785473   " fill="white"/><path stroke="black" stroke-width="1" d="M50.274093049085224 239.53280875141124 C-91.72590695091478 393.53280875141127, 8.899029309511917 485.14622569785473, 65.89902930951192 328.14622569785473   " fill="white"/></svg>
    <circle id="countor" stroke="black" cx="250" cy="250" r="200" stroke-width="3" fill="white"/>
    <svg id="mouth"><path stroke="black" stroke-width="1" d="M171 302 C211 313, 289 313, 329 302   M171 302 C59 236, 441 236, 329 302" fill="white"/></svg>
    <svg id="eye"><path stroke="black" stroke-width="1" d="M225.5 99 C225.5 48, 317.5 50, 383.5 50   C459.5 50, 400.5 94, 400.5 162   C400.5 220, 429.5 224, 357.5 224   C277.5 224, 225.5 177, 225.5 99  Z " fill="white"/><path stroke="black" stroke-width="1" d="M274.5 99 C274.5 48, 182.5 50, 116.5 50   C40.5 50, 99.5 94, 99.5 162   C99.5 220, 70.5 224, 142.5 224   C222.5 224, 274.5 177, 274.5 99  Z " fill="white"/><path stroke="black" stroke-width="0" d="M311.5 138 C311.5 118, 321.5 108, 341.5 108   C361.5 108, 371.5 118, 371.5 138   C371.5 158, 361.5 168, 341.5 168   C321.5 168, 311.5 158, 311.5 138  Z " fill="black"/><path stroke="black" stroke-width="0" d="M188.5 138 C188.5 118, 178.5 108, 158.5 108   C138.5 108, 128.5 118, 128.5 138   C128.5 158, 138.5 168, 158.5 168   C178.5 168, 188.5 158, 188.5 138  Z " fill="black"/></svg>

  </svg>