<?xml version="1.0" encoding="UTF-8" standalone="no"?><svg xmlns="http://www.w3.org/2000/svg" id="montage">
    <svg id="ear"/>
    <circle id="countor" stroke="black" cx="250" cy="250" r="200" stroke-width="3" fill="white"/>
    <svg id="mouth"><path stroke="black" stroke-width="1" d="M233.5 363 C246.5 367, 253.5 367, 266.5 363   M233.5 363 C378.5 244, 121.5 244, 266.5 363" fill="white"/></svg>
    <svg id="eye"><path stroke="black" stroke-width="1" d="M233.5 207 C233.5 183, 313.5 119, 381.5 119   C421.5 119, 422.5 102, 422.5 175   C422.5 209, 434.5 216, 369.5 216   C334.5 216, 233.5 251, 233.5 207  Z " fill="white"/><path stroke="black" stroke-width="1" d="M266.5 207 C266.5 183, 186.5 119, 118.5 119   C78.5 119, 77.5 102, 77.5 175   C77.5 209, 65.5 216, 130.5 216   C165.5 216, 266.5 251, 266.5 207  Z " fill="white"/><path stroke="black" stroke-width="0" d="M314.5 160 C314.5 140, 324.5 130, 344.5 130   C364.5 130, 374.5 140, 374.5 160   C374.5 180, 364.5 190, 344.5 190   C324.5 190, 314.5 180, 314.5 160  Z " fill="black"/><path stroke="black" stroke-width="0" d="M185.5 160 C185.5 140, 175.5 130, 155.5 130   C135.5 130, 125.5 140, 125.5 160   C125.5 180, 135.5 190, 155.5 190   C175.5 190, 185.5 180, 185.5 160  Z " fill="black"/></svg>

  </svg>