<?xml version="1.0" encoding="UTF-8" standalone="no"?><svg xmlns="http://www.w3.org/2000/svg" id="montage">
    <svg id="ear"><path stroke="black" stroke-width="1" d="M413.8304088577984 135.28471272979078 C578.8304088577984 188.28471272979078, 565.7259069509148 74.53280875141124, 449.7259069509148 239.53280875141124   " fill="white"/><path stroke="black" stroke-width="1" d="M86.16959114220165 135.28471272979078 C-78.83040885779835 188.28471272979078, -65.72590695091478 74.53280875141124, 50.274093049085224 239.53280875141124   " fill="white"/></svg>
    <circle id="countor" stroke="black" cx="250" cy="250" r="200" stroke-width="3" fill="white"/>
    <svg id="mouth"><path stroke="black" stroke-width="1" d="M133 270 C167 294, 333 294, 367 270   M133 270 C67 369, 433 369, 367 270" fill="white"/></svg>
    <svg id="eye"><path stroke="black" stroke-width="1" d="M268.5 200 C268.5 134, 259.5 182, 329.5 182   C357.5 182, 382.5 226, 382.5 242   C382.5 259, 409.5 264, 389.5 264   C349.5 264, 268.5 265, 268.5 200  Z " fill="white"/><path stroke="black" stroke-width="1" d="M231.5 200 C231.5 134, 240.5 182, 170.5 182   C142.5 182, 117.5 226, 117.5 242   C117.5 259, 90.5 264, 110.5 264   C150.5 264, 231.5 265, 231.5 200  Z " fill="white"/><path stroke="black" stroke-width="0" d="M314.5 226 C314.5 206, 324.5 196, 344.5 196   C364.5 196, 374.5 206, 374.5 226   C374.5 246, 364.5 256, 344.5 256   C324.5 256, 314.5 246, 314.5 226  Z " fill="black"/><path stroke="black" stroke-width="0" d="M185.5 226 C185.5 206, 175.5 196, 155.5 196   C135.5 196, 125.5 206, 125.5 226   C125.5 246, 135.5 256, 155.5 256   C175.5 256, 185.5 246, 185.5 226  Z " fill="black"/></svg>

  </svg>