<?xml version="1.0" encoding="UTF-8" standalone="no"?><svg xmlns="http://www.w3.org/2000/svg" id="montage">
    <svg id="ear"/>
    <circle id="countor" stroke="black" cx="250" cy="250" r="200" stroke-width="3" fill="white"/>
    <svg id="mouth"><path stroke="black" stroke-width="1" d="M186 404 C182 355, 318 355, 314 404   M186 404 C83 257, 417 257, 314 404" fill="white"/></svg>
    <svg id="eye"><path stroke="black" stroke-width="1" d="M283.5 214 C283.5 201, 290.5 170, 341.5 170   C365.5 170, 443.5 141, 443.5 202   C443.5 227, 401.5 288, 353.5 288   C276.5 288, 283.5 228, 283.5 214  Z " fill="white"/><path stroke="black" stroke-width="1" d="M216.5 214 C216.5 201, 209.5 170, 158.5 170   C134.5 170, 56.5 141, 56.5 202   C56.5 227, 98.5 288, 146.5 288   C223.5 288, 216.5 228, 216.5 214  Z " fill="white"/><path stroke="black" stroke-width="0" d="M317.5 215 C317.5 195, 327.5 185, 347.5 185   C367.5 185, 377.5 195, 377.5 215   C377.5 235, 367.5 245, 347.5 245   C327.5 245, 317.5 235, 317.5 215  Z " fill="black"/><path stroke="black" stroke-width="0" d="M182.5 215 C182.5 195, 172.5 185, 152.5 185   C132.5 185, 122.5 195, 122.5 215   C122.5 235, 132.5 245, 152.5 245   C172.5 245, 182.5 235, 182.5 215  Z " fill="black"/></svg>

  </svg>