<?xml version="1.0" encoding="UTF-8" standalone="no"?><svg xmlns="http://www.w3.org/2000/svg" id="montage">
    <svg id="ear"/>
    <circle id="countor" stroke="black" cx="250" cy="250" r="200" stroke-width="3" fill="white"/>
    <svg id="mouth"><path stroke="black" stroke-width="1" d="M155.5 278 C177.5 258, 322.5 258, 344.5 278   M155.5 278 C203.5 185, 296.5 185, 344.5 278" fill="white"/></svg>
    <svg id="eye"><path stroke="black" stroke-width="1" d="M281.5 190 C281.5 122, 355.5 117, 369.5 117   C400.5 117, 376.5 199, 376.5 219   C376.5 260, 408.5 290, 331.5 290   C278.5 290, 281.5 235, 281.5 190  Z " fill="white"/><path stroke="black" stroke-width="1" d="M218.5 190 C218.5 122, 144.5 117, 130.5 117   C99.5 117, 123.5 199, 123.5 219   C123.5 260, 91.5 290, 168.5 290   C221.5 290, 218.5 235, 218.5 190  Z " fill="white"/><path stroke="black" stroke-width="0" d="M311.5 190 C311.5 170, 321.5 160, 341.5 160   C361.5 160, 371.5 170, 371.5 190   C371.5 210, 361.5 220, 341.5 220   C321.5 220, 311.5 210, 311.5 190  Z " fill="black"/><path stroke="black" stroke-width="0" d="M188.5 190 C188.5 170, 178.5 160, 158.5 160   C138.5 160, 128.5 170, 128.5 190   C128.5 210, 138.5 220, 158.5 220   C178.5 220, 188.5 210, 188.5 190  Z " fill="black"/></svg>

  </svg>