<?xml version="1.0" encoding="UTF-8" standalone="no"?><svg xmlns="http://www.w3.org/2000/svg" id="montage">
    <svg id="ear"/>
    <circle id="countor" stroke="black" cx="250" cy="250" r="200" stroke-width="3" fill="white"/>
    <svg id="mouth"><path stroke="black" stroke-width="1" d="M181.5 314 C159.5 335, 340.5 335, 318.5 314   M181.5 314 C205.5 426, 294.5 426, 318.5 314" fill="white"/></svg>
    <svg id="eye"><path stroke="black" stroke-width="1" d="M238 217 C238 169, 304 157, 325 157   C364 157, 388 166, 388 183   C388 230, 453 241, 395 241   C353 241, 238 292, 238 217  Z " fill="white"/><path stroke="black" stroke-width="1" d="M262 217 C262 169, 196 157, 175 157   C136 157, 112 166, 112 183   C112 230, 47 241, 105 241   C147 241, 262 292, 262 217  Z " fill="white"/><path stroke="black" stroke-width="0" d="M319 195 C319 175, 329 165, 349 165   C369 165, 379 175, 379 195   C379 215, 369 225, 349 225   C329 225, 319 215, 319 195  Z " fill="black"/><path stroke="black" stroke-width="0" d="M181 195 C181 175, 171 165, 151 165   C131 165, 121 175, 121 195   C121 215, 131 225, 151 225   C171 225, 181 215, 181 195  Z " fill="black"/></svg>

  </svg>