<?xml version="1.0" encoding="UTF-8" standalone="no"?><svg xmlns="http://www.w3.org/2000/svg" id="montage">
    <svg id="ear"><path stroke="black" stroke-width="1" d="M364.7152872702092 86.16959114220165 C476.7152872702092 215.16959114220165, 454.7588092598334 -12.674229357815477, 429.7588092598334 162.32577064218452   " fill="white"/><path stroke="black" stroke-width="1" d="M135.28471272979078 86.16959114220165 C23.284712729790783 215.16959114220165, 45.24119074016659 -12.674229357815477, 70.24119074016659 162.32577064218452   " fill="white"/></svg>
    <circle id="countor" stroke="black" cx="250" cy="250" r="200" stroke-width="3" fill="white"/>
    <svg id="mouth"><path stroke="black" stroke-width="1" d="M132.5 318 C82.5 339, 417.5 339, 367.5 318   M132.5 318 C109.5 291, 390.5 291, 367.5 318" fill="white"/></svg>
    <svg id="eye"><path stroke="black" stroke-width="1" d="M243 174 C243 159, 288 90, 329 90   C381 90, 389 104, 389 164   C389 183, 399 277, 381 277   C363 277, 243 224, 243 174  Z " fill="white"/><path stroke="black" stroke-width="1" d="M257 174 C257 159, 212 90, 171 90   C119 90, 111 104, 111 164   C111 183, 101 277, 119 277   C137 277, 257 224, 257 174  Z " fill="white"/><path stroke="black" stroke-width="0" d="M319 203 C319 183, 329 173, 349 173   C369 173, 379 183, 379 203   C379 223, 369 233, 349 233   C329 233, 319 223, 319 203  Z " fill="black"/><path stroke="black" stroke-width="0" d="M181 203 C181 183, 171 173, 151 173   C131 173, 121 183, 121 203   C121 223, 131 233, 151 233   C171 233, 181 223, 181 203  Z " fill="black"/></svg>

  </svg>