<?xml version="1.0" encoding="UTF-8" standalone="no"?><svg xmlns="http://www.w3.org/2000/svg" id="montage">
    <svg id="ear"/>
    <circle id="countor" stroke="black" cx="250" cy="250" r="200" stroke-width="3" fill="white"/>
    <svg id="mouth"><path stroke="black" stroke-width="1" d="M194 304 C204 314, 296 314, 306 304   M194 304 C122 275, 378 275, 306 304" fill="white"/></svg>
    <svg id="eye"><path stroke="black" stroke-width="1" d="M261 187 C261 158, 274 77, 321 77   C361 77, 424 157, 424 207   C424 251, 393 245, 380 245   C300 245, 261 254, 261 187  Z " fill="white"/><path stroke="black" stroke-width="1" d="M239 187 C239 158, 226 77, 179 77   C139 77, 76 157, 76 207   C76 251, 107 245, 120 245   C200 245, 239 254, 239 187  Z " fill="white"/><path stroke="black" stroke-width="0" d="M317 169 C317 149, 327 139, 347 139   C367 139, 377 149, 377 169   C377 189, 367 199, 347 199   C327 199, 317 189, 317 169  Z " fill="black"/><path stroke="black" stroke-width="0" d="M183 169 C183 149, 173 139, 153 139   C133 139, 123 149, 123 169   C123 189, 133 199, 153 199   C173 199, 183 189, 183 169  Z " fill="black"/></svg>

  </svg>