<?xml version="1.0" encoding="UTF-8" standalone="no"?><svg xmlns="http://www.w3.org/2000/svg" id="montage">
    <svg id="ear"/>
    <circle id="countor" stroke="black" cx="250" cy="250" r="200" stroke-width="3" fill="white"/>
    <svg id="mouth"><path stroke="black" stroke-width="1" d="M142.5 336 C129.5 330, 370.5 330, 357.5 336   M142.5 336 C85.5 198, 414.5 198, 357.5 336" fill="white"/></svg>
    <svg id="eye"><path stroke="black" stroke-width="1" d="M294.5 192 C294.5 131, 296.5 163, 314.5 163   C341.5 163, 395.5 181, 395.5 218   C395.5 229, 368.5 296, 315.5 296   C297.5 296, 294.5 246, 294.5 192  Z " fill="white"/><path stroke="black" stroke-width="1" d="M205.5 192 C205.5 131, 203.5 163, 185.5 163   C158.5 163, 104.5 181, 104.5 218   C104.5 229, 131.5 296, 184.5 296   C202.5 296, 205.5 246, 205.5 192  Z " fill="white"/><path stroke="black" stroke-width="0" d="M316.5 209 C316.5 189, 326.5 179, 346.5 179   C366.5 179, 376.5 189, 376.5 209   C376.5 229, 366.5 239, 346.5 239   C326.5 239, 316.5 229, 316.5 209  Z " fill="black"/><path stroke="black" stroke-width="0" d="M183.5 209 C183.5 189, 173.5 179, 153.5 179   C133.5 179, 123.5 189, 123.5 209   C123.5 229, 133.5 239, 153.5 239   C173.5 239, 183.5 229, 183.5 209  Z " fill="black"/></svg>

  </svg>