<?xml version="1.0" encoding="UTF-8" standalone="no"?><svg xmlns="http://www.w3.org/2000/svg" id="montage">
    <svg id="ear"><path stroke="black" stroke-width="1" d="M419.6096192312852 144.01614715335901 C515.6096192312853 -42.983852846640985, 525.0591452551993 371.38437911993356, 444.05914525519927 298.38437911993356   " fill="white"/><path stroke="black" stroke-width="1" d="M80.3903807687148 144.01614715335901 C-15.609619231285194 -42.983852846640985, -25.059145255199297 371.38437911993356, 55.9408547448007 298.38437911993356   " fill="white"/></svg>
    <circle id="countor" stroke="black" cx="250" cy="250" r="200" stroke-width="3" fill="white"/>
    <svg id="mouth"><path stroke="black" stroke-width="1" d="M240 359 C205 404, 295 404, 260 359   M240 359 C388 325, 112 325, 260 359" fill="white"/></svg>
    <svg id="eye"><path stroke="black" stroke-width="1" d="M242 185 C242 170, 389 113, 400 113   C461 113, 416 94, 416 143   C416 213, 376 257, 336 257   C304 257, 242 200, 242 185  Z " fill="white"/><path stroke="black" stroke-width="1" d="M258 185 C258 170, 111 113, 100 113   C39 113, 84 94, 84 143   C84 213, 124 257, 164 257   C196 257, 258 200, 258 185  Z " fill="white"/><path stroke="black" stroke-width="0" d="M320 148 C320 128, 330 118, 350 118   C370 118, 380 128, 380 148   C380 168, 370 178, 350 178   C330 178, 320 168, 320 148  Z " fill="black"/><path stroke="black" stroke-width="0" d="M180 148 C180 128, 170 118, 150 118   C130 118, 120 128, 120 148   C120 168, 130 178, 150 178   C170 178, 180 168, 180 148  Z " fill="black"/></svg>

  </svg>