<?xml version="1.0" encoding="UTF-8" standalone="no"?><svg xmlns="http://www.w3.org/2000/svg" id="montage">
    <svg id="ear"/>
    <circle id="countor" stroke="black" cx="250" cy="250" r="200" stroke-width="3" fill="white"/>
    <svg id="mouth"><path stroke="black" stroke-width="1" d="M206 319 C236 279, 264 279, 294 319   M206 319 C178 228, 322 228, 294 319" fill="white"/></svg>
    <svg id="eye"><path stroke="black" stroke-width="1" d="M273 231 C273 196, 315 121, 350 121   C405 121, 390 207, 390 234   C390 250, 339 312, 303 312   C235 312, 273 288, 273 231  Z " fill="white"/><path stroke="black" stroke-width="1" d="M227 231 C227 196, 185 121, 150 121   C95 121, 110 207, 110 234   C110 250, 161 312, 197 312   C265 312, 227 288, 227 231  Z " fill="white"/><path stroke="black" stroke-width="0" d="M312 200 C312 180, 322 170, 342 170   C362 170, 372 180, 372 200   C372 220, 362 230, 342 230   C322 230, 312 220, 312 200  Z " fill="black"/><path stroke="black" stroke-width="0" d="M188 200 C188 180, 178 170, 158 170   C138 170, 128 180, 128 200   C128 220, 138 230, 158 230   C178 230, 188 220, 188 200  Z " fill="black"/></svg>

  </svg>