<?xml version="1.0" encoding="UTF-8" standalone="no"?><svg xmlns="http://www.w3.org/2000/svg" id="montage">
    <svg id="ear"/>
    <circle id="countor" stroke="black" cx="250" cy="250" r="200" stroke-width="3" fill="white"/>
    <svg id="mouth"><path stroke="black" stroke-width="1" d="M175.5 382 C222.5 420, 277.5 420, 324.5 382   M175.5 382 C183.5 517, 316.5 517, 324.5 382" fill="white"/></svg>
    <svg id="eye"><path stroke="black" stroke-width="1" d="M229 231 C229 177, 330 181, 357 181   C380 181, 420 133, 420 185   C420 225, 341 292, 314 292   C237 292, 229 256, 229 231  Z " fill="white"/><path stroke="black" stroke-width="1" d="M271 231 C271 177, 170 181, 143 181   C120 181, 80 133, 80 185   C80 225, 159 292, 186 292   C263 292, 271 256, 271 231  Z " fill="white"/><path stroke="black" stroke-width="0" d="M318 226 C318 206, 328 196, 348 196   C368 196, 378 206, 378 226   C378 246, 368 256, 348 256   C328 256, 318 246, 318 226  Z " fill="black"/><path stroke="black" stroke-width="0" d="M182 226 C182 206, 172 196, 152 196   C132 196, 122 206, 122 226   C122 246, 132 256, 152 256   C172 256, 182 246, 182 226  Z " fill="black"/></svg>

  </svg>