<?xml version="1.0" encoding="UTF-8" standalone="no"?><svg xmlns="http://www.w3.org/2000/svg" id="montage">
    <svg id="ear"/>
    <circle id="countor" stroke="black" cx="250" cy="250" r="200" stroke-width="3" fill="white"/>
    <svg id="mouth"><path stroke="black" stroke-width="1" d="M219.5 301 C231.5 348, 268.5 348, 280.5 301   M219.5 301 C252.5 413, 247.5 413, 280.5 301" fill="white"/></svg>
    <svg id="eye"><path stroke="black" stroke-width="1" d="M229.5 179 C229.5 131, 277.5 179, 298.5 179   C356.5 179, 460.5 173, 460.5 196   C460.5 253, 369.5 279, 344.5 279   C267.5 279, 229.5 236, 229.5 179  Z " fill="white"/><path stroke="black" stroke-width="1" d="M270.5 179 C270.5 131, 222.5 179, 201.5 179   C143.5 179, 39.5 173, 39.5 196   C39.5 253, 130.5 279, 155.5 279   C232.5 279, 270.5 236, 270.5 179  Z " fill="white"/><path stroke="black" stroke-width="0" d="M318.5 221 C318.5 201, 328.5 191, 348.5 191   C368.5 191, 378.5 201, 378.5 221   C378.5 241, 368.5 251, 348.5 251   C328.5 251, 318.5 241, 318.5 221  Z " fill="black"/><path stroke="black" stroke-width="0" d="M181.5 221 C181.5 201, 171.5 191, 151.5 191   C131.5 191, 121.5 201, 121.5 221   C121.5 241, 131.5 251, 151.5 251   C171.5 251, 181.5 241, 181.5 221  Z " fill="black"/></svg>

  </svg>