<?xml version="1.0" encoding="UTF-8" standalone="no"?><svg xmlns="http://www.w3.org/2000/svg" id="montage">
    <svg id="ear"><path stroke="black" stroke-width="1" d="M291.58233816355187 54.37047985323889 C399.58233816355187 -74.62952014676111, 500.53766811902756 399.28689300804615, 447.53766811902756 281.28689300804615   " fill="white"/><path stroke="black" stroke-width="1" d="M208.4176618364481 54.37047985323889 C100.4176618364481 -74.62952014676111, -0.5376681190275576 399.28689300804615, 52.46233188097244 281.28689300804615   " fill="white"/></svg>
    <circle id="countor" stroke="black" cx="250" cy="250" r="200" stroke-width="3" fill="white"/>
    <svg id="mouth"><path stroke="black" stroke-width="1" d="M184 307 C187 350, 313 350, 316 307   M184 307 C204 204, 296 204, 316 307" fill="white"/></svg>
    <svg id="eye"><path stroke="black" stroke-width="1" d="M239 111 C239 58, 297 84, 320 84   C383 84, 399 67, 399 126   C399 149, 380 182, 318 182   C285 182, 239 153, 239 111  Z " fill="white"/><path stroke="black" stroke-width="1" d="M261 111 C261 58, 203 84, 180 84   C117 84, 101 67, 101 126   C101 149, 120 182, 182 182   C215 182, 261 153, 261 111  Z " fill="white"/><path stroke="black" stroke-width="0" d="M312 139 C312 119, 322 109, 342 109   C362 109, 372 119, 372 139   C372 159, 362 169, 342 169   C322 169, 312 159, 312 139  Z " fill="black"/><path stroke="black" stroke-width="0" d="M188 139 C188 119, 178 109, 158 109   C138 109, 128 119, 128 139   C128 159, 138 169, 158 169   C178 169, 188 159, 188 139  Z " fill="black"/></svg>

  </svg>