<?xml version="1.0" encoding="UTF-8" standalone="no"?><svg xmlns="http://www.w3.org/2000/svg" id="montage">
    <svg id="ear"><path stroke="black" stroke-width="1" d="M396.2707403238341 113.6003279875003 C432.2707403238341 247.6003279875003, 605.0591452551993 265.61562088006644, 444.05914525519927 201.61562088006644   " fill="white"/><path stroke="black" stroke-width="1" d="M103.7292596761659 113.6003279875003 C67.7292596761659 247.6003279875003, -105.0591452551993 265.61562088006644, 55.9408547448007 201.61562088006644   " fill="white"/></svg>
    <circle id="countor" stroke="black" cx="250" cy="250" r="200" stroke-width="3" fill="white"/>
    <svg id="mouth"><path stroke="black" stroke-width="1" d="M192.5 286 C190.5 246, 309.5 246, 307.5 286   M192.5 286 C239.5 429, 260.5 429, 307.5 286" fill="white"/></svg>
    <svg id="eye"><path stroke="black" stroke-width="1" d="M294.5 206 C294.5 131, 303.5 151, 331.5 151   C396.5 151, 390.5 125, 390.5 183   C390.5 195, 418.5 252, 375.5 252   C348.5 252, 294.5 269, 294.5 206  Z " fill="white"/><path stroke="black" stroke-width="1" d="M205.5 206 C205.5 131, 196.5 151, 168.5 151   C103.5 151, 109.5 125, 109.5 183   C109.5 195, 81.5 252, 124.5 252   C151.5 252, 205.5 269, 205.5 206  Z " fill="white"/><path stroke="black" stroke-width="0" d="M317.5 215 C317.5 195, 327.5 185, 347.5 185   C367.5 185, 377.5 195, 377.5 215   C377.5 235, 367.5 245, 347.5 245   C327.5 245, 317.5 235, 317.5 215  Z " fill="black"/><path stroke="black" stroke-width="0" d="M182.5 215 C182.5 195, 172.5 185, 152.5 185   C132.5 185, 122.5 195, 122.5 215   C122.5 235, 132.5 245, 152.5 245   C172.5 245, 182.5 235, 182.5 215  Z " fill="black"/></svg>

  </svg>