<?xml version="1.0" encoding="UTF-8" standalone="no"?><svg xmlns="http://www.w3.org/2000/svg" id="montage">
    <svg id="ear"><path stroke="black" stroke-width="1" d="M429.7588092598334 162.32577064218452 C546.7588092598335 320.3257706421845, 470.9385241571817 312.59597133486625, 437.9385241571817 181.59597133486625   " fill="white"/><path stroke="black" stroke-width="1" d="M70.24119074016659 162.32577064218452 C-46.75880925983341 320.3257706421845, 29.06147584281831 312.59597133486625, 62.06147584281831 181.59597133486625   " fill="white"/></svg>
    <circle id="countor" stroke="black" cx="250" cy="250" r="200" stroke-width="3" fill="white"/>
    <svg id="mouth"><path stroke="black" stroke-width="1" d="M145.5 278 C157.5 259, 342.5 259, 354.5 278   M145.5 278 C232.5 156, 267.5 156, 354.5 278" fill="white"/></svg>
    <svg id="eye"><path stroke="black" stroke-width="1" d="M247 165 C247 96, 378 46, 388 46   C433 46, 414 82, 414 143   C414 162, 407 251, 343 251   C293 251, 247 184, 247 165  Z " fill="white"/><path stroke="black" stroke-width="1" d="M253 165 C253 96, 122 46, 112 46   C67 46, 86 82, 86 143   C86 162, 93 251, 157 251   C207 251, 253 184, 253 165  Z " fill="white"/><path stroke="black" stroke-width="0" d="M318 135 C318 115, 328 105, 348 105   C368 105, 378 115, 378 135   C378 155, 368 165, 348 165   C328 165, 318 155, 318 135  Z " fill="black"/><path stroke="black" stroke-width="0" d="M182 135 C182 115, 172 105, 152 105   C132 105, 122 115, 122 135   C122 155, 132 165, 152 165   C172 165, 182 155, 182 135  Z " fill="black"/></svg>

  </svg>