<?xml version="1.0" encoding="UTF-8" standalone="no"?><svg xmlns="http://www.w3.org/2000/svg" id="montage">
    <svg id="ear"/>
    <circle id="countor" stroke="black" cx="250" cy="250" r="200" stroke-width="3" fill="white"/>
    <svg id="mouth"><path stroke="black" stroke-width="1" d="M219.5 300 C233.5 262, 266.5 262, 280.5 300   M219.5 300 C258.5 224, 241.5 224, 280.5 300" fill="white"/></svg>
    <svg id="eye"><path stroke="black" stroke-width="1" d="M291.5 186 C291.5 109, 310.5 166, 375.5 166   C420.5 166, 392.5 199, 392.5 247   C392.5 294, 416.5 294, 340.5 294   C299.5 294, 291.5 200, 291.5 186  Z " fill="white"/><path stroke="black" stroke-width="1" d="M208.5 186 C208.5 109, 189.5 166, 124.5 166   C79.5 166, 107.5 199, 107.5 247   C107.5 294, 83.5 294, 159.5 294   C200.5 294, 208.5 200, 208.5 186  Z " fill="white"/><path stroke="black" stroke-width="0" d="M317.5 216 C317.5 196, 327.5 186, 347.5 186   C367.5 186, 377.5 196, 377.5 216   C377.5 236, 367.5 246, 347.5 246   C327.5 246, 317.5 236, 317.5 216  Z " fill="black"/><path stroke="black" stroke-width="0" d="M182.5 216 C182.5 196, 172.5 186, 152.5 186   C132.5 186, 122.5 196, 122.5 216   C122.5 236, 132.5 246, 152.5 246   C172.5 246, 182.5 236, 182.5 216  Z " fill="black"/></svg>

  </svg>