<?xml version="1.0" encoding="UTF-8" standalone="no"?><svg xmlns="http://www.w3.org/2000/svg" id="montage">
    <svg id="ear"><path stroke="black" stroke-width="1" d="M321.67358990906007 63.28391470055965 C332.67358990906007 140.28391470055965, 474.3254366895328 51.83820092469102, 446.3254366895328 211.83820092469102   " fill="white"/><path stroke="black" stroke-width="1" d="M178.32641009093993 63.28391470055965 C167.32641009093993 140.28391470055965, 25.674563310467192 51.83820092469102, 53.67456331046719 211.83820092469102   " fill="white"/></svg>
    <circle id="countor" stroke="black" cx="250" cy="250" r="200" stroke-width="3" fill="white"/>
    <svg id="mouth"><path stroke="black" stroke-width="1" d="M165.5 421 C183.5 373, 316.5 373, 334.5 421   M165.5 421 C18.5 297, 481.5 297, 334.5 421" fill="white"/></svg>
    <svg id="eye"><path stroke="black" stroke-width="1" d="M306 199 C306 187, 278 167, 302 167   C382 167, 402 127, 402 192   C402 262, 428 253, 366 253   C313 253, 306 275, 306 199  Z " fill="white"/><path stroke="black" stroke-width="1" d="M194 199 C194 187, 222 167, 198 167   C118 167, 98 127, 98 192   C98 262, 72 253, 134 253   C187 253, 194 275, 194 199  Z " fill="white"/><path stroke="black" stroke-width="0" d="M316 210 C316 190, 326 180, 346 180   C366 180, 376 190, 376 210   C376 230, 366 240, 346 240   C326 240, 316 230, 316 210  Z " fill="black"/><path stroke="black" stroke-width="0" d="M184 210 C184 190, 174 180, 154 180   C134 180, 124 190, 124 210   C124 230, 134 240, 154 240   C174 240, 184 230, 184 210  Z " fill="black"/></svg>

  </svg>