<?xml version="1.0" encoding="UTF-8" standalone="no"?><svg xmlns="http://www.w3.org/2000/svg" id="montage">
    <svg id="ear"><path stroke="black" stroke-width="1" d="M446.9615506024416 215.27036446661393 C511.9615506024416 140.27036446661393, 602.8781654038191 294.9798993405002, 449.87816540381914 256.9798993405002   " fill="white"/><path stroke="black" stroke-width="1" d="M53.038449397558395 215.27036446661393 C-11.961550602441605 140.27036446661393, -102.87816540381914 294.9798993405002, 50.12183459618086 256.9798993405002   " fill="white"/></svg>
    <circle id="countor" stroke="black" cx="250" cy="250" r="200" stroke-width="3" fill="white"/>
    <svg id="mouth"><path stroke="black" stroke-width="1" d="M126.5 309 C110.5 340, 389.5 340, 373.5 309   M126.5 309 C54.5 355, 445.5 355, 373.5 309" fill="white"/></svg>
    <svg id="eye"><path stroke="black" stroke-width="1" d="M295.5 238 C295.5 167, 305.5 115, 384.5 115   C397.5 115, 426.5 100, 426.5 143   C426.5 213, 370.5 229, 356.5 229   C278.5 229, 295.5 308, 295.5 238  Z " fill="white"/><path stroke="black" stroke-width="1" d="M204.5 238 C204.5 167, 194.5 115, 115.5 115   C102.5 115, 73.5 100, 73.5 143   C73.5 213, 129.5 229, 143.5 229   C221.5 229, 204.5 308, 204.5 238  Z " fill="white"/><path stroke="black" stroke-width="0" d="M317.5 193 C317.5 173, 327.5 163, 347.5 163   C367.5 163, 377.5 173, 377.5 193   C377.5 213, 367.5 223, 347.5 223   C327.5 223, 317.5 213, 317.5 193  Z " fill="black"/><path stroke="black" stroke-width="0" d="M182.5 193 C182.5 173, 172.5 163, 152.5 163   C132.5 163, 122.5 173, 122.5 193   C122.5 213, 132.5 223, 152.5 223   C172.5 223, 182.5 213, 182.5 193  Z " fill="black"/></svg>

  </svg>