<?xml version="1.0" encoding="UTF-8" standalone="no"?><svg xmlns="http://www.w3.org/2000/svg" id="montage">
    <svg id="ear"><path stroke="black" stroke-width="1" d="M405.4291922913942 124.13592179003253 C459.4291922913942 249.1359217900325, 573.6295201467611 205.41766183644813, 445.62952014676114 208.41766183644813   " fill="white"/><path stroke="black" stroke-width="1" d="M94.57080770860583 124.13592179003253 C40.57080770860583 249.1359217900325, -73.62952014676114 205.41766183644813, 54.37047985323886 208.41766183644813   " fill="white"/></svg>
    <circle id="countor" stroke="black" cx="250" cy="250" r="200" stroke-width="3" fill="white"/>
    <svg id="mouth"><path stroke="black" stroke-width="1" d="M159.5 412 C173.5 383, 326.5 383, 340.5 412   M159.5 412 C20.5 279, 479.5 279, 340.5 412" fill="white"/></svg>
    <svg id="eye"><path stroke="black" stroke-width="1" d="M231.5 185 C231.5 147, 245.5 39, 299.5 39   C322.5 39, 387.5 88, 387.5 131   C387.5 157, 438.5 232, 381.5 232   C368.5 232, 231.5 202, 231.5 185  Z " fill="white"/><path stroke="black" stroke-width="1" d="M268.5 185 C268.5 147, 254.5 39, 200.5 39   C177.5 39, 112.5 88, 112.5 131   C112.5 157, 61.5 232, 118.5 232   C131.5 232, 268.5 202, 268.5 185  Z " fill="white"/><path stroke="black" stroke-width="0" d="M311.5 135 C311.5 115, 321.5 105, 341.5 105   C361.5 105, 371.5 115, 371.5 135   C371.5 155, 361.5 165, 341.5 165   C321.5 165, 311.5 155, 311.5 135  Z " fill="black"/><path stroke="black" stroke-width="0" d="M188.5 135 C188.5 115, 178.5 105, 158.5 105   C138.5 105, 128.5 115, 128.5 135   C128.5 155, 138.5 165, 158.5 165   C178.5 165, 188.5 155, 188.5 135  Z " fill="black"/></svg>

  </svg>