<?xml version="1.0" encoding="UTF-8" standalone="no"?><svg xmlns="http://www.w3.org/2000/svg" id="montage">
    <svg id="ear"><path stroke="black" stroke-width="1" d="M449.51281005196483 236.04870525117494 C626.5128100519648 423.04870525117497, 531.7090915285202 329.34732861516, 432.70909152852016 331.34732861516   " fill="white"/><path stroke="black" stroke-width="1" d="M50.487189948035166 236.04870525117494 C-126.51281005196483 423.04870525117497, -31.70909152852016 329.34732861516, 67.29090847147984 331.34732861516   " fill="white"/></svg>
    <circle id="countor" stroke="black" cx="250" cy="250" r="200" stroke-width="3" fill="white"/>
    <svg id="mouth"><path stroke="black" stroke-width="1" d="M131 352 C106 313, 394 313, 369 352   M131 352 C0 391, 500 391, 369 352" fill="white"/></svg>
    <svg id="eye"><path stroke="black" stroke-width="1" d="M252.5 117 C252.5 97, 312.5 69, 341.5 69   C417.5 69, 448.5 82, 448.5 125   C448.5 168, 386.5 168, 323.5 168   C274.5 168, 252.5 161, 252.5 117  Z " fill="white"/><path stroke="black" stroke-width="1" d="M247.5 117 C247.5 97, 187.5 69, 158.5 69   C82.5 69, 51.5 82, 51.5 125   C51.5 168, 113.5 168, 176.5 168   C225.5 168, 247.5 161, 247.5 117  Z " fill="white"/><path stroke="black" stroke-width="0" d="M319.5 131 C319.5 111, 329.5 101, 349.5 101   C369.5 101, 379.5 111, 379.5 131   C379.5 151, 369.5 161, 349.5 161   C329.5 161, 319.5 151, 319.5 131  Z " fill="black"/><path stroke="black" stroke-width="0" d="M180.5 131 C180.5 111, 170.5 101, 150.5 101   C130.5 101, 120.5 111, 120.5 131   C120.5 151, 130.5 161, 150.5 161   C170.5 161, 180.5 151, 180.5 131  Z " fill="black"/></svg>

  </svg>