<?xml version="1.0" encoding="UTF-8" standalone="no"?><svg xmlns="http://www.w3.org/2000/svg" id="montage">
    <svg id="ear"><path stroke="black" stroke-width="1" d="M449.7259069509148 239.53280875141124 C585.7259069509148 296.53280875141127, 533.9043790736547 418.9056926535307, 448.9043790736547 270.9056926535307   " fill="white"/><path stroke="black" stroke-width="1" d="M50.274093049085224 239.53280875141124 C-85.72590695091478 296.53280875141127, -33.90437907365467 418.9056926535307, 51.09562092634533 270.9056926535307   " fill="white"/></svg>
    <circle id="countor" stroke="black" cx="250" cy="250" r="200" stroke-width="3" fill="white"/>
    <svg id="mouth"><path stroke="black" stroke-width="1" d="M181.5 302 C177.5 313, 322.5 313, 318.5 302   M181.5 302 C185.5 348, 314.5 348, 318.5 302" fill="white"/></svg>
    <svg id="eye"><path stroke="black" stroke-width="1" d="M263.5 254 C263.5 232, 298.5 126, 311.5 126   C322.5 126, 389.5 108, 389.5 186   C389.5 258, 376.5 277, 317.5 277   C269.5 277, 263.5 273, 263.5 254  Z " fill="white"/><path stroke="black" stroke-width="1" d="M236.5 254 C236.5 232, 201.5 126, 188.5 126   C177.5 126, 110.5 108, 110.5 186   C110.5 258, 123.5 277, 182.5 277   C230.5 277, 236.5 273, 236.5 254  Z " fill="white"/><path stroke="black" stroke-width="0" d="M317.5 216 C317.5 196, 327.5 186, 347.5 186   C367.5 186, 377.5 196, 377.5 216   C377.5 236, 367.5 246, 347.5 246   C327.5 246, 317.5 236, 317.5 216  Z " fill="black"/><path stroke="black" stroke-width="0" d="M182.5 216 C182.5 196, 172.5 186, 152.5 186   C132.5 186, 122.5 196, 122.5 216   C122.5 236, 132.5 246, 152.5 246   C172.5 246, 182.5 236, 182.5 216  Z " fill="black"/></svg>

  </svg>