<?xml version="1.0" encoding="UTF-8" standalone="no"?><svg xmlns="http://www.w3.org/2000/svg" id="montage">
    <svg id="ear"><path stroke="black" stroke-width="1" d="M407.6021507213444 126.86770493486836 C451.6021507213444 15.867704934868357, 556.9385241571817 227.59597133486625, 437.9385241571817 181.59597133486625   " fill="white"/><path stroke="black" stroke-width="1" d="M92.3978492786556 126.86770493486836 C48.3978492786556 15.867704934868357, -56.93852415718169 227.59597133486625, 62.06147584281831 181.59597133486625   " fill="white"/></svg>
    <circle id="countor" stroke="black" cx="250" cy="250" r="200" stroke-width="3" fill="white"/>
    <svg id="mouth"><path stroke="black" stroke-width="1" d="M205.5 277 C197.5 281, 302.5 281, 294.5 277   M205.5 277 C180.5 289, 319.5 289, 294.5 277" fill="white"/></svg>
    <svg id="eye"><path stroke="black" stroke-width="1" d="M270 208 C270 160, 339 121, 375 121   C401 121, 463 127, 463 170   C463 239, 389 291, 336 291   C263 291, 270 223, 270 208  Z " fill="white"/><path stroke="black" stroke-width="1" d="M230 208 C230 160, 161 121, 125 121   C99 121, 37 127, 37 170   C37 239, 111 291, 164 291   C237 291, 230 223, 230 208  Z " fill="white"/><path stroke="black" stroke-width="0" d="M314 202 C314 182, 324 172, 344 172   C364 172, 374 182, 374 202   C374 222, 364 232, 344 232   C324 232, 314 222, 314 202  Z " fill="black"/><path stroke="black" stroke-width="0" d="M186 202 C186 182, 176 172, 156 172   C136 172, 126 182, 126 202   C126 222, 136 232, 156 232   C176 232, 186 222, 186 202  Z " fill="black"/></svg>

  </svg>