<?xml version="1.0" encoding="UTF-8" standalone="no"?><svg xmlns="http://www.w3.org/2000/svg" id="montage">
    <svg id="ear"/>
    <circle id="countor" stroke="black" cx="250" cy="250" r="200" stroke-width="3" fill="white"/>
    <svg id="mouth"><path stroke="black" stroke-width="1" d="M175 336 C128 361, 372 361, 325 336   M175 336 C38 471, 462 471, 325 336" fill="white"/></svg>
    <svg id="eye"><path stroke="black" stroke-width="1" d="M245.5 133 C245.5 91, 290.5 91, 304.5 91   C332.5 91, 443.5 91, 443.5 104   C443.5 163, 396.5 201, 346.5 201   C303.5 201, 245.5 184, 245.5 133  Z " fill="white"/><path stroke="black" stroke-width="1" d="M254.5 133 C254.5 91, 209.5 91, 195.5 91   C167.5 91, 56.5 91, 56.5 104   C56.5 163, 103.5 201, 153.5 201   C196.5 201, 254.5 184, 254.5 133  Z " fill="white"/><path stroke="black" stroke-width="0" d="M313.5 151 C313.5 131, 323.5 121, 343.5 121   C363.5 121, 373.5 131, 373.5 151   C373.5 171, 363.5 181, 343.5 181   C323.5 181, 313.5 171, 313.5 151  Z " fill="black"/><path stroke="black" stroke-width="0" d="M186.5 151 C186.5 131, 176.5 121, 156.5 121   C136.5 121, 126.5 131, 126.5 151   C126.5 171, 136.5 181, 156.5 181   C176.5 181, 186.5 171, 186.5 151  Z " fill="black"/></svg>

  </svg>