<?xml version="1.0" encoding="UTF-8" standalone="no"?><svg xmlns="http://www.w3.org/2000/svg" id="montage">
    <svg id="ear"><path stroke="black" stroke-width="1" d="M308.47434094454735 58.73904880739292 C319.47434094454735 -41.26095119260708, 628.2113032590307 162.19660112501052, 440.21130325903073 188.19660112501052   " fill="white"/><path stroke="black" stroke-width="1" d="M191.52565905545265 58.73904880739292 C180.52565905545265 -41.26095119260708, -128.2113032590307 162.19660112501052, 59.7886967409693 188.19660112501052   " fill="white"/></svg>
    <circle id="countor" stroke="black" cx="250" cy="250" r="200" stroke-width="3" fill="white"/>
    <svg id="mouth"><path stroke="black" stroke-width="1" d="M202 325 C189 350, 311 350, 298 325   M202 325 C186 310, 314 310, 298 325" fill="white"/></svg>
    <svg id="eye"><path stroke="black" stroke-width="1" d="M301.5 92 C301.5 32, 326.5 36, 359.5 36   C404.5 36, 435.5 116, 435.5 161   C435.5 224, 424.5 172, 378.5 172   C336.5 172, 301.5 146, 301.5 92  Z " fill="white"/><path stroke="black" stroke-width="1" d="M198.5 92 C198.5 32, 173.5 36, 140.5 36   C95.5 36, 64.5 116, 64.5 161   C64.5 224, 75.5 172, 121.5 172   C163.5 172, 198.5 146, 198.5 92  Z " fill="white"/><path stroke="black" stroke-width="0" d="M317.5 135 C317.5 115, 327.5 105, 347.5 105   C367.5 105, 377.5 115, 377.5 135   C377.5 155, 367.5 165, 347.5 165   C327.5 165, 317.5 155, 317.5 135  Z " fill="black"/><path stroke="black" stroke-width="0" d="M182.5 135 C182.5 115, 172.5 105, 152.5 105   C132.5 105, 122.5 115, 122.5 135   C122.5 155, 132.5 165, 152.5 165   C172.5 165, 182.5 155, 182.5 135  Z " fill="black"/></svg>

  </svg>