<?xml version="1.0" encoding="UTF-8" standalone="no"?><svg xmlns="http://www.w3.org/2000/svg" id="montage">
    <svg id="ear"><path stroke="black" stroke-width="1" d="M388.93167409179944 106.13203993226978 C445.93167409179944 -42.86796006773022, 573.2609511926071 447.47434094454735, 441.2609511926071 308.47434094454735   " fill="white"/><path stroke="black" stroke-width="1" d="M111.06832590820053 106.13203993226978 C54.068325908200535 -42.86796006773022, -73.26095119260708 447.47434094454735, 58.73904880739292 308.47434094454735   " fill="white"/></svg>
    <circle id="countor" stroke="black" cx="250" cy="250" r="200" stroke-width="3" fill="white"/>
    <svg id="mouth"><path stroke="black" stroke-width="1" d="M187 289 C140 338, 360 338, 313 289   M187 289 C242 201, 258 201, 313 289" fill="white"/></svg>
    <svg id="eye"><path stroke="black" stroke-width="1" d="M257.5 163 C257.5 109, 269.5 51, 326.5 51   C347.5 51, 395.5 128, 395.5 159   C395.5 201, 403.5 267, 393.5 267   C383.5 267, 257.5 237, 257.5 163  Z " fill="white"/><path stroke="black" stroke-width="1" d="M242.5 163 C242.5 109, 230.5 51, 173.5 51   C152.5 51, 104.5 128, 104.5 159   C104.5 201, 96.5 267, 106.5 267   C116.5 267, 242.5 237, 242.5 163  Z " fill="white"/><path stroke="black" stroke-width="0" d="M314.5 169 C314.5 149, 324.5 139, 344.5 139   C364.5 139, 374.5 149, 374.5 169   C374.5 189, 364.5 199, 344.5 199   C324.5 199, 314.5 189, 314.5 169  Z " fill="black"/><path stroke="black" stroke-width="0" d="M185.5 169 C185.5 149, 175.5 139, 155.5 139   C135.5 139, 125.5 149, 125.5 169   C125.5 189, 135.5 199, 155.5 199   C175.5 199, 185.5 189, 185.5 169  Z " fill="black"/></svg>

  </svg>