<?xml version="1.0" encoding="UTF-8" standalone="no"?><svg xmlns="http://www.w3.org/2000/svg" id="montage">
    <svg id="ear"/>
    <circle id="countor" stroke="black" cx="250" cy="250" r="200" stroke-width="3" fill="white"/>
    <svg id="mouth"><path stroke="black" stroke-width="1" d="M207.5 331 C227.5 349, 272.5 349, 292.5 331   M207.5 331 C177.5 268, 322.5 268, 292.5 331" fill="white"/></svg>
    <svg id="eye"><path stroke="black" stroke-width="1" d="M303 209 C303 181, 276 71, 347 71   C404 71, 428 125, 428 195   C428 270, 395 255, 374 255   C336 255, 303 234, 303 209  Z " fill="white"/><path stroke="black" stroke-width="1" d="M197 209 C197 181, 224 71, 153 71   C96 71, 72 125, 72 195   C72 270, 105 255, 126 255   C164 255, 197 234, 197 209  Z " fill="white"/><path stroke="black" stroke-width="0" d="M316 174 C316 154, 326 144, 346 144   C366 144, 376 154, 376 174   C376 194, 366 204, 346 204   C326 204, 316 194, 316 174  Z " fill="black"/><path stroke="black" stroke-width="0" d="M184 174 C184 154, 174 144, 154 144   C134 144, 124 154, 124 174   C124 194, 134 204, 154 204   C174 204, 184 194, 184 174  Z " fill="black"/></svg>

  </svg>