<?xml version="1.0" encoding="UTF-8" standalone="no"?><svg xmlns="http://www.w3.org/2000/svg" id="montage">
    <svg id="ear"/>
    <circle id="countor" stroke="black" cx="250" cy="250" r="200" stroke-width="3" fill="white"/>
    <svg id="mouth"><path stroke="black" stroke-width="1" d="M191 302 C184 267, 316 267, 309 302   M191 302 C278 422, 222 422, 309 302" fill="white"/></svg>
    <svg id="eye"><path stroke="black" stroke-width="1" d="M278.5 128 C278.5 78, 258.5 64, 315.5 64   C335.5 64, 386.5 120, 386.5 164   C386.5 175, 323.5 274, 302.5 274   C230.5 274, 278.5 139, 278.5 128  Z " fill="white"/><path stroke="black" stroke-width="1" d="M221.5 128 C221.5 78, 241.5 64, 184.5 64   C164.5 64, 113.5 120, 113.5 164   C113.5 175, 176.5 274, 197.5 274   C269.5 274, 221.5 139, 221.5 128  Z " fill="white"/><path stroke="black" stroke-width="0" d="M313.5 162 C313.5 142, 323.5 132, 343.5 132   C363.5 132, 373.5 142, 373.5 162   C373.5 182, 363.5 192, 343.5 192   C323.5 192, 313.5 182, 313.5 162  Z " fill="black"/><path stroke="black" stroke-width="0" d="M186.5 162 C186.5 142, 176.5 132, 156.5 132   C136.5 132, 126.5 142, 126.5 162   C126.5 182, 136.5 192, 156.5 192   C176.5 192, 186.5 182, 186.5 162  Z " fill="black"/></svg>

  </svg>