<?xml version="1.0" encoding="UTF-8" standalone="no"?><svg xmlns="http://www.w3.org/2000/svg" id="montage">
    <svg id="ear"><path stroke="black" stroke-width="1" d="M331.34732861516005 67.29090847147984 C364.34732861516005 140.29090847147984, 469.8261212717716 31.37103490452114, 383.8261212717716 101.37103490452114   " fill="white"/><path stroke="black" stroke-width="1" d="M168.65267138483995 67.29090847147984 C135.65267138483995 140.29090847147984, 30.173878728228345 31.37103490452114, 116.17387872822835 101.37103490452114   " fill="white"/></svg>
    <circle id="countor" stroke="black" cx="250" cy="250" r="200" stroke-width="3" fill="white"/>
    <svg id="mouth"><path stroke="black" stroke-width="1" d="M203 386 C224 337, 276 337, 297 386   M203 386 C234 498, 266 498, 297 386" fill="white"/></svg>
    <svg id="eye"><path stroke="black" stroke-width="1" d="M297.5 170 C297.5 127, 311.5 91, 368.5 91   C417.5 91, 411.5 136, 411.5 153   C411.5 190, 429.5 242, 360.5 242   C292.5 242, 297.5 225, 297.5 170  Z " fill="white"/><path stroke="black" stroke-width="1" d="M202.5 170 C202.5 127, 188.5 91, 131.5 91   C82.5 91, 88.5 136, 88.5 153   C88.5 190, 70.5 242, 139.5 242   C207.5 242, 202.5 225, 202.5 170  Z " fill="white"/><path stroke="black" stroke-width="0" d="M318.5 160 C318.5 140, 328.5 130, 348.5 130   C368.5 130, 378.5 140, 378.5 160   C378.5 180, 368.5 190, 348.5 190   C328.5 190, 318.5 180, 318.5 160  Z " fill="black"/><path stroke="black" stroke-width="0" d="M181.5 160 C181.5 140, 171.5 130, 151.5 130   C131.5 130, 121.5 140, 121.5 160   C121.5 180, 131.5 190, 151.5 190   C171.5 190, 181.5 180, 181.5 160  Z " fill="black"/></svg>

  </svg>