<?xml version="1.0" encoding="UTF-8" standalone="no"?><svg xmlns="http://www.w3.org/2000/svg" id="montage">
    <svg id="ear"><path stroke="black" stroke-width="1" d="M350 76.79491924311228 C391 36.794919243112275, 376.98385284664096 -97.60961923128522, 355.98385284664096 80.39038076871478   " fill="white"/><path stroke="black" stroke-width="1" d="M149.99999999999997 76.79491924311228 C108.99999999999997 36.794919243112275, 123.01614715335901 -97.60961923128522, 144.01614715335901 80.39038076871478   " fill="white"/></svg>
    <circle id="countor" stroke="black" cx="250" cy="250" r="200" stroke-width="3" fill="white"/>
    <svg id="mouth"><path stroke="black" stroke-width="1" d="M197 312 C175 323, 325 323, 303 312   M197 312 C314 237, 186 237, 303 312" fill="white"/></svg>
    <svg id="eye"><path stroke="black" stroke-width="1" d="M254 231 C254 190, 325 128, 343 128   C373 128, 443 188, 443 202   C443 228, 401 287, 323 287   C297 287, 254 265, 254 231  Z " fill="white"/><path stroke="black" stroke-width="1" d="M246 231 C246 190, 175 128, 157 128   C127 128, 57 188, 57 202   C57 228, 99 287, 177 287   C203 287, 246 265, 246 231  Z " fill="white"/><path stroke="black" stroke-width="0" d="M312 183 C312 163, 322 153, 342 153   C362 153, 372 163, 372 183   C372 203, 362 213, 342 213   C322 213, 312 203, 312 183  Z " fill="black"/><path stroke="black" stroke-width="0" d="M188 183 C188 163, 178 153, 158 153   C138 153, 128 163, 128 183   C128 203, 138 213, 158 213   C178 213, 188 203, 188 183  Z " fill="black"/></svg>

  </svg>