<?xml version="1.0" encoding="UTF-8" standalone="no"?><svg xmlns="http://www.w3.org/2000/svg" id="montage">
    <svg id="ear"><path stroke="black" stroke-width="1" d="M393.8679600677302 111.06832590820056 C410.8679600677302 16.068325908200563, 509.05914525519927 116.38437911993356, 444.05914525519927 298.38437911993356   " fill="white"/><path stroke="black" stroke-width="1" d="M106.13203993226975 111.06832590820056 C89.13203993226975 16.068325908200563, -9.059145255199297 116.38437911993356, 55.9408547448007 298.38437911993356   " fill="white"/></svg>
    <circle id="countor" stroke="black" cx="250" cy="250" r="200" stroke-width="3" fill="white"/>
    <svg id="mouth"><path stroke="black" stroke-width="1" d="M233.5 406 C191.5 392, 308.5 392, 266.5 406   M233.5 406 C189.5 379, 310.5 379, 266.5 406" fill="white"/></svg>
    <svg id="eye"><path stroke="black" stroke-width="1" d="M251 127 C251 74, 345 136, 365 136   C413 136, 440 107, 440 128   C440 158, 383 289, 324 289   C286 289, 251 184, 251 127  Z " fill="white"/><path stroke="black" stroke-width="1" d="M249 127 C249 74, 155 136, 135 136   C87 136, 60 107, 60 128   C60 158, 117 289, 176 289   C214 289, 249 184, 249 127  Z " fill="white"/><path stroke="black" stroke-width="0" d="M319 174 C319 154, 329 144, 349 144   C369 144, 379 154, 379 174   C379 194, 369 204, 349 204   C329 204, 319 194, 319 174  Z " fill="black"/><path stroke="black" stroke-width="0" d="M181 174 C181 154, 171 144, 151 144   C131 144, 121 154, 121 174   C121 194, 131 204, 151 204   C171 204, 181 194, 181 174  Z " fill="black"/></svg>

  </svg>