<?xml version="1.0" encoding="UTF-8" standalone="no"?><svg xmlns="http://www.w3.org/2000/svg" id="montage">
    <svg id="ear"><path stroke="black" stroke-width="1" d="M324.9213186831824 64.56322908664251 C360.9213186831824 259.56322908664254, 528.2050807568878 312, 423.20508075688775 150   " fill="white"/><path stroke="black" stroke-width="1" d="M175.0786813168176 64.56322908664251 C139.0786813168176 259.56322908664254, -28.205080756887753 312, 76.79491924311225 150   " fill="white"/></svg>
    <circle id="countor" stroke="black" cx="250" cy="250" r="200" stroke-width="3" fill="white"/>
    <svg id="mouth"><path stroke="black" stroke-width="1" d="M231 292 C190 259, 310 259, 269 292   M231 292 C267 145, 233 145, 269 292" fill="white"/></svg>
    <svg id="eye"><path stroke="black" stroke-width="1" d="M237 201 C237 146, 305 76, 348 76   C404 76, 378 170, 378 224   C378 295, 425 287, 378 287   C366 287, 237 251, 237 201  Z " fill="white"/><path stroke="black" stroke-width="1" d="M263 201 C263 146, 195 76, 152 76   C96 76, 122 170, 122 224   C122 295, 75 287, 122 287   C134 287, 263 251, 263 201  Z " fill="white"/><path stroke="black" stroke-width="0" d="M311 179 C311 159, 321 149, 341 149   C361 149, 371 159, 371 179   C371 199, 361 209, 341 209   C321 209, 311 199, 311 179  Z " fill="black"/><path stroke="black" stroke-width="0" d="M189 179 C189 159, 179 149, 159 149   C139 149, 129 159, 129 179   C129 199, 139 209, 159 209   C179 209, 189 199, 189 179  Z " fill="black"/></svg>

  </svg>