<?xml version="1.0" encoding="UTF-8" standalone="no"?><svg xmlns="http://www.w3.org/2000/svg" id="montage">
    <svg id="ear"/>
    <circle id="countor" stroke="black" cx="250" cy="250" r="200" stroke-width="3" fill="white"/>
    <svg id="mouth"><path stroke="black" stroke-width="1" d="M150 368 C115 416, 385 416, 350 368   M150 368 C97 328, 403 328, 350 368" fill="white"/></svg>
    <svg id="eye"><path stroke="black" stroke-width="1" d="M232 210 C232 170, 334 150, 386 150   C409 150, 390 223, 390 243   C390 265, 426 290, 359 290   C336 290, 232 220, 232 210  Z " fill="white"/><path stroke="black" stroke-width="1" d="M268 210 C268 170, 166 150, 114 150   C91 150, 110 223, 110 243   C110 265, 74 290, 141 290   C164 290, 268 220, 268 210  Z " fill="white"/><path stroke="black" stroke-width="0" d="M312 216 C312 196, 322 186, 342 186   C362 186, 372 196, 372 216   C372 236, 362 246, 342 246   C322 246, 312 236, 312 216  Z " fill="black"/><path stroke="black" stroke-width="0" d="M188 216 C188 196, 178 186, 158 186   C138 186, 128 196, 128 216   C128 236, 138 246, 158 246   C178 246, 188 236, 188 216  Z " fill="black"/></svg>

  </svg>