<?xml version="1.0" encoding="UTF-8" standalone="no"?><svg xmlns="http://www.w3.org/2000/svg" id="montage">
    <svg id="ear"/>
    <circle id="countor" stroke="black" cx="250" cy="250" r="200" stroke-width="3" fill="white"/>
    <svg id="mouth"><path stroke="black" stroke-width="1" d="M188 343 C220 327, 280 327, 312 343   M188 343 C258 421, 242 421, 312 343" fill="white"/></svg>
    <svg id="eye"><path stroke="black" stroke-width="1" d="M258.5 134 C258.5 73, 292.5 109, 310.5 109   C325.5 109, 434.5 175, 434.5 206   C434.5 237, 356.5 268, 303.5 268   C259.5 268, 258.5 201, 258.5 134  Z " fill="white"/><path stroke="black" stroke-width="1" d="M241.5 134 C241.5 73, 207.5 109, 189.5 109   C174.5 109, 65.5 175, 65.5 206   C65.5 237, 143.5 268, 196.5 268   C240.5 268, 241.5 201, 241.5 134  Z " fill="white"/><path stroke="black" stroke-width="0" d="M313.5 156 C313.5 136, 323.5 126, 343.5 126   C363.5 126, 373.5 136, 373.5 156   C373.5 176, 363.5 186, 343.5 186   C323.5 186, 313.5 176, 313.5 156  Z " fill="black"/><path stroke="black" stroke-width="0" d="M186.5 156 C186.5 136, 176.5 126, 156.5 126   C136.5 126, 126.5 136, 126.5 156   C126.5 176, 136.5 186, 156.5 186   C176.5 186, 186.5 176, 186.5 156  Z " fill="black"/></svg>

  </svg>