<?xml version="1.0" encoding="UTF-8" standalone="no"?><svg xmlns="http://www.w3.org/2000/svg" id="montage">
    <svg id="ear"/>
    <circle id="countor" stroke="black" cx="250" cy="250" r="200" stroke-width="3" fill="white"/>
    <svg id="mouth"><path stroke="black" stroke-width="1" d="M208 377 C171 386, 329 386, 292 377   M208 377 C58 254, 442 254, 292 377" fill="white"/></svg>
    <svg id="eye"><path stroke="black" stroke-width="1" d="M280.5 87 C280.5 23, 300.5 87, 351.5 87   C366.5 87, 439.5 142, 439.5 175   C439.5 229, 399.5 193, 349.5 193   C299.5 193, 280.5 150, 280.5 87  Z " fill="white"/><path stroke="black" stroke-width="1" d="M219.5 87 C219.5 23, 199.5 87, 148.5 87   C133.5 87, 60.5 142, 60.5 175   C60.5 229, 100.5 193, 150.5 193   C200.5 193, 219.5 150, 219.5 87  Z " fill="white"/><path stroke="black" stroke-width="0" d="M317.5 136 C317.5 116, 327.5 106, 347.5 106   C367.5 106, 377.5 116, 377.5 136   C377.5 156, 367.5 166, 347.5 166   C327.5 166, 317.5 156, 317.5 136  Z " fill="black"/><path stroke="black" stroke-width="0" d="M182.5 136 C182.5 116, 172.5 106, 152.5 106   C132.5 106, 122.5 116, 122.5 136   C122.5 156, 132.5 166, 152.5 166   C172.5 166, 182.5 156, 182.5 136  Z " fill="black"/></svg>

  </svg>