<?xml version="1.0" encoding="UTF-8" standalone="no"?><svg xmlns="http://www.w3.org/2000/svg" id="montage">
    <svg id="ear"><path stroke="black" stroke-width="1" d="M294.990210868773 55.12598704295294 C335.990210868773 224.12598704295294, 508.70909152852016 108.65267138483998, 432.70909152852016 168.65267138483998   " fill="white"/><path stroke="black" stroke-width="1" d="M205.00978913122702 55.12598704295294 C164.00978913122702 224.12598704295294, -8.709091528520162 108.65267138483998, 67.29090847147984 168.65267138483998   " fill="white"/></svg>
    <circle id="countor" stroke="black" cx="250" cy="250" r="200" stroke-width="3" fill="white"/>
    <svg id="mouth"><path stroke="black" stroke-width="1" d="M185 280 C233 254, 267 254, 315 280   M185 280 C206 388, 294 388, 315 280" fill="white"/></svg>
    <svg id="eye"><path stroke="black" stroke-width="1" d="M228.5 222 C228.5 161, 371.5 132, 387.5 132   C414.5 132, 456.5 199, 456.5 220   C456.5 255, 355.5 282, 308.5 282   C286.5 282, 228.5 298, 228.5 222  Z " fill="white"/><path stroke="black" stroke-width="1" d="M271.5 222 C271.5 161, 128.5 132, 112.5 132   C85.5 132, 43.5 199, 43.5 220   C43.5 255, 144.5 282, 191.5 282   C213.5 282, 271.5 298, 271.5 222  Z " fill="white"/><path stroke="black" stroke-width="0" d="M312.5 219 C312.5 199, 322.5 189, 342.5 189   C362.5 189, 372.5 199, 372.5 219   C372.5 239, 362.5 249, 342.5 249   C322.5 249, 312.5 239, 312.5 219  Z " fill="black"/><path stroke="black" stroke-width="0" d="M187.5 219 C187.5 199, 177.5 189, 157.5 189   C137.5 189, 127.5 199, 127.5 219   C127.5 239, 137.5 249, 157.5 249   C177.5 249, 187.5 239, 187.5 219  Z " fill="black"/></svg>

  </svg>