<?xml version="1.0" encoding="UTF-8" standalone="no"?><svg xmlns="http://www.w3.org/2000/svg" id="montage">
    <svg id="ear"><path stroke="black" stroke-width="1" d="M358.92780700300546 82.26588641091521 C538.9278070030055 254.26588641091521, 497.8261212717716 288.37103490452114, 383.8261212717716 101.37103490452114   " fill="white"/><path stroke="black" stroke-width="1" d="M141.07219299699454 82.26588641091521 C-38.927807003005455 254.26588641091521, 2.1738787282283454 288.37103490452114, 116.17387872822835 101.37103490452114   " fill="white"/></svg>
    <circle id="countor" stroke="black" cx="250" cy="250" r="200" stroke-width="3" fill="white"/>
    <svg id="mouth"><path stroke="black" stroke-width="1" d="M145.5 344 C100.5 301, 399.5 301, 354.5 344   M145.5 344 C228.5 262, 271.5 262, 354.5 344" fill="white"/></svg>
    <svg id="eye"><path stroke="black" stroke-width="1" d="M283.5 219 C283.5 146, 265.5 130, 336.5 130   C352.5 130, 442.5 193, 442.5 208   C442.5 243, 424.5 312, 357.5 312   C291.5 312, 283.5 257, 283.5 219  Z " fill="white"/><path stroke="black" stroke-width="1" d="M216.5 219 C216.5 146, 234.5 130, 163.5 130   C147.5 130, 57.5 193, 57.5 208   C57.5 243, 75.5 312, 142.5 312   C208.5 312, 216.5 257, 216.5 219  Z " fill="white"/><path stroke="black" stroke-width="0" d="M316.5 222 C316.5 202, 326.5 192, 346.5 192   C366.5 192, 376.5 202, 376.5 222   C376.5 242, 366.5 252, 346.5 252   C326.5 252, 316.5 242, 316.5 222  Z " fill="black"/><path stroke="black" stroke-width="0" d="M183.5 222 C183.5 202, 173.5 192, 153.5 192   C133.5 192, 123.5 202, 123.5 222   C123.5 242, 133.5 252, 153.5 252   C173.5 252, 183.5 242, 183.5 222  Z " fill="black"/></svg>

  </svg>