<?xml version="1.0" encoding="UTF-8" standalone="no"?><svg xmlns="http://www.w3.org/2000/svg" id="montage">
    <svg id="ear"><path stroke="black" stroke-width="1" d="M447.53766811902756 218.71310699195382 C578.5376681190276 176.71310699195382, 647.9043790736547 183.9056926535307, 448.9043790736547 270.9056926535307   " fill="white"/><path stroke="black" stroke-width="1" d="M52.46233188097244 218.71310699195382 C-78.53766811902756 176.71310699195382, -147.90437907365467 183.9056926535307, 51.09562092634533 270.9056926535307   " fill="white"/></svg>
    <circle id="countor" stroke="black" cx="250" cy="250" r="200" stroke-width="3" fill="white"/>
    <svg id="mouth"><path stroke="black" stroke-width="1" d="M236.5 369 C192.5 373, 307.5 373, 263.5 369   M236.5 369 C354.5 304, 145.5 304, 263.5 369" fill="white"/></svg>
    <svg id="eye"><path stroke="black" stroke-width="1" d="M232 138 C232 76, 337 53, 354 53   C433 53, 414 111, 414 181   C414 247, 349 213, 311 213   C276 213, 232 199, 232 138  Z " fill="white"/><path stroke="black" stroke-width="1" d="M268 138 C268 76, 163 53, 146 53   C67 53, 86 111, 86 181   C86 247, 151 213, 189 213   C224 213, 268 199, 268 138  Z " fill="white"/><path stroke="black" stroke-width="0" d="M311 150 C311 130, 321 120, 341 120   C361 120, 371 130, 371 150   C371 170, 361 180, 341 180   C321 180, 311 170, 311 150  Z " fill="black"/><path stroke="black" stroke-width="0" d="M189 150 C189 130, 179 120, 159 120   C139 120, 129 130, 129 150   C129 170, 139 180, 159 180   C179 180, 189 170, 189 150  Z " fill="black"/></svg>

  </svg>