<?xml version="1.0" encoding="UTF-8" standalone="no"?><svg xmlns="http://www.w3.org/2000/svg" id="montage">
    <svg id="ear"><path stroke="black" stroke-width="1" d="M378.5575219373079 96.79111137620438 C453.5575219373079 70.79111137620438, 517.2609511926071 130.47434094454735, 441.2609511926071 308.47434094454735   " fill="white"/><path stroke="black" stroke-width="1" d="M121.44247806269212 96.79111137620438 C46.44247806269212 70.79111137620438, -17.26095119260708 130.47434094454735, 58.73904880739292 308.47434094454735   " fill="white"/></svg>
    <circle id="countor" stroke="black" cx="250" cy="250" r="200" stroke-width="3" fill="white"/>
    <svg id="mouth"><path stroke="black" stroke-width="1" d="M224 372 C184 381, 316 381, 276 372   M224 372 C159 463, 341 463, 276 372" fill="white"/></svg>
    <svg id="eye"><path stroke="black" stroke-width="1" d="M241.5 130 C241.5 102, 263.5 59, 298.5 59   C369.5 59, 409.5 113, 409.5 170   C409.5 229, 420.5 254, 357.5 254   C310.5 254, 241.5 158, 241.5 130  Z " fill="white"/><path stroke="black" stroke-width="1" d="M258.5 130 C258.5 102, 236.5 59, 201.5 59   C130.5 59, 90.5 113, 90.5 170   C90.5 229, 79.5 254, 142.5 254   C189.5 254, 258.5 158, 258.5 130  Z " fill="white"/><path stroke="black" stroke-width="0" d="M315.5 159 C315.5 139, 325.5 129, 345.5 129   C365.5 129, 375.5 139, 375.5 159   C375.5 179, 365.5 189, 345.5 189   C325.5 189, 315.5 179, 315.5 159  Z " fill="black"/><path stroke="black" stroke-width="0" d="M184.5 159 C184.5 139, 174.5 129, 154.5 129   C134.5 129, 124.5 139, 124.5 159   C124.5 179, 134.5 189, 154.5 189   C174.5 189, 184.5 179, 184.5 159  Z " fill="black"/></svg>

  </svg>