<?xml version="1.0" encoding="UTF-8" standalone="no"?><svg xmlns="http://www.w3.org/2000/svg" id="montage">
    <svg id="ear"><path stroke="black" stroke-width="1" d="M448.9043790736547 229.0943073464693 C489.9043790736547 308.0943073464693, 476.7259069509148 151.53280875141124, 449.7259069509148 239.53280875141124   " fill="white"/><path stroke="black" stroke-width="1" d="M51.09562092634533 229.0943073464693 C10.095620926345333 308.0943073464693, 23.274093049085224 151.53280875141124, 50.274093049085224 239.53280875141124   " fill="white"/></svg>
    <circle id="countor" stroke="black" cx="250" cy="250" r="200" stroke-width="3" fill="white"/>
    <svg id="mouth"><path stroke="black" stroke-width="1" d="M192.5 393 C238.5 418, 261.5 418, 307.5 393   M192.5 393 C269.5 373, 230.5 373, 307.5 393" fill="white"/></svg>
    <svg id="eye"><path stroke="black" stroke-width="1" d="M262 104 C262 85, 328 74, 367 74   C413 74, 416 92, 416 141   C416 196, 386 238, 349 238   C327 238, 262 161, 262 104  Z " fill="white"/><path stroke="black" stroke-width="1" d="M238 104 C238 85, 172 74, 133 74   C87 74, 84 92, 84 141   C84 196, 114 238, 151 238   C173 238, 238 161, 238 104  Z " fill="white"/><path stroke="black" stroke-width="0" d="M318 131 C318 111, 328 101, 348 101   C368 101, 378 111, 378 131   C378 151, 368 161, 348 161   C328 161, 318 151, 318 131  Z " fill="black"/><path stroke="black" stroke-width="0" d="M182 131 C182 111, 172 101, 152 101   C132 101, 122 111, 122 131   C122 151, 132 161, 152 161   C172 161, 182 151, 182 131  Z " fill="black"/></svg>

  </svg>