<?xml version="1.0" encoding="UTF-8" standalone="no"?><svg xmlns="http://www.w3.org/2000/svg" id="montage">
    <svg id="ear"><path stroke="black" stroke-width="1" d="M447.53766811902756 218.71310699195382 C589.5376681190276 50.71310699195382, 482.9239414278792 359.9619240492674, 424.9239414278792 346.9619240492674   " fill="white"/><path stroke="black" stroke-width="1" d="M52.46233188097244 218.71310699195382 C-89.53766811902756 50.71310699195382, 17.076058572120843 359.9619240492674, 75.07605857212084 346.9619240492674   " fill="white"/></svg>
    <circle id="countor" stroke="black" cx="250" cy="250" r="200" stroke-width="3" fill="white"/>
    <svg id="mouth"><path stroke="black" stroke-width="1" d="M210 303 C212 293, 288 293, 290 303   M210 303 C159 412, 341 412, 290 303" fill="white"/></svg>
    <svg id="eye"><path stroke="black" stroke-width="1" d="M234.5 123 C234.5 75, 284.5 104, 318.5 104   C366.5 104, 383.5 112, 383.5 133   C383.5 203, 350.5 210, 290.5 210   C262.5 210, 234.5 178, 234.5 123  Z " fill="white"/><path stroke="black" stroke-width="1" d="M265.5 123 C265.5 75, 215.5 104, 181.5 104   C133.5 104, 116.5 112, 116.5 133   C116.5 203, 149.5 210, 209.5 210   C237.5 210, 265.5 178, 265.5 123  Z " fill="white"/><path stroke="black" stroke-width="0" d="M310.5 147 C310.5 127, 320.5 117, 340.5 117   C360.5 117, 370.5 127, 370.5 147   C370.5 167, 360.5 177, 340.5 177   C320.5 177, 310.5 167, 310.5 147  Z " fill="black"/><path stroke="black" stroke-width="0" d="M189.5 147 C189.5 127, 179.5 117, 159.5 117   C139.5 117, 129.5 127, 129.5 147   C129.5 167, 139.5 177, 159.5 177   C179.5 177, 189.5 167, 189.5 147  Z " fill="black"/></svg>

  </svg>