<?xml version="1.0" encoding="UTF-8" standalone="no"?><svg xmlns="http://www.w3.org/2000/svg" id="montage">
    <svg id="ear"><path stroke="black" stroke-width="1" d="M409.7271020094586 129.63699536959035 C423.7271020094586 267.63699536959035, 596.8304088577984 200.28471272979078, 413.8304088577984 135.28471272979078   " fill="white"/><path stroke="black" stroke-width="1" d="M90.27289799054142 129.63699536959035 C76.27289799054142 267.63699536959035, -96.83040885779835 200.28471272979078, 86.16959114220165 135.28471272979078   " fill="white"/></svg>
    <circle id="countor" stroke="black" cx="250" cy="250" r="200" stroke-width="3" fill="white"/>
    <svg id="mouth"><path stroke="black" stroke-width="1" d="M188.5 337 C209.5 361, 290.5 361, 311.5 337   M188.5 337 C288.5 338, 211.5 338, 311.5 337" fill="white"/></svg>
    <svg id="eye"><path stroke="black" stroke-width="1" d="M224 168 C224 143, 260 88, 312 88   C390 88, 413 169, 413 188   C413 255, 318 253, 306 253   C245 253, 224 180, 224 168  Z " fill="white"/><path stroke="black" stroke-width="1" d="M276 168 C276 143, 240 88, 188 88   C110 88, 87 169, 87 188   C87 255, 182 253, 194 253   C255 253, 276 180, 276 168  Z " fill="white"/><path stroke="black" stroke-width="0" d="M314 141 C314 121, 324 111, 344 111   C364 111, 374 121, 374 141   C374 161, 364 171, 344 171   C324 171, 314 161, 314 141  Z " fill="black"/><path stroke="black" stroke-width="0" d="M186 141 C186 121, 176 111, 156 111   C136 111, 126 121, 126 141   C126 161, 136 171, 156 171   C176 171, 186 161, 186 141  Z " fill="black"/></svg>

  </svg>