<?xml version="1.0" encoding="UTF-8" standalone="no"?><svg xmlns="http://www.w3.org/2000/svg" id="montage">
    <svg id="ear"><path stroke="black" stroke-width="1" d="M334.5236523481399 68.73844259267003 C381.5236523481399 244.73844259267003, 434.8943125571782 26.410481428214638, 343.8943125571782 73.41048142821464   " fill="white"/><path stroke="black" stroke-width="1" d="M165.47634765186012 68.73844259267003 C118.47634765186012 244.73844259267003, 65.10568744282182 26.410481428214638, 156.10568744282182 73.41048142821464   " fill="white"/></svg>
    <circle id="countor" stroke="black" cx="250" cy="250" r="200" stroke-width="3" fill="white"/>
    <svg id="mouth"><path stroke="black" stroke-width="1" d="M194 275 C244 225, 256 225, 306 275   M194 275 C131 376, 369 376, 306 275" fill="white"/></svg>
    <svg id="eye"><path stroke="black" stroke-width="1" d="M245.5 192 C245.5 164, 233.5 122, 304.5 122   C338.5 122, 389.5 91, 389.5 161   C389.5 179, 353.5 297, 330.5 297   C312.5 297, 245.5 203, 245.5 192  Z " fill="white"/><path stroke="black" stroke-width="1" d="M254.5 192 C254.5 164, 266.5 122, 195.5 122   C161.5 122, 110.5 91, 110.5 161   C110.5 179, 146.5 297, 169.5 297   C187.5 297, 254.5 203, 254.5 192  Z " fill="white"/><path stroke="black" stroke-width="0" d="M311.5 201 C311.5 181, 321.5 171, 341.5 171   C361.5 171, 371.5 181, 371.5 201   C371.5 221, 361.5 231, 341.5 231   C321.5 231, 311.5 221, 311.5 201  Z " fill="black"/><path stroke="black" stroke-width="0" d="M188.5 201 C188.5 181, 178.5 171, 158.5 171   C138.5 171, 128.5 181, 128.5 201   C128.5 221, 138.5 231, 158.5 231   C178.5 231, 188.5 221, 188.5 201  Z " fill="black"/></svg>

  </svg>