<?xml version="1.0" encoding="UTF-8" standalone="no"?><svg xmlns="http://www.w3.org/2000/svg" id="montage">
    <svg id="ear"/>
    <circle id="countor" stroke="black" cx="250" cy="250" r="200" stroke-width="3" fill="white"/>
    <svg id="mouth"><path stroke="black" stroke-width="1" d="M222 385 C177 356, 323 356, 278 385   M222 385 C343 279, 157 279, 278 385" fill="white"/></svg>
    <svg id="eye"><path stroke="black" stroke-width="1" d="M266.5 171 C266.5 136, 255.5 104, 301.5 104   C374.5 104, 425.5 131, 425.5 156   C425.5 234, 343.5 280, 311.5 280   C249.5 280, 266.5 191, 266.5 171  Z " fill="white"/><path stroke="black" stroke-width="1" d="M233.5 171 C233.5 136, 244.5 104, 198.5 104   C125.5 104, 74.5 131, 74.5 156   C74.5 234, 156.5 280, 188.5 280   C250.5 280, 233.5 191, 233.5 171  Z " fill="white"/><path stroke="black" stroke-width="0" d="M316.5 178 C316.5 158, 326.5 148, 346.5 148   C366.5 148, 376.5 158, 376.5 178   C376.5 198, 366.5 208, 346.5 208   C326.5 208, 316.5 198, 316.5 178  Z " fill="black"/><path stroke="black" stroke-width="0" d="M183.5 178 C183.5 158, 173.5 148, 153.5 148   C133.5 148, 123.5 158, 123.5 178   C123.5 198, 133.5 208, 153.5 208   C173.5 208, 183.5 198, 183.5 178  Z " fill="black"/></svg>

  </svg>