<?xml version="1.0" encoding="UTF-8" standalone="no"?><svg xmlns="http://www.w3.org/2000/svg" id="montage">
    <svg id="ear"><path stroke="black" stroke-width="1" d="M449.96953903127826 246.5095187125433 C578.9695390312783 411.5095187125433, 517.2113032590307 430.80339887498945, 440.21130325903073 311.80339887498945   " fill="white"/><path stroke="black" stroke-width="1" d="M50.03046096872174 246.5095187125433 C-78.96953903127826 411.5095187125433, -17.2113032590307 430.80339887498945, 59.7886967409693 311.80339887498945   " fill="white"/></svg>
    <circle id="countor" stroke="black" cx="250" cy="250" r="200" stroke-width="3" fill="white"/>
    <svg id="mouth"><path stroke="black" stroke-width="1" d="M130 297 C147 297, 353 297, 370 297   M130 297 C135 329, 365 329, 370 297" fill="white"/></svg>
    <svg id="eye"><path stroke="black" stroke-width="1" d="M232 150 C232 138, 368 93, 394 93   C440 93, 443 123, 443 170   C443 221, 372 252, 335 252   C293 252, 232 196, 232 150  Z " fill="white"/><path stroke="black" stroke-width="1" d="M268 150 C268 138, 132 93, 106 93   C60 93, 57 123, 57 170   C57 221, 128 252, 165 252   C207 252, 268 196, 268 150  Z " fill="white"/><path stroke="black" stroke-width="0" d="M317 163 C317 143, 327 133, 347 133   C367 133, 377 143, 377 163   C377 183, 367 193, 347 193   C327 193, 317 183, 317 163  Z " fill="black"/><path stroke="black" stroke-width="0" d="M183 163 C183 143, 173 133, 153 133   C133 133, 123 143, 123 163   C123 183, 133 193, 153 193   C173 193, 183 183, 183 163  Z " fill="black"/></svg>

  </svg>