<?xml version="1.0" encoding="UTF-8" standalone="no"?><svg xmlns="http://www.w3.org/2000/svg" id="montage">
    <svg id="ear"><path stroke="black" stroke-width="1" d="M403.2088886237956 121.44247806269215 C545.2088886237956 131.44247806269215, 427.8033988749895 56.44294954150536, 411.8033988749895 132.44294954150536   " fill="white"/><path stroke="black" stroke-width="1" d="M96.79111137620438 121.44247806269215 C-45.208888623795616 131.44247806269215, 72.19660112501052 56.44294954150536, 88.19660112501052 132.44294954150536   " fill="white"/></svg>
    <circle id="countor" stroke="black" cx="250" cy="250" r="200" stroke-width="3" fill="white"/>
    <svg id="mouth"><path stroke="black" stroke-width="1" d="M134.5 420 C134.5 414, 365.5 414, 365.5 420   M134.5 420 C154.5 374, 345.5 374, 365.5 420" fill="white"/></svg>
    <svg id="eye"><path stroke="black" stroke-width="1" d="M226 131 C226 75, 324 72, 359 72   C397 72, 449 148, 449 206   C449 280, 450 200, 386 200   C306 200, 226 197, 226 131  Z " fill="white"/><path stroke="black" stroke-width="1" d="M274 131 C274 75, 176 72, 141 72   C103 72, 51 148, 51 206   C51 280, 50 200, 114 200   C194 200, 274 197, 274 131  Z " fill="white"/><path stroke="black" stroke-width="0" d="M315 156 C315 136, 325 126, 345 126   C365 126, 375 136, 375 156   C375 176, 365 186, 345 186   C325 186, 315 176, 315 156  Z " fill="black"/><path stroke="black" stroke-width="0" d="M185 156 C185 136, 175 126, 155 126   C135 126, 125 136, 125 156   C125 176, 135 186, 155 186   C175 186, 185 176, 185 156  Z " fill="black"/></svg>

  </svg>