<?xml version="1.0" encoding="UTF-8" standalone="no"?><svg xmlns="http://www.w3.org/2000/svg" id="montage">
    <svg id="ear"><path stroke="black" stroke-width="1" d="M331.34732861516005 67.29090847147984 C393.34732861516005 -29.70909152852016, 458.7588092598334 369.6742293578155, 429.7588092598334 337.6742293578155   " fill="white"/><path stroke="black" stroke-width="1" d="M168.65267138483995 67.29090847147984 C106.65267138483995 -29.70909152852016, 41.24119074016659 369.6742293578155, 70.24119074016659 337.6742293578155   " fill="white"/></svg>
    <circle id="countor" stroke="black" cx="250" cy="250" r="200" stroke-width="3" fill="white"/>
    <svg id="mouth"><path stroke="black" stroke-width="1" d="M189.5 273 C198.5 255, 301.5 255, 310.5 273   M189.5 273 C221.5 380, 278.5 380, 310.5 273" fill="white"/></svg>
    <svg id="eye"><path stroke="black" stroke-width="1" d="M278.5 159 C278.5 85, 321.5 128, 387.5 128   C435.5 128, 435.5 117, 435.5 156   C435.5 182, 317.5 209, 290.5 209   C232.5 209, 278.5 210, 278.5 159  Z " fill="white"/><path stroke="black" stroke-width="1" d="M221.5 159 C221.5 85, 178.5 128, 112.5 128   C64.5 128, 64.5 117, 64.5 156   C64.5 182, 182.5 209, 209.5 209   C267.5 209, 221.5 210, 221.5 159  Z " fill="white"/><path stroke="black" stroke-width="0" d="M310.5 163 C310.5 143, 320.5 133, 340.5 133   C360.5 133, 370.5 143, 370.5 163   C370.5 183, 360.5 193, 340.5 193   C320.5 193, 310.5 183, 310.5 163  Z " fill="black"/><path stroke="black" stroke-width="0" d="M189.5 163 C189.5 143, 179.5 133, 159.5 133   C139.5 133, 129.5 143, 129.5 163   C129.5 183, 139.5 193, 159.5 193   C179.5 193, 189.5 183, 189.5 163  Z " fill="black"/></svg>

  </svg>