<?xml version="1.0" encoding="UTF-8" standalone="no"?><svg xmlns="http://www.w3.org/2000/svg" id="montage">
    <svg id="ear"><path stroke="black" stroke-width="1" d="M378.5575219373079 96.79111137620438 C521.5575219373079 104.79111137620438, 546.2523391876638 51.87252883660017, 442.2523391876638 194.87252883660017   " fill="white"/><path stroke="black" stroke-width="1" d="M121.44247806269212 96.79111137620438 C-21.557521937307882 104.79111137620438, -46.25233918766378 51.87252883660017, 57.74766081233622 194.87252883660017   " fill="white"/></svg>
    <circle id="countor" stroke="black" cx="250" cy="250" r="200" stroke-width="3" fill="white"/>
    <svg id="mouth"><path stroke="black" stroke-width="1" d="M208 358 C254 317, 246 317, 292 358   M208 358 C153 424, 347 424, 292 358" fill="white"/></svg>
    <svg id="eye"><path stroke="black" stroke-width="1" d="M300 160 C300 86, 292 47, 330 47   C383 47, 390 168, 390 184   C390 260, 375 245, 323 245   C290 245, 300 197, 300 160  Z " fill="white"/><path stroke="black" stroke-width="1" d="M200 160 C200 86, 208 47, 170 47   C117 47, 110 168, 110 184   C110 260, 125 245, 177 245   C210 245, 200 197, 200 160  Z " fill="white"/><path stroke="black" stroke-width="0" d="M319 156 C319 136, 329 126, 349 126   C369 126, 379 136, 379 156   C379 176, 369 186, 349 186   C329 186, 319 176, 319 156  Z " fill="black"/><path stroke="black" stroke-width="0" d="M181 156 C181 136, 171 126, 151 126   C131 126, 121 136, 121 156   C121 176, 131 186, 151 186   C171 186, 181 176, 181 156  Z " fill="black"/></svg>

  </svg>