<?xml version="1.0" encoding="UTF-8" standalone="no"?><svg xmlns="http://www.w3.org/2000/svg" id="montage">
    <svg id="ear"/>
    <circle id="countor" stroke="black" cx="250" cy="250" r="200" stroke-width="3" fill="white"/>
    <svg id="mouth"><path stroke="black" stroke-width="1" d="M196.5 360 C228.5 355, 271.5 355, 303.5 360   M196.5 360 C112.5 430, 387.5 430, 303.5 360" fill="white"/></svg>
    <svg id="eye"><path stroke="black" stroke-width="1" d="M258.5 168 C258.5 125, 336.5 55, 358.5 55   C396.5 55, 421.5 93, 421.5 150   C421.5 160, 410.5 275, 353.5 275   C286.5 275, 258.5 188, 258.5 168  Z " fill="white"/><path stroke="black" stroke-width="1" d="M241.5 168 C241.5 125, 163.5 55, 141.5 55   C103.5 55, 78.5 93, 78.5 150   C78.5 160, 89.5 275, 146.5 275   C213.5 275, 241.5 188, 241.5 168  Z " fill="white"/><path stroke="black" stroke-width="0" d="M310.5 167 C310.5 147, 320.5 137, 340.5 137   C360.5 137, 370.5 147, 370.5 167   C370.5 187, 360.5 197, 340.5 197   C320.5 197, 310.5 187, 310.5 167  Z " fill="black"/><path stroke="black" stroke-width="0" d="M189.5 167 C189.5 147, 179.5 137, 159.5 137   C139.5 137, 129.5 147, 129.5 167   C129.5 187, 139.5 197, 159.5 197   C179.5 197, 189.5 187, 189.5 167  Z " fill="black"/></svg>

  </svg>