<?xml version="1.0" encoding="UTF-8" standalone="no"?><svg xmlns="http://www.w3.org/2000/svg" id="montage">
    <svg id="ear"><path stroke="black" stroke-width="1" d="M411.8033988749895 132.44294954150536 C585.8033988749895 49.44294954150536, 498.87816540381914 62.9798993405002, 449.87816540381914 256.9798993405002   " fill="white"/><path stroke="black" stroke-width="1" d="M88.19660112501052 132.44294954150536 C-85.80339887498948 49.44294954150536, 1.121834596180861 62.9798993405002, 50.12183459618086 256.9798993405002   " fill="white"/></svg>
    <circle id="countor" stroke="black" cx="250" cy="250" r="200" stroke-width="3" fill="white"/>
    <svg id="mouth"><path stroke="black" stroke-width="1" d="M158.5 338 C142.5 345, 357.5 345, 341.5 338   M158.5 338 C17.5 330, 482.5 330, 341.5 338" fill="white"/></svg>
    <svg id="eye"><path stroke="black" stroke-width="1" d="M276.5 175 C276.5 115, 359.5 158, 388.5 158   C439.5 158, 431.5 136, 431.5 189   C431.5 207, 398.5 276, 338.5 276   C290.5 276, 276.5 228, 276.5 175  Z " fill="white"/><path stroke="black" stroke-width="1" d="M223.5 175 C223.5 115, 140.5 158, 111.5 158   C60.5 158, 68.5 136, 68.5 189   C68.5 207, 101.5 276, 161.5 276   C209.5 276, 223.5 228, 223.5 175  Z " fill="white"/><path stroke="black" stroke-width="0" d="M316.5 217 C316.5 197, 326.5 187, 346.5 187   C366.5 187, 376.5 197, 376.5 217   C376.5 237, 366.5 247, 346.5 247   C326.5 247, 316.5 237, 316.5 217  Z " fill="black"/><path stroke="black" stroke-width="0" d="M183.5 217 C183.5 197, 173.5 187, 153.5 187   C133.5 187, 123.5 197, 123.5 217   C123.5 237, 133.5 247, 153.5 247   C173.5 247, 183.5 237, 183.5 217  Z " fill="black"/></svg>

  </svg>