<?xml version="1.0" encoding="UTF-8" standalone="no"?><svg xmlns="http://www.w3.org/2000/svg" id="montage">
    <svg id="ear"><path stroke="black" stroke-width="1" d="M311.8033988749895 59.7886967409693 C460.8033988749895 -51.2113032590307, 449.9239414278792 319.0380759507326, 424.9239414278792 153.0380759507326   " fill="white"/><path stroke="black" stroke-width="1" d="M188.19660112501052 59.7886967409693 C39.19660112501052 -51.2113032590307, 50.07605857212084 319.0380759507326, 75.07605857212084 153.0380759507326   " fill="white"/></svg>
    <circle id="countor" stroke="black" cx="250" cy="250" r="200" stroke-width="3" fill="white"/>
    <svg id="mouth"><path stroke="black" stroke-width="1" d="M202 308 C172 322, 328 322, 298 308   M202 308 C78 411, 422 411, 298 308" fill="white"/></svg>
    <svg id="eye"><path stroke="black" stroke-width="1" d="M262 192 C262 120, 352 78, 389 78   C462 78, 407 194, 407 234   C407 249, 404 266, 390 266   C379 266, 262 235, 262 192  Z " fill="white"/><path stroke="black" stroke-width="1" d="M238 192 C238 120, 148 78, 111 78   C38 78, 93 194, 93 234   C93 249, 96 266, 110 266   C121 266, 238 235, 238 192  Z " fill="white"/><path stroke="black" stroke-width="0" d="M318 187 C318 167, 328 157, 348 157   C368 157, 378 167, 378 187   C378 207, 368 217, 348 217   C328 217, 318 207, 318 187  Z " fill="black"/><path stroke="black" stroke-width="0" d="M182 187 C182 167, 172 157, 152 157   C132 157, 122 167, 122 187   C122 207, 132 217, 152 217   C172 217, 182 207, 182 187  Z " fill="black"/></svg>

  </svg>