<?xml version="1.0" encoding="UTF-8" standalone="no"?><svg xmlns="http://www.w3.org/2000/svg" id="montage">
    <svg id="ear"/>
    <circle id="countor" stroke="black" cx="250" cy="250" r="200" stroke-width="3" fill="white"/>
    <svg id="mouth"><path stroke="black" stroke-width="1" d="M150.5 329 C184.5 378, 315.5 378, 349.5 329   M150.5 329 C101.5 415, 398.5 415, 349.5 329" fill="white"/></svg>
    <svg id="eye"><path stroke="black" stroke-width="1" d="M235 198 C235 176, 282 127, 297 127   C365 127, 392 190, 392 242   C392 320, 421 339, 393 339   C350 339, 235 229, 235 198  Z " fill="white"/><path stroke="black" stroke-width="1" d="M265 198 C265 176, 218 127, 203 127   C135 127, 108 190, 108 242   C108 320, 79 339, 107 339   C150 339, 265 229, 265 198  Z " fill="white"/><path stroke="black" stroke-width="0" d="M313 230 C313 210, 323 200, 343 200   C363 200, 373 210, 373 230   C373 250, 363 260, 343 260   C323 260, 313 250, 313 230  Z " fill="black"/><path stroke="black" stroke-width="0" d="M187 230 C187 210, 177 200, 157 200   C137 200, 127 210, 127 230   C127 250, 137 260, 157 260   C177 260, 187 250, 187 230  Z " fill="black"/></svg>

  </svg>