<?xml version="1.0" encoding="UTF-8" standalone="no"?><svg xmlns="http://www.w3.org/2000/svg" id="montage">
    <svg id="ear"/>
    <circle id="countor" stroke="black" cx="250" cy="250" r="200" stroke-width="3" fill="white"/>
    <svg id="mouth"><path stroke="black" stroke-width="1" d="M216.5 423 C191.5 380, 308.5 380, 283.5 423   M216.5 423 C140.5 325, 359.5 325, 283.5 423" fill="white"/></svg>
    <svg id="eye"><path stroke="black" stroke-width="1" d="M225.5 118 C225.5 93, 244.5 66, 296.5 66   C330.5 66, 451.5 157, 451.5 211   C451.5 274, 371.5 257, 356.5 257   C290.5 257, 225.5 192, 225.5 118  Z " fill="white"/><path stroke="black" stroke-width="1" d="M274.5 118 C274.5 93, 255.5 66, 203.5 66   C169.5 66, 48.5 157, 48.5 211   C48.5 274, 128.5 257, 143.5 257   C209.5 257, 274.5 192, 274.5 118  Z " fill="white"/><path stroke="black" stroke-width="0" d="M313.5 165 C313.5 145, 323.5 135, 343.5 135   C363.5 135, 373.5 145, 373.5 165   C373.5 185, 363.5 195, 343.5 195   C323.5 195, 313.5 185, 313.5 165  Z " fill="black"/><path stroke="black" stroke-width="0" d="M186.5 165 C186.5 145, 176.5 135, 156.5 135   C136.5 135, 126.5 145, 126.5 165   C126.5 185, 136.5 195, 156.5 195   C176.5 195, 186.5 185, 186.5 165  Z " fill="black"/></svg>

  </svg>