<?xml version="1.0" encoding="UTF-8" standalone="no"?><svg xmlns="http://www.w3.org/2000/svg" id="montage">
    <svg id="ear"/>
    <circle id="countor" stroke="black" cx="250" cy="250" r="200" stroke-width="3" fill="white"/>
    <svg id="mouth"><path stroke="black" stroke-width="1" d="M177.5 308 C135.5 271, 364.5 271, 322.5 308   M177.5 308 C161.5 332, 338.5 332, 322.5 308" fill="white"/></svg>
    <svg id="eye"><path stroke="black" stroke-width="1" d="M237.5 177 C237.5 119, 283.5 117, 358.5 117   C387.5 117, 441.5 119, 441.5 152   C441.5 231, 466.5 307, 390.5 307   C330.5 307, 237.5 216, 237.5 177  Z " fill="white"/><path stroke="black" stroke-width="1" d="M262.5 177 C262.5 119, 216.5 117, 141.5 117   C112.5 117, 58.5 119, 58.5 152   C58.5 231, 33.5 307, 109.5 307   C169.5 307, 262.5 216, 262.5 177  Z " fill="white"/><path stroke="black" stroke-width="0" d="M313.5 191 C313.5 171, 323.5 161, 343.5 161   C363.5 161, 373.5 171, 373.5 191   C373.5 211, 363.5 221, 343.5 221   C323.5 221, 313.5 211, 313.5 191  Z " fill="black"/><path stroke="black" stroke-width="0" d="M186.5 191 C186.5 171, 176.5 161, 156.5 161   C136.5 161, 126.5 171, 126.5 191   C126.5 211, 136.5 221, 156.5 221   C176.5 221, 186.5 211, 186.5 191  Z " fill="black"/></svg>

  </svg>