<?xml version="1.0" encoding="UTF-8" standalone="no"?><svg xmlns="http://www.w3.org/2000/svg" id="montage">
    <svg id="ear"><path stroke="black" stroke-width="1" d="M434.1009706904881 171.85377430214527 C546.1009706904881 333.85377430214527, 488.9043790736547 337.0943073464693, 448.9043790736547 229.0943073464693   " fill="white"/><path stroke="black" stroke-width="1" d="M65.89902930951192 171.85377430214527 C-46.10097069048808 333.85377430214527, 11.095620926345333 337.0943073464693, 51.09562092634533 229.0943073464693   " fill="white"/></svg>
    <circle id="countor" stroke="black" cx="250" cy="250" r="200" stroke-width="3" fill="white"/>
    <svg id="mouth"><path stroke="black" stroke-width="1" d="M160 297 C123 335, 377 335, 340 297   M160 297 C257 262, 243 262, 340 297" fill="white"/></svg>
    <svg id="eye"><path stroke="black" stroke-width="1" d="M275 210 C275 145, 315 66, 336 66   C351 66, 456 78, 456 133   C456 182, 386 207, 375 207   C345 207, 275 250, 275 210  Z " fill="white"/><path stroke="black" stroke-width="1" d="M225 210 C225 145, 185 66, 164 66   C149 66, 44 78, 44 133   C44 182, 114 207, 125 207   C155 207, 225 250, 225 210  Z " fill="white"/><path stroke="black" stroke-width="0" d="M318 164 C318 144, 328 134, 348 134   C368 134, 378 144, 378 164   C378 184, 368 194, 348 194   C328 194, 318 184, 318 164  Z " fill="black"/><path stroke="black" stroke-width="0" d="M182 164 C182 144, 172 134, 152 134   C132 134, 122 144, 122 164   C122 184, 132 194, 152 194   C172 194, 182 184, 182 164  Z " fill="black"/></svg>

  </svg>