<?xml version="1.0" encoding="UTF-8" standalone="no"?><svg xmlns="http://www.w3.org/2000/svg" id="montage">
    <svg id="ear"><path stroke="black" stroke-width="1" d="M435.43677091335746 175.0786813168176 C635.4367709133575 183.0786813168176, 529.7259069509148 278.53280875141127, 449.7259069509148 239.53280875141124   " fill="white"/><path stroke="black" stroke-width="1" d="M64.56322908664251 175.0786813168176 C-135.4367709133575 183.0786813168176, -29.725906950914776 278.53280875141127, 50.274093049085224 239.53280875141124   " fill="white"/></svg>
    <circle id="countor" stroke="black" cx="250" cy="250" r="200" stroke-width="3" fill="white"/>
    <svg id="mouth"><path stroke="black" stroke-width="1" d="M169.5 411 C208.5 404, 291.5 404, 330.5 411   M169.5 411 C259.5 344, 240.5 344, 330.5 411" fill="white"/></svg>
    <svg id="eye"><path stroke="black" stroke-width="1" d="M298 148 C298 105, 315 54, 352 54   C390 54, 453 59, 453 128   C453 187, 423 213, 374 213   C311 213, 298 163, 298 148  Z " fill="white"/><path stroke="black" stroke-width="1" d="M202 148 C202 105, 185 54, 148 54   C110 54, 47 59, 47 128   C47 187, 77 213, 126 213   C189 213, 202 163, 202 148  Z " fill="white"/><path stroke="black" stroke-width="0" d="M312 135 C312 115, 322 105, 342 105   C362 105, 372 115, 372 135   C372 155, 362 165, 342 165   C322 165, 312 155, 312 135  Z " fill="black"/><path stroke="black" stroke-width="0" d="M188 135 C188 115, 178 105, 158 105   C138 105, 128 115, 128 135   C128 155, 138 165, 158 165   C178 165, 188 155, 188 135  Z " fill="black"/></svg>

  </svg>