<?xml version="1.0" encoding="UTF-8" standalone="no"?><svg xmlns="http://www.w3.org/2000/svg" id="montage">
    <svg id="ear"><path stroke="black" stroke-width="1" d="M419.6096192312852 144.01614715335901 C565.6096192312853 81.01614715335901, 553.0536137483141 444.83462019201306, 448.0536137483141 277.83462019201306   " fill="white"/><path stroke="black" stroke-width="1" d="M80.3903807687148 144.01614715335901 C-65.6096192312852 81.01614715335901, -53.05361374831406 444.83462019201306, 51.94638625168594 277.83462019201306   " fill="white"/></svg>
    <circle id="countor" stroke="black" cx="250" cy="250" r="200" stroke-width="3" fill="white"/>
    <svg id="mouth"><path stroke="black" stroke-width="1" d="M200 348 C250 363, 250 363, 300 348   M200 348 C54 198, 446 198, 300 348" fill="white"/></svg>
    <svg id="eye"><path stroke="black" stroke-width="1" d="M310.5 137 C310.5 96, 318.5 68, 398.5 68   C473.5 68, 398.5 53, 398.5 109   C398.5 147, 418.5 239, 389.5 239   C379.5 239, 310.5 206, 310.5 137  Z " fill="white"/><path stroke="black" stroke-width="1" d="M189.5 137 C189.5 96, 181.5 68, 101.5 68   C26.5 68, 101.5 53, 101.5 109   C101.5 147, 81.5 239, 110.5 239   C120.5 239, 189.5 206, 189.5 137  Z " fill="white"/><path stroke="black" stroke-width="0" d="M318.5 146 C318.5 126, 328.5 116, 348.5 116   C368.5 116, 378.5 126, 378.5 146   C378.5 166, 368.5 176, 348.5 176   C328.5 176, 318.5 166, 318.5 146  Z " fill="black"/><path stroke="black" stroke-width="0" d="M181.5 146 C181.5 126, 171.5 116, 151.5 116   C131.5 116, 121.5 126, 121.5 146   C121.5 166, 131.5 176, 151.5 176   C171.5 176, 181.5 166, 181.5 146  Z " fill="black"/></svg>

  </svg>