<?xml version="1.0" encoding="UTF-8" standalone="no"?><svg xmlns="http://www.w3.org/2000/svg" id="montage">
    <svg id="ear"><path stroke="black" stroke-width="1" d="M321.67358990906007 63.28391470055965 C409.67358990906007 165.28391470055965, 560.6289650954789 295.1738787282284, 398.62896509547886 116.17387872822835   " fill="white"/><path stroke="black" stroke-width="1" d="M178.32641009093993 63.28391470055965 C90.32641009093993 165.28391470055965, -60.62896509547886 295.1738787282284, 101.37103490452114 116.17387872822835   " fill="white"/></svg>
    <circle id="countor" stroke="black" cx="250" cy="250" r="200" stroke-width="3" fill="white"/>
    <svg id="mouth"><path stroke="black" stroke-width="1" d="M208.5 414 C202.5 373, 297.5 373, 291.5 414   M208.5 414 C158.5 532, 341.5 532, 291.5 414" fill="white"/></svg>
    <svg id="eye"><path stroke="black" stroke-width="1" d="M284.5 158 C284.5 130, 287.5 97, 328.5 97   C379.5 97, 434.5 143, 434.5 161   C434.5 191, 372.5 223, 324.5 223   C262.5 223, 284.5 206, 284.5 158  Z " fill="white"/><path stroke="black" stroke-width="1" d="M215.5 158 C215.5 130, 212.5 97, 171.5 97   C120.5 97, 65.5 143, 65.5 161   C65.5 191, 127.5 223, 175.5 223   C237.5 223, 215.5 206, 215.5 158  Z " fill="white"/><path stroke="black" stroke-width="0" d="M318.5 183 C318.5 163, 328.5 153, 348.5 153   C368.5 153, 378.5 163, 378.5 183   C378.5 203, 368.5 213, 348.5 213   C328.5 213, 318.5 203, 318.5 183  Z " fill="black"/><path stroke="black" stroke-width="0" d="M181.5 183 C181.5 163, 171.5 153, 151.5 153   C131.5 153, 121.5 163, 121.5 183   C121.5 203, 131.5 213, 151.5 213   C171.5 213, 181.5 203, 181.5 183  Z " fill="black"/></svg>

  </svg>