<?xml version="1.0" encoding="UTF-8" standalone="no"?><svg xmlns="http://www.w3.org/2000/svg" id="montage">
    <svg id="ear"><path stroke="black" stroke-width="1" d="M450 250 C548 302, 463.18516525781365 431.76380902050414, 443.18516525781365 301.76380902050414   " fill="white"/><path stroke="black" stroke-width="1" d="M50 250 C-48 302, 36.81483474218635 431.76380902050414, 56.81483474218635 301.76380902050414   " fill="white"/></svg>
    <circle id="countor" stroke="black" cx="250" cy="250" r="200" stroke-width="3" fill="white"/>
    <svg id="mouth"><path stroke="black" stroke-width="1" d="M122.5 309 C82.5 314, 417.5 314, 377.5 309   M122.5 309 C99.5 217, 400.5 217, 377.5 309" fill="white"/></svg>
    <svg id="eye"><path stroke="black" stroke-width="1" d="M247 144 C247 65, 319 86, 329 86   C365 86, 429 67, 429 111   C429 139, 363 215, 332 215   C266 215, 247 184, 247 144  Z " fill="white"/><path stroke="black" stroke-width="1" d="M253 144 C253 65, 181 86, 171 86   C135 86, 71 67, 71 111   C71 139, 137 215, 168 215   C234 215, 253 184, 253 144  Z " fill="white"/><path stroke="black" stroke-width="0" d="M312 144 C312 124, 322 114, 342 114   C362 114, 372 124, 372 144   C372 164, 362 174, 342 174   C322 174, 312 164, 312 144  Z " fill="black"/><path stroke="black" stroke-width="0" d="M188 144 C188 124, 178 114, 158 114   C138 114, 128 124, 128 144   C128 164, 138 174, 158 174   C178 174, 188 164, 188 144  Z " fill="black"/></svg>

  </svg>