<?xml version="1.0" encoding="UTF-8" standalone="no"?><svg xmlns="http://www.w3.org/2000/svg" id="montage">
    <svg id="ear"/>
    <circle id="countor" stroke="black" cx="250" cy="250" r="200" stroke-width="3" fill="white"/>
    <svg id="mouth"><path stroke="black" stroke-width="1" d="M207 427 C162 416, 338 416, 293 427   M207 427 C112 361, 388 361, 293 427" fill="white"/></svg>
    <svg id="eye"><path stroke="black" stroke-width="1" d="M245 183 C245 172, 264 48, 337 48   C393 48, 461 59, 461 108   C461 125, 420 253, 351 253   C325 253, 245 253, 245 183  Z " fill="white"/><path stroke="black" stroke-width="1" d="M255 183 C255 172, 236 48, 163 48   C107 48, 39 59, 39 108   C39 125, 80 253, 149 253   C175 253, 255 253, 255 183  Z " fill="white"/><path stroke="black" stroke-width="0" d="M317 149 C317 129, 327 119, 347 119   C367 119, 377 129, 377 149   C377 169, 367 179, 347 179   C327 179, 317 169, 317 149  Z " fill="black"/><path stroke="black" stroke-width="0" d="M183 149 C183 129, 173 119, 153 119   C133 119, 123 129, 123 149   C123 169, 133 179, 153 179   C173 179, 183 169, 183 149  Z " fill="black"/></svg>

  </svg>