<?xml version="1.0" encoding="UTF-8" standalone="no"?><svg xmlns="http://www.w3.org/2000/svg" id="montage">
    <svg id="ear"/>
    <circle id="countor" stroke="black" cx="250" cy="250" r="200" stroke-width="3" fill="white"/>
    <svg id="mouth"><path stroke="black" stroke-width="1" d="M223 356 C244 370, 256 370, 277 356   M223 356 C103 390, 397 390, 277 356" fill="white"/></svg>
    <svg id="eye"><path stroke="black" stroke-width="1" d="M251 190 C251 146, 274 132, 335 132   C405 132, 451 134, 451 191   C451 218, 455 264, 385 264   C316 264, 251 249, 251 190  Z " fill="white"/><path stroke="black" stroke-width="1" d="M249 190 C249 146, 226 132, 165 132   C95 132, 49 134, 49 191   C49 218, 45 264, 115 264   C184 264, 249 249, 249 190  Z " fill="white"/><path stroke="black" stroke-width="0" d="M319 200 C319 180, 329 170, 349 170   C369 170, 379 180, 379 200   C379 220, 369 230, 349 230   C329 230, 319 220, 319 200  Z " fill="black"/><path stroke="black" stroke-width="0" d="M181 200 C181 180, 171 170, 151 170   C131 170, 121 180, 121 200   C121 220, 131 230, 151 230   C171 230, 181 220, 181 200  Z " fill="black"/></svg>

  </svg>