<?xml version="1.0" encoding="UTF-8" standalone="no"?><svg xmlns="http://www.w3.org/2000/svg" id="montage">
    <svg id="ear"><path stroke="black" stroke-width="1" d="M448.5092303282644 225.6261313189705 C578.5092303282644 322.62613131897047, 532.1037151198634 176.11363089143134, 439.1037151198634 315.11363089143134   " fill="white"/><path stroke="black" stroke-width="1" d="M51.49076967173559 225.6261313189705 C-78.50923032826441 322.62613131897047, -32.10371511986338 176.11363089143134, 60.89628488013662 315.11363089143134   " fill="white"/></svg>
    <circle id="countor" stroke="black" cx="250" cy="250" r="200" stroke-width="3" fill="white"/>
    <svg id="mouth"><path stroke="black" stroke-width="1" d="M204.5 297 C223.5 289, 276.5 289, 295.5 297   M204.5 297 C312.5 418, 187.5 418, 295.5 297" fill="white"/></svg>
    <svg id="eye"><path stroke="black" stroke-width="1" d="M262 197 C262 136, 363 190, 397 190   C409 190, 421 217, 421 264   C421 313, 438 328, 367 328   C357 328, 262 212, 262 197  Z " fill="white"/><path stroke="black" stroke-width="1" d="M238 197 C238 136, 137 190, 103 190   C91 190, 79 217, 79 264   C79 313, 62 328, 133 328   C143 328, 238 212, 238 197  Z " fill="white"/><path stroke="black" stroke-width="0" d="M318 226 C318 206, 328 196, 348 196   C368 196, 378 206, 378 226   C378 246, 368 256, 348 256   C328 256, 318 246, 318 226  Z " fill="black"/><path stroke="black" stroke-width="0" d="M182 226 C182 206, 172 196, 152 196   C132 196, 122 206, 122 226   C122 246, 132 256, 152 256   C172 256, 182 246, 182 226  Z " fill="black"/></svg>

  </svg>