<?xml version="1.0" encoding="UTF-8" standalone="no"?><svg xmlns="http://www.w3.org/2000/svg" id="montage">
    <svg id="ear"/>
    <circle id="countor" stroke="black" cx="250" cy="250" r="200" stroke-width="3" fill="white"/>
    <svg id="mouth"><path stroke="black" stroke-width="1" d="M168 403 C119 419, 381 419, 332 403   M168 403 C317 543, 183 543, 332 403" fill="white"/></svg>
    <svg id="eye"><path stroke="black" stroke-width="1" d="M251 200 C251 179, 255 75, 327 75   C346 75, 403 143, 403 211   C403 239, 449 277, 383 277   C373 277, 251 243, 251 200  Z " fill="white"/><path stroke="black" stroke-width="1" d="M249 200 C249 179, 245 75, 173 75   C154 75, 97 143, 97 211   C97 239, 51 277, 117 277   C127 277, 249 243, 249 200  Z " fill="white"/><path stroke="black" stroke-width="0" d="M314 178 C314 158, 324 148, 344 148   C364 148, 374 158, 374 178   C374 198, 364 208, 344 208   C324 208, 314 198, 314 178  Z " fill="black"/><path stroke="black" stroke-width="0" d="M186 178 C186 158, 176 148, 156 148   C136 148, 126 158, 126 178   C126 198, 136 208, 156 208   C176 208, 186 198, 186 178  Z " fill="black"/></svg>

  </svg>