<?xml version="1.0" encoding="UTF-8" standalone="no"?><svg xmlns="http://www.w3.org/2000/svg" id="montage">
    <svg id="ear"/>
    <circle id="countor" stroke="black" cx="250" cy="250" r="200" stroke-width="3" fill="white"/>
    <svg id="mouth"><path stroke="black" stroke-width="1" d="M225 277 C199 309, 301 309, 275 277   M225 277 C333 398, 167 398, 275 277" fill="white"/></svg>
    <svg id="eye"><path stroke="black" stroke-width="1" d="M297 226 C297 171, 251 165, 310 165   C335 165, 439 186, 439 265   C439 287, 371 316, 319 316   C293 316, 297 298, 297 226  Z " fill="white"/><path stroke="black" stroke-width="1" d="M203 226 C203 171, 249 165, 190 165   C165 165, 61 186, 61 265   C61 287, 129 316, 181 316   C207 316, 203 298, 203 226  Z " fill="white"/><path stroke="black" stroke-width="0" d="M316 227 C316 207, 326 197, 346 197   C366 197, 376 207, 376 227   C376 247, 366 257, 346 257   C326 257, 316 247, 316 227  Z " fill="black"/><path stroke="black" stroke-width="0" d="M184 227 C184 207, 174 197, 154 197   C134 197, 124 207, 124 227   C124 247, 134 257, 154 257   C174 257, 184 247, 184 227  Z " fill="black"/></svg>

  </svg>