<?xml version="1.0" encoding="UTF-8" standalone="no"?><svg xmlns="http://www.w3.org/2000/svg" id="montage">
    <svg id="ear"><path stroke="black" stroke-width="1" d="M447.53766811902756 218.71310699195382 C466.53766811902756 393.71310699195385, 603.7090915285202 386.34732861516, 432.70909152852016 331.34732861516   " fill="white"/><path stroke="black" stroke-width="1" d="M52.46233188097244 218.71310699195382 C33.46233188097244 393.71310699195385, -103.70909152852016 386.34732861516, 67.29090847147984 331.34732861516   " fill="white"/></svg>
    <circle id="countor" stroke="black" cx="250" cy="250" r="200" stroke-width="3" fill="white"/>
    <svg id="mouth"><path stroke="black" stroke-width="1" d="M133.5 338 C142.5 305, 357.5 305, 366.5 338   M133.5 338 C152.5 438, 347.5 438, 366.5 338" fill="white"/></svg>
    <svg id="eye"><path stroke="black" stroke-width="1" d="M240 160 C240 87, 317 77, 378 77   C452 77, 435 122, 435 165   C435 177, 402 282, 326 282   C282 282, 240 174, 240 160  Z " fill="white"/><path stroke="black" stroke-width="1" d="M260 160 C260 87, 183 77, 122 77   C48 77, 65 122, 65 165   C65 177, 98 282, 174 282   C218 282, 260 174, 260 160  Z " fill="white"/><path stroke="black" stroke-width="0" d="M315 191 C315 171, 325 161, 345 161   C365 161, 375 171, 375 191   C375 211, 365 221, 345 221   C325 221, 315 211, 315 191  Z " fill="black"/><path stroke="black" stroke-width="0" d="M185 191 C185 171, 175 161, 155 161   C135 161, 125 171, 125 191   C125 211, 135 221, 155 221   C175 221, 185 211, 185 191  Z " fill="black"/></svg>

  </svg>