<?xml version="1.0" encoding="UTF-8" standalone="no"?><svg xmlns="http://www.w3.org/2000/svg" id="montage">
    <svg id="ear"><path stroke="black" stroke-width="1" d="M449.7259069509148 239.53280875141124 C507.7259069509148 199.53280875141124, 489.1009706904881 298.14622569785473, 434.1009706904881 328.14622569785473   " fill="white"/><path stroke="black" stroke-width="1" d="M50.274093049085224 239.53280875141124 C-7.725906950914776 199.53280875141124, 10.899029309511917 298.14622569785473, 65.89902930951192 328.14622569785473   " fill="white"/></svg>
    <circle id="countor" stroke="black" cx="250" cy="250" r="200" stroke-width="3" fill="white"/>
    <svg id="mouth"><path stroke="black" stroke-width="1" d="M171.5 387 C158.5 424, 341.5 424, 328.5 387   M171.5 387 C122.5 449, 377.5 449, 328.5 387" fill="white"/></svg>
    <svg id="eye"><path stroke="black" stroke-width="1" d="M270.5 132 C270.5 98, 348.5 126, 359.5 126   C372.5 126, 435.5 91, 435.5 149   C435.5 201, 425.5 264, 348.5 264   C294.5 264, 270.5 181, 270.5 132  Z " fill="white"/><path stroke="black" stroke-width="1" d="M229.5 132 C229.5 98, 151.5 126, 140.5 126   C127.5 126, 64.5 91, 64.5 149   C64.5 201, 74.5 264, 151.5 264   C205.5 264, 229.5 181, 229.5 132  Z " fill="white"/><path stroke="black" stroke-width="0" d="M317.5 165 C317.5 145, 327.5 135, 347.5 135   C367.5 135, 377.5 145, 377.5 165   C377.5 185, 367.5 195, 347.5 195   C327.5 195, 317.5 185, 317.5 165  Z " fill="black"/><path stroke="black" stroke-width="0" d="M182.5 165 C182.5 145, 172.5 135, 152.5 135   C132.5 135, 122.5 145, 122.5 165   C122.5 185, 132.5 195, 152.5 195   C172.5 195, 182.5 185, 182.5 165  Z " fill="black"/></svg>

  </svg>