<?xml version="1.0" encoding="UTF-8" standalone="no"?><svg xmlns="http://www.w3.org/2000/svg" id="montage">
    <svg id="ear"><path stroke="black" stroke-width="1" d="M428.20130483767355 159.20190005209065 C475.20130483767355 332.20190005209065, 600.6295201467611 345.58233816355187, 445.62952014676114 291.58233816355187   " fill="white"/><path stroke="black" stroke-width="1" d="M71.79869516232642 159.20190005209065 C24.798695162326425 332.20190005209065, -100.62952014676114 345.58233816355187, 54.37047985323886 291.58233816355187   " fill="white"/></svg>
    <circle id="countor" stroke="black" cx="250" cy="250" r="200" stroke-width="3" fill="white"/>
    <svg id="mouth"><path stroke="black" stroke-width="1" d="M153.5 349 C200.5 349, 299.5 349, 346.5 349   M153.5 349 C111.5 484, 388.5 484, 346.5 349" fill="white"/></svg>
    <svg id="eye"><path stroke="black" stroke-width="1" d="M230.5 167 C230.5 142, 271.5 31, 318.5 31   C358.5 31, 430.5 63, 430.5 111   C430.5 147, 336.5 209, 302.5 209   C263.5 209, 230.5 203, 230.5 167  Z " fill="white"/><path stroke="black" stroke-width="1" d="M269.5 167 C269.5 142, 228.5 31, 181.5 31   C141.5 31, 69.5 63, 69.5 111   C69.5 147, 163.5 209, 197.5 209   C236.5 209, 269.5 203, 269.5 167  Z " fill="white"/><path stroke="black" stroke-width="0" d="M317.5 131 C317.5 111, 327.5 101, 347.5 101   C367.5 101, 377.5 111, 377.5 131   C377.5 151, 367.5 161, 347.5 161   C327.5 161, 317.5 151, 317.5 131  Z " fill="black"/><path stroke="black" stroke-width="0" d="M182.5 131 C182.5 111, 172.5 101, 152.5 101   C132.5 101, 122.5 111, 122.5 131   C122.5 151, 132.5 161, 152.5 161   C172.5 161, 182.5 151, 182.5 131  Z " fill="black"/></svg>

  </svg>