<?xml version="1.0" encoding="UTF-8" standalone="no"?><svg xmlns="http://www.w3.org/2000/svg" id="montage">
    <svg id="ear"><path stroke="black" stroke-width="1" d="M440.21130325903073 188.19660112501052 C597.2113032590307 275.1966011250105, 468.18516525781365 390.23619097949586, 443.18516525781365 198.23619097949586   " fill="white"/><path stroke="black" stroke-width="1" d="M59.7886967409693 188.19660112501052 C-97.2113032590307 275.1966011250105, 31.81483474218635 390.23619097949586, 56.81483474218635 198.23619097949586   " fill="white"/></svg>
    <circle id="countor" stroke="black" cx="250" cy="250" r="200" stroke-width="3" fill="white"/>
    <svg id="mouth"><path stroke="black" stroke-width="1" d="M202 392 C228 372, 272 372, 298 392   M202 392 C289 326, 211 326, 298 392" fill="white"/></svg>
    <svg id="eye"><path stroke="black" stroke-width="1" d="M260 116 C260 80, 282 101, 307 101   C330 101, 441 62, 441 114   C441 174, 385 234, 364 234   C336 234, 260 127, 260 116  Z " fill="white"/><path stroke="black" stroke-width="1" d="M240 116 C240 80, 218 101, 193 101   C170 101, 59 62, 59 114   C59 174, 115 234, 136 234   C164 234, 240 127, 240 116  Z " fill="white"/><path stroke="black" stroke-width="0" d="M317 137 C317 117, 327 107, 347 107   C367 107, 377 117, 377 137   C377 157, 367 167, 347 167   C327 167, 317 157, 317 137  Z " fill="black"/><path stroke="black" stroke-width="0" d="M183 137 C183 117, 173 107, 153 107   C133 107, 123 117, 123 137   C123 157, 133 167, 153 167   C173 167, 183 157, 183 137  Z " fill="black"/></svg>

  </svg>