<?xml version="1.0" encoding="UTF-8" standalone="no"?><svg xmlns="http://www.w3.org/2000/svg" id="montage">
    <svg id="ear"><path stroke="black" stroke-width="1" d="M407.6021507213444 126.86770493486836 C518.6021507213444 62.86770493486836, 447.6021507213444 1.8677049348683568, 407.6021507213444 126.86770493486836   " fill="white"/><path stroke="black" stroke-width="1" d="M92.3978492786556 126.86770493486836 C-18.6021507213444 62.86770493486836, 52.3978492786556 1.8677049348683568, 92.3978492786556 126.86770493486836   " fill="white"/></svg>
    <circle id="countor" stroke="black" cx="250" cy="250" r="200" stroke-width="3" fill="white"/>
    <svg id="mouth"><path stroke="black" stroke-width="1" d="M124.5 316 C88.5 322, 411.5 322, 375.5 316   M124.5 316 C148.5 171, 351.5 171, 375.5 316" fill="white"/></svg>
    <svg id="eye"><path stroke="black" stroke-width="1" d="M265 193 C265 172, 312 159, 370 159   C395 159, 441 128, 441 201   C441 227, 349 320, 318 320   C246 320, 265 207, 265 193  Z " fill="white"/><path stroke="black" stroke-width="1" d="M235 193 C235 172, 188 159, 130 159   C105 159, 59 128, 59 201   C59 227, 151 320, 182 320   C254 320, 235 207, 235 193  Z " fill="white"/><path stroke="black" stroke-width="0" d="M318 211 C318 191, 328 181, 348 181   C368 181, 378 191, 378 211   C378 231, 368 241, 348 241   C328 241, 318 231, 318 211  Z " fill="black"/><path stroke="black" stroke-width="0" d="M182 211 C182 191, 172 181, 152 181   C132 181, 122 191, 122 211   C122 231, 132 241, 152 241   C172 241, 182 231, 182 211  Z " fill="black"/></svg>

  </svg>