<?xml version="1.0" encoding="UTF-8" standalone="no"?><svg xmlns="http://www.w3.org/2000/svg" id="montage">
    <svg id="ear"><path stroke="black" stroke-width="1" d="M386.3996720124997 103.7292596761659 C535.3996720124997 76.7292596761659, 464.20508075688775 204, 423.20508075688775 350   " fill="white"/><path stroke="black" stroke-width="1" d="M113.6003279875003 103.7292596761659 C-35.39967201249971 76.7292596761659, 35.79491924311225 204, 76.79491924311225 350   " fill="white"/></svg>
    <circle id="countor" stroke="black" cx="250" cy="250" r="200" stroke-width="3" fill="white"/>
    <svg id="mouth"><path stroke="black" stroke-width="1" d="M153.5 378 C181.5 425, 318.5 425, 346.5 378   M153.5 378 C125.5 290, 374.5 290, 346.5 378" fill="white"/></svg>
    <svg id="eye"><path stroke="black" stroke-width="1" d="M257 142 C257 102, 336 121, 366 121   C422 121, 400 70, 400 128   C400 138, 314 240, 303 240   C251 240, 257 173, 257 142  Z " fill="white"/><path stroke="black" stroke-width="1" d="M243 142 C243 102, 164 121, 134 121   C78 121, 100 70, 100 128   C100 138, 186 240, 197 240   C249 240, 243 173, 243 142  Z " fill="white"/><path stroke="black" stroke-width="0" d="M314 178 C314 158, 324 148, 344 148   C364 148, 374 158, 374 178   C374 198, 364 208, 344 208   C324 208, 314 198, 314 178  Z " fill="black"/><path stroke="black" stroke-width="0" d="M186 178 C186 158, 176 148, 156 148   C136 148, 126 158, 126 178   C126 198, 136 208, 156 208   C176 208, 186 198, 186 178  Z " fill="black"/></svg>

  </svg>