<?xml version="1.0" encoding="UTF-8" standalone="no"?><svg xmlns="http://www.w3.org/2000/svg" id="montage">
    <svg id="ear"><path stroke="black" stroke-width="1" d="M441.2609511926071 191.52565905545265 C500.2609511926071 239.52565905545265, 623.0591452551993 346.38437911993356, 444.05914525519927 298.38437911993356   " fill="white"/><path stroke="black" stroke-width="1" d="M58.73904880739292 191.52565905545265 C-0.2609511926070809 239.52565905545265, -123.0591452551993 346.38437911993356, 55.9408547448007 298.38437911993356   " fill="white"/></svg>
    <circle id="countor" stroke="black" cx="250" cy="250" r="200" stroke-width="3" fill="white"/>
    <svg id="mouth"><path stroke="black" stroke-width="1" d="M150 339 C163 388, 337 388, 350 339   M150 339 C226 331, 274 331, 350 339" fill="white"/></svg>
    <svg id="eye"><path stroke="black" stroke-width="1" d="M266.5 203 C266.5 156, 251.5 88, 326.5 88   C342.5 88, 399.5 211, 399.5 221   C399.5 297, 420.5 250, 342.5 250   C318.5 250, 266.5 226, 266.5 203  Z " fill="white"/><path stroke="black" stroke-width="1" d="M233.5 203 C233.5 156, 248.5 88, 173.5 88   C157.5 88, 100.5 211, 100.5 221   C100.5 297, 79.5 250, 157.5 250   C181.5 250, 233.5 226, 233.5 203  Z " fill="white"/><path stroke="black" stroke-width="0" d="M318.5 171 C318.5 151, 328.5 141, 348.5 141   C368.5 141, 378.5 151, 378.5 171   C378.5 191, 368.5 201, 348.5 201   C328.5 201, 318.5 191, 318.5 171  Z " fill="black"/><path stroke="black" stroke-width="0" d="M181.5 171 C181.5 151, 171.5 141, 151.5 141   C131.5 141, 121.5 151, 121.5 171   C121.5 191, 131.5 201, 151.5 201   C171.5 201, 181.5 191, 181.5 171  Z " fill="black"/></svg>

  </svg>