<?xml version="1.0" encoding="UTF-8" standalone="no"?><svg xmlns="http://www.w3.org/2000/svg" id="montage">
    <svg id="ear"/>
    <circle id="countor" stroke="black" cx="250" cy="250" r="200" stroke-width="3" fill="white"/>
    <svg id="mouth"><path stroke="black" stroke-width="1" d="M228.5 344 C273.5 317, 226.5 317, 271.5 344   M228.5 344 C286.5 471, 213.5 471, 271.5 344" fill="white"/></svg>
    <svg id="eye"><path stroke="black" stroke-width="1" d="M264.5 118 C264.5 43, 338.5 37, 396.5 37   C434.5 37, 397.5 119, 397.5 198   C397.5 262, 337.5 204, 308.5 204   C233.5 204, 264.5 161, 264.5 118  Z " fill="white"/><path stroke="black" stroke-width="1" d="M235.5 118 C235.5 43, 161.5 37, 103.5 37   C65.5 37, 102.5 119, 102.5 198   C102.5 262, 162.5 204, 191.5 204   C266.5 204, 235.5 161, 235.5 118  Z " fill="white"/><path stroke="black" stroke-width="0" d="M318.5 153 C318.5 133, 328.5 123, 348.5 123   C368.5 123, 378.5 133, 378.5 153   C378.5 173, 368.5 183, 348.5 183   C328.5 183, 318.5 173, 318.5 153  Z " fill="black"/><path stroke="black" stroke-width="0" d="M181.5 153 C181.5 133, 171.5 123, 151.5 123   C131.5 123, 121.5 133, 121.5 153   C121.5 173, 131.5 183, 151.5 183   C171.5 183, 181.5 173, 181.5 153  Z " fill="black"/></svg>

  </svg>