<?xml version="1.0" encoding="UTF-8" standalone="no"?><svg xmlns="http://www.w3.org/2000/svg" id="montage">
    <svg id="ear"/>
    <circle id="countor" stroke="black" cx="250" cy="250" r="200" stroke-width="3" fill="white"/>
    <svg id="mouth"><path stroke="black" stroke-width="1" d="M137 325 C103 366, 397 366, 363 325   M137 325 C50 386, 450 386, 363 325" fill="white"/></svg>
    <svg id="eye"><path stroke="black" stroke-width="1" d="M246 248 C246 193, 374 107, 389 107   C421 107, 386 142, 386 183   C386 245, 344 332, 294 332   C235 332, 246 280, 246 248  Z " fill="white"/><path stroke="black" stroke-width="1" d="M254 248 C254 193, 126 107, 111 107   C79 107, 114 142, 114 183   C114 245, 156 332, 206 332   C265 332, 254 280, 254 248  Z " fill="white"/><path stroke="black" stroke-width="0" d="M313 218 C313 198, 323 188, 343 188   C363 188, 373 198, 373 218   C373 238, 363 248, 343 248   C323 248, 313 238, 313 218  Z " fill="black"/><path stroke="black" stroke-width="0" d="M187 218 C187 198, 177 188, 157 188   C137 188, 127 198, 127 218   C127 238, 137 248, 157 248   C177 248, 187 238, 187 218  Z " fill="black"/></svg>

  </svg>