<?xml version="1.0" encoding="UTF-8" standalone="no"?><svg xmlns="http://www.w3.org/2000/svg" id="montage">
    <svg id="ear"><path stroke="black" stroke-width="1" d="M331.34732861516005 67.29090847147984 C489.34732861516005 -89.70909152852016, 607.9385241571817 145.59597133486625, 437.9385241571817 181.59597133486625   " fill="white"/><path stroke="black" stroke-width="1" d="M168.65267138483995 67.29090847147984 C10.652671384839948 -89.70909152852016, -107.93852415718169 145.59597133486625, 62.06147584281831 181.59597133486625   " fill="white"/></svg>
    <circle id="countor" stroke="black" cx="250" cy="250" r="200" stroke-width="3" fill="white"/>
    <svg id="mouth"><path stroke="black" stroke-width="1" d="M222 302 C272 284, 228 284, 278 302   M222 302 C358 317, 142 317, 278 302" fill="white"/></svg>
    <svg id="eye"><path stroke="black" stroke-width="1" d="M293.5 183 C293.5 129, 323.5 100, 373.5 100   C387.5 100, 428.5 102, 428.5 157   C428.5 177, 354.5 311, 317.5 311   C306.5 311, 293.5 262, 293.5 183  Z " fill="white"/><path stroke="black" stroke-width="1" d="M206.5 183 C206.5 129, 176.5 100, 126.5 100   C112.5 100, 71.5 102, 71.5 157   C71.5 177, 145.5 311, 182.5 311   C193.5 311, 206.5 262, 206.5 183  Z " fill="white"/><path stroke="black" stroke-width="0" d="M312.5 203 C312.5 183, 322.5 173, 342.5 173   C362.5 173, 372.5 183, 372.5 203   C372.5 223, 362.5 233, 342.5 233   C322.5 233, 312.5 223, 312.5 203  Z " fill="black"/><path stroke="black" stroke-width="0" d="M187.5 203 C187.5 183, 177.5 173, 157.5 173   C137.5 173, 127.5 183, 127.5 203   C127.5 223, 137.5 233, 157.5 233   C177.5 233, 187.5 223, 187.5 203  Z " fill="black"/></svg>

  </svg>