<?xml version="1.0" encoding="UTF-8" standalone="no"?><svg xmlns="http://www.w3.org/2000/svg" id="montage">
    <svg id="ear"/>
    <circle id="countor" stroke="black" cx="250" cy="250" r="200" stroke-width="3" fill="white"/>
    <svg id="mouth"><path stroke="black" stroke-width="1" d="M188.5 354 C199.5 319, 300.5 319, 311.5 354   M188.5 354 C252.5 484, 247.5 484, 311.5 354" fill="white"/></svg>
    <svg id="eye"><path stroke="black" stroke-width="1" d="M309 124 C309 91, 310 73, 355 73   C418 73, 426 145, 426 188   C426 204, 460 252, 392 252   C357 252, 309 139, 309 124  Z " fill="white"/><path stroke="black" stroke-width="1" d="M191 124 C191 91, 190 73, 145 73   C82 73, 74 145, 74 188   C74 204, 40 252, 108 252   C143 252, 191 139, 191 124  Z " fill="white"/><path stroke="black" stroke-width="0" d="M315 156 C315 136, 325 126, 345 126   C365 126, 375 136, 375 156   C375 176, 365 186, 345 186   C325 186, 315 176, 315 156  Z " fill="black"/><path stroke="black" stroke-width="0" d="M185 156 C185 136, 175 126, 155 126   C135 126, 125 136, 125 156   C125 176, 135 186, 155 186   C175 186, 185 176, 185 156  Z " fill="black"/></svg>

  </svg>