<?xml version="1.0" encoding="UTF-8" standalone="no"?><svg xmlns="http://www.w3.org/2000/svg" id="montage">
    <svg id="ear"><path stroke="black" stroke-width="1" d="M337.6742293578155 70.24119074016659 C347.6742293578155 103.24119074016659, 516.8640782099675 48.570807708605855, 375.8640782099675 94.57080770860586   " fill="white"/><path stroke="black" stroke-width="1" d="M162.32577064218452 70.24119074016659 C152.32577064218452 103.24119074016659, -16.864078209967502 48.570807708605855, 124.1359217900325 94.57080770860586   " fill="white"/></svg>
    <circle id="countor" stroke="black" cx="250" cy="250" r="200" stroke-width="3" fill="white"/>
    <svg id="mouth"><path stroke="black" stroke-width="1" d="M150 326 C184 293, 316 293, 350 326   M150 326 C247 355, 253 355, 350 326" fill="white"/></svg>
    <svg id="eye"><path stroke="black" stroke-width="1" d="M254 273 C254 260, 289 134, 300 134   C329 134, 432 170, 432 221   C432 236, 373 343, 328 343   C263 343, 254 310, 254 273  Z " fill="white"/><path stroke="black" stroke-width="1" d="M246 273 C246 260, 211 134, 200 134   C171 134, 68 170, 68 221   C68 236, 127 343, 172 343   C237 343, 246 310, 246 273  Z " fill="white"/><path stroke="black" stroke-width="0" d="M311 230 C311 210, 321 200, 341 200   C361 200, 371 210, 371 230   C371 250, 361 260, 341 260   C321 260, 311 250, 311 230  Z " fill="black"/><path stroke="black" stroke-width="0" d="M189 230 C189 210, 179 200, 159 200   C139 200, 129 210, 129 230   C129 250, 139 260, 159 260   C179 260, 189 250, 189 230  Z " fill="black"/></svg>

  </svg>