<?xml version="1.0" encoding="UTF-8" standalone="no"?><svg xmlns="http://www.w3.org/2000/svg" id="montage">
    <svg id="ear"/>
    <circle id="countor" stroke="black" cx="250" cy="250" r="200" stroke-width="3" fill="white"/>
    <svg id="mouth"><path stroke="black" stroke-width="1" d="M234.5 404 C248.5 447, 251.5 447, 265.5 404   M234.5 404 C191.5 478, 308.5 478, 265.5 404" fill="white"/></svg>
    <svg id="eye"><path stroke="black" stroke-width="1" d="M259.5 177 C259.5 140, 313.5 187, 391.5 187   C453.5 187, 422.5 190, 422.5 240   C422.5 254, 323.5 324, 305.5 324   C271.5 324, 259.5 200, 259.5 177  Z " fill="white"/><path stroke="black" stroke-width="1" d="M240.5 177 C240.5 140, 186.5 187, 108.5 187   C46.5 187, 77.5 190, 77.5 240   C77.5 254, 176.5 324, 194.5 324   C228.5 324, 240.5 200, 240.5 177  Z " fill="white"/><path stroke="black" stroke-width="0" d="M312.5 226 C312.5 206, 322.5 196, 342.5 196   C362.5 196, 372.5 206, 372.5 226   C372.5 246, 362.5 256, 342.5 256   C322.5 256, 312.5 246, 312.5 226  Z " fill="black"/><path stroke="black" stroke-width="0" d="M187.5 226 C187.5 206, 177.5 196, 157.5 196   C137.5 196, 127.5 206, 127.5 226   C127.5 246, 137.5 256, 157.5 256   C177.5 256, 187.5 246, 187.5 226  Z " fill="black"/></svg>

  </svg>