<?xml version="1.0" encoding="UTF-8" standalone="no"?><svg xmlns="http://www.w3.org/2000/svg" id="montage">
    <svg id="ear"><path stroke="black" stroke-width="1" d="M449.7259069509148 239.53280875141124 C504.7259069509148 411.53280875141127, 563.5376681190276 159.28689300804615, 447.53766811902756 281.28689300804615   " fill="white"/><path stroke="black" stroke-width="1" d="M50.274093049085224 239.53280875141124 C-4.725906950914776 411.53280875141127, -63.53766811902756 159.28689300804615, 52.46233188097244 281.28689300804615   " fill="white"/></svg>
    <circle id="countor" stroke="black" cx="250" cy="250" r="200" stroke-width="3" fill="white"/>
    <svg id="mouth"><path stroke="black" stroke-width="1" d="M183.5 397 C229.5 400, 270.5 400, 316.5 397   M183.5 397 C35.5 475, 464.5 475, 316.5 397" fill="white"/></svg>
    <svg id="eye"><path stroke="black" stroke-width="1" d="M251 162 C251 147, 260 98, 334 98   C392 98, 397 95, 397 152   C397 186, 317 259, 305 259   C259 259, 251 189, 251 162  Z " fill="white"/><path stroke="black" stroke-width="1" d="M249 162 C249 147, 240 98, 166 98   C108 98, 103 95, 103 152   C103 186, 183 259, 195 259   C241 259, 249 189, 249 162  Z " fill="white"/><path stroke="black" stroke-width="0" d="M316 201 C316 181, 326 171, 346 171   C366 171, 376 181, 376 201   C376 221, 366 231, 346 231   C326 231, 316 221, 316 201  Z " fill="black"/><path stroke="black" stroke-width="0" d="M184 201 C184 181, 174 171, 154 171   C134 171, 124 181, 124 201   C124 221, 134 231, 154 231   C174 231, 184 221, 184 201  Z " fill="black"/></svg>

  </svg>