<?xml version="1.0" encoding="UTF-8" standalone="no"?><svg xmlns="http://www.w3.org/2000/svg" id="montage">
    <svg id="ear"><path stroke="black" stroke-width="1" d="M367.55705045849464 88.19660112501052 C494.55705045849464 -94.80339887498948, 565.5128100519648 252.95129474882503, 449.51281005196483 263.95129474882503   " fill="white"/><path stroke="black" stroke-width="1" d="M132.44294954150536 88.19660112501052 C5.442949541505357 -94.80339887498948, -65.51281005196483 252.95129474882503, 50.487189948035166 263.95129474882503   " fill="white"/></svg>
    <circle id="countor" stroke="black" cx="250" cy="250" r="200" stroke-width="3" fill="white"/>
    <svg id="mouth"><path stroke="black" stroke-width="1" d="M188.5 395 C208.5 384, 291.5 384, 311.5 395   M188.5 395 C228.5 319, 271.5 319, 311.5 395" fill="white"/></svg>
    <svg id="eye"><path stroke="black" stroke-width="1" d="M245.5 134 C245.5 65, 350.5 29, 372.5 29   C430.5 29, 443.5 70, 443.5 99   C443.5 125, 367.5 209, 330.5 209   C259.5 209, 245.5 203, 245.5 134  Z " fill="white"/><path stroke="black" stroke-width="1" d="M254.5 134 C254.5 65, 149.5 29, 127.5 29   C69.5 29, 56.5 70, 56.5 99   C56.5 125, 132.5 209, 169.5 209   C240.5 209, 254.5 203, 254.5 134  Z " fill="white"/><path stroke="black" stroke-width="0" d="M315.5 149 C315.5 129, 325.5 119, 345.5 119   C365.5 119, 375.5 129, 375.5 149   C375.5 169, 365.5 179, 345.5 179   C325.5 179, 315.5 169, 315.5 149  Z " fill="black"/><path stroke="black" stroke-width="0" d="M184.5 149 C184.5 129, 174.5 119, 154.5 119   C134.5 119, 124.5 129, 124.5 149   C124.5 169, 134.5 179, 154.5 179   C174.5 179, 184.5 169, 184.5 149  Z " fill="black"/></svg>

  </svg>