<?xml version="1.0" encoding="UTF-8" standalone="no"?><svg xmlns="http://www.w3.org/2000/svg" id="montage">
    <svg id="ear"><path stroke="black" stroke-width="1" d="M426.5895185717854 156.10568744282182 C470.5895185717854 287.1056874428218, 539.9043790736547 277.9056926535307, 448.9043790736547 270.9056926535307   " fill="white"/><path stroke="black" stroke-width="1" d="M73.41048142821461 156.10568744282182 C29.41048142821461 287.1056874428218, -39.90437907365467 277.9056926535307, 51.09562092634533 270.9056926535307   " fill="white"/></svg>
    <circle id="countor" stroke="black" cx="250" cy="250" r="200" stroke-width="3" fill="white"/>
    <svg id="mouth"><path stroke="black" stroke-width="1" d="M206.5 421 C227.5 381, 272.5 381, 293.5 421   M206.5 421 C125.5 281, 374.5 281, 293.5 421" fill="white"/></svg>
    <svg id="eye"><path stroke="black" stroke-width="1" d="M264 186 C264 152, 277 129, 315 129   C326 129, 456 169, 456 179   C456 234, 449 230, 382 230   C372 230, 264 258, 264 186  Z " fill="white"/><path stroke="black" stroke-width="1" d="M236 186 C236 152, 223 129, 185 129   C174 129, 44 169, 44 179   C44 234, 51 230, 118 230   C128 230, 236 258, 236 186  Z " fill="white"/><path stroke="black" stroke-width="0" d="M312 165 C312 145, 322 135, 342 135   C362 135, 372 145, 372 165   C372 185, 362 195, 342 195   C322 195, 312 185, 312 165  Z " fill="black"/><path stroke="black" stroke-width="0" d="M188 165 C188 145, 178 135, 158 135   C138 135, 128 145, 128 165   C128 185, 138 195, 158 195   C178 195, 188 185, 188 165  Z " fill="black"/></svg>

  </svg>