<?xml version="1.0" encoding="UTF-8" standalone="no"?><svg xmlns="http://www.w3.org/2000/svg" id="montage">
    <svg id="ear"><path stroke="black" stroke-width="1" d="M441.2609511926071 191.52565905545265 C586.2609511926071 254.52565905545265, 596.8781654038191 111.9798993405002, 449.87816540381914 256.9798993405002   " fill="white"/><path stroke="black" stroke-width="1" d="M58.73904880739292 191.52565905545265 C-86.26095119260708 254.52565905545265, -96.87816540381914 111.9798993405002, 50.12183459618086 256.9798993405002   " fill="white"/></svg>
    <circle id="countor" stroke="black" cx="250" cy="250" r="200" stroke-width="3" fill="white"/>
    <svg id="mouth"><path stroke="black" stroke-width="1" d="M158 293 C146 244, 354 244, 342 293   M158 293 C8 238, 492 238, 342 293" fill="white"/></svg>
    <svg id="eye"><path stroke="black" stroke-width="1" d="M274.5 213 C274.5 184, 308.5 129, 342.5 129   C366.5 129, 415.5 112, 415.5 174   C415.5 219, 432.5 261, 376.5 261   C347.5 261, 274.5 237, 274.5 213  Z " fill="white"/><path stroke="black" stroke-width="1" d="M225.5 213 C225.5 184, 191.5 129, 157.5 129   C133.5 129, 84.5 112, 84.5 174   C84.5 219, 67.5 261, 123.5 261   C152.5 261, 225.5 237, 225.5 213  Z " fill="white"/><path stroke="black" stroke-width="0" d="M319.5 177 C319.5 157, 329.5 147, 349.5 147   C369.5 147, 379.5 157, 379.5 177   C379.5 197, 369.5 207, 349.5 207   C329.5 207, 319.5 197, 319.5 177  Z " fill="black"/><path stroke="black" stroke-width="0" d="M180.5 177 C180.5 157, 170.5 147, 150.5 147   C130.5 147, 120.5 157, 120.5 177   C120.5 197, 130.5 207, 150.5 207   C170.5 207, 180.5 197, 180.5 177  Z " fill="black"/></svg>

  </svg>