<?xml version="1.0" encoding="UTF-8" standalone="no"?><svg xmlns="http://www.w3.org/2000/svg" id="montage">
    <svg id="ear"><path stroke="black" stroke-width="1" d="M449.96953903127826 246.5095187125433 C466.96953903127826 295.5095187125433, 574.7160852994404 357.67358990906007, 436.71608529944035 321.67358990906007   " fill="white"/><path stroke="black" stroke-width="1" d="M50.03046096872174 246.5095187125433 C33.03046096872174 295.5095187125433, -74.71608529944035 357.67358990906007, 63.28391470055965 321.67358990906007   " fill="white"/></svg>
    <circle id="countor" stroke="black" cx="250" cy="250" r="200" stroke-width="3" fill="white"/>
    <svg id="mouth"><path stroke="black" stroke-width="1" d="M188 386 C171 386, 329 386, 312 386   M188 386 C174 476, 326 476, 312 386" fill="white"/></svg>
    <svg id="eye"><path stroke="black" stroke-width="1" d="M252.5 158 C252.5 85, 249.5 52, 299.5 52   C328.5 52, 391.5 140, 391.5 165   C391.5 198, 441.5 241, 372.5 241   C347.5 241, 252.5 184, 252.5 158  Z " fill="white"/><path stroke="black" stroke-width="1" d="M247.5 158 C247.5 85, 250.5 52, 200.5 52   C171.5 52, 108.5 140, 108.5 165   C108.5 198, 58.5 241, 127.5 241   C152.5 241, 247.5 184, 247.5 158  Z " fill="white"/><path stroke="black" stroke-width="0" d="M315.5 144 C315.5 124, 325.5 114, 345.5 114   C365.5 114, 375.5 124, 375.5 144   C375.5 164, 365.5 174, 345.5 174   C325.5 174, 315.5 164, 315.5 144  Z " fill="black"/><path stroke="black" stroke-width="0" d="M184.5 144 C184.5 124, 174.5 114, 154.5 114   C134.5 114, 124.5 124, 124.5 144   C124.5 164, 134.5 174, 154.5 174   C174.5 174, 184.5 164, 184.5 144  Z " fill="black"/></svg>

  </svg>