<?xml version="1.0" encoding="UTF-8" standalone="no"?><svg xmlns="http://www.w3.org/2000/svg" id="montage">
    <svg id="ear"><path stroke="black" stroke-width="1" d="M375.8640782099675 94.57080770860586 C453.8640782099675 31.570807708605855, 486.62952014676114 460.58233816355187, 445.62952014676114 291.58233816355187   " fill="white"/><path stroke="black" stroke-width="1" d="M124.1359217900325 94.57080770860586 C46.1359217900325 31.570807708605855, 13.370479853238862 460.58233816355187, 54.37047985323886 291.58233816355187   " fill="white"/></svg>
    <circle id="countor" stroke="black" cx="250" cy="250" r="200" stroke-width="3" fill="white"/>
    <svg id="mouth"><path stroke="black" stroke-width="1" d="M153 363 C112 346, 388 346, 347 363   M153 363 C143 367, 357 367, 347 363" fill="white"/></svg>
    <svg id="eye"><path stroke="black" stroke-width="1" d="M275 209 C275 197, 278 138, 313 138   C366 138, 430 164, 430 223   C430 265, 444 301, 384 301   C340 301, 275 228, 275 209  Z " fill="white"/><path stroke="black" stroke-width="1" d="M225 209 C225 197, 222 138, 187 138   C134 138, 70 164, 70 223   C70 265, 56 301, 116 301   C160 301, 225 228, 225 209  Z " fill="white"/><path stroke="black" stroke-width="0" d="M315 205 C315 185, 325 175, 345 175   C365 175, 375 185, 375 205   C375 225, 365 235, 345 235   C325 235, 315 225, 315 205  Z " fill="black"/><path stroke="black" stroke-width="0" d="M185 205 C185 185, 175 175, 155 175   C135 175, 125 185, 125 205   C125 225, 135 235, 155 235   C175 235, 185 225, 185 205  Z " fill="black"/></svg>

  </svg>