<?xml version="1.0" encoding="UTF-8" standalone="no"?><svg xmlns="http://www.w3.org/2000/svg" id="montage">
    <svg id="ear"><path stroke="black" stroke-width="1" d="M291.58233816355187 54.37047985323889 C466.58233816355187 -106.62952014676111, 474.71608529944035 323.32641009093993, 436.71608529944035 178.32641009093993   " fill="white"/><path stroke="black" stroke-width="1" d="M208.4176618364481 54.37047985323889 C33.417661836448104 -106.62952014676111, 25.28391470055965 323.32641009093993, 63.28391470055965 178.32641009093993   " fill="white"/></svg>
    <circle id="countor" stroke="black" cx="250" cy="250" r="200" stroke-width="3" fill="white"/>
    <svg id="mouth"><path stroke="black" stroke-width="1" d="M220 370 C269 346, 231 346, 280 370   M220 370 C245 375, 255 375, 280 370" fill="white"/></svg>
    <svg id="eye"><path stroke="black" stroke-width="1" d="M264 226 C264 199, 269 131, 335 131   C349 131, 441 111, 441 173   C441 211, 353 267, 330 267   C266 267, 264 274, 264 226  Z " fill="white"/><path stroke="black" stroke-width="1" d="M236 226 C236 199, 231 131, 165 131   C151 131, 59 111, 59 173   C59 211, 147 267, 170 267   C234 267, 236 274, 236 226  Z " fill="white"/><path stroke="black" stroke-width="0" d="M310 182 C310 162, 320 152, 340 152   C360 152, 370 162, 370 182   C370 202, 360 212, 340 212   C320 212, 310 202, 310 182  Z " fill="black"/><path stroke="black" stroke-width="0" d="M190 182 C190 162, 180 152, 160 152   C140 152, 130 162, 130 182   C130 202, 140 212, 160 212   C180 212, 190 202, 190 182  Z " fill="black"/></svg>

  </svg>