<?xml version="1.0" encoding="UTF-8" standalone="no"?><svg xmlns="http://www.w3.org/2000/svg" id="montage">
    <svg id="ear"><path stroke="black" stroke-width="1" d="M375.8640782099675 94.57080770860586 C392.8640782099675 4.570807708605855, 548.0536137483141 309.83462019201306, 448.0536137483141 277.83462019201306   " fill="white"/><path stroke="black" stroke-width="1" d="M124.1359217900325 94.57080770860586 C107.1359217900325 4.570807708605855, -48.05361374831406 309.83462019201306, 51.94638625168594 277.83462019201306   " fill="white"/></svg>
    <circle id="countor" stroke="black" cx="250" cy="250" r="200" stroke-width="3" fill="white"/>
    <svg id="mouth"><path stroke="black" stroke-width="1" d="M149.5 329 C115.5 298, 384.5 298, 350.5 329   M149.5 329 C283.5 296, 216.5 296, 350.5 329" fill="white"/></svg>
    <svg id="eye"><path stroke="black" stroke-width="1" d="M302.5 134 C302.5 58, 304.5 68, 337.5 68   C369.5 68, 433.5 109, 433.5 184   C433.5 196, 401.5 271, 381.5 271   C364.5 271, 302.5 188, 302.5 134  Z " fill="white"/><path stroke="black" stroke-width="1" d="M197.5 134 C197.5 58, 195.5 68, 162.5 68   C130.5 68, 66.5 109, 66.5 184   C66.5 196, 98.5 271, 118.5 271   C135.5 271, 197.5 188, 197.5 134  Z " fill="white"/><path stroke="black" stroke-width="0" d="M318.5 176 C318.5 156, 328.5 146, 348.5 146   C368.5 146, 378.5 156, 378.5 176   C378.5 196, 368.5 206, 348.5 206   C328.5 206, 318.5 196, 318.5 176  Z " fill="black"/><path stroke="black" stroke-width="0" d="M181.5 176 C181.5 156, 171.5 146, 151.5 146   C131.5 146, 121.5 156, 121.5 176   C121.5 196, 131.5 206, 151.5 206   C171.5 206, 181.5 196, 181.5 176  Z " fill="black"/></svg>

  </svg>