<?xml version="1.0" encoding="UTF-8" standalone="no"?><svg xmlns="http://www.w3.org/2000/svg" id="montage">
    <svg id="ear"><path stroke="black" stroke-width="1" d="M423.20508075688775 150 C560.2050807568878 17, 585.9239414278792 130.0380759507326, 424.9239414278792 153.0380759507326   " fill="white"/><path stroke="black" stroke-width="1" d="M76.79491924311225 150 C-60.20508075688775 17, -85.92394142787916 130.0380759507326, 75.07605857212084 153.0380759507326   " fill="white"/></svg>
    <circle id="countor" stroke="black" cx="250" cy="250" r="200" stroke-width="3" fill="white"/>
    <svg id="mouth"><path stroke="black" stroke-width="1" d="M230 391 C228 436, 272 436, 270 391   M230 391 C87 317, 413 317, 270 391" fill="white"/></svg>
    <svg id="eye"><path stroke="black" stroke-width="1" d="M267 105 C267 55, 371 57, 386 57   C444 57, 428 65, 428 137   C428 156, 367 207, 348 207   C279 207, 267 143, 267 105  Z " fill="white"/><path stroke="black" stroke-width="1" d="M233 105 C233 55, 129 57, 114 57   C56 57, 72 65, 72 137   C72 156, 133 207, 152 207   C221 207, 233 143, 233 105  Z " fill="white"/><path stroke="black" stroke-width="0" d="M317 148 C317 128, 327 118, 347 118   C367 118, 377 128, 377 148   C377 168, 367 178, 347 178   C327 178, 317 168, 317 148  Z " fill="black"/><path stroke="black" stroke-width="0" d="M183 148 C183 128, 173 118, 153 118   C133 118, 123 128, 123 148   C123 168, 133 178, 153 178   C173 178, 183 168, 183 148  Z " fill="black"/></svg>

  </svg>