<?xml version="1.0" encoding="UTF-8" standalone="no"?><svg xmlns="http://www.w3.org/2000/svg" id="montage">
    <svg id="ear"><path stroke="black" stroke-width="1" d="M343.8943125571782 73.41048142821464 C520.8943125571782 -37.58951857178536, 456.43677091335746 182.9213186831824, 435.43677091335746 324.9213186831824   " fill="white"/><path stroke="black" stroke-width="1" d="M156.10568744282182 73.41048142821464 C-20.894312557178182 -37.58951857178536, 43.56322908664251 182.9213186831824, 64.56322908664251 324.9213186831824   " fill="white"/></svg>
    <circle id="countor" stroke="black" cx="250" cy="250" r="200" stroke-width="3" fill="white"/>
    <svg id="mouth"><path stroke="black" stroke-width="1" d="M132 381 C119 428, 381 428, 368 381   M132 381 C275 494, 225 494, 368 381" fill="white"/></svg>
    <svg id="eye"><path stroke="black" stroke-width="1" d="M239.5 154 C239.5 126, 326.5 77, 354.5 77   C376.5 77, 385.5 172, 385.5 192   C385.5 240, 368.5 307, 311.5 307   C278.5 307, 239.5 190, 239.5 154  Z " fill="white"/><path stroke="black" stroke-width="1" d="M260.5 154 C260.5 126, 173.5 77, 145.5 77   C123.5 77, 114.5 172, 114.5 192   C114.5 240, 131.5 307, 188.5 307   C221.5 307, 260.5 190, 260.5 154  Z " fill="white"/><path stroke="black" stroke-width="0" d="M316.5 197 C316.5 177, 326.5 167, 346.5 167   C366.5 167, 376.5 177, 376.5 197   C376.5 217, 366.5 227, 346.5 227   C326.5 227, 316.5 217, 316.5 197  Z " fill="black"/><path stroke="black" stroke-width="0" d="M183.5 197 C183.5 177, 173.5 167, 153.5 167   C133.5 167, 123.5 177, 123.5 197   C123.5 217, 133.5 227, 153.5 227   C173.5 227, 183.5 217, 183.5 197  Z " fill="black"/></svg>

  </svg>