<?xml version="1.0" encoding="UTF-8" standalone="no"?><svg xmlns="http://www.w3.org/2000/svg" id="montage">
    <svg id="ear"><path stroke="black" stroke-width="1" d="M346.9619240492674 75.07605857212084 C398.9619240492674 85.07605857212084, 462.71608529944035 183.32641009093993, 436.71608529944035 178.32641009093993   " fill="white"/><path stroke="black" stroke-width="1" d="M153.03807595073258 75.07605857212084 C101.03807595073258 85.07605857212084, 37.28391470055965 183.32641009093993, 63.28391470055965 178.32641009093993   " fill="white"/></svg>
    <circle id="countor" stroke="black" cx="250" cy="250" r="200" stroke-width="3" fill="white"/>
    <svg id="mouth"><path stroke="black" stroke-width="1" d="M177.5 324 C182.5 353, 317.5 353, 322.5 324   M177.5 324 C282.5 471, 217.5 471, 322.5 324" fill="white"/></svg>
    <svg id="eye"><path stroke="black" stroke-width="1" d="M229 199 C229 163, 248 125, 299 125   C371 125, 430 122, 430 197   C430 268, 378 280, 335 280   C307 280, 229 241, 229 199  Z " fill="white"/><path stroke="black" stroke-width="1" d="M271 199 C271 163, 252 125, 201 125   C129 125, 70 122, 70 197   C70 268, 122 280, 165 280   C193 280, 271 241, 271 199  Z " fill="white"/><path stroke="black" stroke-width="0" d="M312 181 C312 161, 322 151, 342 151   C362 151, 372 161, 372 181   C372 201, 362 211, 342 211   C322 211, 312 201, 312 181  Z " fill="black"/><path stroke="black" stroke-width="0" d="M188 181 C188 161, 178 151, 158 151   C138 151, 128 161, 128 181   C128 201, 138 211, 158 211   C178 211, 188 201, 188 181  Z " fill="black"/></svg>

  </svg>