<?xml version="1.0" encoding="UTF-8" standalone="no"?><svg xmlns="http://www.w3.org/2000/svg" id="montage">
    <svg id="ear"/>
    <circle id="countor" stroke="black" cx="250" cy="250" r="200" stroke-width="3" fill="white"/>
    <svg id="mouth"><path stroke="black" stroke-width="1" d="M187 332 C167 376, 333 376, 313 332   M187 332 C91 380, 409 380, 313 332" fill="white"/></svg>
    <svg id="eye"><path stroke="black" stroke-width="1" d="M307.5 111 C307.5 44, 272.5 50, 299.5 50   C337.5 50, 384.5 137, 384.5 189   C384.5 249, 336.5 255, 298.5 255   C282.5 255, 307.5 180, 307.5 111  Z " fill="white"/><path stroke="black" stroke-width="1" d="M192.5 111 C192.5 44, 227.5 50, 200.5 50   C162.5 50, 115.5 137, 115.5 189   C115.5 249, 163.5 255, 201.5 255   C217.5 255, 192.5 180, 192.5 111  Z " fill="white"/><path stroke="black" stroke-width="0" d="M317.5 145 C317.5 125, 327.5 115, 347.5 115   C367.5 115, 377.5 125, 377.5 145   C377.5 165, 367.5 175, 347.5 175   C327.5 175, 317.5 165, 317.5 145  Z " fill="black"/><path stroke="black" stroke-width="0" d="M182.5 145 C182.5 125, 172.5 115, 152.5 115   C132.5 115, 122.5 125, 122.5 145   C122.5 165, 132.5 175, 152.5 175   C172.5 175, 182.5 165, 182.5 145  Z " fill="black"/></svg>

  </svg>