<?xml version="1.0" encoding="UTF-8" standalone="no"?><svg xmlns="http://www.w3.org/2000/svg" id="montage">
    <svg id="ear"><path stroke="black" stroke-width="1" d="M429.7588092598334 162.32577064218452 C485.7588092598334 -2.674229357815477, 540.0591452551993 292.38437911993356, 444.05914525519927 298.38437911993356   " fill="white"/><path stroke="black" stroke-width="1" d="M70.24119074016659 162.32577064218452 C14.241190740166587 -2.674229357815477, -40.0591452551993 292.38437911993356, 55.9408547448007 298.38437911993356   " fill="white"/></svg>
    <circle id="countor" stroke="black" cx="250" cy="250" r="200" stroke-width="3" fill="white"/>
    <svg id="mouth"><path stroke="black" stroke-width="1" d="M178 318 C178 320, 322 320, 322 318   M178 318 C234 457, 266 457, 322 318" fill="white"/></svg>
    <svg id="eye"><path stroke="black" stroke-width="1" d="M283.5 195 C283.5 139, 339.5 47, 366.5 47   C419.5 47, 383.5 193, 383.5 212   C383.5 234, 422.5 235, 348.5 235   C283.5 235, 283.5 251, 283.5 195  Z " fill="white"/><path stroke="black" stroke-width="1" d="M216.5 195 C216.5 139, 160.5 47, 133.5 47   C80.5 47, 116.5 193, 116.5 212   C116.5 234, 77.5 235, 151.5 235   C216.5 235, 216.5 251, 216.5 195  Z " fill="white"/><path stroke="black" stroke-width="0" d="M313.5 167 C313.5 147, 323.5 137, 343.5 137   C363.5 137, 373.5 147, 373.5 167   C373.5 187, 363.5 197, 343.5 197   C323.5 197, 313.5 187, 313.5 167  Z " fill="black"/><path stroke="black" stroke-width="0" d="M186.5 167 C186.5 147, 176.5 137, 156.5 137   C136.5 137, 126.5 147, 126.5 167   C126.5 187, 136.5 197, 156.5 197   C176.5 197, 186.5 187, 186.5 167  Z " fill="black"/></svg>

  </svg>