<?xml version="1.0" encoding="UTF-8" standalone="no"?><svg xmlns="http://www.w3.org/2000/svg" id="montage">
    <svg id="ear"><path stroke="black" stroke-width="1" d="M419.6096192312852 144.01614715335901 C461.6096192312852 258.01614715335904, 620.9239414278792 253.0380759507326, 424.9239414278792 153.0380759507326   " fill="white"/><path stroke="black" stroke-width="1" d="M80.3903807687148 144.01614715335901 C38.390380768714806 258.01614715335904, -120.92394142787916 253.0380759507326, 75.07605857212084 153.0380759507326   " fill="white"/></svg>
    <circle id="countor" stroke="black" cx="250" cy="250" r="200" stroke-width="3" fill="white"/>
    <svg id="mouth"><path stroke="black" stroke-width="1" d="M191.5 405 C178.5 370, 321.5 370, 308.5 405   M191.5 405 C286.5 434, 213.5 434, 308.5 405" fill="white"/></svg>
    <svg id="eye"><path stroke="black" stroke-width="1" d="M222 117 C222 65, 266 93, 331 93   C370 93, 436 125, 436 136   C436 204, 387 242, 349 242   C280 242, 222 169, 222 117  Z " fill="white"/><path stroke="black" stroke-width="1" d="M278 117 C278 65, 234 93, 169 93   C130 93, 64 125, 64 136   C64 204, 113 242, 151 242   C220 242, 278 169, 278 117  Z " fill="white"/><path stroke="black" stroke-width="0" d="M310 141 C310 121, 320 111, 340 111   C360 111, 370 121, 370 141   C370 161, 360 171, 340 171   C320 171, 310 161, 310 141  Z " fill="black"/><path stroke="black" stroke-width="0" d="M190 141 C190 121, 180 111, 160 111   C140 111, 130 121, 130 141   C130 161, 140 171, 160 171   C180 171, 190 161, 190 141  Z " fill="black"/></svg>

  </svg>