<?xml version="1.0" encoding="UTF-8" standalone="no"?><svg xmlns="http://www.w3.org/2000/svg" id="montage">
    <svg id="ear"><path stroke="black" stroke-width="1" d="M448.9043790736547 229.0943073464693 C576.9043790736547 420.0943073464693, 521.9239414278792 203.9619240492674, 424.9239414278792 346.9619240492674   " fill="white"/><path stroke="black" stroke-width="1" d="M51.09562092634533 229.0943073464693 C-76.90437907365467 420.0943073464693, -21.923941427879157 203.9619240492674, 75.07605857212084 346.9619240492674   " fill="white"/></svg>
    <circle id="countor" stroke="black" cx="250" cy="250" r="200" stroke-width="3" fill="white"/>
    <svg id="mouth"><path stroke="black" stroke-width="1" d="M172 311 C153 317, 347 317, 328 311   M172 311 C89 402, 411 402, 328 311" fill="white"/></svg>
    <svg id="eye"><path stroke="black" stroke-width="1" d="M270 189 C270 126, 297 120, 336 120   C410 120, 411 104, 411 131   C411 195, 455 239, 392 239   C351 239, 270 209, 270 189  Z " fill="white"/><path stroke="black" stroke-width="1" d="M230 189 C230 126, 203 120, 164 120   C90 120, 89 104, 89 131   C89 195, 45 239, 108 239   C149 239, 230 209, 230 189  Z " fill="white"/><path stroke="black" stroke-width="0" d="M313 174 C313 154, 323 144, 343 144   C363 144, 373 154, 373 174   C373 194, 363 204, 343 204   C323 204, 313 194, 313 174  Z " fill="black"/><path stroke="black" stroke-width="0" d="M187 174 C187 154, 177 144, 157 144   C137 144, 127 154, 127 174   C127 194, 137 204, 157 204   C177 204, 187 194, 187 174  Z " fill="black"/></svg>

  </svg>