<?xml version="1.0" encoding="UTF-8" standalone="no"?><svg xmlns="http://www.w3.org/2000/svg" id="montage">
    <svg id="ear"><path stroke="black" stroke-width="1" d="M386.3996720124997 103.7292596761659 C423.3996720124997 106.7292596761659, 482.9385241571817 319.59597133486625, 437.9385241571817 181.59597133486625   " fill="white"/><path stroke="black" stroke-width="1" d="M113.6003279875003 103.7292596761659 C76.6003279875003 106.7292596761659, 17.06147584281831 319.59597133486625, 62.06147584281831 181.59597133486625   " fill="white"/></svg>
    <circle id="countor" stroke="black" cx="250" cy="250" r="200" stroke-width="3" fill="white"/>
    <svg id="mouth"><path stroke="black" stroke-width="1" d="M216 409 C183 447, 317 447, 284 409   M216 409 C158 403, 342 403, 284 409" fill="white"/></svg>
    <svg id="eye"><path stroke="black" stroke-width="1" d="M266.5 133 C266.5 65, 225.5 46, 294.5 46   C311.5 46, 437.5 73, 437.5 90   C437.5 167, 407.5 223, 333.5 223   C272.5 223, 266.5 192, 266.5 133  Z " fill="white"/><path stroke="black" stroke-width="1" d="M233.5 133 C233.5 65, 274.5 46, 205.5 46   C188.5 46, 62.5 73, 62.5 90   C62.5 167, 92.5 223, 166.5 223   C227.5 223, 233.5 192, 233.5 133  Z " fill="white"/><path stroke="black" stroke-width="0" d="M312.5 133 C312.5 113, 322.5 103, 342.5 103   C362.5 103, 372.5 113, 372.5 133   C372.5 153, 362.5 163, 342.5 163   C322.5 163, 312.5 153, 312.5 133  Z " fill="black"/><path stroke="black" stroke-width="0" d="M187.5 133 C187.5 113, 177.5 103, 157.5 103   C137.5 103, 127.5 113, 127.5 133   C127.5 153, 137.5 163, 157.5 163   C177.5 163, 187.5 153, 187.5 133  Z " fill="black"/></svg>

  </svg>