<?xml version="1.0" encoding="UTF-8" standalone="no"?><svg xmlns="http://www.w3.org/2000/svg" id="montage">
    <svg id="ear"/>
    <circle id="countor" stroke="black" cx="250" cy="250" r="200" stroke-width="3" fill="white"/>
    <svg id="mouth"><path stroke="black" stroke-width="1" d="M125.5 374 C117.5 379, 382.5 379, 374.5 374   M125.5 374 C239.5 353, 260.5 353, 374.5 374" fill="white"/></svg>
    <svg id="eye"><path stroke="black" stroke-width="1" d="M277.5 181 C277.5 140, 295.5 105, 350.5 105   C421.5 105, 407.5 208, 407.5 264   C407.5 343, 423.5 315, 369.5 315   C296.5 315, 277.5 208, 277.5 181  Z " fill="white"/><path stroke="black" stroke-width="1" d="M222.5 181 C222.5 140, 204.5 105, 149.5 105   C78.5 105, 92.5 208, 92.5 264   C92.5 343, 76.5 315, 130.5 315   C203.5 315, 222.5 208, 222.5 181  Z " fill="white"/><path stroke="black" stroke-width="0" d="M314.5 215 C314.5 195, 324.5 185, 344.5 185   C364.5 185, 374.5 195, 374.5 215   C374.5 235, 364.5 245, 344.5 245   C324.5 245, 314.5 235, 314.5 215  Z " fill="black"/><path stroke="black" stroke-width="0" d="M185.5 215 C185.5 195, 175.5 185, 155.5 185   C135.5 185, 125.5 195, 125.5 215   C125.5 235, 135.5 245, 155.5 245   C175.5 245, 185.5 235, 185.5 215  Z " fill="black"/></svg>

  </svg>