<?xml version="1.0" encoding="UTF-8" standalone="no"?><svg xmlns="http://www.w3.org/2000/svg" id="montage">
    <svg id="ear"/>
    <circle id="countor" stroke="black" cx="250" cy="250" r="200" stroke-width="3" fill="white"/>
    <svg id="mouth"><path stroke="black" stroke-width="1" d="M229 366 C263 392, 237 392, 271 366   M229 366 C243 269, 257 269, 271 366" fill="white"/></svg>
    <svg id="eye"><path stroke="black" stroke-width="1" d="M270.5 183 C270.5 140, 313.5 80, 326.5 80   C399.5 80, 415.5 116, 415.5 171   C415.5 204, 451.5 199, 394.5 199   C376.5 199, 270.5 231, 270.5 183  Z " fill="white"/><path stroke="black" stroke-width="1" d="M229.5 183 C229.5 140, 186.5 80, 173.5 80   C100.5 80, 84.5 116, 84.5 171   C84.5 204, 48.5 199, 105.5 199   C123.5 199, 229.5 231, 229.5 183  Z " fill="white"/><path stroke="black" stroke-width="0" d="M317.5 136 C317.5 116, 327.5 106, 347.5 106   C367.5 106, 377.5 116, 377.5 136   C377.5 156, 367.5 166, 347.5 166   C327.5 166, 317.5 156, 317.5 136  Z " fill="black"/><path stroke="black" stroke-width="0" d="M182.5 136 C182.5 116, 172.5 106, 152.5 106   C132.5 106, 122.5 116, 122.5 136   C122.5 156, 132.5 166, 152.5 166   C172.5 166, 182.5 156, 182.5 136  Z " fill="black"/></svg>

  </svg>