<?xml version="1.0" encoding="UTF-8" standalone="no"?><svg xmlns="http://www.w3.org/2000/svg" id="montage">
    <svg id="ear"><path stroke="black" stroke-width="1" d="M324.9213186831824 64.56322908664251 C515.9213186831823 31.563229086642508, 393.6742293578155 234.2411907401666, 337.6742293578155 70.24119074016659   " fill="white"/><path stroke="black" stroke-width="1" d="M175.0786813168176 64.56322908664251 C-15.921318683182392 31.563229086642508, 106.32577064218452 234.2411907401666, 162.32577064218452 70.24119074016659   " fill="white"/></svg>
    <circle id="countor" stroke="black" cx="250" cy="250" r="200" stroke-width="3" fill="white"/>
    <svg id="mouth"><path stroke="black" stroke-width="1" d="M163 405 C209 453, 291 453, 337 405   M163 405 C250 438, 250 438, 337 405" fill="white"/></svg>
    <svg id="eye"><path stroke="black" stroke-width="1" d="M239.5 110 C239.5 59, 360.5 30, 372.5 30   C415.5 30, 391.5 48, 391.5 121   C391.5 188, 361.5 267, 346.5 267   C266.5 267, 239.5 147, 239.5 110  Z " fill="white"/><path stroke="black" stroke-width="1" d="M260.5 110 C260.5 59, 139.5 30, 127.5 30   C84.5 30, 108.5 48, 108.5 121   C108.5 188, 138.5 267, 153.5 267   C233.5 267, 260.5 147, 260.5 110  Z " fill="white"/><path stroke="black" stroke-width="0" d="M315.5 148 C315.5 128, 325.5 118, 345.5 118   C365.5 118, 375.5 128, 375.5 148   C375.5 168, 365.5 178, 345.5 178   C325.5 178, 315.5 168, 315.5 148  Z " fill="black"/><path stroke="black" stroke-width="0" d="M184.5 148 C184.5 128, 174.5 118, 154.5 118   C134.5 118, 124.5 128, 124.5 148   C124.5 168, 134.5 178, 154.5 178   C174.5 178, 184.5 168, 184.5 148  Z " fill="black"/></svg>

  </svg>