<?xml version="1.0" encoding="UTF-8" standalone="no"?><svg xmlns="http://www.w3.org/2000/svg" id="montage">
    <svg id="ear"/>
    <circle id="countor" stroke="black" cx="250" cy="250" r="200" stroke-width="3" fill="white"/>
    <svg id="mouth"><path stroke="black" stroke-width="1" d="M163.5 390 C196.5 344, 303.5 344, 336.5 390   M163.5 390 C276.5 272, 223.5 272, 336.5 390" fill="white"/></svg>
    <svg id="eye"><path stroke="black" stroke-width="1" d="M303.5 156 C303.5 123, 319.5 87, 371.5 87   C451.5 87, 442.5 97, 442.5 107   C442.5 166, 400.5 165, 354.5 165   C310.5 165, 303.5 235, 303.5 156  Z " fill="white"/><path stroke="black" stroke-width="1" d="M196.5 156 C196.5 123, 180.5 87, 128.5 87   C48.5 87, 57.5 97, 57.5 107   C57.5 166, 99.5 165, 145.5 165   C189.5 165, 196.5 235, 196.5 156  Z " fill="white"/><path stroke="black" stroke-width="0" d="M317.5 130 C317.5 110, 327.5 100, 347.5 100   C367.5 100, 377.5 110, 377.5 130   C377.5 150, 367.5 160, 347.5 160   C327.5 160, 317.5 150, 317.5 130  Z " fill="black"/><path stroke="black" stroke-width="0" d="M182.5 130 C182.5 110, 172.5 100, 152.5 100   C132.5 100, 122.5 110, 122.5 130   C122.5 150, 132.5 160, 152.5 160   C172.5 160, 182.5 150, 182.5 130  Z " fill="black"/></svg>

  </svg>