<?xml version="1.0" encoding="UTF-8" standalone="no"?><svg xmlns="http://www.w3.org/2000/svg" id="montage">
    <svg id="ear"><path stroke="black" stroke-width="1" d="M449.7259069509148 239.53280875141124 C588.7259069509148 271.53280875141127, 510.5895185717854 522.8943125571782, 426.5895185717854 343.8943125571782   " fill="white"/><path stroke="black" stroke-width="1" d="M50.274093049085224 239.53280875141124 C-88.72590695091478 271.53280875141127, -10.58951857178539 522.8943125571782, 73.41048142821461 343.8943125571782   " fill="white"/></svg>
    <circle id="countor" stroke="black" cx="250" cy="250" r="200" stroke-width="3" fill="white"/>
    <svg id="mouth"><path stroke="black" stroke-width="1" d="M147 382 C164 336, 336 336, 353 382   M147 382 C208 385, 292 385, 353 382" fill="white"/></svg>
    <svg id="eye"><path stroke="black" stroke-width="1" d="M247.5 155 C247.5 133, 310.5 47, 367.5 47   C432.5 47, 424.5 89, 424.5 140   C424.5 201, 368.5 245, 351.5 245   C337.5 245, 247.5 229, 247.5 155  Z " fill="white"/><path stroke="black" stroke-width="1" d="M252.5 155 C252.5 133, 189.5 47, 132.5 47   C67.5 47, 75.5 89, 75.5 140   C75.5 201, 131.5 245, 148.5 245   C162.5 245, 252.5 229, 252.5 155  Z " fill="white"/><path stroke="black" stroke-width="0" d="M312.5 137 C312.5 117, 322.5 107, 342.5 107   C362.5 107, 372.5 117, 372.5 137   C372.5 157, 362.5 167, 342.5 167   C322.5 167, 312.5 157, 312.5 137  Z " fill="black"/><path stroke="black" stroke-width="0" d="M187.5 137 C187.5 117, 177.5 107, 157.5 107   C137.5 107, 127.5 117, 127.5 137   C127.5 157, 137.5 167, 157.5 167   C177.5 167, 187.5 157, 187.5 137  Z " fill="black"/></svg>

  </svg>