<?xml version="1.0" encoding="UTF-8" standalone="no"?><svg xmlns="http://www.w3.org/2000/svg" id="montage">
    <svg id="ear"/>
    <circle id="countor" stroke="black" cx="250" cy="250" r="200" stroke-width="3" fill="white"/>
    <svg id="mouth"><path stroke="black" stroke-width="1" d="M202.5 307 C205.5 343, 294.5 343, 297.5 307   M202.5 307 C173.5 211, 326.5 211, 297.5 307" fill="white"/></svg>
    <svg id="eye"><path stroke="black" stroke-width="1" d="M236.5 239 C236.5 214, 272.5 171, 324.5 171   C341.5 171, 416.5 135, 416.5 199   C416.5 257, 397.5 280, 367.5 280   C328.5 280, 236.5 314, 236.5 239  Z " fill="white"/><path stroke="black" stroke-width="1" d="M263.5 239 C263.5 214, 227.5 171, 175.5 171   C158.5 171, 83.5 135, 83.5 199   C83.5 257, 102.5 280, 132.5 280   C171.5 280, 263.5 314, 263.5 239  Z " fill="white"/><path stroke="black" stroke-width="0" d="M314.5 211 C314.5 191, 324.5 181, 344.5 181   C364.5 181, 374.5 191, 374.5 211   C374.5 231, 364.5 241, 344.5 241   C324.5 241, 314.5 231, 314.5 211  Z " fill="black"/><path stroke="black" stroke-width="0" d="M185.5 211 C185.5 191, 175.5 181, 155.5 181   C135.5 181, 125.5 191, 125.5 211   C125.5 231, 135.5 241, 155.5 241   C175.5 241, 185.5 231, 185.5 211  Z " fill="black"/></svg>

  </svg>