<?xml version="1.0" encoding="UTF-8" standalone="no"?><svg xmlns="http://www.w3.org/2000/svg" id="montage">
    <svg id="ear"/>
    <circle id="countor" stroke="black" cx="250" cy="250" r="200" stroke-width="3" fill="white"/>
    <svg id="mouth"><path stroke="black" stroke-width="1" d="M127 275 C142 325, 358 325, 373 275   M127 275 C211 309, 289 309, 373 275" fill="white"/></svg>
    <svg id="eye"><path stroke="black" stroke-width="1" d="M253 184 C253 119, 321 135, 392 135   C459 135, 399 164, 399 180   C399 244, 338 273, 308 273   C257 273, 253 200, 253 184  Z " fill="white"/><path stroke="black" stroke-width="1" d="M247 184 C247 119, 179 135, 108 135   C41 135, 101 164, 101 180   C101 244, 162 273, 192 273   C243 273, 247 200, 247 184  Z " fill="white"/><path stroke="black" stroke-width="0" d="M319 228 C319 208, 329 198, 349 198   C369 198, 379 208, 379 228   C379 248, 369 258, 349 258   C329 258, 319 248, 319 228  Z " fill="black"/><path stroke="black" stroke-width="0" d="M181 228 C181 208, 171 198, 151 198   C131 198, 121 208, 121 228   C121 248, 131 258, 151 258   C171 258, 181 248, 181 228  Z " fill="black"/></svg>

  </svg>