<?xml version="1.0" encoding="UTF-8" standalone="no"?><svg xmlns="http://www.w3.org/2000/svg" id="montage">
    <svg id="ear"><path stroke="black" stroke-width="1" d="M334.5236523481399 68.73844259267003 C426.5236523481399 254.73844259267003, 459.2707403238341 77.6003279875003, 396.2707403238341 113.6003279875003   " fill="white"/><path stroke="black" stroke-width="1" d="M165.47634765186012 68.73844259267003 C73.47634765186012 254.73844259267003, 40.729259676165896 77.6003279875003, 103.7292596761659 113.6003279875003   " fill="white"/></svg>
    <circle id="countor" stroke="black" cx="250" cy="250" r="200" stroke-width="3" fill="white"/>
    <svg id="mouth"><path stroke="black" stroke-width="1" d="M212 348 C176 344, 324 344, 288 348   M212 348 C357 249, 143 249, 288 348" fill="white"/></svg>
    <svg id="eye"><path stroke="black" stroke-width="1" d="M293 178 C293 103, 349 76, 380 76   C402 76, 454 161, 454 212   C454 275, 377 214, 332 214   C288 214, 293 242, 293 178  Z " fill="white"/><path stroke="black" stroke-width="1" d="M207 178 C207 103, 151 76, 120 76   C98 76, 46 161, 46 212   C46 275, 123 214, 168 214   C212 214, 207 242, 207 178  Z " fill="white"/><path stroke="black" stroke-width="0" d="M320 168 C320 148, 330 138, 350 138   C370 138, 380 148, 380 168   C380 188, 370 198, 350 198   C330 198, 320 188, 320 168  Z " fill="black"/><path stroke="black" stroke-width="0" d="M180 168 C180 148, 170 138, 150 138   C130 138, 120 148, 120 168   C120 188, 130 198, 150 198   C170 198, 180 188, 180 168  Z " fill="black"/></svg>

  </svg>