<?xml version="1.0" encoding="UTF-8" standalone="no"?><svg xmlns="http://www.w3.org/2000/svg" id="montage">
    <svg id="ear"/>
    <circle id="countor" stroke="black" cx="250" cy="250" r="200" stroke-width="3" fill="white"/>
    <svg id="mouth"><path stroke="black" stroke-width="1" d="M228 292 C277 301, 223 301, 272 292   M228 292 C248 386, 252 386, 272 292" fill="white"/></svg>
    <svg id="eye"><path stroke="black" stroke-width="1" d="M277.5 191 C277.5 177, 251.5 87, 331.5 87   C367.5 87, 384.5 66, 384.5 101   C384.5 128, 403.5 222, 358.5 222   C348.5 222, 277.5 234, 277.5 191  Z " fill="white"/><path stroke="black" stroke-width="1" d="M222.5 191 C222.5 177, 248.5 87, 168.5 87   C132.5 87, 115.5 66, 115.5 101   C115.5 128, 96.5 222, 141.5 222   C151.5 222, 222.5 234, 222.5 191  Z " fill="white"/><path stroke="black" stroke-width="0" d="M316.5 150 C316.5 130, 326.5 120, 346.5 120   C366.5 120, 376.5 130, 376.5 150   C376.5 170, 366.5 180, 346.5 180   C326.5 180, 316.5 170, 316.5 150  Z " fill="black"/><path stroke="black" stroke-width="0" d="M183.5 150 C183.5 130, 173.5 120, 153.5 120   C133.5 120, 123.5 130, 123.5 150   C123.5 170, 133.5 180, 153.5 180   C173.5 180, 183.5 170, 183.5 150  Z " fill="black"/></svg>

  </svg>