<?xml version="1.0" encoding="UTF-8" standalone="no"?><svg xmlns="http://www.w3.org/2000/svg" id="montage">
    <svg id="ear"><path stroke="black" stroke-width="1" d="M409.7271020094586 129.63699536959035 C570.7271020094586 -17.363004630409648, 482.43677091335746 193.0786813168176, 435.43677091335746 175.0786813168176   " fill="white"/><path stroke="black" stroke-width="1" d="M90.27289799054142 129.63699536959035 C-70.72710200945858 -17.363004630409648, 17.563229086642508 193.0786813168176, 64.56322908664251 175.0786813168176   " fill="white"/></svg>
    <circle id="countor" stroke="black" cx="250" cy="250" r="200" stroke-width="3" fill="white"/>
    <svg id="mouth"><path stroke="black" stroke-width="1" d="M164.5 380 C120.5 357, 379.5 357, 335.5 380   M164.5 380 C55.5 279, 444.5 279, 335.5 380" fill="white"/></svg>
    <svg id="eye"><path stroke="black" stroke-width="1" d="M233.5 126 C233.5 101, 270.5 60, 298.5 60   C365.5 60, 418.5 59, 418.5 123   C418.5 134, 378.5 193, 350.5 193   C324.5 193, 233.5 175, 233.5 126  Z " fill="white"/><path stroke="black" stroke-width="1" d="M266.5 126 C266.5 101, 229.5 60, 201.5 60   C134.5 60, 81.5 59, 81.5 123   C81.5 134, 121.5 193, 149.5 193   C175.5 193, 266.5 175, 266.5 126  Z " fill="white"/><path stroke="black" stroke-width="0" d="M312.5 130 C312.5 110, 322.5 100, 342.5 100   C362.5 100, 372.5 110, 372.5 130   C372.5 150, 362.5 160, 342.5 160   C322.5 160, 312.5 150, 312.5 130  Z " fill="black"/><path stroke="black" stroke-width="0" d="M187.5 130 C187.5 110, 177.5 100, 157.5 100   C137.5 100, 127.5 110, 127.5 130   C127.5 150, 137.5 160, 157.5 160   C177.5 160, 187.5 150, 187.5 130  Z " fill="black"/></svg>

  </svg>