<?xml version="1.0" encoding="UTF-8" standalone="no"?><svg xmlns="http://www.w3.org/2000/svg" id="montage">
    <svg id="ear"/>
    <circle id="countor" stroke="black" cx="250" cy="250" r="200" stroke-width="3" fill="white"/>
    <svg id="mouth"><path stroke="black" stroke-width="1" d="M132 347 C95 349, 405 349, 368 347   M132 347 C275 294, 225 294, 368 347" fill="white"/></svg>
    <svg id="eye"><path stroke="black" stroke-width="1" d="M227.5 152 C227.5 124, 323.5 143, 363.5 143   C442.5 143, 407.5 99, 407.5 167   C407.5 206, 338.5 234, 323.5 234   C296.5 234, 227.5 205, 227.5 152  Z " fill="white"/><path stroke="black" stroke-width="1" d="M272.5 152 C272.5 124, 176.5 143, 136.5 143   C57.5 143, 92.5 99, 92.5 167   C92.5 206, 161.5 234, 176.5 234   C203.5 234, 272.5 205, 272.5 152  Z " fill="white"/><path stroke="black" stroke-width="0" d="M316.5 185 C316.5 165, 326.5 155, 346.5 155   C366.5 155, 376.5 165, 376.5 185   C376.5 205, 366.5 215, 346.5 215   C326.5 215, 316.5 205, 316.5 185  Z " fill="black"/><path stroke="black" stroke-width="0" d="M183.5 185 C183.5 165, 173.5 155, 153.5 155   C133.5 155, 123.5 165, 123.5 185   C123.5 205, 133.5 215, 153.5 215   C173.5 215, 183.5 205, 183.5 185  Z " fill="black"/></svg>

  </svg>