<?xml version="1.0" encoding="UTF-8" standalone="no"?><svg xmlns="http://www.w3.org/2000/svg" id="montage">
    <svg id="ear"><path stroke="black" stroke-width="1" d="M437.9385241571817 181.59597133486625 C621.9385241571817 185.59597133486625, 586.2609511926071 267.47434094454735, 441.2609511926071 308.47434094454735   " fill="white"/><path stroke="black" stroke-width="1" d="M62.06147584281831 181.59597133486625 C-121.93852415718169 185.59597133486625, -86.26095119260708 267.47434094454735, 58.73904880739292 308.47434094454735   " fill="white"/></svg>
    <circle id="countor" stroke="black" cx="250" cy="250" r="200" stroke-width="3" fill="white"/>
    <svg id="mouth"><path stroke="black" stroke-width="1" d="M150.5 390 C172.5 381, 327.5 381, 349.5 390   M150.5 390 C158.5 516, 341.5 516, 349.5 390" fill="white"/></svg>
    <svg id="eye"><path stroke="black" stroke-width="1" d="M285 154 C285 126, 286 100, 344 100   C390 100, 383 98, 383 111   C383 167, 447 261, 386 261   C361 261, 285 182, 285 154  Z " fill="white"/><path stroke="black" stroke-width="1" d="M215 154 C215 126, 214 100, 156 100   C110 100, 117 98, 117 111   C117 167, 53 261, 114 261   C139 261, 215 182, 215 154  Z " fill="white"/><path stroke="black" stroke-width="0" d="M315 149 C315 129, 325 119, 345 119   C365 119, 375 129, 375 149   C375 169, 365 179, 345 179   C325 179, 315 169, 315 149  Z " fill="black"/><path stroke="black" stroke-width="0" d="M185 149 C185 129, 175 119, 155 119   C135 119, 125 129, 125 149   C125 169, 135 179, 155 179   C175 179, 185 169, 185 149  Z " fill="black"/></svg>

  </svg>