<?xml version="1.0" encoding="UTF-8" standalone="no"?><svg xmlns="http://www.w3.org/2000/svg" id="montage">
    <svg id="ear"/>
    <circle id="countor" stroke="black" cx="250" cy="250" r="200" stroke-width="3" fill="white"/>
    <svg id="mouth"><path stroke="black" stroke-width="1" d="M146.5 381 C123.5 417, 376.5 417, 353.5 381   M146.5 381 C135.5 265, 364.5 265, 353.5 381" fill="white"/></svg>
    <svg id="eye"><path stroke="black" stroke-width="1" d="M228.5 181 C228.5 159, 263.5 34, 314.5 34   C346.5 34, 441.5 44, 441.5 99   C441.5 139, 305.5 203, 292.5 203   C238.5 203, 228.5 195, 228.5 181  Z " fill="white"/><path stroke="black" stroke-width="1" d="M271.5 181 C271.5 159, 236.5 34, 185.5 34   C153.5 34, 58.5 44, 58.5 99   C58.5 139, 194.5 203, 207.5 203   C261.5 203, 271.5 195, 271.5 181  Z " fill="white"/><path stroke="black" stroke-width="0" d="M311.5 144 C311.5 124, 321.5 114, 341.5 114   C361.5 114, 371.5 124, 371.5 144   C371.5 164, 361.5 174, 341.5 174   C321.5 174, 311.5 164, 311.5 144  Z " fill="black"/><path stroke="black" stroke-width="0" d="M188.5 144 C188.5 124, 178.5 114, 158.5 114   C138.5 114, 128.5 124, 128.5 144   C128.5 164, 138.5 174, 158.5 174   C178.5 174, 188.5 164, 188.5 144  Z " fill="black"/></svg>

  </svg>