<?xml version="1.0" encoding="UTF-8" standalone="no"?><svg xmlns="http://www.w3.org/2000/svg" id="montage">
    <svg id="ear"><path stroke="black" stroke-width="1" d="M431.26155740733 165.47634765186012 C602.26155740733 180.47634765186012, 586.7588092598335 493.6742293578155, 429.7588092598334 337.6742293578155   " fill="white"/><path stroke="black" stroke-width="1" d="M68.73844259267003 165.47634765186012 C-102.26155740732997 180.47634765186012, -86.75880925983341 493.6742293578155, 70.24119074016659 337.6742293578155   " fill="white"/></svg>
    <circle id="countor" stroke="black" cx="250" cy="250" r="200" stroke-width="3" fill="white"/>
    <svg id="mouth"><path stroke="black" stroke-width="1" d="M133 383 C92 407, 408 407, 367 383   M133 383 C211 323, 289 323, 367 383" fill="white"/></svg>
    <svg id="eye"><path stroke="black" stroke-width="1" d="M293 191 C293 150, 234 75, 302 75   C381 75, 428 87, 428 140   C428 193, 423 206, 369 206   C321 206, 293 268, 293 191  Z " fill="white"/><path stroke="black" stroke-width="1" d="M207 191 C207 150, 266 75, 198 75   C119 75, 72 87, 72 140   C72 193, 77 206, 131 206   C179 206, 207 268, 207 191  Z " fill="white"/><path stroke="black" stroke-width="0" d="M312 161 C312 141, 322 131, 342 131   C362 131, 372 141, 372 161   C372 181, 362 191, 342 191   C322 191, 312 181, 312 161  Z " fill="black"/><path stroke="black" stroke-width="0" d="M188 161 C188 141, 178 131, 158 131   C138 131, 128 141, 128 161   C128 181, 138 191, 158 191   C178 191, 188 181, 188 161  Z " fill="black"/></svg>

  </svg>