<?xml version="1.0" encoding="UTF-8" standalone="no"?><svg xmlns="http://www.w3.org/2000/svg" id="montage">
    <svg id="ear"><path stroke="black" stroke-width="1" d="M409.7271020094586 129.63699536959035 C523.7271020094586 121.63699536959035, 626.8781654038191 343.9798993405002, 449.87816540381914 256.9798993405002   " fill="white"/><path stroke="black" stroke-width="1" d="M90.27289799054142 129.63699536959035 C-23.727102009458577 121.63699536959035, -126.87816540381914 343.9798993405002, 50.12183459618086 256.9798993405002   " fill="white"/></svg>
    <circle id="countor" stroke="black" cx="250" cy="250" r="200" stroke-width="3" fill="white"/>
    <svg id="mouth"><path stroke="black" stroke-width="1" d="M240 272 C270 313, 230 313, 260 272   M240 272 C143 195, 357 195, 260 272" fill="white"/></svg>
    <svg id="eye"><path stroke="black" stroke-width="1" d="M269 189 C269 164, 311 160, 360 160   C431 160, 457 186, 457 238   C457 265, 369 251, 349 251   C281 251, 269 229, 269 189  Z " fill="white"/><path stroke="black" stroke-width="1" d="M231 189 C231 164, 189 160, 140 160   C69 160, 43 186, 43 238   C43 265, 131 251, 151 251   C219 251, 231 229, 231 189  Z " fill="white"/><path stroke="black" stroke-width="0" d="M310 215 C310 195, 320 185, 340 185   C360 185, 370 195, 370 215   C370 235, 360 245, 340 245   C320 245, 310 235, 310 215  Z " fill="black"/><path stroke="black" stroke-width="0" d="M190 215 C190 195, 180 185, 160 185   C140 185, 130 195, 130 215   C130 235, 140 245, 160 245   C180 245, 190 235, 190 215  Z " fill="black"/></svg>

  </svg>