<?xml version="1.0" encoding="UTF-8" standalone="no"?><svg xmlns="http://www.w3.org/2000/svg" id="montage">
    <svg id="ear"><path stroke="black" stroke-width="1" d="M424.9239414278792 153.0380759507326 C449.9239414278792 22.038075950732605, 618.9385241571817 241.59597133486625, 437.9385241571817 181.59597133486625   " fill="white"/><path stroke="black" stroke-width="1" d="M75.07605857212084 153.0380759507326 C50.07605857212084 22.038075950732605, -118.93852415718169 241.59597133486625, 62.06147584281831 181.59597133486625   " fill="white"/></svg>
    <circle id="countor" stroke="black" cx="250" cy="250" r="200" stroke-width="3" fill="white"/>
    <svg id="mouth"><path stroke="black" stroke-width="1" d="M122 351 C120 387, 380 387, 378 351   M122 351 C55 267, 445 267, 378 351" fill="white"/></svg>
    <svg id="eye"><path stroke="black" stroke-width="1" d="M247.5 147 C247.5 133, 241.5 110, 297.5 110   C331.5 110, 415.5 113, 415.5 187   C415.5 213, 376.5 300, 342.5 300   C264.5 300, 247.5 184, 247.5 147  Z " fill="white"/><path stroke="black" stroke-width="1" d="M252.5 147 C252.5 133, 258.5 110, 202.5 110   C168.5 110, 84.5 113, 84.5 187   C84.5 213, 123.5 300, 157.5 300   C235.5 300, 252.5 184, 252.5 147  Z " fill="white"/><path stroke="black" stroke-width="0" d="M312.5 185 C312.5 165, 322.5 155, 342.5 155   C362.5 155, 372.5 165, 372.5 185   C372.5 205, 362.5 215, 342.5 215   C322.5 215, 312.5 205, 312.5 185  Z " fill="black"/><path stroke="black" stroke-width="0" d="M187.5 185 C187.5 165, 177.5 155, 157.5 155   C137.5 155, 127.5 165, 127.5 185   C127.5 205, 137.5 215, 157.5 215   C177.5 215, 187.5 205, 187.5 185  Z " fill="black"/></svg>

  </svg>