<?xml version="1.0" encoding="UTF-8" standalone="no"?><svg xmlns="http://www.w3.org/2000/svg" id="montage">
    <svg id="ear"/>
    <circle id="countor" stroke="black" cx="250" cy="250" r="200" stroke-width="3" fill="white"/>
    <svg id="mouth"><path stroke="black" stroke-width="1" d="M139.5 358 C187.5 385, 312.5 385, 360.5 358   M139.5 358 C-1.5 216, 501.5 216, 360.5 358" fill="white"/></svg>
    <svg id="eye"><path stroke="black" stroke-width="1" d="M304.5 120 C304.5 99, 245.5 88, 303.5 88   C374.5 88, 416.5 173, 416.5 204   C416.5 234, 373.5 211, 311.5 211   C248.5 211, 304.5 170, 304.5 120  Z " fill="white"/><path stroke="black" stroke-width="1" d="M195.5 120 C195.5 99, 254.5 88, 196.5 88   C125.5 88, 83.5 173, 83.5 204   C83.5 234, 126.5 211, 188.5 211   C251.5 211, 195.5 170, 195.5 120  Z " fill="white"/><path stroke="black" stroke-width="0" d="M315.5 165 C315.5 145, 325.5 135, 345.5 135   C365.5 135, 375.5 145, 375.5 165   C375.5 185, 365.5 195, 345.5 195   C325.5 195, 315.5 185, 315.5 165  Z " fill="black"/><path stroke="black" stroke-width="0" d="M184.5 165 C184.5 145, 174.5 135, 154.5 135   C134.5 135, 124.5 145, 124.5 165   C124.5 185, 134.5 195, 154.5 195   C174.5 195, 184.5 185, 184.5 165  Z " fill="black"/></svg>

  </svg>