<?xml version="1.0" encoding="UTF-8" standalone="no"?><svg xmlns="http://www.w3.org/2000/svg" id="montage">
    <svg id="ear"><path stroke="black" stroke-width="1" d="M311.8033988749895 59.7886967409693 C351.8033988749895 -108.2113032590307, 508.4291922913942 -0.8640782099674738, 405.4291922913942 124.13592179003253   " fill="white"/><path stroke="black" stroke-width="1" d="M188.19660112501052 59.7886967409693 C148.19660112501052 -108.2113032590307, -8.429192291394173 -0.8640782099674738, 94.57080770860583 124.13592179003253   " fill="white"/></svg>
    <circle id="countor" stroke="black" cx="250" cy="250" r="200" stroke-width="3" fill="white"/>
    <svg id="mouth"><path stroke="black" stroke-width="1" d="M181 428 C154 478, 346 478, 319 428   M181 428 C279 557, 221 557, 319 428" fill="white"/></svg>
    <svg id="eye"><path stroke="black" stroke-width="1" d="M279 237 C279 168, 272 78, 335 78   C410 78, 385 147, 385 160   C385 213, 390 291, 330 291   C298 291, 279 287, 279 237  Z " fill="white"/><path stroke="black" stroke-width="1" d="M221 237 C221 168, 228 78, 165 78   C90 78, 115 147, 115 160   C115 213, 110 291, 170 291   C202 291, 221 287, 221 237  Z " fill="white"/><path stroke="black" stroke-width="0" d="M311 188 C311 168, 321 158, 341 158   C361 158, 371 168, 371 188   C371 208, 361 218, 341 218   C321 218, 311 208, 311 188  Z " fill="black"/><path stroke="black" stroke-width="0" d="M189 188 C189 168, 179 158, 159 158   C139 158, 129 168, 129 188   C129 208, 139 218, 159 218   C179 218, 189 208, 189 188  Z " fill="black"/></svg>

  </svg>