<?xml version="1.0" encoding="UTF-8" standalone="no"?><svg xmlns="http://www.w3.org/2000/svg" id="montage">
    <svg id="ear"><path stroke="black" stroke-width="1" d="M393.8679600677302 111.06832590820056 C435.8679600677302 -15.931674091799437, 574.5376681190276 189.71310699195382, 447.53766811902756 218.71310699195382   " fill="white"/><path stroke="black" stroke-width="1" d="M106.13203993226975 111.06832590820056 C64.13203993226975 -15.931674091799437, -74.53766811902756 189.71310699195382, 52.46233188097244 218.71310699195382   " fill="white"/></svg>
    <circle id="countor" stroke="black" cx="250" cy="250" r="200" stroke-width="3" fill="white"/>
    <svg id="mouth"><path stroke="black" stroke-width="1" d="M205.5 408 C254.5 452, 245.5 452, 294.5 408   M205.5 408 C150.5 416, 349.5 416, 294.5 408" fill="white"/></svg>
    <svg id="eye"><path stroke="black" stroke-width="1" d="M281 176 C281 110, 288 117, 315 117   C354 117, 408 140, 408 206   C408 216, 361 322, 329 322   C319 322, 281 232, 281 176  Z " fill="white"/><path stroke="black" stroke-width="1" d="M219 176 C219 110, 212 117, 185 117   C146 117, 92 140, 92 206   C92 216, 139 322, 171 322   C181 322, 219 232, 219 176  Z " fill="white"/><path stroke="black" stroke-width="0" d="M310 217 C310 197, 320 187, 340 187   C360 187, 370 197, 370 217   C370 237, 360 247, 340 247   C320 247, 310 237, 310 217  Z " fill="black"/><path stroke="black" stroke-width="0" d="M190 217 C190 197, 180 187, 160 187   C140 187, 130 197, 130 217   C130 237, 140 247, 160 247   C180 247, 190 237, 190 217  Z " fill="black"/></svg>

  </svg>