<?xml version="1.0" encoding="UTF-8" standalone="no"?><svg xmlns="http://www.w3.org/2000/svg" id="montage">
    <svg id="ear"/>
    <circle id="countor" stroke="black" cx="250" cy="250" r="200" stroke-width="3" fill="white"/>
    <svg id="mouth"><path stroke="black" stroke-width="1" d="M187.5 292 C184.5 296, 315.5 296, 312.5 292   M187.5 292 C327.5 439, 172.5 439, 312.5 292" fill="white"/></svg>
    <svg id="eye"><path stroke="black" stroke-width="1" d="M257.5 245 C257.5 211, 324.5 169, 393.5 169   C421.5 169, 408.5 219, 408.5 274   C408.5 314, 409.5 316, 348.5 316   C324.5 316, 257.5 296, 257.5 245  Z " fill="white"/><path stroke="black" stroke-width="1" d="M242.5 245 C242.5 211, 175.5 169, 106.5 169   C78.5 169, 91.5 219, 91.5 274   C91.5 314, 90.5 316, 151.5 316   C175.5 316, 242.5 296, 242.5 245  Z " fill="white"/><path stroke="black" stroke-width="0" d="M317.5 230 C317.5 210, 327.5 200, 347.5 200   C367.5 200, 377.5 210, 377.5 230   C377.5 250, 367.5 260, 347.5 260   C327.5 260, 317.5 250, 317.5 230  Z " fill="black"/><path stroke="black" stroke-width="0" d="M182.5 230 C182.5 210, 172.5 200, 152.5 200   C132.5 200, 122.5 210, 122.5 230   C122.5 250, 132.5 260, 152.5 260   C172.5 260, 182.5 250, 182.5 230  Z " fill="black"/></svg>

  </svg>