<?xml version="1.0" encoding="UTF-8" standalone="no"?><svg xmlns="http://www.w3.org/2000/svg" id="montage">
    <svg id="ear"/>
    <circle id="countor" stroke="black" cx="250" cy="250" r="200" stroke-width="3" fill="white"/>
    <svg id="mouth"><path stroke="black" stroke-width="1" d="M185.5 291 C184.5 321, 315.5 321, 314.5 291   M185.5 291 C85.5 419, 414.5 419, 314.5 291" fill="white"/></svg>
    <svg id="eye"><path stroke="black" stroke-width="1" d="M274 202 C274 186, 302 103, 357 103   C407 103, 407 213, 407 251   C407 266, 353 335, 302 335   C268 335, 274 281, 274 202  Z " fill="white"/><path stroke="black" stroke-width="1" d="M226 202 C226 186, 198 103, 143 103   C93 103, 93 213, 93 251   C93 266, 147 335, 198 335   C232 335, 226 281, 226 202  Z " fill="white"/><path stroke="black" stroke-width="0" d="M317 215 C317 195, 327 185, 347 185   C367 185, 377 195, 377 215   C377 235, 367 245, 347 245   C327 245, 317 235, 317 215  Z " fill="black"/><path stroke="black" stroke-width="0" d="M183 215 C183 195, 173 185, 153 185   C133 185, 123 195, 123 215   C123 235, 133 245, 153 245   C173 245, 183 235, 183 215  Z " fill="black"/></svg>

  </svg>