<?xml version="1.0" encoding="UTF-8" standalone="no"?><svg xmlns="http://www.w3.org/2000/svg" id="montage">
    <svg id="ear"/>
    <circle id="countor" stroke="black" cx="250" cy="250" r="200" stroke-width="3" fill="white"/>
    <svg id="mouth"><path stroke="black" stroke-width="1" d="M124 323 C151 365, 349 365, 376 323   M124 323 C265 347, 235 347, 376 323" fill="white"/></svg>
    <svg id="eye"><path stroke="black" stroke-width="1" d="M267.5 186 C267.5 108, 340.5 32, 357.5 32   C397.5 32, 441.5 80, 441.5 125   C441.5 178, 326.5 230, 314.5 230   C237.5 230, 267.5 266, 267.5 186  Z " fill="white"/><path stroke="black" stroke-width="1" d="M232.5 186 C232.5 108, 159.5 32, 142.5 32   C102.5 32, 58.5 80, 58.5 125   C58.5 178, 173.5 230, 185.5 230   C262.5 230, 232.5 266, 232.5 186  Z " fill="white"/><path stroke="black" stroke-width="0" d="M319.5 139 C319.5 119, 329.5 109, 349.5 109   C369.5 109, 379.5 119, 379.5 139   C379.5 159, 369.5 169, 349.5 169   C329.5 169, 319.5 159, 319.5 139  Z " fill="black"/><path stroke="black" stroke-width="0" d="M180.5 139 C180.5 119, 170.5 109, 150.5 109   C130.5 109, 120.5 119, 120.5 139   C120.5 159, 130.5 169, 150.5 169   C170.5 169, 180.5 159, 180.5 139  Z " fill="black"/></svg>

  </svg>