<?xml version="1.0" encoding="UTF-8" standalone="no"?><svg xmlns="http://www.w3.org/2000/svg" id="montage">
    <svg id="ear"><path stroke="black" stroke-width="1" d="M428.20130483767355 159.20190005209065 C454.20130483767355 201.20190005209065, 582.9385241571817 148.40402866513375, 437.9385241571817 318.40402866513375   " fill="white"/><path stroke="black" stroke-width="1" d="M71.79869516232642 159.20190005209065 C45.798695162326425 201.20190005209065, -82.93852415718169 148.40402866513375, 62.06147584281831 318.40402866513375   " fill="white"/></svg>
    <circle id="countor" stroke="black" cx="250" cy="250" r="200" stroke-width="3" fill="white"/>
    <svg id="mouth"><path stroke="black" stroke-width="1" d="M167 353 C164 328, 336 328, 333 353   M167 353 C228 265, 272 265, 333 353" fill="white"/></svg>
    <svg id="eye"><path stroke="black" stroke-width="1" d="M266 133 C266 111, 273 85, 304 85   C353 85, 424 91, 424 154   C424 228, 392 228, 352 228   C274 228, 266 186, 266 133  Z " fill="white"/><path stroke="black" stroke-width="1" d="M234 133 C234 111, 227 85, 196 85   C147 85, 76 91, 76 154   C76 228, 108 228, 148 228   C226 228, 234 186, 234 133  Z " fill="white"/><path stroke="black" stroke-width="0" d="M318 176 C318 156, 328 146, 348 146   C368 146, 378 156, 378 176   C378 196, 368 206, 348 206   C328 206, 318 196, 318 176  Z " fill="black"/><path stroke="black" stroke-width="0" d="M182 176 C182 156, 172 146, 152 146   C132 146, 122 156, 122 176   C122 196, 132 206, 152 206   C172 206, 182 196, 182 176  Z " fill="black"/></svg>

  </svg>