<?xml version="1.0" encoding="UTF-8" standalone="no"?><svg xmlns="http://www.w3.org/2000/svg" id="montage">
    <svg id="ear"><path stroke="black" stroke-width="1" d="M358.92780700300546 82.26588641091521 C444.92780700300546 118.26588641091521, 488.9385241571817 204.59597133486625, 437.9385241571817 181.59597133486625   " fill="white"/><path stroke="black" stroke-width="1" d="M141.07219299699454 82.26588641091521 C55.072192996994545 118.26588641091521, 11.06147584281831 204.59597133486625, 62.06147584281831 181.59597133486625   " fill="white"/></svg>
    <circle id="countor" stroke="black" cx="250" cy="250" r="200" stroke-width="3" fill="white"/>
    <svg id="mouth"><path stroke="black" stroke-width="1" d="M157 304 C154 334, 346 334, 343 304   M157 304 C180 421, 320 421, 343 304" fill="white"/></svg>
    <svg id="eye"><path stroke="black" stroke-width="1" d="M277.5 193 C277.5 131, 255.5 50, 327.5 50   C377.5 50, 467.5 109, 467.5 161   C467.5 232, 452.5 257, 394.5 257   C326.5 257, 277.5 247, 277.5 193  Z " fill="white"/><path stroke="black" stroke-width="1" d="M222.5 193 C222.5 131, 244.5 50, 172.5 50   C122.5 50, 32.5 109, 32.5 161   C32.5 232, 47.5 257, 105.5 257   C173.5 257, 222.5 247, 222.5 193  Z " fill="white"/><path stroke="black" stroke-width="0" d="M318.5 156 C318.5 136, 328.5 126, 348.5 126   C368.5 126, 378.5 136, 378.5 156   C378.5 176, 368.5 186, 348.5 186   C328.5 186, 318.5 176, 318.5 156  Z " fill="black"/><path stroke="black" stroke-width="0" d="M181.5 156 C181.5 136, 171.5 126, 151.5 126   C131.5 126, 121.5 136, 121.5 156   C121.5 176, 131.5 186, 151.5 186   C171.5 186, 181.5 176, 181.5 156  Z " fill="black"/></svg>

  </svg>