<?xml version="1.0" encoding="UTF-8" standalone="no"?><svg xmlns="http://www.w3.org/2000/svg" id="montage">
    <svg id="ear"/>
    <circle id="countor" stroke="black" cx="250" cy="250" r="200" stroke-width="3" fill="white"/>
    <svg id="mouth"><path stroke="black" stroke-width="1" d="M221 351 C206 354, 294 354, 279 351   M221 351 C181 458, 319 458, 279 351" fill="white"/></svg>
    <svg id="eye"><path stroke="black" stroke-width="1" d="M303 141 C303 130, 241 98, 301 98   C372 98, 448 81, 448 144   C448 169, 471 242, 392 242   C357 242, 303 181, 303 141  Z " fill="white"/><path stroke="black" stroke-width="1" d="M197 141 C197 130, 259 98, 199 98   C128 98, 52 81, 52 144   C52 169, 29 242, 108 242   C143 242, 197 181, 197 141  Z " fill="white"/><path stroke="black" stroke-width="0" d="M319 187 C319 167, 329 157, 349 157   C369 157, 379 167, 379 187   C379 207, 369 217, 349 217   C329 217, 319 207, 319 187  Z " fill="black"/><path stroke="black" stroke-width="0" d="M181 187 C181 167, 171 157, 151 157   C131 157, 121 167, 121 187   C121 207, 131 217, 151 217   C171 217, 181 207, 181 187  Z " fill="black"/></svg>

  </svg>