<?xml version="1.0" encoding="UTF-8" standalone="no"?><svg xmlns="http://www.w3.org/2000/svg" id="montage">
    <svg id="ear"/>
    <circle id="countor" stroke="black" cx="250" cy="250" r="200" stroke-width="3" fill="white"/>
    <svg id="mouth"><path stroke="black" stroke-width="1" d="M202 370 C154 380, 346 380, 298 370   M202 370 C204 482, 296 482, 298 370" fill="white"/></svg>
    <svg id="eye"><path stroke="black" stroke-width="1" d="M244.5 234 C244.5 158, 336.5 99, 369.5 99   C432.5 99, 382.5 208, 382.5 219   C382.5 270, 378.5 299, 325.5 299   C256.5 299, 244.5 281, 244.5 234  Z " fill="white"/><path stroke="black" stroke-width="1" d="M255.5 234 C255.5 158, 163.5 99, 130.5 99   C67.5 99, 117.5 208, 117.5 219   C117.5 270, 121.5 299, 174.5 299   C243.5 299, 255.5 281, 255.5 234  Z " fill="white"/><path stroke="black" stroke-width="0" d="M317.5 207 C317.5 187, 327.5 177, 347.5 177   C367.5 177, 377.5 187, 377.5 207   C377.5 227, 367.5 237, 347.5 237   C327.5 237, 317.5 227, 317.5 207  Z " fill="black"/><path stroke="black" stroke-width="0" d="M182.5 207 C182.5 187, 172.5 177, 152.5 177   C132.5 177, 122.5 187, 122.5 207   C122.5 227, 132.5 237, 152.5 237   C172.5 237, 182.5 227, 182.5 207  Z " fill="black"/></svg>

  </svg>