<?xml version="1.0" encoding="UTF-8" standalone="no"?><svg xmlns="http://www.w3.org/2000/svg" id="montage">
    <svg id="ear"/>
    <circle id="countor" stroke="black" cx="250" cy="250" r="200" stroke-width="3" fill="white"/>
    <svg id="mouth"><path stroke="black" stroke-width="1" d="M193.5 372 C160.5 332, 339.5 332, 306.5 372   M193.5 372 C64.5 438, 435.5 438, 306.5 372" fill="white"/></svg>
    <svg id="eye"><path stroke="black" stroke-width="1" d="M253 178 C253 117, 298 55, 376 55   C386 55, 408 110, 408 173   C408 236, 315 242, 301 242   C276 242, 253 242, 253 178  Z " fill="white"/><path stroke="black" stroke-width="1" d="M247 178 C247 117, 202 55, 124 55   C114 55, 92 110, 92 173   C92 236, 185 242, 199 242   C224 242, 247 242, 247 178  Z " fill="white"/><path stroke="black" stroke-width="0" d="M310 150 C310 130, 320 120, 340 120   C360 120, 370 130, 370 150   C370 170, 360 180, 340 180   C320 180, 310 170, 310 150  Z " fill="black"/><path stroke="black" stroke-width="0" d="M190 150 C190 130, 180 120, 160 120   C140 120, 130 130, 130 150   C130 170, 140 180, 160 180   C180 180, 190 170, 190 150  Z " fill="black"/></svg>

  </svg>