<?xml version="1.0" encoding="UTF-8" standalone="no"?><svg xmlns="http://www.w3.org/2000/svg" id="montage">
    <svg id="ear"/>
    <circle id="countor" stroke="black" cx="250" cy="250" r="200" stroke-width="3" fill="white"/>
    <svg id="mouth"><path stroke="black" stroke-width="1" d="M150 353 C101 342, 399 342, 350 353   M150 353 C231 367, 269 367, 350 353" fill="white"/></svg>
    <svg id="eye"><path stroke="black" stroke-width="1" d="M291 140 C291 117, 322 147, 376 147   C442 147, 383 129, 383 178   C383 237, 405 255, 344 255   C303 255, 291 158, 291 140  Z " fill="white"/><path stroke="black" stroke-width="1" d="M209 140 C209 117, 178 147, 124 147   C58 147, 117 129, 117 178   C117 237, 95 255, 156 255   C197 255, 209 158, 209 140  Z " fill="white"/><path stroke="black" stroke-width="0" d="M315 190 C315 170, 325 160, 345 160   C365 160, 375 170, 375 190   C375 210, 365 220, 345 220   C325 220, 315 210, 315 190  Z " fill="black"/><path stroke="black" stroke-width="0" d="M185 190 C185 170, 175 160, 155 160   C135 160, 125 170, 125 190   C125 210, 135 220, 155 220   C175 220, 185 210, 185 190  Z " fill="black"/></svg>

  </svg>