<?xml version="1.0" encoding="UTF-8" standalone="no"?><svg xmlns="http://www.w3.org/2000/svg" id="montage">
    <svg id="ear"><path stroke="black" stroke-width="1" d="M403.2088886237956 121.44247806269215 C542.2088886237956 296.44247806269215, 558.0536137483141 281.16537980798694, 448.0536137483141 222.1653798079869   " fill="white"/><path stroke="black" stroke-width="1" d="M96.79111137620438 121.44247806269215 C-42.208888623795616 296.44247806269215, -58.05361374831406 281.16537980798694, 51.94638625168594 222.1653798079869   " fill="white"/></svg>
    <circle id="countor" stroke="black" cx="250" cy="250" r="200" stroke-width="3" fill="white"/>
    <svg id="mouth"><path stroke="black" stroke-width="1" d="M199.5 310 C162.5 350, 337.5 350, 300.5 310   M199.5 310 C292.5 193, 207.5 193, 300.5 310" fill="white"/></svg>
    <svg id="eye"><path stroke="black" stroke-width="1" d="M262.5 102 C262.5 31, 339.5 55, 394.5 55   C422.5 55, 421.5 33, 421.5 90   C421.5 136, 393.5 251, 338.5 251   C314.5 251, 262.5 147, 262.5 102  Z " fill="white"/><path stroke="black" stroke-width="1" d="M237.5 102 C237.5 31, 160.5 55, 105.5 55   C77.5 55, 78.5 33, 78.5 90   C78.5 136, 106.5 251, 161.5 251   C185.5 251, 237.5 147, 237.5 102  Z " fill="white"/><path stroke="black" stroke-width="0" d="M317.5 134 C317.5 114, 327.5 104, 347.5 104   C367.5 104, 377.5 114, 377.5 134   C377.5 154, 367.5 164, 347.5 164   C327.5 164, 317.5 154, 317.5 134  Z " fill="black"/><path stroke="black" stroke-width="0" d="M182.5 134 C182.5 114, 172.5 104, 152.5 104   C132.5 104, 122.5 114, 122.5 134   C122.5 154, 132.5 164, 152.5 164   C172.5 164, 182.5 154, 182.5 134  Z " fill="black"/></svg>

  </svg>