<?xml version="1.0" encoding="UTF-8" standalone="no"?><svg xmlns="http://www.w3.org/2000/svg" id="montage">
    <svg id="ear"><path stroke="black" stroke-width="1" d="M334.5236523481399 68.73844259267003 C402.5236523481399 -119.26155740732997, 602.9385241571817 33.59597133486625, 437.9385241571817 181.59597133486625   " fill="white"/><path stroke="black" stroke-width="1" d="M165.47634765186012 68.73844259267003 C97.47634765186012 -119.26155740732997, -102.93852415718169 33.59597133486625, 62.06147584281831 181.59597133486625   " fill="white"/></svg>
    <circle id="countor" stroke="black" cx="250" cy="250" r="200" stroke-width="3" fill="white"/>
    <svg id="mouth"><path stroke="black" stroke-width="1" d="M148.5 333 C177.5 317, 322.5 317, 351.5 333   M148.5 333 C67.5 185, 432.5 185, 351.5 333" fill="white"/></svg>
    <svg id="eye"><path stroke="black" stroke-width="1" d="M271 173 C271 107, 255 108, 305 108   C335 108, 456 112, 456 160   C456 223, 407 272, 328 272   C307 272, 271 227, 271 173  Z " fill="white"/><path stroke="black" stroke-width="1" d="M229 173 C229 107, 245 108, 195 108   C165 108, 44 112, 44 160   C44 223, 93 272, 172 272   C193 272, 229 227, 229 173  Z " fill="white"/><path stroke="black" stroke-width="0" d="M311 205 C311 185, 321 175, 341 175   C361 175, 371 185, 371 205   C371 225, 361 235, 341 235   C321 235, 311 225, 311 205  Z " fill="black"/><path stroke="black" stroke-width="0" d="M189 205 C189 185, 179 175, 159 175   C139 175, 129 185, 129 205   C129 225, 139 235, 159 235   C179 235, 189 225, 189 205  Z " fill="black"/></svg>

  </svg>