<?xml version="1.0" encoding="UTF-8" standalone="no"?><svg xmlns="http://www.w3.org/2000/svg" id="montage">
    <svg id="ear"><path stroke="black" stroke-width="1" d="M432.70909152852016 168.65267138483998 C460.70909152852016 106.65267138483998, 489.9385241571817 481.40402866513375, 437.9385241571817 318.40402866513375   " fill="white"/><path stroke="black" stroke-width="1" d="M67.29090847147984 168.65267138483998 C39.29090847147984 106.65267138483998, 10.06147584281831 481.40402866513375, 62.06147584281831 318.40402866513375   " fill="white"/></svg>
    <circle id="countor" stroke="black" cx="250" cy="250" r="200" stroke-width="3" fill="white"/>
    <svg id="mouth"><path stroke="black" stroke-width="1" d="M221.5 320 C220.5 289, 279.5 289, 278.5 320   M221.5 320 C90.5 179, 409.5 179, 278.5 320" fill="white"/></svg>
    <svg id="eye"><path stroke="black" stroke-width="1" d="M283.5 190 C283.5 142, 372.5 48, 397.5 48   C453.5 48, 409.5 128, 409.5 177   C409.5 208, 375.5 212, 319.5 212   C289.5 212, 283.5 246, 283.5 190  Z " fill="white"/><path stroke="black" stroke-width="1" d="M216.5 190 C216.5 142, 127.5 48, 102.5 48   C46.5 48, 90.5 128, 90.5 177   C90.5 208, 124.5 212, 180.5 212   C210.5 212, 216.5 246, 216.5 190  Z " fill="white"/><path stroke="black" stroke-width="0" d="M317.5 149 C317.5 129, 327.5 119, 347.5 119   C367.5 119, 377.5 129, 377.5 149   C377.5 169, 367.5 179, 347.5 179   C327.5 179, 317.5 169, 317.5 149  Z " fill="black"/><path stroke="black" stroke-width="0" d="M182.5 149 C182.5 129, 172.5 119, 152.5 119   C132.5 119, 122.5 129, 122.5 149   C122.5 169, 132.5 179, 152.5 179   C172.5 179, 182.5 169, 182.5 149  Z " fill="black"/></svg>

  </svg>