<?xml version="1.0" encoding="UTF-8" standalone="no"?><svg xmlns="http://www.w3.org/2000/svg" id="montage">
    <svg id="ear"><path stroke="black" stroke-width="1" d="M334.5236523481399 68.73844259267003 C448.5236523481399 -50.261557407329974, 480.87816540381914 220.0201006594998, 449.87816540381914 243.0201006594998   " fill="white"/><path stroke="black" stroke-width="1" d="M165.47634765186012 68.73844259267003 C51.476347651860124 -50.261557407329974, 19.12183459618086 220.0201006594998, 50.12183459618086 243.0201006594998   " fill="white"/></svg>
    <circle id="countor" stroke="black" cx="250" cy="250" r="200" stroke-width="3" fill="white"/>
    <svg id="mouth"><path stroke="black" stroke-width="1" d="M231.5 360 C261.5 358, 238.5 358, 268.5 360   M231.5 360 C238.5 418, 261.5 418, 268.5 360" fill="white"/></svg>
    <svg id="eye"><path stroke="black" stroke-width="1" d="M274.5 201 C274.5 165, 347.5 131, 372.5 131   C401.5 131, 429.5 198, 429.5 227   C429.5 246, 416.5 284, 345.5 284   C311.5 284, 274.5 238, 274.5 201  Z " fill="white"/><path stroke="black" stroke-width="1" d="M225.5 201 C225.5 165, 152.5 131, 127.5 131   C98.5 131, 70.5 198, 70.5 227   C70.5 246, 83.5 284, 154.5 284   C188.5 284, 225.5 238, 225.5 201  Z " fill="white"/><path stroke="black" stroke-width="0" d="M317.5 197 C317.5 177, 327.5 167, 347.5 167   C367.5 167, 377.5 177, 377.5 197   C377.5 217, 367.5 227, 347.5 227   C327.5 227, 317.5 217, 317.5 197  Z " fill="black"/><path stroke="black" stroke-width="0" d="M182.5 197 C182.5 177, 172.5 167, 152.5 167   C132.5 167, 122.5 177, 122.5 197   C122.5 217, 132.5 227, 152.5 227   C172.5 227, 182.5 217, 182.5 197  Z " fill="black"/></svg>

  </svg>