<?xml version="1.0" encoding="UTF-8" standalone="no"?><svg xmlns="http://www.w3.org/2000/svg" id="montage">
    <svg id="ear"><path stroke="black" stroke-width="1" d="M413.8304088577984 135.28471272979078 C539.8304088577984 148.28471272979078, 492.20130483767355 10.20190005209065, 428.20130483767355 159.20190005209065   " fill="white"/><path stroke="black" stroke-width="1" d="M86.16959114220165 135.28471272979078 C-39.830408857798346 148.28471272979078, 7.798695162326425 10.20190005209065, 71.79869516232642 159.20190005209065   " fill="white"/></svg>
    <circle id="countor" stroke="black" cx="250" cy="250" r="200" stroke-width="3" fill="white"/>
    <svg id="mouth"><path stroke="black" stroke-width="1" d="M181.5 285 C214.5 270, 285.5 270, 318.5 285   M181.5 285 C160.5 358, 339.5 358, 318.5 285" fill="white"/></svg>
    <svg id="eye"><path stroke="black" stroke-width="1" d="M230.5 196 C230.5 133, 274.5 129, 348.5 129   C405.5 129, 451.5 185, 451.5 230   C451.5 256, 365.5 315, 328.5 315   C253.5 315, 230.5 223, 230.5 196  Z " fill="white"/><path stroke="black" stroke-width="1" d="M269.5 196 C269.5 133, 225.5 129, 151.5 129   C94.5 129, 48.5 185, 48.5 230   C48.5 256, 134.5 315, 171.5 315   C246.5 315, 269.5 223, 269.5 196  Z " fill="white"/><path stroke="black" stroke-width="0" d="M318.5 197 C318.5 177, 328.5 167, 348.5 167   C368.5 167, 378.5 177, 378.5 197   C378.5 217, 368.5 227, 348.5 227   C328.5 227, 318.5 217, 318.5 197  Z " fill="black"/><path stroke="black" stroke-width="0" d="M181.5 197 C181.5 177, 171.5 167, 151.5 167   C131.5 167, 121.5 177, 121.5 197   C121.5 217, 131.5 227, 151.5 227   C171.5 227, 181.5 217, 181.5 197  Z " fill="black"/></svg>

  </svg>