<?xml version="1.0" encoding="UTF-8" standalone="no"?><svg xmlns="http://www.w3.org/2000/svg" id="montage">
    <svg id="ear"><path stroke="black" stroke-width="1" d="M449.51281005196483 236.04870525117494 C576.5128100519648 216.04870525117494, 471.87816540381914 339.9798993405002, 449.87816540381914 256.9798993405002   " fill="white"/><path stroke="black" stroke-width="1" d="M50.487189948035166 236.04870525117494 C-76.51281005196483 216.04870525117494, 28.12183459618086 339.9798993405002, 50.12183459618086 256.9798993405002   " fill="white"/></svg>
    <circle id="countor" stroke="black" cx="250" cy="250" r="200" stroke-width="3" fill="white"/>
    <svg id="mouth"><path stroke="black" stroke-width="1" d="M222.5 344 C198.5 347, 301.5 347, 277.5 344   M222.5 344 C309.5 418, 190.5 418, 277.5 344" fill="white"/></svg>
    <svg id="eye"><path stroke="black" stroke-width="1" d="M231 218 C231 150, 317 123, 355 123   C430 123, 446 164, 446 211   C446 257, 361 296, 350 296   C327 296, 231 228, 231 218  Z " fill="white"/><path stroke="black" stroke-width="1" d="M269 218 C269 150, 183 123, 145 123   C70 123, 54 164, 54 211   C54 257, 139 296, 150 296   C173 296, 269 228, 269 218  Z " fill="white"/><path stroke="black" stroke-width="0" d="M310 180 C310 160, 320 150, 340 150   C360 150, 370 160, 370 180   C370 200, 360 210, 340 210   C320 210, 310 200, 310 180  Z " fill="black"/><path stroke="black" stroke-width="0" d="M190 180 C190 160, 180 150, 160 150   C140 150, 130 160, 130 180   C130 200, 140 210, 160 210   C180 210, 190 200, 190 180  Z " fill="black"/></svg>

  </svg>