<?xml version="1.0" encoding="UTF-8" standalone="no"?><svg xmlns="http://www.w3.org/2000/svg" id="montage">
    <svg id="ear"><path stroke="black" stroke-width="1" d="M435.43677091335746 175.0786813168176 C565.4367709133575 358.0786813168176, 507.21130325903073 384.1966011250105, 440.21130325903073 188.19660112501052   " fill="white"/><path stroke="black" stroke-width="1" d="M64.56322908664251 175.0786813168176 C-65.43677091335749 358.0786813168176, -7.2113032590307 384.1966011250105, 59.7886967409693 188.19660112501052   " fill="white"/></svg>
    <circle id="countor" stroke="black" cx="250" cy="250" r="200" stroke-width="3" fill="white"/>
    <svg id="mouth"><path stroke="black" stroke-width="1" d="M234 337 C246 308, 254 308, 266 337   M234 337 C159 362, 341 362, 266 337" fill="white"/></svg>
    <svg id="eye"><path stroke="black" stroke-width="1" d="M259.5 95 C259.5 18, 294.5 62, 310.5 62   C362.5 62, 385.5 74, 385.5 105   C385.5 184, 427.5 201, 380.5 201   C318.5 201, 259.5 105, 259.5 95  Z " fill="white"/><path stroke="black" stroke-width="1" d="M240.5 95 C240.5 18, 205.5 62, 189.5 62   C137.5 62, 114.5 74, 114.5 105   C114.5 184, 72.5 201, 119.5 201   C181.5 201, 240.5 105, 240.5 95  Z " fill="white"/><path stroke="black" stroke-width="0" d="M316.5 137 C316.5 117, 326.5 107, 346.5 107   C366.5 107, 376.5 117, 376.5 137   C376.5 157, 366.5 167, 346.5 167   C326.5 167, 316.5 157, 316.5 137  Z " fill="black"/><path stroke="black" stroke-width="0" d="M183.5 137 C183.5 117, 173.5 107, 153.5 107   C133.5 107, 123.5 117, 123.5 137   C123.5 157, 133.5 167, 153.5 167   C173.5 167, 183.5 157, 183.5 137  Z " fill="black"/></svg>

  </svg>