<?xml version="1.0" encoding="UTF-8" standalone="no"?><svg xmlns="http://www.w3.org/2000/svg" id="montage">
    <svg id="ear"><path stroke="black" stroke-width="1" d="M439.1037151198634 184.88636910856866 C510.1037151198634 84.88636910856866, 521.6295201467611 416.58233816355187, 445.62952014676114 291.58233816355187   " fill="white"/><path stroke="black" stroke-width="1" d="M60.89628488013662 184.88636910856866 C-10.10371511986338 84.88636910856866, -21.629520146761138 416.58233816355187, 54.37047985323886 291.58233816355187   " fill="white"/></svg>
    <circle id="countor" stroke="black" cx="250" cy="250" r="200" stroke-width="3" fill="white"/>
    <svg id="mouth"><path stroke="black" stroke-width="1" d="M179.5 351 C143.5 378, 356.5 378, 320.5 351   M179.5 351 C327.5 392, 172.5 392, 320.5 351" fill="white"/></svg>
    <svg id="eye"><path stroke="black" stroke-width="1" d="M302.5 114 C302.5 36, 289.5 61, 312.5 61   C389.5 61, 386.5 94, 386.5 155   C386.5 220, 381.5 224, 354.5 224   C310.5 224, 302.5 187, 302.5 114  Z " fill="white"/><path stroke="black" stroke-width="1" d="M197.5 114 C197.5 36, 210.5 61, 187.5 61   C110.5 61, 113.5 94, 113.5 155   C113.5 220, 118.5 224, 145.5 224   C189.5 224, 197.5 187, 197.5 114  Z " fill="white"/><path stroke="black" stroke-width="0" d="M313.5 153 C313.5 133, 323.5 123, 343.5 123   C363.5 123, 373.5 133, 373.5 153   C373.5 173, 363.5 183, 343.5 183   C323.5 183, 313.5 173, 313.5 153  Z " fill="black"/><path stroke="black" stroke-width="0" d="M186.5 153 C186.5 133, 176.5 123, 156.5 123   C136.5 123, 126.5 133, 126.5 153   C126.5 173, 136.5 183, 156.5 183   C176.5 183, 186.5 173, 186.5 153  Z " fill="black"/></svg>

  </svg>