<?xml version="1.0" encoding="UTF-8" standalone="no"?><svg xmlns="http://www.w3.org/2000/svg" id="montage">
    <svg id="ear"><path stroke="black" stroke-width="1" d="M361.83858069414936 84.19248548899165 C437.83858069414936 -39.80751451100835, 467.21130325903073 225.80339887498945, 440.21130325903073 311.80339887498945   " fill="white"/><path stroke="black" stroke-width="1" d="M138.16141930585064 84.19248548899165 C62.16141930585064 -39.80751451100835, 32.7886967409693 225.80339887498945, 59.7886967409693 311.80339887498945   " fill="white"/></svg>
    <circle id="countor" stroke="black" cx="250" cy="250" r="200" stroke-width="3" fill="white"/>
    <svg id="mouth"><path stroke="black" stroke-width="1" d="M226.5 395 C191.5 370, 308.5 370, 273.5 395   M226.5 395 C177.5 467, 322.5 467, 273.5 395" fill="white"/></svg>
    <svg id="eye"><path stroke="black" stroke-width="1" d="M226 207 C226 147, 324 149, 354 149   C420 149, 425 179, 425 255   C425 293, 418 301, 378 301   C347 301, 226 284, 226 207  Z " fill="white"/><path stroke="black" stroke-width="1" d="M274 207 C274 147, 176 149, 146 149   C80 149, 75 179, 75 255   C75 293, 82 301, 122 301   C153 301, 274 284, 274 207  Z " fill="white"/><path stroke="black" stroke-width="0" d="M313 229 C313 209, 323 199, 343 199   C363 199, 373 209, 373 229   C373 249, 363 259, 343 259   C323 259, 313 249, 313 229  Z " fill="black"/><path stroke="black" stroke-width="0" d="M187 229 C187 209, 177 199, 157 199   C137 199, 127 209, 127 229   C127 249, 137 259, 157 259   C177 259, 187 249, 187 229  Z " fill="black"/></svg>

  </svg>