<?xml version="1.0" encoding="UTF-8" standalone="no"?><svg xmlns="http://www.w3.org/2000/svg" id="montage">
    <svg id="ear"/>
    <circle id="countor" stroke="black" cx="250" cy="250" r="200" stroke-width="3" fill="white"/>
    <svg id="mouth"><path stroke="black" stroke-width="1" d="M122 368 C73 346, 427 346, 378 368   M122 368 C105 446, 395 446, 378 368" fill="white"/></svg>
    <svg id="eye"><path stroke="black" stroke-width="1" d="M295.5 185 C295.5 123, 319.5 141, 364.5 141   C384.5 141, 449.5 204, 449.5 232   C449.5 259, 379.5 275, 318.5 275   C239.5 275, 295.5 195, 295.5 185  Z " fill="white"/><path stroke="black" stroke-width="1" d="M204.5 185 C204.5 123, 180.5 141, 135.5 141   C115.5 141, 50.5 204, 50.5 232   C50.5 259, 120.5 275, 181.5 275   C260.5 275, 204.5 195, 204.5 185  Z " fill="white"/><path stroke="black" stroke-width="0" d="M319.5 193 C319.5 173, 329.5 163, 349.5 163   C369.5 163, 379.5 173, 379.5 193   C379.5 213, 369.5 223, 349.5 223   C329.5 223, 319.5 213, 319.5 193  Z " fill="black"/><path stroke="black" stroke-width="0" d="M180.5 193 C180.5 173, 170.5 163, 150.5 163   C130.5 163, 120.5 173, 120.5 193   C120.5 213, 130.5 223, 150.5 223   C170.5 223, 180.5 213, 180.5 193  Z " fill="black"/></svg>

  </svg>